<svg id="Anteater0.svg" version="1.1" xmlns="http://www.w3.org/2000/svg" xmlns:xlink="http://www.w3.org/1999/xlink" width="150" height="150" viewBox="0 0 300 300" xml:space="preserve">    <!-- Generated by PaintCode (www.paintcodeapp.com) -->    <path id="anteater0-bezier" stroke="none" fill="rgb(220, 98, 125)" d="M 176.96,270.46 C 176.88,270.46 176.8,270.46 176.73,270.45 174.99,270.33 173.68,268.81 173.81,267.08 176.7,227.02 170.54,186.05 155.99,148.61 155.36,146.98 156.16,145.16 157.79,144.52 159.41,143.89 161.24,144.7 161.87,146.32 176.75,184.63 183.06,226.54 180.1,267.53 179.98,269.19 178.59,270.46 176.96,270.46 Z M 176.96,270.46"></path>    <path id="anteater0-bezier2" stroke="none" fill="rgb(111, 7, 44)" d="M 88.91,282.53 C 87.08,281.33 85.24,280.13 83.4,278.93 82.96,272.83 82.52,266.74 82.08,260.64 75.42,258.83 68.27,258.88 61.63,260.78 61.63,268.13 61.62,275.48 61.61,282.83 L 88.91,282.53 Z M 88.91,282.53"></path>    <path id="anteater0-bezier3" stroke="none" fill="rgb(111, 7, 44)" d="M 154.96,282.53 C 153.12,281.33 151.28,280.13 149.44,278.93 149,272.83 148.56,266.74 148.12,260.64 141.46,258.83 134.31,258.88 127.68,260.78 127.67,268.13 127.66,275.48 127.65,282.83 136.75,282.73 145.85,282.63 154.96,282.53 Z M 154.96,282.53"></path>    <path id="anteater0-bezier4" stroke="none" fill="rgb(29, 139, 137)" d="M 269.16,153.62 C 264.19,149.46 256.12,147.11 254.27,140.07 253.61,137.6 254.19,134.71 256.1,133.02 259.31,130.17 268.13,134.09 271.42,135.76 273.97,137.06 276.78,138.56 278.91,140.61 281.11,142.73 282.74,145.48 281.99,147.98 281.84,148.47 281.16,148.49 280.95,148.03 280.66,147.34 280.26,146.63 280.12,146.4 279.66,145.66 279.03,144.96 278.36,144.41 276.76,143.08 274.73,142.56 272.98,143.06 272.86,143.1 272.73,143.17 272.76,143.3 272.77,143.36 272.81,143.41 272.86,143.46 275.1,145.99 278.18,148.79 279.45,151.89 280.01,153.27 280.37,155.02 279.73,156.2 279.37,156.86 278.91,157.46 278.35,157.98 278,158.3 277.42,158.03 277.43,157.55 277.49,155.02 276.74,153.01 274.65,150.71 273.73,149.7 272.06,148.52 270.71,148.55 270.19,148.57 269.98,149.2 270.37,149.54 271.59,150.62 272.51,152.07 272.89,153.58 273.15,154.63 273.18,155.88 272.93,156.98 272.8,157.53 272.06,157.57 271.86,157.04 271.35,155.73 270.33,154.6 269.16,153.62 Z M 269.16,153.62"></path>    <path id="anteater0-bezier5" stroke="none" fill="rgb(29, 139, 137)" d="M 31.52,246.03 C 31.38,246.95 33.04,249.36 33.5,250.13 34.38,251.63 35.44,252.71 36.71,253.86 38.68,255.62 43.07,257.82 45.25,255.38 45.42,255.18 45.33,254.86 45.08,254.78 41.89,253.87 39.58,250.99 37.94,248.07 37.11,246.58 36.37,244.93 36.39,243.26 36.4,242.92 36.82,242.76 37.04,243.02 37.73,243.82 38.6,244.53 39.57,244.91 41.07,245.49 42.7,245.91 44.15,245.22 44.45,245.08 44.44,244.65 44.13,244.54 34.75,241.07 36.82,229.73 35.88,221.69 35.85,221.41 26,222.6 25.1,223.06 24.24,223.5 19.75,223.85 20.13,226.03 20.52,228.27 22.18,240.02 28.09,251.84 28.75,253.16 29.57,254.42 30.69,255.37 31.61,256.15 32.79,256.68 33.97,256.68 34.29,256.69 34.48,256.32 34.26,256.08 31.89,253.37 30.83,249.54 31.52,246 31.52,246.01 31.52,246.02 31.52,246.03 Z M 31.52,246.03"></path>    <path id="anteater0-bezier6" stroke="none" fill="rgb(235, 193, 202)" d="M 269.45,136.68 C 268,134.88 265.91,133.74 263.83,132.76 246.28,124.54 225.87,122.05 212.54,106.53 204.99,97.75 199.57,87.38 193.68,77.4 181.46,56.7 168.19,39.62 147.01,30.5 147.47,29.89 148,29.32 148.58,28.82 145.85,27.83 142.98,27.22 140.08,27 140.46,26.42 141.01,25.96 141.65,25.68 138.36,24.51 134.98,23.62 131.54,23.04 132.31,21.51 133.6,20.25 135.14,19.52 128.89,18.76 122.44,19.62 116.6,21.99 118.41,20.4 120.22,18.81 122.02,17.22 112.93,16.75 103.75,19.9 96.7,25.64 94.59,26.14 92.51,26.75 90.47,27.45 90.47,27.45 90.48,27.45 90.48,27.44 90.39,27.48 90.29,27.51 90.2,27.55 89.69,27.72 89.19,27.91 88.69,28.1 88.52,28.16 88.35,28.23 88.18,28.29 87.69,28.48 87.21,28.68 86.73,28.88 86.55,28.96 86.37,29.03 86.19,29.11 85.71,29.32 85.24,29.53 84.76,29.75 84.59,29.83 84.43,29.91 84.26,29.98 83.63,30.28 83,30.59 82.39,30.92 81.49,31.39 80.61,31.87 79.74,32.37 79.46,32.53 79.18,32.69 78.91,32.86 78.32,33.2 77.73,33.55 77.16,33.91 76.84,34.1 76.53,34.3 76.22,34.5 75.68,34.84 75.15,35.18 74.63,35.54 74.32,35.74 74.01,35.96 73.7,36.17 73.18,36.53 72.66,36.89 72.15,37.26 71.86,37.47 71.58,37.68 71.29,37.89 70.75,38.3 70.21,38.71 69.68,39.12 69.44,39.31 69.2,39.49 68.97,39.68 68.31,40.2 67.67,40.73 67.04,41.27 66.93,41.36 66.82,41.44 66.72,41.53 65.2,42.84 63.73,44.19 62.3,45.58 62.18,45.7 62.06,45.82 61.94,45.94 61.36,46.52 60.78,47.1 60.22,47.69 60.07,47.85 59.92,48 59.78,48.16 59.23,48.73 58.7,49.31 58.17,49.9 58.04,50.05 57.9,50.21 57.77,50.36 57.21,50.98 56.67,51.61 56.14,52.25 56.04,52.36 55.95,52.47 55.85,52.58 55.23,53.33 54.62,54.08 54.02,54.85 L 54.01,54.85 C 51.48,58.08 49.14,61.46 46.98,64.97 46.97,64.97 46.97,64.98 46.97,64.98 43.17,68.07 39.38,71.56 36.21,75.22 38.05,74.41 39.86,73.51 41.62,72.53 39.16,74.91 36.84,77.43 34.68,80.09 35.97,79.89 37.25,79.33 38.51,78.99 36.35,81.48 34.19,83.98 32.03,86.47 32.18,86.36 32.34,86.26 32.5,86.16 34.07,85.15 35.74,84.3 37.48,83.63 36.19,86.71 35,89.85 33.91,93.01 L 33.91,93.01 33.91,93.01 C 33.26,94.88 32.64,96.76 32.06,98.65 20.21,136.86 15.09,180.7 19.26,220.35 19.82,225.69 20.53,231.08 22.48,236.08 23.33,238.28 24.6,240.57 26.79,241.46 29.86,242.71 33.46,240.56 34.98,237.62 36.5,234.68 36.49,231.21 36.47,227.9 36.32,207.9 35.59,184.22 43.84,165.56 46.87,158.71 50.03,164.8 50.55,168.79 51.72,177.77 52.22,186.8 53.23,195.72 52.87,202.46 52.8,209.2 52.24,215.88 52.94,214.73 53.64,213.59 54.34,212.44 53.91,216.28 53.48,220.13 53.05,223.97 53.46,223.33 53.88,222.7 54.3,222.06 54.18,225.8 54.06,229.55 53.94,233.29 54.62,231.66 55.42,230 56.15,228.31 56.24,229.53 56.33,230.75 56.42,231.96 56.95,239.38 57.48,246.81 58.01,254.23 61.77,254.36 65.53,254.79 69.29,254.95 73.75,255.14 78.21,255.26 82.68,255.31 91.95,255.41 101.22,255.3 110.49,255.25 119.7,255.19 128.91,255.27 138.12,255.25 142.55,255.24 146.98,255.22 151.41,255.13 151.76,255.13 152.11,255.13 152.46,255.13 153.28,247.87 154.11,240.61 154.94,233.35 155.38,234.73 155.87,236.13 156.36,237.57 156.65,233.83 157.26,229.03 156.66,225.32 156.92,226.92 157.47,228.47 158.27,229.87 158.2,223.77 157.97,217.66 157.57,211.57 158.15,213.28 159.28,214.79 160.75,215.83 159.91,211.13 159.05,206.28 158.56,201.46 159.99,187.34 159.28,171.62 170.18,160.87 181.75,149.46 199.58,147.51 215.81,148.28 231.56,149.03 247.06,150.71 262.72,148.47 266.31,147.96 269.91,145.33 270.77,142.09 271.22,140.39 270.92,138.51 269.45,136.68 Z M 269.45,136.68"></path>    <path id="anteater0-bezier7" stroke="none" fill="rgb(220, 98, 125)" d="M 146.56,55.49 C 148.42,47.65 151.81,40.07 157.11,33.99 161.25,29.24 166.61,25.45 172.57,23.47 175.59,22.46 178.89,23.99 179.99,26.97 182.46,33.69 182.17,41.43 179.57,48.15 176.33,56.53 169.79,63.38 162.13,68.06 161.29,68.57 159.62,68.41 160.01,67.51"></path>    <path id="anteater0-bezier8" stroke="none" fill="rgb(220, 98, 125)" d="M 95.1,68.23 C 88.67,63.36 81.24,59.67 73.28,58.35 67.42,57.37 61.26,57.76 55.67,59.7 52.05,60.96 50.13,64.95 51.54,68.51 54.05,74.83 58.99,80.21 64.97,83.57 72.8,87.96 82.19,89.09 91.08,87.83 92.06,87.69 93.25,86.5 92.37,86.06"></path>    <path id="anteater0-bezier9" stroke="none" fill="rgb(111, 7, 44)" d="M 177.09,35.9 C 177.27,36.73 177.29,37.61 177.26,38.47 176.88,51.47 167.99,62.34 155.03,64.36 154.91,64.38 157.79,51.37 158.29,50.1 160.02,45.76 162.1,40.97 165.14,37.39 166.96,35.23 171.22,31.97 174.27,32.61 175.44,32.85 176.36,33.83 176.8,34.94 176.93,35.25 177.02,35.57 177.09,35.9 Z M 177.09,35.9"></path>    <path id="anteater0-bezier10" stroke="none" fill="rgb(111, 7, 44)" d="M 60.42,68.99 C 59.2,72.34 60.89,76.22 63.3,78.51 67.52,82.51 73.4,83.07 78.89,83.46 82.63,83.72 86.37,83.98 90.11,84.25 91.21,84.33 92.39,84.38 93.32,83.7 94.79,82.63 94.98,80.1 94.18,78.35 93.39,76.59 91.89,75.43 90.44,74.35 87.46,72.12 84.44,69.93 81.21,68.23 78.06,66.58 74.73,65.4 71.31,64.73 69.27,64.33 67.16,64.12 65.15,64.7 63.13,65.28 61.22,66.78 60.42,68.99 Z M 60.42,68.99"></path>    <path id="anteater0-bezier11" stroke="none" fill="rgb(225, 42, 91)" d="M 171.02,160.07 C 171.78,159.37 172.56,158.71 173.37,158.08 165.63,146.48 156.42,135.75 144.22,129.25 135.49,124.59 125.6,122.34 115.71,121.97 104.3,121.55 92.52,123.72 82.98,130 72.41,136.95 65.51,148.25 60.29,159.77 56.96,167.11 54.18,174.7 51.96,182.46 52.02,183.13 52.08,183.79 52.14,184.46 52.24,185.54 52.33,186.62 52.43,187.69 52.47,188.14 52.51,188.59 52.55,189.04 52.6,189.6 52.66,190.17 52.71,190.73 52.73,190.9 52.75,191.08 52.76,191.26 52.8,191.63 52.83,192.01 52.87,192.38 52.98,193.5 53.1,194.61 53.23,195.72 52.87,202.45 52.8,209.2 52.24,215.88 52.94,214.73 53.64,213.58 54.34,212.44 53.91,216.28 53.48,220.13 53.05,223.97 53.46,223.33 53.88,222.69 54.3,222.06 54.18,225.8 54.06,229.55 53.94,233.29 54.62,231.66 55.42,230 56.15,228.31 56.24,229.53 56.33,230.75 56.42,231.96 56.44,232.26 56.46,232.56 56.49,232.87 56.49,232.87 56.48,232.87 56.48,232.88 57,240.15 57.52,247.43 58.04,254.7 58.2,256.92 58.36,259.14 58.52,261.36 58.65,263.18 58.98,265.31 60.61,266.12 61.46,266.54 62.47,266.42 63.42,266.39 76.58,265.93 118.64,266.38 127.55,266.34 131.48,266.32 148.59,266.78 150.67,263.75 151.61,262.39 151.82,260.68 152.01,259.04 152.53,254.49 153.05,249.94 153.56,245.39 153.58,244.8 153.65,244.17 153.78,243.46 153.79,243.4 153.79,243.35 153.8,243.3 154.18,239.98 154.56,236.67 154.94,233.35 155.38,234.73 155.87,236.12 156.36,237.57 156.65,233.83 157.26,229.02 156.66,225.32 156.92,226.92 157.47,228.47 158.27,229.87 158.2,223.76 157.97,217.66 157.57,211.57 158.15,213.28 159.28,214.79 160.75,215.83 159.91,211.13 159.05,206.28 158.56,201.46 159.99,187.34 159.28,171.62 170.18,160.87 170.45,160.59 170.74,160.33 171.02,160.07 Z M 171.02,160.07"></path>    <path id="anteater0-bezier12" stroke="none" fill="rgb(217, 152, 169)" d="M 86.71,80.37 C 85.9,72.06 87.42,63.52 91.31,56.13 98.32,42.83 112.77,33.77 127.8,33.25 142.84,32.74 157.87,40.79 165.78,53.58 176.06,70.24 176.01,93.4 176.78,112.32 177.67,134.16 178.56,155.99 179.45,177.83 179.62,181.86 180.28,186.39 179.62,190.46 179.19,193.09 167.45,195.81 164.93,195.49 163.22,195.28 160.39,190.7 158.78,188.62 152.06,179.97 145.35,171.31 138.64,162.65 135.28,158.32 131.93,153.99 128.57,149.67 125.31,145.46 122.24,140.92 118.7,136.94 105.7,120.17 88.85,102.52 86.71,80.37 Z M 86.71,80.37"></path>    <path id="anteater0-bezier13" stroke="none" fill="rgb(246, 207, 221)" d="M 170,173.68 C 169.67,173.84 169.32,173.97 168.98,174.06 167.77,174.4 166.52,174.61 165.27,174.67 162.92,164.13 159.82,153.8 157.1,143.35 154.16,132.03 140.27,99.61 137.51,88.24 138.96,87.59 144.77,85.96 146.24,85.17 146.8,84.86 169.69,166.87 171.05,170.92 171.19,171.36 171.31,171.83 171.22,172.29 171.1,172.93 170.6,173.37 170,173.68 Z M 170,173.68"></path>    <path id="anteater0-bezier14" stroke="none" fill="rgb(220, 98, 125)" d="M 179.62,190.46 C 180.28,186.39 179.62,181.86 179.45,177.83 178.76,160.93 178.07,144.03 177.38,127.13 174.23,125.91 169.99,125.19 167.36,125.09 151.48,124.48 135.46,131.13 124.68,142.82 124.6,142.9 124.36,143.23 124.06,143.65 125.57,145.67 127.05,147.7 128.57,149.67 131.93,153.99 135.28,158.32 138.64,162.65 145.35,171.31 152.06,179.97 158.78,188.62 160.39,190.7 163.22,195.28 164.93,195.49 167.45,195.81 179.19,193.09 179.62,190.46 Z M 179.62,190.46"></path>    <path id="anteater0-bezier15" stroke="none" fill="rgb(190, 32, 79)" d="M 149.6,172.08 C 149.27,172.44 148.58,173.51 147.91,174.61 151.53,179.28 155.16,183.95 158.78,188.62 160.39,190.7 163.22,195.28 164.93,195.49 167.45,195.81 179.19,193.09 179.62,190.46 180.28,186.39 179.62,181.86 179.45,177.83 179.3,173.99 179.14,170.15 178.98,166.31 176.02,165.17 172.14,164.15 169.49,164.15 163.15,164.14 153.97,167.35 149.6,172.08 Z M 149.6,172.08"></path>    <path id="anteater0-bezier16" stroke="rgb(68, 18, 16)" stroke-width="1.54" stroke-linecap="round" stroke-linejoin="round" stroke-miterlimit="10" fill="none" d="M 124.78,120.47 C 124.46,119.74 123.18,115.38 120.6,116.62 118.21,117.77 119.04,122.18 119.77,123.35"></path>    <path id="anteater0-bezier17" stroke="rgb(68, 18, 16)" stroke-width="1.54" stroke-linecap="round" stroke-linejoin="round" stroke-miterlimit="10" fill="none" d="M 168.97,110.47 C 169,109.74 168.64,105.67 171.21,105.86 173.59,106.04 174.35,110.01 174.12,111.24"></path>    <path id="anteater0-bezier18" stroke="none" fill="rgb(226, 79, 122)" d="M 145.02,219.78 C 144.94,214.31 144.42,208.62 141.63,203.91 130.78,185.58 106.83,197.04 96.44,209.06 82.43,225.27 80.36,245.77 78.58,266.19 96.32,266.13 120.97,266.37 127.55,266.34 129.51,266.33 134.73,266.44 139.73,266.18 142.56,250.91 145.27,235.29 145.02,219.78 Z M 145.02,219.78"></path>    <path id="anteater0-bezier19" stroke="rgb(160, 0, 42)" stroke-width="1.31" stroke-linecap="round" stroke-linejoin="round" stroke-miterlimit="10" fill="none" d="M 61.89,243.54 C 62.16,244.94 62.42,246.34 62.69,247.74"></path>    <path id="anteater0-bezier20" stroke="rgb(160, 0, 42)" stroke-width="1.31" stroke-linecap="round" stroke-linejoin="round" stroke-miterlimit="10" fill="none" d="M 61.43,251.42 C 61.59,252.94 61.89,254.45 62.33,255.92"></path>    <path id="anteater0-bezier21" stroke="rgb(160, 0, 42)" stroke-width="1.31" stroke-linecap="round" stroke-linejoin="round" stroke-miterlimit="10" fill="none" d="M 66.17,245.26 C 66.18,247.48 66.51,249.69 67.14,251.81"></path>    <path id="anteater0-bezier22" stroke="rgb(160, 0, 42)" stroke-width="1.31" stroke-linecap="round" stroke-linejoin="round" stroke-miterlimit="10" fill="none" d="M 65.66,254.46 C 65.81,255.34 65.95,256.22 66.1,257.1"></path>    <path id="anteater0-bezier23" stroke="rgb(160, 0, 42)" stroke-width="1.31" stroke-linecap="round" stroke-linejoin="round" stroke-miterlimit="10" fill="none" d="M 147.01,246.04 C 146.78,247.01 146.56,247.98 146.33,248.94"></path>    <path id="anteater0-bezier24" stroke="rgb(160, 0, 42)" stroke-width="1.31" stroke-linecap="round" stroke-linejoin="round" stroke-miterlimit="10" fill="none" d="M 149.49,249.21 C 149.49,251.06 149.29,252.9 148.88,254.7"></path>    <path id="anteater0-bezier25" stroke="rgb(160, 0, 42)" stroke-width="1.31" stroke-linecap="round" stroke-linejoin="round" stroke-miterlimit="10" fill="none" d="M 146.82,254.19 C 146.63,255.24 146.44,256.29 146.25,257.34"></path>    <path id="anteater0-bezier26" stroke="rgb(195, 126, 142)" stroke-width="1.31" stroke-linecap="round" stroke-linejoin="round" stroke-miterlimit="10" fill="none" d="M 28.75,134.65 C 28.28,136.36 27.81,138.06 27.33,139.77"></path>    <path id="anteater0-bezier27" stroke="rgb(195, 126, 142)" stroke-width="1.31" stroke-linecap="round" stroke-linejoin="round" stroke-miterlimit="10" fill="none" d="M 26.66,145.88 C 26.44,146.85 26.22,147.82 26,148.79"></path>    <path id="anteater0-bezier28" stroke="rgb(195, 126, 142)" stroke-width="1.31" stroke-linecap="round" stroke-linejoin="round" stroke-miterlimit="10" fill="none" d="M 30.38,141.91 C 29.94,143.44 29.6,144.99 29.35,146.56"></path>    <path id="anteater0-bezier29" stroke="rgb(195, 126, 142)" stroke-width="1.31" stroke-linecap="round" stroke-linejoin="round" stroke-miterlimit="10" fill="none" d="M 32.92,136.23 C 32.65,137.37 32.37,138.52 32.1,139.66"></path>    <path id="anteater0-bezier30" stroke="rgb(195, 126, 142)" stroke-width="1.31" stroke-linecap="round" stroke-linejoin="round" stroke-miterlimit="10" fill="none" d="M 197.27,93.01 C 197.91,94.53 198.8,95.95 199.88,97.19"></path>    <path id="anteater0-bezier31" stroke="rgb(195, 126, 142)" stroke-width="1.31" stroke-linecap="round" stroke-linejoin="round" stroke-miterlimit="10" fill="none" d="M 197,100.61 C 197.63,101.83 198.39,102.98 199.28,104.04"></path>    <path id="anteater0-bezier32" stroke="rgb(195, 126, 142)" stroke-width="1.31" stroke-linecap="round" stroke-linejoin="round" stroke-miterlimit="10" fill="none" d="M 202.75,101.9 L 204.15,103.9"></path>    <path id="anteater0-bezier33" stroke="rgb(195, 126, 142)" stroke-width="1.31" stroke-linecap="round" stroke-linejoin="round" stroke-miterlimit="10" fill="none" d="M 193.77,92.47 C 194.22,93.23 194.68,94 195.13,94.76"></path>    <path id="anteater0-bezier34" stroke="rgb(250, 207, 219)" stroke-width="1.05" stroke-linecap="round" stroke-linejoin="round" stroke-miterlimit="10" fill="none" d="M 120.67,60.89 C 122.75,65.05 125.04,69.44 129.08,71.72 129.59,72 130.19,72.25 130.73,72.06 131.5,71.78 131.71,70.81 131.75,70 131.82,68.12 131.52,66.23 130.88,64.46 131.85,66.45 132.93,68.56 134.86,69.63 135.28,69.87 135.79,70.05 136.25,69.89 137,69.62 137.17,68.64 137.16,67.84 137.14,65.71 136.75,63.58 136.02,61.57 137.32,63.9 138.99,66.29 141.53,67.12 142.4,67.41 143.49,67.44 144.12,66.78 144.82,66.05 144.66,64.88 144.4,63.91 143.73,61.3 142.78,58.77 141.57,56.37"></path>    <path id="anteater0-bezier35" stroke="none" fill="rgb(225, 42, 91)" d="M 129.43,33.23 C 129.97,32.21 130.65,31.27 131.45,30.43 130.87,31.04 127.81,31.35 126.91,31.5 127.03,30.34 127.38,29.2 127.95,28.17 125.35,29.65 122.75,31.12 120.14,32.6 120.67,30.81 121.19,29.02 121.72,27.23 117.53,29.47 113.8,32.84 111.72,37.11 103.68,40.79 96.71,46.88 92.23,54.5 95.36,49.18 102.88,48.21 108.45,48.24 111.54,48.25 114.8,48.53 117.78,49.37 121.43,50.39 124.99,52.69 128.93,51.99 129.28,51.93 129.62,51.84 129.95,51.74 131.68,51.19 133.23,50.07 134.49,48.75 138.7,44.34 142.61,34.54 150.36,38.92 143.99,35.33 136.74,33.28 129.43,33.23 Z M 129.43,33.23"></path>    <path id="anteater0-bezier36" stroke="none" fill="rgb(91, 4, 40)" d="M 179.62,190.46 C 180.18,187.01 179.79,183.24 179.56,179.71 175.68,178.07 171.08,178.35 167.98,179.33 164.35,180.49 159.92,182.57 157.01,186.35 157.6,187.11 158.19,187.86 158.78,188.62 160.39,190.7 163.22,195.28 164.93,195.49 167.45,195.81 179.19,193.09 179.62,190.46 Z M 179.62,190.46"></path>    <path id="anteater0-bezier37" stroke="none" fill="rgb(217, 152, 169)" d="M 18.76,168.56 C 18.33,174.08 18.05,179.61 17.92,185.11 24.59,187.13 31.09,189.75 37.3,192.93 37.8,187.81 38.58,182.76 39.75,177.89 33.35,173.62 26.22,170.45 18.76,168.56 Z M 18.76,168.56"></path>    <path id="anteater0-bezier38" stroke="none" fill="rgb(217, 152, 169)" d="M 210.3,125.87 C 207.59,133.13 205.82,140.68 204.28,148.27 208.14,148.07 212.02,148.1 215.81,148.28 216.71,148.33 217.62,148.37 218.52,148.42 220.43,138.14 224.02,128.17 229.09,119.03 224.97,116.96 221.05,114.52 217.47,111.45 214.54,115.94 212.18,120.85 210.3,125.87 Z M 210.3,125.87"></path></svg>