<svg id="Banyan0.svg" width="600" height="600" version="1.1" viewBox="0 0 300 300" xmlns="http://www.w3.org/2000/svg"><path fill="rgb(12, 97, 41)" d=" M 26.220000 85.210000 C 26.220000 85.210000 22.690000 77.580000 15.640000 79.040000 C 15.640000 79.040000 17.210000 88.120000 26.220000 85.210000 Z"></path><path fill="rgb(12, 97, 41)" d=" M 247.180000 36.910000 C 238.950000 47.080000 243.260000 52.530000 243.260000 52.530000 C 255.410000 46.720000 247.180000 36.910000 247.180000 36.910000 Z"></path><path fill="rgb(12, 97, 41)" d=" M 33.270000 88.120000 C 38.360000 78.310000 26.220000 73.950000 26.220000 73.950000 C 25.820000 85.940000 33.270000 88.120000 33.270000 88.120000 Z"></path><path fill="rgb(12, 97, 41)" d=" M 276.820000 101.640000 C 276.820000 101.640000 281.160000 63.480000 259.490000 55.640000 C 247.530000 51.310000 242.700000 56.960000 242.700000 56.960000 C 242.700000 56.960000 233.500000 38.220000 216.160000 38.380000 C 205.390000 38.490000 197.210000 52.440000 197.210000 52.440000 C 197.210000 52.440000 164.170000 21.270000 140.880000 20.270000 C 117.600000 19.270000 80.770000 55.140000 80.770000 55.140000 C 61.270000 18.990000 35.270000 93.290000 35.270000 93.290000 C 35.270000 93.290000 28.710000 87.850000 26.610000 88.080000 C 1.700000 90.910000 1.200000 184.750000 1.200000 184.750000 L 23.660000 184.750000 C 24.890000 159.990000 29.270000 113.320000 44.830000 111.430000 C 46.610000 111.210000 52.210000 116.190000 52.210000 116.190000 C 52.210000 116.190000 74.350000 48.220000 90.950000 81.290000 C 90.950000 81.290000 122.320000 48.470000 142.150000 49.390000 C 161.990000 50.310000 190.130000 78.820000 190.130000 78.820000 C 190.130000 78.820000 197.090000 66.050000 206.270000 65.960000 C 221.040000 65.810000 228.870000 82.950000 228.870000 82.950000 C 228.870000 82.950000 232.990000 77.790000 243.170000 81.750000 C 261.620000 88.920000 257.930000 123.830000 257.930000 123.830000 C 257.930000 123.830000 279.920000 98.460000 275.110000 184.750000 L 295.780000 184.750000 C 305.530000 70.800000 276.820000 101.640000 276.820000 101.640000 Z"></path><path fill="rgb(14, 108, 45)" d=" M 257.930000 123.830000 C 257.930000 123.830000 261.620000 88.920000 243.170000 81.750000 C 232.980000 77.790000 228.870000 82.950000 228.870000 82.950000 C 228.870000 82.950000 221.040000 65.810000 206.270000 65.960000 C 197.090000 66.050000 190.120000 78.820000 190.120000 78.820000 C 190.120000 78.820000 161.990000 50.310000 142.150000 49.390000 C 122.320000 48.470000 90.950000 81.290000 90.950000 81.290000 C 74.350000 48.220000 52.210000 116.190000 52.210000 116.190000 C 52.210000 116.190000 46.610000 111.210000 44.830000 111.430000 C 29.270000 113.320000 24.890000 159.990000 23.660000 184.750000 L 27.900000 184.750000 L 270.890000 184.750000 L 275.110000 184.750000 C 279.920000 98.460000 257.930000 123.830000 257.930000 123.830000 Z"></path><path fill="rgb(79, 21, 3)" d=" M 201.400000 260.020000 C 197.660000 250.210000 187.280000 246.650000 183.010000 245.570000 C 177.010000 235.040000 171.980000 222.200000 173.180000 209.930000 L 172.930000 209.870000 L 172.710000 197.290000 C 174.840000 197.020000 176.950000 196.570000 179.040000 195.890000 C 181.150000 195.190000 183.230000 194.250000 185.160000 193.000000 C 187.090000 191.760000 188.840000 190.200000 190.260000 188.440000 C 191.680000 186.670000 192.760000 184.710000 193.500000 182.730000 C 194.250000 180.740000 194.670000 178.740000 194.880000 176.780000 C 195.290000 172.860000 194.910000 169.130000 194.210000 165.570000 L 190.280000 165.840000 C 190.070000 169.200000 189.510000 172.490000 188.400000 175.370000 C 187.850000 176.800000 187.160000 178.120000 186.340000 179.250000 C 185.530000 180.380000 184.580000 181.320000 183.550000 182.050000 C 181.490000 183.520000 179.050000 184.200000 176.390000 184.340000 C 175.120000 184.410000 173.800000 184.340000 172.490000 184.170000 L 171.670000 136.470000 C 171.860000 136.490000 172.060000 136.520000 172.250000 136.530000 C 174.790000 136.780000 177.450000 136.770000 180.170000 136.210000 C 181.530000 135.930000 182.890000 135.520000 184.200000 134.930000 C 185.520000 134.350000 186.770000 133.600000 187.890000 132.710000 C 189.000000 131.820000 189.990000 130.810000 190.820000 129.730000 C 191.640000 128.650000 192.310000 127.520000 192.860000 126.390000 C 193.940000 124.100000 194.550000 121.810000 194.930000 119.580000 C 195.290000 117.350000 195.440000 115.170000 195.450000 113.030000 C 195.460000 110.890000 195.340000 108.790000 195.140000 106.720000 C 195.050000 105.680000 194.930000 104.650000 194.800000 103.630000 L 194.580000 102.100000 C 194.630000 101.570000 193.880000 101.140000 195.650000 100.440000 L 187.740000 101.240000 C 189.610000 101.540000 188.960000 102.100000 189.100000 102.570000 L 189.120000 104.020000 C 189.130000 104.990000 189.120000 105.950000 189.090000 106.910000 C 189.020000 108.820000 188.860000 110.720000 188.590000 112.560000 C 188.310000 114.390000 187.930000 116.180000 187.370000 117.840000 C 186.820000 119.490000 186.110000 121.010000 185.230000 122.220000 C 184.350000 123.440000 183.330000 124.320000 182.260000 124.830000 C 181.190000 125.340000 180.030000 125.560000 178.720000 125.540000 C 177.420000 125.500000 175.980000 125.230000 174.540000 124.730000 C 173.830000 124.470000 173.100000 124.180000 172.410000 123.840000 C 172.080000 123.670000 171.760000 123.500000 171.450000 123.320000 L 171.170000 107.290000 L 163.210000 107.260000 L 160.570000 205.760000 C 158.940000 197.360000 157.360000 188.910000 155.810000 180.470000 C 154.070000 170.970000 152.390000 161.450000 150.770000 151.930000 C 149.150000 142.400000 147.600000 132.870000 146.170000 123.330000 C 144.750000 113.790000 143.420000 104.240000 142.420000 94.710000 L 134.480000 95.220000 C 134.790000 105.000000 135.410000 114.720000 136.140000 124.420000 C 136.630000 130.920000 137.180000 137.400000 137.760000 143.880000 C 136.690000 143.800000 135.640000 143.630000 134.620000 143.350000 C 131.790000 142.590000 129.250000 141.030000 127.180000 138.630000 C 125.100000 136.240000 123.550000 133.080000 122.500000 129.620000 C 121.450000 126.150000 120.880000 122.390000 120.610000 118.570000 L 114.680000 118.490000 C 114.300000 122.610000 114.220000 126.840000 114.780000 131.170000 C 115.060000 133.330000 115.500000 135.520000 116.190000 137.700000 C 116.880000 139.880000 117.810000 142.050000 119.070000 144.130000 C 120.330000 146.210000 121.920000 148.190000 123.820000 149.900000 C 125.710000 151.610000 127.900000 153.050000 130.230000 154.140000 C 132.570000 155.240000 135.030000 155.990000 137.530000 156.450000 C 138.000000 156.530000 138.470000 156.600000 138.950000 156.670000 C 139.780000 165.280000 140.660000 173.880000 141.590000 182.470000 C 141.940000 185.720000 142.300000 188.960000 142.660000 192.210000 C 140.450000 187.600000 138.070000 183.080000 135.480000 178.660000 C 132.120000 172.920000 128.420000 167.360000 124.310000 162.090000 C 120.190000 156.820000 115.650000 151.820000 110.590000 147.330000 L 105.090000 152.980000 C 109.440000 157.380000 113.330000 162.250000 116.830000 167.390000 C 118.300000 169.560000 119.710000 171.780000 121.050000 174.040000 C 120.490000 174.390000 119.920000 174.730000 119.350000 175.060000 C 117.320000 176.240000 115.230000 177.300000 113.100000 178.200000 C 110.960000 179.100000 108.790000 179.830000 106.620000 180.310000 C 104.450000 180.780000 102.280000 180.990000 100.220000 180.820000 C 98.150000 180.640000 96.180000 180.080000 94.410000 179.030000 C 92.640000 178.000000 91.060000 176.470000 89.760000 174.620000 C 88.460000 172.780000 87.430000 170.630000 86.610000 168.370000 C 85.790000 166.100000 85.190000 163.710000 84.730000 161.270000 L 81.950000 161.560000 C 82.010000 164.140000 82.240000 166.760000 82.730000 169.380000 C 83.220000 171.990000 83.980000 174.630000 85.210000 177.180000 C 86.440000 179.720000 88.210000 182.180000 90.570000 184.140000 C 92.930000 186.120000 95.840000 187.510000 98.810000 188.250000 C 101.800000 188.990000 104.830000 189.150000 107.740000 188.990000 C 110.670000 188.830000 113.500000 188.340000 116.240000 187.670000 C 118.990000 186.990000 121.650000 186.130000 124.250000 185.120000 C 125.030000 184.820000 125.790000 184.510000 126.560000 184.180000 C 129.230000 189.560000 131.600000 195.080000 133.710000 200.700000 C 134.810000 203.620000 135.830000 206.570000 136.770000 209.530000 C 137.240000 211.010000 137.690000 212.500000 138.120000 213.980000 C 138.330000 214.720000 138.540000 215.460000 138.730000 216.200000 L 139.020000 217.300000 C 139.060000 217.460000 139.110000 217.630000 139.150000 217.800000 C 137.430000 230.360000 131.460000 242.070000 126.260000 250.260000 C 121.880000 251.210000 111.840000 254.050000 103.870000 261.340000 C 96.900000 263.370000 85.680000 268.240000 83.000000 278.980000 L 87.190000 279.990000 C 88.610000 274.290000 93.310000 270.550000 98.100000 268.150000 C 96.040000 271.340000 94.430000 275.080000 93.510000 279.440000 L 97.850000 279.440000 C 97.850000 279.440000 103.110000 268.960000 114.760000 265.180000 C 110.340000 270.350000 106.790000 276.150000 108.070000 279.440000 L 205.080000 279.440000 C 205.960000 277.480000 204.240000 274.210000 199.860000 268.620000 C 199.860000 268.620000 199.830000 268.590000 199.780000 268.530000 C 206.180000 269.570000 216.230000 272.360000 218.780000 279.730000 L 223.880000 279.730000 C 223.880000 279.730000 220.770000 266.840000 201.400000 260.020000 Z M 187.140000 252.270000 C 189.740000 253.510000 192.580000 255.360000 194.670000 258.070000 C 193.370000 257.770000 192.010000 257.500000 190.600000 257.250000 C 189.470000 255.710000 188.310000 254.040000 187.140000 252.270000 Z"></path><path fill="rgb(137, 38, 8)" d=" M 184.870000 134.610000 C 185.060000 134.520000 185.250000 134.420000 185.440000 134.310000 C 182.400000 132.240000 180.500000 128.990000 179.010000 125.540000 C 178.910000 125.540000 178.820000 125.540000 178.720000 125.540000 C 178.580000 125.540000 178.440000 125.530000 178.300000 125.520000 C 179.830000 129.090000 181.770000 132.440000 184.870000 134.610000 Z M 171.260000 146.830000 C 171.460000 146.790000 171.660000 146.740000 171.850000 146.670000 L 171.840000 146.160000 C 171.430000 146.310000 171.000000 146.400000 170.530000 146.390000 C 168.490000 146.390000 166.730000 144.540000 165.570000 143.110000 C 164.330000 141.590000 163.220000 139.750000 162.400000 137.800000 L 162.360000 139.300000 C 163.350000 141.300000 164.640000 143.140000 166.080000 144.620000 C 167.370000 145.940000 169.300000 147.210000 171.260000 146.830000 Z M 179.840000 260.720000 C 171.990000 255.790000 174.650000 245.890000 179.740000 239.350000 C 179.650000 239.160000 179.560000 238.960000 179.470000 238.770000 C 173.780000 245.810000 171.230000 256.730000 180.410000 261.720000 C 184.670000 264.020000 190.270000 263.790000 194.290000 261.140000 C 196.570000 259.640000 197.890000 257.460000 198.590000 255.030000 C 198.430000 254.820000 198.260000 254.600000 198.090000 254.400000 C 197.460000 256.900000 196.170000 259.170000 193.870000 260.810000 C 189.820000 263.700000 183.920000 263.280000 179.840000 260.720000 Z M 182.840000 182.520000 C 182.650000 182.630000 182.460000 182.730000 182.270000 182.830000 C 183.170000 184.640000 184.230000 186.390000 185.420000 188.020000 C 186.130000 189.000000 186.960000 190.020000 187.920000 190.900000 C 188.070000 190.770000 188.210000 190.630000 188.350000 190.500000 C 187.240000 189.430000 186.300000 188.170000 185.510000 187.050000 C 184.510000 185.630000 183.610000 184.100000 182.840000 182.520000 Z M 147.460000 131.690000 C 147.430000 131.530000 147.400000 131.370000 147.380000 131.200000 C 143.550000 131.350000 139.590000 129.780000 136.390000 127.680000 C 136.410000 127.920000 136.430000 128.160000 136.450000 128.400000 C 139.710000 130.430000 143.640000 131.860000 147.460000 131.690000 Z M 181.470000 242.750000 C 179.040000 246.530000 177.850000 252.100000 182.160000 254.520000 C 184.500000 255.840000 186.680000 255.530000 188.550000 254.360000 C 188.450000 254.210000 188.350000 254.060000 188.250000 253.920000 C 186.430000 255.030000 184.290000 255.250000 182.010000 253.760000 C 178.610000 251.550000 179.780000 246.760000 181.790000 243.370000 C 181.680000 243.160000 181.570000 242.960000 181.470000 242.750000 Z M 101.600000 180.870000 C 101.590000 182.750000 101.980000 184.710000 102.050000 186.400000 C 102.090000 187.210000 102.050000 188.040000 101.860000 188.810000 C 102.090000 188.840000 102.310000 188.860000 102.540000 188.890000 C 103.280000 186.410000 102.290000 183.520000 102.220000 180.870000 C 102.010000 180.870000 101.800000 180.880000 101.600000 180.870000 Z M 154.060000 245.040000 C 155.730000 241.490000 156.810000 237.890000 157.720000 234.090000 C 158.840000 229.370000 159.720000 224.510000 159.740000 219.650000 C 159.740000 216.700000 159.490000 212.210000 156.250000 210.860000 C 152.230000 209.190000 148.150000 213.150000 146.210000 216.090000 C 142.670000 221.450000 141.160000 228.000000 139.310000 234.050000 C 137.010000 241.570000 133.270000 248.780000 129.490000 255.660000 C 124.800000 264.190000 119.230000 272.330000 112.520000 279.440000 L 113.260000 279.440000 C 123.030000 269.020000 130.330000 256.460000 136.210000 243.560000 C 137.620000 240.470000 138.930000 237.390000 139.930000 234.160000 C 140.870000 231.100000 141.740000 228.030000 142.790000 225.010000 C 144.580000 219.840000 147.220000 212.430000 153.390000 211.160000 C 162.740000 209.240000 158.160000 229.280000 157.250000 233.310000 C 156.370000 237.190000 155.290000 240.910000 153.630000 244.540000 C 150.330000 251.720000 146.200000 258.500000 143.380000 265.900000 C 141.720000 270.260000 140.620000 274.900000 140.820000 279.440000 L 141.470000 279.440000 C 141.280000 275.110000 142.300000 270.670000 143.830000 266.460000 C 146.530000 259.010000 150.690000 252.200000 154.060000 245.040000 Z M 98.050000 181.480000 C 98.050000 181.150000 98.060000 180.810000 98.060000 180.480000 C 97.830000 180.420000 97.610000 180.370000 97.390000 180.300000 C 97.390000 181.110000 97.400000 181.920000 97.410000 182.710000 C 97.430000 184.310000 97.390000 186.180000 97.670000 187.930000 C 97.930000 188.010000 98.180000 188.070000 98.440000 188.140000 C 98.020000 185.970000 98.050000 183.640000 98.050000 181.480000 Z M 147.860000 245.810000 C 149.170000 243.110000 150.520000 239.880000 150.280000 236.820000 C 150.140000 235.120000 149.210000 232.240000 147.030000 232.170000 C 145.040000 232.110000 143.600000 234.090000 142.610000 235.530000 C 141.170000 237.620000 140.080000 239.960000 139.070000 242.280000 C 136.070000 249.090000 134.370000 256.450000 130.880000 263.050000 C 127.770000 268.950000 123.770000 274.410000 119.320000 279.440000 L 120.060000 279.440000 C 124.970000 273.870000 129.360000 267.760000 132.520000 261.120000 C 135.850000 254.110000 137.580000 246.480000 141.020000 239.490000 C 142.140000 237.220000 143.560000 234.140000 145.940000 232.880000 C 147.300000 232.160000 148.360000 233.390000 148.980000 234.450000 C 149.850000 235.950000 149.720000 237.850000 149.440000 239.480000 C 148.850000 242.960000 147.070000 246.260000 145.350000 249.300000 C 143.500000 252.570000 141.580000 255.790000 139.790000 259.090000 C 136.230000 265.630000 133.120000 272.390000 130.970000 279.440000 L 131.610000 279.440000 C 132.930000 275.080000 134.630000 270.820000 136.590000 266.650000 C 138.590000 262.420000 140.850000 258.310000 143.160000 254.230000 C 144.740000 251.430000 146.460000 248.710000 147.860000 245.810000 Z M 114.780000 131.170000 C 114.790000 131.260000 114.800000 131.360000 114.820000 131.460000 C 117.410000 130.910000 119.950000 130.180000 122.390000 129.200000 C 122.340000 129.050000 122.300000 128.890000 122.260000 128.740000 C 119.840000 129.710000 117.320000 130.430000 114.760000 130.980000 C 114.760000 131.040000 114.770000 131.110000 114.780000 131.170000 Z M 189.100000 253.310000 C 189.260000 253.400000 189.430000 253.500000 189.590000 253.600000 C 190.820000 252.570000 191.870000 251.190000 192.690000 249.710000 C 192.530000 249.600000 192.370000 249.500000 192.210000 249.400000 C 191.390000 250.900000 190.340000 252.310000 189.100000 253.310000 Z M 121.270000 124.270000 C 121.240000 124.110000 121.220000 123.950000 121.200000 123.790000 C 118.960000 124.370000 116.690000 124.750000 114.380000 124.960000 C 114.380000 125.120000 114.380000 125.280000 114.390000 125.440000 C 116.720000 125.240000 119.020000 124.850000 121.270000 124.270000 Z M 183.090000 245.590000 C 182.700000 247.040000 182.900000 248.530000 184.330000 249.540000 C 185.200000 250.150000 186.330000 250.130000 187.240000 249.630000 C 188.030000 249.190000 188.590000 248.480000 188.990000 247.680000 C 188.810000 247.600000 188.630000 247.520000 188.450000 247.440000 C 188.110000 248.130000 187.650000 248.760000 186.990000 249.190000 C 186.180000 249.730000 185.200000 249.540000 184.510000 248.920000 C 183.530000 248.040000 183.380000 246.880000 183.670000 245.740000 C 183.470000 245.690000 183.270000 245.640000 183.090000 245.590000 Z M 165.170000 218.890000 C 166.050000 215.360000 167.750000 212.110000 170.260000 209.440000 C 171.040000 208.610000 171.910000 207.850000 172.880000 207.280000 L 172.870000 206.650000 C 170.470000 207.870000 168.550000 210.340000 167.210000 212.450000 C 163.220000 218.690000 163.250000 226.610000 163.170000 233.720000 C 163.120000 237.440000 163.090000 241.170000 162.600000 244.870000 C 162.040000 249.080000 160.600000 253.210000 159.260000 257.230000 C 156.680000 264.920000 153.450000 272.510000 149.140000 279.440000 L 149.820000 279.440000 C 153.400000 273.640000 156.210000 267.400000 158.570000 261.030000 C 161.150000 254.070000 163.360000 247.050000 163.690000 239.610000 C 164.000000 232.700000 163.460000 225.670000 165.170000 218.890000 Z M 127.260000 184.860000 C 128.830000 184.420000 130.610000 185.350000 131.860000 186.170000 C 135.160000 188.340000 136.970000 192.300000 138.300000 195.830000 C 139.750000 199.690000 140.750000 204.000000 140.370000 208.140000 C 140.160000 210.450000 139.390000 212.640000 138.320000 214.710000 C 138.390000 214.960000 138.460000 215.210000 138.530000 215.460000 C 139.950000 212.850000 140.940000 210.050000 141.110000 207.010000 C 141.370000 202.250000 139.760000 197.220000 137.800000 192.920000 C 136.230000 189.480000 133.750000 185.690000 129.840000 184.560000 C 128.620000 184.210000 127.600000 184.250000 126.770000 184.600000 C 126.830000 184.720000 126.890000 184.850000 126.950000 184.970000 C 127.050000 184.930000 127.150000 184.890000 127.260000 184.860000 Z M 143.550000 169.930000 C 141.070000 167.050000 139.810000 163.350000 139.240000 159.640000 C 139.390000 161.170000 139.540000 162.700000 139.690000 164.230000 C 140.620000 166.880000 142.030000 169.340000 144.080000 171.420000 C 145.910000 173.280000 148.510000 174.760000 151.080000 173.400000 C 152.360000 172.720000 153.280000 171.540000 153.960000 170.220000 C 153.910000 169.930000 153.860000 169.650000 153.810000 169.370000 C 153.180000 170.640000 152.370000 171.760000 151.350000 172.610000 C 148.540000 174.920000 145.350000 172.030000 143.550000 169.930000 Z M 136.930000 134.370000 C 136.950000 134.580000 136.970000 134.800000 136.990000 135.010000 C 140.530000 136.770000 144.530000 138.010000 148.260000 136.780000 C 148.240000 136.620000 148.210000 136.460000 148.190000 136.300000 C 144.490000 137.580000 140.430000 136.180000 136.930000 134.370000 Z M 190.260000 270.660000 C 185.130000 270.080000 178.430000 272.740000 174.560000 268.210000 C 172.300000 265.550000 171.600000 261.640000 171.140000 258.300000 C 170.630000 254.540000 170.760000 250.710000 171.380000 246.970000 C 172.190000 242.020000 174.070000 237.170000 177.030000 233.100000 C 176.950000 232.890000 176.870000 232.680000 176.790000 232.480000 C 174.080000 236.080000 172.250000 240.300000 171.180000 244.720000 C 169.540000 251.530000 169.620000 259.570000 172.500000 266.060000 C 173.510000 268.330000 175.280000 270.330000 177.780000 270.980000 C 180.360000 271.660000 183.070000 271.280000 185.700000 271.120000 C 189.200000 270.900000 192.570000 271.200000 195.710000 272.870000 C 198.430000 274.330000 200.600000 276.720000 202.070000 279.440000 L 202.800000 279.440000 C 200.290000 274.740000 195.820000 271.280000 190.260000 270.660000 Z M 170.350000 232.930000 C 170.270000 228.890000 169.790000 225.290000 172.220000 221.770000 C 172.560000 221.270000 172.990000 220.670000 173.490000 220.030000 C 173.450000 219.800000 173.420000 219.560000 173.390000 219.330000 C 171.850000 221.060000 170.530000 223.040000 169.910000 225.200000 C 169.460000 226.770000 169.500000 228.460000 169.560000 230.080000 C 169.650000 232.420000 169.750000 234.720000 169.590000 237.070000 C 169.250000 242.060000 168.100000 246.980000 167.110000 251.880000 C 166.300000 255.940000 165.330000 259.960000 164.400000 264.000000 C 163.510000 267.900000 162.830000 271.920000 163.250000 275.930000 C 163.380000 277.190000 163.680000 278.360000 164.110000 279.440000 L 164.830000 279.440000 C 164.040000 277.430000 163.750000 275.200000 163.770000 272.980000 C 163.800000 268.780000 164.870000 264.610000 165.880000 260.560000 C 166.920000 256.320000 167.730000 252.040000 168.600000 247.760000 C 169.580000 242.870000 170.460000 237.930000 170.350000 232.930000 Z M 181.230000 135.960000 C 181.450000 135.900000 181.670000 135.840000 181.890000 135.770000 C 178.900000 133.200000 177.140000 129.140000 176.000000 125.150000 C 175.750000 125.090000 175.510000 125.030000 175.260000 124.950000 C 176.410000 129.050000 178.190000 133.240000 181.230000 135.960000 Z M 115.420000 177.150000 C 117.130000 180.160000 118.590000 183.430000 119.380000 186.800000 C 119.590000 186.730000 119.800000 186.670000 120.010000 186.610000 C 119.210000 183.210000 117.730000 179.910000 116.000000 176.860000 C 115.810000 176.960000 115.610000 177.050000 115.420000 177.150000 Z M 166.390000 153.050000 C 168.300000 154.200000 170.210000 154.280000 171.970000 153.660000 L 171.960000 153.160000 C 171.370000 153.400000 170.760000 153.560000 170.120000 153.600000 C 168.210000 153.740000 166.360000 152.510000 165.050000 151.280000 C 163.830000 150.130000 162.890000 148.730000 162.140000 147.210000 L 162.110000 148.460000 C 163.170000 150.300000 164.550000 151.940000 166.390000 153.050000 Z M 184.970000 180.860000 C 186.630000 183.390000 188.620000 185.690000 191.050000 187.390000 C 191.160000 187.230000 191.270000 187.070000 191.370000 186.910000 C 188.990000 185.210000 187.040000 182.900000 185.420000 180.390000 C 185.270000 180.550000 185.120000 180.710000 184.970000 180.860000 Z M 150.860000 195.990000 C 148.970000 191.560000 148.400000 186.680000 146.460000 182.290000 C 145.900000 181.020000 144.980000 179.870000 144.190000 178.740000 C 143.000000 177.010000 141.780000 175.310000 140.650000 173.550000 C 140.690000 173.990000 140.740000 174.430000 140.780000 174.870000 C 142.050000 176.810000 143.420000 178.710000 144.700000 180.630000 C 147.410000 184.680000 147.950000 189.880000 149.550000 194.410000 C 150.430000 196.930000 152.490000 202.570000 156.200000 200.500000 C 157.530000 199.750000 158.390000 198.570000 158.930000 197.170000 C 158.830000 196.610000 158.720000 196.050000 158.610000 195.490000 C 158.160000 197.660000 157.090000 200.250000 154.820000 200.460000 C 152.760000 200.650000 151.470000 197.440000 150.860000 195.990000 Z M 122.490000 185.770000 C 122.700000 185.700000 122.900000 185.620000 123.110000 185.550000 C 122.880000 184.620000 122.620000 183.710000 122.340000 182.830000 C 121.510000 180.310000 120.280000 177.640000 118.450000 175.570000 C 118.260000 175.680000 118.070000 175.790000 117.880000 175.890000 C 119.760000 178.010000 120.970000 180.780000 121.830000 183.390000 C 122.080000 184.160000 122.300000 184.960000 122.490000 185.770000 Z M 136.770000 209.530000 C 136.860000 209.820000 136.950000 210.120000 137.040000 210.410000 C 137.900000 207.090000 138.190000 203.690000 137.310000 200.160000 C 136.140000 195.450000 133.300000 191.150000 128.920000 189.150000 C 129.040000 189.410000 129.160000 189.680000 129.280000 189.950000 C 133.460000 192.210000 135.910000 196.750000 136.920000 201.430000 C 137.500000 204.120000 137.320000 206.780000 136.730000 209.400000 C 136.740000 209.440000 136.760000 209.490000 136.770000 209.530000 Z"></path><path fill="rgb(28, 10, 1)" d=" M 156.200000 249.000000 C 153.300000 254.030000 145.310000 259.550000 141.350000 252.580000 C 137.810000 246.360000 142.680000 239.580000 143.740000 233.480000 C 144.750000 227.590000 146.920000 220.680000 154.020000 222.320000 C 163.460000 224.510000 159.620000 243.050000 156.200000 249.000000 Z"></path><path fill="rgb(132, 35, 8)" d=" M 144.930000 254.180000 C 141.390000 247.960000 146.260000 241.180000 147.320000 235.080000 C 148.300000 229.390000 150.350000 222.760000 156.890000 223.790000 C 156.110000 223.090000 155.170000 222.590000 154.020000 222.320000 C 146.920000 220.680000 144.750000 227.590000 143.740000 233.480000 C 142.680000 239.580000 137.810000 246.360000 141.340000 252.580000 C 142.640000 254.850000 144.350000 255.790000 146.180000 255.860000 C 145.730000 255.410000 145.310000 254.850000 144.930000 254.180000 Z"></path><path fill="rgb(72, 42, 28)" d=" M 176.060000 99.010000 C 176.020000 99.280000 176.030000 99.750000 176.040000 100.190000 C 176.070000 99.850000 176.080000 99.490000 176.060000 99.010000 Z"></path><path fill="rgb(72, 42, 28)" d=" M 176.040000 100.200000 L 176.040000 100.210000 L 176.040000 100.190000 L 176.040000 100.200000 Z"></path><path fill="rgb(72, 42, 28)" d=" M 215.830000 98.950000 L 215.810000 99.300000 C 215.820000 99.180000 215.830000 99.060000 215.830000 98.950000 Z"></path><path fill="rgb(102, 42, 13)" d=" M 180.000000 121.230000 L 180.090000 121.260000 C 180.500000 122.250000 180.120000 121.580000 180.530000 122.480000 C 180.780000 122.800000 181.210000 123.980000 181.430000 124.260000 C 181.420000 124.260000 181.640000 124.690000 181.600000 124.680000 C 181.720000 124.790000 181.850000 125.120000 182.020000 125.380000 C 182.090000 125.470000 181.990000 125.300000 181.970000 125.220000 C 182.090000 125.420000 182.210000 125.620000 182.340000 125.820000 C 182.470000 126.060000 182.470000 126.140000 182.310000 125.890000 C 182.540000 126.290000 183.010000 127.060000 183.700000 127.980000 C 184.380000 128.890000 185.300000 129.940000 186.390000 130.840000 C 187.460000 131.760000 188.710000 132.500000 189.850000 132.960000 C 190.980000 133.430000 191.960000 133.630000 192.480000 133.720000 C 192.220000 133.630000 191.570000 133.520000 191.350000 133.380000 C 191.910000 133.480000 192.150000 133.580000 192.400000 133.590000 C 192.600000 133.740000 193.610000 133.800000 194.030000 133.910000 L 194.190000 133.860000 L 194.470000 133.910000 C 195.690000 133.890000 195.830000 133.830000 195.930000 133.830000 C 196.030000 133.820000 196.110000 133.850000 197.170000 133.710000 C 198.380000 133.510000 198.920000 133.270000 199.590000 133.120000 C 199.490000 133.150000 199.220000 133.190000 199.520000 133.090000 C 199.590000 133.130000 200.320000 132.810000 200.480000 132.800000 C 200.770000 132.710000 201.710000 132.340000 201.360000 132.400000 C 201.540000 132.370000 202.360000 132.020000 201.890000 132.270000 C 202.160000 132.150000 202.430000 132.030000 202.620000 131.920000 C 202.500000 131.970000 202.380000 132.020000 202.260000 132.070000 C 203.180000 131.630000 203.690000 131.390000 204.220000 130.990000 L 203.880000 131.160000 C 204.400000 130.840000 204.810000 130.550000 205.050000 130.480000 C 204.890000 130.600000 204.720000 130.730000 204.550000 130.840000 C 205.390000 130.290000 205.870000 129.910000 206.480000 129.350000 L 206.250000 129.540000 C 206.650000 129.180000 207.870000 128.060000 208.890000 126.800000 C 209.920000 125.550000 210.760000 124.190000 210.970000 123.770000 L 210.690000 124.100000 C 210.830000 123.870000 210.960000 123.630000 211.090000 123.390000 C 211.040000 123.470000 211.030000 123.820000 210.970000 123.880000 C 211.210000 123.510000 211.680000 122.740000 212.210000 121.750000 C 212.740000 120.760000 213.310000 119.540000 213.810000 118.300000 C 214.830000 115.830000 215.530000 113.270000 215.750000 112.510000 C 215.940000 111.900000 215.870000 112.420000 215.870000 112.430000 C 216.050000 111.670000 215.900000 112.090000 216.070000 111.450000 C 216.120000 111.270000 216.100000 111.490000 216.080000 111.590000 C 216.150000 111.310000 216.230000 111.050000 216.210000 111.020000 C 216.100000 111.370000 216.070000 111.210000 215.990000 111.350000 L 216.190000 110.520000 L 216.230000 110.560000 C 216.270000 110.380000 216.220000 110.070000 216.420000 109.250000 C 216.720000 107.870000 216.970000 106.360000 217.170000 104.960000 C 217.190000 104.980000 217.170000 105.280000 217.140000 105.580000 C 217.170000 105.390000 217.200000 105.100000 217.250000 104.930000 C 217.150000 105.260000 217.300000 104.330000 217.240000 104.600000 C 217.270000 103.560000 217.510000 102.230000 217.510000 101.310000 C 217.470000 101.270000 217.090000 100.740000 216.710000 100.240000 C 216.320000 99.740000 215.920000 99.270000 215.860000 99.270000 C 215.880000 99.000000 215.890000 98.720000 215.900000 98.650000 C 215.870000 98.710000 215.840000 99.250000 215.840000 99.530000 L 215.900000 99.590000 C 215.880000 100.250000 215.850000 99.740000 215.820000 100.390000 C 215.760000 100.420000 215.800000 99.820000 215.810000 99.300000 C 215.790000 99.770000 215.720000 100.240000 215.760000 100.430000 C 215.710000 100.870000 215.700000 100.380000 215.640000 100.910000 C 215.630000 101.290000 215.630000 101.790000 215.560000 102.230000 L 215.550000 102.220000 C 215.390000 103.270000 215.450000 103.850000 215.260000 104.810000 L 215.260000 104.710000 C 215.180000 105.040000 215.120000 105.720000 214.990000 106.330000 C 215.030000 106.160000 215.090000 106.010000 215.040000 106.380000 C 214.890000 107.080000 214.830000 107.560000 214.690000 108.070000 L 214.650000 108.570000 C 214.400000 109.790000 213.750000 112.810000 212.730000 115.700000 C 212.230000 117.150000 211.650000 118.570000 211.090000 119.740000 C 210.520000 120.910000 209.990000 121.840000 209.670000 122.360000 L 209.720000 122.280000 C 209.240000 123.080000 208.580000 124.070000 207.770000 125.090000 C 206.950000 126.100000 205.970000 127.140000 204.870000 128.030000 C 203.770000 128.940000 202.560000 129.700000 201.380000 130.250000 C 200.200000 130.810000 199.060000 131.170000 198.130000 131.400000 C 197.540000 131.490000 196.730000 131.640000 196.120000 131.690000 C 196.460000 131.670000 196.350000 131.720000 196.090000 131.740000 C 195.160000 131.820000 195.130000 131.800000 195.090000 131.820000 C 195.060000 131.830000 195.020000 131.870000 194.080000 131.840000 C 193.550000 131.820000 192.620000 131.730000 191.570000 131.410000 C 190.520000 131.090000 189.350000 130.520000 188.320000 129.750000 C 187.290000 128.990000 186.390000 128.050000 185.710000 127.190000 C 185.020000 126.340000 184.550000 125.580000 184.300000 125.150000 C 183.670000 124.300000 183.100000 123.100000 182.630000 122.170000 L 182.690000 122.250000 C 182.430000 121.760000 181.690000 120.030000 181.110000 118.220000 C 180.520000 116.410000 180.060000 114.530000 179.900000 113.890000 L 179.930000 114.060000 C 179.630000 112.950000 179.740000 113.090000 179.570000 112.200000 C 179.520000 112.330000 179.280000 111.370000 179.200000 111.000000 L 179.220000 111.010000 C 179.100000 110.460000 178.810000 109.200000 178.660000 108.270000 L 178.710000 108.300000 C 178.540000 107.530000 178.360000 106.070000 178.300000 105.510000 C 178.160000 104.230000 178.050000 102.240000 177.900000 100.530000 L 177.970000 99.420000 L 177.950000 99.250000 C 177.950000 99.250000 177.560000 98.820000 177.140000 98.670000 C 176.720000 98.500000 176.250000 98.640000 176.130000 99.810000 L 176.090000 99.780000 L 176.110000 100.240000 C 176.120000 100.790000 176.190000 101.040000 176.140000 101.010000 L 176.110000 100.250000 C 176.120000 100.810000 176.080000 100.420000 176.040000 100.210000 C 176.050000 100.440000 176.060000 100.670000 176.060000 100.850000 C 176.080000 100.960000 176.070000 100.770000 176.070000 100.680000 C 176.110000 100.980000 176.170000 101.390000 176.180000 101.760000 C 176.220000 102.320000 176.110000 101.800000 176.160000 102.460000 C 176.400000 105.940000 176.810000 109.310000 177.540000 112.780000 C 177.540000 112.860000 177.520000 112.760000 177.500000 112.670000 C 177.730000 113.710000 177.950000 114.630000 178.210000 115.570000 C 178.260000 115.840000 178.250000 115.920000 178.250000 116.000000 C 178.250000 115.920000 178.600000 117.220000 179.030000 118.540000 C 179.460000 119.860000 179.980000 121.180000 180.000000 121.230000 Z"></path><path fill="rgb(10, 77, 34)" d=" M 113.650000 110.340000 L 232.800000 110.340000 C 232.800000 110.340000 233.390000 67.210000 212.260000 81.230000 C 212.260000 81.230000 189.640000 51.110000 180.260000 52.270000 C 168.180000 53.750000 159.430000 74.760000 159.430000 74.760000 C 159.430000 74.760000 141.250000 58.510000 130.670000 69.910000 C 114.700000 87.120000 115.520000 101.980000 113.650000 110.340000 Z"></path><path fill="rgb(72, 42, 28)" d=" M 70.160000 160.840000 C 70.100000 161.080000 70.070000 161.500000 70.040000 161.900000 C 70.100000 161.590000 70.140000 161.270000 70.160000 160.840000 Z"></path><path fill="rgb(72, 42, 28)" d=" M 70.040000 161.910000 L 70.040000 161.910000 L 70.040000 161.900000 L 70.040000 161.910000 Z"></path><path fill="rgb(72, 42, 28)" d=" M 95.990000 157.500000 L 96.000000 157.810000 C 96.000000 157.710000 96.000000 157.600000 95.990000 157.500000 Z"></path><path fill="rgb(102, 42, 13)" d=" M 71.480000 181.140000 L 71.570000 181.180000 C 71.820000 182.110000 71.550000 181.470000 71.810000 182.320000 C 72.010000 182.630000 72.250000 183.740000 72.420000 184.020000 C 72.410000 184.010000 72.560000 184.430000 72.520000 184.410000 C 72.620000 184.520000 72.690000 184.830000 72.810000 185.090000 C 72.870000 185.170000 72.800000 185.010000 72.790000 184.930000 L 73.060000 185.510000 C 73.140000 185.750000 73.140000 185.820000 73.020000 185.580000 C 73.180000 185.960000 73.510000 186.710000 74.030000 187.620000 C 74.550000 188.510000 75.280000 189.570000 76.210000 190.480000 C 77.130000 191.410000 78.290000 192.160000 79.350000 192.590000 C 80.420000 193.020000 81.360000 193.150000 81.850000 193.200000 C 81.600000 193.130000 80.990000 193.060000 80.780000 192.930000 C 81.300000 193.010000 81.530000 193.080000 81.760000 193.070000 C 81.950000 193.210000 82.890000 193.190000 83.280000 193.270000 L 83.430000 193.210000 L 83.690000 193.230000 C 84.250000 193.180000 84.560000 193.110000 84.750000 193.080000 L 85.030000 193.020000 C 85.080000 193.010000 85.120000 193.010000 85.280000 192.980000 C 85.430000 192.950000 85.690000 192.900000 86.180000 192.750000 C 86.740000 192.570000 87.120000 192.370000 87.450000 192.200000 L 88.310000 191.720000 C 88.230000 191.770000 87.980000 191.860000 88.240000 191.700000 C 88.310000 191.720000 88.890000 191.250000 89.030000 191.200000 C 89.270000 191.040000 89.990000 190.450000 89.690000 190.590000 C 89.840000 190.520000 90.460000 189.970000 90.120000 190.330000 C 90.330000 190.140000 90.530000 189.960000 90.650000 189.800000 C 90.570000 189.890000 90.480000 189.970000 90.390000 190.040000 C 91.040000 189.380000 91.410000 189.020000 91.720000 188.510000 L 91.490000 188.760000 C 91.830000 188.320000 92.090000 187.950000 92.270000 187.810000 C 92.170000 187.970000 92.060000 188.130000 91.960000 188.280000 C 92.490000 187.550000 92.780000 187.080000 93.120000 186.410000 L 92.980000 186.640000 C 93.200000 186.220000 93.870000 184.910000 94.380000 183.560000 C 94.900000 182.210000 95.290000 180.850000 95.370000 180.430000 L 95.200000 180.790000 L 95.360000 180.080000 C 95.340000 180.160000 95.440000 180.460000 95.400000 180.530000 C 95.640000 179.780000 96.270000 177.440000 96.690000 175.090000 C 97.120000 172.740000 97.390000 170.390000 97.480000 169.680000 C 97.570000 169.110000 97.580000 169.590000 97.590000 169.590000 C 97.640000 168.900000 97.560000 169.290000 97.620000 168.700000 C 97.650000 168.530000 97.660000 168.730000 97.660000 168.830000 C 97.680000 168.560000 97.720000 168.330000 97.700000 168.300000 C 97.650000 168.630000 97.590000 168.480000 97.530000 168.620000 L 97.610000 167.850000 L 97.650000 167.890000 C 97.660000 167.720000 97.570000 167.450000 97.640000 166.700000 C 97.760000 165.440000 97.810000 164.070000 97.860000 162.790000 C 97.890000 162.810000 97.900000 163.080000 97.900000 163.350000 C 97.910000 163.180000 97.910000 162.920000 97.930000 162.760000 C 97.880000 163.070000 97.920000 162.230000 97.890000 162.470000 C 97.810000 161.530000 97.930000 160.330000 97.850000 159.510000 C 97.760000 159.420000 96.170000 157.770000 96.050000 157.780000 C 96.040000 157.540000 96.040000 157.290000 96.040000 157.220000 C 96.020000 157.270000 96.020000 157.770000 96.040000 158.030000 L 96.100000 158.070000 C 96.140000 158.670000 96.070000 158.210000 96.080000 158.800000 C 96.030000 158.830000 96.020000 158.290000 96.000000 157.810000 C 96.000000 158.240000 95.970000 158.670000 96.030000 158.840000 C 96.010000 159.250000 95.970000 158.800000 95.950000 159.280000 C 95.970000 159.630000 96.020000 160.080000 95.980000 160.480000 L 95.970000 160.470000 C 95.910000 161.440000 96.030000 161.950000 95.950000 162.840000 L 95.940000 162.740000 C 95.900000 163.050000 95.910000 163.670000 95.850000 164.230000 C 95.870000 164.070000 95.910000 163.930000 95.910000 164.270000 C 95.840000 164.910000 95.850000 165.360000 95.780000 165.830000 L 95.800000 166.280000 C 95.720000 167.410000 95.510000 170.190000 95.090000 172.940000 C 94.890000 174.320000 94.630000 175.680000 94.380000 176.830000 C 94.130000 177.990000 93.880000 178.920000 93.720000 179.460000 L 93.740000 179.370000 C 93.280000 181.010000 92.450000 183.490000 91.160000 185.700000 C 90.520000 186.800000 89.750000 187.810000 88.940000 188.610000 C 88.140000 189.420000 87.280000 189.990000 86.550000 190.360000 C 86.080000 190.530000 85.430000 190.780000 84.910000 190.880000 C 85.200000 190.830000 85.120000 190.880000 84.890000 190.930000 C 84.100000 191.100000 84.070000 191.080000 84.040000 191.100000 C 84.020000 191.110000 83.990000 191.160000 83.160000 191.200000 C 82.690000 191.220000 81.870000 191.210000 80.950000 190.960000 C 80.030000 190.720000 79.020000 190.210000 78.160000 189.480000 C 77.300000 188.760000 76.600000 187.840000 76.090000 187.020000 C 75.580000 186.190000 75.240000 185.460000 75.070000 185.060000 C 74.600000 184.230000 74.240000 183.100000 73.920000 182.210000 L 73.960000 182.300000 C 73.790000 181.830000 73.330000 180.210000 73.010000 178.520000 C 72.690000 176.840000 72.480000 175.110000 72.400000 174.520000 L 72.400000 174.680000 C 72.240000 173.660000 72.340000 173.790000 72.280000 172.980000 C 72.210000 173.090000 72.080000 172.210000 72.050000 171.870000 L 72.070000 171.880000 C 72.020000 171.370000 71.870000 170.220000 71.830000 169.370000 L 71.870000 169.400000 C 71.790000 168.700000 71.780000 167.370000 71.770000 166.860000 C 71.770000 165.700000 71.850000 163.910000 71.860000 162.360000 L 72.030000 161.370000 L 72.030000 161.220000 C 72.030000 161.220000 71.670000 160.800000 71.260000 160.620000 C 70.860000 160.440000 70.380000 160.520000 70.160000 161.560000 L 70.120000 161.530000 L 70.110000 161.940000 C 70.070000 162.440000 70.110000 162.670000 70.070000 162.640000 L 70.100000 161.960000 C 70.070000 162.450000 70.060000 162.100000 70.040000 161.910000 C 70.030000 162.120000 70.010000 162.320000 69.990000 162.490000 C 70.010000 162.590000 70.010000 162.420000 70.030000 162.340000 C 70.030000 162.610000 70.060000 162.980000 70.030000 163.310000 C 70.010000 163.820000 69.960000 163.340000 69.940000 163.940000 C 69.850000 167.080000 69.890000 170.130000 70.200000 173.310000 C 70.190000 173.390000 70.180000 173.300000 70.160000 173.210000 C 70.270000 174.170000 70.360000 175.020000 70.500000 175.890000 C 70.520000 176.130000 70.500000 176.200000 70.490000 176.270000 C 70.500000 176.200000 70.680000 177.400000 70.920000 178.630000 C 71.150000 179.850000 71.470000 181.100000 71.480000 181.140000 Z"></path><path fill="rgb(72, 42, 28)" d=" M 177.580000 172.830000 C 177.560000 173.120000 177.600000 173.600000 177.650000 174.060000 C 177.650000 173.700000 177.630000 173.330000 177.580000 172.830000 Z"></path><path fill="rgb(72, 42, 28)" d=" M 177.640000 174.070000 L 177.650000 174.080000 L 177.650000 174.060000 L 177.640000 174.070000 Z"></path><path fill="rgb(72, 42, 28)" d=" M 207.830000 172.220000 L 207.820000 172.590000 C 207.830000 172.470000 207.830000 172.340000 207.830000 172.220000 Z"></path><path fill="rgb(102, 42, 13)" d=" M 181.560000 196.020000 L 181.660000 196.070000 C 181.970000 197.130000 181.660000 196.400000 181.970000 197.370000 C 182.190000 197.720000 182.460000 198.990000 182.640000 199.310000 C 182.630000 199.300000 182.780000 199.780000 182.740000 199.760000 C 182.850000 199.880000 182.920000 200.240000 183.040000 200.530000 C 183.100000 200.630000 183.030000 200.450000 183.020000 200.360000 L 183.290000 201.030000 C 183.370000 201.310000 183.360000 201.380000 183.250000 201.100000 C 183.570000 201.990000 184.510000 204.580000 185.940000 207.040000 C 186.650000 208.270000 187.490000 209.460000 188.350000 210.380000 C 189.200000 211.310000 190.080000 211.940000 190.580000 212.240000 C 190.340000 212.050000 189.750000 211.660000 189.600000 211.430000 C 190.090000 211.770000 190.300000 211.970000 190.540000 212.080000 C 190.610000 212.190000 190.890000 212.370000 191.220000 212.550000 C 191.550000 212.720000 191.920000 212.880000 192.130000 213.010000 L 192.320000 213.010000 C 192.420000 213.060000 192.510000 213.100000 192.610000 213.140000 C 193.300000 213.310000 193.700000 213.330000 193.930000 213.350000 L 194.290000 213.370000 C 194.350000 213.370000 194.400000 213.370000 194.590000 213.380000 C 194.780000 213.380000 195.110000 213.380000 195.720000 213.290000 C 196.430000 213.170000 196.930000 212.980000 197.330000 212.800000 C 197.730000 212.610000 198.040000 212.440000 198.380000 212.260000 C 198.280000 212.320000 198.000000 212.430000 198.300000 212.240000 C 198.340000 212.250000 198.540000 212.120000 198.750000 211.980000 C 198.950000 211.840000 199.150000 211.670000 199.240000 211.640000 C 199.520000 211.450000 200.330000 210.710000 200.000000 210.910000 C 200.170000 210.820000 200.850000 210.130000 200.470000 210.570000 C 200.700000 210.340000 200.920000 210.110000 201.060000 209.920000 L 200.770000 210.220000 C 201.480000 209.410000 201.860000 208.960000 202.190000 208.350000 L 201.950000 208.660000 C 202.310000 208.140000 202.570000 207.690000 202.760000 207.510000 C 202.660000 207.700000 202.550000 207.890000 202.440000 208.070000 C 203.000000 207.190000 203.280000 206.630000 203.630000 205.850000 L 203.500000 206.120000 C 203.720000 205.620000 204.410000 204.080000 204.950000 202.510000 C 205.490000 200.940000 205.920000 199.360000 206.010000 198.870000 L 205.830000 199.290000 L 206.010000 198.470000 C 205.990000 198.560000 206.080000 198.910000 206.040000 198.980000 C 206.290000 198.120000 207.000000 195.410000 207.520000 192.690000 C 208.050000 189.980000 208.440000 187.260000 208.570000 186.450000 C 208.690000 185.790000 208.670000 186.340000 208.680000 186.350000 C 208.770000 185.540000 208.670000 185.990000 208.760000 185.310000 C 208.800000 185.120000 208.800000 185.350000 208.790000 185.460000 C 208.830000 185.160000 208.880000 184.880000 208.860000 184.860000 C 208.790000 185.230000 208.740000 185.060000 208.680000 185.210000 L 208.790000 184.330000 L 208.830000 184.380000 C 208.860000 184.180000 208.770000 183.870000 208.900000 183.000000 C 209.080000 181.550000 209.220000 179.960000 209.350000 178.480000 C 209.370000 178.510000 209.360000 178.820000 209.350000 179.130000 C 209.370000 178.930000 209.390000 178.630000 209.420000 178.450000 C 209.350000 178.800000 209.440000 177.830000 209.400000 178.110000 C 209.380000 177.020000 209.570000 175.630000 209.550000 174.670000 C 209.470000 174.580000 207.990000 172.560000 207.870000 172.560000 C 207.890000 172.270000 207.900000 171.980000 207.910000 171.900000 C 207.880000 171.960000 207.850000 172.540000 207.850000 172.840000 L 207.910000 172.900000 C 207.900000 173.600000 207.870000 173.060000 207.840000 173.750000 C 207.780000 173.780000 207.810000 173.150000 207.820000 172.590000 C 207.800000 173.090000 207.740000 173.590000 207.780000 173.800000 C 207.730000 174.270000 207.720000 173.740000 207.670000 174.310000 C 207.660000 174.710000 207.680000 175.240000 207.620000 175.700000 L 207.610000 175.700000 C 207.490000 176.820000 207.570000 177.420000 207.430000 178.450000 L 207.430000 178.340000 C 207.370000 178.700000 207.350000 179.420000 207.250000 180.070000 C 207.280000 179.880000 207.330000 179.720000 207.300000 180.120000 C 207.200000 180.870000 207.180000 181.390000 207.080000 181.930000 L 207.070000 182.460000 C 206.930000 183.770000 206.560000 187.010000 206.010000 190.220000 C 205.480000 193.430000 204.730000 196.590000 204.370000 197.850000 L 204.390000 197.750000 C 203.870000 199.680000 202.980000 202.610000 201.610000 205.290000 C 200.930000 206.630000 200.130000 207.900000 199.240000 208.880000 C 198.360000 209.870000 197.390000 210.550000 196.550000 210.900000 C 196.020000 211.080000 195.270000 211.250000 194.690000 211.250000 C 195.010000 211.250000 194.910000 211.290000 194.660000 211.300000 C 194.220000 211.310000 193.990000 211.270000 193.870000 211.260000 C 193.750000 211.250000 193.740000 211.250000 193.720000 211.250000 C 193.700000 211.260000 193.690000 211.260000 193.560000 211.240000 C 193.440000 211.220000 193.210000 211.190000 192.780000 211.040000 C 192.290000 210.880000 191.470000 210.470000 190.620000 209.710000 C 189.760000 208.970000 188.900000 207.890000 188.160000 206.720000 C 186.690000 204.370000 185.700000 201.740000 185.340000 200.760000 C 184.870000 199.730000 184.470000 198.380000 184.100000 197.330000 L 184.150000 197.430000 C 183.950000 196.870000 183.390000 194.970000 182.900000 193.010000 C 182.420000 191.050000 182.000000 189.050000 181.850000 188.370000 L 181.880000 188.560000 C 181.590000 187.380000 181.700000 187.530000 181.540000 186.580000 C 181.480000 186.720000 181.240000 185.710000 181.160000 185.320000 L 181.180000 185.330000 C 181.060000 184.740000 180.760000 183.420000 180.590000 182.440000 L 180.640000 182.470000 C 180.450000 181.670000 180.240000 180.130000 180.150000 179.540000 C 179.970000 178.200000 179.770000 176.110000 179.520000 174.320000 L 179.520000 173.140000 L 179.490000 172.970000 C 179.490000 172.970000 179.070000 172.540000 178.640000 172.400000 C 178.200000 172.260000 177.750000 172.430000 177.710000 173.660000 L 177.660000 173.630000 L 177.720000 174.100000 C 177.760000 174.680000 177.840000 174.930000 177.790000 174.900000 L 177.710000 174.120000 C 177.760000 174.690000 177.690000 174.290000 177.650000 174.080000 C 177.670000 174.320000 177.690000 174.550000 177.700000 174.740000 C 177.730000 174.860000 177.710000 174.660000 177.700000 174.570000 C 177.750000 174.880000 177.840000 175.300000 177.870000 175.680000 C 177.940000 176.270000 177.800000 175.720000 177.880000 176.410000 C 178.300000 180.030000 178.790000 183.520000 179.500000 187.140000 C 179.500000 187.220000 179.480000 187.130000 179.450000 187.020000 C 179.680000 188.110000 179.870000 189.080000 180.110000 190.060000 C 180.150000 190.340000 180.140000 190.420000 180.140000 190.510000 C 180.140000 190.420000 180.450000 191.790000 180.810000 193.170000 C 181.150000 194.560000 181.550000 195.980000 181.560000 196.020000 Z"></path><path fill="rgb(102, 42, 13)" d=" M 60.590000 128.910000 C 60.520000 129.360000 60.510000 130.130000 60.500000 130.860000 C 60.570000 130.300000 60.600000 129.700000 60.590000 128.910000 Z"></path><path fill="rgb(102, 42, 13)" d=" M 60.500000 130.880000 L 60.500000 130.890000 L 60.500000 130.860000 L 60.500000 130.880000 Z"></path><path fill="rgb(102, 42, 13)" d=" M 63.770000 273.150000 L 63.760000 272.550000 C 63.760000 272.750000 63.760000 272.950000 63.770000 273.150000 Z"></path><path fill="rgb(102, 42, 13)" d=" M 60.290000 166.400000 L 60.410000 166.510000 C 60.410000 168.250000 60.270000 167.010000 60.300000 168.620000 C 60.470000 169.250000 60.290000 171.290000 60.380000 171.850000 C 60.360000 171.840000 60.360000 172.630000 60.300000 172.580000 C 60.400000 172.820000 60.330000 173.390000 60.350000 173.880000 C 60.370000 174.060000 60.380000 173.750000 60.400000 173.620000 L 60.440000 174.750000 C 60.410000 175.200000 60.350000 175.310000 60.340000 174.820000 C 60.310000 177.800000 60.220000 192.070000 60.270000 195.280000 C 60.340000 194.870000 60.290000 193.880000 60.400000 193.500000 C 60.460000 194.350000 60.380000 194.750000 60.440000 195.120000 C 60.280000 195.450000 60.400000 196.980000 60.240000 197.620000 L 60.330000 197.870000 L 60.270000 198.290000 C 60.370000 202.010000 60.320000 199.140000 60.300000 202.440000 C 60.310000 204.350000 60.440000 205.260000 60.390000 206.320000 C 60.400000 206.160000 60.450000 205.740000 60.480000 206.240000 C 60.390000 206.320000 60.530000 207.560000 60.450000 207.800000 C 60.460000 208.280000 60.450000 209.850000 60.560000 209.320000 C 60.510000 209.590000 60.490000 210.990000 60.440000 210.150000 C 60.430000 210.630000 60.420000 211.090000 60.440000 211.430000 L 60.470000 210.820000 C 60.490000 212.420000 60.400000 213.290000 60.500000 214.330000 L 60.550000 213.740000 C 60.550000 214.690000 60.560000 215.490000 60.450000 215.860000 L 60.420000 214.880000 C 60.420000 216.470000 60.430000 217.420000 60.490000 218.740000 L 60.490000 218.270000 C 60.600000 219.950000 60.690000 228.740000 60.830000 230.290000 L 60.920000 229.580000 L 60.990000 230.910000 C 60.990000 230.760000 60.710000 230.270000 60.740000 230.140000 C 60.750000 232.990000 60.810000 247.840000 60.750000 250.480000 C 60.710000 251.540000 60.620000 250.670000 60.610000 250.660000 C 60.640000 251.950000 60.700000 251.210000 60.690000 252.310000 C 60.670000 252.610000 60.620000 252.250000 60.610000 252.080000 C 60.620000 252.570000 60.590000 253.010000 60.630000 253.050000 C 60.660000 252.450000 60.770000 252.700000 60.840000 252.450000 L 60.830000 253.860000 L 60.760000 253.800000 C 60.760000 254.120000 60.940000 254.600000 60.910000 255.990000 C 60.880000 258.340000 60.900000 260.880000 60.890000 263.240000 C 60.850000 263.210000 60.820000 262.710000 60.800000 262.220000 C 60.800000 262.530000 60.810000 263.010000 60.780000 263.300000 C 60.850000 262.740000 60.830000 264.300000 60.860000 263.850000 C 61.020000 265.580000 60.870000 267.810000 60.980000 269.340000 C 61.130000 269.470000 63.510000 272.600000 63.690000 272.600000 C 63.680000 273.080000 63.680000 273.550000 63.670000 273.690000 C 63.710000 273.570000 63.730000 272.640000 63.700000 272.150000 L 63.610000 272.060000 C 63.580000 270.920000 63.670000 271.790000 63.660000 270.680000 C 63.740000 270.620000 63.750000 271.650000 63.760000 272.550000 C 63.770000 271.740000 63.830000 270.930000 63.740000 270.600000 C 63.770000 269.840000 63.840000 270.680000 63.870000 269.770000 C 63.850000 269.110000 63.770000 268.250000 63.820000 267.500000 L 63.830000 267.520000 C 63.910000 265.690000 63.710000 264.720000 63.790000 263.050000 L 63.820000 263.230000 C 63.860000 262.640000 63.800000 261.480000 63.850000 260.420000 C 63.830000 260.720000 63.780000 260.990000 63.770000 260.350000 C 63.820000 259.120000 63.770000 258.290000 63.830000 257.400000 L 63.750000 256.540000 C 63.770000 252.280000 63.660000 235.460000 63.650000 231.180000 L 63.660000 231.350000 C 63.620000 224.830000 63.630000 211.460000 63.530000 204.720000 C 63.600000 203.680000 63.580000 202.240000 63.600000 201.150000 C 63.570000 201.760000 63.520000 201.550000 63.520000 201.080000 C 63.530000 197.770000 63.470000 200.860000 63.440000 197.510000 C 63.370000 193.650000 63.450000 178.890000 63.510000 175.470000 C 63.400000 173.630000 63.490000 171.340000 63.420000 169.530000 L 63.440000 169.720000 C 63.400000 167.780000 63.500000 156.830000 63.460000 154.580000 L 63.450000 154.880000 C 63.380000 152.920000 63.500000 153.190000 63.540000 151.640000 C 63.410000 151.850000 63.350000 150.170000 63.340000 149.530000 L 63.360000 149.550000 C 63.340000 148.580000 63.240000 146.390000 63.220000 144.800000 L 63.290000 144.860000 C 63.210000 143.530000 63.240000 141.030000 63.240000 140.070000 C 63.270000 137.880000 63.380000 134.510000 63.290000 131.590000 L 63.480000 129.700000 L 63.470000 129.420000 C 63.470000 129.420000 61.160000 126.380000 60.670000 130.240000 L 60.600000 130.180000 L 60.610000 130.940000 C 60.580000 131.860000 60.650000 132.280000 60.590000 132.220000 L 60.590000 130.960000 C 60.580000 131.880000 60.540000 131.240000 60.500000 130.890000 C 60.500000 131.270000 60.490000 131.650000 60.470000 131.950000 C 60.490000 132.140000 60.490000 131.820000 60.510000 131.680000 C 60.530000 132.170000 60.600000 132.860000 60.560000 133.470000 C 60.560000 134.410000 60.460000 133.530000 60.450000 134.630000 C 60.400000 140.430000 60.320000 146.050000 60.330000 151.910000 C 60.310000 152.050000 60.310000 151.890000 60.300000 151.720000 L 60.340000 156.670000 C 60.310000 157.110000 60.270000 157.230000 60.240000 157.370000 C 60.300000 157.100000 60.300000 166.250000 60.290000 166.400000 Z"></path><path fill="rgb(102, 42, 13)" d=" M 38.420000 159.480000 C 38.350000 159.700000 38.340000 160.080000 38.330000 160.430000 C 38.400000 160.160000 38.430000 159.870000 38.420000 159.480000 Z"></path><path fill="rgb(102, 42, 13)" d=" M 38.320000 160.440000 L 38.320000 160.440000 L 38.330000 160.430000 L 38.320000 160.440000 Z"></path><path fill="rgb(102, 42, 13)" d=" M 41.840000 229.620000 L 41.840000 229.330000 C 41.830000 229.430000 41.830000 229.530000 41.840000 229.620000 Z"></path><path fill="rgb(102, 42, 13)" d=" M 38.100000 177.710000 L 38.230000 177.760000 C 38.230000 178.610000 38.080000 178.010000 38.110000 178.790000 C 38.300000 179.100000 38.090000 180.090000 38.190000 180.360000 C 38.180000 180.360000 38.170000 180.740000 38.110000 180.720000 C 38.210000 180.830000 38.140000 181.110000 38.160000 181.350000 C 38.190000 181.440000 38.190000 181.290000 38.220000 181.220000 L 38.260000 181.770000 C 38.220000 181.990000 38.170000 182.040000 38.150000 181.810000 C 38.120000 183.250000 38.020000 190.200000 38.070000 191.750000 C 38.150000 191.550000 38.100000 191.070000 38.220000 190.890000 C 38.280000 191.300000 38.190000 191.500000 38.260000 191.680000 C 38.090000 191.840000 38.220000 192.580000 38.040000 192.900000 L 38.140000 193.010000 L 38.080000 193.220000 C 38.180000 195.030000 38.130000 193.630000 38.110000 195.240000 C 38.120000 196.170000 38.260000 196.610000 38.210000 197.130000 C 38.210000 197.050000 38.270000 196.840000 38.300000 197.080000 C 38.210000 197.130000 38.360000 197.720000 38.270000 197.840000 C 38.280000 198.080000 38.270000 198.840000 38.390000 198.580000 C 38.330000 198.710000 38.310000 199.390000 38.260000 198.990000 C 38.250000 199.220000 38.230000 199.440000 38.260000 199.610000 L 38.290000 199.310000 C 38.310000 200.090000 38.220000 200.510000 38.330000 201.020000 L 38.380000 200.730000 C 38.380000 201.190000 38.390000 201.580000 38.270000 201.760000 L 38.240000 201.290000 C 38.240000 202.060000 38.250000 202.520000 38.310000 203.160000 L 38.310000 202.930000 C 38.430000 203.750000 38.530000 208.030000 38.680000 208.780000 L 38.770000 208.430000 L 38.850000 209.080000 C 38.850000 209.010000 38.550000 208.770000 38.580000 208.710000 C 38.590000 210.090000 38.660000 217.310000 38.600000 218.600000 C 38.550000 219.110000 38.450000 218.690000 38.440000 218.680000 C 38.470000 219.310000 38.530000 218.950000 38.530000 219.490000 C 38.510000 219.640000 38.460000 219.460000 38.440000 219.380000 C 38.450000 219.610000 38.420000 219.830000 38.460000 219.850000 C 38.500000 219.550000 38.610000 219.680000 38.690000 219.550000 L 38.680000 220.240000 L 38.600000 220.210000 C 38.600000 220.360000 38.800000 220.600000 38.760000 221.280000 C 38.730000 222.420000 38.760000 223.660000 38.740000 224.800000 C 38.700000 224.790000 38.670000 224.540000 38.650000 224.300000 C 38.640000 224.460000 38.650000 224.690000 38.620000 224.830000 C 38.700000 224.560000 38.670000 225.310000 38.710000 225.100000 C 38.880000 225.940000 38.720000 227.030000 38.840000 227.770000 C 39.000000 227.830000 41.570000 229.360000 41.760000 229.360000 C 41.750000 229.590000 41.750000 229.810000 41.730000 229.880000 C 41.780000 229.830000 41.800000 229.370000 41.780000 229.130000 L 41.670000 229.090000 C 41.640000 228.540000 41.730000 228.960000 41.730000 228.420000 C 41.810000 228.390000 41.830000 228.890000 41.840000 229.330000 C 41.850000 228.930000 41.910000 228.540000 41.820000 228.380000 C 41.850000 228.010000 41.920000 228.420000 41.950000 227.970000 C 41.930000 227.660000 41.850000 227.240000 41.900000 226.870000 L 41.910000 226.880000 C 42.000000 225.990000 41.780000 225.520000 41.870000 224.710000 L 41.900000 224.800000 C 41.940000 224.510000 41.880000 223.950000 41.930000 223.430000 C 41.910000 223.580000 41.850000 223.710000 41.850000 223.390000 C 41.900000 222.800000 41.850000 222.390000 41.910000 221.960000 L 41.830000 221.540000 C 41.840000 219.470000 41.730000 211.290000 41.720000 209.210000 L 41.730000 209.290000 C 41.690000 206.130000 41.690000 199.620000 41.580000 196.350000 C 41.660000 195.840000 41.640000 195.140000 41.670000 194.610000 C 41.630000 194.910000 41.580000 194.800000 41.580000 194.580000 C 41.590000 192.970000 41.520000 194.470000 41.490000 192.840000 C 41.420000 190.960000 41.500000 183.790000 41.570000 182.120000 C 41.450000 181.230000 41.540000 180.110000 41.470000 179.240000 L 41.490000 179.320000 C 41.450000 178.380000 41.560000 173.060000 41.520000 171.960000 L 41.500000 172.110000 C 41.430000 171.160000 41.560000 171.290000 41.600000 170.540000 C 41.460000 170.630000 41.390000 169.820000 41.380000 169.510000 L 41.410000 169.520000 C 41.380000 169.050000 41.270000 167.980000 41.250000 167.210000 L 41.320000 167.240000 C 41.250000 166.590000 41.280000 165.370000 41.270000 164.910000 C 41.300000 163.840000 41.430000 162.200000 41.330000 160.780000 L 41.540000 159.860000 L 41.520000 159.730000 C 41.520000 159.730000 39.030000 158.250000 38.500000 160.130000 L 38.430000 160.100000 L 38.440000 160.470000 C 38.410000 160.910000 38.490000 161.120000 38.420000 161.090000 L 38.430000 160.480000 C 38.400000 160.930000 38.370000 160.610000 38.330000 160.440000 C 38.320000 160.630000 38.310000 160.810000 38.290000 160.960000 C 38.320000 161.050000 38.320000 160.900000 38.330000 160.830000 C 38.360000 161.070000 38.430000 161.400000 38.390000 161.700000 C 38.390000 162.150000 38.280000 161.730000 38.270000 162.260000 C 38.210000 165.080000 38.130000 167.820000 38.150000 170.670000 C 38.120000 170.730000 38.120000 170.660000 38.100000 170.570000 C 38.130000 171.430000 38.120000 172.200000 38.160000 172.980000 C 38.120000 173.200000 38.080000 173.250000 38.050000 173.320000 C 38.110000 173.190000 38.110000 177.640000 38.100000 177.710000 Z"></path><path fill="rgb(102, 42, 13)" d=" M 108.670000 159.540000 C 108.580000 159.850000 108.570000 160.340000 108.550000 160.810000 C 108.620000 160.440000 108.660000 160.070000 108.670000 159.540000 Z"></path><path fill="rgb(102, 42, 13)" d=" M 108.550000 160.820000 L 108.550000 160.820000 L 108.550000 160.810000 L 108.550000 160.820000 Z"></path><path fill="rgb(102, 42, 13)" d=" M 111.860000 250.530000 L 111.850000 250.150000 C 111.850000 250.280000 111.850000 250.410000 111.860000 250.530000 Z"></path><path fill="rgb(102, 42, 13)" d=" M 108.270000 183.230000 L 108.390000 183.300000 C 108.400000 184.400000 108.260000 183.620000 108.290000 184.640000 C 108.460000 185.030000 108.270000 186.320000 108.360000 186.670000 C 108.350000 186.660000 108.340000 187.160000 108.290000 187.130000 C 108.380000 187.280000 108.310000 187.640000 108.330000 187.950000 C 108.360000 188.070000 108.360000 187.870000 108.390000 187.790000 L 108.420000 188.500000 C 108.390000 188.780000 108.340000 188.850000 108.330000 188.550000 C 108.290000 190.420000 108.210000 199.420000 108.260000 201.440000 C 108.330000 201.180000 108.280000 200.560000 108.390000 200.320000 C 108.460000 200.860000 108.370000 201.110000 108.440000 201.350000 C 108.270000 201.550000 108.400000 202.520000 108.230000 202.920000 L 108.330000 203.080000 L 108.270000 203.340000 C 108.370000 205.690000 108.320000 203.880000 108.300000 205.960000 C 108.320000 207.160000 108.450000 207.740000 108.400000 208.410000 C 108.400000 208.310000 108.460000 208.040000 108.480000 208.350000 C 108.400000 208.410000 108.540000 209.190000 108.460000 209.340000 C 108.470000 209.640000 108.460000 210.630000 108.570000 210.300000 C 108.520000 210.470000 108.490000 211.350000 108.440000 210.820000 C 108.440000 211.120000 108.430000 211.410000 108.450000 211.630000 L 108.480000 211.240000 C 108.500000 212.250000 108.410000 212.800000 108.520000 213.450000 L 108.560000 213.080000 C 108.570000 213.680000 108.580000 214.190000 108.470000 214.420000 L 108.430000 213.810000 C 108.440000 214.800000 108.440000 215.410000 108.500000 216.240000 L 108.510000 215.940000 C 108.620000 217.000000 108.720000 222.540000 108.860000 223.520000 L 108.950000 223.070000 L 109.020000 223.910000 C 109.020000 223.810000 108.740000 223.510000 108.770000 223.420000 C 108.780000 225.220000 108.860000 234.580000 108.810000 236.250000 C 108.770000 236.920000 108.680000 236.370000 108.660000 236.360000 C 108.700000 237.180000 108.750000 236.710000 108.750000 237.400000 C 108.730000 237.590000 108.680000 237.370000 108.670000 237.260000 C 108.680000 237.560000 108.650000 237.850000 108.690000 237.870000 C 108.720000 237.490000 108.830000 237.650000 108.900000 237.490000 L 108.890000 238.380000 L 108.820000 238.340000 C 108.820000 238.540000 109.010000 238.840000 108.970000 239.720000 C 108.950000 241.200000 108.970000 242.810000 108.960000 244.300000 C 108.920000 244.270000 108.900000 243.960000 108.870000 243.650000 C 108.870000 243.850000 108.880000 244.150000 108.850000 244.330000 C 108.920000 243.970000 108.900000 244.960000 108.930000 244.680000 C 109.100000 245.770000 108.950000 247.180000 109.070000 248.140000 C 109.210000 248.220000 111.600000 250.190000 111.780000 250.190000 C 111.780000 250.490000 111.770000 250.780000 111.760000 250.880000 C 111.800000 250.800000 111.820000 250.210000 111.790000 249.900000 L 111.700000 249.850000 C 111.660000 249.130000 111.750000 249.680000 111.750000 248.980000 C 111.820000 248.940000 111.840000 249.580000 111.850000 250.150000 C 111.860000 249.640000 111.910000 249.130000 111.830000 248.920000 C 111.860000 248.440000 111.920000 248.980000 111.950000 248.400000 C 111.930000 247.990000 111.850000 247.440000 111.900000 246.970000 L 111.910000 246.980000 C 111.990000 245.830000 111.790000 245.220000 111.870000 244.170000 L 111.890000 244.280000 C 111.940000 243.910000 111.870000 243.180000 111.920000 242.510000 C 111.910000 242.700000 111.850000 242.860000 111.840000 242.460000 C 111.890000 241.690000 111.840000 241.160000 111.900000 240.600000 L 111.820000 240.060000 C 111.830000 237.370000 111.700000 226.770000 111.680000 224.070000 L 111.690000 224.180000 C 111.650000 220.070000 111.640000 211.640000 111.530000 207.390000 C 111.600000 206.730000 111.580000 205.830000 111.600000 205.140000 C 111.570000 205.520000 111.520000 205.390000 111.520000 205.100000 C 111.530000 203.010000 111.470000 204.960000 111.440000 202.840000 C 111.360000 200.410000 111.430000 191.110000 111.500000 188.950000 C 111.390000 187.790000 111.470000 186.350000 111.400000 185.210000 L 111.430000 185.320000 C 111.380000 184.100000 111.490000 177.200000 111.450000 175.780000 L 111.430000 175.970000 C 111.370000 174.740000 111.490000 174.910000 111.530000 173.930000 C 111.400000 174.060000 111.330000 173.000000 111.330000 172.600000 L 111.350000 172.610000 C 111.330000 172.000000 111.230000 170.620000 111.220000 169.620000 L 111.280000 169.660000 C 111.210000 168.820000 111.250000 167.240000 111.240000 166.640000 C 111.280000 165.260000 111.400000 163.140000 111.330000 161.300000 L 111.540000 160.130000 L 111.530000 159.960000 C 111.530000 159.950000 110.960000 159.480000 110.340000 159.290000 C 110.190000 159.230000 110.030000 159.180000 109.870000 159.160000 C 109.710000 159.150000 109.550000 159.140000 109.400000 159.250000 C 109.100000 159.470000 108.850000 159.780000 108.720000 160.410000 L 108.650000 160.370000 L 108.650000 160.860000 C 108.610000 161.440000 108.690000 161.710000 108.620000 161.670000 L 108.640000 160.870000 C 108.610000 161.450000 108.580000 161.050000 108.550000 160.820000 C 108.540000 161.070000 108.530000 161.300000 108.500000 161.500000 C 108.530000 161.610000 108.530000 161.410000 108.550000 161.320000 C 108.570000 161.640000 108.630000 162.070000 108.590000 162.460000 C 108.580000 163.050000 108.480000 162.490000 108.470000 163.190000 C 108.400000 166.850000 108.310000 170.400000 108.320000 174.100000 C 108.290000 174.180000 108.300000 174.080000 108.280000 173.980000 C 108.310000 175.090000 108.300000 176.080000 108.330000 177.100000 C 108.300000 177.380000 108.260000 177.450000 108.230000 177.540000 C 108.280000 177.370000 108.290000 183.140000 108.270000 183.230000 Z"></path><path fill="rgb(102, 42, 13)" d=" M 219.550000 156.620000 C 219.480000 156.850000 219.470000 157.260000 219.460000 157.640000 C 219.530000 157.340000 219.560000 157.030000 219.550000 156.620000 Z"></path><path fill="rgb(102, 42, 13)" d=" M 219.460000 157.640000 L 219.460000 157.650000 L 219.460000 157.640000 L 219.460000 157.640000 Z"></path><path fill="rgb(102, 42, 13)" d=" M 222.730000 231.480000 L 222.720000 231.170000 C 222.720000 231.270000 222.720000 231.380000 222.730000 231.480000 Z"></path><path fill="rgb(102, 42, 13)" d=" M 219.250000 176.080000 L 219.370000 176.140000 C 219.370000 177.040000 219.230000 176.400000 219.260000 177.230000 C 219.430000 177.560000 219.250000 178.620000 219.340000 178.910000 C 219.320000 178.900000 219.320000 179.310000 219.260000 179.280000 C 219.360000 179.410000 219.290000 179.700000 219.310000 179.960000 C 219.340000 180.060000 219.340000 179.890000 219.370000 179.820000 L 219.400000 180.410000 C 219.370000 180.650000 219.310000 180.700000 219.300000 180.450000 C 219.270000 181.990000 219.180000 189.400000 219.230000 191.070000 C 219.300000 190.850000 219.250000 190.340000 219.360000 190.140000 C 219.420000 190.580000 219.340000 190.790000 219.400000 190.990000 C 219.240000 191.150000 219.360000 191.950000 219.200000 192.280000 L 219.290000 192.410000 L 219.230000 192.630000 C 219.330000 194.560000 219.280000 193.070000 219.260000 194.780000 C 219.270000 195.770000 219.400000 196.250000 219.360000 196.800000 C 219.360000 196.720000 219.410000 196.500000 219.440000 196.750000 C 219.360000 196.800000 219.500000 197.440000 219.410000 197.560000 C 219.420000 197.810000 219.410000 198.630000 219.520000 198.350000 C 219.470000 198.490000 219.450000 199.220000 219.400000 198.790000 C 219.390000 199.030000 219.380000 199.270000 219.400000 199.450000 L 219.430000 199.130000 C 219.450000 199.960000 219.360000 200.410000 219.460000 200.950000 L 219.510000 200.650000 C 219.520000 201.140000 219.520000 201.560000 219.410000 201.750000 L 219.380000 201.240000 C 219.380000 202.060000 219.390000 202.560000 219.450000 203.240000 L 219.450000 203.000000 C 219.560000 203.870000 219.650000 208.430000 219.790000 209.240000 L 219.880000 208.870000 L 219.950000 209.560000 C 219.950000 209.480000 219.670000 209.230000 219.700000 209.160000 C 219.710000 210.640000 219.770000 218.340000 219.720000 219.710000 C 219.670000 220.260000 219.580000 219.810000 219.570000 219.810000 C 219.600000 220.480000 219.660000 220.100000 219.650000 220.670000 C 219.630000 220.820000 219.580000 220.630000 219.570000 220.550000 C 219.580000 220.800000 219.550000 221.030000 219.590000 221.050000 C 219.620000 220.730000 219.730000 220.870000 219.800000 220.730000 L 219.790000 221.470000 L 219.720000 221.440000 C 219.720000 221.600000 219.900000 221.850000 219.870000 222.570000 C 219.840000 223.790000 219.860000 225.110000 219.850000 226.340000 C 219.810000 226.320000 219.780000 226.060000 219.760000 225.800000 C 219.760000 225.970000 219.770000 226.220000 219.740000 226.370000 C 219.810000 226.070000 219.790000 226.880000 219.820000 226.650000 C 219.980000 227.550000 219.830000 228.710000 219.940000 229.500000 C 220.090000 229.570000 222.470000 231.200000 222.650000 231.200000 C 222.650000 231.440000 222.640000 231.690000 222.630000 231.760000 C 222.670000 231.700000 222.690000 231.210000 222.670000 230.960000 L 222.570000 230.910000 C 222.540000 230.320000 222.630000 230.780000 222.620000 230.200000 C 222.700000 230.170000 222.710000 230.700000 222.720000 231.170000 C 222.730000 230.750000 222.790000 230.330000 222.700000 230.160000 C 222.730000 229.760000 222.800000 230.200000 222.830000 229.720000 C 222.810000 229.380000 222.730000 228.940000 222.780000 228.550000 L 222.790000 228.550000 C 222.870000 227.610000 222.670000 227.110000 222.750000 226.240000 L 222.780000 226.330000 C 222.820000 226.030000 222.760000 225.420000 222.810000 224.870000 C 222.790000 225.030000 222.740000 225.170000 222.730000 224.830000 C 222.780000 224.200000 222.730000 223.770000 222.790000 223.300000 L 222.710000 222.860000 C 222.730000 220.650000 222.620000 211.920000 222.610000 209.700000 L 222.620000 209.790000 C 222.580000 206.400000 222.590000 199.460000 222.490000 195.970000 C 222.560000 195.430000 222.540000 194.680000 222.560000 194.120000 C 222.530000 194.430000 222.480000 194.320000 222.480000 194.080000 C 222.490000 192.360000 222.430000 193.960000 222.400000 192.220000 C 222.330000 190.220000 222.410000 182.560000 222.470000 180.790000 C 222.360000 179.830000 222.450000 178.640000 222.380000 177.710000 L 222.400000 177.800000 C 222.360000 176.800000 222.460000 171.110000 222.420000 169.940000 L 222.410000 170.100000 C 222.340000 169.080000 222.460000 169.220000 222.500000 168.420000 C 222.370000 168.530000 222.310000 167.650000 222.300000 167.320000 L 222.320000 167.330000 C 222.300000 166.830000 222.200000 165.700000 222.180000 164.870000 L 222.250000 164.900000 C 222.170000 164.210000 222.200000 162.910000 222.200000 162.410000 C 222.230000 161.280000 222.340000 159.530000 222.250000 158.010000 L 222.440000 157.030000 L 222.430000 156.890000 C 222.430000 156.890000 220.120000 155.310000 219.630000 157.310000 L 219.560000 157.280000 L 219.570000 157.680000 C 219.540000 158.150000 219.610000 158.370000 219.550000 158.340000 L 219.550000 157.690000 C 219.540000 158.170000 219.500000 157.830000 219.460000 157.650000 C 219.460000 157.850000 219.450000 158.040000 219.430000 158.200000 C 219.450000 158.300000 219.450000 158.130000 219.470000 158.060000 C 219.490000 158.320000 219.560000 158.670000 219.520000 158.990000 C 219.520000 159.480000 219.420000 159.020000 219.410000 159.590000 C 219.360000 162.600000 219.280000 165.520000 219.300000 168.560000 C 219.270000 168.630000 219.270000 168.550000 219.260000 168.460000 C 219.280000 169.380000 219.270000 170.190000 219.300000 171.030000 C 219.270000 171.260000 219.230000 171.320000 219.200000 171.390000 C 219.260000 171.250000 219.270000 176.000000 219.250000 176.080000 Z"></path><path fill="rgb(102, 42, 13)" d=" M 198.390000 159.570000 C 198.310000 159.830000 198.300000 160.270000 198.290000 160.690000 C 198.360000 160.370000 198.400000 160.020000 198.390000 159.570000 Z"></path><path fill="rgb(102, 42, 13)" d=" M 198.290000 160.700000 L 198.290000 160.710000 L 198.290000 160.690000 L 198.290000 160.700000 Z"></path><path fill="rgb(102, 42, 13)" d=" M 201.800000 242.650000 L 201.800000 242.300000 C 201.800000 242.420000 201.800000 242.540000 201.800000 242.650000 Z"></path><path fill="rgb(102, 42, 13)" d=" M 198.060000 181.160000 L 198.190000 181.220000 C 198.190000 182.230000 198.040000 181.520000 198.080000 182.440000 C 198.260000 182.800000 198.060000 183.980000 198.150000 184.300000 C 198.140000 184.290000 198.130000 184.750000 198.080000 184.720000 C 198.180000 184.860000 198.100000 185.190000 198.120000 185.470000 C 198.150000 185.580000 198.150000 185.400000 198.180000 185.320000 L 198.220000 185.970000 C 198.190000 186.230000 198.130000 186.290000 198.120000 186.010000 C 198.080000 187.730000 197.990000 195.950000 198.040000 197.800000 C 198.110000 197.560000 198.060000 196.990000 198.180000 196.770000 C 198.250000 197.260000 198.160000 197.490000 198.230000 197.710000 C 198.050000 197.890000 198.180000 198.780000 198.000000 199.150000 L 198.100000 199.290000 L 198.040000 199.530000 C 198.150000 201.670000 198.090000 200.020000 198.070000 201.920000 C 198.090000 203.020000 198.220000 203.540000 198.170000 204.160000 C 198.180000 204.070000 198.240000 203.820000 198.260000 204.110000 C 198.170000 204.160000 198.320000 204.870000 198.240000 205.010000 C 198.250000 205.290000 198.240000 206.190000 198.360000 205.880000 C 198.300000 206.040000 198.270000 206.840000 198.220000 206.360000 C 198.220000 206.640000 198.200000 206.900000 198.230000 207.100000 L 198.260000 206.750000 C 198.280000 207.670000 198.180000 208.170000 198.290000 208.770000 L 198.340000 208.430000 C 198.350000 208.980000 198.360000 209.440000 198.240000 209.650000 L 198.200000 209.090000 C 198.200000 210.000000 198.210000 210.550000 198.270000 211.310000 L 198.280000 211.040000 C 198.400000 212.010000 198.490000 217.070000 198.640000 217.960000 L 198.740000 217.550000 L 198.810000 218.320000 C 198.810000 218.230000 198.510000 217.950000 198.540000 217.870000 C 198.550000 219.520000 198.620000 228.070000 198.560000 229.590000 C 198.510000 230.200000 198.420000 229.700000 198.400000 229.690000 C 198.430000 230.440000 198.500000 230.010000 198.490000 230.650000 C 198.470000 230.820000 198.420000 230.610000 198.410000 230.510000 C 198.420000 230.790000 198.380000 231.050000 198.430000 231.070000 C 198.460000 230.720000 198.570000 230.870000 198.650000 230.720000 L 198.640000 231.540000 L 198.570000 231.500000 C 198.560000 231.680000 198.760000 231.960000 198.730000 232.760000 C 198.690000 234.120000 198.720000 235.580000 198.700000 236.940000 C 198.660000 236.920000 198.630000 236.640000 198.610000 236.350000 C 198.610000 236.530000 198.620000 236.810000 198.590000 236.980000 C 198.660000 236.650000 198.640000 237.550000 198.670000 237.290000 C 198.850000 238.290000 198.690000 239.570000 198.800000 240.450000 C 198.960000 240.530000 201.530000 242.330000 201.720000 242.330000 C 201.720000 242.610000 201.710000 242.880000 201.700000 242.960000 C 201.740000 242.890000 201.760000 242.360000 201.740000 242.070000 L 201.640000 242.020000 C 201.600000 241.370000 201.700000 241.870000 201.690000 241.230000 C 201.770000 241.190000 201.790000 241.780000 201.800000 242.300000 C 201.810000 241.830000 201.870000 241.370000 201.780000 241.180000 C 201.810000 240.740000 201.880000 241.230000 201.920000 240.700000 C 201.890000 240.320000 201.810000 239.830000 201.860000 239.390000 L 201.870000 239.400000 C 201.960000 238.350000 201.750000 237.790000 201.830000 236.830000 L 201.860000 236.940000 C 201.910000 236.600000 201.840000 235.930000 201.890000 235.320000 C 201.880000 235.490000 201.820000 235.640000 201.810000 235.270000 C 201.860000 234.570000 201.810000 234.090000 201.870000 233.570000 L 201.790000 233.080000 C 201.810000 230.630000 201.690000 220.940000 201.680000 218.480000 L 201.690000 218.570000 C 201.650000 214.820000 201.660000 207.110000 201.550000 203.230000 C 201.630000 202.630000 201.610000 201.810000 201.630000 201.180000 C 201.600000 201.530000 201.540000 201.410000 201.540000 201.140000 C 201.550000 199.230000 201.490000 201.010000 201.450000 199.080000 C 201.380000 196.860000 201.460000 188.360000 201.530000 186.390000 C 201.410000 185.330000 201.500000 184.000000 201.430000 182.970000 L 201.460000 183.070000 C 201.410000 181.960000 201.520000 175.650000 201.480000 174.350000 L 201.460000 174.530000 C 201.390000 173.400000 201.520000 173.550000 201.560000 172.660000 C 201.430000 172.780000 201.350000 171.810000 201.340000 171.440000 L 201.370000 171.460000 C 201.350000 170.900000 201.230000 169.640000 201.220000 168.720000 L 201.290000 168.750000 C 201.210000 167.990000 201.240000 166.550000 201.230000 166.000000 C 201.260000 164.740000 201.390000 162.790000 201.290000 161.110000 L 201.500000 160.020000 L 201.480000 159.860000 C 201.480000 159.860000 199.000000 158.110000 198.470000 160.330000 L 198.390000 160.300000 L 198.400000 160.740000 C 198.370000 161.260000 198.450000 161.510000 198.380000 161.470000 L 198.390000 160.750000 C 198.370000 161.280000 198.330000 160.910000 198.290000 160.710000 C 198.280000 160.930000 198.270000 161.140000 198.250000 161.320000 C 198.280000 161.420000 198.280000 161.240000 198.300000 161.160000 C 198.320000 161.450000 198.390000 161.840000 198.360000 162.190000 C 198.350000 162.730000 198.240000 162.230000 198.230000 162.860000 C 198.180000 166.200000 198.090000 169.440000 198.110000 172.820000 C 198.080000 172.890000 198.080000 172.800000 198.070000 172.710000 C 198.100000 173.720000 198.090000 174.630000 198.120000 175.550000 C 198.090000 175.810000 198.040000 175.880000 198.010000 175.960000 C 198.070000 175.810000 198.080000 181.080000 198.060000 181.160000 Z"></path><path fill="rgb(10, 77, 34)" d=" M 131.620000 166.380000 C 131.620000 166.380000 131.550000 166.250000 131.420000 166.000000 C 129.070000 161.470000 120.160000 118.820000 98.790000 116.320000 C 90.870000 115.390000 88.370000 119.320000 88.370000 119.320000 C 88.370000 119.320000 87.320000 108.810000 70.650000 111.820000 C 53.970000 114.820000 48.760000 132.840000 48.760000 132.840000 C 48.760000 132.840000 47.710000 126.330000 40.420000 131.340000 C 34.580000 135.350000 31.600000 165.310000 31.040000 166.380000 L 32.600000 166.380000 L 131.620000 166.380000 Z"></path><path fill="rgb(10, 77, 34)" d=" M 235.660000 157.720000 C 228.030000 151.210000 230.070000 159.720000 230.070000 159.720000 C 230.070000 159.720000 220.920000 135.190000 206.180000 136.690000 C 191.450000 138.200000 186.870000 150.210000 186.870000 150.210000 C 186.870000 150.210000 187.380000 143.700000 178.240000 148.210000 C 170.830000 151.860000 169.080000 178.860000 168.580000 179.750000 L 170.110000 179.740000 C 170.110000 179.740000 170.110000 179.750000 170.110000 179.750000 L 238.200000 179.250000 C 238.200000 179.250000 243.280000 164.230000 235.660000 157.720000 Z"></path></svg>