<svg id="Bats0.svg" width="150" height="150" version="1.1" viewBox="0 0 300 300" xmlns="http://www.w3.org/2000/svg"><path fill="rgb(20, 21, 24)" d=" M 164.820000 204.230000 C 163.980000 220.460000 153.970000 227.660000 146.470000 230.800000 C 146.870000 229.990000 147.090000 229.100000 147.090000 228.170000 C 147.090000 225.940000 146.070000 224.770000 144.320000 224.180000 L 142.570000 218.230000 L 140.870000 223.670000 C 140.550000 223.660000 140.210000 223.650000 139.860000 223.650000 C 138.880000 223.650000 137.900000 223.690000 136.980000 223.790000 L 135.350000 218.230000 L 133.290000 224.820000 C 132.060000 225.510000 131.280000 226.560000 131.280000 228.170000 C 131.280000 229.440000 131.700000 230.620000 132.410000 231.640000 C 124.840000 229.040000 112.790000 222.100000 111.860000 204.230000 L 77.960000 233.000000 C 77.960000 233.000000 95.160000 227.260000 98.320000 243.070000 C 98.320000 243.070000 113.670000 224.100000 123.150000 241.720000 C 123.150000 241.720000 135.460000 241.730000 138.170000 253.860000 L 138.170000 255.710000 C 138.220000 255.360000 138.280000 255.010000 138.340000 254.670000 C 138.400000 255.010000 138.460000 255.360000 138.510000 255.710000 L 138.510000 253.870000 C 141.220000 241.730000 153.530000 241.720000 153.530000 241.720000 C 163.010000 224.100000 178.370000 243.070000 178.370000 243.070000 C 181.530000 227.260000 198.720000 233.000000 198.720000 233.000000 L 164.820000 204.230000 Z M 135.570000 229.520000 C 134.950000 229.520000 134.440000 229.010000 134.440000 228.390000 C 134.440000 227.770000 134.950000 227.260000 135.570000 227.260000 C 136.200000 227.260000 136.700000 227.770000 136.700000 228.390000 C 136.700000 229.010000 136.200000 229.520000 135.570000 229.520000 Z M 143.480000 229.520000 C 142.850000 229.520000 142.350000 229.010000 142.350000 228.390000 C 142.350000 227.770000 142.850000 227.260000 143.480000 227.260000 C 144.100000 227.260000 144.610000 227.770000 144.610000 228.390000 C 144.610000 229.010000 144.100000 229.520000 143.480000 229.520000 Z"></path><path fill="rgb(20, 21, 24)" d=" M 134.980000 127.030000 C 137.710000 138.800000 132.040000 146.010000 127.320000 149.790000 C 127.440000 149.130000 127.410000 148.450000 127.220000 147.780000 C 126.760000 146.180000 125.790000 145.560000 124.420000 145.500000 L 121.950000 141.600000 L 121.850000 145.840000 C 121.620000 145.900000 121.380000 145.960000 121.120000 146.030000 C 120.420000 146.240000 119.740000 146.460000 119.100000 146.730000 L 116.780000 143.090000 L 116.670000 148.220000 C 115.930000 148.960000 115.590000 149.880000 115.920000 151.030000 C 116.180000 151.930000 116.720000 152.700000 117.440000 153.280000 C 111.500000 152.970000 101.460000 150.490000 97.120000 137.900000 L 78.800000 165.440000 C 78.800000 165.440000 89.910000 157.800000 95.420000 168.450000 C 95.420000 168.450000 102.500000 151.740000 112.890000 162.380000 C 112.890000 162.380000 121.700000 159.860000 126.130000 167.980000 L 126.510000 169.300000 C 126.470000 169.040000 126.440000 168.780000 126.410000 168.530000 C 126.530000 168.750000 126.640000 168.990000 126.740000 169.240000 L 126.370000 167.910000 C 125.810000 158.680000 134.610000 156.140000 134.610000 156.140000 C 137.770000 141.600000 152.640000 152.010000 152.640000 152.010000 C 151.650000 140.060000 165.120000 140.630000 165.120000 140.630000 L 134.980000 127.030000 Z M 119.270000 151.110000 C 118.820000 151.240000 118.360000 150.980000 118.230000 150.540000 C 118.100000 150.090000 118.360000 149.630000 118.800000 149.500000 C 119.250000 149.370000 119.710000 149.630000 119.840000 150.070000 C 119.970000 150.520000 119.710000 150.980000 119.270000 151.110000 Z M 124.920000 149.490000 C 124.470000 149.620000 124.010000 149.360000 123.880000 148.910000 C 123.750000 148.470000 124.010000 148.000000 124.450000 147.870000 C 124.900000 147.750000 125.360000 148.000000 125.490000 148.450000 C 125.620000 148.900000 125.360000 149.360000 124.920000 149.490000 Z"></path><path fill="rgb(20, 21, 24)" d=" M 203.740000 168.630000 C 201.980000 178.430000 195.330000 182.040000 190.530000 183.370000 C 190.830000 182.910000 191.040000 182.380000 191.110000 181.810000 C 191.280000 180.460000 190.750000 179.670000 189.740000 179.170000 L 189.130000 175.420000 L 187.680000 178.600000 C 187.480000 178.570000 187.270000 178.540000 187.060000 178.510000 C 186.460000 178.430000 185.870000 178.380000 185.300000 178.370000 L 184.730000 174.860000 L 182.970000 178.710000 C 182.170000 179.040000 181.620000 179.620000 181.490000 180.590000 C 181.400000 181.370000 181.560000 182.120000 181.910000 182.790000 C 177.510000 180.620000 170.710000 175.480000 171.530000 164.540000 L 148.700000 179.420000 C 148.700000 179.420000 159.590000 177.260000 160.300000 187.110000 C 160.300000 187.110000 171.100000 176.760000 175.510000 188.210000 C 175.510000 188.210000 182.990000 189.160000 183.710000 196.750000 L 183.560000 197.880000 C 183.620000 197.660000 183.680000 197.460000 183.740000 197.260000 C 183.750000 197.470000 183.760000 197.680000 183.760000 197.900000 L 183.910000 196.780000 C 186.490000 189.610000 193.980000 190.550000 193.980000 190.550000 C 201.110000 180.570000 208.980000 193.290000 208.980000 193.290000 C 212.120000 183.920000 222.140000 188.740000 222.140000 188.740000 L 203.740000 168.630000 Z M 184.000000 181.750000 C 183.620000 181.700000 183.350000 181.360000 183.400000 180.980000 C 183.450000 180.600000 183.800000 180.330000 184.180000 180.380000 C 184.550000 180.420000 184.820000 180.770000 184.770000 181.150000 C 184.730000 181.530000 184.380000 181.800000 184.000000 181.750000 Z M 188.810000 182.360000 C 188.430000 182.310000 188.160000 181.960000 188.210000 181.580000 C 188.250000 181.210000 188.600000 180.940000 188.980000 180.980000 C 189.360000 181.030000 189.630000 181.380000 189.580000 181.760000 C 189.530000 182.140000 189.180000 182.410000 188.810000 182.360000 Z"></path><path fill="rgb(20, 21, 24)" d=" M 175.650000 45.040000 C 177.660000 63.210000 167.840000 73.030000 160.070000 77.870000 C 160.370000 76.900000 160.450000 75.870000 160.290000 74.830000 C 159.880000 72.350000 158.540000 71.240000 156.490000 70.900000 L 153.470000 64.610000 L 152.570000 70.960000 C 152.200000 71.000000 151.830000 71.050000 151.440000 71.120000 C 150.350000 71.290000 149.280000 71.520000 148.270000 71.800000 L 145.450000 65.920000 L 144.350000 73.600000 C 143.110000 74.590000 142.440000 75.900000 142.730000 77.680000 C 142.960000 79.100000 143.630000 80.340000 144.610000 81.340000 C 135.730000 79.810000 121.090000 74.290000 116.830000 54.610000 L 84.380000 92.680000 C 84.380000 92.680000 102.440000 83.210000 108.800000 100.190000 C 108.800000 100.190000 122.430000 76.350000 136.150000 94.200000 C 136.150000 94.200000 149.820000 91.990000 155.030000 104.980000 L 155.360000 107.040000 C 155.350000 106.630000 155.350000 106.240000 155.360000 105.850000 C 155.480000 106.220000 155.610000 106.580000 155.730000 106.980000 L 155.400000 104.920000 C 156.210000 90.950000 169.890000 88.720000 169.890000 88.720000 C 177.240000 67.440000 197.720000 85.730000 197.720000 85.730000 C 198.380000 67.600000 218.510000 70.870000 218.510000 70.870000 L 175.650000 45.040000 Z M 147.740000 78.410000 C 147.040000 78.530000 146.390000 78.060000 146.280000 77.360000 C 146.170000 76.670000 146.640000 76.010000 147.330000 75.910000 C 148.020000 75.790000 148.680000 76.260000 148.790000 76.960000 C 148.900000 77.650000 148.430000 78.300000 147.740000 78.410000 Z M 156.520000 76.990000 C 155.830000 77.100000 155.170000 76.630000 155.060000 75.930000 C 154.940000 75.240000 155.420000 74.590000 156.110000 74.470000 C 156.800000 74.370000 157.450000 74.830000 157.560000 75.530000 C 157.680000 76.220000 157.210000 76.870000 156.520000 76.990000 Z"></path></svg>