<?xml version="1.0" standalone="no"?><!DOCTYPE svg PUBLIC "-//W3C//DTD SVG 1.1//EN" "http://www.w3.org/Graphics/SVG/1.1/DTD/svg11.dtd"><svg id="Bird0.svg" width="150" height="150" version="1.1" viewBox="0 0 300 300" xmlns="http://www.w3.org/2000/svg" xmlns:xlink="http://www.w3.org/1999/xlink"><defs xmlns="http://www.w3.org/1999/xhtml"><style type="text/css"><![CDATA[
* { border: 0px; margin: 0px; padding: 0px; }
html { background-color: rgb(255, 255, 255); font-family: Verdana, Arial; }
.webgl-content * { position: absolute; width: 100%; height: 100%; user-select: none; }
.webgl-content .logo, .progress { position: absolute; left: 50%; top: 50%; transform: translate(-50%, -50%); }
.webgl-content .logo { background: url("progressLogo.Light.png") center center / contain no-repeat; width: 154px; height: 130px; }
.webgl-content .progress { height: 18px; width: 141px; margin-top: 90px; }
.webgl-content .progress .empty { background: url("progressEmpty.Light.png") right center / cover no-repeat; float: right; width: 100%; height: 100%; display: inline-block; }
.webgl-content .progress .full { background: url("progressFull.Light.png") left center / cover no-repeat; float: left; width: 0%; height: 100%; display: inline-block; }
.webgl-content .logo.Dark { background-image: url("progressLogo.Dark.png"); }
.webgl-content .progress.Dark .empty { background-image: url("progressEmpty.Dark.png"); }
.webgl-content .progress.Dark .full { background-image: url("progressFull.Dark.png"); }
#loading-content { z-index: 10000; position: fixed; width: 100%; height: 100%; left: 0px; top: 0px; overflow: hidden; background: url("background.png"); }
.hud-intro .hud-intro-social .btn-discord, .hud-respawn .hud-respawn-social .btn-discord { background-image: url("//lordz.io/images/discord-icon.png"); }
.hud-intro .hud-intro-social .btn-twitter, .hud-respawn .hud-respawn-social .btn-twitter { background-image: url("//lordz.io/images/twitter-icon.png"); }
.hud-intro .hud-intro-social .btn-facebook, .hud-respawn .hud-respawn-social .btn-facebook { background-image: url("//lordz.io/images/facebook-icon.png"); }
.hud-intro .hud-intro-social .btn-youtube, .hud-respawn .hud-respawn-social .btn-youtube { background-image: url("//lordz.io/images/youtube-icon.png"); }
* { box-sizing: border-box; user-select: none; }
.btn { position: relative; display: inline-block; top: 0px; height: 36px; line-height: 36px; padding: 0px 20px; background: rgb(68, 68, 68); color: rgb(238, 238, 238); border: 0px; font-size: 14px; vertical-align: top; text-align: center; text-decoration: none; text-shadow: rgba(0, 0, 0, 0.4) 0px 1px 0px; box-shadow: rgba(0, 0, 0, 0.2) 0px 2px 10px, rgb(51, 51, 51) 0px 4px 0px; border-radius: 4px; transition: all 0.15s ease-in-out 0s; }
.btn:hover, .btn:active { background-color: rgb(85, 85, 85); color: rgb(255, 255, 255); }
.btn:active { top: 4px; box-shadow: rgba(0, 0, 0, 0.2) 0px 2px 10px !important; }
.btn-green { background-color: rgb(71, 149, 13); box-shadow: rgba(0, 0, 0, 0.2) 0px 2px 10px, rgb(53, 131, 0) 0px 4px 0px; }
.btn-green:hover, .btn-green:active { background-color: rgb(100, 184, 32); }
.btn-red { background-color: rgb(179, 53, 60); box-shadow: rgba(0, 0, 0, 0.2) 0px 2px 10px, rgb(161, 35, 42) 0px 4px 0px; }
.btn-red:hover, .btn-red:active { background-color: rgb(203, 87, 91); }
.btn-blue { background-color: rgb(29, 141, 238); box-shadow: rgba(0, 0, 0, 0.2) 0px 2px 10px, rgb(11, 123, 220) 0px 4px 0px; }
.btn-blue:hover, .btn-blue:active { background-color: rgb(79, 167, 238); }
.btn-purple { background-color: rgb(114, 55, 228); box-shadow: rgba(0, 0, 0, 0.2) 0px 2px 10px, rgb(96, 37, 210) 0px 4px 0px; }
.btn-purple:hover, .btn-purple:active { background-color: rgb(130, 89, 228); }
.btn-twitter { background-color: rgb(27, 149, 224); box-shadow: rgba(0, 0, 0, 0.2) 0px 2px 10px, rgb(9, 131, 206) 0px 4px 0px; }
.btn-twitter:hover, .btn-twitter:active { background-color: rgb(12, 122, 191); }
.btn-facebook { background-color: rgb(66, 103, 178); box-shadow: rgba(0, 0, 0, 0.2) 0px 2px 10px, rgb(48, 85, 160) 0px 4px 0px; }
.btn-facebook:hover, .btn-facebook:active { background-color: rgb(54, 88, 153); }
.btn-google { background-color: rgb(221, 75, 57); box-shadow: rgba(0, 0, 0, 0.2) 0px 2px 10px, rgb(203, 57, 39) 0px 4px 0px; }
.btn-google:hover, .btn-google:active { background-color: rgb(186, 63, 49); }
.btn-discord { background-color: rgb(114, 137, 218); box-shadow: rgba(0, 0, 0, 0.2) 0px 2px 10px, rgb(96, 119, 200) 0px 4px 0px; }
.btn-discord:hover, .btn-discord:active { background-color: rgb(90, 109, 176); }
.btn-youtube { background-color: rgb(229, 45, 39); box-shadow: rgba(0, 0, 0, 0.2) 0px 2px 10px, rgb(211, 27, 21) 0px 4px 0px; }
.btn-youtube:hover, .btn-youtube:active { background-color: rgb(186, 37, 33); }
.hud { position: fixed; top: 0px; left: 0px; bottom: 0px; right: 0px; }
.hud .hud-bottom-left { display: flex; position: absolute; bottom: 20px; left: 20px; flex-direction: column-reverse; }
.hud-intro .hud-intro-corner-bottom-left, .hud-respawn .hud-respawn-corner-bottom-left { position: fixed; bottom: 20px; left: 20px; text-align: left; }
.hud-intro .hud-intro-social, .hud-respawn .hud-respawn-social { width: 240px; line-height: 24px; font-size: 14px; color: rgb(119, 119, 119); }
.hud-intro .hud-intro-social .btn, .hud-respawn .hud-respawn-social .btn { display: block; float: left; margin: 0px 10px 0px 0px; width: 40px; height: 40px; line-height: 40px; background-size: 24px; background-position: center center; background-repeat: no-repeat; }
.hud-intro .hud-intro-more-games { position: relative; bottom: 5px; line-height: 20px; font-size: 14px; color: rgba(255, 255, 255, 0.4); text-shadow: rgba(0, 0, 0, 0.2) 0px 1px 3px; }
.hud-intro .hud-intro-more-games a { display: inline-block; padding: 0px 20px; line-height: 40px; background: rgb(132, 115, 212); color: rgb(238, 238, 238); text-decoration: none; border-radius: 4px; transition: all 0.15s ease-in-out 0s; }
.hud-intro .hud-intro-more-games a:hover, .hud-intro .hud-intro-more-games a:active { background: rgb(103, 90, 166); }
#preroll video { left: 0px; top: 0px; }
.fb_hidden { position: absolute; top: -10000px; z-index: 10001; }
.fb_reposition { overflow: hidden; position: relative; }
.fb_invisible { display: none; }
.fb_reset { background: none; border: 0px; border-spacing: 0px; color: rgb(0, 0, 0); cursor: auto; direction: ltr; font-family: "lucida grande", tahoma, verdana, arial, sans-serif; font-size: 11px; font-style: normal; font-variant: normal; font-weight: normal; letter-spacing: normal; line-height: 1; margin: 0px; overflow: visible; padding: 0px; text-align: left; text-decoration: none; text-indent: 0px; text-shadow: none; text-transform: none; visibility: visible; white-space: normal; word-spacing: normal; }
.fb_animate { animation: 0.3s ease 0s 1 normal forwards running fb_transform; }
.fb_dialog { background: rgba(82, 82, 82, 0.7); position: absolute; top: -10000px; z-index: 10001; }
.fb_dialog_advanced { border-radius: 8px; padding: 10px; }
.fb_dialog_content { background: rgb(255, 255, 255); color: rgb(55, 55, 55); }
.fb_dialog_close_icon { background: url("https://static.xx.fbcdn.net/rsrc.php/v3/yq/r/IE9JII6Z1Ys.png") 0px 0px no-repeat scroll transparent; cursor: pointer; display: block; height: 15px; position: absolute; right: 18px; top: 17px; width: 15px; }
.fb_dialog_mobile .fb_dialog_close_icon { left: 5px; right: auto; top: 5px; }
.fb_dialog_padding { background-color: transparent; position: absolute; width: 1px; z-index: -1; }
.fb_dialog_close_icon:hover { background: url("https://static.xx.fbcdn.net/rsrc.php/v3/yq/r/IE9JII6Z1Ys.png") 0px -15px no-repeat scroll transparent; }
.fb_dialog_close_icon:active { background: url("https://static.xx.fbcdn.net/rsrc.php/v3/yq/r/IE9JII6Z1Ys.png") 0px -30px no-repeat scroll transparent; }
.fb_dialog_iframe { line-height: 0; }
.fb_dialog_content .dialog_title { background: rgb(109, 132, 180); border: 1px solid rgb(54, 88, 153); color: rgb(255, 255, 255); font-size: 14px; font-weight: bold; margin: 0px; }
body.fb_hidden { height: 100%; left: 0px; margin: 0px; overflow: visible; position: absolute; top: -10000px; transform: none; width: 100%; }
.fb_dialog.fb_dialog_mobile.loading { background: url("https://static.xx.fbcdn.net/rsrc.php/v3/ya/r/3rhSv5V8j3o.gif") 50% 50% no-repeat white; min-height: 100%; min-width: 100%; overflow: hidden; position: absolute; top: 0px; z-index: 10001; }
.fb_dialog.fb_dialog_mobile.loading.centered { background: none; height: auto; min-height: initial; min-width: initial; width: auto; }
.fb_dialog.fb_dialog_mobile.loading.centered #fb_dialog_loader_spinner { width: 100%; }
.fb_dialog.fb_dialog_mobile.loading.centered .fb_dialog_content { background: none; }
.loading.centered #fb_dialog_loader_close { clear: both; color: rgb(255, 255, 255); display: block; font-size: 18px; padding-top: 20px; }
#fb-root #fb_dialog_ipad_overlay { background: rgba(0, 0, 0, 0.4); bottom: 0px; left: 0px; min-height: 100%; position: absolute; right: 0px; top: 0px; width: 100%; z-index: 10000; }
#fb-root #fb_dialog_ipad_overlay.hidden { display: none; }
.fb_dialog.fb_dialog_mobile.loading iframe { visibility: hidden; }
.fb_dialog_mobile .fb_dialog_iframe { position: sticky; top: 0px; }
.fb_dialog_content .dialog_header { border-bottom: 1px solid rgb(4, 59, 135); border-top-color: rgb(4, 59, 135); border-right-color: rgb(4, 59, 135); border-left-color: rgb(4, 59, 135); box-shadow: white 0px 1px 1px -1px inset; color: rgb(255, 255, 255); font: bold 14px Helvetica, sans-serif; text-overflow: ellipsis; text-shadow: rgba(0, 30, 84, 0.298) 0px -1px 0px; vertical-align: middle; white-space: nowrap; }
.fb_dialog_content .dialog_header table { height: 43px; width: 100%; }
.fb_dialog_content .dialog_header td.header_left { font-size: 12px; padding-left: 5px; vertical-align: middle; width: 60px; }
.fb_dialog_content .dialog_header td.header_right { font-size: 12px; padding-right: 5px; vertical-align: middle; width: 60px; }
.fb_dialog_content .touchable_button { background-clip: padding-box; border: 1px solid rgb(41, 72, 125); border-radius: 3px; display: inline-block; line-height: 18px; margin-top: 3px; max-width: 85px; padding: 4px 12px; position: relative; }
.fb_dialog_content .dialog_header .touchable_button input { background: none; border: none; color: rgb(255, 255, 255); font: bold 12px Helvetica, sans-serif; margin: 2px -12px; padding: 2px 6px 3px; text-shadow: rgba(0, 30, 84, 0.298) 0px -1px 0px; }
.fb_dialog_content .dialog_header .header_center { color: rgb(255, 255, 255); font-size: 16px; font-weight: bold; line-height: 18px; text-align: center; vertical-align: middle; }
.fb_dialog_content .dialog_content { background: url("https://static.xx.fbcdn.net/rsrc.php/v3/y9/r/jKEcVPZFk-2.gif") 50% 50% no-repeat; border-width: 0px 1px; border-right-style: solid; border-left-style: solid; border-right-color: rgb(74, 74, 74); border-left-color: rgb(74, 74, 74); border-image: initial; border-bottom-style: initial; border-bottom-color: initial; border-top-style: initial; border-top-color: initial; height: 150px; }
.fb_dialog_content .dialog_footer { background: rgb(245, 246, 247); border-width: 1px; border-style: solid; border-color: rgb(204, 204, 204) rgb(74, 74, 74) rgb(74, 74, 74); border-image: initial; height: 40px; }
#fb_dialog_loader_close { float: left; }
.fb_dialog.fb_dialog_mobile .fb_dialog_close_button { text-shadow: rgba(0, 30, 84, 0.298) 0px -1px 0px; }
.fb_dialog.fb_dialog_mobile .fb_dialog_close_icon { visibility: hidden; }
#fb_dialog_loader_spinner { animation: 1.2s linear 0s infinite normal none running rotateSpinner; background-color: transparent; background-image: url("https://static.xx.fbcdn.net/rsrc.php/v3/yD/r/t-wz8gw1xG1.png"); background-position: 50% 50%; background-repeat: no-repeat; height: 24px; width: 24px; }
.fb_iframe_widget { display: inline-block; position: relative; }
.fb_iframe_widget span { display: inline-block; position: relative; text-align: justify; }
.fb_iframe_widget iframe { position: absolute; }
.fb_iframe_widget_fluid_desktop, .fb_iframe_widget_fluid_desktop span, .fb_iframe_widget_fluid_desktop iframe { max-width: 100%; }
.fb_iframe_widget_fluid_desktop iframe { min-width: 220px; position: relative; }
.fb_iframe_widget_lift { z-index: 1; }
.fb_iframe_widget_fluid { display: inline; }
.fb_iframe_widget_fluid span { width: 100%; }
.st0 { fill: rgb(119, 183, 73); }
.st1 { fill: rgb(247, 175, 47); }
.st2 { fill: rgb(233, 81, 15); }
.st3 { fill: url("#SVGID_1_"); }
.st4 { fill: url("#SVGID_2_"); }
.st5 { fill: rgb(252, 242, 119); }
.st6 { fill: url("#SVGID_3_"); }
.st7 { fill: url("#SVGID_4_"); }
.st8 { fill: url("#SVGID_5_"); }
.st9 { fill: url("#SVGID_6_"); }
.st10 { fill: url("#SVGID_7_"); }
.st11 { fill: url("#SVGID_8_"); }
.st12 { fill: url("#SVGID_9_"); }
.st13 { fill: url("#SVGID_10_"); }
.st14 { fill: url("#SVGID_11_"); }
.st15 { fill: url("#SVGID_12_"); }
.st16 { fill: url("#SVGID_13_"); }
.st17 { fill: url("#SVGID_14_"); }
.st18 { fill: url("#SVGID_15_"); }
.st19 { fill: url("#SVGID_16_"); }
.st0 { fill: rgb(119, 183, 73); }
.st1 { fill: rgb(247, 175, 47); }
.st2 { fill: rgb(233, 81, 15); }
.st3 { fill: url("#SVGID_1_"); }
.st4 { fill: url("#SVGID_2_"); }
.st5 { fill: rgb(252, 242, 119); }
.st6 { fill: url("#SVGID_3_"); }
.st7 { fill: url("#SVGID_4_"); }
.st8 { fill: url("#SVGID_5_"); }
.st9 { fill: url("#SVGID_6_"); }
.st10 { fill: url("#SVGID_7_"); }
.st11 { fill: url("#SVGID_8_"); }
.st12 { fill: url("#SVGID_9_"); }
.st13 { fill: url("#SVGID_10_"); }
.st14 { fill: url("#SVGID_11_"); }
.st15 { fill: url("#SVGID_12_"); }
.st16 { fill: url("#SVGID_13_"); }
.st17 { fill: url("#SVGID_14_"); }
.st18 { fill: url("#SVGID_15_"); }
.st19 { fill: url("#SVGID_16_"); }
.st0 { fill: rgb(119, 183, 73); }
.st1 { fill: rgb(247, 175, 47); }
.st2 { fill: rgb(233, 81, 15); }
.st3 { fill: url("#SVGID_1_"); }
.st4 { fill: url("#SVGID_2_"); }
.st5 { fill: rgb(252, 242, 119); }
.st6 { fill: url("#SVGID_3_"); }
.st7 { fill: url("#SVGID_4_"); }
.st8 { fill: url("#SVGID_5_"); }
.st9 { fill: url("#SVGID_6_"); }
.st10 { fill: url("#SVGID_7_"); }
.st11 { fill: url("#SVGID_8_"); }
.st12 { fill: url("#SVGID_9_"); }
.st13 { fill: url("#SVGID_10_"); }
.st14 { fill: url("#SVGID_11_"); }
.st15 { fill: url("#SVGID_12_"); }
.st16 { fill: url("#SVGID_13_"); }
.st17 { fill: url("#SVGID_14_"); }
.st18 { fill: url("#SVGID_15_"); }
.st19 { fill: url("#SVGID_16_"); }
.st0 { fill: rgb(119, 183, 73); }
.st1 { fill: rgb(247, 175, 47); }
.st2 { fill: rgb(233, 81, 15); }
.st3 { fill: url("#SVGID_1_"); }
.st4 { fill: url("#SVGID_2_"); }
.st5 { fill: rgb(252, 242, 119); }
.st6 { fill: url("#SVGID_3_"); }
.st7 { fill: url("#SVGID_4_"); }
.st8 { fill: url("#SVGID_5_"); }
.st9 { fill: url("#SVGID_6_"); }
.st10 { fill: url("#SVGID_7_"); }
.st11 { fill: url("#SVGID_8_"); }
.st12 { fill: url("#SVGID_9_"); }
.st13 { fill: url("#SVGID_10_"); }
.st14 { fill: url("#SVGID_11_"); }
.st15 { fill: url("#SVGID_12_"); }
.st16 { fill: url("#SVGID_13_"); }
.st17 { fill: url("#SVGID_14_"); }
.st18 { fill: url("#SVGID_15_"); }
.st19 { fill: url("#SVGID_16_"); }]]></style></defs><path fill="rgb(138, 40, 109)" d=" M 283.900000 175.100000 C 284.300000 181.000000 284.600000 186.900000 284.500000 192.800000 C 284.400000 201.000000 283.400000 209.100000 282.600000 217.100000 C 281.900000 223.700000 280.500000 231.900000 283.000000 238.300000 C 283.300000 239.100000 284.800000 241.000000 284.200000 241.600000 C 282.900000 243.100000 278.700000 239.400000 277.700000 238.500000 C 273.900000 234.900000 274.600000 229.300000 270.500000 226.000000 C 270.200000 225.700000 269.700000 226.000000 269.800000 226.500000 C 270.900000 229.800000 270.300000 234.500000 269.900000 237.600000 C 269.500000 240.800000 268.700000 243.700000 267.000000 246.300000 C 266.600000 247.000000 265.500000 246.700000 265.400000 245.900000 C 265.000000 240.700000 264.000000 235.200000 260.300000 231.500000 C 260.000000 231.200000 259.500000 231.400000 259.500000 231.800000 C 259.500000 233.300000 259.000000 235.700000 258.900000 236.300000 C 258.600000 238.300000 258.000000 240.400000 257.200000 242.300000 C 256.400000 244.200000 255.400000 246.100000 254.100000 247.700000 C 253.500000 248.500000 252.700000 248.800000 252.000000 249.200000 C 251.500000 249.400000 251.000000 249.000000 251.200000 248.500000 C 252.100000 246.200000 252.200000 243.400000 252.100000 241.200000 C 251.900000 237.100000 248.500000 222.600000 242.700000 230.200000 C 241.100000 232.300000 240.100000 235.200000 240.100000 237.900000 C 238.400000 234.100000 237.200000 230.900000 237.800000 226.700000 C 238.600000 221.200000 240.900000 216.100000 242.400000 210.900000 C 243.700000 206.300000 245.100000 201.800000 246.000000 197.100000 C 247.200000 191.300000 248.300000 185.200000 249.200000 179.300000 C 250.600000 169.900000 251.500000 160.500000 252.000000 151.000000 C 252.400000 144.500000 252.700000 137.900000 254.700000 131.700000 C 255.900000 128.000000 257.500000 120.100000 261.700000 118.800000 C 270.100000 116.200000 274.800000 130.600000 276.900000 136.200000 C 279.300000 142.500000 280.300000 149.800000 281.400000 156.500000 C 282.700000 162.600000 283.400000 168.800000 283.900000 175.100000 Z"/><path fill="rgb(77, 25, 59)" d=" M 265.700000 157.500000 C 266.900000 157.400000 268.000000 157.100000 269.100000 156.600000 L 265.700000 157.500000 Z"/><path fill="rgb(77, 25, 59)" d=" M 283.900000 175.100000 C 283.400000 168.800000 282.700000 162.600000 281.700000 156.500000 C 281.400000 154.700000 281.100000 152.900000 280.800000 151.000000 C 276.200000 155.500000 271.100000 158.400000 263.300000 158.200000 L 265.700000 157.500000 C 261.200000 158.000000 256.400000 156.000000 252.000000 154.600000 C 251.500000 162.900000 250.600000 171.100000 249.400000 179.300000 C 248.900000 182.900000 248.200000 186.600000 247.500000 190.300000 C 254.900000 191.800000 262.600000 192.300000 269.500000 192.400000 C 274.100000 192.400000 279.700000 192.200000 284.500000 190.500000 C 284.500000 185.400000 284.300000 180.200000 283.900000 175.100000 Z"/><path fill="rgb(64, 227, 144)" d=" M 27.700000 83.800000 C 27.000000 83.800000 26.400000 83.300000 26.300000 82.600000 C 26.200000 81.900000 25.500000 79.300000 26.200000 79.200000 C 40.100000 78.000000 55.200000 74.900000 68.600000 70.000000 C 70.100000 69.500000 71.500000 68.900000 73.000000 68.400000 C 106.100000 56.500000 157.000000 40.700000 190.400000 34.000000 C 191.100000 33.900000 191.800000 34.300000 192.000000 35.100000 C 192.100000 35.800000 191.700000 36.500000 190.900000 36.700000 C 157.600000 43.300000 106.900000 59.100000 73.900000 71.000000 C 72.400000 71.500000 71.000000 72.100000 69.500000 72.600000 C 56.000000 77.400000 42.000000 82.500000 27.700000 83.800000 L 27.700000 83.800000 Z"/><path fill="rgb(64, 227, 144)" d=" M 77.400000 80.400000 C 76.900000 80.400000 76.500000 80.200000 76.200000 79.700000 C 75.800000 79.100000 76.000000 78.200000 76.700000 77.900000 C 79.700000 76.100000 83.100000 74.400000 87.600000 72.300000 C 130.500000 52.400000 161.800000 40.400000 183.500000 35.600000 C 184.200000 35.400000 184.900000 35.900000 185.100000 36.600000 C 185.300000 37.300000 184.800000 38.000000 184.100000 38.200000 C 166.800000 42.000000 143.200000 50.500000 112.400000 64.100000 C 105.000000 67.400000 81.800000 80.700000 78.800000 82.400000 C 78.500000 82.500000 77.600000 80.400000 77.400000 80.400000 Z"/><path fill="rgb(77, 25, 59)" d=" M 15.500000 69.100000 C 13.900000 68.400000 12.100000 68.000000 10.400000 68.400000 C 7.900000 69.000000 6.000000 71.200000 5.600000 73.800000 C 5.200000 76.300000 6.300000 78.900000 8.100000 80.700000 C 10.900000 83.400000 15.100000 84.100000 19.000000 84.300000 C 22.800000 84.500000 30.200000 83.500000 30.200000 83.500000 C 30.200000 83.500000 21.900000 71.700000 15.500000 69.100000 Z"/><path fill="rgb(77, 25, 59)" d=" M 80.200000 98.100000 C 80.300000 98.000000 80.400000 97.900000 80.600000 97.800000 C 83.300000 95.600000 83.700000 91.900000 83.300000 88.600000 C 82.800000 84.500000 79.400000 76.300000 79.400000 76.300000 C 79.400000 76.300000 73.100000 79.400000 69.500000 82.000000 C 65.200000 85.100000 64.100000 90.500000 67.400000 95.100000 C 70.400000 99.300000 75.900000 101.300000 80.200000 98.100000 Z"/><path fill="rgb(224, 42, 91)" d=" M 155.200000 238.900000 C 155.200000 251.800000 154.800000 264.600000 154.000000 277.500000 C 157.900000 277.300000 161.800000 277.200000 165.600000 277.300000 C 164.400000 275.700000 162.700000 274.600000 160.800000 274.100000 C 160.400000 262.700000 160.800000 251.200000 162.000000 239.900000"/><path fill="rgb(224, 42, 91)" d=" M 231.500000 236.500000 C 231.500000 249.400000 231.100000 262.200000 230.300000 275.100000 C 234.200000 274.900000 238.100000 274.800000 241.900000 274.900000 C 240.700000 273.300000 239.000000 272.200000 237.100000 271.700000 C 236.700000 260.300000 237.100000 248.800000 238.300000 237.500000"/><path fill="rgb(147, 0, 45)" d=" M 155.200000 238.900000 C 155.200000 244.100000 155.100000 249.400000 155.000000 254.600000 C 157.000000 254.800000 159.000000 254.800000 161.000000 254.600000 C 161.200000 249.600000 161.600000 244.700000 162.100000 239.800000 L 155.200000 238.900000 Z"/><path fill="rgb(147, 0, 45)" d=" M 231.400000 249.100000 C 233.400000 249.300000 235.400000 249.200000 237.500000 249.000000 C 237.700000 245.100000 238.000000 241.300000 238.500000 237.400000 L 231.600000 236.500000 C 231.500000 240.700000 231.500000 244.900000 231.400000 249.100000 Z"/><path fill="rgb(64, 227, 144)" d=" M 30.500000 219.300000 C 30.100000 219.300000 21.600000 209.200000 20.000000 202.400000 C 18.700000 196.600000 18.800000 189.400000 19.700000 182.300000 C 20.600000 175.400000 22.400000 169.600000 25.000000 164.700000 C 28.200000 158.800000 32.900000 154.200000 38.200000 151.700000 C 38.900000 151.400000 39.700000 151.700000 40.000000 152.300000 C 40.300000 153.000000 40.000000 153.800000 39.400000 154.100000 C 34.600000 156.400000 30.300000 160.600000 27.400000 166.000000 C 24.900000 170.600000 23.300000 176.100000 22.400000 182.700000 C 21.500000 189.500000 21.700000 195.700000 22.900000 201.100000 C 24.400000 207.500000 28.000000 213.000000 35.900000 217.700000 C 36.600000 218.000000 30.900000 219.300000 30.500000 219.300000 Z"/><path fill="rgb(64, 227, 144)" d=" M 30.800000 222.700000 C 19.600000 212.000000 12.500000 198.600000 9.700000 188.900000 C 6.200000 177.200000 6.800000 165.400000 11.300000 155.700000 C 11.600000 155.000000 12.400000 154.700000 13.100000 155.000000 C 13.800000 155.300000 14.100000 156.100000 13.800000 156.800000 C 9.600000 166.000000 9.700000 179.800000 12.100000 187.100000 C 14.400000 194.400000 17.700000 201.100000 23.900000 207.200000 C 24.400000 207.700000 31.100000 223.000000 30.800000 222.700000 Z"/><path fill="rgb(64, 227, 144)" d=" M 143.100000 101.500000 C 140.700000 88.600000 138.700000 76.400000 142.900000 63.600000 C 145.900000 54.500000 151.300000 46.200000 158.500000 39.800000 C 173.000000 26.700000 193.400000 21.400000 212.600000 22.700000 C 218.900000 23.100000 225.200000 24.300000 231.300000 26.100000 C 235.600000 27.400000 239.900000 29.000000 243.900000 31.100000 C 249.100000 33.700000 254.100000 36.700000 257.900000 41.000000 C 265.100000 48.900000 269.300000 56.500000 271.500000 67.200000 C 273.700000 78.400000 274.700000 89.500000 272.000000 100.800000 C 270.000000 109.100000 264.600000 116.400000 264.000000 124.900000 C 263.500000 132.300000 267.200000 138.300000 270.400000 144.500000 C 276.100000 155.700000 274.300000 171.500000 272.300000 183.400000 C 269.400000 200.600000 262.900000 218.000000 251.800000 231.600000 C 246.900000 237.600000 243.400000 243.700000 234.600000 243.900000 C 219.000000 244.300000 203.800000 244.700000 187.400000 245.100000 C 146.200000 246.600000 106.600000 247.200000 65.500000 238.100000 C 50.200000 234.700000 33.800000 229.200000 25.200000 216.100000 C 24.600000 215.300000 23.600000 213.200000 24.000000 212.100000 C 24.900000 209.500000 26.900000 212.000000 28.100000 213.000000 C 29.600000 214.300000 31.300000 215.400000 33.100000 216.300000 C 39.200000 219.300000 43.900000 219.800000 50.700000 219.000000 C 60.500000 217.800000 69.800000 214.500000 77.900000 208.700000 C 90.200000 199.900000 101.500000 189.600000 110.900000 177.700000 C 120.900000 165.100000 127.300000 150.700000 134.300000 136.400000 C 137.600000 129.600000 141.300000 121.800000 143.300000 114.500000 C 144.300000 110.200000 143.900000 105.900000 143.100000 101.500000 Z"/><path fill="rgb(39, 46, 59)" d=" M 181.200000 68.400000 C 181.200000 68.400000 181.000000 68.100000 180.600000 67.500000 C 180.400000 67.200000 180.200000 66.900000 179.900000 66.500000 C 179.600000 66.100000 179.300000 65.700000 179.000000 65.200000 C 178.800000 65.000000 178.700000 64.800000 178.500000 64.500000 C 178.400000 64.400000 178.300000 64.300000 178.200000 64.200000 L 178.100000 64.000000 L 178.100000 64.000000 L 178.100000 64.000000 C 178.100000 64.000000 178.200000 64.100000 178.100000 64.000000 L 178.100000 64.000000 L 178.100000 64.000000 L 178.000000 63.900000 C 177.700000 63.600000 177.600000 63.500000 177.300000 63.400000 C 177.200000 63.300000 177.100000 63.200000 176.900000 63.200000 C 176.800000 63.100000 176.700000 63.100000 176.500000 63.000000 C 176.400000 62.900000 176.200000 62.900000 176.100000 62.800000 C 176.000000 62.800000 175.800000 62.700000 175.700000 62.700000 C 175.600000 62.700000 175.400000 62.700000 175.300000 62.600000 L 175.100000 62.600000 L 175.000000 62.600000 L 175.000000 62.600000 L 175.000000 62.600000 L 175.000000 62.600000 L 175.000000 62.600000 C 175.000000 62.600000 174.900000 62.600000 175.100000 62.600000 C 174.900000 62.600000 174.700000 62.600000 174.500000 62.700000 C 174.400000 62.700000 174.300000 62.800000 174.200000 62.800000 C 174.100000 62.900000 173.900000 62.900000 173.800000 63.000000 C 173.700000 63.100000 173.500000 63.100000 173.400000 63.200000 C 172.900000 63.500000 172.500000 64.000000 172.200000 64.500000 C 172.000000 64.900000 171.900000 65.100000 171.800000 65.400000 C 171.700000 65.700000 171.600000 66.000000 171.500000 66.300000 C 171.400000 66.600000 171.400000 66.900000 171.300000 67.200000 C 171.300000 67.400000 171.300000 67.500000 171.200000 67.700000 L 171.200000 67.900000 L 171.200000 68.000000 L 171.200000 68.100000 L 171.200000 68.100000 C 171.200000 68.200000 171.200000 68.000000 171.200000 68.000000 L 171.200000 68.000000 L 171.200000 68.000000 C 171.200000 68.300000 171.200000 68.700000 171.200000 69.000000 C 171.200000 69.200000 171.200000 69.300000 171.200000 69.500000 C 171.200000 69.600000 171.200000 69.800000 171.200000 69.900000 C 171.200000 70.200000 171.200000 70.400000 171.300000 70.700000 C 171.300000 70.900000 171.400000 71.200000 171.400000 71.400000 C 171.500000 71.800000 171.500000 72.200000 171.600000 72.600000 C 171.800000 73.200000 171.900000 73.600000 171.900000 73.600000 L 171.900000 73.700000 C 172.000000 74.000000 171.800000 74.400000 171.400000 74.500000 C 171.100000 74.600000 170.800000 74.400000 170.700000 74.200000 C 170.700000 74.200000 170.500000 73.800000 170.200000 73.200000 C 170.000000 72.900000 169.900000 72.500000 169.700000 72.000000 C 169.600000 71.800000 169.500000 71.500000 169.400000 71.200000 C 169.300000 70.900000 169.300000 70.600000 169.200000 70.300000 C 169.200000 70.100000 169.100000 70.000000 169.100000 69.800000 C 169.100000 69.600000 169.100000 69.500000 169.000000 69.300000 C 169.000000 69.000000 168.900000 68.700000 168.900000 68.300000 L 168.900000 68.300000 L 168.900000 68.300000 L 168.900000 68.200000 L 168.900000 68.100000 L 168.900000 68.000000 L 168.900000 67.700000 C 168.900000 67.500000 168.900000 67.300000 168.900000 67.100000 C 168.900000 66.700000 169.000000 66.300000 169.000000 65.900000 C 169.100000 65.500000 169.200000 65.100000 169.300000 64.600000 C 169.400000 64.200000 169.700000 63.600000 169.800000 63.300000 C 170.300000 62.400000 170.900000 61.700000 171.700000 61.100000 C 171.900000 60.900000 172.100000 60.800000 172.300000 60.700000 C 172.500000 60.600000 172.800000 60.500000 173.000000 60.400000 C 173.300000 60.300000 173.600000 60.200000 173.800000 60.200000 L 174.400000 60.100000 C 174.600000 60.100000 174.500000 60.100000 174.500000 60.100000 L 174.500000 60.100000 L 174.500000 60.100000 L 174.500000 60.100000 L 174.600000 60.100000 L 174.800000 60.100000 L 175.200000 60.100000 C 175.500000 60.100000 175.700000 60.200000 176.000000 60.200000 C 176.200000 60.300000 176.500000 60.300000 176.700000 60.400000 C 176.900000 60.500000 177.100000 60.600000 177.300000 60.700000 C 177.500000 60.800000 177.700000 60.900000 177.900000 61.100000 C 178.100000 61.200000 178.300000 61.400000 178.400000 61.500000 C 178.700000 61.800000 179.100000 62.100000 179.300000 62.400000 L 179.500000 62.600000 L 179.700000 62.800000 C 179.800000 63.000000 179.900000 63.100000 180.000000 63.300000 C 180.200000 63.600000 180.400000 63.900000 180.500000 64.200000 C 180.800000 64.800000 181.000000 65.300000 181.200000 65.700000 C 181.400000 66.200000 181.600000 66.600000 181.700000 66.900000 C 181.900000 67.600000 182.000000 68.000000 182.000000 68.000000 C 182.100000 68.300000 181.900000 68.700000 181.500000 68.800000 C 181.600000 68.700000 181.400000 68.600000 181.200000 68.400000 L 181.200000 68.400000 Z"/><path fill="rgb(39, 46, 59)" d=" M 259.900000 72.100000 C 259.900000 72.100000 259.900000 70.900000 260.000000 69.200000 C 260.000000 69.100000 260.000000 69.000000 260.000000 68.900000 L 260.000000 68.700000 L 260.000000 68.600000 L 260.000000 68.600000 C 260.000000 68.700000 260.000000 68.600000 260.000000 68.600000 L 260.000000 68.600000 L 260.000000 68.600000 L 260.000000 68.600000 C 260.000000 68.400000 260.000000 68.100000 260.000000 67.900000 C 260.000000 67.400000 260.000000 67.000000 259.900000 66.500000 C 259.800000 66.000000 259.700000 65.600000 259.500000 65.200000 C 259.400000 65.000000 259.400000 65.000000 259.300000 64.900000 C 259.300000 64.800000 259.200000 64.800000 259.100000 64.700000 C 259.000000 64.600000 259.000000 64.500000 258.900000 64.500000 C 258.800000 64.400000 258.800000 64.400000 258.700000 64.300000 C 258.600000 64.200000 258.500000 64.200000 258.500000 64.200000 C 258.400000 64.200000 258.300000 64.100000 258.300000 64.100000 C 258.200000 64.100000 258.100000 64.000000 258.100000 64.000000 L 258.000000 64.000000 L 257.900000 64.000000 L 257.900000 64.000000 L 258.000000 64.000000 L 258.000000 64.000000 L 258.000000 64.000000 L 257.900000 64.000000 L 257.700000 64.000000 C 257.600000 64.000000 257.600000 64.000000 257.600000 64.000000 C 257.600000 64.000000 257.500000 64.000000 257.400000 64.100000 C 257.200000 64.200000 257.000000 64.200000 256.900000 64.300000 C 256.700000 64.400000 256.500000 64.500000 256.400000 64.700000 L 256.300000 64.800000 L 256.300000 64.800000 L 256.300000 64.800000 C 256.300000 64.800000 256.400000 64.700000 256.300000 64.800000 L 256.300000 64.800000 L 256.300000 64.800000 L 256.200000 64.900000 C 256.100000 65.000000 256.000000 65.100000 255.900000 65.200000 C 255.700000 65.400000 255.500000 65.500000 255.400000 65.700000 C 255.300000 65.900000 255.100000 66.000000 255.000000 66.100000 C 254.700000 66.400000 254.500000 66.700000 254.300000 66.900000 C 254.200000 67.000000 254.100000 67.200000 254.000000 67.300000 C 253.900000 67.400000 253.900000 67.500000 253.800000 67.600000 C 253.600000 68.000000 253.400000 68.200000 253.400000 68.200000 L 253.400000 68.300000 C 253.200000 68.600000 252.800000 68.700000 252.500000 68.500000 C 252.300000 68.400000 252.200000 68.100000 252.200000 67.800000 C 252.200000 67.800000 252.300000 67.500000 252.400000 67.000000 C 252.400000 66.900000 252.500000 66.700000 252.500000 66.600000 C 252.600000 66.400000 252.600000 66.300000 252.700000 66.100000 C 252.900000 65.700000 253.000000 65.300000 253.300000 64.900000 C 253.400000 64.700000 253.600000 64.500000 253.700000 64.200000 C 253.900000 64.000000 254.000000 63.800000 254.200000 63.600000 C 254.300000 63.500000 254.400000 63.400000 254.500000 63.300000 L 254.600000 63.200000 L 254.600000 63.200000 L 254.600000 63.200000 L 254.700000 63.100000 L 254.700000 63.100000 L 254.900000 62.900000 C 255.100000 62.700000 255.400000 62.500000 255.700000 62.300000 C 256.000000 62.100000 256.300000 61.900000 256.600000 61.800000 C 256.900000 61.700000 257.500000 61.600000 257.700000 61.600000 C 258.600000 61.600000 259.400000 61.900000 260.100000 62.300000 C 260.300000 62.400000 260.400000 62.500000 260.500000 62.700000 C 260.600000 62.800000 260.800000 63.000000 260.900000 63.100000 C 261.000000 63.200000 261.100000 63.400000 261.200000 63.600000 C 261.300000 63.800000 261.400000 64.000000 261.500000 64.100000 C 261.800000 64.700000 261.900000 65.400000 262.000000 66.100000 C 262.100000 66.700000 262.000000 67.300000 262.000000 67.900000 C 262.000000 68.200000 261.900000 68.400000 261.900000 68.700000 L 261.900000 68.800000 L 261.900000 68.900000 L 261.900000 69.100000 C 261.900000 69.200000 261.900000 69.300000 261.800000 69.400000 C 261.400000 71.100000 261.100000 72.200000 261.100000 72.200000 C 261.000000 72.500000 260.700000 72.700000 260.300000 72.600000 C 260.100000 72.600000 259.900000 72.400000 259.900000 72.100000 Z"/><path fill="rgb(77, 25, 59)" d=" M 37.200000 153.900000 C 39.800000 155.100000 42.400000 156.200000 45.100000 157.300000 C 46.200000 157.800000 47.400000 158.200000 48.600000 158.400000 C 49.900000 158.700000 51.300000 158.700000 52.600000 158.200000 C 56.600000 156.700000 56.600000 149.700000 52.700000 148.200000 C 50.900000 147.500000 48.900000 147.800000 47.000000 148.200000 C 43.000000 149.200000 39.200000 150.900000 35.900000 153.200000 C 36.200000 153.500000 36.700000 153.700000 37.200000 153.900000 Z"/><path fill="rgb(77, 25, 59)" d=" M 23.400000 144.300000 L 23.500000 144.300000 C 24.300000 144.500000 25.100000 144.900000 25.700000 145.500000 C 27.800000 147.200000 28.400000 150.500000 27.000000 152.900000 C 24.700000 156.900000 20.400000 156.400000 16.400000 156.700000 C 14.500000 156.900000 12.600000 156.700000 10.800000 157.000000 C 11.100000 156.200000 15.400000 141.600000 23.400000 144.300000 Z"/><path fill="rgb(224, 42, 91)" d=" M 219.400000 65.700000 C 220.300000 65.200000 221.300000 64.800000 222.300000 64.500000 C 227.400000 62.900000 241.500000 68.500000 244.800000 69.400000 C 252.400000 71.500000 259.700000 74.000000 267.200000 76.200000 C 268.200000 76.500000 268.400000 77.900000 267.500000 78.400000 L 267.500000 78.400000 C 260.400000 82.500000 253.400000 87.000000 246.400000 91.300000 C 243.100000 93.300000 232.900000 100.100000 226.100000 101.000000 C 217.100000 102.100000 211.700000 92.300000 210.600000 84.600000 C 209.800000 77.900000 213.200000 69.200000 219.400000 65.700000 Z"/><path fill="rgb(154, 0, 40)" d=" M 221.700000 75.400000 C 221.700000 75.400000 221.900000 75.500000 222.100000 75.700000 C 222.200000 75.800000 222.400000 75.900000 222.600000 76.000000 C 222.800000 76.100000 223.000000 76.300000 223.300000 76.400000 C 224.400000 77.000000 226.000000 77.800000 228.100000 78.300000 C 230.200000 78.800000 232.700000 79.100000 235.400000 79.000000 C 238.100000 79.000000 241.000000 78.700000 244.000000 78.400000 C 245.500000 78.300000 247.000000 78.100000 248.400000 78.000000 C 249.900000 77.900000 251.300000 77.800000 252.700000 77.700000 C 254.100000 77.600000 255.400000 77.500000 256.700000 77.500000 C 258.000000 77.400000 259.200000 77.400000 260.300000 77.300000 C 261.400000 77.300000 262.400000 77.200000 263.300000 77.100000 C 264.200000 77.000000 265.000000 77.000000 265.600000 76.900000 C 266.900000 76.800000 267.600000 76.800000 267.600000 76.800000 L 267.600000 76.800000 C 267.800000 76.800000 268.100000 77.000000 268.100000 77.200000 C 268.100000 77.400000 267.900000 77.600000 267.700000 77.700000 C 267.700000 77.700000 267.000000 77.800000 265.700000 77.900000 C 265.100000 78.000000 264.300000 78.100000 263.400000 78.200000 C 262.500000 78.300000 261.500000 78.500000 260.400000 78.600000 C 259.300000 78.700000 258.100000 78.900000 256.800000 79.100000 C 255.500000 79.300000 254.200000 79.500000 252.800000 79.700000 C 251.400000 79.900000 250.000000 80.200000 248.600000 80.400000 C 247.200000 80.700000 245.700000 80.900000 244.300000 81.200000 C 242.900000 81.500000 241.400000 81.900000 239.900000 82.200000 C 239.200000 82.300000 238.400000 82.500000 237.700000 82.600000 C 237.000000 82.700000 236.200000 82.800000 235.500000 82.900000 C 234.000000 83.000000 232.600000 82.800000 231.200000 82.500000 C 229.800000 82.200000 228.500000 81.900000 227.400000 81.400000 C 226.200000 80.900000 225.200000 80.400000 224.400000 79.900000 C 223.500000 79.400000 222.900000 78.800000 222.300000 78.400000 C 222.000000 78.200000 221.800000 77.900000 221.600000 77.700000 C 221.500000 77.600000 221.400000 77.500000 221.300000 77.400000 C 221.200000 77.300000 221.200000 77.200000 221.100000 77.200000 C 220.900000 76.900000 220.700000 76.800000 220.700000 76.800000 L 220.600000 76.600000 C 220.300000 76.200000 220.400000 75.700000 220.700000 75.400000 C 221.000000 75.200000 221.400000 75.200000 221.700000 75.400000 Z"/><path fill="rgb(241, 84, 132)" d=" M 230.200000 69.000000 C 229.700000 69.800000 229.900000 71.000000 230.700000 71.500000 C 231.500000 72.000000 232.700000 71.800000 233.200000 71.000000 C 233.500000 70.200000 233.200000 69.200000 232.500000 68.700000 C 231.900000 68.300000 230.800000 68.400000 230.200000 69.000000 Z"/><path fill="rgb(241, 84, 132)" d=" M 223.900000 71.900000 C 225.500000 72.200000 227.200000 71.000000 227.400000 69.400000 C 227.400000 69.100000 227.400000 68.700000 227.300000 68.400000 C 227.000000 67.200000 225.500000 66.500000 224.300000 66.900000 C 223.100000 67.300000 222.300000 68.600000 222.300000 69.900000 C 222.300000 70.200000 222.300000 70.600000 222.500000 70.900000 C 222.700000 71.400000 223.300000 71.700000 223.900000 71.900000 Z"/><path fill="rgb(133, 242, 179)" d=" M 232.500000 203.700000 C 228.600000 200.000000 223.600000 199.600000 218.500000 200.200000 C 215.900000 200.500000 213.300000 201.200000 210.900000 201.800000 C 199.300000 204.800000 189.100000 211.900000 180.700000 220.200000 C 178.000000 222.800000 175.500000 225.600000 173.200000 228.600000 C 172.000000 230.100000 162.600000 241.200000 159.000000 245.900000 C 168.500000 245.800000 178.000000 245.500000 187.600000 245.100000 C 204.000000 244.600000 219.100000 244.300000 234.800000 243.900000 C 234.900000 243.900000 235.000000 243.900000 235.100000 243.900000 C 235.200000 243.400000 235.400000 242.900000 235.600000 242.400000 C 239.100000 231.400000 241.800000 212.700000 232.500000 203.700000 Z"/><path fill="rgb(254, 235, 10)" d=" M 248.800000 170.100000 C 258.000000 163.100000 264.800000 153.100000 269.500000 142.500000 C 266.600000 137.000000 263.700000 131.500000 264.100000 124.900000 C 264.200000 124.100000 264.300000 123.300000 264.400000 122.600000 C 263.600000 123.500000 262.800000 124.300000 262.000000 125.000000 C 256.800000 129.700000 250.000000 131.200000 243.400000 132.800000 C 224.600000 137.500000 203.000000 138.800000 184.600000 133.000000 C 177.800000 130.900000 171.500000 128.500000 165.200000 125.200000 C 157.800000 121.300000 150.100000 117.500000 143.700000 112.000000 C 143.600000 112.800000 143.400000 113.600000 143.200000 114.400000 C 142.100000 118.700000 140.300000 123.100000 138.400000 127.400000 C 144.800000 134.800000 152.400000 141.500000 159.500000 147.700000 C 182.200000 167.900000 219.500000 192.200000 248.800000 170.100000 Z"/><path fill="rgb(77, 25, 59)" d=" M 264.900000 132.000000 C 264.300000 129.700000 264.000000 127.400000 264.100000 124.900000 C 264.300000 122.700000 264.700000 120.500000 265.400000 118.400000 C 248.000000 129.600000 225.100000 130.100000 204.500000 127.800000 C 188.800000 126.100000 173.700000 122.900000 159.200000 116.900000 C 155.000000 115.100000 151.100000 113.100000 147.200000 111.000000 C 146.100000 110.400000 144.700000 111.900000 143.600000 111.300000 C 143.600000 113.100000 143.600000 112.800000 143.200000 114.500000 C 143.000000 115.300000 142.800000 116.100000 142.500000 116.900000 C 146.400000 119.700000 150.300000 122.300000 154.600000 124.500000 C 170.800000 133.000000 189.400000 140.800000 207.700000 142.100000 C 222.700000 143.200000 238.100000 142.200000 252.400000 137.100000 C 256.200000 135.700000 260.700000 134.100000 264.900000 132.000000 Z"/><path fill="rgb(138, 40, 109)" d=" M 144.100000 109.700000 C 138.800000 108.700000 134.400000 114.200000 131.700000 118.000000 C 128.000000 123.300000 124.500000 128.800000 121.400000 134.400000 C 108.200000 158.400000 100.500000 185.600000 97.500000 212.700000 C 96.600000 221.200000 96.300000 229.800000 95.200000 238.300000 C 94.600000 243.100000 93.700000 247.300000 91.500000 251.600000 C 91.200000 252.200000 91.700000 253.000000 92.400000 252.900000 C 93.900000 252.700000 95.700000 252.100000 96.700000 251.700000 C 102.000000 249.200000 101.900000 241.100000 106.600000 238.200000 C 107.000000 237.900000 107.600000 238.300000 107.500000 238.800000 C 107.000000 241.400000 106.700000 246.900000 106.600000 247.800000 C 106.500000 250.500000 106.900000 253.300000 108.200000 255.700000 C 108.500000 256.300000 109.400000 256.400000 109.700000 255.800000 C 111.000000 253.400000 111.800000 250.800000 112.700000 248.200000 C 113.700000 245.100000 114.700000 242.000000 116.500000 239.400000 C 118.100000 237.200000 120.400000 235.300000 123.000000 234.600000 C 123.700000 234.400000 124.300000 235.000000 124.200000 235.700000 C 123.600000 240.300000 123.500000 244.400000 124.200000 249.100000 C 124.400000 250.200000 124.700000 251.700000 125.300000 252.900000 C 125.700000 253.600000 126.700000 253.500000 127.000000 252.700000 C 128.100000 248.700000 129.600000 244.600000 130.700000 240.600000 C 131.800000 236.500000 136.400000 223.200000 142.900000 228.700000 C 144.700000 230.300000 144.700000 232.700000 144.900000 234.900000 C 145.100000 237.400000 145.400000 240.000000 145.200000 242.500000 C 145.100000 243.300000 146.000000 243.900000 146.700000 243.400000 C 150.100000 241.300000 151.900000 234.900000 151.800000 231.700000 C 151.700000 223.900000 152.000000 216.100000 151.800000 208.200000 C 151.400000 195.700000 150.100000 183.300000 147.900000 171.000000 C 145.800000 159.000000 145.200000 146.000000 147.300000 134.000000 C 148.500000 127.200000 155.600000 115.800000 147.100000 110.900000 C 146.100000 110.300000 145.100000 109.900000 144.100000 109.700000 Z"/><path fill="rgb(77, 25, 59)" d=" M 145.200000 197.300000 C 146.500000 197.000000 148.700000 196.700000 151.100000 196.300000 C 150.400000 187.800000 149.400000 179.400000 147.900000 171.100000 C 147.400000 168.500000 147.000000 165.800000 146.700000 163.100000 C 142.900000 163.100000 138.900000 162.200000 136.100000 161.600000 C 127.600000 159.800000 119.900000 155.300000 114.400000 148.800000 C 107.700000 163.900000 103.000000 180.000000 100.000000 196.200000 C 101.700000 197.100000 103.400000 197.900000 105.000000 198.300000 C 118.000000 201.600000 132.200000 200.300000 145.200000 197.300000 Z"/></svg>