<?xml version="1.0" standalone="no"?><!DOCTYPE svg PUBLIC "-//W3C//DTD SVG 1.1//EN" "http://www.w3.org/Graphics/SVG/1.1/DTD/svg11.dtd"><svg id="Chillanna0.svg" width="172.5" height="172.5" version="1.1" viewBox="0 0 300 300" xmlns="http://www.w3.org/2000/svg" xmlns:xlink="http://www.w3.org/1999/xlink"><defs xmlns="http://www.w3.org/1999/xhtml"><style type="text/css"><![CDATA[
* { border: 0px; margin: 0px; padding: 0px; }
html { background-color: rgb(255, 255, 255); font-family: Verdana, Arial; }
.webgl-content * { position: absolute; width: 100%; height: 100%; user-select: none; }
.webgl-content .logo, .progress { position: absolute; left: 50%; top: 50%; transform: translate(-50%, -50%); }
.webgl-content .logo { background: url("progressLogo.Light.png") center center / contain no-repeat; width: 154px; height: 130px; }
.webgl-content .progress { height: 18px; width: 141px; margin-top: 90px; }
.webgl-content .progress .empty { background: url("progressEmpty.Light.png") right center / cover no-repeat; float: right; width: 100%; height: 100%; display: inline-block; }
.webgl-content .progress .full { background: url("progressFull.Light.png") left center / cover no-repeat; float: left; width: 0%; height: 100%; display: inline-block; }
.webgl-content .logo.Dark { background-image: url("progressLogo.Dark.png"); }
.webgl-content .progress.Dark .empty { background-image: url("progressEmpty.Dark.png"); }
.webgl-content .progress.Dark .full { background-image: url("progressFull.Dark.png"); }
#loading-content { z-index: 10000; position: fixed; width: 100%; height: 100%; left: 0px; top: 0px; overflow: hidden; background: url("background.png"); }
.hud-intro .hud-intro-social .btn-discord, .hud-respawn .hud-respawn-social .btn-discord { background-image: url("//lordz.io/images/discord-icon.png"); }
.hud-intro .hud-intro-social .btn-twitter, .hud-respawn .hud-respawn-social .btn-twitter { background-image: url("//lordz.io/images/twitter-icon.png"); }
.hud-intro .hud-intro-social .btn-facebook, .hud-respawn .hud-respawn-social .btn-facebook { background-image: url("//lordz.io/images/facebook-icon.png"); }
.hud-intro .hud-intro-social .btn-youtube, .hud-respawn .hud-respawn-social .btn-youtube { background-image: url("//lordz.io/images/youtube-icon.png"); }
* { box-sizing: border-box; user-select: none; }
.btn { position: relative; display: inline-block; top: 0px; height: 36px; line-height: 36px; padding: 0px 20px; background: rgb(68, 68, 68); color: rgb(238, 238, 238); border: 0px; font-size: 14px; vertical-align: top; text-align: center; text-decoration: none; text-shadow: rgba(0, 0, 0, 0.4) 0px 1px 0px; box-shadow: rgba(0, 0, 0, 0.2) 0px 2px 10px, rgb(51, 51, 51) 0px 4px 0px; border-radius: 4px; transition: all 0.15s ease-in-out 0s; }
.btn:hover, .btn:active { background-color: rgb(85, 85, 85); color: rgb(255, 255, 255); }
.btn:active { top: 4px; box-shadow: rgba(0, 0, 0, 0.2) 0px 2px 10px !important; }
.btn-green { background-color: rgb(71, 149, 13); box-shadow: rgba(0, 0, 0, 0.2) 0px 2px 10px, rgb(53, 131, 0) 0px 4px 0px; }
.btn-green:hover, .btn-green:active { background-color: rgb(100, 184, 32); }
.btn-red { background-color: rgb(179, 53, 60); box-shadow: rgba(0, 0, 0, 0.2) 0px 2px 10px, rgb(161, 35, 42) 0px 4px 0px; }
.btn-red:hover, .btn-red:active { background-color: rgb(203, 87, 91); }
.btn-blue { background-color: rgb(29, 141, 238); box-shadow: rgba(0, 0, 0, 0.2) 0px 2px 10px, rgb(11, 123, 220) 0px 4px 0px; }
.btn-blue:hover, .btn-blue:active { background-color: rgb(79, 167, 238); }
.btn-purple { background-color: rgb(114, 55, 228); box-shadow: rgba(0, 0, 0, 0.2) 0px 2px 10px, rgb(96, 37, 210) 0px 4px 0px; }
.btn-purple:hover, .btn-purple:active { background-color: rgb(130, 89, 228); }
.btn-twitter { background-color: rgb(27, 149, 224); box-shadow: rgba(0, 0, 0, 0.2) 0px 2px 10px, rgb(9, 131, 206) 0px 4px 0px; }
.btn-twitter:hover, .btn-twitter:active { background-color: rgb(12, 122, 191); }
.btn-facebook { background-color: rgb(66, 103, 178); box-shadow: rgba(0, 0, 0, 0.2) 0px 2px 10px, rgb(48, 85, 160) 0px 4px 0px; }
.btn-facebook:hover, .btn-facebook:active { background-color: rgb(54, 88, 153); }
.btn-google { background-color: rgb(221, 75, 57); box-shadow: rgba(0, 0, 0, 0.2) 0px 2px 10px, rgb(203, 57, 39) 0px 4px 0px; }
.btn-google:hover, .btn-google:active { background-color: rgb(186, 63, 49); }
.btn-discord { background-color: rgb(114, 137, 218); box-shadow: rgba(0, 0, 0, 0.2) 0px 2px 10px, rgb(96, 119, 200) 0px 4px 0px; }
.btn-discord:hover, .btn-discord:active { background-color: rgb(90, 109, 176); }
.btn-youtube { background-color: rgb(229, 45, 39); box-shadow: rgba(0, 0, 0, 0.2) 0px 2px 10px, rgb(211, 27, 21) 0px 4px 0px; }
.btn-youtube:hover, .btn-youtube:active { background-color: rgb(186, 37, 33); }
.hud { position: fixed; top: 0px; left: 0px; bottom: 0px; right: 0px; }
.hud .hud-bottom-left { display: flex; position: absolute; bottom: 20px; left: 20px; flex-direction: column-reverse; }
.hud-intro .hud-intro-corner-bottom-left, .hud-respawn .hud-respawn-corner-bottom-left { position: fixed; bottom: 20px; left: 20px; text-align: left; }
.hud-intro .hud-intro-social, .hud-respawn .hud-respawn-social { width: 240px; line-height: 24px; font-size: 14px; color: rgb(119, 119, 119); }
.hud-intro .hud-intro-social .btn, .hud-respawn .hud-respawn-social .btn { display: block; float: left; margin: 0px 10px 0px 0px; width: 40px; height: 40px; line-height: 40px; background-size: 24px; background-position: center center; background-repeat: no-repeat; }
.hud-intro .hud-intro-more-games { position: relative; bottom: 5px; line-height: 20px; font-size: 14px; color: rgba(255, 255, 255, 0.4); text-shadow: rgba(0, 0, 0, 0.2) 0px 1px 3px; }
.hud-intro .hud-intro-more-games a { display: inline-block; padding: 0px 20px; line-height: 40px; background: rgb(132, 115, 212); color: rgb(238, 238, 238); text-decoration: none; border-radius: 4px; transition: all 0.15s ease-in-out 0s; }
.hud-intro .hud-intro-more-games a:hover, .hud-intro .hud-intro-more-games a:active { background: rgb(103, 90, 166); }
#preroll video { left: 0px; top: 0px; }
.fb_hidden { position: absolute; top: -10000px; z-index: 10001; }
.fb_reposition { overflow: hidden; position: relative; }
.fb_invisible { display: none; }
.fb_reset { background: none; border: 0px; border-spacing: 0px; color: rgb(0, 0, 0); cursor: auto; direction: ltr; font-family: "lucida grande", tahoma, verdana, arial, sans-serif; font-size: 11px; font-style: normal; font-variant: normal; font-weight: normal; letter-spacing: normal; line-height: 1; margin: 0px; overflow: visible; padding: 0px; text-align: left; text-decoration: none; text-indent: 0px; text-shadow: none; text-transform: none; visibility: visible; white-space: normal; word-spacing: normal; }
.fb_animate { animation: 0.3s ease 0s 1 normal forwards running fb_transform; }
.fb_dialog { background: rgba(82, 82, 82, 0.7); position: absolute; top: -10000px; z-index: 10001; }
.fb_dialog_advanced { border-radius: 8px; padding: 10px; }
.fb_dialog_content { background: rgb(255, 255, 255); color: rgb(55, 55, 55); }
.fb_dialog_close_icon { background: url("https://static.xx.fbcdn.net/rsrc.php/v3/yq/r/IE9JII6Z1Ys.png") 0px 0px no-repeat scroll transparent; cursor: pointer; display: block; height: 15px; position: absolute; right: 18px; top: 17px; width: 15px; }
.fb_dialog_mobile .fb_dialog_close_icon { left: 5px; right: auto; top: 5px; }
.fb_dialog_padding { background-color: transparent; position: absolute; width: 1px; z-index: -1; }
.fb_dialog_close_icon:hover { background: url("https://static.xx.fbcdn.net/rsrc.php/v3/yq/r/IE9JII6Z1Ys.png") 0px -15px no-repeat scroll transparent; }
.fb_dialog_close_icon:active { background: url("https://static.xx.fbcdn.net/rsrc.php/v3/yq/r/IE9JII6Z1Ys.png") 0px -30px no-repeat scroll transparent; }
.fb_dialog_iframe { line-height: 0; }
.fb_dialog_content .dialog_title { background: rgb(109, 132, 180); border: 1px solid rgb(54, 88, 153); color: rgb(255, 255, 255); font-size: 14px; font-weight: bold; margin: 0px; }
body.fb_hidden { height: 100%; left: 0px; margin: 0px; overflow: visible; position: absolute; top: -10000px; transform: none; width: 100%; }
.fb_dialog.fb_dialog_mobile.loading { background: url("https://static.xx.fbcdn.net/rsrc.php/v3/ya/r/3rhSv5V8j3o.gif") 50% 50% no-repeat white; min-height: 100%; min-width: 100%; overflow: hidden; position: absolute; top: 0px; z-index: 10001; }
.fb_dialog.fb_dialog_mobile.loading.centered { background: none; height: auto; min-height: initial; min-width: initial; width: auto; }
.fb_dialog.fb_dialog_mobile.loading.centered #fb_dialog_loader_spinner { width: 100%; }
.fb_dialog.fb_dialog_mobile.loading.centered .fb_dialog_content { background: none; }
.loading.centered #fb_dialog_loader_close { clear: both; color: rgb(255, 255, 255); display: block; font-size: 18px; padding-top: 20px; }
#fb-root #fb_dialog_ipad_overlay { background: rgba(0, 0, 0, 0.4); bottom: 0px; left: 0px; min-height: 100%; position: absolute; right: 0px; top: 0px; width: 100%; z-index: 10000; }
#fb-root #fb_dialog_ipad_overlay.hidden { display: none; }
.fb_dialog.fb_dialog_mobile.loading iframe { visibility: hidden; }
.fb_dialog_mobile .fb_dialog_iframe { position: sticky; top: 0px; }
.fb_dialog_content .dialog_header { border-bottom: 1px solid rgb(4, 59, 135); border-top-color: rgb(4, 59, 135); border-right-color: rgb(4, 59, 135); border-left-color: rgb(4, 59, 135); box-shadow: white 0px 1px 1px -1px inset; color: rgb(255, 255, 255); font: bold 14px Helvetica, sans-serif; text-overflow: ellipsis; text-shadow: rgba(0, 30, 84, 0.298) 0px -1px 0px; vertical-align: middle; white-space: nowrap; }
.fb_dialog_content .dialog_header table { height: 43px; width: 100%; }
.fb_dialog_content .dialog_header td.header_left { font-size: 12px; padding-left: 5px; vertical-align: middle; width: 60px; }
.fb_dialog_content .dialog_header td.header_right { font-size: 12px; padding-right: 5px; vertical-align: middle; width: 60px; }
.fb_dialog_content .touchable_button { background-clip: padding-box; border: 1px solid rgb(41, 72, 125); border-radius: 3px; display: inline-block; line-height: 18px; margin-top: 3px; max-width: 85px; padding: 4px 12px; position: relative; }
.fb_dialog_content .dialog_header .touchable_button input { background: none; border: none; color: rgb(255, 255, 255); font: bold 12px Helvetica, sans-serif; margin: 2px -12px; padding: 2px 6px 3px; text-shadow: rgba(0, 30, 84, 0.298) 0px -1px 0px; }
.fb_dialog_content .dialog_header .header_center { color: rgb(255, 255, 255); font-size: 16px; font-weight: bold; line-height: 18px; text-align: center; vertical-align: middle; }
.fb_dialog_content .dialog_content { background: url("https://static.xx.fbcdn.net/rsrc.php/v3/y9/r/jKEcVPZFk-2.gif") 50% 50% no-repeat; border-width: 0px 1px; border-right-style: solid; border-left-style: solid; border-right-color: rgb(74, 74, 74); border-left-color: rgb(74, 74, 74); border-image: initial; border-bottom-style: initial; border-bottom-color: initial; border-top-style: initial; border-top-color: initial; height: 150px; }
.fb_dialog_content .dialog_footer { background: rgb(245, 246, 247); border-width: 1px; border-style: solid; border-color: rgb(204, 204, 204) rgb(74, 74, 74) rgb(74, 74, 74); border-image: initial; height: 40px; }
#fb_dialog_loader_close { float: left; }
.fb_dialog.fb_dialog_mobile .fb_dialog_close_button { text-shadow: rgba(0, 30, 84, 0.298) 0px -1px 0px; }
.fb_dialog.fb_dialog_mobile .fb_dialog_close_icon { visibility: hidden; }
#fb_dialog_loader_spinner { animation: 1.2s linear 0s infinite normal none running rotateSpinner; background-color: transparent; background-image: url("https://static.xx.fbcdn.net/rsrc.php/v3/yD/r/t-wz8gw1xG1.png"); background-position: 50% 50%; background-repeat: no-repeat; height: 24px; width: 24px; }
.fb_iframe_widget { display: inline-block; position: relative; }
.fb_iframe_widget span { display: inline-block; position: relative; text-align: justify; }
.fb_iframe_widget iframe { position: absolute; }
.fb_iframe_widget_fluid_desktop, .fb_iframe_widget_fluid_desktop span, .fb_iframe_widget_fluid_desktop iframe { max-width: 100%; }
.fb_iframe_widget_fluid_desktop iframe { min-width: 220px; position: relative; }
.fb_iframe_widget_lift { z-index: 1; }
.fb_iframe_widget_fluid { display: inline; }
.fb_iframe_widget_fluid span { width: 100%; }
.st0 { fill: rgb(119, 183, 73); }
.st1 { fill: rgb(247, 175, 47); }
.st2 { fill: rgb(233, 81, 15); }
.st3 { fill: url("#SVGID_1_"); }
.st4 { fill: url("#SVGID_2_"); }
.st5 { fill: rgb(252, 242, 119); }
.st6 { fill: url("#SVGID_3_"); }
.st7 { fill: url("#SVGID_4_"); }
.st8 { fill: url("#SVGID_5_"); }
.st9 { fill: url("#SVGID_6_"); }
.st10 { fill: url("#SVGID_7_"); }
.st11 { fill: url("#SVGID_8_"); }
.st12 { fill: url("#SVGID_9_"); }
.st13 { fill: url("#SVGID_10_"); }
.st14 { fill: url("#SVGID_11_"); }
.st15 { fill: url("#SVGID_12_"); }
.st16 { fill: url("#SVGID_13_"); }
.st17 { fill: url("#SVGID_14_"); }
.st18 { fill: url("#SVGID_15_"); }
.st19 { fill: url("#SVGID_16_"); }
.st0 { fill: rgb(119, 183, 73); }
.st1 { fill: rgb(247, 175, 47); }
.st2 { fill: rgb(233, 81, 15); }
.st3 { fill: url("#SVGID_1_"); }
.st4 { fill: url("#SVGID_2_"); }
.st5 { fill: rgb(252, 242, 119); }
.st6 { fill: url("#SVGID_3_"); }
.st7 { fill: url("#SVGID_4_"); }
.st8 { fill: url("#SVGID_5_"); }
.st9 { fill: url("#SVGID_6_"); }
.st10 { fill: url("#SVGID_7_"); }
.st11 { fill: url("#SVGID_8_"); }
.st12 { fill: url("#SVGID_9_"); }
.st13 { fill: url("#SVGID_10_"); }
.st14 { fill: url("#SVGID_11_"); }
.st15 { fill: url("#SVGID_12_"); }
.st16 { fill: url("#SVGID_13_"); }
.st17 { fill: url("#SVGID_14_"); }
.st18 { fill: url("#SVGID_15_"); }
.st19 { fill: url("#SVGID_16_"); }
.st0 { fill: rgb(119, 183, 73); }
.st1 { fill: rgb(247, 175, 47); }
.st2 { fill: rgb(233, 81, 15); }
.st3 { fill: url("#SVGID_1_"); }
.st4 { fill: url("#SVGID_2_"); }
.st5 { fill: rgb(252, 242, 119); }
.st6 { fill: url("#SVGID_3_"); }
.st7 { fill: url("#SVGID_4_"); }
.st8 { fill: url("#SVGID_5_"); }
.st9 { fill: url("#SVGID_6_"); }
.st10 { fill: url("#SVGID_7_"); }
.st11 { fill: url("#SVGID_8_"); }
.st12 { fill: url("#SVGID_9_"); }
.st13 { fill: url("#SVGID_10_"); }
.st14 { fill: url("#SVGID_11_"); }
.st15 { fill: url("#SVGID_12_"); }
.st16 { fill: url("#SVGID_13_"); }
.st17 { fill: url("#SVGID_14_"); }
.st18 { fill: url("#SVGID_15_"); }
.st19 { fill: url("#SVGID_16_"); }
.st0 { fill: rgb(119, 183, 73); }
.st1 { fill: rgb(247, 175, 47); }
.st2 { fill: rgb(233, 81, 15); }
.st3 { fill: url("#SVGID_1_"); }
.st4 { fill: url("#SVGID_2_"); }
.st5 { fill: rgb(252, 242, 119); }
.st6 { fill: url("#SVGID_3_"); }
.st7 { fill: url("#SVGID_4_"); }
.st8 { fill: url("#SVGID_5_"); }
.st9 { fill: url("#SVGID_6_"); }
.st10 { fill: url("#SVGID_7_"); }
.st11 { fill: url("#SVGID_8_"); }
.st12 { fill: url("#SVGID_9_"); }
.st13 { fill: url("#SVGID_10_"); }
.st14 { fill: url("#SVGID_11_"); }
.st15 { fill: url("#SVGID_12_"); }
.st16 { fill: url("#SVGID_13_"); }
.st17 { fill: url("#SVGID_14_"); }
.st18 { fill: url("#SVGID_15_"); }
.st19 { fill: url("#SVGID_16_"); }]]></style></defs><path fill="rgb(159, 125, 43)" d=" M 166.530000 242.260000 L 161.430000 284.770000 L 180.390000 283.770000 L 180.700000 242.570000 L 166.530000 242.260000 Z"/><path fill="rgb(130, 26, 47)" d=" M 161.050000 261.000000 C 161.050000 261.000000 176.590000 259.940000 182.990000 262.070000 L 182.230000 281.720000 L 190.910000 285.530000 L 191.060000 287.510000 L 154.500000 287.510000 C 154.500000 287.510000 158.770000 266.030000 161.050000 261.000000 Z"/><path fill="rgb(159, 125, 43)" d=" M 123.260000 243.060000 L 118.770000 284.770000 L 137.730000 283.770000 L 137.730000 243.480000 L 123.260000 243.060000 Z"/><path fill="rgb(130, 26, 47)" d=" M 118.400000 261.000000 C 118.400000 261.000000 133.930000 259.940000 140.330000 262.070000 L 139.570000 281.720000 L 148.250000 285.530000 L 148.410000 287.510000 L 111.840000 287.510000 C 111.840000 287.510000 116.110000 266.030000 118.400000 261.000000 Z"/><path fill="rgb(231, 41, 79)" d=" M 86.870000 63.520000 C 79.180000 88.120000 82.600000 116.930000 92.880000 155.040000 L 106.090000 153.330000 L 104.810000 144.810000 L 108.640000 152.480000 C 108.640000 152.480000 115.460000 154.180000 122.280000 151.200000 C 129.100000 148.220000 124.640000 150.210000 124.640000 150.210000 L 123.130000 144.810000 L 126.120000 148.640000 C 126.120000 148.640000 176.400000 146.940000 191.750000 141.830000 L 191.320000 136.710000 L 194.300000 140.550000 C 194.300000 140.550000 203.680000 139.270000 210.920000 136.280000 L 210.070000 130.750000 L 213.480000 135.010000 C 213.480000 135.010000 213.050000 136.290000 220.720000 133.300000 C 220.720000 133.300000 201.670000 99.120000 199.970000 65.880000 C 199.970000 65.880000 192.170000 23.350000 146.570000 21.220000 C 100.970000 19.090000 91.150000 49.840000 86.870000 63.520000 Z"/><path fill="rgb(252, 204, 88)" d=" M 117.170000 106.880000 C 117.170000 106.880000 130.380000 142.680000 156.800000 141.400000 C 183.220000 140.120000 196.010000 104.320000 196.860000 79.610000 C 196.860000 79.610000 189.620000 43.380000 149.130000 47.220000 C 108.650000 51.050000 106.090000 79.180000 117.170000 106.880000 Z"/><path fill="rgb(231, 41, 79)" d=" M 108.980000 83.610000 C 108.980000 83.610000 117.490000 87.320000 120.590000 80.850000 C 120.590000 80.850000 147.630000 92.090000 189.420000 79.700000 L 184.920000 74.870000 C 184.920000 74.870000 195.810000 75.690000 198.830000 73.930000 C 198.830000 73.930000 184.930000 28.360000 152.070000 27.220000 C 119.210000 26.070000 104.320000 54.480000 108.980000 83.610000 Z"/><path fill="rgb(103, 239, 182)" d=" M 120.660000 80.440000 C 127.250000 87.330000 129.960000 100.180000 126.720000 109.140000 C 123.490000 118.110000 115.530000 119.790000 108.940000 112.900000 C 102.360000 106.010000 99.650000 93.160000 102.880000 84.200000 C 106.120000 75.240000 114.080000 73.560000 120.660000 80.440000 Z"/><path fill="rgb(255, 255, 255)" d=" M 152.360000 116.620000 L 181.070000 114.590000 C 181.070000 114.590000 171.280000 139.930000 152.360000 116.620000 Z"/><path fill="rgb(130, 26, 47)" d=" M 142.370000 94.360000 C 143.750000 96.200000 143.750000 99.200000 142.370000 101.040000 C 140.980000 102.890000 138.740000 102.890000 137.350000 101.040000 C 135.960000 99.200000 135.960000 96.200000 137.350000 94.360000 C 138.740000 92.510000 140.980000 92.510000 142.370000 94.360000 Z"/><path fill="rgb(130, 26, 47)" d=" M 188.510000 88.800000 C 189.900000 90.650000 189.900000 93.640000 188.510000 95.490000 C 187.130000 97.340000 184.880000 97.340000 183.500000 95.490000 C 182.110000 93.640000 182.110000 90.650000 183.500000 88.800000 C 184.880000 86.950000 187.130000 86.950000 188.510000 88.800000 Z"/><path fill="rgb(254, 227, 160)" d=" M 164.270000 92.000000 L 167.850000 110.440000 L 174.220000 107.260000 L 170.670000 104.300000 L 169.130000 90.810000 L 164.270000 92.000000 Z"/><path fill="rgb(251, 150, 88)" d=" M 141.410000 111.910000 C 143.330000 114.330000 143.330000 118.250000 141.410000 120.670000 C 139.490000 123.090000 136.380000 123.090000 134.460000 120.670000 C 132.540000 118.250000 132.540000 114.330000 134.460000 111.910000 C 136.380000 109.490000 139.490000 109.490000 141.410000 111.910000 Z"/><path fill="rgb(251, 150, 88)" d=" M 188.420000 108.210000 C 189.510000 109.960000 189.510000 112.790000 188.420000 114.540000 C 187.320000 116.290000 185.550000 116.290000 184.450000 114.540000 C 183.360000 112.790000 183.360000 109.960000 184.450000 108.210000 C 185.550000 106.460000 187.320000 106.460000 188.420000 108.210000 Z"/><path fill="rgb(103, 239, 182)" d=" M 135.340000 39.960000 C 145.940000 31.530000 156.060000 25.270000 176.270000 30.180000 C 168.290000 23.130000 162.470000 21.960000 146.570000 21.220000 C 145.790000 21.180000 145.040000 21.180000 144.270000 21.160000 C 137.920000 22.950000 132.230000 25.820000 127.250000 29.780000 C 104.240000 48.090000 105.700000 82.390000 105.770000 83.840000 L 118.760000 83.190000 C 118.740000 82.900000 117.500000 54.150000 135.340000 39.960000 Z"/><path fill="rgb(200, 93, 124)" d=" M 180.450000 150.930000 L 201.480000 174.130000 L 208.000000 170.140000 L 219.960000 190.440000 C 219.960000 190.440000 212.710000 201.670000 205.460000 203.480000 C 205.460000 203.480000 181.180000 194.420000 178.280000 186.450000 L 180.450000 150.930000 Z"/><path fill="rgb(130, 26, 47)" d=" M 203.650000 170.500000 C 203.650000 170.500000 204.730000 190.800000 219.590000 196.230000 C 219.590000 196.230000 242.790000 172.310000 244.960000 161.800000 L 236.630000 150.570000 L 232.640000 152.380000 L 233.370000 148.760000 L 229.020000 146.220000 C 229.020000 146.220000 222.490000 153.110000 221.410000 154.920000 L 219.590000 150.930000 L 215.610000 154.190000 C 215.610000 154.190000 215.970000 155.640000 217.060000 158.910000 L 203.650000 170.500000 Z"/><path fill="rgb(235, 192, 202)" d=" M 124.640000 150.210000 C 124.640000 150.210000 111.240000 228.850000 118.120000 251.680000 L 158.710000 255.670000 L 164.150000 238.270000 L 165.600000 255.310000 C 165.600000 255.310000 179.010000 254.580000 185.170000 252.770000 L 184.440000 142.600000 L 124.640000 150.210000 Z"/><path fill="rgb(200, 93, 124)" d=" M 126.820000 150.210000 L 126.090000 134.620000 C 126.090000 134.620000 172.120000 128.100000 181.900000 133.540000 L 179.730000 148.760000 C 179.730000 148.760000 151.460000 151.660000 127.900000 149.850000"/><path fill="rgb(200, 93, 124)" d=" M 166.500000 159.120000 C 168.310000 161.630000 168.310000 165.680000 166.500000 168.190000 C 164.680000 170.690000 161.740000 170.690000 159.920000 168.190000 C 158.110000 165.680000 158.110000 161.630000 159.920000 159.120000 C 161.740000 156.620000 164.680000 156.620000 166.500000 159.120000 Z"/><path fill="rgb(200, 93, 124)" d=" M 169.010000 188.780000 C 170.820000 191.280000 170.820000 195.340000 169.010000 197.840000 C 167.190000 200.350000 164.250000 200.350000 162.430000 197.840000 C 160.620000 195.340000 160.620000 191.280000 162.430000 188.780000 C 164.250000 186.280000 167.190000 186.280000 169.010000 188.780000 Z"/><path fill="rgb(200, 93, 124)" d=" M 168.250000 216.930000 C 170.070000 219.430000 170.070000 223.490000 168.250000 225.990000 C 166.440000 228.500000 163.500000 228.500000 161.680000 225.990000 C 159.860000 223.490000 159.860000 219.430000 161.680000 216.930000 C 163.500000 214.430000 166.440000 214.430000 168.250000 216.930000 Z"/><path fill="rgb(130, 26, 47)" d=" M 68.880000 208.640000 C 70.100000 211.920000 68.470000 215.660000 65.230000 217.000000 C 62.000000 218.330000 58.390000 216.760000 57.170000 213.480000 C 55.950000 210.200000 57.580000 206.460000 60.810000 205.120000 C 64.050000 203.790000 67.660000 205.360000 68.880000 208.640000 Z"/><path fill="rgb(130, 26, 47)" d=" M 122.680000 247.320000 C 123.900000 250.600000 122.270000 254.340000 119.030000 255.680000 C 115.800000 257.010000 112.190000 255.440000 110.970000 252.160000 C 109.750000 248.880000 111.380000 245.140000 114.610000 243.800000 C 117.850000 242.470000 121.460000 244.040000 122.680000 247.320000 Z"/><path fill="rgb(234, 119, 21)" d=" M 152.400000 224.370000 C 160.960000 230.450000 162.680000 242.720000 156.240000 251.770000 L 156.240000 251.770000 C 149.810000 260.830000 137.650000 263.240000 129.090000 257.160000 L 53.720000 203.590000 C 45.160000 197.510000 43.440000 185.240000 49.870000 176.180000 L 49.870000 176.180000 C 56.310000 167.130000 68.460000 164.720000 77.020000 170.800000 L 152.400000 224.370000 Z"/><path fill="rgb(252, 204, 88)" d=" M 54.120000 171.750000 C 52.540000 172.970000 51.100000 174.460000 49.870000 176.180000 C 49.500000 176.710000 49.160000 177.250000 48.840000 177.800000 L 154.080000 254.330000 C 154.850000 253.550000 155.580000 252.700000 156.240000 251.770000 C 157.170000 250.460000 157.910000 249.080000 158.510000 247.660000 L 54.120000 171.750000 Z"/><path fill="rgb(200, 93, 124)" d=" M 126.820000 156.730000 C 126.820000 156.730000 99.270000 197.680000 92.030000 219.060000 C 92.030000 219.060000 107.610000 226.680000 107.610000 225.590000 C 107.610000 224.500000 122.110000 199.490000 141.680000 185.000000 C 141.680000 185.000000 142.040000 158.540000 126.820000 156.730000 Z"/><path fill="rgb(130, 26, 47)" d=" M 88.040000 225.230000 C 88.040000 225.230000 92.030000 194.780000 103.260000 185.000000 C 103.260000 185.000000 120.660000 197.690000 125.370000 206.380000 L 108.700000 228.130000 C 108.700000 228.130000 109.790000 233.200000 108.340000 235.740000 C 106.890000 238.270000 107.250000 236.460000 107.250000 236.460000 L 105.070000 232.840000 L 103.260000 239.000000 L 98.190000 237.550000 L 96.740000 234.290000 L 95.290000 236.460000 C 95.290000 236.460000 89.490000 233.560000 86.950000 232.110000 L 88.040000 225.230000 Z"/></svg>