<svg id="Astro0.svg" width="187.5" height="187.5" version="1.1" viewBox="0 0 300 300" xmlns="http://www.w3.org/2000/svg"><path fill="rgb(226, 30, 28)" d=" M 171.930000 143.030000 C 173.260000 142.660000 201.610000 146.780000 213.890000 123.810000 C 226.180000 100.850000 220.740000 101.870000 220.740000 101.870000 L 206.920000 98.520000 C 206.920000 98.520000 208.260000 131.100000 169.740000 126.440000 L 171.930000 143.030000 Z"></path><path fill="rgb(253, 179, 25)" d=" M 204.180000 100.710000 L 196.100000 112.960000 C 196.100000 112.960000 200.980000 125.460000 219.950000 125.010000 L 223.930000 104.810000 L 204.180000 100.710000 Z"></path><path fill="rgb(253, 179, 25)" d=" M 204.180000 100.710000 C 204.180000 100.710000 199.780000 90.100000 202.450000 89.250000 C 203.460000 88.930000 205.970000 91.620000 205.970000 91.620000 C 205.970000 91.620000 209.380000 82.700000 212.750000 83.470000 C 214.380000 83.840000 214.510000 90.270000 214.510000 90.270000 C 214.510000 90.270000 216.900000 82.620000 220.120000 85.810000 C 220.860000 86.540000 220.020000 91.920000 220.020000 91.920000 C 220.020000 91.920000 222.310000 86.590000 225.190000 87.680000 C 227.350000 88.490000 227.480000 95.970000 223.930000 104.810000 C 223.930000 104.810000 213.730000 107.630000 204.180000 100.710000 Z"></path><path fill="rgb(128, 26, 46)" d=" M 208.840000 130.960000 L 206.400000 127.390000 C 201.760000 132.040000 187.030000 136.580000 187.030000 136.580000 L 188.220000 142.010000 C 195.050000 140.630000 202.770000 137.570000 208.840000 130.960000 Z"></path><path fill="rgb(94, 218, 167)" d=" M 166.120000 179.840000 L 137.920000 190.220000 C 137.920000 190.220000 115.620000 141.830000 126.640000 114.550000 C 126.640000 114.550000 143.040000 117.130000 166.120000 179.840000 Z"></path><path fill="rgb(128, 26, 46)" d=" M 158.380000 160.260000 L 130.850000 170.390000 C 132.220000 174.970000 133.610000 179.020000 134.790000 182.250000 L 163.090000 171.830000 C 161.470000 167.680000 159.900000 163.840000 158.380000 160.260000 Z"></path><path fill="rgb(128, 26, 46)" d=" M 163.700000 174.740000 L 136.170000 184.870000 C 137.030000 188.040000 137.950000 190.830000 138.760000 193.040000 L 167.060000 182.630000 C 165.930000 179.790000 164.810000 177.170000 163.700000 174.740000 Z"></path><path fill="rgb(220, 0, 11)" d=" M 129.280000 165.230000 L 123.290000 170.310000 L 133.860000 199.020000 L 142.020000 196.020000 L 129.280000 165.230000 Z"></path><path fill="rgb(220, 0, 11)" d=" M 155.730000 155.500000 L 163.590000 155.470000 L 174.160000 184.190000 L 165.990000 187.190000 L 155.730000 155.500000 Z"></path><path fill="rgb(128, 26, 46)" d=" M 124.500000 145.080000 L 146.730000 136.900000 C 144.480000 133.040000 142.380000 129.850000 140.450000 127.210000 L 123.590000 133.420000 C 123.620000 137.250000 123.950000 141.170000 124.500000 145.080000 Z"></path><path fill="rgb(94, 218, 167)" d=" M 139.780000 190.400000 L 111.580000 200.780000 C 111.580000 200.780000 89.280000 152.380000 100.300000 125.110000 C 100.300000 125.110000 116.700000 127.680000 139.780000 190.400000 Z"></path><path fill="rgb(128, 26, 46)" d=" M 132.030000 170.820000 L 104.500000 180.950000 C 105.880000 185.520000 107.270000 189.570000 108.450000 192.800000 L 136.750000 182.380000 C 135.130000 178.240000 133.560000 174.390000 132.030000 170.820000 Z"></path><path fill="rgb(128, 26, 46)" d=" M 137.360000 185.290000 L 109.830000 195.420000 C 110.690000 198.590000 111.610000 201.380000 112.420000 203.600000 L 140.720000 193.180000 C 139.590000 190.340000 138.470000 187.720000 137.360000 185.290000 Z"></path><path fill="rgb(220, 0, 11)" d=" M 102.940000 175.780000 L 96.950000 180.860000 L 107.520000 209.580000 L 115.680000 206.570000 L 102.940000 175.780000 Z"></path><path fill="rgb(220, 0, 11)" d=" M 129.390000 166.050000 L 137.250000 166.030000 L 147.810000 194.740000 L 139.650000 197.750000 L 129.390000 166.050000 Z"></path><path fill="rgb(128, 26, 46)" d=" M 98.150000 155.640000 L 120.390000 147.450000 C 118.140000 143.600000 116.040000 140.400000 114.110000 137.760000 L 97.250000 143.970000 C 97.280000 147.800000 97.610000 151.730000 98.150000 155.640000 Z"></path><path fill="rgb(226, 30, 28)" d=" M 129.940000 209.160000 C 129.940000 209.160000 146.610000 257.170000 167.620000 262.440000 L 170.730000 266.850000 L 174.340000 257.460000 C 174.340000 257.460000 151.150000 238.610000 158.350000 220.660000 L 175.940000 213.190000 C 175.940000 213.190000 185.720000 229.110000 178.760000 252.530000 L 187.000000 258.680000 L 186.750000 252.710000 C 186.750000 252.710000 206.760000 221.310000 185.820000 182.740000 C 185.820000 182.740000 146.690000 192.750000 129.940000 209.160000 Z"></path><path fill="rgb(226, 30, 28)" d=" M 130.480000 211.640000 C 130.480000 211.640000 102.660000 154.310000 107.280000 133.040000 L 172.640000 116.770000 C 172.640000 116.770000 182.990000 162.810000 186.680000 185.190000 C 186.680000 185.190000 149.730000 208.240000 130.480000 211.640000 Z"></path><path fill="rgb(128, 26, 46)" d=" M 172.650000 116.770000 L 107.280000 133.040000 C 107.050000 134.110000 106.900000 135.270000 106.830000 136.510000 C 112.220000 142.030000 128.770000 156.000000 151.960000 148.000000 C 166.120000 143.120000 172.420000 135.080000 175.180000 128.230000 C 173.660000 121.310000 172.650000 116.770000 172.650000 116.770000 Z"></path><path fill="rgb(128, 26, 46)" d=" M 127.200000 208.890000 L 130.080000 214.570000 C 130.080000 214.570000 180.270000 191.340000 190.890000 189.250000 L 188.600000 180.690000 C 188.600000 180.690000 143.470000 186.640000 127.200000 208.890000 Z"></path><path fill="rgb(128, 26, 46)" d=" M 146.150000 146.580000 C 146.150000 146.580000 148.450000 175.730000 158.870000 192.740000 L 165.860000 190.170000 C 165.860000 190.170000 152.480000 153.260000 153.780000 143.160000 L 146.150000 146.580000 Z"></path><path fill="rgb(128, 26, 46)" d=" M 169.780000 269.770000 C 169.880000 269.200000 175.300000 256.860000 175.300000 256.860000 C 175.300000 256.860000 166.390000 250.740000 164.830000 246.510000 L 159.730000 259.740000 C 159.730000 259.740000 164.250000 262.600000 166.410000 263.390000 L 169.780000 269.770000 Z"></path><path fill="rgb(128, 26, 46)" d=" M 188.950000 261.750000 C 188.550000 261.330000 177.230000 254.010000 177.230000 254.010000 C 177.230000 254.010000 181.300000 244.000000 180.270000 239.610000 L 191.810000 247.840000 C 191.810000 247.840000 189.610000 252.710000 188.240000 254.570000 L 188.950000 261.750000 Z"></path><path fill="rgb(94, 218, 167)" d=" M 174.060000 52.490000 C 195.510000 72.700000 195.180000 105.130000 173.330000 124.910000 C 151.480000 144.690000 116.370000 144.340000 94.920000 124.120000 C 73.470000 103.910000 73.790000 71.490000 95.640000 51.710000 C 117.500000 31.930000 152.600000 32.280000 174.060000 52.490000 Z"></path><path fill="rgb(53, 117, 91)" d=" M 159.100000 78.360000 C 174.450000 86.900000 178.820000 105.550000 168.850000 120.020000 C 158.870000 134.490000 138.340000 139.290000 122.980000 130.750000 C 107.630000 122.220000 103.260000 103.570000 113.230000 89.100000 C 123.210000 74.630000 143.740000 69.830000 159.100000 78.360000 Z"></path><path fill="rgb(190, 255, 231)" d=" M 173.820000 98.460000 C 177.440000 113.900000 165.850000 129.810000 147.940000 134.000000 C 130.030000 138.200000 112.580000 129.080000 108.960000 113.640000 C 105.350000 98.200000 116.940000 82.280000 134.850000 78.090000 C 152.760000 73.900000 170.210000 83.020000 173.820000 98.460000 Z"></path><path fill="rgb(128, 26, 46)" d=" M 124.810000 117.970000 C 125.170000 120.100000 124.200000 122.020000 122.650000 122.280000 C 121.110000 122.540000 119.570000 121.020000 119.220000 118.900000 C 118.870000 116.780000 119.830000 114.850000 121.380000 114.590000 C 122.920000 114.340000 124.460000 115.850000 124.810000 117.970000 Z"></path><path fill="rgb(128, 26, 46)" d=" M 165.510000 101.580000 C 166.820000 102.930000 167.160000 105.380000 166.280000 107.040000 C 165.390000 108.700000 163.610000 108.950000 162.310000 107.600000 C 161.000000 106.250000 160.650000 103.800000 161.540000 102.140000 C 162.420000 100.480000 164.200000 100.230000 165.510000 101.580000 Z"></path><path fill="rgb(128, 26, 46)" d=" M 132.030000 122.770000 L 161.000000 114.240000 C 161.000000 114.240000 151.590000 138.400000 132.030000 122.770000 Z"></path><path fill="rgb(128, 26, 46)" d=" M 134.850000 78.090000 C 124.150000 80.600000 115.710000 87.290000 111.410000 95.560000 C 111.690000 98.470000 112.730000 100.950000 114.720000 101.590000 C 118.110000 102.670000 121.710000 97.460000 121.990000 94.120000 C 122.100000 97.700000 123.810000 104.990000 128.300000 103.630000 C 130.700000 102.900000 132.490000 98.650000 132.700000 95.080000 C 134.500000 98.100000 137.960000 100.680000 140.760000 99.290000 C 143.970000 97.710000 144.980000 91.930000 143.580000 88.270000 C 145.660000 90.760000 148.740000 92.950000 151.700000 91.250000 C 153.890000 90.000000 153.840000 87.680000 152.950000 85.660000 C 155.500000 87.840000 159.280000 88.010000 161.340000 84.220000 C 161.710000 83.560000 161.900000 82.890000 161.950000 82.230000 C 154.590000 77.540000 144.790000 75.770000 134.850000 78.090000 Z"></path><path fill="rgb(255, 255, 255)" d=" M 160.530000 51.410000 C 163.830000 54.710000 163.830000 60.050000 160.530000 63.350000 C 157.230000 66.650000 151.890000 66.650000 148.600000 63.350000 C 145.300000 60.050000 145.300000 54.710000 148.600000 51.410000 C 151.890000 48.120000 157.230000 48.120000 160.530000 51.410000 Z"></path><path fill="rgb(255, 255, 255)" d=" M 176.760000 68.770000 C 178.410000 70.410000 178.410000 73.080000 176.760000 74.730000 C 175.110000 76.380000 172.440000 76.380000 170.790000 74.730000 C 169.140000 73.080000 169.140000 70.410000 170.790000 68.770000 C 172.440000 67.120000 175.110000 67.120000 176.760000 68.770000 Z"></path><path fill="rgb(226, 30, 28)" d=" M 112.850000 161.020000 C 111.480000 160.880000 84.200000 169.630000 68.290000 149.020000 C 52.370000 128.410000 57.910000 128.510000 57.910000 128.510000 L 70.980000 122.920000 C 70.980000 122.920000 75.040000 155.270000 112.270000 144.300000 L 112.850000 161.020000 Z"></path><path fill="rgb(253, 179, 25)" d=" M 74.040000 124.620000 L 84.030000 135.370000 C 84.030000 135.370000 81.290000 148.510000 62.510000 151.200000 L 55.240000 131.940000 L 74.040000 124.620000 Z"></path><path fill="rgb(253, 179, 25)" d=" M 74.040000 124.620000 C 74.040000 124.620000 76.630000 113.430000 73.850000 113.040000 C 72.800000 112.890000 70.770000 115.960000 70.770000 115.960000 C 70.770000 115.960000 65.930000 107.720000 62.730000 109.040000 C 61.190000 109.680000 62.130000 116.040000 62.130000 116.040000 C 62.130000 116.040000 58.500000 108.890000 55.850000 112.570000 C 55.240000 113.420000 56.970000 118.580000 56.970000 118.580000 C 56.970000 118.580000 53.830000 113.700000 51.170000 115.250000 C 49.170000 116.410000 50.280000 123.810000 55.240000 131.940000 C 55.240000 131.940000 65.770000 133.030000 74.040000 124.620000 Z"></path><path fill="rgb(128, 26, 46)" d=" M 80.220000 158.840000 C 87.800000 162.570000 95.840000 163.040000 102.060000 162.610000 L 103.180000 156.420000 L 83.140000 154.050000 L 80.220000 158.840000 Z"></path><path fill="rgb(128, 26, 46)" d=" M 113.000000 161.230000 C 113.000000 161.230000 119.970000 155.740000 118.430000 150.400000 C 118.440000 150.400000 125.710000 161.930000 113.000000 161.230000 Z"></path><path fill="rgb(226, 30, 28)" d=" M 117.730000 208.000000 C 117.730000 208.000000 119.510000 216.580000 120.990000 219.710000 C 122.470000 222.830000 133.640000 243.780000 133.640000 243.780000 L 129.900000 217.970000 L 125.250000 205.520000 L 117.730000 208.000000 Z"></path><path fill="rgb(253, 179, 25)" d=" M 120.990000 208.790000 L 124.120000 207.310000 L 126.830000 215.550000 C 126.830000 215.550000 131.360000 237.100000 131.110000 236.010000 C 130.860000 234.910000 122.370000 217.010000 122.370000 217.010000 L 120.990000 208.790000 Z"></path></svg>