<?xml version="1.0" standalone="no"?><!DOCTYPE svg PUBLIC "-//W3C//DTD SVG 1.1//EN" "http://www.w3.org/Graphics/SVG/1.1/DTD/svg11.dtd"><svg id="Cupcake0.svg" width="150" height="150" version="1.1" viewBox="0 0 300 300" xmlns="http://www.w3.org/2000/svg" xmlns:xlink="http://www.w3.org/1999/xlink"><defs xmlns="http://www.w3.org/1999/xhtml"><style type="text/css"><![CDATA[
* { border: 0px; margin: 0px; padding: 0px; }
html { background-color: rgb(255, 255, 255); font-family: Verdana, Arial; }
.webgl-content * { position: absolute; width: 100%; height: 100%; user-select: none; }
.webgl-content .logo, .progress { position: absolute; left: 50%; top: 50%; transform: translate(-50%, -50%); }
.webgl-content .logo { background: url("progressLogo.Light.png") center center / contain no-repeat; width: 154px; height: 130px; }
.webgl-content .progress { height: 18px; width: 141px; margin-top: 90px; }
.webgl-content .progress .empty { background: url("progressEmpty.Light.png") right center / cover no-repeat; float: right; width: 100%; height: 100%; display: inline-block; }
.webgl-content .progress .full { background: url("progressFull.Light.png") left center / cover no-repeat; float: left; width: 0%; height: 100%; display: inline-block; }
.webgl-content .logo.Dark { background-image: url("progressLogo.Dark.png"); }
.webgl-content .progress.Dark .empty { background-image: url("progressEmpty.Dark.png"); }
.webgl-content .progress.Dark .full { background-image: url("progressFull.Dark.png"); }
#loading-content { z-index: 10000; position: fixed; width: 100%; height: 100%; left: 0px; top: 0px; overflow: hidden; background: url("background.png"); }
.hud-intro .hud-intro-social .btn-discord, .hud-respawn .hud-respawn-social .btn-discord { background-image: url("//lordz.io/images/discord-icon.png"); }
.hud-intro .hud-intro-social .btn-twitter, .hud-respawn .hud-respawn-social .btn-twitter { background-image: url("//lordz.io/images/twitter-icon.png"); }
.hud-intro .hud-intro-social .btn-facebook, .hud-respawn .hud-respawn-social .btn-facebook { background-image: url("//lordz.io/images/facebook-icon.png"); }
.hud-intro .hud-intro-social .btn-youtube, .hud-respawn .hud-respawn-social .btn-youtube { background-image: url("//lordz.io/images/youtube-icon.png"); }
* { box-sizing: border-box; user-select: none; }
.btn { position: relative; display: inline-block; top: 0px; height: 36px; line-height: 36px; padding: 0px 20px; background: rgb(68, 68, 68); color: rgb(238, 238, 238); border: 0px; font-size: 14px; vertical-align: top; text-align: center; text-decoration: none; text-shadow: rgba(0, 0, 0, 0.4) 0px 1px 0px; box-shadow: rgba(0, 0, 0, 0.2) 0px 2px 10px, rgb(51, 51, 51) 0px 4px 0px; border-radius: 4px; transition: all 0.15s ease-in-out 0s; }
.btn:hover, .btn:active { background-color: rgb(85, 85, 85); color: rgb(255, 255, 255); }
.btn:active { top: 4px; box-shadow: rgba(0, 0, 0, 0.2) 0px 2px 10px !important; }
.btn-green { background-color: rgb(71, 149, 13); box-shadow: rgba(0, 0, 0, 0.2) 0px 2px 10px, rgb(53, 131, 0) 0px 4px 0px; }
.btn-green:hover, .btn-green:active { background-color: rgb(100, 184, 32); }
.btn-red { background-color: rgb(179, 53, 60); box-shadow: rgba(0, 0, 0, 0.2) 0px 2px 10px, rgb(161, 35, 42) 0px 4px 0px; }
.btn-red:hover, .btn-red:active { background-color: rgb(203, 87, 91); }
.btn-blue { background-color: rgb(29, 141, 238); box-shadow: rgba(0, 0, 0, 0.2) 0px 2px 10px, rgb(11, 123, 220) 0px 4px 0px; }
.btn-blue:hover, .btn-blue:active { background-color: rgb(79, 167, 238); }
.btn-purple { background-color: rgb(114, 55, 228); box-shadow: rgba(0, 0, 0, 0.2) 0px 2px 10px, rgb(96, 37, 210) 0px 4px 0px; }
.btn-purple:hover, .btn-purple:active { background-color: rgb(130, 89, 228); }
.btn-twitter { background-color: rgb(27, 149, 224); box-shadow: rgba(0, 0, 0, 0.2) 0px 2px 10px, rgb(9, 131, 206) 0px 4px 0px; }
.btn-twitter:hover, .btn-twitter:active { background-color: rgb(12, 122, 191); }
.btn-facebook { background-color: rgb(66, 103, 178); box-shadow: rgba(0, 0, 0, 0.2) 0px 2px 10px, rgb(48, 85, 160) 0px 4px 0px; }
.btn-facebook:hover, .btn-facebook:active { background-color: rgb(54, 88, 153); }
.btn-google { background-color: rgb(221, 75, 57); box-shadow: rgba(0, 0, 0, 0.2) 0px 2px 10px, rgb(203, 57, 39) 0px 4px 0px; }
.btn-google:hover, .btn-google:active { background-color: rgb(186, 63, 49); }
.btn-discord { background-color: rgb(114, 137, 218); box-shadow: rgba(0, 0, 0, 0.2) 0px 2px 10px, rgb(96, 119, 200) 0px 4px 0px; }
.btn-discord:hover, .btn-discord:active { background-color: rgb(90, 109, 176); }
.btn-youtube { background-color: rgb(229, 45, 39); box-shadow: rgba(0, 0, 0, 0.2) 0px 2px 10px, rgb(211, 27, 21) 0px 4px 0px; }
.btn-youtube:hover, .btn-youtube:active { background-color: rgb(186, 37, 33); }
.hud { position: fixed; top: 0px; left: 0px; bottom: 0px; right: 0px; }
.hud .hud-bottom-left { display: flex; position: absolute; bottom: 20px; left: 20px; flex-direction: column-reverse; }
.hud-intro .hud-intro-corner-bottom-left, .hud-respawn .hud-respawn-corner-bottom-left { position: fixed; bottom: 20px; left: 20px; text-align: left; }
.hud-intro .hud-intro-social, .hud-respawn .hud-respawn-social { width: 240px; line-height: 24px; font-size: 14px; color: rgb(119, 119, 119); }
.hud-intro .hud-intro-social .btn, .hud-respawn .hud-respawn-social .btn { display: block; float: left; margin: 0px 10px 0px 0px; width: 40px; height: 40px; line-height: 40px; background-size: 24px; background-position: center center; background-repeat: no-repeat; }
.hud-intro .hud-intro-more-games { position: relative; bottom: 5px; line-height: 20px; font-size: 14px; color: rgba(255, 255, 255, 0.4); text-shadow: rgba(0, 0, 0, 0.2) 0px 1px 3px; }
.hud-intro .hud-intro-more-games a { display: inline-block; padding: 0px 20px; line-height: 40px; background: rgb(132, 115, 212); color: rgb(238, 238, 238); text-decoration: none; border-radius: 4px; transition: all 0.15s ease-in-out 0s; }
.hud-intro .hud-intro-more-games a:hover, .hud-intro .hud-intro-more-games a:active { background: rgb(103, 90, 166); }
#preroll video { left: 0px; top: 0px; }
.fb_hidden { position: absolute; top: -10000px; z-index: 10001; }
.fb_reposition { overflow: hidden; position: relative; }
.fb_invisible { display: none; }
.fb_reset { background: none; border: 0px; border-spacing: 0px; color: rgb(0, 0, 0); cursor: auto; direction: ltr; font-family: "lucida grande", tahoma, verdana, arial, sans-serif; font-size: 11px; font-style: normal; font-variant: normal; font-weight: normal; letter-spacing: normal; line-height: 1; margin: 0px; overflow: visible; padding: 0px; text-align: left; text-decoration: none; text-indent: 0px; text-shadow: none; text-transform: none; visibility: visible; white-space: normal; word-spacing: normal; }
.fb_animate { animation: 0.3s ease 0s 1 normal forwards running fb_transform; }
.fb_dialog { background: rgba(82, 82, 82, 0.7); position: absolute; top: -10000px; z-index: 10001; }
.fb_dialog_advanced { border-radius: 8px; padding: 10px; }
.fb_dialog_content { background: rgb(255, 255, 255); color: rgb(55, 55, 55); }
.fb_dialog_close_icon { background: url("https://static.xx.fbcdn.net/rsrc.php/v3/yq/r/IE9JII6Z1Ys.png") 0px 0px no-repeat scroll transparent; cursor: pointer; display: block; height: 15px; position: absolute; right: 18px; top: 17px; width: 15px; }
.fb_dialog_mobile .fb_dialog_close_icon { left: 5px; right: auto; top: 5px; }
.fb_dialog_padding { background-color: transparent; position: absolute; width: 1px; z-index: -1; }
.fb_dialog_close_icon:hover { background: url("https://static.xx.fbcdn.net/rsrc.php/v3/yq/r/IE9JII6Z1Ys.png") 0px -15px no-repeat scroll transparent; }
.fb_dialog_close_icon:active { background: url("https://static.xx.fbcdn.net/rsrc.php/v3/yq/r/IE9JII6Z1Ys.png") 0px -30px no-repeat scroll transparent; }
.fb_dialog_iframe { line-height: 0; }
.fb_dialog_content .dialog_title { background: rgb(109, 132, 180); border: 1px solid rgb(54, 88, 153); color: rgb(255, 255, 255); font-size: 14px; font-weight: bold; margin: 0px; }
body.fb_hidden { height: 100%; left: 0px; margin: 0px; overflow: visible; position: absolute; top: -10000px; transform: none; width: 100%; }
.fb_dialog.fb_dialog_mobile.loading { background: url("https://static.xx.fbcdn.net/rsrc.php/v3/ya/r/3rhSv5V8j3o.gif") 50% 50% no-repeat white; min-height: 100%; min-width: 100%; overflow: hidden; position: absolute; top: 0px; z-index: 10001; }
.fb_dialog.fb_dialog_mobile.loading.centered { background: none; height: auto; min-height: initial; min-width: initial; width: auto; }
.fb_dialog.fb_dialog_mobile.loading.centered #fb_dialog_loader_spinner { width: 100%; }
.fb_dialog.fb_dialog_mobile.loading.centered .fb_dialog_content { background: none; }
.loading.centered #fb_dialog_loader_close { clear: both; color: rgb(255, 255, 255); display: block; font-size: 18px; padding-top: 20px; }
#fb-root #fb_dialog_ipad_overlay { background: rgba(0, 0, 0, 0.4); bottom: 0px; left: 0px; min-height: 100%; position: absolute; right: 0px; top: 0px; width: 100%; z-index: 10000; }
#fb-root #fb_dialog_ipad_overlay.hidden { display: none; }
.fb_dialog.fb_dialog_mobile.loading iframe { visibility: hidden; }
.fb_dialog_mobile .fb_dialog_iframe { position: sticky; top: 0px; }
.fb_dialog_content .dialog_header { border-bottom: 1px solid rgb(4, 59, 135); border-top-color: rgb(4, 59, 135); border-right-color: rgb(4, 59, 135); border-left-color: rgb(4, 59, 135); box-shadow: white 0px 1px 1px -1px inset; color: rgb(255, 255, 255); font: bold 14px Helvetica, sans-serif; text-overflow: ellipsis; text-shadow: rgba(0, 30, 84, 0.298) 0px -1px 0px; vertical-align: middle; white-space: nowrap; }
.fb_dialog_content .dialog_header table { height: 43px; width: 100%; }
.fb_dialog_content .dialog_header td.header_left { font-size: 12px; padding-left: 5px; vertical-align: middle; width: 60px; }
.fb_dialog_content .dialog_header td.header_right { font-size: 12px; padding-right: 5px; vertical-align: middle; width: 60px; }
.fb_dialog_content .touchable_button { background-clip: padding-box; border: 1px solid rgb(41, 72, 125); border-radius: 3px; display: inline-block; line-height: 18px; margin-top: 3px; max-width: 85px; padding: 4px 12px; position: relative; }
.fb_dialog_content .dialog_header .touchable_button input { background: none; border: none; color: rgb(255, 255, 255); font: bold 12px Helvetica, sans-serif; margin: 2px -12px; padding: 2px 6px 3px; text-shadow: rgba(0, 30, 84, 0.298) 0px -1px 0px; }
.fb_dialog_content .dialog_header .header_center { color: rgb(255, 255, 255); font-size: 16px; font-weight: bold; line-height: 18px; text-align: center; vertical-align: middle; }
.fb_dialog_content .dialog_content { background: url("https://static.xx.fbcdn.net/rsrc.php/v3/y9/r/jKEcVPZFk-2.gif") 50% 50% no-repeat; border-width: 0px 1px; border-right-style: solid; border-left-style: solid; border-right-color: rgb(74, 74, 74); border-left-color: rgb(74, 74, 74); border-image: initial; border-bottom-style: initial; border-bottom-color: initial; border-top-style: initial; border-top-color: initial; height: 150px; }
.fb_dialog_content .dialog_footer { background: rgb(245, 246, 247); border-width: 1px; border-style: solid; border-color: rgb(204, 204, 204) rgb(74, 74, 74) rgb(74, 74, 74); border-image: initial; height: 40px; }
#fb_dialog_loader_close { float: left; }
.fb_dialog.fb_dialog_mobile .fb_dialog_close_button { text-shadow: rgba(0, 30, 84, 0.298) 0px -1px 0px; }
.fb_dialog.fb_dialog_mobile .fb_dialog_close_icon { visibility: hidden; }
#fb_dialog_loader_spinner { animation: 1.2s linear 0s infinite normal none running rotateSpinner; background-color: transparent; background-image: url("https://static.xx.fbcdn.net/rsrc.php/v3/yD/r/t-wz8gw1xG1.png"); background-position: 50% 50%; background-repeat: no-repeat; height: 24px; width: 24px; }
.fb_iframe_widget { display: inline-block; position: relative; }
.fb_iframe_widget span { display: inline-block; position: relative; text-align: justify; }
.fb_iframe_widget iframe { position: absolute; }
.fb_iframe_widget_fluid_desktop, .fb_iframe_widget_fluid_desktop span, .fb_iframe_widget_fluid_desktop iframe { max-width: 100%; }
.fb_iframe_widget_fluid_desktop iframe { min-width: 220px; position: relative; }
.fb_iframe_widget_lift { z-index: 1; }
.fb_iframe_widget_fluid { display: inline; }
.fb_iframe_widget_fluid span { width: 100%; }
.st0 { fill: rgb(119, 183, 73); }
.st1 { fill: rgb(247, 175, 47); }
.st2 { fill: rgb(233, 81, 15); }
.st3 { fill: url("#SVGID_1_"); }
.st4 { fill: url("#SVGID_2_"); }
.st5 { fill: rgb(252, 242, 119); }
.st6 { fill: url("#SVGID_3_"); }
.st7 { fill: url("#SVGID_4_"); }
.st8 { fill: url("#SVGID_5_"); }
.st9 { fill: url("#SVGID_6_"); }
.st10 { fill: url("#SVGID_7_"); }
.st11 { fill: url("#SVGID_8_"); }
.st12 { fill: url("#SVGID_9_"); }
.st13 { fill: url("#SVGID_10_"); }
.st14 { fill: url("#SVGID_11_"); }
.st15 { fill: url("#SVGID_12_"); }
.st16 { fill: url("#SVGID_13_"); }
.st17 { fill: url("#SVGID_14_"); }
.st18 { fill: url("#SVGID_15_"); }
.st19 { fill: url("#SVGID_16_"); }
.st0 { fill: rgb(119, 183, 73); }
.st1 { fill: rgb(247, 175, 47); }
.st2 { fill: rgb(233, 81, 15); }
.st3 { fill: url("#SVGID_1_"); }
.st4 { fill: url("#SVGID_2_"); }
.st5 { fill: rgb(252, 242, 119); }
.st6 { fill: url("#SVGID_3_"); }
.st7 { fill: url("#SVGID_4_"); }
.st8 { fill: url("#SVGID_5_"); }
.st9 { fill: url("#SVGID_6_"); }
.st10 { fill: url("#SVGID_7_"); }
.st11 { fill: url("#SVGID_8_"); }
.st12 { fill: url("#SVGID_9_"); }
.st13 { fill: url("#SVGID_10_"); }
.st14 { fill: url("#SVGID_11_"); }
.st15 { fill: url("#SVGID_12_"); }
.st16 { fill: url("#SVGID_13_"); }
.st17 { fill: url("#SVGID_14_"); }
.st18 { fill: url("#SVGID_15_"); }
.st19 { fill: url("#SVGID_16_"); }
.st0 { fill: rgb(119, 183, 73); }
.st1 { fill: rgb(247, 175, 47); }
.st2 { fill: rgb(233, 81, 15); }
.st3 { fill: url("#SVGID_1_"); }
.st4 { fill: url("#SVGID_2_"); }
.st5 { fill: rgb(252, 242, 119); }
.st6 { fill: url("#SVGID_3_"); }
.st7 { fill: url("#SVGID_4_"); }
.st8 { fill: url("#SVGID_5_"); }
.st9 { fill: url("#SVGID_6_"); }
.st10 { fill: url("#SVGID_7_"); }
.st11 { fill: url("#SVGID_8_"); }
.st12 { fill: url("#SVGID_9_"); }
.st13 { fill: url("#SVGID_10_"); }
.st14 { fill: url("#SVGID_11_"); }
.st15 { fill: url("#SVGID_12_"); }
.st16 { fill: url("#SVGID_13_"); }
.st17 { fill: url("#SVGID_14_"); }
.st18 { fill: url("#SVGID_15_"); }
.st19 { fill: url("#SVGID_16_"); }
.st0 { fill: rgb(119, 183, 73); }
.st1 { fill: rgb(247, 175, 47); }
.st2 { fill: rgb(233, 81, 15); }
.st3 { fill: url("#SVGID_1_"); }
.st4 { fill: url("#SVGID_2_"); }
.st5 { fill: rgb(252, 242, 119); }
.st6 { fill: url("#SVGID_3_"); }
.st7 { fill: url("#SVGID_4_"); }
.st8 { fill: url("#SVGID_5_"); }
.st9 { fill: url("#SVGID_6_"); }
.st10 { fill: url("#SVGID_7_"); }
.st11 { fill: url("#SVGID_8_"); }
.st12 { fill: url("#SVGID_9_"); }
.st13 { fill: url("#SVGID_10_"); }
.st14 { fill: url("#SVGID_11_"); }
.st15 { fill: url("#SVGID_12_"); }
.st16 { fill: url("#SVGID_13_"); }
.st17 { fill: url("#SVGID_14_"); }
.st18 { fill: url("#SVGID_15_"); }
.st19 { fill: url("#SVGID_16_"); }]]></style></defs><path fill="rgb(91, 32, 34)" d=" M 114.340000 227.390000 C 114.340000 227.390000 116.060000 280.020000 112.290000 296.430000 L 124.980000 296.430000 L 118.810000 293.350000 C 118.810000 293.350000 127.390000 253.700000 124.640000 227.040000 L 114.340000 227.390000 Z"/><path fill="rgb(91, 32, 34)" d=" M 163.080000 227.390000 C 163.080000 227.390000 164.800000 280.020000 161.020000 296.430000 L 173.720000 296.430000 L 167.550000 293.350000 C 167.550000 293.350000 176.130000 253.700000 173.380000 227.040000 L 163.080000 227.390000 Z"/><path fill="rgb(91, 32, 34)" d=" M 217.910000 178.850000 C 217.910000 178.850000 256.010000 187.400000 249.830000 235.930000 L 249.830000 243.450000 L 247.080000 239.010000 L 246.400000 243.790000 L 244.680000 239.010000 L 242.280000 243.790000 L 242.280000 237.980000 L 238.850000 237.640000 L 241.590000 232.860000 C 241.590000 232.860000 246.060000 194.230000 214.480000 190.820000 C 214.000000 186.680000 214.790000 182.650000 217.910000 178.850000 Z"/><path fill="rgb(94, 218, 167)" d=" M 217.090000 222.740000 C 216.920000 224.590000 216.100000 226.380000 214.630000 227.730000 C 213.160000 229.080000 211.310000 229.750000 209.460000 229.750000 L 72.200000 229.750000 C 70.630000 229.750000 69.060000 229.180000 67.820000 228.040000 C 66.570000 226.890000 65.870000 225.370000 65.730000 223.810000 L 55.360000 109.110000 L 227.370000 109.110000 L 217.090000 222.740000 Z"/><path fill="rgb(103, 239, 182)" d=" M 108.200000 109.110000 L 113.670000 229.750000 L 125.420000 229.750000 L 119.960000 109.110000 L 108.200000 109.110000 Z M 148.010000 229.750000 L 161.640000 229.750000 L 161.640000 109.110000 L 148.010000 109.110000 L 148.010000 229.750000 Z M 68.040000 109.110000 L 80.090000 229.750000 L 89.970000 229.750000 L 77.920000 109.110000 L 68.040000 109.110000 Z M 174.760000 229.750000 L 186.510000 229.750000 L 191.980000 109.110000 L 180.220000 109.110000 L 174.760000 229.750000 Z M 212.780000 109.110000 L 200.730000 229.750000 L 209.460000 229.750000 C 209.850000 229.750000 210.240000 229.710000 210.620000 229.650000 L 222.660000 109.110000 L 212.780000 109.110000 Z"/><path fill="rgb(70, 159, 123)" d=" M 227.130000 104.390000 L 54.740000 104.390000 L 57.700000 136.800000 C 59.290000 137.820000 61.160000 138.270000 62.880000 137.640000 C 64.080000 137.190000 65.140000 136.190000 65.970000 134.980000 C 74.880000 137.140000 81.380000 132.870000 85.350000 128.720000 C 88.920000 131.260000 94.670000 128.910000 96.410000 124.720000 C 104.490000 126.060000 115.410000 123.820000 123.910000 121.410000 C 125.360000 123.620000 128.340000 124.090000 131.040000 122.900000 C 131.650000 122.630000 132.520000 122.020000 133.320000 121.250000 C 135.350000 122.680000 138.010000 123.060000 140.280000 121.350000 C 140.760000 120.990000 141.300000 120.340000 141.770000 119.580000 C 150.850000 122.680000 164.800000 119.700000 172.380000 117.630000 C 173.960000 120.360000 177.870000 121.850000 180.820000 120.860000 C 181.370000 120.680000 181.940000 120.330000 182.490000 119.880000 C 197.720000 129.390000 222.600000 122.840000 225.530000 122.020000 L 227.130000 104.390000 Z"/><path fill="rgb(91, 32, 34)" d=" M 65.950000 178.850000 C 65.950000 178.850000 27.850000 187.400000 34.030000 235.930000 L 34.030000 243.450000 L 36.780000 239.010000 L 37.470000 243.790000 L 39.180000 239.010000 L 41.580000 243.790000 L 41.580000 237.980000 L 45.020000 237.640000 L 42.270000 232.860000 C 42.270000 232.860000 37.810000 194.230000 69.380000 190.820000 C 70.080000 186.040000 69.370000 181.870000 65.950000 178.850000 Z"/><path fill="rgb(91, 32, 34)" d=" M 114.880000 145.080000 C 116.220000 146.950000 116.220000 149.980000 114.880000 151.860000 C 113.550000 153.730000 111.390000 153.730000 110.060000 151.860000 C 108.730000 149.980000 108.730000 146.950000 110.060000 145.080000 C 111.390000 143.210000 113.550000 143.210000 114.880000 145.080000 Z"/><path fill="rgb(91, 32, 34)" d=" M 202.530000 145.080000 C 203.860000 146.950000 203.860000 149.980000 202.530000 151.860000 C 201.200000 153.730000 199.040000 153.730000 197.710000 151.860000 C 196.380000 149.980000 196.380000 146.950000 197.710000 145.080000 C 199.040000 143.210000 201.200000 143.210000 202.530000 145.080000 Z"/><path fill="rgb(255, 255, 255)" d=" M 175.620000 174.740000 L 128.390000 174.740000 C 128.390000 174.740000 152.740000 218.100000 175.620000 174.740000 Z"/><path fill="rgb(224, 42, 91)" d=" M 93.560000 176.310000 C 95.720000 178.890000 95.720000 183.080000 93.560000 185.660000 C 91.400000 188.240000 87.900000 188.240000 85.740000 185.660000 C 83.580000 183.080000 83.580000 178.890000 85.740000 176.310000 C 87.900000 173.730000 91.400000 173.730000 93.560000 176.310000 Z"/><path fill="rgb(224, 42, 91)" d=" M 210.890000 176.310000 C 213.050000 178.890000 213.050000 183.080000 210.890000 185.660000 C 208.730000 188.240000 205.220000 188.240000 203.060000 185.660000 C 200.900000 183.080000 200.900000 178.890000 203.060000 176.310000 C 205.220000 173.730000 208.730000 173.730000 210.890000 176.310000 Z"/><path fill="rgb(224, 42, 91)" d=" M 225.090000 72.260000 C 225.090000 72.260000 229.560000 66.830000 226.580000 56.460000 C 222.480000 42.210000 199.220000 46.090000 199.220000 46.090000 C 200.080000 22.770000 167.100000 -3.700000 130.750000 3.090000 C 131.790000 12.940000 124.480000 18.120000 111.680000 20.420000 C 72.330000 27.480000 76.870000 53.010000 76.870000 53.010000 C 49.010000 55.970000 48.020000 82.630000 48.020000 82.630000 C 39.060000 83.130000 32.210000 89.990000 30.110000 94.980000 C 20.960000 116.670000 42.740000 124.910000 54.710000 127.730000 C 55.670000 131.290000 59.990000 134.740000 63.610000 133.400000 C 64.810000 132.950000 65.880000 131.950000 66.710000 130.740000 C 75.650000 132.910000 82.170000 128.630000 86.160000 124.490000 C 89.730000 127.020000 95.510000 124.670000 97.250000 120.480000 C 105.360000 121.820000 116.310000 119.580000 124.830000 117.170000 C 126.300000 119.380000 129.280000 119.850000 131.990000 118.660000 C 132.600000 118.390000 133.480000 117.780000 134.280000 117.010000 C 136.320000 118.440000 138.980000 118.820000 141.260000 117.110000 C 141.750000 116.750000 142.290000 116.110000 142.760000 115.340000 C 151.860000 118.440000 165.860000 115.460000 173.470000 113.390000 C 175.050000 116.120000 178.970000 117.610000 181.940000 116.620000 C 182.480000 116.440000 183.050000 116.090000 183.610000 115.650000 C 199.860000 125.750000 227.070000 117.690000 227.070000 117.690000 C 233.040000 113.250000 239.280000 110.960000 241.000000 94.490000 C 242.490000 80.170000 225.090000 72.260000 225.090000 72.260000 Z"/><path fill="rgb(252, 96, 138)" d=" M 199.220000 46.090000 C 199.480000 39.070000 196.650000 31.760000 191.600000 25.160000 C 193.890000 29.290000 195.610000 34.520000 195.220000 40.670000 C 194.170000 56.990000 186.340000 65.800000 157.110000 63.730000 C 157.110000 63.730000 187.670000 79.610000 202.960000 45.710000 C 200.690000 45.850000 199.220000 46.090000 199.220000 46.090000 Z M 225.090000 72.260000 C 225.090000 72.260000 225.130000 72.210000 225.180000 72.130000 C 220.570000 75.230000 213.160000 78.420000 201.480000 81.350000 C 201.480000 81.350000 221.870000 82.150000 231.190000 76.020000 C 227.910000 73.550000 225.090000 72.260000 225.090000 72.260000 Z M 76.980000 47.120000 C 76.450000 50.630000 76.870000 53.010000 76.870000 53.010000 C 75.610000 53.140000 74.430000 53.340000 73.290000 53.560000 C 83.740000 53.730000 97.570000 58.370000 111.950000 75.650000 C 111.950000 75.650000 97.920000 46.920000 76.980000 47.120000 Z M 48.030000 82.450000 C 55.100000 82.970000 64.120000 85.280000 75.670000 90.420000 C 75.670000 90.420000 62.350000 79.710000 48.980000 76.830000 C 48.250000 79.710000 48.060000 81.850000 48.030000 82.450000 Z"/><path fill="rgb(255, 255, 255)" d=" M 124.140000 44.430000 C 123.790000 44.430000 123.440000 44.320000 123.140000 44.090000 L 113.350000 36.530000 C 112.650000 35.980000 112.520000 34.970000 113.070000 34.270000 C 113.620000 33.570000 114.640000 33.440000 115.340000 33.990000 L 125.130000 41.550000 C 125.840000 42.090000 125.960000 43.100000 125.420000 43.800000 C 125.100000 44.210000 124.620000 44.430000 124.140000 44.430000 Z"/><path fill="rgb(255, 255, 255)" d=" M 124.680000 65.480000 C 124.240000 65.480000 123.800000 65.300000 123.480000 64.950000 C 122.880000 64.300000 122.930000 63.280000 123.590000 62.680000 L 135.560000 51.880000 C 136.220000 51.290000 137.240000 51.330000 137.840000 51.990000 C 138.450000 52.650000 138.400000 53.670000 137.730000 54.260000 L 125.770000 65.060000 C 125.460000 65.340000 125.070000 65.480000 124.680000 65.480000 Z"/><path fill="rgb(255, 255, 255)" d=" M 162.200000 40.650000 C 161.770000 40.650000 161.340000 40.480000 161.020000 40.140000 L 151.780000 30.430000 C 151.170000 29.780000 151.200000 28.760000 151.850000 28.150000 C 152.500000 27.540000 153.520000 27.570000 154.140000 28.220000 L 163.380000 37.930000 C 164.000000 38.580000 163.970000 39.600000 163.320000 40.210000 C 163.000000 40.500000 162.600000 40.650000 162.200000 40.650000 Z"/><path fill="rgb(255, 255, 255)" d=" M 124.140000 93.550000 C 123.420000 93.550000 122.770000 93.080000 122.570000 92.370000 C 122.340000 91.510000 122.850000 90.620000 123.710000 90.390000 L 135.680000 87.150000 C 136.540000 86.920000 137.430000 87.420000 137.670000 88.280000 C 137.900000 89.140000 137.390000 90.020000 136.530000 90.260000 L 124.560000 93.500000 C 124.420000 93.530000 124.280000 93.550000 124.140000 93.550000 Z"/><path fill="rgb(255, 255, 255)" d=" M 185.580000 88.150000 C 185.250000 88.150000 184.910000 88.050000 184.620000 87.840000 L 174.290000 80.280000 C 173.570000 79.760000 173.420000 78.750000 173.950000 78.030000 C 174.480000 77.320000 175.500000 77.170000 176.220000 77.690000 L 186.550000 85.250000 C 187.270000 85.780000 187.420000 86.790000 186.890000 87.500000 C 186.570000 87.930000 186.080000 88.150000 185.580000 88.150000 Z"/><path fill="rgb(255, 255, 255)" d=" M 80.090000 79.520000 C 80.040000 79.520000 79.980000 79.510000 79.930000 79.510000 C 79.040000 79.420000 78.390000 78.630000 78.480000 77.750000 L 79.570000 66.950000 C 79.660000 66.070000 80.450000 65.420000 81.340000 65.510000 C 82.230000 65.600000 82.880000 66.390000 82.790000 67.270000 L 81.700000 78.070000 C 81.620000 78.900000 80.910000 79.520000 80.090000 79.520000 Z"/><path fill="rgb(255, 255, 255)" d=" M 69.760000 104.350000 C 69.570000 104.350000 69.370000 104.320000 69.180000 104.240000 L 57.760000 99.930000 C 56.930000 99.610000 56.510000 98.680000 56.830000 97.850000 C 57.140000 97.020000 58.080000 96.600000 58.920000 96.920000 L 70.340000 101.240000 C 71.170000 101.550000 71.590000 102.480000 71.270000 103.310000 C 71.030000 103.950000 70.410000 104.350000 69.760000 104.350000 Z"/><path fill="rgb(255, 255, 255)" d=" M 199.730000 69.260000 C 199.220000 69.260000 198.730000 69.030000 198.410000 68.590000 C 197.890000 67.870000 198.050000 66.870000 198.780000 66.350000 L 208.560000 59.330000 C 209.290000 58.810000 210.300000 58.970000 210.830000 59.690000 C 211.350000 60.410000 211.190000 61.420000 210.460000 61.940000 L 200.670000 68.950000 C 200.390000 69.160000 200.060000 69.260000 199.730000 69.260000 Z"/><path fill="rgb(255, 255, 255)" d=" M 166.010000 97.870000 C 165.650000 97.870000 165.280000 97.750000 164.980000 97.500000 L 155.740000 89.950000 C 155.040000 89.380000 154.950000 88.370000 155.510000 87.680000 C 156.080000 87.000000 157.110000 86.900000 157.790000 87.460000 L 167.040000 95.020000 C 167.730000 95.590000 167.830000 96.600000 167.260000 97.290000 C 166.940000 97.670000 166.480000 97.870000 166.010000 97.870000 Z"/><path fill="rgb(255, 255, 255)" d=" M 207.340000 99.490000 C 206.910000 99.490000 206.470000 99.320000 206.150000 98.980000 C 205.540000 98.330000 205.580000 97.320000 206.230000 96.710000 L 214.930000 88.610000 C 215.580000 88.000000 216.610000 88.030000 217.220000 88.680000 C 217.830000 89.330000 217.800000 90.350000 217.150000 90.960000 L 208.440000 99.060000 C 208.130000 99.350000 207.740000 99.490000 207.340000 99.490000 Z"/><path fill="rgb(255, 255, 255)" d=" M 101.300000 101.110000 C 100.790000 101.110000 100.290000 100.870000 99.980000 100.430000 L 90.730000 87.470000 C 90.210000 86.750000 90.390000 85.740000 91.120000 85.230000 C 91.850000 84.720000 92.860000 84.890000 93.380000 85.610000 L 102.620000 98.570000 C 103.140000 99.300000 102.970000 100.300000 102.240000 100.810000 C 101.950000 101.010000 101.620000 101.110000 101.300000 101.110000 Z"/><path fill="rgb(255, 255, 255)" d=" M 148.070000 68.180000 C 147.490000 68.180000 146.930000 67.870000 146.640000 67.340000 C 146.210000 66.550000 146.510000 65.580000 147.290000 65.160000 L 160.340000 58.140000 C 161.130000 57.710000 162.120000 58.000000 162.540000 58.790000 C 162.970000 59.570000 162.670000 60.540000 161.890000 60.970000 L 148.840000 67.980000 C 148.590000 68.120000 148.330000 68.180000 148.070000 68.180000 Z"/><path fill="rgb(255, 255, 255)" d=" M 187.760000 46.580000 C 187.180000 46.580000 186.620000 46.270000 186.330000 45.730000 L 181.440000 36.550000 C 181.020000 35.770000 181.320000 34.790000 182.110000 34.380000 C 182.900000 33.960000 183.880000 34.260000 184.300000 35.050000 L 189.190000 44.220000 C 189.610000 45.010000 189.310000 45.980000 188.520000 46.400000 C 188.280000 46.520000 188.020000 46.580000 187.760000 46.580000 Z"/><path fill="rgb(94, 218, 167)" d=" M 87.690000 30.450000 L 64.970000 25.830000 L 77.810000 5.340000 L 90.630000 23.940000 L 87.690000 30.450000 Z"/><path fill="rgb(94, 218, 167)" d=" M 91.840000 31.380000 L 106.090000 49.270000 L 116.270000 27.940000 L 95.510000 25.610000 L 91.840000 31.380000 Z"/><path fill="rgb(44, 151, 105)" d=" M 97.510000 22.960000 C 100.530000 26.010000 100.530000 30.960000 97.510000 34.010000 C 94.490000 37.060000 89.600000 37.060000 86.580000 34.010000 C 83.560000 30.960000 83.560000 26.010000 86.580000 22.960000 C 89.600000 19.910000 94.490000 19.910000 97.510000 22.960000 Z"/><path fill="rgb(224, 42, 91)" d=" M 158.290000 158.990000 L 158.290000 140.420000 L 152.530000 140.420000 L 152.530000 158.650000 C 148.970000 159.110000 146.320000 160.750000 146.320000 162.720000 C 146.320000 165.030000 150.000000 166.910000 154.520000 166.910000 C 159.050000 166.910000 162.730000 165.030000 162.730000 162.720000 C 162.730000 161.100000 160.930000 159.690000 158.290000 158.990000 Z"/></svg>