<?xml version="1.0" standalone="no"?><!DOCTYPE svg PUBLIC "-//W3C//DTD SVG 1.1//EN" "http://www.w3.org/Graphics/SVG/1.1/DTD/svg11.dtd"><svg height="150" width="150" version="1.1" id="Elf0.svg" xmlns:xlink="http://www.w3.org/1999/xlink" x="0px" y="0px" viewBox="0 0 300 300" enable-background="new 0 0 300 300" xml:space="preserve" xmlns="http://www.w3.org/2000/svg"><defs xmlns="http://www.w3.org/1999/xhtml"><style type="text/css"><![CDATA[
* { border: 0px; margin: 0px; padding: 0px; }
html { background-color: rgb(255, 255, 255); font-family: Verdana, Arial; }
.webgl-content * { position: absolute; width: 100%; height: 100%; user-select: none; }
.webgl-content .logo, .progress { position: absolute; left: 50%; top: 50%; transform: translate(-50%, -50%); }
.webgl-content .logo { background: url("progressLogo.Light.png") center center / contain no-repeat; width: 154px; height: 130px; }
.webgl-content .progress { height: 18px; width: 141px; margin-top: 90px; }
.webgl-content .progress .empty { background: url("progressEmpty.Light.png") right center / cover no-repeat; float: right; width: 100%; height: 100%; display: inline-block; }
.webgl-content .progress .full { background: url("progressFull.Light.png") left center / cover no-repeat; float: left; width: 0%; height: 100%; display: inline-block; }
.webgl-content .logo.Dark { background-image: url("progressLogo.Dark.png"); }
.webgl-content .progress.Dark .empty { background-image: url("progressEmpty.Dark.png"); }
.webgl-content .progress.Dark .full { background-image: url("progressFull.Dark.png"); }
#loading-content { z-index: 10000; position: fixed; width: 100%; height: 100%; left: 0px; top: 0px; overflow: hidden; background: url("background.png"); }
.hud-intro .hud-intro-social .btn-discord, .hud-respawn .hud-respawn-social .btn-discord { background-image: url("//lordz.io/images/discord-icon.png"); }
.hud-intro .hud-intro-social .btn-twitter, .hud-respawn .hud-respawn-social .btn-twitter { background-image: url("//lordz.io/images/twitter-icon.png"); }
.hud-intro .hud-intro-social .btn-facebook, .hud-respawn .hud-respawn-social .btn-facebook { background-image: url("//lordz.io/images/facebook-icon.png"); }
.hud-intro .hud-intro-social .btn-youtube, .hud-respawn .hud-respawn-social .btn-youtube { background-image: url("//lordz.io/images/youtube-icon.png"); }
* { box-sizing: border-box; user-select: none; }
.btn { position: relative; display: inline-block; top: 0px; height: 36px; line-height: 36px; padding: 0px 20px; background: rgb(68, 68, 68); color: rgb(238, 238, 238); border: 0px; font-size: 14px; vertical-align: top; text-align: center; text-decoration: none; text-shadow: rgba(0, 0, 0, 0.4) 0px 1px 0px; box-shadow: rgba(0, 0, 0, 0.2) 0px 2px 10px, rgb(51, 51, 51) 0px 4px 0px; border-radius: 4px; transition: all 0.15s ease-in-out 0s; }
.btn:hover, .btn:active { background-color: rgb(85, 85, 85); color: rgb(255, 255, 255); }
.btn:active { top: 4px; box-shadow: rgba(0, 0, 0, 0.2) 0px 2px 10px !important; }
.btn-green { background-color: rgb(71, 149, 13); box-shadow: rgba(0, 0, 0, 0.2) 0px 2px 10px, rgb(53, 131, 0) 0px 4px 0px; }
.btn-green:hover, .btn-green:active { background-color: rgb(100, 184, 32); }
.btn-red { background-color: rgb(179, 53, 60); box-shadow: rgba(0, 0, 0, 0.2) 0px 2px 10px, rgb(161, 35, 42) 0px 4px 0px; }
.btn-red:hover, .btn-red:active { background-color: rgb(203, 87, 91); }
.btn-blue { background-color: rgb(29, 141, 238); box-shadow: rgba(0, 0, 0, 0.2) 0px 2px 10px, rgb(11, 123, 220) 0px 4px 0px; }
.btn-blue:hover, .btn-blue:active { background-color: rgb(79, 167, 238); }
.btn-purple { background-color: rgb(114, 55, 228); box-shadow: rgba(0, 0, 0, 0.2) 0px 2px 10px, rgb(96, 37, 210) 0px 4px 0px; }
.btn-purple:hover, .btn-purple:active { background-color: rgb(130, 89, 228); }
.btn-twitter { background-color: rgb(27, 149, 224); box-shadow: rgba(0, 0, 0, 0.2) 0px 2px 10px, rgb(9, 131, 206) 0px 4px 0px; }
.btn-twitter:hover, .btn-twitter:active { background-color: rgb(12, 122, 191); }
.btn-facebook { background-color: rgb(66, 103, 178); box-shadow: rgba(0, 0, 0, 0.2) 0px 2px 10px, rgb(48, 85, 160) 0px 4px 0px; }
.btn-facebook:hover, .btn-facebook:active { background-color: rgb(54, 88, 153); }
.btn-google { background-color: rgb(221, 75, 57); box-shadow: rgba(0, 0, 0, 0.2) 0px 2px 10px, rgb(203, 57, 39) 0px 4px 0px; }
.btn-google:hover, .btn-google:active { background-color: rgb(186, 63, 49); }
.btn-discord { background-color: rgb(114, 137, 218); box-shadow: rgba(0, 0, 0, 0.2) 0px 2px 10px, rgb(96, 119, 200) 0px 4px 0px; }
.btn-discord:hover, .btn-discord:active { background-color: rgb(90, 109, 176); }
.btn-youtube { background-color: rgb(229, 45, 39); box-shadow: rgba(0, 0, 0, 0.2) 0px 2px 10px, rgb(211, 27, 21) 0px 4px 0px; }
.btn-youtube:hover, .btn-youtube:active { background-color: rgb(186, 37, 33); }
.hud { position: fixed; top: 0px; left: 0px; bottom: 0px; right: 0px; }
.hud .hud-bottom-left { display: flex; position: absolute; bottom: 20px; left: 20px; flex-direction: column-reverse; }
.hud-intro .hud-intro-corner-bottom-left, .hud-respawn .hud-respawn-corner-bottom-left { position: fixed; bottom: 20px; left: 20px; text-align: left; }
.hud-intro .hud-intro-social, .hud-respawn .hud-respawn-social { width: 240px; line-height: 24px; font-size: 14px; color: rgb(119, 119, 119); }
.hud-intro .hud-intro-social .btn, .hud-respawn .hud-respawn-social .btn { display: block; float: left; margin: 0px 10px 0px 0px; width: 40px; height: 40px; line-height: 40px; background-size: 24px; background-position: center center; background-repeat: no-repeat; }
.hud-intro .hud-intro-more-games { position: relative; bottom: 5px; line-height: 20px; font-size: 14px; color: rgba(255, 255, 255, 0.4); text-shadow: rgba(0, 0, 0, 0.2) 0px 1px 3px; }
.hud-intro .hud-intro-more-games a { display: inline-block; padding: 0px 20px; line-height: 40px; background: rgb(132, 115, 212); color: rgb(238, 238, 238); text-decoration: none; border-radius: 4px; transition: all 0.15s ease-in-out 0s; }
.hud-intro .hud-intro-more-games a:hover, .hud-intro .hud-intro-more-games a:active { background: rgb(103, 90, 166); }
#preroll video { left: 0px; top: 0px; }
.fb_hidden { position: absolute; top: -10000px; z-index: 10001; }
.fb_reposition { overflow: hidden; position: relative; }
.fb_invisible { display: none; }
.fb_reset { background: none; border: 0px; border-spacing: 0px; color: rgb(0, 0, 0); cursor: auto; direction: ltr; font-family: "lucida grande", tahoma, verdana, arial, sans-serif; font-size: 11px; font-style: normal; font-variant: normal; font-weight: normal; letter-spacing: normal; line-height: 1; margin: 0px; overflow: visible; padding: 0px; text-align: left; text-decoration: none; text-indent: 0px; text-shadow: none; text-transform: none; visibility: visible; white-space: normal; word-spacing: normal; }
.fb_animate { animation: 0.3s ease 0s 1 normal forwards running fb_transform; }
.fb_dialog { background: rgba(82, 82, 82, 0.7); position: absolute; top: -10000px; z-index: 10001; }
.fb_dialog_advanced { border-radius: 8px; padding: 10px; }
.fb_dialog_content { background: rgb(255, 255, 255); color: rgb(55, 55, 55); }
.fb_dialog_close_icon { background: url("https://static.xx.fbcdn.net/rsrc.php/v3/yq/r/IE9JII6Z1Ys.png") 0px 0px no-repeat scroll transparent; cursor: pointer; display: block; height: 15px; position: absolute; right: 18px; top: 17px; width: 15px; }
.fb_dialog_mobile .fb_dialog_close_icon { left: 5px; right: auto; top: 5px; }
.fb_dialog_padding { background-color: transparent; position: absolute; width: 1px; z-index: -1; }
.fb_dialog_close_icon:hover { background: url("https://static.xx.fbcdn.net/rsrc.php/v3/yq/r/IE9JII6Z1Ys.png") 0px -15px no-repeat scroll transparent; }
.fb_dialog_close_icon:active { background: url("https://static.xx.fbcdn.net/rsrc.php/v3/yq/r/IE9JII6Z1Ys.png") 0px -30px no-repeat scroll transparent; }
.fb_dialog_iframe { line-height: 0; }
.fb_dialog_content .dialog_title { background: rgb(109, 132, 180); border: 1px solid rgb(54, 88, 153); color: rgb(255, 255, 255); font-size: 14px; font-weight: bold; margin: 0px; }
body.fb_hidden { height: 100%; left: 0px; margin: 0px; overflow: visible; position: absolute; top: -10000px; transform: none; width: 100%; }
.fb_dialog.fb_dialog_mobile.loading { background: url("https://static.xx.fbcdn.net/rsrc.php/v3/ya/r/3rhSv5V8j3o.gif") 50% 50% no-repeat white; min-height: 100%; min-width: 100%; overflow: hidden; position: absolute; top: 0px; z-index: 10001; }
.fb_dialog.fb_dialog_mobile.loading.centered { background: none; height: auto; min-height: initial; min-width: initial; width: auto; }
.fb_dialog.fb_dialog_mobile.loading.centered #fb_dialog_loader_spinner { width: 100%; }
.fb_dialog.fb_dialog_mobile.loading.centered .fb_dialog_content { background: none; }
.loading.centered #fb_dialog_loader_close { clear: both; color: rgb(255, 255, 255); display: block; font-size: 18px; padding-top: 20px; }
#fb-root #fb_dialog_ipad_overlay { background: rgba(0, 0, 0, 0.4); bottom: 0px; left: 0px; min-height: 100%; position: absolute; right: 0px; top: 0px; width: 100%; z-index: 10000; }
#fb-root #fb_dialog_ipad_overlay.hidden { display: none; }
.fb_dialog.fb_dialog_mobile.loading iframe { visibility: hidden; }
.fb_dialog_mobile .fb_dialog_iframe { position: sticky; top: 0px; }
.fb_dialog_content .dialog_header { border-bottom: 1px solid rgb(4, 59, 135); border-top-color: rgb(4, 59, 135); border-right-color: rgb(4, 59, 135); border-left-color: rgb(4, 59, 135); box-shadow: white 0px 1px 1px -1px inset; color: rgb(255, 255, 255); font: bold 14px Helvetica, sans-serif; text-overflow: ellipsis; text-shadow: rgba(0, 30, 84, 0.298) 0px -1px 0px; vertical-align: middle; white-space: nowrap; }
.fb_dialog_content .dialog_header table { height: 43px; width: 100%; }
.fb_dialog_content .dialog_header td.header_left { font-size: 12px; padding-left: 5px; vertical-align: middle; width: 60px; }
.fb_dialog_content .dialog_header td.header_right { font-size: 12px; padding-right: 5px; vertical-align: middle; width: 60px; }
.fb_dialog_content .touchable_button { background-clip: padding-box; border: 1px solid rgb(41, 72, 125); border-radius: 3px; display: inline-block; line-height: 18px; margin-top: 3px; max-width: 85px; padding: 4px 12px; position: relative; }
.fb_dialog_content .dialog_header .touchable_button input { background: none; border: none; color: rgb(255, 255, 255); font: bold 12px Helvetica, sans-serif; margin: 2px -12px; padding: 2px 6px 3px; text-shadow: rgba(0, 30, 84, 0.298) 0px -1px 0px; }
.fb_dialog_content .dialog_header .header_center { color: rgb(255, 255, 255); font-size: 16px; font-weight: bold; line-height: 18px; text-align: center; vertical-align: middle; }
.fb_dialog_content .dialog_content { background: url("https://static.xx.fbcdn.net/rsrc.php/v3/y9/r/jKEcVPZFk-2.gif") 50% 50% no-repeat; border-width: 0px 1px; border-right-style: solid; border-left-style: solid; border-right-color: rgb(74, 74, 74); border-left-color: rgb(74, 74, 74); border-image: initial; border-bottom-style: initial; border-bottom-color: initial; border-top-style: initial; border-top-color: initial; height: 150px; }
.fb_dialog_content .dialog_footer { background: rgb(245, 246, 247); border-width: 1px; border-style: solid; border-color: rgb(204, 204, 204) rgb(74, 74, 74) rgb(74, 74, 74); border-image: initial; height: 40px; }
#fb_dialog_loader_close { float: left; }
.fb_dialog.fb_dialog_mobile .fb_dialog_close_button { text-shadow: rgba(0, 30, 84, 0.298) 0px -1px 0px; }
.fb_dialog.fb_dialog_mobile .fb_dialog_close_icon { visibility: hidden; }
#fb_dialog_loader_spinner { animation: 1.2s linear 0s infinite normal none running rotateSpinner; background-color: transparent; background-image: url("https://static.xx.fbcdn.net/rsrc.php/v3/yD/r/t-wz8gw1xG1.png"); background-position: 50% 50%; background-repeat: no-repeat; height: 24px; width: 24px; }
.fb_iframe_widget { display: inline-block; position: relative; }
.fb_iframe_widget span { display: inline-block; position: relative; text-align: justify; }
.fb_iframe_widget iframe { position: absolute; }
.fb_iframe_widget_fluid_desktop, .fb_iframe_widget_fluid_desktop span, .fb_iframe_widget_fluid_desktop iframe { max-width: 100%; }
.fb_iframe_widget_fluid_desktop iframe { min-width: 220px; position: relative; }
.fb_iframe_widget_lift { z-index: 1; }
.fb_iframe_widget_fluid { display: inline; }
.fb_iframe_widget_fluid span { width: 100%; }
.st0 { fill: rgb(119, 183, 73); }
.st1 { fill: rgb(247, 175, 47); }
.st2 { fill: rgb(233, 81, 15); }
.st3 { fill: url("#SVGID_1_"); }
.st4 { fill: url("#SVGID_2_"); }
.st5 { fill: rgb(252, 242, 119); }
.st6 { fill: url("#SVGID_3_"); }
.st7 { fill: url("#SVGID_4_"); }
.st8 { fill: url("#SVGID_5_"); }
.st9 { fill: url("#SVGID_6_"); }
.st10 { fill: url("#SVGID_7_"); }
.st11 { fill: url("#SVGID_8_"); }
.st12 { fill: url("#SVGID_9_"); }
.st13 { fill: url("#SVGID_10_"); }
.st14 { fill: url("#SVGID_11_"); }
.st15 { fill: url("#SVGID_12_"); }
.st16 { fill: url("#SVGID_13_"); }
.st17 { fill: url("#SVGID_14_"); }
.st18 { fill: url("#SVGID_15_"); }
.st19 { fill: url("#SVGID_16_"); }
.st0 { fill: rgb(119, 183, 73); }
.st1 { fill: rgb(247, 175, 47); }
.st2 { fill: rgb(233, 81, 15); }
.st3 { fill: url("#SVGID_1_"); }
.st4 { fill: url("#SVGID_2_"); }
.st5 { fill: rgb(252, 242, 119); }
.st6 { fill: url("#SVGID_3_"); }
.st7 { fill: url("#SVGID_4_"); }
.st8 { fill: url("#SVGID_5_"); }
.st9 { fill: url("#SVGID_6_"); }
.st10 { fill: url("#SVGID_7_"); }
.st11 { fill: url("#SVGID_8_"); }
.st12 { fill: url("#SVGID_9_"); }
.st13 { fill: url("#SVGID_10_"); }
.st14 { fill: url("#SVGID_11_"); }
.st15 { fill: url("#SVGID_12_"); }
.st16 { fill: url("#SVGID_13_"); }
.st17 { fill: url("#SVGID_14_"); }
.st18 { fill: url("#SVGID_15_"); }
.st19 { fill: url("#SVGID_16_"); }
.st0 { fill: rgb(119, 183, 73); }
.st1 { fill: rgb(247, 175, 47); }
.st2 { fill: rgb(233, 81, 15); }
.st3 { fill: url("#SVGID_1_"); }
.st4 { fill: url("#SVGID_2_"); }
.st5 { fill: rgb(252, 242, 119); }
.st6 { fill: url("#SVGID_3_"); }
.st7 { fill: url("#SVGID_4_"); }
.st8 { fill: url("#SVGID_5_"); }
.st9 { fill: url("#SVGID_6_"); }
.st10 { fill: url("#SVGID_7_"); }
.st11 { fill: url("#SVGID_8_"); }
.st12 { fill: url("#SVGID_9_"); }
.st13 { fill: url("#SVGID_10_"); }
.st14 { fill: url("#SVGID_11_"); }
.st15 { fill: url("#SVGID_12_"); }
.st16 { fill: url("#SVGID_13_"); }
.st17 { fill: url("#SVGID_14_"); }
.st18 { fill: url("#SVGID_15_"); }
.st19 { fill: url("#SVGID_16_"); }
.st0 { fill: rgb(119, 183, 73); }
.st1 { fill: rgb(247, 175, 47); }
.st2 { fill: rgb(233, 81, 15); }
.st3 { fill: url("#SVGID_1_"); }
.st4 { fill: url("#SVGID_2_"); }
.st5 { fill: rgb(252, 242, 119); }
.st6 { fill: url("#SVGID_3_"); }
.st7 { fill: url("#SVGID_4_"); }
.st8 { fill: url("#SVGID_5_"); }
.st9 { fill: url("#SVGID_6_"); }
.st10 { fill: url("#SVGID_7_"); }
.st11 { fill: url("#SVGID_8_"); }
.st12 { fill: url("#SVGID_9_"); }
.st13 { fill: url("#SVGID_10_"); }
.st14 { fill: url("#SVGID_11_"); }
.st15 { fill: url("#SVGID_12_"); }
.st16 { fill: url("#SVGID_13_"); }
.st17 { fill: url("#SVGID_14_"); }
.st18 { fill: url("#SVGID_15_"); }
.st19 { fill: url("#SVGID_16_"); }]]></style></defs><g>	<g>		<path fill="#097E8F" d="M213.4,197.3c-0.5-1.4-36.5-39.8-37.9-40.2s-4,17.1-4,17.1l36.5,28.2L213.4,197.3z"/>		<g>			<g>				<polygon fill="#22D4C2" points="219.9,191.9 216.5,179.9 202.2,191.2 204.6,197.8 197,194.2 190.9,205.4 199.6,212 &#9;&#9;&#9;&#9;"/>				<path fill="#FF4F56" d="M218.1,187.8l-20.6,21.4c0,0,20.1,53.7,50.4,21.2c12.2-13.2-10.8-28.2-10.8-28.2s10.1-2.8,9.2-6.8&#9;&#9;&#9;&#9;&#9;S218.1,187.8,218.1,187.8z"/>			</g>			<path fill="#DB3549" d="M197.6,209.2l16.5-17.2c0,0,0.1,0,0.1,0c2.6,1,5.2,2.6,6.3,5.1c1.2,2.5,0.2,6.2-2.5,6.8&#9;&#9;&#9;&#9;c7.5,1.7,14.8,5.1,20,10.9c4.7,5.3,7.2,12.7,5.9,19.5C215.9,258.2,197.6,209.2,197.6,209.2z"/>		</g>	</g>	<g>		<path fill="#097E8F" d="M97.4,197.3c0.5-1.4,36.5-39.8,37.9-40.2s4,17.1,4,17.1l-36.5,28.2L97.4,197.3z"/>		<g>			<g>				<polygon fill="#22D4C2" points="90.9,191.9 94.4,179.9 108.6,191.2 106.2,197.8 113.9,194.2 119.9,205.4 111.2,212 &#9;&#9;&#9;&#9;"/>				<path fill="#FF4F56" d="M92.7,187.8l20.6,21.4c0,0-20.1,53.7-50.4,21.2c-12.2-13.2,10.8-28.2,10.8-28.2s-10.1-2.8-9.2-6.8&#9;&#9;&#9;&#9;&#9;C65.3,191.5,92.7,187.8,92.7,187.8z"/>			</g>			<path fill="#DB3549" d="M113.2,209.2L96.7,192c0,0-0.1,0-0.1,0c-2.6,1-5.2,2.6-6.3,5.1c-1.2,2.5-0.2,6.2,2.5,6.8&#9;&#9;&#9;&#9;c-7.5,1.7-14.8,5.1-20,10.9c-4.7,5.3-7.2,12.7-5.9,19.5C94.9,258.2,113.2,209.2,113.2,209.2z"/>		</g>	</g>	<g>		<path fill="#097E8F" d="M179.8,220.1c0,0,6.6,37.8,1.7,66.6h-8.3c0,0-4.2-53.8-10.8-66.6H179.8z"/>		<path fill="#FF4F56" d="M217.1,293.6h-47.3c-0.1-0.1-0.3-0.2-0.4-0.3c-6.6-5.4-2.2-32.8-2.2-32.8l26.3,1.4c0,0-3.6,17.6-1.4,18.5&#9;&#9;&#9;c2.2,0.8,16.8-0.9,20.7-9.5c6.4-14.3-14-13.7-14-13.7s24.9-9.5,26,12C225.5,281.8,221.8,289.4,217.1,293.6z"/>		<g>			<path fill="#0D0826" d="M196,266.9c-3.6,0.9-7,1.9-10.4,3.3c-3.3,1.4-6.5,3.1-9.6,5.1c2.7-2.5,5.9-4.5,9.3-5.9&#9;&#9;&#9;&#9;C188.7,268,192.4,267.1,196,266.9z"/>		</g>		<g>			<path fill="#097E8F" d="M193.8,275.8c-2.1-2.2-4.3-4.3-6.7-6.1c-2.4-1.8-5-3.3-7.8-4.7c3,0.7,5.8,2.1,8.3,4&#9;&#9;&#9;&#9;C190.1,270.8,192.3,273.1,193.8,275.8z"/>		</g>		<g>			<path fill="#0D0826" d="M193.7,277.6c-2.5,0.4-5,0.9-7.4,1.7c-2.4,0.8-4.6,1.9-6.9,3.2c1.8-1.9,4.1-3.2,6.5-4.1&#9;&#9;&#9;&#9;C188.5,277.7,191.1,277.3,193.7,277.6z"/>		</g>		<g>			<path fill="#097E8F" d="M193.5,283.4c-1.9-1.6-3.8-3.1-5.9-4.3c-2.1-1.2-4.3-2.2-6.6-3c2.5,0.1,4.9,1,7.1,2.2&#9;&#9;&#9;&#9;C190.2,279.6,192.1,281.3,193.5,283.4z"/>		</g>		<g>			<path fill="#FFFFFF" d="M219,260.7c1.2,2,1.8,4.3,2.1,6.6c0.3,2.3,0.1,4.7-0.4,7c-0.6,2.3-1.5,4.5-2.8,6.4l-1,1.4l-1.1,1.3&#9;&#9;&#9;&#9;l-1.3,1.2c-0.5,0.4-0.9,0.7-1.4,1c1.7-1.6,3.1-3.4,4.2-5.3c1.1-2,2-4.1,2.5-6.3c0.5-2.2,0.7-4.5,0.6-6.7&#9;&#9;&#9;&#9;C220.3,265.1,219.8,262.8,219,260.7z"/>		</g>	</g>	<g>		<path fill="#097E8F" d="M138.1,220.1c0,0-6.6,37.8-1.7,66.6h8.3c0,0,4.2-53.8,10.8-66.6H138.1z"/>		<path fill="#FF4F56" d="M100.8,293.6h47.3c0.1-0.1,0.3-0.2,0.4-0.3c6.6-5.4,2.2-32.8,2.2-32.8l-26.3,1.4c0,0,3.6,17.6,1.4,18.5&#9;&#9;&#9;c-2.2,0.8-16.8-0.9-20.7-9.5c-6.4-14.3,14-13.7,14-13.7s-24.9-9.5-26,12C92.4,281.8,96.1,289.4,100.8,293.6z"/>		<g>			<path fill="#0D0826" d="M121.9,266.9c3.7,0.1,7.3,1.1,10.7,2.5c3.4,1.4,6.6,3.4,9.3,5.9c-3.1-1.9-6.3-3.7-9.6-5.1&#9;&#9;&#9;&#9;C128.9,268.9,125.5,267.8,121.9,266.9z"/>		</g>		<g>			<path fill="#097E8F" d="M124.2,275.8c1.5-2.7,3.7-5,6.1-6.9c2.5-1.8,5.3-3.3,8.3-4c-2.7,1.4-5.3,2.9-7.8,4.7&#9;&#9;&#9;&#9;C128.4,271.5,126.3,273.5,124.2,275.8z"/>		</g>		<g>			<path fill="#0D0826" d="M124.3,277.6c2.6-0.4,5.2,0,7.7,0.9c2.4,0.9,4.8,2.2,6.5,4.1c-2.2-1.3-4.5-2.4-6.9-3.2&#9;&#9;&#9;&#9;C129.3,278.6,126.8,278,124.3,277.6z"/>		</g>		<g>			<path fill="#097E8F" d="M124.4,283.4c1.3-2.1,3.3-3.8,5.4-5.1c2.2-1.3,4.6-2.1,7.1-2.2c-2.3,0.9-4.5,1.8-6.6,3&#9;&#9;&#9;&#9;C128.3,280.3,126.3,281.8,124.4,283.4z"/>		</g>		<g>			<path fill="#FFFFFF" d="M98.9,260.7c-0.8,2.2-1.3,4.4-1.4,6.7c-0.1,2.3,0.1,4.5,0.6,6.7c0.5,2.2,1.4,4.3,2.5,6.3&#9;&#9;&#9;&#9;c1.1,2,2.6,3.8,4.2,5.3c-0.5-0.3-0.9-0.7-1.4-1l-1.3-1.2l-1.1-1.3l-1-1.4c-1.3-2-2.2-4.2-2.8-6.4c-0.5-2.3-0.7-4.7-0.4-7&#9;&#9;&#9;&#9;C97.1,265,97.7,262.7,98.9,260.7z"/>		</g>	</g>	<polygon fill="#22D4C2" points="129.7,228.5 186.1,228.5 178.2,145.2 137.5,145.2 &#9;"/>	<path fill="#FF4F56" d="M181.7,155.4c2.5,1.6,5.2,3.3,6.6,5.9c1.4,2.6,1.2,6.5-1.4,8c-1.8,1.1-4.2,0.8-6-0.2&#9;&#9;c-1.8-1-3.2-2.6-4.6-4.2c2.2,2.2,2.4,6,0.5,8.5c-1.9,2.5-5.5,3.3-8.4,2.1c-2.8-1.2-4.7-4.3-4.7-7.4c1.3,2.9-0.1,6.6-2.8,8.2&#9;&#9;c-2.7,1.6-6.4,1.2-8.8-0.8c-2.4-2-3.6-5.4-3.2-8.5c0.7,3.6-3,7.3-6.6,6.6c-3.6-0.7-5.7-5.5-3.7-8.6c0.3,2.6-2.4,5-5,4.8&#9;&#9;c-2.6-0.2-4.8-2.5-5.4-5.1c-0.6-2.6,0.1-5.3,1.5-7.6s3.2-4.2,5.1-6.1L181.7,155.4z"/>	<path fill="#FFB846" d="M205,104.3c0,0-10-50.9-13.5-52.6s-9.2,59.8-9.2,59.8L205,104.3z"/>	<path fill="#FFB846" d="M202.3,93.9c0,0,23.1,28.6,8.7,48.3s-43,22.1-70.8,14.2c-27.7-7.9-24.9-33-24.9-33L202.3,93.9z"/>	<path fill="#FF4F56" d="M205.1,94.9c-24.9,18.4-54.7,29.1-89.9,32.8l-2.5-79.4c0,0-11.7,100.3-21,96.6s-17.7-38.2-17.7-38.2&#9;&#9;l5.3-3.4c0,0,6,28.5,9.3,21.6c3.4-6.9,3.2-103.9,18.6-109.1S169.1,34.7,205.1,94.9z"/>	<path fill="#097E8F" d="M128.3,70.1c13.7-6.6,26.9-14.3,39.5-23c5.7,5.5,11.4,11.8,17.1,18.8c-22.7,11.3-46.1,22.2-70.8,26&#9;&#9;l-0.5-15.9C118.6,74.5,123.5,72.4,128.3,70.1z M194.2,78.1c3.7,5.2,7.4,10.8,10.9,16.7c-24.9,18.4-54.7,29.1-89.9,32.8l-0.4-13.3&#9;&#9;c8.3-2,16.5-4.6,24.5-7.7C158.4,99.1,176.4,88.7,194.2,78.1z"/>	<path fill="#FFB846" d="M132,126.1c0,0-28.1-38.2-30.4-36.4c-2.3,1.7,14.9,45,14.9,45"/>	<g>		<path fill="#FFB846" d="M191.4,128.5c0,0,31.4,39.4,27.3,41.2c-4,1.8-37.9-30.5-37.9-30.5"/>		<path fill="#097E8F" d="M191.4,128.5c2.6,3.2,5.2,6.4,7.8,9.6c2.5,3.3,5.1,6.5,7.5,9.8c2.5,3.3,4.9,6.7,7.2,10.1&#9;&#9;&#9;c1.1,1.7,2.3,3.5,3.3,5.3c0.5,0.9,1,1.8,1.5,2.8c0.2,0.5,0.4,1,0.6,1.5c0.1,0.5,0.4,1,0.2,1.8c0,0.2-0.2,0.4-0.4,0.6&#9;&#9;&#9;c-0.2,0.2-0.4,0.2-0.6,0.2c-0.4,0-0.7,0-0.9-0.1c-0.6-0.2-1-0.4-1.5-0.6c-0.9-0.5-1.8-1.1-2.7-1.6c-1.7-1.2-3.4-2.4-5-3.7&#9;&#9;&#9;c-3.2-2.6-6.4-5.2-9.5-8c-3.1-2.7-6.1-5.5-9.2-8.4c-3-2.8-6-5.7-8.9-8.6c3,2.8,6.1,5.5,9.2,8.3c3.1,2.7,6.2,5.5,9.3,8.2&#9;&#9;&#9;c3.2,2.7,6.3,5.3,9.5,7.9c1.6,1.3,3.3,2.5,5,3.6c0.8,0.6,1.7,1.1,2.6,1.6c0.4,0.2,0.9,0.4,1.3,0.5c0.2,0.1,0.4,0.1,0.6,0.1&#9;&#9;&#9;c0.2,0,0.1,0,0.2-0.1c0.1-0.3,0-0.8-0.2-1.2c-0.1-0.5-0.4-0.9-0.6-1.4c-0.4-0.9-0.9-1.8-1.4-2.7c-1-1.8-2.1-3.5-3.3-5.2&#9;&#9;&#9;c-2.3-3.4-4.7-6.8-7-10.2c-2.4-3.4-4.8-6.7-7.3-10C196.4,135.1,193.9,131.8,191.4,128.5z"/>	</g>	<g>		<path fill="#097E8F" d="M117.9,29.5c-1.4,2-2.5,4.2-3.3,6.4c-0.8,2.2-1.4,4.6-1.7,7c-0.3,2.4-0.3,4.8,0,7.2c0.3,2.4,0.9,4.7,1.7,7&#9;&#9;&#9;c-1.2-2.1-2-4.5-2.4-6.9c-0.4-2.4-0.5-4.9-0.2-7.4c0.3-2.5,0.9-4.9,2-7.1C114.9,33.3,116.2,31.2,117.9,29.5z"/>	</g>	<g>		<path fill="#097E8F" d="M105,36.1c-0.1,3.6,0.2,7.2,1.1,10.6c0.9,3.4,2.3,6.7,4,9.9c-2.4-2.7-4.1-6.1-5-9.6&#9;&#9;&#9;C104.3,43.4,104.1,39.6,105,36.1z"/>	</g>	<g>		<path fill="#097E8F" d="M87.7,124.9c1.9,1.3,3.2,3.2,4.1,5.2c0.9,2.1,1.3,4.4,0.9,6.6c-0.4-2.2-0.9-4.3-1.7-6.2&#9;&#9;&#9;C90.1,128.6,89,126.7,87.7,124.9z"/>	</g>	<g>		<path fill="#097E8F" d="M128.3,144c-0.8-2.7-1.7-5.3-2.8-7.8c-1.1-2.5-2.3-5-3.7-7.4c-1.4-2.4-2.9-4.7-4.5-6.9&#9;&#9;&#9;c-1.6-2.2-3.4-4.3-5.3-6.4c2.1,1.8,4.1,3.8,5.9,6c1.8,2.2,3.4,4.5,4.8,6.9c1.4,2.4,2.6,5,3.5,7.6&#9;&#9;&#9;C127.1,138.5,127.8,141.2,128.3,144z"/>	</g>	<g>		<path fill="#0D0826" d="M201.7,114c0.5,1.3,0.9,2.7,1.2,4c0.3,1.3,0.5,2.7,0.7,4.1c0.1,1.4,0.3,2.7,0.3,4.1c0,1.4,0,2.8-0.3,4.2&#9;&#9;&#9;c-0.5-1.3-0.9-2.7-1.2-4c-0.3-1.3-0.5-2.7-0.7-4.1c-0.1-1.4-0.3-2.7-0.3-4.1C201.5,116.8,201.5,115.4,201.7,114z"/>	</g>	<g>		<path fill="#0D0826" d="M167.1,121.5c0.5,1.3,0.9,2.7,1.2,4c0.3,1.3,0.5,2.7,0.7,4.1c0.1,1.4,0.3,2.7,0.3,4.1c0,1.4,0,2.8-0.3,4.2&#9;&#9;&#9;c-0.5-1.3-0.9-2.7-1.2-4c-0.3-1.3-0.5-2.7-0.7-4.1c-0.1-1.4-0.3-2.7-0.3-4.1C166.9,124.3,166.9,122.9,167.1,121.5z"/>	</g>	<g>		<path fill="#0D0826" d="M175.1,148.6c-2.5,1.2-5.3,1.9-8.1,2c-2.8,0.2-5.7-0.2-8.4-1c-2.7-0.8-5.3-2.1-7.6-3.7&#9;&#9;&#9;c-2.3-1.7-4.3-3.7-5.7-6.1c2,1.9,4.2,3.5,6.5,4.9c2.3,1.3,4.8,2.4,7.4,3.2c2.6,0.8,5.2,1.2,7.9,1.4&#9;&#9;&#9;C169.6,149.3,172.3,149.1,175.1,148.6z"/>	</g>			<rect x="127.2" y="209.9" transform="matrix(-1 -1.224647e-16 1.224647e-16 -1 315.1557 429.7151)" fill="#4A3F6F" width="60.7" height="9.8"/>			<rect x="151.7" y="204.9" transform="matrix(-1 -1.224647e-16 1.224647e-16 -1 322.9582 428.2049)" fill="#DB3549" width="19.6" height="18.4"/>			<rect x="155.4" y="208.7" transform="matrix(-1 -1.224647e-16 1.224647e-16 -1 323.965 428.2049)" fill="#4A3F6F" width="13.1" height="10.8"/>			<rect x="161.5" y="213.5" transform="matrix(-1 -1.224647e-16 1.224647e-16 -1 332.0192 429.4634)" fill="#FF4F56" width="9.1" height="2.5"/>	<circle fill="#4A3F6F" cx="184.6" cy="164.7" r="2.6"/>	<circle fill="#4A3F6F" cx="172.1" cy="169.7" r="2.6"/>	<circle fill="#4A3F6F" cx="157.8" cy="171" r="2.6"/>	<circle fill="#4A3F6F" cx="144.4" cy="167.9" r="2.6"/>	<circle fill="#4A3F6F" cx="133.8" cy="162.3" r="2.6"/>	<path fill="#097E8F" d="M52.2,94.2c-1.3,1.6-2.4,3.4-3.6,5.5c-0.4-2.3,0.1-4.8,1-6.9c1-2.2,2.4-4.2,4.3-5.8c1.8-1.6,4-2.8,6.3-3.5&#9;&#9;c0.4-0.1,0.9-0.2,1.3-0.3c0,0-0.1,0-0.1,0c-2.3,0-4.7,0.1-7.2,0.2c2-1.6,4.4-2.6,6.9-3.1c2.5-0.5,5.1-0.6,7.7-0.3&#9;&#9;c2.1,0.3,4.1,0.9,6.1,1.8c-0.5-0.5-0.9-1-1.4-1.5c-1.3-1.3-2.7-2.4-4.3-3.7c2.1-0.2,4.2,0.4,6,1.3c1.9,1,3.5,2.4,4.8,4.1&#9;&#9;c1,1.4,1.8,3,2.3,4.7c0.8,0.8,1.6,1.6,2.2,2.5c-0.3-1.3-0.7-2.7-1.2-4c-0.8-2.1-1.9-4.1-3.1-6.3c2.3,1,4.3,2.8,5.7,4.9&#9;&#9;c1.5,2.1,2.5,4.5,2.9,7.1c0.5,2.5,0.4,5.2-0.2,7.6c-0.3,1.2-0.7,2.3-1.3,3.4c-1.5,7.5-8.1,13.2-16,13.2c-1.5,0-2.9-0.2-4.3-0.6&#9;&#9;c0.3,0.3,0.6,0.6,0.9,0.8c1.4,1.3,2.9,2.5,4.6,3.9c-2.1,0.1-4.2-0.5-6.1-1.4c-1.9-0.9-3.7-2.2-5.2-3.7c-1.5-1.5-2.7-3.3-3.6-5.2&#9;&#9;c-0.5-1.1-0.8-2.2-1.1-3.3c-0.4-0.9-0.8-1.9-1-2.9c-0.3,1.4-0.5,2.8-0.5,4.3c-0.1,2.1,0,4.3,0.3,6.6c-1.7-1.7-2.8-4-3.3-6.4&#9;&#9;c-0.5-2.4-0.4-4.9,0.2-7.3c0.6-2.4,1.7-4.7,3.3-6.5c0.2-0.2,0.4-0.4,0.6-0.6c0.8-1.9,1.9-3.7,3.2-5.1c-1,0.7-1.9,1.4-2.8,2.2&#9;&#9;C54.8,91.1,53.4,92.5,52.2,94.2z"/>	<ellipse fill="#4A3F6F" cx="160.1" cy="184.5" rx="3.3" ry="4.9"/>	<ellipse fill="#4A3F6F" cx="160.1" cy="197.9" rx="2.9" ry="4.3"/></g></svg>