<?xml version="1.0" standalone="no"?><!DOCTYPE svg PUBLIC "-//W3C//DTD SVG 1.1//EN" "http://www.w3.org/Graphics/SVG/1.1/DTD/svg11.dtd"><svg id="Frankenrilla0.svg" width="150" height="150" version="1.1" viewBox="0 0 300 300" xmlns="http://www.w3.org/2000/svg" xmlns:xlink="http://www.w3.org/1999/xlink"><defs xmlns="http://www.w3.org/1999/xhtml"><style type="text/css"><![CDATA[
* { border: 0px; margin: 0px; padding: 0px; }
html { background-color: rgb(255, 255, 255); font-family: Verdana, Arial; }
.webgl-content * { position: absolute; width: 100%; height: 100%; user-select: none; }
.webgl-content .logo, .progress { position: absolute; left: 50%; top: 50%; transform: translate(-50%, -50%); }
.webgl-content .logo { background: url("progressLogo.Light.png") center center / contain no-repeat; width: 154px; height: 130px; }
.webgl-content .progress { height: 18px; width: 141px; margin-top: 90px; }
.webgl-content .progress .empty { background: url("progressEmpty.Light.png") right center / cover no-repeat; float: right; width: 100%; height: 100%; display: inline-block; }
.webgl-content .progress .full { background: url("progressFull.Light.png") left center / cover no-repeat; float: left; width: 0%; height: 100%; display: inline-block; }
.webgl-content .logo.Dark { background-image: url("progressLogo.Dark.png"); }
.webgl-content .progress.Dark .empty { background-image: url("progressEmpty.Dark.png"); }
.webgl-content .progress.Dark .full { background-image: url("progressFull.Dark.png"); }
#loading-content { z-index: 10000; position: fixed; width: 100%; height: 100%; left: 0px; top: 0px; overflow: hidden; background: url("background.png"); }
.hud-intro .hud-intro-social .btn-discord, .hud-respawn .hud-respawn-social .btn-discord { background-image: url("//lordz.io/images/discord-icon.png"); }
.hud-intro .hud-intro-social .btn-twitter, .hud-respawn .hud-respawn-social .btn-twitter { background-image: url("//lordz.io/images/twitter-icon.png"); }
.hud-intro .hud-intro-social .btn-facebook, .hud-respawn .hud-respawn-social .btn-facebook { background-image: url("//lordz.io/images/facebook-icon.png"); }
.hud-intro .hud-intro-social .btn-youtube, .hud-respawn .hud-respawn-social .btn-youtube { background-image: url("//lordz.io/images/youtube-icon.png"); }
* { box-sizing: border-box; user-select: none; }
.btn { position: relative; display: inline-block; top: 0px; height: 36px; line-height: 36px; padding: 0px 20px; background: rgb(68, 68, 68); color: rgb(238, 238, 238); border: 0px; font-size: 14px; vertical-align: top; text-align: center; text-decoration: none; text-shadow: rgba(0, 0, 0, 0.4) 0px 1px 0px; box-shadow: rgba(0, 0, 0, 0.2) 0px 2px 10px, rgb(51, 51, 51) 0px 4px 0px; border-radius: 4px; transition: all 0.15s ease-in-out 0s; }
.btn:hover, .btn:active { background-color: rgb(85, 85, 85); color: rgb(255, 255, 255); }
.btn:active { top: 4px; box-shadow: rgba(0, 0, 0, 0.2) 0px 2px 10px !important; }
.btn-green { background-color: rgb(71, 149, 13); box-shadow: rgba(0, 0, 0, 0.2) 0px 2px 10px, rgb(53, 131, 0) 0px 4px 0px; }
.btn-green:hover, .btn-green:active { background-color: rgb(100, 184, 32); }
.btn-red { background-color: rgb(179, 53, 60); box-shadow: rgba(0, 0, 0, 0.2) 0px 2px 10px, rgb(161, 35, 42) 0px 4px 0px; }
.btn-red:hover, .btn-red:active { background-color: rgb(203, 87, 91); }
.btn-blue { background-color: rgb(29, 141, 238); box-shadow: rgba(0, 0, 0, 0.2) 0px 2px 10px, rgb(11, 123, 220) 0px 4px 0px; }
.btn-blue:hover, .btn-blue:active { background-color: rgb(79, 167, 238); }
.btn-purple { background-color: rgb(114, 55, 228); box-shadow: rgba(0, 0, 0, 0.2) 0px 2px 10px, rgb(96, 37, 210) 0px 4px 0px; }
.btn-purple:hover, .btn-purple:active { background-color: rgb(130, 89, 228); }
.btn-twitter { background-color: rgb(27, 149, 224); box-shadow: rgba(0, 0, 0, 0.2) 0px 2px 10px, rgb(9, 131, 206) 0px 4px 0px; }
.btn-twitter:hover, .btn-twitter:active { background-color: rgb(12, 122, 191); }
.btn-facebook { background-color: rgb(66, 103, 178); box-shadow: rgba(0, 0, 0, 0.2) 0px 2px 10px, rgb(48, 85, 160) 0px 4px 0px; }
.btn-facebook:hover, .btn-facebook:active { background-color: rgb(54, 88, 153); }
.btn-google { background-color: rgb(221, 75, 57); box-shadow: rgba(0, 0, 0, 0.2) 0px 2px 10px, rgb(203, 57, 39) 0px 4px 0px; }
.btn-google:hover, .btn-google:active { background-color: rgb(186, 63, 49); }
.btn-discord { background-color: rgb(114, 137, 218); box-shadow: rgba(0, 0, 0, 0.2) 0px 2px 10px, rgb(96, 119, 200) 0px 4px 0px; }
.btn-discord:hover, .btn-discord:active { background-color: rgb(90, 109, 176); }
.btn-youtube { background-color: rgb(229, 45, 39); box-shadow: rgba(0, 0, 0, 0.2) 0px 2px 10px, rgb(211, 27, 21) 0px 4px 0px; }
.btn-youtube:hover, .btn-youtube:active { background-color: rgb(186, 37, 33); }
.hud { position: fixed; top: 0px; left: 0px; bottom: 0px; right: 0px; }
.hud .hud-bottom-left { display: flex; position: absolute; bottom: 20px; left: 20px; flex-direction: column-reverse; }
.hud-intro .hud-intro-corner-bottom-left, .hud-respawn .hud-respawn-corner-bottom-left { position: fixed; bottom: 20px; left: 20px; text-align: left; }
.hud-intro .hud-intro-social, .hud-respawn .hud-respawn-social { width: 240px; line-height: 24px; font-size: 14px; color: rgb(119, 119, 119); }
.hud-intro .hud-intro-social .btn, .hud-respawn .hud-respawn-social .btn { display: block; float: left; margin: 0px 10px 0px 0px; width: 40px; height: 40px; line-height: 40px; background-size: 24px; background-position: center center; background-repeat: no-repeat; }
.hud-intro .hud-intro-more-games { position: relative; bottom: 5px; line-height: 20px; font-size: 14px; color: rgba(255, 255, 255, 0.4); text-shadow: rgba(0, 0, 0, 0.2) 0px 1px 3px; }
.hud-intro .hud-intro-more-games a { display: inline-block; padding: 0px 20px; line-height: 40px; background: rgb(132, 115, 212); color: rgb(238, 238, 238); text-decoration: none; border-radius: 4px; transition: all 0.15s ease-in-out 0s; }
.hud-intro .hud-intro-more-games a:hover, .hud-intro .hud-intro-more-games a:active { background: rgb(103, 90, 166); }
#preroll video { left: 0px; top: 0px; }
.fb_hidden { position: absolute; top: -10000px; z-index: 10001; }
.fb_reposition { overflow: hidden; position: relative; }
.fb_invisible { display: none; }
.fb_reset { background: none; border: 0px; border-spacing: 0px; color: rgb(0, 0, 0); cursor: auto; direction: ltr; font-family: "lucida grande", tahoma, verdana, arial, sans-serif; font-size: 11px; font-style: normal; font-variant: normal; font-weight: normal; letter-spacing: normal; line-height: 1; margin: 0px; overflow: visible; padding: 0px; text-align: left; text-decoration: none; text-indent: 0px; text-shadow: none; text-transform: none; visibility: visible; white-space: normal; word-spacing: normal; }
.fb_animate { animation: 0.3s ease 0s 1 normal forwards running fb_transform; }
.fb_dialog { background: rgba(82, 82, 82, 0.7); position: absolute; top: -10000px; z-index: 10001; }
.fb_dialog_advanced { border-radius: 8px; padding: 10px; }
.fb_dialog_content { background: rgb(255, 255, 255); color: rgb(55, 55, 55); }
.fb_dialog_close_icon { background: url("https://static.xx.fbcdn.net/rsrc.php/v3/yq/r/IE9JII6Z1Ys.png") 0px 0px no-repeat scroll transparent; cursor: pointer; display: block; height: 15px; position: absolute; right: 18px; top: 17px; width: 15px; }
.fb_dialog_mobile .fb_dialog_close_icon { left: 5px; right: auto; top: 5px; }
.fb_dialog_padding { background-color: transparent; position: absolute; width: 1px; z-index: -1; }
.fb_dialog_close_icon:hover { background: url("https://static.xx.fbcdn.net/rsrc.php/v3/yq/r/IE9JII6Z1Ys.png") 0px -15px no-repeat scroll transparent; }
.fb_dialog_close_icon:active { background: url("https://static.xx.fbcdn.net/rsrc.php/v3/yq/r/IE9JII6Z1Ys.png") 0px -30px no-repeat scroll transparent; }
.fb_dialog_iframe { line-height: 0; }
.fb_dialog_content .dialog_title { background: rgb(109, 132, 180); border: 1px solid rgb(54, 88, 153); color: rgb(255, 255, 255); font-size: 14px; font-weight: bold; margin: 0px; }
body.fb_hidden { height: 100%; left: 0px; margin: 0px; overflow: visible; position: absolute; top: -10000px; transform: none; width: 100%; }
.fb_dialog.fb_dialog_mobile.loading { background: url("https://static.xx.fbcdn.net/rsrc.php/v3/ya/r/3rhSv5V8j3o.gif") 50% 50% no-repeat white; min-height: 100%; min-width: 100%; overflow: hidden; position: absolute; top: 0px; z-index: 10001; }
.fb_dialog.fb_dialog_mobile.loading.centered { background: none; height: auto; min-height: initial; min-width: initial; width: auto; }
.fb_dialog.fb_dialog_mobile.loading.centered #fb_dialog_loader_spinner { width: 100%; }
.fb_dialog.fb_dialog_mobile.loading.centered .fb_dialog_content { background: none; }
.loading.centered #fb_dialog_loader_close { clear: both; color: rgb(255, 255, 255); display: block; font-size: 18px; padding-top: 20px; }
#fb-root #fb_dialog_ipad_overlay { background: rgba(0, 0, 0, 0.4); bottom: 0px; left: 0px; min-height: 100%; position: absolute; right: 0px; top: 0px; width: 100%; z-index: 10000; }
#fb-root #fb_dialog_ipad_overlay.hidden { display: none; }
.fb_dialog.fb_dialog_mobile.loading iframe { visibility: hidden; }
.fb_dialog_mobile .fb_dialog_iframe { position: sticky; top: 0px; }
.fb_dialog_content .dialog_header { border-bottom: 1px solid rgb(4, 59, 135); border-top-color: rgb(4, 59, 135); border-right-color: rgb(4, 59, 135); border-left-color: rgb(4, 59, 135); box-shadow: white 0px 1px 1px -1px inset; color: rgb(255, 255, 255); font: bold 14px Helvetica, sans-serif; text-overflow: ellipsis; text-shadow: rgba(0, 30, 84, 0.298) 0px -1px 0px; vertical-align: middle; white-space: nowrap; }
.fb_dialog_content .dialog_header table { height: 43px; width: 100%; }
.fb_dialog_content .dialog_header td.header_left { font-size: 12px; padding-left: 5px; vertical-align: middle; width: 60px; }
.fb_dialog_content .dialog_header td.header_right { font-size: 12px; padding-right: 5px; vertical-align: middle; width: 60px; }
.fb_dialog_content .touchable_button { background-clip: padding-box; border: 1px solid rgb(41, 72, 125); border-radius: 3px; display: inline-block; line-height: 18px; margin-top: 3px; max-width: 85px; padding: 4px 12px; position: relative; }
.fb_dialog_content .dialog_header .touchable_button input { background: none; border: none; color: rgb(255, 255, 255); font: bold 12px Helvetica, sans-serif; margin: 2px -12px; padding: 2px 6px 3px; text-shadow: rgba(0, 30, 84, 0.298) 0px -1px 0px; }
.fb_dialog_content .dialog_header .header_center { color: rgb(255, 255, 255); font-size: 16px; font-weight: bold; line-height: 18px; text-align: center; vertical-align: middle; }
.fb_dialog_content .dialog_content { background: url("https://static.xx.fbcdn.net/rsrc.php/v3/y9/r/jKEcVPZFk-2.gif") 50% 50% no-repeat; border-width: 0px 1px; border-right-style: solid; border-left-style: solid; border-right-color: rgb(74, 74, 74); border-left-color: rgb(74, 74, 74); border-image: initial; border-bottom-style: initial; border-bottom-color: initial; border-top-style: initial; border-top-color: initial; height: 150px; }
.fb_dialog_content .dialog_footer { background: rgb(245, 246, 247); border-width: 1px; border-style: solid; border-color: rgb(204, 204, 204) rgb(74, 74, 74) rgb(74, 74, 74); border-image: initial; height: 40px; }
#fb_dialog_loader_close { float: left; }
.fb_dialog.fb_dialog_mobile .fb_dialog_close_button { text-shadow: rgba(0, 30, 84, 0.298) 0px -1px 0px; }
.fb_dialog.fb_dialog_mobile .fb_dialog_close_icon { visibility: hidden; }
#fb_dialog_loader_spinner { animation: 1.2s linear 0s infinite normal none running rotateSpinner; background-color: transparent; background-image: url("https://static.xx.fbcdn.net/rsrc.php/v3/yD/r/t-wz8gw1xG1.png"); background-position: 50% 50%; background-repeat: no-repeat; height: 24px; width: 24px; }
.fb_iframe_widget { display: inline-block; position: relative; }
.fb_iframe_widget span { display: inline-block; position: relative; text-align: justify; }
.fb_iframe_widget iframe { position: absolute; }
.fb_iframe_widget_fluid_desktop, .fb_iframe_widget_fluid_desktop span, .fb_iframe_widget_fluid_desktop iframe { max-width: 100%; }
.fb_iframe_widget_fluid_desktop iframe { min-width: 220px; position: relative; }
.fb_iframe_widget_lift { z-index: 1; }
.fb_iframe_widget_fluid { display: inline; }
.fb_iframe_widget_fluid span { width: 100%; }
.st0 { fill: rgb(119, 183, 73); }
.st1 { fill: rgb(247, 175, 47); }
.st2 { fill: rgb(233, 81, 15); }
.st3 { fill: url("#SVGID_1_"); }
.st4 { fill: url("#SVGID_2_"); }
.st5 { fill: rgb(252, 242, 119); }
.st6 { fill: url("#SVGID_3_"); }
.st7 { fill: url("#SVGID_4_"); }
.st8 { fill: url("#SVGID_5_"); }
.st9 { fill: url("#SVGID_6_"); }
.st10 { fill: url("#SVGID_7_"); }
.st11 { fill: url("#SVGID_8_"); }
.st12 { fill: url("#SVGID_9_"); }
.st13 { fill: url("#SVGID_10_"); }
.st14 { fill: url("#SVGID_11_"); }
.st15 { fill: url("#SVGID_12_"); }
.st16 { fill: url("#SVGID_13_"); }
.st17 { fill: url("#SVGID_14_"); }
.st18 { fill: url("#SVGID_15_"); }
.st19 { fill: url("#SVGID_16_"); }
.st0 { fill: rgb(119, 183, 73); }
.st1 { fill: rgb(247, 175, 47); }
.st2 { fill: rgb(233, 81, 15); }
.st3 { fill: url("#SVGID_1_"); }
.st4 { fill: url("#SVGID_2_"); }
.st5 { fill: rgb(252, 242, 119); }
.st6 { fill: url("#SVGID_3_"); }
.st7 { fill: url("#SVGID_4_"); }
.st8 { fill: url("#SVGID_5_"); }
.st9 { fill: url("#SVGID_6_"); }
.st10 { fill: url("#SVGID_7_"); }
.st11 { fill: url("#SVGID_8_"); }
.st12 { fill: url("#SVGID_9_"); }
.st13 { fill: url("#SVGID_10_"); }
.st14 { fill: url("#SVGID_11_"); }
.st15 { fill: url("#SVGID_12_"); }
.st16 { fill: url("#SVGID_13_"); }
.st17 { fill: url("#SVGID_14_"); }
.st18 { fill: url("#SVGID_15_"); }
.st19 { fill: url("#SVGID_16_"); }
.st0 { fill: rgb(119, 183, 73); }
.st1 { fill: rgb(247, 175, 47); }
.st2 { fill: rgb(233, 81, 15); }
.st3 { fill: url("#SVGID_1_"); }
.st4 { fill: url("#SVGID_2_"); }
.st5 { fill: rgb(252, 242, 119); }
.st6 { fill: url("#SVGID_3_"); }
.st7 { fill: url("#SVGID_4_"); }
.st8 { fill: url("#SVGID_5_"); }
.st9 { fill: url("#SVGID_6_"); }
.st10 { fill: url("#SVGID_7_"); }
.st11 { fill: url("#SVGID_8_"); }
.st12 { fill: url("#SVGID_9_"); }
.st13 { fill: url("#SVGID_10_"); }
.st14 { fill: url("#SVGID_11_"); }
.st15 { fill: url("#SVGID_12_"); }
.st16 { fill: url("#SVGID_13_"); }
.st17 { fill: url("#SVGID_14_"); }
.st18 { fill: url("#SVGID_15_"); }
.st19 { fill: url("#SVGID_16_"); }
.st0 { fill: rgb(119, 183, 73); }
.st1 { fill: rgb(247, 175, 47); }
.st2 { fill: rgb(233, 81, 15); }
.st3 { fill: url("#SVGID_1_"); }
.st4 { fill: url("#SVGID_2_"); }
.st5 { fill: rgb(252, 242, 119); }
.st6 { fill: url("#SVGID_3_"); }
.st7 { fill: url("#SVGID_4_"); }
.st8 { fill: url("#SVGID_5_"); }
.st9 { fill: url("#SVGID_6_"); }
.st10 { fill: url("#SVGID_7_"); }
.st11 { fill: url("#SVGID_8_"); }
.st12 { fill: url("#SVGID_9_"); }
.st13 { fill: url("#SVGID_10_"); }
.st14 { fill: url("#SVGID_11_"); }
.st15 { fill: url("#SVGID_12_"); }
.st16 { fill: url("#SVGID_13_"); }
.st17 { fill: url("#SVGID_14_"); }
.st18 { fill: url("#SVGID_15_"); }
.st19 { fill: url("#SVGID_16_"); }]]></style></defs><path fill="rgb(102, 172, 57)" d=" M 90.940000 66.490000 C 90.940000 66.490000 51.830000 70.340000 24.220000 101.910000 C 17.860000 104.830000 9.440000 109.420000 6.070000 114.480000 L 11.370000 113.120000 C 11.370000 113.120000 2.530000 123.080000 2.090000 130.320000 L 6.950000 127.160000 C 6.950000 127.160000 1.210000 140.740000 1.210000 147.980000 L 6.400000 146.650000 C 1.340000 185.050000 1.750000 241.950000 7.210000 269.130000 C 7.170000 269.150000 7.140000 269.160000 7.140000 269.160000 C 7.140000 269.160000 7.220000 269.430000 7.360000 269.890000 C 7.400000 270.030000 7.420000 270.180000 7.450000 270.310000 C 7.450000 270.310000 7.470000 270.320000 7.500000 270.320000 C 9.000000 275.060000 14.770000 292.810000 17.320000 293.050000 C 20.270000 293.320000 18.390000 284.540000 17.320000 276.570000 C 17.320000 276.570000 20.530000 288.380000 24.290000 291.400000 C 28.040000 294.420000 28.040000 285.630000 26.160000 278.490000 C 24.290000 271.350000 28.840000 287.830000 34.730000 290.300000 C 40.630000 292.770000 37.680000 282.890000 35.810000 276.850000 C 33.930000 270.810000 45.990000 283.990000 49.470000 281.510000 C 49.470000 281.510000 51.050000 276.150000 46.900000 268.650000 C 46.950000 268.630000 47.000000 268.620000 47.050000 268.600000 C 47.050000 268.600000 34.280000 196.290000 78.900000 178.560000 C 90.800000 140.840000 115.530000 85.790000 90.940000 66.490000 Z"/><path fill="rgb(58, 97, 34)" d=" M 40.300000 189.510000 C 39.790000 193.620000 38.990000 198.300000 36.400000 201.650000 C 32.790000 206.320000 32.400000 196.110000 32.450000 195.030000 C 32.570000 192.620000 32.970000 190.220000 33.280000 187.830000 C 33.420000 186.780000 31.710000 187.020000 31.380000 187.680000 C 29.770000 190.810000 28.720000 194.190000 27.060000 197.300000 C 24.340000 202.390000 22.820000 195.990000 23.280000 193.060000 C 23.700000 190.310000 25.070000 187.630000 26.290000 185.160000 C 26.790000 184.140000 25.040000 184.100000 24.550000 184.640000 C 21.890000 187.660000 20.190000 191.530000 17.820000 194.770000 C 17.540000 195.160000 15.590000 197.970000 14.850000 195.720000 C 14.460000 194.490000 15.290000 192.340000 15.660000 191.270000 C 16.390000 189.150000 17.510000 187.160000 18.530000 185.160000 C 19.070000 184.100000 17.140000 184.090000 16.680000 184.820000 C 14.440000 188.380000 12.790000 192.510000 9.600000 195.360000 C 7.060000 197.630000 7.670000 192.870000 7.740000 192.500000 C 8.030000 190.830000 8.760000 189.200000 9.430000 187.650000 C 10.310000 185.590000 11.360000 183.480000 12.690000 181.670000 C 13.440000 180.660000 11.650000 180.200000 11.080000 180.970000 C 9.040000 183.740000 2.040000 195.020000 7.410000 197.320000 C 9.300000 198.140000 11.180000 196.790000 12.860000 194.720000 C 12.580000 196.900000 13.120000 198.550000 15.450000 198.490000 C 17.720000 198.430000 19.650000 196.170000 21.330000 193.470000 C 20.560000 197.220000 20.900000 200.750000 24.650000 201.180000 C 27.080000 201.460000 28.890000 198.720000 30.270000 195.610000 C 30.010000 199.920000 30.660000 204.170000 34.770000 204.060000 C 40.490000 203.920000 41.770000 193.540000 42.270000 189.460000 C 42.390000 188.410000 40.410000 188.570000 40.300000 189.510000 Z"/><path fill="rgb(58, 97, 34)" d=" M 30.500000 220.540000 C 30.300000 221.780000 30.360000 223.060000 30.340000 224.310000 C 30.330000 224.880000 29.590000 233.800000 27.090000 230.480000 C 25.350000 228.150000 25.330000 224.270000 24.700000 221.510000 C 24.510000 220.680000 23.070000 220.910000 22.800000 221.570000 C 21.190000 225.480000 21.810000 229.790000 20.220000 233.640000 C 18.140000 231.190000 17.400000 227.910000 17.320000 224.700000 C 17.350000 223.830000 17.350000 223.080000 17.360000 222.530000 C 17.380000 221.470000 15.450000 221.640000 15.390000 222.580000 C 15.370000 223.090000 15.350000 223.610000 15.350000 224.130000 C 15.210000 227.460000 14.770000 230.990000 13.520000 234.010000 C 12.410000 236.720000 10.920000 232.800000 10.820000 232.460000 C 10.470000 231.370000 10.380000 230.190000 10.270000 229.060000 C 10.070000 226.910000 10.150000 224.670000 10.420000 222.530000 C 10.550000 221.480000 8.570000 221.640000 8.450000 222.580000 C 8.060000 225.760000 7.060000 236.610000 12.400000 236.470000 C 14.740000 236.410000 15.960000 234.140000 16.600000 231.380000 C 17.290000 233.030000 18.290000 234.530000 19.700000 235.770000 C 20.210000 236.220000 21.080000 235.910000 21.390000 235.380000 C 23.010000 232.640000 23.130000 229.620000 23.520000 226.620000 C 24.130000 229.700000 25.220000 232.900000 27.890000 232.840000 C 33.610000 232.690000 31.930000 223.930000 32.470000 220.490000 C 32.630000 219.450000 30.650000 219.600000 30.500000 220.540000 Z"/><path fill="rgb(102, 172, 57)" d=" M 278.190000 163.830000 L 282.600000 165.190000 C 281.720000 158.390000 274.210000 148.890000 274.210000 148.890000 L 279.070000 148.890000 C 276.860000 139.830000 263.170000 129.420000 263.170000 129.420000 L 263.100000 129.550000 C 254.670000 112.900000 242.040000 99.010000 223.330000 91.360000 L 221.660000 165.690000 L 235.050000 190.840000 C 235.050000 190.840000 240.600000 232.950000 237.300000 259.260000 C 237.240000 259.350000 237.170000 259.440000 237.120000 259.530000 C 232.340000 268.520000 234.710000 274.640000 234.710000 274.640000 C 238.320000 276.790000 248.990000 262.560000 247.670000 268.750000 C 246.350000 274.940000 244.310000 285.050000 249.870000 282.050000 C 255.420000 279.060000 258.470000 262.230000 257.240000 269.510000 C 256.020000 276.800000 256.760000 285.550000 260.180000 282.200000 C 263.590000 278.850000 265.730000 266.790000 265.730000 266.790000 C 265.360000 274.830000 264.270000 283.750000 267.130000 283.200000 C 269.980000 282.660000 275.050000 258.480000 275.050000 258.480000 C 275.050000 258.480000 275.000000 258.470000 274.930000 258.450000 C 276.280000 250.310000 282.040000 211.680000 276.160000 172.940000 L 282.160000 176.500000 C 281.720000 167.900000 278.190000 163.830000 278.190000 163.830000 Z"/><path fill="rgb(58, 97, 34)" d=" M 262.730000 187.590000 C 261.900000 187.120000 260.500000 188.320000 261.590000 188.930000 C 264.630000 190.650000 265.340000 194.760000 265.140000 197.950000 C 265.100000 198.570000 264.700000 201.820000 263.520000 201.470000 C 261.480000 200.850000 260.170000 197.290000 259.380000 195.610000 C 259.060000 194.920000 257.510000 195.290000 257.500000 196.040000 C 257.500000 198.540000 257.430000 200.930000 256.310000 203.120000 C 255.170000 201.830000 254.340000 200.360000 253.740000 198.760000 C 253.530000 197.580000 253.220000 196.510000 252.930000 195.790000 C 252.570000 194.900000 250.800000 195.240000 250.980000 196.240000 C 251.190000 197.420000 251.520000 198.560000 251.950000 199.640000 C 252.300000 201.660000 252.220000 203.790000 251.130000 205.270000 C 250.350000 206.330000 248.400000 204.910000 247.810000 204.450000 C 246.700000 203.590000 246.230000 201.970000 245.890000 200.690000 C 245.360000 198.780000 245.390000 196.720000 245.590000 194.770000 C 245.700000 193.710000 243.720000 193.880000 243.620000 194.820000 C 243.140000 199.440000 244.240000 207.640000 250.630000 207.080000 C 252.750000 206.890000 253.680000 205.250000 253.940000 203.220000 C 254.460000 203.910000 255.040000 204.550000 255.690000 205.150000 C 256.080000 205.520000 256.950000 205.370000 257.250000 204.940000 C 258.510000 203.190000 259.060000 201.360000 259.300000 199.400000 C 261.280000 202.330000 264.290000 205.120000 266.400000 200.840000 C 268.480000 196.650000 266.820000 189.910000 262.730000 187.590000 Z"/><path fill="rgb(58, 97, 34)" d=" M 265.510000 218.880000 C 264.940000 218.120000 263.090000 218.860000 263.710000 219.700000 C 265.290000 221.810000 266.100000 224.180000 265.890000 226.820000 C 265.500000 231.760000 262.410000 225.370000 261.910000 223.960000 C 261.570000 223.000000 259.910000 223.440000 259.960000 224.420000 C 260.000000 225.150000 260.080000 231.920000 257.800000 229.210000 C 256.740000 227.950000 256.370000 226.160000 256.250000 224.450000 C 256.230000 223.720000 256.210000 223.060000 256.210000 222.530000 C 256.200000 221.470000 254.250000 221.640000 254.240000 222.580000 C 254.230000 223.020000 254.240000 223.510000 254.260000 224.010000 C 254.280000 225.320000 254.300000 226.640000 254.240000 227.960000 C 254.150000 229.920000 252.970000 235.840000 250.070000 232.300000 C 247.680000 229.380000 247.600000 223.160000 248.450000 219.670000 C 248.690000 218.670000 246.700000 218.810000 246.480000 219.720000 C 245.520000 223.690000 245.550000 233.650000 250.790000 234.720000 C 254.160000 235.410000 255.490000 233.010000 255.990000 230.040000 C 256.550000 230.740000 257.270000 231.290000 258.220000 231.550000 C 260.390000 232.150000 261.320000 230.320000 261.700000 228.250000 C 262.830000 230.100000 264.420000 231.440000 266.440000 229.930000 C 269.720000 227.490000 267.340000 221.330000 265.510000 218.880000 Z"/><path fill="rgb(58, 97, 34)" d=" M 83.320000 272.180000 C 83.320000 272.180000 92.430000 277.670000 85.470000 291.400000 L 100.200000 291.680000 L 95.650000 287.280000 C 95.650000 287.280000 103.150000 280.690000 99.670000 271.080000 L 83.320000 272.180000 Z"/><path fill="rgb(225, 67, 14)" d=" M 84.190000 273.580000 C 84.190000 273.580000 86.550000 277.530000 85.770000 282.660000 L 87.340000 281.080000 L 87.740000 284.630000 L 90.500000 280.690000 L 92.480000 284.630000 L 94.050000 281.080000 L 97.610000 284.240000 L 99.180000 280.680000 L 101.550000 285.030000 L 104.310000 273.580000 L 84.190000 273.580000 Z"/><path fill="rgb(119, 38, 9)" d=" M 85.690000 279.240000 L 103.190000 279.590000 L 104.310000 273.790000 L 84.190000 273.790000 C 84.190000 273.790000 85.210000 275.940000 85.690000 279.240000 Z"/><path fill="rgb(58, 97, 34)" d=" M 182.010000 269.980000 C 182.010000 269.980000 190.850000 277.670000 183.880000 291.400000 L 198.620000 291.670000 L 194.060000 287.280000 C 194.060000 287.280000 201.300000 278.500000 197.820000 268.880000 L 182.010000 269.980000 Z"/><path fill="rgb(225, 67, 14)" d=" M 182.450000 271.610000 C 182.450000 271.610000 184.820000 275.550000 184.030000 280.680000 L 185.610000 279.110000 L 186.000000 282.660000 L 188.770000 278.710000 L 190.740000 282.660000 L 192.320000 279.110000 L 195.870000 282.260000 L 197.450000 278.710000 L 199.810000 283.050000 L 202.580000 271.610000 L 182.450000 271.610000 Z"/><path fill="rgb(225, 67, 14)" d=" M 182.450000 271.610000 C 182.450000 271.610000 184.820000 275.550000 184.030000 280.680000 L 185.610000 279.110000 L 186.000000 282.660000 L 188.770000 278.710000 L 190.740000 282.660000 L 192.320000 279.110000 L 195.870000 282.260000 L 197.450000 278.710000 L 199.810000 283.050000 L 202.580000 271.610000 L 182.450000 271.610000 Z"/><path fill="rgb(119, 38, 9)" d=" M 183.970000 278.120000 L 193.110000 277.380000 L 201.690000 277.000000 L 202.580000 271.950000 L 182.450000 271.950000 C 182.450000 271.950000 183.510000 274.390000 183.970000 278.120000 Z"/><path fill="rgb(208, 203, 190)" d=" M 230.180000 84.960000 C 227.930000 81.680000 227.430000 76.080000 229.060000 72.460000 C 230.700000 68.840000 233.850000 68.550000 236.090000 71.830000 C 238.340000 75.110000 238.840000 80.710000 237.210000 84.330000 C 235.570000 87.960000 232.420000 88.240000 230.180000 84.960000 Z"/><path fill="rgb(121, 119, 111)" d=" M 227.010000 85.190000 C 224.760000 81.910000 224.260000 76.310000 225.890000 72.690000 C 227.530000 69.060000 230.680000 68.780000 232.920000 72.060000 C 235.170000 75.340000 235.670000 80.940000 234.040000 84.560000 C 232.400000 88.190000 229.260000 88.470000 227.010000 85.190000 Z"/><path fill="rgb(208, 203, 190)" d=" M 217.610000 85.540000 L 231.230000 84.320000 C 233.070000 80.440000 233.070000 76.720000 230.240000 73.260000 L 216.620000 74.470000 L 217.610000 85.540000 Z"/><path fill="rgb(102, 172, 57)" d=" M 216.130000 73.190000 C 216.130000 73.190000 218.750000 75.470000 218.900000 77.100000 L 217.720000 76.920000 C 217.720000 76.920000 219.500000 79.470000 219.480000 81.500000 L 217.870000 80.780000 C 217.870000 80.780000 219.580000 83.620000 218.190000 86.550000 L 216.550000 86.600000 L 214.610000 73.520000 L 216.130000 73.190000 Z"/><path fill="rgb(58, 97, 34)" d=" M 215.050000 70.860000 C 216.550000 72.810000 217.940000 74.820000 219.280000 76.870000 L 219.710000 77.530000 L 218.900000 77.550000 C 218.060000 77.570000 217.230000 77.580000 216.400000 77.570000 L 216.800000 76.800000 C 217.850000 78.260000 218.860000 79.750000 219.850000 81.250000 L 220.720000 82.580000 L 219.300000 81.910000 C 218.770000 81.650000 218.240000 81.390000 217.710000 81.120000 L 218.230000 80.660000 C 218.480000 81.520000 218.710000 82.400000 218.940000 83.270000 C 219.150000 84.150000 219.380000 85.020000 219.560000 85.910000 C 219.180000 85.090000 218.850000 84.250000 218.490000 83.420000 C 218.150000 82.580000 217.820000 81.740000 217.510000 80.900000 L 217.210000 80.100000 L 218.030000 80.430000 C 218.580000 80.650000 219.120000 80.870000 219.670000 81.100000 L 219.120000 81.760000 C 218.050000 80.310000 217.010000 78.850000 216.000000 77.360000 L 215.470000 76.590000 L 216.410000 76.600000 C 217.240000 76.600000 218.070000 76.630000 218.900000 76.660000 L 218.520000 77.340000 C 217.290000 75.220000 216.120000 73.080000 215.050000 70.860000 Z"/><path fill="rgb(102, 172, 57)" d=" M 248.430000 121.090000 C 243.410000 94.790000 218.870000 70.780000 207.150000 68.500000 L 210.500000 65.060000 L 194.320000 63.350000 C 194.320000 63.350000 201.570000 58.200000 211.620000 59.350000 C 211.620000 59.350000 185.470000 54.440000 170.930000 54.090000 L 182.760000 45.660000 C 182.760000 45.660000 160.680000 49.740000 159.360000 50.190000 C 158.030000 50.640000 168.630000 42.940000 168.630000 42.940000 L 141.240000 52.900000 L 145.220000 47.470000 L 124.550000 57.870000 C 104.820000 60.900000 83.360000 66.430000 73.270000 76.500000 C 52.070000 97.650000 59.330000 230.290000 67.140000 269.740000 C 67.140000 269.740000 67.690000 273.740000 76.060000 274.880000 C 84.430000 276.030000 215.520000 272.030000 215.520000 272.030000 C 215.520000 272.030000 220.540000 273.170000 223.890000 264.020000 C 227.230000 254.870000 253.450000 147.390000 248.430000 121.090000 Z"/><path fill="rgb(58, 97, 34)" d=" M 87.280000 68.100000 C 70.490000 71.360000 81.760000 68.030000 73.270000 76.500000 C 52.070000 97.650000 59.320000 230.290000 67.130000 269.740000 C 67.130000 269.740000 67.690000 273.740000 76.060000 274.890000 C 77.300000 275.060000 81.240000 275.110000 87.030000 275.080000 C 50.650000 243.990000 79.410000 91.320000 87.280000 68.100000 Z"/><path fill="rgb(204, 243, 95)" d=" M 122.050000 274.520000 C 146.730000 273.990000 175.810000 273.180000 194.910000 272.630000 C 200.960000 258.620000 211.240000 225.600000 176.720000 220.320000 C 137.740000 214.350000 124.560000 263.250000 122.050000 274.520000 Z"/><path fill="rgb(204, 243, 95)" d=" M 232.250000 102.310000 C 232.250000 102.310000 242.070000 76.270000 253.110000 86.650000 C 264.160000 97.030000 255.960000 126.610000 234.000000 114.890000 L 236.220000 110.330000 L 233.620000 110.570000 L 234.780000 105.100000 L 231.980000 106.700000 L 232.250000 102.310000 Z"/><path fill="rgb(58, 97, 34)" d=" M 240.140000 109.750000 C 240.980000 110.690000 242.330000 109.290000 241.500000 108.360000 C 240.340000 107.070000 240.940000 105.290000 242.200000 103.770000 C 242.240000 103.750000 242.270000 103.750000 242.310000 103.720000 C 245.070000 101.690000 247.270000 104.280000 248.260000 106.910000 C 248.710000 108.080000 250.570000 107.570000 250.120000 106.380000 C 249.260000 104.100000 247.610000 101.920000 245.580000 101.210000 C 247.450000 100.410000 249.250000 100.590000 249.610000 102.790000 C 249.810000 104.040000 251.660000 103.510000 251.460000 102.270000 C 250.020000 93.500000 234.530000 103.510000 240.140000 109.750000 Z"/><path fill="rgb(204, 243, 95)" d=" M 108.280000 110.710000 C 108.280000 110.710000 96.230000 85.670000 86.130000 97.020000 C 76.030000 108.380000 86.780000 137.080000 107.630000 123.400000 L 105.020000 119.060000 L 107.630000 119.060000 L 106.000000 113.710000 L 108.930000 115.050000 L 108.280000 110.710000 Z"/><path fill="rgb(58, 97, 34)" d=" M 101.100000 113.160000 C 97.750000 110.170000 93.670000 107.470000 89.110000 109.120000 C 87.950000 109.550000 88.450000 111.450000 89.620000 111.030000 C 91.920000 110.190000 94.030000 110.700000 95.970000 111.760000 C 92.980000 112.650000 91.000000 116.170000 94.050000 119.360000 C 94.920000 120.270000 96.280000 118.870000 95.410000 117.960000 C 92.390000 114.810000 97.080000 111.870000 99.750000 114.550000 C 100.670000 115.380000 102.000000 114.060000 101.100000 113.160000 Z"/><path fill="rgb(225, 67, 14)" d=" M 67.220000 271.190000 L 63.670000 257.770000 C 63.670000 257.770000 82.610000 255.790000 100.370000 257.770000 C 100.370000 257.770000 142.590000 258.560000 152.460000 257.370000 L 153.640000 258.950000 L 155.220000 256.980000 C 155.220000 256.980000 182.840000 256.190000 189.550000 257.370000 C 196.260000 258.560000 203.760000 258.160000 205.340000 257.770000 C 206.920000 257.370000 212.840000 256.980000 212.840000 256.980000 L 214.020000 260.530000 L 215.200000 256.980000 L 218.360000 257.370000 L 227.440000 256.190000 L 224.670000 266.840000 L 221.520000 273.160000 L 73.140000 276.320000 L 67.220000 271.190000 Z"/><path fill="rgb(58, 97, 34)" d=" M 68.800000 184.790000 C 69.800000 183.840000 70.790000 182.890000 71.740000 181.900000 C 72.710000 180.930000 73.650000 179.940000 74.570000 178.920000 C 76.400000 176.890000 78.170000 174.810000 79.780000 172.620000 C 81.400000 170.430000 82.860000 168.130000 84.070000 165.700000 C 84.680000 164.490000 85.210000 163.240000 85.620000 161.940000 C 86.070000 160.650000 86.360000 159.320000 86.560000 157.950000 C 86.590000 159.330000 86.390000 160.720000 86.090000 162.070000 C 85.770000 163.420000 85.310000 164.740000 84.770000 166.030000 C 83.690000 168.590000 82.210000 170.970000 80.580000 173.210000 C 78.920000 175.430000 77.100000 177.530000 75.120000 179.450000 C 73.140000 181.380000 71.070000 183.210000 68.800000 184.790000 Z"/><path fill="rgb(58, 97, 34)" d=" M 73.540000 184.000000 C 74.710000 183.720000 75.770000 183.230000 76.800000 182.690000 C 77.820000 182.140000 78.790000 181.510000 79.710000 180.810000 C 81.580000 179.420000 83.240000 177.770000 84.980000 176.110000 C 83.870000 178.250000 82.260000 180.120000 80.310000 181.600000 C 79.330000 182.330000 78.270000 182.960000 77.120000 183.400000 C 75.990000 183.840000 74.750000 184.130000 73.540000 184.000000 Z"/><path fill="rgb(58, 97, 34)" d=" M 236.920000 212.020000 C 236.590000 210.510000 236.190000 209.030000 235.790000 207.560000 C 235.360000 206.100000 234.910000 204.660000 234.350000 203.250000 C 233.260000 200.440000 231.850000 197.770000 229.810000 195.440000 C 231.100000 196.310000 232.210000 197.460000 233.100000 198.750000 C 234.000000 200.030000 234.710000 201.440000 235.280000 202.890000 C 236.390000 205.810000 237.010000 208.910000 236.920000 212.020000 Z"/><path fill="rgb(58, 97, 34)" d=" M 235.340000 208.070000 C 234.720000 208.100000 234.120000 207.920000 233.570000 207.660000 C 233.020000 207.390000 232.520000 207.010000 232.090000 206.580000 C 231.250000 205.700000 230.660000 204.550000 230.600000 203.330000 C 231.400000 204.250000 232.040000 205.110000 232.810000 205.880000 C 233.560000 206.670000 234.370000 207.350000 235.340000 208.070000 Z"/><path fill="rgb(11, 55, 51)" d=" M 220.700000 119.180000 C 221.080000 120.150000 221.230000 121.090000 221.320000 122.040000 C 221.410000 122.980000 221.400000 123.920000 221.320000 124.850000 C 221.240000 125.780000 221.090000 126.700000 220.850000 127.620000 C 220.590000 128.530000 220.280000 129.440000 219.740000 130.330000 C 219.350000 129.360000 219.200000 128.410000 219.110000 127.470000 C 219.030000 126.520000 219.030000 125.590000 219.110000 124.660000 C 219.190000 123.730000 219.350000 122.810000 219.590000 121.890000 C 219.850000 120.970000 220.160000 120.070000 220.700000 119.180000 Z"/><path fill="rgb(208, 203, 190)" d=" M 111.400000 78.220000 L 125.070000 77.630000 L 125.550000 88.730000 L 111.880000 89.320000 L 111.400000 78.220000 Z"/><path fill="rgb(121, 119, 111)" d=" M 112.490000 74.660000 C 112.310000 74.670000 112.130000 74.690000 111.960000 74.730000 L 108.140000 74.900000 L 108.900000 92.450000 L 112.470000 92.300000 C 112.730000 92.360000 112.990000 92.400000 113.250000 92.390000 C 116.010000 92.270000 118.070000 88.200000 117.860000 83.310000 C 117.640000 78.410000 115.240000 74.540000 112.490000 74.660000 Z"/><path fill="rgb(208, 203, 190)" d=" M 112.500000 77.300000 C 114.600000 80.680000 114.840000 86.290000 113.040000 89.840000 C 111.250000 93.380000 108.090000 93.520000 105.990000 90.140000 C 103.900000 86.760000 103.650000 81.150000 105.450000 77.600000 C 107.250000 74.060000 110.400000 73.920000 112.500000 77.300000 Z"/><path fill="rgb(102, 172, 57)" d=" M 125.410000 76.290000 C 125.410000 76.290000 123.110000 78.900000 123.180000 80.540000 L 124.330000 80.200000 C 124.330000 80.200000 122.900000 82.960000 123.180000 84.980000 L 124.680000 84.040000 C 124.680000 84.040000 123.370000 87.090000 125.130000 89.810000 L 126.760000 89.650000 L 126.960000 76.420000 L 125.410000 76.290000 Z"/><path fill="rgb(58, 97, 34)" d=" M 126.760000 72.640000 C 126.280000 73.650000 125.820000 74.670000 125.410000 75.700000 C 125.000000 76.730000 124.580000 77.760000 124.210000 78.810000 C 123.830000 79.850000 123.510000 80.910000 123.140000 81.960000 L 122.870000 82.750000 L 122.840000 82.850000 L 122.820000 82.900000 L 122.820000 82.910000 C 121.090000 82.280000 122.340000 82.730000 121.950000 82.590000 L 121.950000 82.580000 L 121.960000 82.570000 L 121.970000 82.550000 L 122.030000 82.350000 L 122.170000 81.950000 L 122.720000 80.380000 L 122.810000 80.150000 L 123.040000 80.070000 L 124.180000 79.730000 L 125.660000 79.280000 L 124.690000 80.530000 C 124.780000 80.410000 124.720000 80.490000 124.740000 80.480000 L 124.720000 80.520000 L 124.680000 80.620000 L 124.600000 80.870000 L 124.460000 81.390000 L 124.200000 82.450000 C 124.030000 83.170000 123.880000 83.900000 123.740000 84.620000 L 123.280000 86.810000 L 123.260000 86.950000 L 123.240000 87.020000 L 123.240000 87.030000 C 121.530000 86.710000 122.760000 86.940000 122.380000 86.870000 L 122.380000 86.870000 L 122.380000 86.860000 L 122.390000 86.860000 L 122.390000 86.820000 L 122.450000 86.550000 L 122.570000 86.000000 L 122.810000 84.910000 L 122.850000 84.740000 L 122.980000 84.660000 L 124.520000 83.780000 L 124.410000 84.200000 C 124.430000 84.220000 124.400000 84.200000 124.480000 84.260000 C 124.520000 84.290000 124.670000 84.300000 124.750000 84.240000 C 124.810000 84.190000 124.810000 84.170000 124.820000 84.150000 C 124.830000 84.120000 124.810000 84.190000 124.810000 84.230000 C 124.790000 84.330000 124.780000 84.450000 124.780000 84.570000 C 124.780000 84.810000 124.780000 85.060000 124.800000 85.310000 L 124.880000 86.810000 L 125.130000 89.820000 C 124.890000 88.840000 124.690000 87.850000 124.510000 86.850000 C 124.420000 86.350000 124.330000 85.860000 124.270000 85.350000 C 124.240000 85.100000 124.220000 84.840000 124.200000 84.580000 C 124.200000 84.450000 124.190000 84.310000 124.210000 84.160000 C 124.220000 84.080000 124.210000 84.020000 124.270000 83.880000 C 124.290000 83.840000 124.310000 83.790000 124.410000 83.720000 C 124.500000 83.640000 124.690000 83.650000 124.760000 83.700000 C 124.900000 83.780000 124.910000 83.820000 124.960000 83.890000 L 125.130000 84.130000 L 124.850000 84.310000 L 123.380000 85.300000 L 123.550000 85.050000 L 123.380000 86.160000 L 123.290000 86.710000 L 123.250000 86.980000 L 123.240000 87.020000 L 123.240000 87.030000 L 123.240000 87.030000 L 123.240000 87.030000 C 122.860000 86.960000 124.090000 87.190000 122.380000 86.870000 L 122.390000 86.860000 L 122.400000 86.790000 L 122.420000 86.650000 L 122.800000 84.440000 C 122.930000 83.710000 123.080000 82.970000 123.230000 82.240000 L 123.490000 81.130000 L 123.650000 80.580000 L 123.750000 80.290000 L 123.810000 80.140000 L 123.850000 80.050000 C 123.880000 80.000000 123.840000 80.030000 123.960000 79.870000 L 124.470000 80.670000 L 123.320000 81.010000 L 123.640000 80.710000 L 123.060000 82.270000 L 122.910000 82.660000 L 122.840000 82.860000 L 122.830000 82.880000 L 122.820000 82.900000 L 122.820000 82.900000 C 122.430000 82.760000 123.690000 83.220000 121.950000 82.590000 L 121.950000 82.590000 L 121.970000 82.540000 L 122.010000 82.440000 L 122.310000 81.660000 C 122.700000 80.620000 123.120000 79.580000 123.570000 78.550000 C 124.030000 77.530000 124.490000 76.500000 125.030000 75.520000 C 125.560000 74.530000 126.110000 73.550000 126.760000 72.640000 Z"/><path fill="rgb(204, 243, 95)" d=" M 219.040000 105.440000 C 213.460000 97.250000 200.880000 82.990000 185.950000 80.420000 C 186.890000 83.560000 187.290000 87.040000 184.440000 88.780000 C 181.300000 90.680000 179.030000 87.470000 178.310000 84.510000 C 178.500000 86.210000 177.420000 90.350000 175.320000 90.470000 C 172.180000 90.640000 172.790000 84.710000 172.800000 82.810000 C 172.640000 84.980000 170.140000 90.800000 167.170000 89.810000 C 164.510000 88.930000 164.820000 83.160000 165.500000 79.320000 C 153.840000 80.030000 141.250000 86.830000 131.750000 97.100000 C 122.850000 106.720000 119.050000 143.160000 124.910000 153.850000 C 130.780000 164.530000 139.900000 157.180000 149.010000 148.840000 C 149.010000 148.840000 149.340000 175.540000 151.300000 181.550000 C 153.250000 187.560000 165.300000 188.560000 169.210000 188.230000 L 176.370000 183.550000 L 175.400000 187.230000 L 181.910000 182.890000 L 180.610000 186.220000 L 186.140000 182.550000 L 185.170000 186.890000 C 185.170000 186.890000 197.540000 185.890000 201.450000 179.210000 L 201.450000 142.160000 C 201.450000 142.160000 214.160000 152.180000 219.040000 148.840000 C 223.930000 145.500000 227.650000 118.080000 219.040000 105.440000 Z"/><path fill="rgb(11, 55, 51)" d=" M 151.450000 118.360000 C 152.980000 120.440000 152.980000 123.830000 151.450000 125.910000 C 149.930000 128.000000 147.450000 128.000000 145.930000 125.910000 C 144.400000 123.830000 144.400000 120.440000 145.930000 118.360000 C 147.450000 116.270000 149.930000 116.270000 151.450000 118.360000 Z"/><path fill="rgb(11, 55, 51)" d=" M 208.430000 117.310000 C 209.950000 119.400000 209.950000 122.780000 208.430000 124.860000 C 206.900000 126.950000 204.420000 126.950000 202.900000 124.860000 C 201.370000 122.780000 201.370000 119.400000 202.900000 117.310000 C 204.420000 115.230000 206.900000 115.230000 208.430000 117.310000 Z"/><path fill="rgb(11, 55, 51)" d=" M 197.550000 159.660000 C 197.550000 166.200000 189.450000 171.510000 179.470000 171.510000 C 169.490000 171.510000 161.390000 166.200000 161.390000 159.660000 C 161.390000 153.120000 170.950000 158.370000 180.930000 158.370000 C 190.920000 158.370000 197.550000 153.120000 197.550000 159.660000 Z"/><path fill="rgb(255, 255, 255)" d=" M 182.890000 158.300000 L 182.890000 163.830000 L 189.730000 163.830000 L 189.730000 157.230000 C 187.750000 157.670000 185.450000 158.130000 182.890000 158.300000 Z M 171.170000 163.830000 L 178.000000 163.830000 L 178.000000 158.220000 C 175.600000 158.000000 173.280000 157.590000 171.170000 157.200000 L 171.170000 163.830000 Z"/><path fill="rgb(11, 55, 51)" d=" M 171.500000 113.830000 L 171.490000 138.830000 L 166.930000 138.490000 L 167.250000 143.500000 L 189.080000 142.500000 L 189.080000 137.490000 L 183.870000 138.160000 L 181.920000 113.170000 L 171.500000 113.830000 Z"/><path fill="rgb(11, 55, 51)" d=" M 130.940000 130.650000 C 131.170000 132.440000 131.470000 134.160000 131.780000 135.860000 C 132.090000 137.570000 132.460000 139.260000 132.840000 140.940000 C 133.230000 142.620000 133.640000 144.310000 134.060000 146.000000 C 134.490000 147.690000 134.940000 149.390000 135.280000 151.170000 C 134.180000 149.740000 133.310000 148.150000 132.590000 146.510000 C 131.870000 144.860000 131.290000 143.150000 130.890000 141.390000 C 130.490000 139.630000 130.260000 137.830000 130.230000 136.020000 C 130.210000 134.220000 130.340000 132.380000 130.940000 130.650000 Z"/><path fill="rgb(11, 55, 51)" d=" M 125.420000 136.970000 C 127.120000 136.640000 128.770000 136.510000 130.420000 136.320000 C 131.240000 136.230000 132.060000 136.120000 132.870000 136.000000 C 133.680000 135.850000 134.470000 135.700000 135.280000 135.390000 C 134.700000 136.050000 133.880000 136.460000 133.060000 136.750000 C 132.240000 137.050000 131.380000 137.210000 130.530000 137.310000 C 129.670000 137.400000 128.810000 137.430000 127.960000 137.370000 C 127.110000 137.320000 126.250000 137.210000 125.420000 136.970000 Z"/><path fill="rgb(11, 55, 51)" d=" M 127.790000 142.490000 C 128.980000 142.180000 130.090000 142.020000 131.200000 141.800000 C 132.310000 141.590000 133.340000 141.340000 134.490000 140.910000 C 134.170000 141.450000 133.670000 141.860000 133.130000 142.160000 C 132.580000 142.470000 131.990000 142.650000 131.390000 142.780000 C 130.780000 142.880000 130.170000 142.930000 129.570000 142.890000 C 128.960000 142.850000 128.360000 142.740000 127.790000 142.490000 Z"/><path fill="rgb(11, 55, 51)" d=" M 130.150000 147.620000 C 131.390000 147.450000 132.470000 147.210000 133.560000 146.860000 C 134.650000 146.530000 135.670000 146.070000 136.860000 145.650000 C 136.160000 146.700000 135.060000 147.420000 133.860000 147.820000 C 133.250000 148.000000 132.620000 148.110000 131.980000 148.080000 C 131.350000 148.060000 130.710000 147.950000 130.150000 147.620000 Z"/><path fill="rgb(11, 55, 51)" d=" M 118.010000 109.600000 C 118.010000 109.600000 206.080000 98.930000 223.310000 108.260000 C 223.310000 108.260000 204.170000 87.590000 118.010000 109.600000 Z"/><path fill="rgb(11, 55, 51)" d=" M 148.640000 97.530000 C 149.360000 98.660000 149.890000 99.840000 150.350000 101.040000 C 150.810000 102.240000 151.210000 103.450000 151.530000 104.690000 C 151.850000 105.920000 152.090000 107.180000 152.270000 108.450000 C 152.450000 109.720000 152.560000 111.010000 152.470000 112.350000 C 151.750000 111.220000 151.220000 110.040000 150.760000 108.840000 C 150.300000 107.640000 149.900000 106.430000 149.590000 105.190000 C 149.270000 103.950000 149.030000 102.700000 148.850000 101.430000 C 148.670000 100.160000 148.560000 98.870000 148.640000 97.530000 Z"/><path fill="rgb(11, 55, 51)" d=" M 161.090000 95.880000 C 161.500000 97.190000 161.720000 98.490000 161.870000 99.790000 C 162.010000 101.100000 162.090000 102.400000 162.090000 103.700000 C 162.090000 105.010000 162.010000 106.310000 161.870000 107.620000 C 161.720000 108.920000 161.500000 110.220000 161.090000 111.530000 C 160.670000 110.220000 160.450000 108.920000 160.310000 107.620000 C 160.160000 106.310000 160.080000 105.010000 160.090000 103.700000 C 160.090000 102.400000 160.160000 101.100000 160.310000 99.790000 C 160.460000 98.490000 160.670000 97.190000 161.090000 95.880000 Z"/><path fill="rgb(11, 55, 51)" d=" M 194.590000 95.060000 C 195.010000 96.160000 195.220000 97.250000 195.380000 98.350000 C 195.520000 99.450000 195.590000 100.550000 195.590000 101.650000 C 195.590000 102.750000 195.530000 103.840000 195.380000 104.940000 C 195.220000 106.040000 195.010000 107.130000 194.590000 108.230000 C 194.170000 107.140000 193.970000 106.040000 193.810000 104.940000 C 193.660000 103.840000 193.590000 102.740000 193.590000 101.650000 C 193.600000 100.550000 193.660000 99.450000 193.810000 98.350000 C 193.970000 97.250000 194.180000 96.160000 194.590000 95.060000 Z"/><path fill="rgb(11, 55, 51)" d=" M 205.120000 96.710000 C 205.620000 97.630000 205.900000 98.580000 206.140000 99.520000 C 206.370000 100.470000 206.520000 101.430000 206.600000 102.390000 C 206.680000 103.350000 206.690000 104.310000 206.620000 105.290000 C 206.550000 106.260000 206.420000 107.240000 206.080000 108.230000 C 205.580000 107.310000 205.290000 106.360000 205.060000 105.420000 C 204.830000 104.470000 204.680000 103.510000 204.610000 102.550000 C 204.530000 101.590000 204.520000 100.630000 204.580000 99.650000 C 204.660000 98.680000 204.790000 97.700000 205.120000 96.710000 Z"/><path fill="rgb(11, 55, 51)" d=" M 138.120000 100.000000 C 138.900000 100.960000 139.500000 101.980000 140.050000 103.030000 C 140.590000 104.070000 141.050000 105.150000 141.450000 106.250000 C 141.850000 107.340000 142.180000 108.460000 142.440000 109.610000 C 142.690000 110.760000 142.900000 111.930000 142.900000 113.170000 C 142.110000 112.220000 141.510000 111.190000 140.970000 110.150000 C 140.430000 109.100000 139.970000 108.030000 139.570000 106.930000 C 139.170000 105.830000 138.840000 104.710000 138.580000 103.560000 C 138.330000 102.410000 138.120000 101.240000 138.120000 100.000000 Z"/><path fill="rgb(11, 55, 51)" d=" M 175.450000 95.880000 C 175.700000 97.110000 175.750000 98.300000 175.750000 99.490000 C 175.730000 100.680000 175.640000 101.850000 175.480000 103.020000 C 175.320000 104.180000 175.100000 105.340000 174.790000 106.490000 C 174.480000 107.630000 174.110000 108.770000 173.530000 109.880000 C 173.280000 108.660000 173.230000 107.460000 173.230000 106.270000 C 173.250000 105.090000 173.340000 103.910000 173.500000 102.750000 C 173.660000 101.580000 173.890000 100.420000 174.190000 99.280000 C 174.510000 98.130000 174.880000 96.990000 175.450000 95.880000 Z"/><path fill="rgb(11, 55, 51)" d=" M 185.020000 95.060000 C 185.440000 96.300000 185.640000 97.530000 185.800000 98.760000 C 185.950000 100.000000 186.020000 101.240000 186.020000 102.470000 C 186.020000 103.710000 185.950000 104.940000 185.810000 106.180000 C 185.650000 107.410000 185.440000 108.640000 185.020000 109.880000 C 184.600000 108.640000 184.390000 107.410000 184.230000 106.180000 C 184.090000 104.940000 184.020000 103.710000 184.020000 102.470000 C 184.020000 101.240000 184.090000 100.000000 184.240000 98.760000 C 184.400000 97.530000 184.600000 96.290000 185.020000 95.060000 Z"/><path fill="rgb(11, 55, 51)" d=" M 138.390000 119.550000 L 160.600000 119.940000 L 161.390000 113.200000 L 138.790000 116.770000 L 138.390000 119.550000 Z"/><path fill="rgb(11, 55, 51)" d=" M 216.720000 119.550000 L 194.510000 119.940000 L 193.720000 113.200000 L 216.320000 116.770000 L 216.720000 119.550000 Z"/><path fill="rgb(58, 97, 34)" d=" M 116.840000 151.260000 C 118.690000 153.110000 118.690000 156.110000 116.840000 157.960000 C 114.990000 159.810000 112.000000 159.810000 110.150000 157.960000 C 108.300000 156.110000 108.300000 153.110000 110.150000 151.260000 C 112.000000 149.410000 114.990000 149.410000 116.840000 151.260000 Z"/><path fill="rgb(58, 97, 34)" d=" M 211.350000 215.230000 C 213.200000 217.080000 213.200000 220.080000 211.350000 221.930000 C 209.500000 223.780000 206.500000 223.780000 204.650000 221.930000 C 202.800000 220.080000 202.800000 217.080000 204.650000 215.230000 C 206.500000 213.380000 209.500000 213.380000 211.350000 215.230000 Z"/><path fill="rgb(58, 97, 34)" d=" M 211.450000 228.220000 C 212.950000 229.720000 212.950000 232.160000 211.450000 233.660000 C 209.940000 235.160000 207.510000 235.160000 206.000000 233.660000 C 204.500000 232.160000 204.500000 229.720000 206.000000 228.220000 C 207.510000 226.720000 209.940000 226.720000 211.450000 228.220000 Z"/><path fill="rgb(58, 97, 34)" d=" M 122.970000 172.030000 C 124.590000 173.650000 124.590000 176.280000 122.970000 177.900000 C 121.350000 179.510000 118.730000 179.510000 117.110000 177.900000 C 115.490000 176.280000 115.490000 173.650000 117.110000 172.030000 C 118.730000 170.420000 121.350000 170.420000 122.970000 172.030000 Z"/><path fill="rgb(58, 97, 34)" d=" M 121.660000 164.290000 C 122.740000 165.370000 122.740000 167.120000 121.660000 168.190000 C 120.580000 169.270000 118.830000 169.270000 117.750000 168.190000 C 116.670000 167.120000 116.670000 165.370000 117.750000 164.290000 C 118.830000 163.210000 120.580000 163.210000 121.660000 164.290000 Z"/><path fill="rgb(58, 97, 34)" d=" M 239.360000 163.000000 C 240.830000 164.460000 240.830000 166.830000 239.360000 168.300000 C 237.900000 169.760000 235.530000 169.760000 234.060000 168.300000 C 232.600000 166.830000 232.600000 164.460000 234.060000 163.000000 C 235.530000 161.530000 237.900000 161.530000 239.360000 163.000000 Z"/><path fill="rgb(58, 97, 34)" d=" M 231.420000 173.310000 C 232.420000 174.310000 232.420000 175.930000 231.420000 176.930000 C 230.420000 177.930000 228.800000 177.930000 227.800000 176.930000 C 226.790000 175.930000 226.790000 174.310000 227.800000 173.310000 C 228.800000 172.300000 230.420000 172.300000 231.420000 173.310000 Z"/><path fill="rgb(58, 97, 34)" d=" M 243.530000 175.410000 C 245.230000 177.100000 245.230000 179.850000 243.530000 181.540000 C 241.840000 183.240000 239.090000 183.240000 237.390000 181.540000 C 235.700000 179.850000 235.700000 177.100000 237.390000 175.410000 C 239.090000 173.710000 241.840000 173.710000 243.530000 175.410000 Z"/><path fill="rgb(130, 26, 47)" d=" M 282.250000 156.000000 C 280.250000 152.500000 280.750000 149.500000 280.750000 149.500000 L 279.250000 145.000000 L 274.750000 138.500000 L 262.750000 126.500000 C 262.750000 126.500000 255.250000 149.000000 244.750000 156.000000 L 246.750000 160.500000 L 242.750000 158.000000 L 242.250000 163.000000 L 236.710000 161.900000 L 232.960000 165.650000 L 231.250000 169.000000 L 228.750000 171.000000 L 219.750000 175.000000 L 216.250000 246.500000 L 220.250000 246.500000 L 222.750000 241.000000 L 223.750000 246.000000 L 226.750000 245.500000 L 230.750000 246.000000 L 232.750000 239.500000 L 236.250000 214.000000 L 242.250000 214.000000 L 243.250000 210.000000 L 247.750000 211.000000 L 250.630000 207.080000 L 263.250000 207.000000 L 268.250000 205.000000 L 268.250000 198.000000 L 270.250000 204.000000 L 274.750000 202.500000 L 273.750000 197.000000 L 279.750000 202.500000 L 281.250000 198.500000 L 280.250000 182.000000 L 283.250000 172.500000 C 283.250000 172.500000 284.250000 159.500000 282.250000 156.000000 Z M 270.250000 153.500000 C 270.250000 153.500000 268.250000 158.500000 266.250000 159.500000 C 264.250000 160.500000 261.750000 154.000000 261.750000 151.000000 C 261.750000 148.000000 265.250000 145.000000 265.250000 145.000000 L 271.250000 147.000000 L 270.250000 153.500000 Z"/><path fill="rgb(89, 20, 33)" d=" M 228.750000 171.000000 L 219.750000 175.000000 L 216.250000 246.500000 L 220.250000 246.500000 L 223.250000 235.000000 L 222.250000 217.000000 L 224.250000 207.500000 L 226.750000 206.000000 L 226.250000 197.000000 L 223.250000 196.500000 L 227.750000 190.500000 L 227.250000 183.000000 L 227.750000 177.000000 L 228.750000 171.000000 Z"/><path fill="rgb(130, 26, 47)" d=" M 103.750000 159.000000 L 98.750000 160.000000 L 98.250000 157.000000 L 95.750000 156.500000 L 93.250000 158.000000 L 92.750000 155.000000 C 79.250000 153.500000 64.750000 134.000000 64.750000 134.000000 L 60.250000 137.000000 L 61.750000 132.500000 C 52.250000 122.000000 45.750000 82.000000 45.750000 82.000000 L 35.250000 88.500000 L 30.250000 92.000000 L 29.250000 97.500000 L 26.250000 95.500000 L 21.250000 98.500000 C 21.250000 98.500000 12.250000 107.000000 9.250000 109.000000 C 6.250000 111.000000 4.750000 117.500000 3.250000 121.000000 C 1.750000 124.500000 1.750000 127.000000 1.750000 128.500000 C 1.750000 130.000000 1.250000 139.000000 0.250000 141.500000 C -0.750000 144.000000 1.750000 155.000000 1.750000 155.000000 L 1.250000 159.500000 L 0.250000 164.500000 L 3.750000 166.500000 L 0.250000 168.500000 C 0.250000 176.500000 0.250000 210.500000 0.250000 210.500000 L 4.750000 209.500000 L 12.250000 210.000000 L 14.250000 206.500000 L 15.750000 209.500000 L 32.750000 211.000000 L 36.250000 209.500000 L 44.750000 207.500000 L 47.750000 211.000000 L 49.750000 206.500000 L 53.250000 208.500000 C 55.750000 199.500000 59.750000 196.000000 59.750000 196.000000 L 60.750000 211.500000 L 60.750000 225.000000 L 64.250000 227.500000 L 60.750000 228.500000 C 61.250000 233.500000 63.750000 252.000000 63.750000 252.000000 L 69.750000 251.000000 L 72.250000 249.500000 L 77.250000 251.500000 L 79.250000 249.500000 L 80.750000 247.500000 L 84.750000 250.500000 L 93.250000 247.500000 L 96.250000 250.500000 L 97.250000 246.500000 L 99.250000 250.500000 L 100.250000 246.000000 L 105.250000 252.500000 L 109.250000 254.000000 L 103.750000 159.000000 Z M 31.750000 138.000000 C 30.750000 141.500000 24.750000 142.500000 24.750000 142.500000 L 16.750000 139.000000 L 14.250000 127.000000 L 19.250000 119.500000 C 19.250000 119.500000 22.250000 117.000000 25.250000 117.000000 C 28.250000 117.000000 29.250000 118.000000 30.750000 119.500000 C 32.250000 121.000000 33.250000 126.000000 33.250000 129.000000 C 33.250000 132.000000 32.750000 134.500000 31.750000 138.000000 Z M 48.750000 140.000000 C 45.250000 148.000000 40.750000 135.000000 39.750000 130.500000 C 38.750000 126.000000 42.250000 124.500000 44.750000 122.500000 L 49.750000 126.500000 C 49.750000 126.500000 52.250000 132.000000 48.750000 140.000000 Z M 87.750000 241.500000 C 87.750000 241.500000 83.750000 240.500000 82.750000 238.500000 C 81.750000 236.500000 83.750000 233.500000 83.750000 233.500000 L 83.750000 231.500000 L 89.250000 233.000000 L 90.750000 237.000000 L 87.750000 241.500000 Z"/><path fill="rgb(89, 20, 33)" d=" M 103.750000 159.000000 L 94.250000 172.500000 L 94.750000 182.000000 L 98.250000 182.500000 L 96.750000 187.000000 L 94.750000 189.500000 L 95.250000 204.500000 L 99.750000 207.000000 L 96.250000 213.500000 L 109.250000 254.000000 L 110.250000 250.500000 L 109.750000 232.500000 L 106.250000 189.500000 L 106.250000 176.500000 L 106.250000 168.500000 L 105.750000 163.000000 L 103.750000 159.000000 Z"/></svg>