<?xml version="1.0" standalone="no"?><!DOCTYPE svg PUBLIC "-//W3C//DTD SVG 1.1//EN" "http://www.w3.org/Graphics/SVG/1.1/DTD/svg11.dtd"><svg id="Ghoulopus0.svg" width="150" height="150" version="1.1" viewBox="0 0 300 300" xmlns="http://www.w3.org/2000/svg" xmlns:xlink="http://www.w3.org/1999/xlink"><defs xmlns="http://www.w3.org/1999/xhtml"><style type="text/css"><![CDATA[
* { border: 0px; margin: 0px; padding: 0px; }
html { background-color: rgb(255, 255, 255); font-family: Verdana, Arial; }
.webgl-content * { position: absolute; width: 100%; height: 100%; user-select: none; }
.webgl-content .logo, .progress { position: absolute; left: 50%; top: 50%; transform: translate(-50%, -50%); }
.webgl-content .logo { background: url("progressLogo.Light.png") center center / contain no-repeat; width: 154px; height: 130px; }
.webgl-content .progress { height: 18px; width: 141px; margin-top: 90px; }
.webgl-content .progress .empty { background: url("progressEmpty.Light.png") right center / cover no-repeat; float: right; width: 100%; height: 100%; display: inline-block; }
.webgl-content .progress .full { background: url("progressFull.Light.png") left center / cover no-repeat; float: left; width: 0%; height: 100%; display: inline-block; }
.webgl-content .logo.Dark { background-image: url("progressLogo.Dark.png"); }
.webgl-content .progress.Dark .empty { background-image: url("progressEmpty.Dark.png"); }
.webgl-content .progress.Dark .full { background-image: url("progressFull.Dark.png"); }
#loading-content { z-index: 10000; position: fixed; width: 100%; height: 100%; left: 0px; top: 0px; overflow: hidden; background: url("background.png"); }
.hud-intro .hud-intro-social .btn-discord, .hud-respawn .hud-respawn-social .btn-discord { background-image: url("//lordz.io/images/discord-icon.png"); }
.hud-intro .hud-intro-social .btn-twitter, .hud-respawn .hud-respawn-social .btn-twitter { background-image: url("//lordz.io/images/twitter-icon.png"); }
.hud-intro .hud-intro-social .btn-facebook, .hud-respawn .hud-respawn-social .btn-facebook { background-image: url("//lordz.io/images/facebook-icon.png"); }
.hud-intro .hud-intro-social .btn-youtube, .hud-respawn .hud-respawn-social .btn-youtube { background-image: url("//lordz.io/images/youtube-icon.png"); }
* { box-sizing: border-box; user-select: none; }
.btn { position: relative; display: inline-block; top: 0px; height: 36px; line-height: 36px; padding: 0px 20px; background: rgb(68, 68, 68); color: rgb(238, 238, 238); border: 0px; font-size: 14px; vertical-align: top; text-align: center; text-decoration: none; text-shadow: rgba(0, 0, 0, 0.4) 0px 1px 0px; box-shadow: rgba(0, 0, 0, 0.2) 0px 2px 10px, rgb(51, 51, 51) 0px 4px 0px; border-radius: 4px; transition: all 0.15s ease-in-out 0s; }
.btn:hover, .btn:active { background-color: rgb(85, 85, 85); color: rgb(255, 255, 255); }
.btn:active { top: 4px; box-shadow: rgba(0, 0, 0, 0.2) 0px 2px 10px !important; }
.btn-green { background-color: rgb(71, 149, 13); box-shadow: rgba(0, 0, 0, 0.2) 0px 2px 10px, rgb(53, 131, 0) 0px 4px 0px; }
.btn-green:hover, .btn-green:active { background-color: rgb(100, 184, 32); }
.btn-red { background-color: rgb(179, 53, 60); box-shadow: rgba(0, 0, 0, 0.2) 0px 2px 10px, rgb(161, 35, 42) 0px 4px 0px; }
.btn-red:hover, .btn-red:active { background-color: rgb(203, 87, 91); }
.btn-blue { background-color: rgb(29, 141, 238); box-shadow: rgba(0, 0, 0, 0.2) 0px 2px 10px, rgb(11, 123, 220) 0px 4px 0px; }
.btn-blue:hover, .btn-blue:active { background-color: rgb(79, 167, 238); }
.btn-purple { background-color: rgb(114, 55, 228); box-shadow: rgba(0, 0, 0, 0.2) 0px 2px 10px, rgb(96, 37, 210) 0px 4px 0px; }
.btn-purple:hover, .btn-purple:active { background-color: rgb(130, 89, 228); }
.btn-twitter { background-color: rgb(27, 149, 224); box-shadow: rgba(0, 0, 0, 0.2) 0px 2px 10px, rgb(9, 131, 206) 0px 4px 0px; }
.btn-twitter:hover, .btn-twitter:active { background-color: rgb(12, 122, 191); }
.btn-facebook { background-color: rgb(66, 103, 178); box-shadow: rgba(0, 0, 0, 0.2) 0px 2px 10px, rgb(48, 85, 160) 0px 4px 0px; }
.btn-facebook:hover, .btn-facebook:active { background-color: rgb(54, 88, 153); }
.btn-google { background-color: rgb(221, 75, 57); box-shadow: rgba(0, 0, 0, 0.2) 0px 2px 10px, rgb(203, 57, 39) 0px 4px 0px; }
.btn-google:hover, .btn-google:active { background-color: rgb(186, 63, 49); }
.btn-discord { background-color: rgb(114, 137, 218); box-shadow: rgba(0, 0, 0, 0.2) 0px 2px 10px, rgb(96, 119, 200) 0px 4px 0px; }
.btn-discord:hover, .btn-discord:active { background-color: rgb(90, 109, 176); }
.btn-youtube { background-color: rgb(229, 45, 39); box-shadow: rgba(0, 0, 0, 0.2) 0px 2px 10px, rgb(211, 27, 21) 0px 4px 0px; }
.btn-youtube:hover, .btn-youtube:active { background-color: rgb(186, 37, 33); }
.hud { position: fixed; top: 0px; left: 0px; bottom: 0px; right: 0px; }
.hud .hud-bottom-left { display: flex; position: absolute; bottom: 20px; left: 20px; flex-direction: column-reverse; }
.hud-intro .hud-intro-corner-bottom-left, .hud-respawn .hud-respawn-corner-bottom-left { position: fixed; bottom: 20px; left: 20px; text-align: left; }
.hud-intro .hud-intro-social, .hud-respawn .hud-respawn-social { width: 240px; line-height: 24px; font-size: 14px; color: rgb(119, 119, 119); }
.hud-intro .hud-intro-social .btn, .hud-respawn .hud-respawn-social .btn { display: block; float: left; margin: 0px 10px 0px 0px; width: 40px; height: 40px; line-height: 40px; background-size: 24px; background-position: center center; background-repeat: no-repeat; }
.hud-intro .hud-intro-more-games { position: relative; bottom: 5px; line-height: 20px; font-size: 14px; color: rgba(255, 255, 255, 0.4); text-shadow: rgba(0, 0, 0, 0.2) 0px 1px 3px; }
.hud-intro .hud-intro-more-games a { display: inline-block; padding: 0px 20px; line-height: 40px; background: rgb(132, 115, 212); color: rgb(238, 238, 238); text-decoration: none; border-radius: 4px; transition: all 0.15s ease-in-out 0s; }
.hud-intro .hud-intro-more-games a:hover, .hud-intro .hud-intro-more-games a:active { background: rgb(103, 90, 166); }
#preroll video { left: 0px; top: 0px; }
.fb_hidden { position: absolute; top: -10000px; z-index: 10001; }
.fb_reposition { overflow: hidden; position: relative; }
.fb_invisible { display: none; }
.fb_reset { background: none; border: 0px; border-spacing: 0px; color: rgb(0, 0, 0); cursor: auto; direction: ltr; font-family: "lucida grande", tahoma, verdana, arial, sans-serif; font-size: 11px; font-style: normal; font-variant: normal; font-weight: normal; letter-spacing: normal; line-height: 1; margin: 0px; overflow: visible; padding: 0px; text-align: left; text-decoration: none; text-indent: 0px; text-shadow: none; text-transform: none; visibility: visible; white-space: normal; word-spacing: normal; }
.fb_animate { animation: 0.3s ease 0s 1 normal forwards running fb_transform; }
.fb_dialog { background: rgba(82, 82, 82, 0.7); position: absolute; top: -10000px; z-index: 10001; }
.fb_dialog_advanced { border-radius: 8px; padding: 10px; }
.fb_dialog_content { background: rgb(255, 255, 255); color: rgb(55, 55, 55); }
.fb_dialog_close_icon { background: url("https://static.xx.fbcdn.net/rsrc.php/v3/yq/r/IE9JII6Z1Ys.png") 0px 0px no-repeat scroll transparent; cursor: pointer; display: block; height: 15px; position: absolute; right: 18px; top: 17px; width: 15px; }
.fb_dialog_mobile .fb_dialog_close_icon { left: 5px; right: auto; top: 5px; }
.fb_dialog_padding { background-color: transparent; position: absolute; width: 1px; z-index: -1; }
.fb_dialog_close_icon:hover { background: url("https://static.xx.fbcdn.net/rsrc.php/v3/yq/r/IE9JII6Z1Ys.png") 0px -15px no-repeat scroll transparent; }
.fb_dialog_close_icon:active { background: url("https://static.xx.fbcdn.net/rsrc.php/v3/yq/r/IE9JII6Z1Ys.png") 0px -30px no-repeat scroll transparent; }
.fb_dialog_iframe { line-height: 0; }
.fb_dialog_content .dialog_title { background: rgb(109, 132, 180); border: 1px solid rgb(54, 88, 153); color: rgb(255, 255, 255); font-size: 14px; font-weight: bold; margin: 0px; }
body.fb_hidden { height: 100%; left: 0px; margin: 0px; overflow: visible; position: absolute; top: -10000px; transform: none; width: 100%; }
.fb_dialog.fb_dialog_mobile.loading { background: url("https://static.xx.fbcdn.net/rsrc.php/v3/ya/r/3rhSv5V8j3o.gif") 50% 50% no-repeat white; min-height: 100%; min-width: 100%; overflow: hidden; position: absolute; top: 0px; z-index: 10001; }
.fb_dialog.fb_dialog_mobile.loading.centered { background: none; height: auto; min-height: initial; min-width: initial; width: auto; }
.fb_dialog.fb_dialog_mobile.loading.centered #fb_dialog_loader_spinner { width: 100%; }
.fb_dialog.fb_dialog_mobile.loading.centered .fb_dialog_content { background: none; }
.loading.centered #fb_dialog_loader_close { clear: both; color: rgb(255, 255, 255); display: block; font-size: 18px; padding-top: 20px; }
#fb-root #fb_dialog_ipad_overlay { background: rgba(0, 0, 0, 0.4); bottom: 0px; left: 0px; min-height: 100%; position: absolute; right: 0px; top: 0px; width: 100%; z-index: 10000; }
#fb-root #fb_dialog_ipad_overlay.hidden { display: none; }
.fb_dialog.fb_dialog_mobile.loading iframe { visibility: hidden; }
.fb_dialog_mobile .fb_dialog_iframe { position: sticky; top: 0px; }
.fb_dialog_content .dialog_header { border-bottom: 1px solid rgb(4, 59, 135); border-top-color: rgb(4, 59, 135); border-right-color: rgb(4, 59, 135); border-left-color: rgb(4, 59, 135); box-shadow: white 0px 1px 1px -1px inset; color: rgb(255, 255, 255); font: bold 14px Helvetica, sans-serif; text-overflow: ellipsis; text-shadow: rgba(0, 30, 84, 0.298) 0px -1px 0px; vertical-align: middle; white-space: nowrap; }
.fb_dialog_content .dialog_header table { height: 43px; width: 100%; }
.fb_dialog_content .dialog_header td.header_left { font-size: 12px; padding-left: 5px; vertical-align: middle; width: 60px; }
.fb_dialog_content .dialog_header td.header_right { font-size: 12px; padding-right: 5px; vertical-align: middle; width: 60px; }
.fb_dialog_content .touchable_button { background-clip: padding-box; border: 1px solid rgb(41, 72, 125); border-radius: 3px; display: inline-block; line-height: 18px; margin-top: 3px; max-width: 85px; padding: 4px 12px; position: relative; }
.fb_dialog_content .dialog_header .touchable_button input { background: none; border: none; color: rgb(255, 255, 255); font: bold 12px Helvetica, sans-serif; margin: 2px -12px; padding: 2px 6px 3px; text-shadow: rgba(0, 30, 84, 0.298) 0px -1px 0px; }
.fb_dialog_content .dialog_header .header_center { color: rgb(255, 255, 255); font-size: 16px; font-weight: bold; line-height: 18px; text-align: center; vertical-align: middle; }
.fb_dialog_content .dialog_content { background: url("https://static.xx.fbcdn.net/rsrc.php/v3/y9/r/jKEcVPZFk-2.gif") 50% 50% no-repeat; border-width: 0px 1px; border-right-style: solid; border-left-style: solid; border-right-color: rgb(74, 74, 74); border-left-color: rgb(74, 74, 74); border-image: initial; border-bottom-style: initial; border-bottom-color: initial; border-top-style: initial; border-top-color: initial; height: 150px; }
.fb_dialog_content .dialog_footer { background: rgb(245, 246, 247); border-width: 1px; border-style: solid; border-color: rgb(204, 204, 204) rgb(74, 74, 74) rgb(74, 74, 74); border-image: initial; height: 40px; }
#fb_dialog_loader_close { float: left; }
.fb_dialog.fb_dialog_mobile .fb_dialog_close_button { text-shadow: rgba(0, 30, 84, 0.298) 0px -1px 0px; }
.fb_dialog.fb_dialog_mobile .fb_dialog_close_icon { visibility: hidden; }
#fb_dialog_loader_spinner { animation: 1.2s linear 0s infinite normal none running rotateSpinner; background-color: transparent; background-image: url("https://static.xx.fbcdn.net/rsrc.php/v3/yD/r/t-wz8gw1xG1.png"); background-position: 50% 50%; background-repeat: no-repeat; height: 24px; width: 24px; }
.fb_iframe_widget { display: inline-block; position: relative; }
.fb_iframe_widget span { display: inline-block; position: relative; text-align: justify; }
.fb_iframe_widget iframe { position: absolute; }
.fb_iframe_widget_fluid_desktop, .fb_iframe_widget_fluid_desktop span, .fb_iframe_widget_fluid_desktop iframe { max-width: 100%; }
.fb_iframe_widget_fluid_desktop iframe { min-width: 220px; position: relative; }
.fb_iframe_widget_lift { z-index: 1; }
.fb_iframe_widget_fluid { display: inline; }
.fb_iframe_widget_fluid span { width: 100%; }
.st0 { fill: rgb(119, 183, 73); }
.st1 { fill: rgb(247, 175, 47); }
.st2 { fill: rgb(233, 81, 15); }
.st3 { fill: url("#SVGID_1_"); }
.st4 { fill: url("#SVGID_2_"); }
.st5 { fill: rgb(252, 242, 119); }
.st6 { fill: url("#SVGID_3_"); }
.st7 { fill: url("#SVGID_4_"); }
.st8 { fill: url("#SVGID_5_"); }
.st9 { fill: url("#SVGID_6_"); }
.st10 { fill: url("#SVGID_7_"); }
.st11 { fill: url("#SVGID_8_"); }
.st12 { fill: url("#SVGID_9_"); }
.st13 { fill: url("#SVGID_10_"); }
.st14 { fill: url("#SVGID_11_"); }
.st15 { fill: url("#SVGID_12_"); }
.st16 { fill: url("#SVGID_13_"); }
.st17 { fill: url("#SVGID_14_"); }
.st18 { fill: url("#SVGID_15_"); }
.st19 { fill: url("#SVGID_16_"); }
.st0 { fill: rgb(119, 183, 73); }
.st1 { fill: rgb(247, 175, 47); }
.st2 { fill: rgb(233, 81, 15); }
.st3 { fill: url("#SVGID_1_"); }
.st4 { fill: url("#SVGID_2_"); }
.st5 { fill: rgb(252, 242, 119); }
.st6 { fill: url("#SVGID_3_"); }
.st7 { fill: url("#SVGID_4_"); }
.st8 { fill: url("#SVGID_5_"); }
.st9 { fill: url("#SVGID_6_"); }
.st10 { fill: url("#SVGID_7_"); }
.st11 { fill: url("#SVGID_8_"); }
.st12 { fill: url("#SVGID_9_"); }
.st13 { fill: url("#SVGID_10_"); }
.st14 { fill: url("#SVGID_11_"); }
.st15 { fill: url("#SVGID_12_"); }
.st16 { fill: url("#SVGID_13_"); }
.st17 { fill: url("#SVGID_14_"); }
.st18 { fill: url("#SVGID_15_"); }
.st19 { fill: url("#SVGID_16_"); }
.st0 { fill: rgb(119, 183, 73); }
.st1 { fill: rgb(247, 175, 47); }
.st2 { fill: rgb(233, 81, 15); }
.st3 { fill: url("#SVGID_1_"); }
.st4 { fill: url("#SVGID_2_"); }
.st5 { fill: rgb(252, 242, 119); }
.st6 { fill: url("#SVGID_3_"); }
.st7 { fill: url("#SVGID_4_"); }
.st8 { fill: url("#SVGID_5_"); }
.st9 { fill: url("#SVGID_6_"); }
.st10 { fill: url("#SVGID_7_"); }
.st11 { fill: url("#SVGID_8_"); }
.st12 { fill: url("#SVGID_9_"); }
.st13 { fill: url("#SVGID_10_"); }
.st14 { fill: url("#SVGID_11_"); }
.st15 { fill: url("#SVGID_12_"); }
.st16 { fill: url("#SVGID_13_"); }
.st17 { fill: url("#SVGID_14_"); }
.st18 { fill: url("#SVGID_15_"); }
.st19 { fill: url("#SVGID_16_"); }
.st0 { fill: rgb(119, 183, 73); }
.st1 { fill: rgb(247, 175, 47); }
.st2 { fill: rgb(233, 81, 15); }
.st3 { fill: url("#SVGID_1_"); }
.st4 { fill: url("#SVGID_2_"); }
.st5 { fill: rgb(252, 242, 119); }
.st6 { fill: url("#SVGID_3_"); }
.st7 { fill: url("#SVGID_4_"); }
.st8 { fill: url("#SVGID_5_"); }
.st9 { fill: url("#SVGID_6_"); }
.st10 { fill: url("#SVGID_7_"); }
.st11 { fill: url("#SVGID_8_"); }
.st12 { fill: url("#SVGID_9_"); }
.st13 { fill: url("#SVGID_10_"); }
.st14 { fill: url("#SVGID_11_"); }
.st15 { fill: url("#SVGID_12_"); }
.st16 { fill: url("#SVGID_13_"); }
.st17 { fill: url("#SVGID_14_"); }
.st18 { fill: url("#SVGID_15_"); }
.st19 { fill: url("#SVGID_16_"); }]]></style></defs><path fill="rgb(179, 26, 22)" d=" M 99.150000 251.080000 C 99.150000 251.080000 96.370000 285.970000 98.690000 294.090000 L 122.820000 293.130000 C 122.820000 293.130000 125.600000 287.400000 118.180000 285.970000 L 119.570000 247.730000 L 99.150000 251.080000 Z"/><path fill="rgb(179, 26, 22)" d=" M 172.930000 251.080000 C 172.930000 251.080000 170.140000 285.970000 172.460000 294.090000 L 196.590000 293.130000 C 196.590000 293.130000 199.380000 287.400000 191.950000 285.970000 L 193.340000 247.260000 L 172.930000 251.080000 Z"/><path fill="rgb(251, 50, 43)" d=" M 71.490000 227.060000 C 71.500000 226.980000 71.500000 226.900000 71.500000 226.820000 L 71.580000 225.680000 L 71.690000 224.670000 C 71.980000 221.930000 72.610000 219.210000 73.440000 216.610000 C 74.260000 214.020000 75.350000 211.560000 76.650000 209.390000 C 77.940000 207.220000 79.440000 205.330000 81.030000 203.920000 C 82.620000 202.490000 84.280000 201.560000 85.840000 201.080000 C 86.630000 200.830000 87.410000 200.710000 88.180000 200.650000 C 88.570000 200.630000 88.960000 200.630000 89.350000 200.650000 C 89.550000 200.660000 89.780000 200.670000 89.820000 200.720000 L 89.880000 200.740000 C 89.880000 200.750000 89.920000 200.750000 89.980000 200.750000 L 90.140000 200.740000 L 90.770000 200.730000 C 92.050000 200.680000 93.410000 200.470000 94.690000 200.070000 C 102.360000 197.670000 106.640000 189.500000 104.230000 181.830000 C 101.840000 174.160000 93.670000 169.890000 86.000000 172.290000 L 85.400000 172.480000 L 85.250000 172.530000 L 85.040000 172.590000 L 84.490000 172.730000 C 83.710000 172.940000 83.130000 173.140000 82.520000 173.350000 C 81.300000 173.780000 80.090000 174.260000 78.910000 174.790000 C 76.550000 175.860000 74.310000 177.180000 72.240000 178.660000 C 68.110000 181.640000 64.800000 185.310000 62.260000 189.100000 C 57.220000 196.780000 54.960000 204.840000 53.950000 212.680000 C 53.900000 213.090000 53.870000 213.490000 53.830000 213.900000 C 60.910000 216.100000 66.550000 221.500000 71.490000 227.060000 Z"/><path fill="rgb(253, 175, 31)" d=" M 292.680000 216.980000 C 298.910000 223.210000 298.910000 233.320000 292.680000 239.560000 C 286.440000 245.790000 276.340000 245.790000 270.100000 239.560000 C 263.870000 233.320000 263.870000 223.210000 270.100000 216.980000 C 276.340000 210.740000 286.440000 210.740000 292.680000 216.980000 Z"/><path fill="rgb(253, 175, 31)" d=" M 292.550000 216.980000 C 298.490000 223.210000 298.490000 233.320000 292.550000 239.560000 C 286.610000 245.790000 276.980000 245.790000 271.030000 239.560000 C 265.090000 233.320000 265.090000 223.210000 271.030000 216.980000 C 276.980000 210.740000 286.610000 210.740000 292.550000 216.980000 Z"/><path fill="rgb(242, 126, 24)" d=" M 280.100000 217.560000 C 280.100000 217.560000 278.740000 212.440000 276.980000 215.940000 C 275.220000 219.440000 276.350000 221.690000 277.850000 223.200000 C 279.350000 224.700000 283.480000 226.950000 284.610000 230.330000 C 285.740000 233.720000 286.490000 235.970000 285.740000 237.850000 C 285.220000 239.130000 281.060000 241.970000 279.640000 244.130000 C 280.210000 244.200000 280.800000 244.230000 281.390000 244.230000 C 284.690000 244.230000 287.750000 243.230000 290.300000 241.520000 C 290.960000 237.450000 291.370000 230.970000 291.370000 229.580000 C 291.370000 227.710000 282.730000 218.690000 280.100000 217.560000 Z"/><path fill="rgb(253, 175, 31)" d=" M 279.400000 213.430000 L 277.530000 207.040000 L 281.660000 205.920000 L 282.410000 208.550000 L 283.910000 205.170000 L 287.670000 205.920000 L 284.290000 213.810000 L 279.400000 213.430000 Z"/><path fill="rgb(251, 50, 43)" d=" M 178.800000 156.320000 C 178.950000 155.950000 179.040000 155.750000 179.150000 155.520000 L 179.450000 154.900000 L 180.040000 153.770000 C 180.430000 153.050000 180.820000 152.350000 181.230000 151.670000 C 182.040000 150.320000 182.900000 149.020000 183.800000 147.740000 C 185.600000 145.200000 187.630000 142.780000 189.900000 140.490000 C 194.410000 135.950000 200.200000 131.920000 206.930000 129.740000 C 210.270000 128.650000 213.780000 128.060000 217.200000 127.960000 C 220.620000 127.840000 223.940000 128.200000 227.050000 128.890000 C 230.150000 129.590000 233.050000 130.590000 235.750000 131.770000 C 237.090000 132.350000 238.430000 132.990000 239.650000 133.640000 L 240.760000 134.250000 L 241.780000 134.840000 C 242.450000 135.250000 243.120000 135.670000 243.770000 136.120000 C 246.380000 137.910000 248.810000 140.040000 250.900000 142.410000 C 253.000000 144.780000 254.760000 147.360000 256.200000 150.010000 C 259.080000 155.340000 260.630000 160.840000 261.560000 166.110000 C 263.370000 176.690000 263.060000 186.630000 262.690000 196.260000 C 262.480000 201.070000 262.240000 205.800000 262.120000 210.460000 C 262.000000 215.120000 261.980000 219.710000 262.330000 224.120000 C 262.520000 226.320000 262.790000 228.480000 263.230000 230.530000 C 263.340000 231.050000 263.470000 231.560000 263.590000 232.050000 L 264.050000 233.670000 C 264.360000 234.740000 264.690000 235.790000 265.050000 236.820000 C 265.780000 238.870000 266.620000 240.840000 267.620000 242.610000 C 268.610000 244.380000 269.780000 245.950000 271.070000 247.060000 C 271.720000 247.620000 272.390000 248.050000 273.090000 248.360000 C 273.440000 248.520000 273.810000 248.640000 274.160000 248.730000 C 274.540000 248.820000 274.490000 248.810000 274.750000 248.860000 C 274.950000 248.890000 275.140000 248.920000 275.340000 248.930000 C 276.930000 249.080000 278.660000 248.690000 280.340000 247.850000 C 283.700000 246.160000 286.670000 242.770000 288.060000 239.070000 C 288.410000 238.130000 288.650000 237.230000 288.760000 236.250000 C 288.890000 235.280000 288.910000 234.260000 288.820000 233.260000 C 288.660000 231.260000 288.050000 229.280000 287.080000 227.430000 C 285.130000 223.720000 281.740000 220.640000 277.840000 218.620000 L 277.830000 218.610000 C 276.860000 218.110000 276.480000 216.910000 276.980000 215.940000 C 277.470000 215.010000 278.600000 214.620000 279.550000 215.050000 C 284.200000 217.150000 288.400000 220.480000 291.250000 225.020000 C 294.090000 229.540000 295.230000 235.410000 293.590000 240.880000 C 292.790000 243.550000 291.500000 245.990000 289.860000 248.170000 C 288.220000 250.360000 286.210000 252.320000 283.750000 253.840000 C 281.300000 255.340000 278.320000 256.400000 275.130000 256.390000 C 274.730000 256.390000 274.340000 256.380000 273.940000 256.350000 C 273.610000 256.330000 272.970000 256.240000 272.770000 256.210000 C 271.960000 256.080000 271.170000 255.890000 270.400000 255.630000 C 268.870000 255.120000 267.460000 254.350000 266.210000 253.470000 C 263.710000 251.700000 261.840000 249.500000 260.290000 247.260000 C 258.750000 245.010000 257.510000 242.690000 256.440000 240.340000 C 255.900000 239.160000 255.400000 237.980000 254.940000 236.800000 L 254.280000 235.030000 C 254.050000 234.390000 253.830000 233.760000 253.630000 233.120000 C 252.850000 230.580000 252.260000 228.050000 251.810000 225.540000 C 250.060000 215.500000 249.910000 205.810000 249.270000 196.400000 C 248.970000 191.700000 248.620000 187.070000 248.050000 182.590000 C 247.480000 178.120000 246.720000 173.770000 245.530000 169.780000 C 244.340000 165.790000 242.750000 162.190000 240.700000 159.340000 C 238.680000 156.480000 236.210000 154.470000 233.350000 153.050000 C 232.990000 152.880000 232.620000 152.710000 232.250000 152.550000 L 231.680000 152.320000 L 231.190000 152.150000 C 230.250000 151.790000 229.390000 151.520000 228.510000 151.270000 C 226.750000 150.800000 225.050000 150.510000 223.460000 150.410000 C 220.260000 150.220000 217.670000 150.830000 215.490000 152.070000 C 213.300000 153.290000 211.330000 155.240000 209.580000 157.830000 C 208.710000 159.110000 207.930000 160.560000 207.250000 162.070000 C 206.910000 162.830000 206.610000 163.610000 206.350000 164.370000 C 206.220000 164.750000 206.100000 165.140000 206.010000 165.490000 L 205.880000 166.000000 L 205.840000 166.200000 C 205.840000 166.250000 205.830000 166.330000 205.870000 166.240000 C 203.140000 173.720000 194.860000 177.560000 187.380000 174.820000 C 179.900000 172.080000 176.060000 163.800000 178.800000 156.320000 Z"/><path fill="rgb(251, 50, 43)" d=" M 186.410000 178.220000 C 186.450000 178.210000 186.380000 178.240000 186.640000 178.140000 L 186.920000 178.040000 L 187.300000 177.930000 L 187.950000 177.750000 C 188.360000 177.650000 188.740000 177.570000 189.100000 177.500000 C 189.840000 177.350000 190.540000 177.240000 191.230000 177.160000 C 192.610000 177.000000 193.950000 176.930000 195.280000 176.930000 C 197.950000 176.930000 200.590000 177.280000 203.150000 177.910000 C 208.290000 179.160000 212.950000 181.780000 216.510000 184.900000 C 220.090000 188.050000 222.690000 191.600000 224.680000 195.110000 C 226.650000 198.630000 228.060000 202.150000 229.170000 205.590000 C 231.330000 212.510000 232.410000 219.200000 233.050000 225.780000 C 233.350000 229.060000 233.580000 232.330000 233.680000 235.540000 C 233.800000 238.760000 233.840000 241.840000 233.910000 244.910000 C 234.030000 251.010000 234.340000 256.970000 235.180000 262.700000 C 235.610000 265.570000 236.210000 268.360000 237.050000 271.010000 C 237.470000 272.330000 237.950000 273.620000 238.510000 274.840000 C 238.650000 275.150000 238.790000 275.450000 238.940000 275.750000 L 239.050000 275.970000 L 239.080000 276.030000 C 239.120000 276.080000 239.050000 275.990000 239.070000 276.010000 L 239.080000 276.040000 L 239.150000 276.170000 L 239.430000 276.670000 C 239.690000 277.170000 240.050000 277.750000 240.400000 278.270000 C 241.830000 280.380000 243.640000 282.070000 245.870000 283.220000 C 248.090000 284.380000 250.730000 284.940000 253.520000 285.030000 C 259.150000 285.210000 265.130000 283.790000 271.010000 282.120000 L 271.020000 282.120000 C 272.070000 281.820000 273.170000 282.430000 273.470000 283.480000 C 273.750000 284.480000 273.200000 285.530000 272.240000 285.880000 C 266.410000 288.010000 260.430000 290.320000 253.660000 290.850000 C 250.290000 291.090000 246.670000 290.820000 243.190000 289.560000 C 239.700000 288.320000 236.550000 286.030000 234.130000 283.320000 C 233.520000 282.630000 232.960000 281.970000 232.380000 281.170000 L 232.030000 280.700000 L 231.940000 280.580000 L 231.820000 280.400000 L 231.630000 280.130000 C 231.380000 279.770000 231.140000 279.400000 230.910000 279.030000 C 229.970000 277.560000 229.150000 276.040000 228.420000 274.490000 C 226.950000 271.410000 225.820000 268.260000 224.840000 265.110000 C 222.900000 258.810000 221.710000 252.470000 220.550000 246.300000 C 219.980000 243.220000 219.440000 240.160000 218.860000 237.240000 C 218.270000 234.310000 217.630000 231.460000 216.860000 228.670000 C 215.310000 223.100000 213.370000 217.730000 210.810000 213.220000 C 208.350000 208.720000 205.020000 205.160000 202.230000 204.090000 C 200.860000 203.520000 199.730000 203.520000 198.760000 203.760000 C 198.280000 203.870000 197.820000 204.080000 197.410000 204.320000 C 197.200000 204.440000 197.010000 204.590000 196.880000 204.730000 C 196.810000 204.800000 196.760000 204.880000 196.750000 204.940000 C 196.740000 204.970000 196.750000 205.000000 196.790000 205.010000 C 196.810000 205.020000 196.840000 205.030000 196.900000 205.020000 C 196.920000 205.020000 196.960000 205.020000 197.000000 205.010000 L 197.040000 205.000000 C 197.060000 204.990000 197.060000 205.000000 197.150000 204.960000 C 197.360000 204.880000 197.240000 204.930000 197.240000 204.940000 C 194.910000 215.280000 184.620000 221.770000 174.280000 219.430000 C 163.940000 217.100000 157.450000 206.820000 159.780000 196.470000 C 161.360000 189.520000 166.520000 184.300000 172.880000 182.350000 L 186.410000 178.220000 Z"/><path fill="rgb(251, 50, 43)" d=" M 104.800000 144.400000 L 104.590000 144.220000 C 97.350000 138.250000 89.200000 132.750000 79.400000 129.420000 C 74.510000 127.790000 69.150000 126.740000 63.640000 126.910000 C 60.890000 126.980000 58.130000 127.330000 55.460000 127.990000 C 52.890000 128.630000 50.390000 129.510000 48.030000 130.620000 C 43.280000 132.820000 39.070000 135.870000 35.630000 139.390000 C 32.170000 142.920000 29.390000 146.830000 27.180000 150.900000 C 22.770000 159.060000 20.490000 167.780000 19.630000 176.500000 C 19.230000 180.870000 19.230000 185.270000 19.700000 189.630000 C 19.930000 191.820000 20.270000 194.000000 20.750000 196.160000 C 20.890000 196.720000 20.980000 197.160000 21.170000 197.910000 C 21.350000 198.550000 21.530000 199.130000 21.740000 199.700000 C 22.150000 200.830000 22.600000 201.880000 23.080000 202.880000 C 25.010000 206.860000 27.240000 210.300000 29.430000 213.730000 C 31.620000 217.150000 33.830000 220.480000 35.930000 223.830000 C 38.020000 227.190000 40.040000 230.550000 41.710000 234.020000 C 43.390000 237.470000 44.800000 241.030000 45.360000 244.560000 C 45.940000 248.090000 45.480000 251.510000 43.450000 254.160000 C 41.450000 256.840000 38.070000 258.660000 34.500000 259.890000 L 34.490000 259.890000 C 33.500000 260.240000 32.940000 261.300000 33.240000 262.320000 C 33.540000 263.370000 34.640000 263.970000 35.690000 263.670000 C 37.720000 263.080000 39.740000 262.330000 41.690000 261.270000 C 43.620000 260.220000 45.490000 258.850000 47.030000 257.060000 C 48.570000 255.280000 49.700000 253.060000 50.250000 250.770000 C 50.830000 248.470000 50.900000 246.140000 50.700000 243.920000 C 50.260000 239.470000 48.890000 235.390000 47.320000 231.520000 C 45.720000 227.650000 43.900000 223.950000 41.990000 220.350000 C 40.090000 216.740000 38.110000 213.220000 36.210000 209.730000 C 34.340000 206.240000 32.500000 202.730000 31.210000 199.360000 C 30.880000 198.520000 30.610000 197.690000 30.400000 196.910000 C 30.300000 196.530000 30.210000 196.140000 30.150000 195.800000 C 30.110000 195.580000 30.030000 195.030000 30.000000 194.600000 C 29.820000 192.810000 29.750000 190.980000 29.790000 189.160000 C 29.890000 185.510000 30.370000 181.840000 31.190000 178.280000 C 32.800000 171.150000 35.820000 164.370000 39.920000 158.890000 C 44.000000 153.390000 49.330000 149.480000 54.800000 148.110000 C 56.180000 147.770000 57.570000 147.560000 58.940000 147.500000 C 60.230000 147.450000 61.490000 147.540000 62.760000 147.780000 C 65.280000 148.280000 67.810000 149.300000 70.300000 150.810000 C 72.780000 152.320000 75.220000 154.270000 77.480000 156.550000 C 78.620000 157.680000 79.710000 158.890000 80.760000 160.160000 C 81.280000 160.800000 81.800000 161.440000 82.290000 162.110000 L 83.020000 163.120000 L 83.350000 163.600000 L 83.780000 164.190000 C 84.470000 165.130000 85.340000 166.060000 86.280000 166.840000 C 92.470000 171.960000 101.640000 171.080000 106.760000 164.890000 C 111.880000 158.690000 111.000000 149.520000 104.800000 144.400000 Z"/><path fill="rgb(253, 175, 31)" d=" M 199.170000 69.320000 L 210.400000 67.960000 L 205.740000 54.570000 C 205.740000 54.570000 221.090000 64.200000 222.440000 76.740000 C 222.440000 76.740000 208.540000 83.030000 201.020000 82.810000 C 201.020000 82.810000 197.610000 79.050000 199.170000 69.320000 Z"/><path fill="rgb(251, 50, 43)" d=" M 207.730000 148.570000 C 207.730000 243.910000 210.510000 263.020000 146.250000 263.020000 C 87.090000 263.020000 84.770000 258.250000 84.770000 148.570000 C 84.770000 90.110000 85.700000 42.720000 146.250000 42.720000 C 210.980000 42.720000 207.730000 90.110000 207.730000 148.570000 Z"/><path fill="rgb(179, 26, 22)" d=" M 116.160000 236.500000 C 116.160000 241.370000 113.030000 245.320000 109.170000 245.320000 C 105.310000 245.320000 102.180000 241.370000 102.180000 236.500000 C 102.180000 231.620000 105.310000 227.680000 109.170000 227.680000 C 113.030000 227.680000 116.160000 231.620000 116.160000 236.500000 Z"/><path fill="rgb(179, 26, 22)" d=" M 103.420000 218.090000 C 104.810000 219.810000 104.810000 222.610000 103.420000 224.330000 C 102.020000 226.050000 99.770000 226.050000 98.370000 224.330000 C 96.980000 222.610000 96.980000 219.810000 98.370000 218.090000 C 99.770000 216.370000 102.020000 216.370000 103.420000 218.090000 Z"/><path fill="rgb(179, 26, 22)" d=" M 118.530000 213.290000 C 120.280000 215.380000 120.280000 218.770000 118.530000 220.860000 C 116.780000 222.950000 113.950000 222.950000 112.200000 220.860000 C 110.460000 218.770000 110.460000 215.380000 112.200000 213.290000 C 113.950000 211.200000 116.780000 211.200000 118.530000 213.290000 Z"/><path fill="rgb(179, 26, 22)" d=" M 198.030000 227.820000 C 199.610000 229.850000 199.610000 233.140000 198.030000 235.170000 C 196.450000 237.200000 193.890000 237.200000 192.320000 235.170000 C 190.740000 233.140000 190.740000 229.850000 192.320000 227.820000 C 193.890000 225.780000 196.450000 225.780000 198.030000 227.820000 Z"/><path fill="rgb(179, 26, 22)" d=" M 201.660000 214.820000 C 203.020000 216.970000 203.020000 220.450000 201.660000 222.600000 C 200.310000 224.750000 198.120000 224.750000 196.770000 222.600000 C 195.410000 220.450000 195.410000 216.970000 196.770000 214.820000 C 198.120000 212.670000 200.310000 212.670000 201.660000 214.820000 Z"/><path fill="rgb(179, 26, 22)" d=" M 191.560000 211.760000 C 192.920000 213.790000 192.920000 217.090000 191.560000 219.120000 C 190.210000 221.150000 188.020000 221.150000 186.670000 219.120000 C 185.310000 217.090000 185.310000 213.790000 186.670000 211.760000 C 188.020000 209.730000 190.210000 209.730000 191.560000 211.760000 Z"/><path fill="rgb(254, 227, 201)" d=" M 145.620000 38.010000 C 125.620000 38.820000 89.640000 31.900000 83.920000 89.070000 C 78.210000 146.230000 79.160000 185.290000 82.970000 221.490000 C 82.790000 229.390000 82.840000 237.280000 82.840000 245.170000 C 82.840000 251.200000 82.920000 257.110000 83.300000 263.120000 C 83.550000 267.070000 82.430000 272.630000 85.550000 275.610000 C 89.810000 279.680000 99.250000 278.290000 104.560000 278.040000 C 113.120000 277.620000 121.460000 276.170000 130.130000 276.160000 C 139.660000 276.160000 148.950000 277.900000 158.480000 278.040000 C 166.030000 278.160000 172.760000 276.230000 180.130000 275.270000 C 185.060000 274.630000 190.640000 274.710000 195.590000 275.160000 C 203.600000 275.890000 205.650000 277.340000 205.930000 268.720000 C 206.060000 264.900000 206.380000 261.060000 206.570000 257.240000 C 207.160000 245.310000 207.690000 233.370000 208.160000 221.440000 C 209.240000 194.590000 210.520000 167.750000 211.300000 140.890000 C 211.520000 133.210000 212.140000 125.330000 211.590000 117.650000 C 210.630000 104.310000 219.620000 35.000000 145.620000 38.010000 Z M 105.620000 80.840000 C 103.890000 87.250000 99.470000 91.700000 95.750000 90.770000 C 92.030000 89.840000 90.410000 83.880000 92.140000 77.470000 C 93.870000 71.050000 98.290000 66.600000 102.010000 67.530000 C 105.730000 68.460000 107.350000 74.420000 105.620000 80.840000 Z"/><path fill="rgb(253, 208, 163)" d=" M 145.620000 38.010000 C 125.620000 38.820000 89.640000 31.900000 83.920000 89.070000 C 78.210000 146.230000 79.160000 185.290000 82.970000 221.490000 C 82.790000 229.390000 82.840000 237.280000 82.840000 245.170000 C 82.840000 251.200000 82.920000 257.110000 83.300000 263.120000 C 83.550000 267.070000 82.430000 272.630000 85.550000 275.610000 C 89.810000 279.680000 99.250000 278.290000 104.560000 278.040000 C 106.330000 277.950000 108.090000 277.810000 109.840000 277.660000 C 108.170000 261.210000 103.050000 210.640000 101.590000 192.110000 C 99.830000 169.850000 110.380000 80.210000 113.890000 60.880000 C 116.660000 45.670000 152.770000 40.980000 168.060000 39.670000 C 161.580000 38.280000 154.160000 37.660000 145.620000 38.010000 Z M 105.620000 80.840000 C 103.890000 87.250000 99.470000 91.700000 95.750000 90.770000 C 92.030000 89.840000 90.410000 83.880000 92.140000 77.470000 C 93.870000 71.050000 98.290000 66.600000 102.010000 67.530000 C 105.730000 68.460000 107.350000 74.420000 105.620000 80.840000 Z"/><path fill="rgb(68, 18, 15)" d=" M 130.010000 266.660000 L 127.180000 266.220000 C 127.210000 266.040000 130.220000 247.780000 145.800000 247.780000 C 145.960000 247.780000 146.130000 247.780000 146.300000 247.780000 C 161.480000 248.160000 163.130000 266.140000 163.150000 266.320000 L 160.300000 266.560000 C 160.240000 265.920000 158.830000 250.950000 146.230000 250.640000 C 146.090000 250.640000 145.950000 250.640000 145.810000 250.640000 C 132.670000 250.640000 130.110000 266.000000 130.010000 266.660000 Z"/><path fill="rgb(130, 26, 47)" d=" M 125.590000 264.230000 C 124.690000 265.940000 124.180000 267.800000 124.180000 269.750000 C 124.180000 278.170000 133.380000 284.990000 144.720000 284.990000 C 156.060000 284.990000 165.250000 278.170000 165.250000 269.750000 C 165.250000 267.800000 164.740000 265.940000 163.840000 264.230000 L 125.590000 264.230000 Z"/><path fill="rgb(77, 17, 30)" d=" M 144.720000 281.240000 C 134.240000 281.240000 125.610000 275.410000 124.350000 267.890000 C 124.250000 268.500000 124.180000 269.120000 124.180000 269.750000 C 124.180000 278.170000 133.380000 284.990000 144.720000 284.990000 C 156.060000 284.990000 165.260000 278.170000 165.260000 269.750000 C 165.260000 269.120000 165.180000 268.500000 165.080000 267.890000 C 163.820000 275.410000 155.190000 281.240000 144.720000 281.240000 Z"/><path fill="rgb(251, 50, 43)" d=" M 147.210000 249.310000 C 144.270000 247.240000 140.870000 245.760000 137.310000 244.970000 C 133.750000 244.160000 130.090000 244.070000 126.550000 244.380000 C 123.010000 244.690000 119.560000 245.380000 116.200000 246.200000 C 114.510000 246.620000 112.900000 247.050000 111.210000 247.550000 C 109.530000 248.050000 107.920000 248.590000 106.320000 249.120000 C 103.120000 250.170000 100.020000 251.200000 96.970000 252.020000 C 93.930000 252.840000 90.940000 253.440000 88.140000 253.550000 C 85.330000 253.670000 82.790000 253.290000 80.700000 252.390000 C 78.590000 251.490000 76.820000 250.050000 75.510000 248.250000 C 72.840000 244.630000 71.610000 239.220000 71.390000 233.460000 C 71.340000 232.020000 71.340000 230.550000 71.390000 229.060000 C 71.410000 228.400000 71.450000 227.730000 71.490000 227.060000 C 66.550000 221.500000 60.910000 216.100000 53.830000 213.900000 C 53.460000 217.430000 53.400000 220.950000 53.600000 224.470000 L 53.700000 225.960000 L 53.830000 227.310000 C 53.930000 228.230000 54.030000 229.140000 54.150000 230.070000 C 54.400000 231.900000 54.700000 233.760000 55.090000 235.610000 C 55.860000 239.330000 56.890000 243.100000 58.530000 246.830000 C 60.170000 250.540000 62.440000 254.250000 65.640000 257.350000 C 68.830000 260.450000 72.840000 262.740000 77.100000 263.830000 C 81.380000 264.940000 85.650000 264.790000 89.450000 264.080000 C 97.070000 262.590000 103.300000 259.400000 109.300000 256.590000 C 112.290000 255.160000 115.170000 253.920000 118.220000 252.790000 C 121.230000 251.660000 124.270000 250.720000 127.330000 250.140000 C 130.380000 249.570000 133.460000 249.350000 136.470000 249.720000 C 139.490000 250.060000 142.400000 251.070000 145.050000 252.630000 L 145.070000 252.640000 C 145.950000 253.150000 147.090000 252.920000 147.680000 252.070000 C 148.320000 251.170000 148.100000 249.940000 147.210000 249.310000 Z"/><path fill="rgb(253, 175, 31)" d=" M 100.170000 71.440000 L 84.770000 70.690000 L 87.770000 57.910000 C 87.770000 57.910000 73.300000 67.100000 72.210000 79.680000 C 72.210000 79.680000 88.550000 85.480000 97.260000 85.000000 C 97.260000 85.000000 102.350000 81.120000 100.170000 71.440000 Z"/><path fill="rgb(68, 18, 15)" d=" M 116.840000 145.960000 L 184.950000 145.960000 C 184.950000 145.960000 190.580000 186.120000 150.660000 186.120000 C 110.680000 186.120000 116.840000 145.960000 116.840000 145.960000 Z"/><path fill="rgb(255, 255, 255)" d=" M 127.230000 153.150000 C 129.980000 153.190000 132.330000 150.120000 133.010000 145.960000 L 121.680000 145.960000 C 122.280000 150.060000 124.510000 153.110000 127.230000 153.150000 Z M 138.920000 153.330000 C 141.710000 153.370000 144.090000 150.220000 144.740000 145.960000 L 133.350000 145.960000 C 133.910000 150.150000 136.170000 153.290000 138.920000 153.330000 Z M 162.310000 153.680000 C 165.180000 153.730000 167.610000 150.390000 168.170000 145.960000 L 156.690000 145.960000 C 157.170000 150.320000 159.480000 153.640000 162.310000 153.680000 Z M 168.380000 145.960000 C 168.800000 150.410000 171.140000 153.810000 174.000000 153.860000 C 176.910000 153.900000 179.370000 150.480000 179.890000 145.960000 L 168.380000 145.960000 Z M 150.620000 153.500000 C 153.440000 153.550000 155.850000 150.300000 156.460000 145.960000 L 145.020000 145.960000 C 145.540000 150.230000 147.820000 153.460000 150.620000 153.500000 Z"/><path fill="rgb(252, 148, 139)" d=" M 110.990000 152.720000 C 110.990000 156.340000 108.150000 159.270000 104.640000 159.270000 C 101.130000 159.270000 98.290000 156.340000 98.290000 152.720000 C 98.290000 149.110000 101.130000 146.190000 104.640000 146.190000 C 108.150000 146.190000 110.990000 149.110000 110.990000 152.720000 Z"/><path fill="rgb(252, 148, 139)" d=" M 201.450000 148.920000 C 201.450000 152.530000 198.610000 155.460000 195.100000 155.460000 C 191.590000 155.460000 188.750000 152.530000 188.750000 148.920000 C 188.750000 145.310000 191.590000 142.380000 195.100000 142.380000 C 198.610000 142.380000 201.450000 145.310000 201.450000 148.920000 Z"/><path fill="rgb(68, 18, 15)" d=" M 120.530000 119.700000 C 123.370000 124.590000 123.370000 132.510000 120.530000 137.390000 C 117.700000 142.270000 113.110000 142.270000 110.280000 137.390000 C 107.440000 132.510000 107.440000 124.590000 110.280000 119.700000 C 113.110000 114.820000 117.700000 114.820000 120.530000 119.700000 Z"/><path fill="rgb(68, 18, 15)" d=" M 194.030000 116.190000 C 196.870000 121.070000 196.870000 128.990000 194.030000 133.880000 C 191.200000 138.760000 186.610000 138.760000 183.780000 133.880000 C 180.940000 128.990000 180.940000 121.070000 183.780000 116.190000 C 186.610000 111.310000 191.200000 111.310000 194.030000 116.190000 Z"/><path fill="rgb(251, 50, 43)" d=" M 101.670000 72.940000 C 100.410000 73.290000 97.580000 74.130000 96.830000 76.280000 C 97.490000 75.950000 98.390000 75.860000 99.000000 75.640000 C 98.050000 77.120000 96.830000 78.460000 96.470000 80.020000 C 97.630000 79.550000 98.350000 79.530000 99.290000 78.230000 C 98.150000 79.210000 97.240000 80.590000 96.840000 81.910000 C 97.620000 81.420000 98.490000 81.280000 99.280000 80.460000 C 98.450000 81.660000 98.530000 82.860000 98.350000 84.150000 C 100.030000 83.940000 101.330000 82.530000 102.420000 81.200000"/><path fill="rgb(253, 175, 31)" d=" M 119.040000 127.200000 C 119.990000 128.890000 119.990000 131.620000 119.040000 133.310000 C 118.090000 135.000000 116.540000 135.000000 115.590000 133.310000 C 114.630000 131.620000 114.630000 128.890000 115.590000 127.200000 C 116.540000 125.510000 118.090000 125.510000 119.040000 127.200000 Z"/><path fill="rgb(253, 175, 31)" d=" M 188.500000 121.990000 C 189.450000 123.680000 189.450000 126.410000 188.500000 128.100000 C 187.540000 129.790000 186.000000 129.790000 185.040000 128.100000 C 184.090000 126.410000 184.090000 123.680000 185.040000 121.990000 C 186.000000 120.310000 187.540000 120.310000 188.500000 121.990000 Z"/><path fill="rgb(68, 18, 15)" d=" M 170.240000 193.920000 C 169.630000 205.630000 162.400000 210.840000 156.990000 213.110000 C 157.270000 212.520000 157.430000 211.880000 157.430000 211.200000 C 157.430000 209.590000 156.700000 208.750000 155.440000 208.320000 L 154.170000 204.030000 L 152.950000 207.960000 C 152.710000 207.950000 152.470000 207.940000 152.220000 207.940000 C 151.500000 207.940000 150.800000 207.970000 150.140000 208.050000 L 148.950000 204.030000 L 147.470000 208.790000 C 146.580000 209.280000 146.020000 210.040000 146.020000 211.200000 C 146.020000 212.120000 146.320000 212.980000 146.840000 213.710000 C 141.370000 211.830000 132.670000 206.820000 132.000000 193.920000 L 107.520000 214.690000 C 107.520000 214.690000 119.930000 210.550000 122.220000 221.960000 C 122.220000 221.960000 133.300000 208.270000 140.150000 220.980000 C 140.150000 220.980000 149.040000 220.990000 151.000000 229.760000 L 151.000000 231.090000 C 151.030000 230.830000 151.070000 230.590000 151.120000 230.340000 C 151.160000 230.590000 151.200000 230.830000 151.240000 231.090000 L 151.240000 229.760000 C 153.200000 220.990000 162.090000 220.980000 162.090000 220.980000 C 168.930000 208.270000 180.020000 221.960000 180.020000 221.960000 C 182.300000 210.550000 194.720000 214.690000 194.720000 214.690000 L 170.240000 193.920000 Z M 149.120000 212.180000 C 148.670000 212.180000 148.300000 211.810000 148.300000 211.370000 C 148.300000 210.920000 148.670000 210.550000 149.120000 210.550000 C 149.570000 210.550000 149.930000 210.920000 149.930000 211.370000 C 149.930000 211.810000 149.570000 212.180000 149.120000 212.180000 Z M 154.830000 212.180000 C 154.380000 212.180000 154.010000 211.810000 154.010000 211.370000 C 154.010000 210.920000 154.380000 210.550000 154.830000 210.550000 C 155.270000 210.550000 155.640000 210.920000 155.640000 211.370000 C 155.640000 211.810000 155.270000 212.180000 154.830000 212.180000 Z"/><path fill="rgb(118, 173, 135)" d=" M 31.660000 228.920000 C 20.320000 227.460000 10.030000 234.860000 10.680000 244.840000 C 11.030000 250.270000 14.080000 254.950000 18.630000 257.990000 C 17.490000 260.490000 16.690000 263.810000 17.580000 265.470000 C 19.700000 269.430000 21.110000 265.550000 21.480000 262.770000 C 21.290000 268.520000 25.370000 269.690000 25.550000 263.850000 C 25.590000 266.290000 26.980000 268.800000 29.370000 267.450000 C 30.740000 266.680000 31.380000 264.160000 31.550000 261.610000 C 31.870000 261.600000 32.180000 261.590000 32.500000 261.570000 C 43.910000 260.830000 52.630000 252.140000 51.980000 242.160000 C 51.330000 232.180000 43.280000 230.430000 31.660000 228.920000 Z M 16.610000 239.270000 L 24.010000 250.640000 C 24.010000 250.640000 9.990000 257.100000 16.610000 239.270000 Z M 26.840000 259.040000 L 26.400000 256.480000 L 24.840000 258.850000 L 22.620000 258.650000 L 27.510000 251.740000 L 29.950000 258.850000 L 26.840000 259.040000 Z M 32.180000 250.850000 L 45.510000 245.170000 C 45.510000 245.170000 41.720000 260.970000 32.180000 250.850000 Z"/><path fill="rgb(81, 117, 91)" d=" M 51.980000 242.160000 C 51.350000 232.450000 43.700000 230.530000 32.580000 229.050000 C 37.600000 231.940000 41.960000 237.240000 41.420000 246.910000 L 45.510000 245.170000 C 45.510000 245.170000 43.970000 251.560000 40.400000 253.610000 C 39.890000 255.730000 39.190000 258.010000 38.270000 260.460000 C 46.700000 257.710000 52.510000 250.370000 51.980000 242.160000 Z"/><path fill="rgb(251, 50, 43)" d=" M 87.480000 134.060000 C 89.890000 140.240000 89.890000 150.250000 87.480000 156.430000 C 85.080000 162.610000 81.190000 162.610000 78.780000 156.430000 C 76.380000 150.250000 76.380000 140.240000 78.780000 134.060000 C 81.190000 127.880000 85.080000 127.880000 87.480000 134.060000 Z"/><path fill="rgb(251, 50, 43)" d=" M 86.480000 176.240000 C 88.660000 182.420000 88.660000 192.430000 86.480000 198.610000 C 84.310000 204.790000 80.790000 204.790000 78.610000 198.610000 C 76.440000 192.430000 76.440000 182.420000 78.610000 176.240000 C 80.790000 170.060000 84.310000 170.060000 86.480000 176.240000 Z"/><path fill="rgb(253, 208, 163)" d=" M 147.330000 49.540000 C 149.610000 51.590000 149.610000 54.930000 147.330000 56.990000 C 145.040000 59.050000 141.330000 59.050000 139.040000 56.990000 C 136.750000 54.930000 136.750000 51.590000 139.040000 49.540000 C 141.330000 47.480000 145.040000 47.480000 147.330000 49.540000 Z"/><path fill="rgb(253, 208, 163)" d=" M 159.900000 48.260000 C 161.040000 49.410000 161.040000 51.260000 159.900000 52.410000 C 158.760000 53.550000 156.900000 53.550000 155.760000 52.410000 C 154.610000 51.260000 154.610000 49.410000 155.760000 48.260000 C 156.900000 47.120000 158.760000 47.120000 159.900000 48.260000 Z"/></svg>