<?xml version="1.0" standalone="no"?><!DOCTYPE svg PUBLIC "-//W3C//DTD SVG 1.1//EN" "http://www.w3.org/Graphics/SVG/1.1/DTD/svg11.dtd"><svg id="Hut0.svg" width="150" height="150" version="1.1" viewBox="0 0 300 300" xmlns="http://www.w3.org/2000/svg" xmlns:xlink="http://www.w3.org/1999/xlink"><defs xmlns="http://www.w3.org/1999/xhtml"><style type="text/css"><![CDATA[
* { border: 0px; margin: 0px; padding: 0px; }
html { background-color: rgb(255, 255, 255); font-family: Verdana, Arial; }
.webgl-content * { position: absolute; width: 100%; height: 100%; user-select: none; }
.webgl-content .logo, .progress { position: absolute; left: 50%; top: 50%; transform: translate(-50%, -50%); }
.webgl-content .logo { background: url("progressLogo.Light.png") center center / contain no-repeat; width: 154px; height: 130px; }
.webgl-content .progress { height: 18px; width: 141px; margin-top: 90px; }
.webgl-content .progress .empty { background: url("progressEmpty.Light.png") right center / cover no-repeat; float: right; width: 100%; height: 100%; display: inline-block; }
.webgl-content .progress .full { background: url("progressFull.Light.png") left center / cover no-repeat; float: left; width: 0%; height: 100%; display: inline-block; }
.webgl-content .logo.Dark { background-image: url("progressLogo.Dark.png"); }
.webgl-content .progress.Dark .empty { background-image: url("progressEmpty.Dark.png"); }
.webgl-content .progress.Dark .full { background-image: url("progressFull.Dark.png"); }
#loading-content { z-index: 10000; position: fixed; width: 100%; height: 100%; left: 0px; top: 0px; overflow: hidden; background: url("background.png"); }
.hud-intro .hud-intro-social .btn-discord, .hud-respawn .hud-respawn-social .btn-discord { background-image: url("//lordz.io/images/discord-icon.png"); }
.hud-intro .hud-intro-social .btn-twitter, .hud-respawn .hud-respawn-social .btn-twitter { background-image: url("//lordz.io/images/twitter-icon.png"); }
.hud-intro .hud-intro-social .btn-facebook, .hud-respawn .hud-respawn-social .btn-facebook { background-image: url("//lordz.io/images/facebook-icon.png"); }
.hud-intro .hud-intro-social .btn-youtube, .hud-respawn .hud-respawn-social .btn-youtube { background-image: url("//lordz.io/images/youtube-icon.png"); }
* { box-sizing: border-box; user-select: none; }
.btn { position: relative; display: inline-block; top: 0px; height: 36px; line-height: 36px; padding: 0px 20px; background: rgb(68, 68, 68); color: rgb(238, 238, 238); border: 0px; font-size: 14px; vertical-align: top; text-align: center; text-decoration: none; text-shadow: rgba(0, 0, 0, 0.4) 0px 1px 0px; box-shadow: rgba(0, 0, 0, 0.2) 0px 2px 10px, rgb(51, 51, 51) 0px 4px 0px; border-radius: 4px; transition: all 0.15s ease-in-out 0s; }
.btn:hover, .btn:active { background-color: rgb(85, 85, 85); color: rgb(255, 255, 255); }
.btn:active { top: 4px; box-shadow: rgba(0, 0, 0, 0.2) 0px 2px 10px !important; }
.btn-green { background-color: rgb(71, 149, 13); box-shadow: rgba(0, 0, 0, 0.2) 0px 2px 10px, rgb(53, 131, 0) 0px 4px 0px; }
.btn-green:hover, .btn-green:active { background-color: rgb(100, 184, 32); }
.btn-red { background-color: rgb(179, 53, 60); box-shadow: rgba(0, 0, 0, 0.2) 0px 2px 10px, rgb(161, 35, 42) 0px 4px 0px; }
.btn-red:hover, .btn-red:active { background-color: rgb(203, 87, 91); }
.btn-blue { background-color: rgb(29, 141, 238); box-shadow: rgba(0, 0, 0, 0.2) 0px 2px 10px, rgb(11, 123, 220) 0px 4px 0px; }
.btn-blue:hover, .btn-blue:active { background-color: rgb(79, 167, 238); }
.btn-purple { background-color: rgb(114, 55, 228); box-shadow: rgba(0, 0, 0, 0.2) 0px 2px 10px, rgb(96, 37, 210) 0px 4px 0px; }
.btn-purple:hover, .btn-purple:active { background-color: rgb(130, 89, 228); }
.btn-twitter { background-color: rgb(27, 149, 224); box-shadow: rgba(0, 0, 0, 0.2) 0px 2px 10px, rgb(9, 131, 206) 0px 4px 0px; }
.btn-twitter:hover, .btn-twitter:active { background-color: rgb(12, 122, 191); }
.btn-facebook { background-color: rgb(66, 103, 178); box-shadow: rgba(0, 0, 0, 0.2) 0px 2px 10px, rgb(48, 85, 160) 0px 4px 0px; }
.btn-facebook:hover, .btn-facebook:active { background-color: rgb(54, 88, 153); }
.btn-google { background-color: rgb(221, 75, 57); box-shadow: rgba(0, 0, 0, 0.2) 0px 2px 10px, rgb(203, 57, 39) 0px 4px 0px; }
.btn-google:hover, .btn-google:active { background-color: rgb(186, 63, 49); }
.btn-discord { background-color: rgb(114, 137, 218); box-shadow: rgba(0, 0, 0, 0.2) 0px 2px 10px, rgb(96, 119, 200) 0px 4px 0px; }
.btn-discord:hover, .btn-discord:active { background-color: rgb(90, 109, 176); }
.btn-youtube { background-color: rgb(229, 45, 39); box-shadow: rgba(0, 0, 0, 0.2) 0px 2px 10px, rgb(211, 27, 21) 0px 4px 0px; }
.btn-youtube:hover, .btn-youtube:active { background-color: rgb(186, 37, 33); }
.hud { position: fixed; top: 0px; left: 0px; bottom: 0px; right: 0px; }
.hud .hud-bottom-left { display: flex; position: absolute; bottom: 20px; left: 20px; flex-direction: column-reverse; }
.hud-intro .hud-intro-corner-bottom-left, .hud-respawn .hud-respawn-corner-bottom-left { position: fixed; bottom: 20px; left: 20px; text-align: left; }
.hud-intro .hud-intro-social, .hud-respawn .hud-respawn-social { width: 240px; line-height: 24px; font-size: 14px; color: rgb(119, 119, 119); }
.hud-intro .hud-intro-social .btn, .hud-respawn .hud-respawn-social .btn { display: block; float: left; margin: 0px 10px 0px 0px; width: 40px; height: 40px; line-height: 40px; background-size: 24px; background-position: center center; background-repeat: no-repeat; }
.hud-intro .hud-intro-more-games { position: relative; bottom: 5px; line-height: 20px; font-size: 14px; color: rgba(255, 255, 255, 0.4); text-shadow: rgba(0, 0, 0, 0.2) 0px 1px 3px; }
.hud-intro .hud-intro-more-games a { display: inline-block; padding: 0px 20px; line-height: 40px; background: rgb(132, 115, 212); color: rgb(238, 238, 238); text-decoration: none; border-radius: 4px; transition: all 0.15s ease-in-out 0s; }
.hud-intro .hud-intro-more-games a:hover, .hud-intro .hud-intro-more-games a:active { background: rgb(103, 90, 166); }
#preroll video { left: 0px; top: 0px; }
.fb_hidden { position: absolute; top: -10000px; z-index: 10001; }
.fb_reposition { overflow: hidden; position: relative; }
.fb_invisible { display: none; }
.fb_reset { background: none; border: 0px; border-spacing: 0px; color: rgb(0, 0, 0); cursor: auto; direction: ltr; font-family: "lucida grande", tahoma, verdana, arial, sans-serif; font-size: 11px; font-style: normal; font-variant: normal; font-weight: normal; letter-spacing: normal; line-height: 1; margin: 0px; overflow: visible; padding: 0px; text-align: left; text-decoration: none; text-indent: 0px; text-shadow: none; text-transform: none; visibility: visible; white-space: normal; word-spacing: normal; }
.fb_animate { animation: 0.3s ease 0s 1 normal forwards running fb_transform; }
.fb_dialog { background: rgba(82, 82, 82, 0.7); position: absolute; top: -10000px; z-index: 10001; }
.fb_dialog_advanced { border-radius: 8px; padding: 10px; }
.fb_dialog_content { background: rgb(255, 255, 255); color: rgb(55, 55, 55); }
.fb_dialog_close_icon { background: url("https://static.xx.fbcdn.net/rsrc.php/v3/yq/r/IE9JII6Z1Ys.png") 0px 0px no-repeat scroll transparent; cursor: pointer; display: block; height: 15px; position: absolute; right: 18px; top: 17px; width: 15px; }
.fb_dialog_mobile .fb_dialog_close_icon { left: 5px; right: auto; top: 5px; }
.fb_dialog_padding { background-color: transparent; position: absolute; width: 1px; z-index: -1; }
.fb_dialog_close_icon:hover { background: url("https://static.xx.fbcdn.net/rsrc.php/v3/yq/r/IE9JII6Z1Ys.png") 0px -15px no-repeat scroll transparent; }
.fb_dialog_close_icon:active { background: url("https://static.xx.fbcdn.net/rsrc.php/v3/yq/r/IE9JII6Z1Ys.png") 0px -30px no-repeat scroll transparent; }
.fb_dialog_iframe { line-height: 0; }
.fb_dialog_content .dialog_title { background: rgb(109, 132, 180); border: 1px solid rgb(54, 88, 153); color: rgb(255, 255, 255); font-size: 14px; font-weight: bold; margin: 0px; }
body.fb_hidden { height: 100%; left: 0px; margin: 0px; overflow: visible; position: absolute; top: -10000px; transform: none; width: 100%; }
.fb_dialog.fb_dialog_mobile.loading { background: url("https://static.xx.fbcdn.net/rsrc.php/v3/ya/r/3rhSv5V8j3o.gif") 50% 50% no-repeat white; min-height: 100%; min-width: 100%; overflow: hidden; position: absolute; top: 0px; z-index: 10001; }
.fb_dialog.fb_dialog_mobile.loading.centered { background: none; height: auto; min-height: initial; min-width: initial; width: auto; }
.fb_dialog.fb_dialog_mobile.loading.centered #fb_dialog_loader_spinner { width: 100%; }
.fb_dialog.fb_dialog_mobile.loading.centered .fb_dialog_content { background: none; }
.loading.centered #fb_dialog_loader_close { clear: both; color: rgb(255, 255, 255); display: block; font-size: 18px; padding-top: 20px; }
#fb-root #fb_dialog_ipad_overlay { background: rgba(0, 0, 0, 0.4); bottom: 0px; left: 0px; min-height: 100%; position: absolute; right: 0px; top: 0px; width: 100%; z-index: 10000; }
#fb-root #fb_dialog_ipad_overlay.hidden { display: none; }
.fb_dialog.fb_dialog_mobile.loading iframe { visibility: hidden; }
.fb_dialog_mobile .fb_dialog_iframe { position: sticky; top: 0px; }
.fb_dialog_content .dialog_header { border-bottom: 1px solid rgb(4, 59, 135); border-top-color: rgb(4, 59, 135); border-right-color: rgb(4, 59, 135); border-left-color: rgb(4, 59, 135); box-shadow: white 0px 1px 1px -1px inset; color: rgb(255, 255, 255); font: bold 14px Helvetica, sans-serif; text-overflow: ellipsis; text-shadow: rgba(0, 30, 84, 0.298) 0px -1px 0px; vertical-align: middle; white-space: nowrap; }
.fb_dialog_content .dialog_header table { height: 43px; width: 100%; }
.fb_dialog_content .dialog_header td.header_left { font-size: 12px; padding-left: 5px; vertical-align: middle; width: 60px; }
.fb_dialog_content .dialog_header td.header_right { font-size: 12px; padding-right: 5px; vertical-align: middle; width: 60px; }
.fb_dialog_content .touchable_button { background-clip: padding-box; border: 1px solid rgb(41, 72, 125); border-radius: 3px; display: inline-block; line-height: 18px; margin-top: 3px; max-width: 85px; padding: 4px 12px; position: relative; }
.fb_dialog_content .dialog_header .touchable_button input { background: none; border: none; color: rgb(255, 255, 255); font: bold 12px Helvetica, sans-serif; margin: 2px -12px; padding: 2px 6px 3px; text-shadow: rgba(0, 30, 84, 0.298) 0px -1px 0px; }
.fb_dialog_content .dialog_header .header_center { color: rgb(255, 255, 255); font-size: 16px; font-weight: bold; line-height: 18px; text-align: center; vertical-align: middle; }
.fb_dialog_content .dialog_content { background: url("https://static.xx.fbcdn.net/rsrc.php/v3/y9/r/jKEcVPZFk-2.gif") 50% 50% no-repeat; border-width: 0px 1px; border-right-style: solid; border-left-style: solid; border-right-color: rgb(74, 74, 74); border-left-color: rgb(74, 74, 74); border-image: initial; border-bottom-style: initial; border-bottom-color: initial; border-top-style: initial; border-top-color: initial; height: 150px; }
.fb_dialog_content .dialog_footer { background: rgb(245, 246, 247); border-width: 1px; border-style: solid; border-color: rgb(204, 204, 204) rgb(74, 74, 74) rgb(74, 74, 74); border-image: initial; height: 40px; }
#fb_dialog_loader_close { float: left; }
.fb_dialog.fb_dialog_mobile .fb_dialog_close_button { text-shadow: rgba(0, 30, 84, 0.298) 0px -1px 0px; }
.fb_dialog.fb_dialog_mobile .fb_dialog_close_icon { visibility: hidden; }
#fb_dialog_loader_spinner { animation: 1.2s linear 0s infinite normal none running rotateSpinner; background-color: transparent; background-image: url("https://static.xx.fbcdn.net/rsrc.php/v3/yD/r/t-wz8gw1xG1.png"); background-position: 50% 50%; background-repeat: no-repeat; height: 24px; width: 24px; }
.fb_iframe_widget { display: inline-block; position: relative; }
.fb_iframe_widget span { display: inline-block; position: relative; text-align: justify; }
.fb_iframe_widget iframe { position: absolute; }
.fb_iframe_widget_fluid_desktop, .fb_iframe_widget_fluid_desktop span, .fb_iframe_widget_fluid_desktop iframe { max-width: 100%; }
.fb_iframe_widget_fluid_desktop iframe { min-width: 220px; position: relative; }
.fb_iframe_widget_lift { z-index: 1; }
.fb_iframe_widget_fluid { display: inline; }
.fb_iframe_widget_fluid span { width: 100%; }
.st0 { fill: rgb(119, 183, 73); }
.st1 { fill: rgb(247, 175, 47); }
.st2 { fill: rgb(233, 81, 15); }
.st3 { fill: url("#SVGID_1_"); }
.st4 { fill: url("#SVGID_2_"); }
.st5 { fill: rgb(252, 242, 119); }
.st6 { fill: url("#SVGID_3_"); }
.st7 { fill: url("#SVGID_4_"); }
.st8 { fill: url("#SVGID_5_"); }
.st9 { fill: url("#SVGID_6_"); }
.st10 { fill: url("#SVGID_7_"); }
.st11 { fill: url("#SVGID_8_"); }
.st12 { fill: url("#SVGID_9_"); }
.st13 { fill: url("#SVGID_10_"); }
.st14 { fill: url("#SVGID_11_"); }
.st15 { fill: url("#SVGID_12_"); }
.st16 { fill: url("#SVGID_13_"); }
.st17 { fill: url("#SVGID_14_"); }
.st18 { fill: url("#SVGID_15_"); }
.st19 { fill: url("#SVGID_16_"); }
.st0 { fill: rgb(119, 183, 73); }
.st1 { fill: rgb(247, 175, 47); }
.st2 { fill: rgb(233, 81, 15); }
.st3 { fill: url("#SVGID_1_"); }
.st4 { fill: url("#SVGID_2_"); }
.st5 { fill: rgb(252, 242, 119); }
.st6 { fill: url("#SVGID_3_"); }
.st7 { fill: url("#SVGID_4_"); }
.st8 { fill: url("#SVGID_5_"); }
.st9 { fill: url("#SVGID_6_"); }
.st10 { fill: url("#SVGID_7_"); }
.st11 { fill: url("#SVGID_8_"); }
.st12 { fill: url("#SVGID_9_"); }
.st13 { fill: url("#SVGID_10_"); }
.st14 { fill: url("#SVGID_11_"); }
.st15 { fill: url("#SVGID_12_"); }
.st16 { fill: url("#SVGID_13_"); }
.st17 { fill: url("#SVGID_14_"); }
.st18 { fill: url("#SVGID_15_"); }
.st19 { fill: url("#SVGID_16_"); }
.st0 { fill: rgb(119, 183, 73); }
.st1 { fill: rgb(247, 175, 47); }
.st2 { fill: rgb(233, 81, 15); }
.st3 { fill: url("#SVGID_1_"); }
.st4 { fill: url("#SVGID_2_"); }
.st5 { fill: rgb(252, 242, 119); }
.st6 { fill: url("#SVGID_3_"); }
.st7 { fill: url("#SVGID_4_"); }
.st8 { fill: url("#SVGID_5_"); }
.st9 { fill: url("#SVGID_6_"); }
.st10 { fill: url("#SVGID_7_"); }
.st11 { fill: url("#SVGID_8_"); }
.st12 { fill: url("#SVGID_9_"); }
.st13 { fill: url("#SVGID_10_"); }
.st14 { fill: url("#SVGID_11_"); }
.st15 { fill: url("#SVGID_12_"); }
.st16 { fill: url("#SVGID_13_"); }
.st17 { fill: url("#SVGID_14_"); }
.st18 { fill: url("#SVGID_15_"); }
.st19 { fill: url("#SVGID_16_"); }
.st0 { fill: rgb(119, 183, 73); }
.st1 { fill: rgb(247, 175, 47); }
.st2 { fill: rgb(233, 81, 15); }
.st3 { fill: url("#SVGID_1_"); }
.st4 { fill: url("#SVGID_2_"); }
.st5 { fill: rgb(252, 242, 119); }
.st6 { fill: url("#SVGID_3_"); }
.st7 { fill: url("#SVGID_4_"); }
.st8 { fill: url("#SVGID_5_"); }
.st9 { fill: url("#SVGID_6_"); }
.st10 { fill: url("#SVGID_7_"); }
.st11 { fill: url("#SVGID_8_"); }
.st12 { fill: url("#SVGID_9_"); }
.st13 { fill: url("#SVGID_10_"); }
.st14 { fill: url("#SVGID_11_"); }
.st15 { fill: url("#SVGID_12_"); }
.st16 { fill: url("#SVGID_13_"); }
.st17 { fill: url("#SVGID_14_"); }
.st18 { fill: url("#SVGID_15_"); }
.st19 { fill: url("#SVGID_16_"); }]]></style></defs><path fill="rgb(222, 69, 28)" d=" M 141.090000 246.230000 L 142.410000 266.960000 C 142.410000 266.960000 147.570000 270.490000 150.380000 266.910000 L 151.490000 246.170000 L 141.090000 246.230000 Z"/><path fill="rgb(72, 19, 16)" d=" M 239.590000 137.210000 L 244.360000 151.930000 L 251.340000 150.160000 L 252.770000 134.380000 L 239.590000 137.210000 Z"/><path fill="rgb(72, 19, 16)" d=" M 76.010000 144.500000 C 66.160000 143.160000 52.430000 141.250000 51.410000 140.970000 L 53.910000 155.620000 C 60.120000 156.530000 67.830000 157.460000 73.280000 157.430000 L 76.010000 144.500000 Z"/><path fill="rgb(230, 114, 27)" d=" M 246.980000 142.240000 C 186.620000 164.180000 83.520000 152.270000 59.310000 149.050000 C 60.560000 168.210000 62.900000 198.650000 66.130000 218.270000 L 70.680000 266.640000 C 70.680000 266.640000 75.480000 270.760000 79.450000 266.590000 L 79.970000 241.230000 C 93.970000 246.170000 121.940000 250.130000 154.410000 248.800000 L 157.690000 291.750000 C 157.690000 291.750000 162.510000 299.320000 167.250000 292.390000 L 169.220000 247.850000 C 186.680000 246.290000 204.970000 243.120000 222.770000 237.740000 L 222.980000 279.650000 C 222.980000 279.650000 224.580000 284.250000 228.580000 283.770000 C 234.620000 283.050000 235.290000 279.590000 235.290000 279.590000 L 244.490000 191.450000 C 246.530000 177.310000 247.000000 157.790000 246.980000 142.240000 Z"/><path fill="rgb(101, 38, 19)" d=" M 261.250000 131.570000 L 258.050000 127.900000 L 235.720000 125.250000 L 239.590000 137.210000 L 252.770000 134.380000 L 251.330000 150.160000 L 259.230000 148.160000 C 261.300000 141.710000 261.250000 131.570000 261.250000 131.570000 Z"/><path fill="rgb(101, 38, 19)" d=" M 76.010000 144.500000 L 77.430000 137.760000 L 39.170000 137.340000 C 39.170000 137.340000 40.290000 148.390000 43.500000 153.910000 C 43.500000 153.910000 48.030000 154.760000 53.910000 155.620000 L 51.410000 140.970000 C 52.430000 141.250000 66.160000 143.160000 76.010000 144.500000 Z"/><path fill="rgb(227, 93, 27)" d=" M 246.980000 142.240000 C 246.960000 127.720000 246.520000 116.660000 246.520000 116.660000 C 246.520000 116.660000 136.300000 87.570000 58.270000 131.350000 C 58.270000 131.350000 58.620000 138.490000 59.310000 149.050000 C 83.520000 152.270000 186.620000 164.180000 246.980000 142.240000 Z"/><path fill="rgb(101, 38, 19)" d=" M 260.540000 108.930000 C 258.440000 90.500000 251.840000 64.160000 232.440000 42.950000 C 229.420000 32.740000 218.860000 28.600000 213.620000 27.090000 C 203.060000 20.250000 190.230000 14.720000 174.540000 11.330000 C 174.540000 11.330000 173.300000 11.080000 171.080000 10.750000 C 148.740000 -0.870000 130.010000 8.090000 123.690000 11.930000 C 114.530000 13.730000 104.950000 16.670000 95.640000 21.310000 C 90.000000 22.530000 73.290000 27.280000 69.480000 40.720000 C 58.510000 52.460000 49.460000 68.450000 44.190000 90.100000 C 42.510000 92.260000 37.790000 99.620000 40.490000 111.280000 C 39.580000 119.330000 39.120000 128.000000 39.170000 137.340000 C 39.170000 137.340000 47.320000 143.030000 89.160000 144.920000 C 91.190000 145.010000 91.780000 137.990000 91.780000 137.990000 C 91.780000 137.990000 91.730000 145.300000 93.940000 145.350000 C 97.430000 145.420000 103.490000 145.050000 107.760000 145.120000 C 108.460000 145.140000 109.070000 126.820000 109.790000 126.840000 C 110.490000 126.850000 111.310000 145.190000 112.030000 145.200000 C 123.230000 145.400000 136.270000 145.490000 149.210000 145.060000 C 164.690000 144.550000 180.140000 143.780000 191.710000 142.990000 C 192.420000 142.950000 190.980000 135.670000 191.670000 135.630000 C 192.930000 135.530000 194.220000 142.750000 195.430000 142.660000 C 205.800000 141.880000 214.570000 141.020000 221.980000 140.120000 C 224.240000 139.850000 227.230000 128.990000 227.230000 128.990000 C 228.740000 128.780000 231.330000 138.900000 232.710000 138.690000 C 245.800000 136.730000 253.080000 134.790000 257.010000 133.430000 L 257.020000 133.440000 L 257.060000 133.420000 C 260.290000 132.290000 261.250000 131.570000 261.250000 131.570000 C 265.490000 123.200000 262.780000 114.050000 260.540000 108.930000 Z"/><path fill="rgb(72, 19, 16)" d=" M 141.520000 239.000000 C 141.520000 239.000000 142.240000 176.360000 139.570000 171.660000 C 136.880000 166.940000 95.490000 170.130000 95.490000 170.130000 C 96.000000 184.710000 97.740000 228.200000 100.700000 233.360000 C 103.750000 238.660000 133.120000 239.010000 141.520000 239.000000 Z"/><path fill="rgb(101, 38, 19)" d=" M 100.700000 233.360000 C 97.740000 228.200000 96.000000 184.720000 95.490000 170.130000 C 95.490000 170.130000 89.060000 169.850000 86.200000 172.720000 C 83.350000 175.590000 89.330000 230.740000 94.040000 237.620000 C 98.760000 244.500000 129.440000 243.620000 140.770000 244.850000 L 141.520000 239.000000 C 133.120000 239.010000 103.760000 238.660000 100.700000 233.360000 Z"/><path fill="rgb(72, 19, 16)" d=" M 135.790000 29.390000 L 136.020000 29.370000 C 136.460000 29.420000 137.040000 29.620000 137.340000 30.060000 C 137.610000 30.500000 137.620000 31.130000 137.220000 32.030000 L 137.060000 32.220000 C 135.640000 32.870000 134.280000 33.750000 133.040000 34.740000 C 131.530000 35.940000 130.200000 37.360000 129.080000 38.940000 C 128.510000 39.650000 128.080000 40.440000 127.600000 41.200000 C 127.600000 41.200000 127.430000 41.420000 127.200000 41.830000 C 126.970000 42.220000 126.640000 42.770000 126.220000 43.460000 C 125.900000 44.100000 125.520000 44.860000 125.090000 45.710000 C 124.770000 46.440000 124.430000 47.240000 124.070000 48.100000 C 122.340000 53.380000 122.040000 51.210000 122.420000 47.580000 C 122.390000 47.770000 122.650000 45.610000 123.400000 43.510000 C 124.040000 41.370000 125.120000 39.320000 125.120000 39.320000 C 125.570000 38.560000 126.010000 37.810000 126.550000 37.120000 C 127.830000 35.330000 129.350000 33.710000 131.080000 32.330000 C 132.520000 31.180000 134.070000 30.170000 135.790000 29.390000 Z"/><path fill="rgb(72, 19, 16)" d=" M 110.310000 26.690000 L 110.550000 26.680000 C 110.980000 26.750000 111.540000 26.980000 111.820000 27.420000 C 112.080000 27.880000 112.080000 28.500000 111.620000 29.390000 L 111.460000 29.590000 C 109.980000 30.160000 108.560000 30.960000 107.230000 31.850000 C 106.090000 32.680000 104.990000 33.550000 104.040000 34.580000 C 103.400000 35.200000 102.860000 35.910000 102.320000 36.610000 C 102.320000 36.610000 102.160000 36.810000 101.870000 37.180000 C 101.560000 37.540000 101.160000 38.050000 100.790000 38.690000 C 99.900000 39.920000 99.090000 41.660000 98.470000 43.160000 C 97.570000 45.740000 97.210000 46.600000 96.920000 46.260000 C 96.700000 45.950000 96.540000 44.440000 96.820000 42.630000 C 96.740000 42.810000 97.100000 40.650000 97.910000 38.520000 C 98.760000 36.410000 100.050000 34.440000 100.050000 34.440000 C 100.640000 33.770000 101.140000 33.030000 101.780000 32.430000 C 102.890000 31.240000 104.150000 30.240000 105.460000 29.300000 C 106.980000 28.270000 108.580000 27.380000 110.310000 26.690000 Z"/><path fill="rgb(72, 19, 16)" d=" M 111.740000 55.640000 L 111.910000 55.480000 C 112.280000 55.260000 112.860000 55.030000 113.360000 55.200000 C 113.860000 55.400000 114.240000 55.860000 114.500000 56.830000 L 114.510000 57.080000 C 113.820000 58.470000 113.250000 60.010000 112.850000 61.580000 L 112.770000 61.890000 C 112.580000 62.780000 112.310000 63.650000 112.230000 64.560000 C 112.230000 64.560000 112.020000 65.560000 111.680000 67.190000 C 111.550000 68.710000 111.100000 70.660000 111.080000 72.300000 C 110.830000 77.880000 109.980000 75.840000 109.350000 72.280000 C 109.340000 72.370000 109.270000 71.890000 109.150000 71.110000 C 109.110000 70.260000 109.070000 69.190000 109.030000 68.140000 C 108.950000 67.030000 109.040000 65.910000 109.110000 65.070000 C 109.170000 64.220000 109.220000 63.660000 109.220000 63.660000 C 109.310000 62.810000 109.580000 61.970000 109.750000 61.130000 L 109.840000 60.790000 C 110.290000 59.040000 110.900000 57.320000 111.740000 55.640000 Z"/><path fill="rgb(72, 19, 16)" d=" M 78.770000 53.230000 L 78.960000 53.100000 C 79.810000 52.710000 81.210000 52.790000 81.330000 54.800000 L 81.300000 55.050000 C 80.370000 56.350000 79.570000 57.770000 78.920000 59.240000 C 78.650000 59.830000 78.420000 60.420000 78.220000 61.030000 C 77.920000 61.870000 77.680000 62.730000 77.520000 63.600000 C 77.520000 63.600000 77.200000 64.650000 76.960000 66.130000 C 76.770000 67.610000 76.630000 69.520000 76.830000 71.120000 C 77.170000 73.810000 77.320000 74.730000 76.890000 74.570000 C 76.570000 74.390000 75.630000 73.160000 75.110000 71.390000 C 75.120000 71.590000 74.420000 69.470000 74.330000 67.180000 C 74.150000 64.890000 74.560000 62.570000 74.550000 62.570000 C 74.770000 61.720000 74.960000 60.850000 75.270000 60.030000 C 75.490000 59.340000 75.760000 58.660000 76.060000 57.990000 C 76.800000 56.320000 77.690000 54.730000 78.770000 53.230000 Z"/><path fill="rgb(72, 19, 16)" d=" M 90.140000 71.310000 L 90.270000 71.130000 C 90.910000 70.550000 92.270000 70.050000 93.070000 71.960000 L 93.120000 72.230000 C 92.630000 73.820000 92.200000 75.450000 91.860000 77.090000 C 91.750000 77.550000 91.630000 78.020000 91.550000 78.490000 L 91.070000 81.250000 C 91.070000 81.250000 90.860000 82.370000 90.560000 83.900000 C 90.220000 85.440000 90.070000 87.380000 89.840000 89.010000 C 89.720000 94.530000 88.830000 92.600000 88.110000 88.980000 C 88.010000 89.160000 87.930000 87.030000 87.830000 84.820000 C 87.880000 83.700000 87.920000 82.600000 87.960000 81.780000 C 87.980000 80.940000 88.070000 80.400000 88.070000 80.400000 L 88.500000 77.900000 C 88.580000 77.400000 88.700000 76.920000 88.810000 76.420000 C 89.180000 74.700000 89.610000 73.010000 90.140000 71.310000 Z"/><path fill="rgb(72, 19, 16)" d=" M 62.180000 69.580000 L 62.300000 69.530000 C 62.880000 69.430000 64.040000 69.720000 64.800000 71.040000 L 64.840000 71.200000 C 64.830000 71.220000 64.720000 71.410000 64.530000 71.720000 C 64.360000 72.050000 64.110000 72.520000 63.820000 73.060000 C 63.250000 74.180000 62.590000 75.710000 62.110000 77.260000 C 61.030000 80.390000 61.140000 83.550000 61.140000 83.550000 C 61.140000 83.550000 61.070000 84.060000 61.020000 84.760000 C 60.900000 85.480000 60.950000 86.350000 60.890000 87.150000 C 61.110000 89.750000 60.180000 89.190000 59.220000 87.580000 C 59.190000 87.680000 58.820000 86.690000 58.470000 85.630000 C 58.340000 85.070000 58.220000 84.530000 58.130000 84.130000 C 58.040000 83.710000 58.030000 83.430000 58.030000 83.430000 L 58.030000 82.800000 C 58.020000 82.390000 58.050000 81.820000 58.130000 81.130000 C 58.250000 79.760000 58.610000 77.960000 59.160000 76.240000 C 59.710000 74.520000 60.430000 72.860000 61.040000 71.650000 C 61.650000 70.430000 62.160000 69.630000 62.180000 69.580000 Z"/><path fill="rgb(72, 19, 16)" d=" M 71.100000 92.080000 L 71.230000 91.910000 C 71.900000 91.340000 73.270000 90.900000 74.000000 92.820000 L 74.050000 93.090000 C 73.520000 94.650000 73.060000 96.270000 72.690000 97.900000 C 72.460000 98.820000 72.270000 99.740000 72.130000 100.670000 C 71.990000 101.590000 71.760000 102.500000 71.710000 103.420000 C 71.710000 103.420000 71.530000 104.440000 71.230000 106.080000 C 71.090000 107.610000 70.790000 109.570000 70.740000 111.200000 C 70.760000 116.740000 69.830000 114.810000 69.000000 111.230000 C 68.920000 111.420000 68.690000 109.300000 68.590000 107.080000 C 68.470000 105.980000 68.610000 104.880000 68.610000 104.040000 C 68.640000 103.190000 68.660000 102.640000 68.660000 102.640000 C 68.750000 101.790000 68.930000 100.970000 69.070000 100.130000 C 69.210000 99.140000 69.410000 98.160000 69.660000 97.190000 C 70.040000 95.470000 70.530000 93.770000 71.100000 92.080000 Z"/><path fill="rgb(72, 19, 16)" d=" M 48.770000 94.010000 L 48.920000 93.840000 C 49.590000 93.290000 50.990000 92.850000 51.670000 94.810000 L 51.700000 95.070000 C 51.130000 96.630000 50.640000 98.240000 50.200000 99.850000 C 49.880000 101.080000 49.590000 102.310000 49.380000 103.560000 C 49.200000 104.470000 49.080000 105.370000 48.990000 106.280000 C 48.990000 106.280000 48.790000 107.390000 48.640000 108.900000 C 48.480000 110.420000 48.540000 112.290000 48.780000 113.840000 C 48.930000 114.390000 49.070000 114.920000 49.220000 115.450000 C 49.400000 115.850000 49.530000 116.180000 49.600000 116.440000 C 49.750000 116.970000 49.740000 117.180000 49.530000 117.160000 C 49.150000 117.110000 47.920000 116.050000 47.100000 114.290000 C 47.150000 114.500000 46.280000 112.370000 46.050000 110.090000 C 45.760000 107.830000 45.940000 105.550000 45.940000 105.550000 C 46.030000 104.690000 46.170000 103.850000 46.320000 103.020000 C 46.550000 101.680000 46.850000 100.360000 47.190000 99.060000 C 47.650000 97.350000 48.170000 95.670000 48.770000 94.010000 Z"/><path fill="rgb(72, 19, 16)" d=" M 57.600000 114.410000 L 57.700000 114.330000 C 58.210000 114.050000 59.410000 113.880000 60.560000 114.900000 L 60.660000 115.030000 C 60.660000 115.060000 60.610000 115.280000 60.540000 115.660000 C 60.470000 116.050000 60.380000 116.580000 60.270000 117.230000 C 60.070000 118.520000 59.860000 120.230000 59.760000 121.930000 C 59.650000 123.630000 59.710000 125.310000 59.790000 126.560000 C 59.920000 127.800000 60.060000 128.590000 60.060000 128.590000 C 60.060000 128.590000 60.090000 130.730000 60.320000 132.270000 C 60.950000 134.810000 59.950000 134.460000 58.730000 132.930000 C 58.760000 133.030000 58.120000 132.090000 57.720000 131.050000 C 57.250000 130.020000 56.970000 128.920000 56.970000 128.920000 C 56.970000 128.920000 56.810000 128.010000 56.680000 126.640000 C 56.590000 125.270000 56.550000 123.450000 56.660000 121.660000 C 56.770000 119.860000 56.980000 118.070000 57.190000 116.730000 C 57.400000 115.370000 57.600000 114.460000 57.600000 114.410000 Z"/><path fill="rgb(72, 19, 16)" d=" M 84.690000 113.530000 L 84.810000 113.460000 C 85.360000 113.260000 86.540000 113.340000 87.540000 114.470000 L 87.620000 114.610000 C 87.620000 114.660000 87.310000 115.410000 86.970000 116.600000 C 86.610000 117.760000 86.220000 119.340000 85.970000 120.930000 C 85.670000 122.520000 85.590000 124.100000 85.520000 125.290000 C 85.460000 125.890000 85.530000 126.370000 85.540000 126.710000 C 85.560000 127.060000 85.570000 127.250000 85.570000 127.250000 C 85.570000 127.250000 85.300000 129.300000 85.250000 130.830000 C 85.140000 133.430000 84.280000 132.740000 83.560000 131.150000 C 83.550000 131.240000 83.180000 130.290000 82.840000 129.290000 C 82.640000 128.230000 82.450000 127.220000 82.450000 127.220000 C 82.450000 127.220000 82.250000 123.710000 82.910000 120.320000 C 83.200000 118.610000 83.610000 116.940000 84.000000 115.680000 C 84.340000 114.420000 84.690000 113.580000 84.690000 113.530000 Z"/><path fill="rgb(72, 19, 16)" d=" M 88.690000 29.510000 L 88.910000 29.450000 C 89.780000 29.390000 91.160000 29.840000 90.590000 31.820000 L 90.480000 32.060000 C 89.110000 33.010000 87.780000 34.030000 86.510000 35.120000 C 85.830000 35.710000 85.150000 36.310000 84.510000 36.940000 C 83.830000 37.570000 83.200000 38.240000 82.580000 38.920000 C 82.580000 38.920000 79.280000 42.070000 77.690000 44.850000 C 77.030000 46.040000 76.690000 46.860000 76.440000 47.340000 C 76.170000 47.810000 75.990000 47.940000 75.870000 47.770000 C 75.640000 47.450000 75.590000 45.880000 76.140000 44.090000 C 76.020000 44.260000 76.760000 42.150000 77.930000 40.220000 C 79.080000 38.280000 80.550000 36.540000 80.550000 36.540000 C 81.120000 35.900000 81.730000 35.300000 82.340000 34.710000 C 83.040000 34.030000 83.750000 33.380000 84.480000 32.760000 C 85.840000 31.610000 87.220000 30.520000 88.690000 29.510000 Z"/><path fill="rgb(72, 19, 16)" d=" M 141.110000 10.730000 L 141.330000 10.730000 C 142.190000 10.890000 143.440000 11.640000 142.400000 13.440000 L 142.220000 13.640000 C 140.660000 14.230000 139.100000 14.900000 137.580000 15.620000 C 136.610000 16.080000 135.640000 16.560000 134.700000 17.080000 C 133.880000 17.520000 133.080000 18.000000 132.280000 18.480000 C 132.280000 18.480000 128.220000 20.610000 125.770000 22.720000 C 124.760000 23.620000 124.150000 24.280000 123.750000 24.650000 C 123.330000 25.000000 123.120000 25.050000 123.060000 24.850000 C 122.960000 24.470000 123.460000 23.000000 124.560000 21.490000 C 124.400000 21.610000 125.780000 19.870000 127.450000 18.390000 C 129.130000 16.900000 131.000000 15.640000 131.000000 15.640000 C 131.720000 15.190000 132.450000 14.760000 133.200000 14.360000 C 134.210000 13.810000 135.220000 13.300000 136.250000 12.820000 C 137.840000 12.060000 139.450000 11.360000 141.110000 10.730000 Z"/><path fill="rgb(72, 19, 16)" d=" M 123.530000 71.280000 L 123.700000 71.130000 C 124.450000 70.610000 125.850000 70.430000 126.310000 72.410000 L 126.320000 72.670000 C 125.600000 74.120000 124.990000 75.670000 124.500000 77.230000 C 124.240000 77.930000 124.050000 78.650000 123.900000 79.390000 C 123.720000 80.280000 123.400000 81.150000 123.350000 82.070000 C 123.350000 82.070000 123.160000 83.060000 122.830000 84.670000 C 122.710000 85.430000 122.700000 86.280000 122.610000 87.160000 C 122.520000 88.040000 122.400000 88.940000 122.490000 89.740000 C 122.860000 95.240000 121.810000 93.420000 120.760000 89.860000 C 120.780000 89.950000 120.570000 89.480000 120.470000 88.690000 C 120.400000 87.840000 120.300000 86.760000 120.200000 85.690000 C 120.040000 84.570000 120.230000 83.450000 120.250000 82.600000 C 120.300000 81.740000 120.330000 81.170000 120.330000 81.170000 C 120.450000 80.320000 120.690000 79.490000 120.870000 78.650000 C 121.050000 77.850000 121.250000 77.050000 121.530000 76.290000 C 122.070000 74.580000 122.720000 72.910000 123.530000 71.280000 Z"/><path fill="rgb(72, 19, 16)" d=" M 103.990000 93.050000 L 104.150000 92.900000 C 104.890000 92.400000 106.310000 92.170000 106.780000 94.160000 L 106.790000 94.420000 C 106.070000 95.880000 105.440000 97.430000 104.950000 98.990000 C 104.740000 99.660000 104.540000 100.330000 104.370000 101.000000 C 104.160000 101.890000 103.990000 102.770000 103.870000 103.660000 C 103.870000 103.660000 103.630000 104.750000 103.470000 106.240000 C 103.270000 107.730000 103.380000 109.600000 103.650000 111.160000 C 103.920000 112.480000 104.260000 113.310000 104.370000 113.840000 C 104.480000 114.380000 104.440000 114.590000 104.230000 114.550000 C 103.870000 114.440000 102.740000 113.350000 101.980000 111.610000 C 101.980000 111.820000 101.140000 109.710000 100.860000 107.420000 C 100.610000 105.140000 100.850000 102.830000 100.850000 102.830000 C 100.960000 101.960000 101.150000 101.120000 101.350000 100.270000 C 101.530000 99.520000 101.750000 98.780000 101.980000 98.040000 C 102.520000 96.330000 103.190000 94.670000 103.990000 93.050000 Z"/><path fill="rgb(72, 19, 16)" d=" M 122.860000 114.630000 L 122.970000 114.450000 C 123.540000 113.810000 124.840000 113.150000 125.840000 114.980000 L 125.910000 115.240000 C 125.590000 116.890000 125.320000 118.560000 125.090000 120.230000 C 124.950000 121.420000 124.750000 122.620000 124.680000 123.830000 L 124.470000 126.630000 C 124.470000 126.630000 124.000000 131.180000 124.030000 134.450000 C 124.840000 139.800000 123.670000 138.230000 122.310000 134.630000 C 122.320000 134.830000 121.900000 132.710000 121.610000 130.500000 C 121.540000 129.390000 121.470000 128.280000 121.430000 127.460000 C 121.360000 126.620000 121.390000 126.070000 121.390000 126.070000 L 121.570000 123.550000 C 121.650000 122.290000 121.860000 121.060000 121.990000 119.810000 C 122.240000 118.080000 122.510000 116.350000 122.860000 114.630000 Z"/><path fill="rgb(72, 19, 16)" d=" M 154.620000 14.700000 L 154.440000 14.600000 C 154.140000 14.330000 153.840000 13.940000 153.700000 13.420000 C 153.570000 12.930000 153.710000 12.270000 154.690000 11.710000 L 154.970000 11.620000 C 156.840000 11.850000 158.610000 12.300000 160.320000 12.960000 C 161.680000 13.380000 162.920000 14.030000 164.160000 14.700000 C 165.440000 15.280000 166.570000 16.100000 167.700000 16.930000 C 168.500000 17.540000 169.380000 18.050000 170.100000 18.750000 C 170.100000 18.750000 170.840000 19.590000 172.030000 20.930000 C 172.550000 21.570000 173.220000 22.230000 173.730000 23.020000 C 174.160000 23.750000 174.620000 24.550000 175.120000 25.390000 C 178.030000 30.340000 176.020000 28.820000 173.680000 26.350000 C 173.710000 26.560000 172.530000 24.860000 170.950000 23.520000 C 169.360000 22.160000 167.800000 20.820000 167.800000 20.820000 L 165.890000 19.450000 C 164.870000 18.690000 163.850000 17.950000 162.690000 17.430000 C 161.580000 16.830000 160.460000 16.250000 159.260000 15.890000 C 157.760000 15.290000 156.160000 14.900000 154.620000 14.700000 Z"/><path fill="rgb(72, 19, 16)" d=" M 186.030000 27.350000 L 185.880000 27.220000 C 185.520000 26.620000 184.730000 25.180000 186.840000 24.480000 L 187.140000 24.450000 C 188.880000 25.120000 190.490000 25.990000 192.030000 27.000000 C 193.340000 27.930000 194.610000 28.930000 195.720000 30.100000 C 196.450000 30.820000 197.090000 31.630000 197.720000 32.450000 C 197.720000 32.450000 197.880000 32.710000 198.160000 33.180000 C 198.440000 33.630000 198.810000 34.290000 199.130000 35.080000 C 199.880000 36.610000 200.410000 38.700000 200.620000 40.410000 C 201.040000 46.220000 199.960000 43.860000 198.920000 40.740000 C 198.930000 40.910000 198.300000 39.010000 197.330000 37.250000 C 196.320000 35.510000 195.000000 33.980000 195.000000 33.980000 C 194.490000 33.420000 194.060000 32.780000 193.490000 32.270000 C 192.530000 31.250000 191.420000 30.390000 190.280000 29.580000 C 188.940000 28.690000 187.500000 27.920000 186.030000 27.350000 Z"/><path fill="rgb(72, 19, 16)" d=" M 180.030000 46.600000 L 180.020000 46.400000 C 180.060000 46.010000 180.230000 45.510000 180.570000 45.130000 C 180.890000 44.730000 181.540000 44.490000 182.560000 44.960000 L 182.790000 45.140000 C 183.650000 46.810000 184.280000 48.510000 184.750000 50.260000 L 184.820000 50.600000 C 185.050000 51.580000 185.350000 52.550000 185.450000 53.550000 C 185.450000 53.550000 185.560000 54.780000 185.620000 56.440000 C 185.500000 58.090000 185.560000 60.170000 185.130000 61.840000 C 184.110000 67.490000 183.570000 65.060000 183.410000 61.670000 C 183.390000 61.760000 183.380000 61.290000 183.370000 60.540000 C 183.270000 59.740000 183.160000 58.740000 183.060000 57.750000 C 182.990000 56.720000 182.760000 55.700000 182.590000 54.940000 C 182.430000 54.180000 182.330000 53.680000 182.330000 53.680000 C 182.240000 52.890000 181.980000 52.150000 181.810000 51.390000 L 181.740000 51.080000 C 181.320000 49.520000 180.750000 47.980000 180.030000 46.600000 Z"/><path fill="rgb(72, 19, 16)" d=" M 210.060000 49.770000 L 210.010000 49.580000 C 210.030000 48.870000 210.170000 47.250000 212.310000 47.780000 L 212.570000 47.920000 C 213.670000 49.410000 214.580000 50.990000 215.330000 52.650000 C 215.630000 53.320000 215.910000 54.000000 216.140000 54.690000 C 216.480000 55.660000 216.760000 56.640000 216.960000 57.660000 C 216.960000 57.660000 217.180000 58.910000 217.160000 60.630000 C 217.120000 62.340000 216.840000 64.480000 216.170000 66.110000 C 215.160000 68.870000 214.400000 69.450000 214.270000 69.080000 C 214.020000 68.680000 214.420000 67.310000 214.510000 65.640000 C 214.450000 65.810000 214.780000 63.840000 214.580000 61.850000 C 214.450000 59.860000 213.850000 57.920000 213.850000 57.920000 C 213.650000 57.180000 213.480000 56.430000 213.200000 55.720000 C 213.000000 55.110000 212.760000 54.520000 212.490000 53.930000 C 211.830000 52.470000 211.010000 51.060000 210.060000 49.770000 Z"/><path fill="rgb(72, 19, 16)" d=" M 200.570000 69.360000 L 200.580000 69.150000 C 200.810000 68.410000 201.530000 67.030000 203.340000 68.210000 L 203.540000 68.410000 C 204.070000 70.100000 204.540000 71.790000 204.920000 73.510000 C 205.030000 74.000000 205.160000 74.490000 205.240000 74.980000 L 205.760000 77.890000 C 205.760000 77.890000 205.850000 79.110000 205.900000 80.750000 C 205.980000 82.390000 205.760000 84.480000 205.530000 86.160000 C 204.370000 91.850000 203.900000 89.310000 203.810000 85.990000 C 203.770000 85.630000 203.600000 83.870000 203.410000 82.090000 C 203.220000 81.050000 203.030000 80.030000 202.890000 79.260000 C 202.780000 78.480000 202.620000 77.970000 202.620000 77.970000 L 202.200000 75.610000 C 202.110000 75.140000 201.980000 74.670000 201.880000 74.200000 C 201.510000 72.570000 201.070000 70.940000 200.570000 69.360000 Z"/><path fill="rgb(72, 19, 16)" d=" M 228.830000 68.040000 L 228.840000 67.920000 C 229.080000 67.470000 229.720000 66.380000 231.300000 66.350000 L 231.470000 66.390000 C 231.500000 66.430000 232.020000 67.240000 232.650000 68.470000 C 233.290000 69.700000 234.030000 71.370000 234.590000 73.120000 C 235.160000 74.860000 235.540000 76.670000 235.660000 78.070000 C 235.750000 78.760000 235.750000 79.350000 235.750000 79.760000 C 235.760000 80.170000 235.770000 80.400000 235.770000 80.400000 C 235.770000 80.400000 235.680000 81.020000 235.450000 81.820000 C 235.280000 82.630000 234.820000 83.600000 234.410000 84.340000 C 232.870000 86.790000 232.630000 85.340000 232.760000 83.830000 C 232.730000 83.910000 232.770000 82.960000 232.810000 82.050000 C 232.780000 81.570000 232.750000 81.100000 232.720000 80.760000 C 232.710000 80.410000 232.650000 80.170000 232.650000 80.170000 C 232.650000 80.170000 232.700000 77.060000 231.590000 73.990000 C 231.100000 72.450000 230.430000 70.960000 229.860000 69.870000 C 229.290000 68.770000 228.840000 68.070000 228.830000 68.040000 Z"/><path fill="rgb(72, 19, 16)" d=" M 219.860000 90.020000 L 219.870000 89.810000 C 220.080000 89.090000 220.750000 87.660000 222.600000 88.790000 L 222.810000 88.990000 C 223.380000 90.670000 223.880000 92.360000 224.290000 94.080000 C 224.540000 95.040000 224.750000 96.020000 224.910000 97.010000 C 225.070000 97.980000 225.310000 98.940000 225.380000 99.930000 C 225.380000 99.930000 225.410000 101.020000 225.460000 102.800000 C 225.360000 104.460000 225.270000 106.540000 224.860000 108.210000 C 223.560000 113.840000 223.150000 111.310000 223.150000 107.970000 C 223.170000 108.150000 223.080000 106.120000 222.880000 104.060000 C 222.860000 103.040000 222.570000 102.010000 222.470000 101.230000 C 222.340000 100.450000 222.250000 99.940000 222.250000 99.940000 C 222.170000 99.150000 221.980000 98.370000 221.850000 97.580000 C 221.700000 96.650000 221.500000 95.730000 221.260000 94.820000 C 220.880000 93.190000 220.400000 91.580000 219.860000 90.020000 Z"/><path fill="rgb(72, 19, 16)" d=" M 242.220000 91.770000 L 242.220000 91.560000 C 242.400000 90.810000 243.060000 89.400000 244.940000 90.480000 L 245.140000 90.670000 C 245.760000 92.330000 246.300000 94.010000 246.770000 95.710000 C 247.120000 97.010000 247.440000 98.320000 247.680000 99.650000 C 247.870000 100.620000 248.020000 101.610000 248.130000 102.610000 C 248.130000 102.610000 248.190000 103.850000 248.090000 105.530000 C 247.990000 107.220000 247.530000 109.360000 246.770000 110.980000 C 246.400000 111.650000 246.100000 112.190000 245.810000 112.590000 C 245.460000 112.970000 245.180000 113.230000 244.960000 113.410000 C 244.530000 113.770000 244.320000 113.760000 244.310000 113.550000 C 244.220000 113.100000 244.840000 111.910000 245.170000 110.340000 C 245.080000 110.480000 245.530000 108.620000 245.450000 106.610000 C 245.430000 104.610000 244.990000 102.550000 244.990000 102.550000 C 244.910000 101.780000 244.770000 101.000000 244.630000 100.220000 C 244.400000 98.990000 244.100000 97.760000 243.770000 96.530000 C 243.310000 94.930000 242.800000 93.330000 242.220000 91.770000 Z"/><path fill="rgb(72, 19, 16)" d=" M 233.470000 111.820000 L 233.520000 111.710000 C 233.900000 111.330000 234.880000 110.560000 236.370000 111.060000 L 236.520000 111.160000 C 236.530000 111.210000 236.740000 112.140000 236.960000 113.500000 C 237.190000 114.860000 237.420000 116.670000 237.550000 118.500000 C 237.670000 120.320000 237.630000 122.170000 237.550000 123.550000 C 237.440000 124.940000 237.270000 125.870000 237.270000 125.870000 C 237.270000 125.870000 236.570000 128.280000 235.380000 129.660000 C 233.430000 131.920000 233.500000 130.370000 233.820000 128.920000 C 233.730000 128.970000 234.020000 128.080000 234.100000 127.120000 C 234.240000 126.180000 234.240000 125.190000 234.230000 125.190000 C 234.230000 125.190000 234.360000 124.400000 234.460000 123.180000 C 234.530000 121.950000 234.550000 120.290000 234.430000 118.610000 C 234.310000 116.930000 234.090000 115.250000 233.870000 113.980000 C 233.670000 112.700000 233.480000 111.860000 233.470000 111.820000 Z"/><path fill="rgb(72, 19, 16)" d=" M 203.340000 114.000000 L 203.380000 113.900000 C 203.700000 113.500000 204.540000 112.570000 206.090000 112.820000 L 206.250000 112.890000 C 206.250000 112.940000 206.610000 113.790000 206.980000 115.070000 C 207.380000 116.330000 207.820000 118.030000 208.110000 119.760000 C 208.460000 121.470000 208.570000 123.230000 208.640000 124.550000 C 208.710000 125.200000 208.650000 125.760000 208.640000 126.140000 C 208.630000 126.530000 208.610000 126.750000 208.610000 126.750000 C 208.610000 126.750000 208.250000 129.060000 207.340000 130.500000 C 206.160000 132.960000 205.740000 131.640000 205.670000 130.100000 C 205.620000 130.160000 205.660000 129.240000 205.690000 128.330000 C 205.600000 127.370000 205.520000 126.440000 205.520000 126.440000 C 205.520000 126.440000 205.670000 123.340000 205.040000 120.220000 C 204.760000 118.660000 204.360000 117.100000 203.990000 115.950000 C 203.650000 114.790000 203.340000 114.050000 203.340000 114.000000 Z"/><path fill="rgb(72, 19, 16)" d=" M 212.910000 34.640000 L 212.790000 34.460000 C 212.520000 33.750000 212.230000 32.220000 214.380000 32.030000 L 214.660000 32.070000 C 216.140000 33.070000 217.550000 34.140000 218.900000 35.280000 C 219.640000 35.900000 220.360000 36.540000 221.060000 37.200000 C 221.790000 37.880000 222.480000 38.600000 223.160000 39.330000 C 223.160000 39.330000 223.950000 40.290000 224.860000 41.700000 C 225.810000 43.080000 226.720000 45.040000 227.210000 46.710000 C 227.620000 48.140000 227.650000 49.110000 227.600000 49.670000 C 227.560000 50.230000 227.420000 50.380000 227.250000 50.260000 C 226.860000 50.010000 226.410000 48.720000 225.590000 47.290000 C 225.630000 47.460000 224.700000 45.710000 223.420000 44.140000 C 222.150000 42.550000 220.600000 41.140000 220.600000 41.140000 C 220.070000 40.560000 219.500000 40.000000 218.910000 39.460000 C 218.270000 38.840000 217.590000 38.240000 216.890000 37.660000 C 215.630000 36.590000 214.280000 35.570000 212.910000 34.640000 Z"/><path fill="rgb(72, 19, 16)" d=" M 157.420000 33.640000 L 157.380000 33.440000 C 157.430000 32.680000 157.780000 31.160000 159.830000 31.860000 L 160.080000 32.010000 C 161.020000 33.530000 161.860000 35.090000 162.620000 36.700000 L 163.060000 37.690000 C 163.470000 38.590000 163.840000 39.520000 164.180000 40.470000 C 164.180000 40.470000 164.530000 41.650000 164.820000 43.310000 C 165.100000 44.970000 165.230000 47.120000 164.960000 48.860000 C 164.830000 49.600000 164.690000 50.190000 164.560000 50.670000 C 164.360000 51.140000 164.200000 51.480000 164.050000 51.720000 C 163.780000 52.200000 163.580000 52.270000 163.480000 52.090000 C 163.250000 51.700000 163.390000 50.340000 163.240000 48.720000 C 163.190000 48.890000 163.100000 46.930000 162.520000 44.990000 C 161.980000 43.040000 161.120000 41.130000 161.120000 41.130000 C 160.830000 40.400000 160.550000 39.670000 160.220000 38.950000 L 159.800000 38.020000 C 159.090000 36.520000 158.290000 35.050000 157.420000 33.640000 Z"/><path fill="rgb(72, 19, 16)" d=" M 163.920000 69.190000 L 163.910000 68.980000 C 164.030000 68.270000 164.450000 66.710000 166.460000 67.590000 L 166.690000 67.760000 C 167.520000 69.380000 168.200000 71.040000 168.750000 72.740000 C 169.040000 73.510000 169.250000 74.300000 169.430000 75.090000 C 169.630000 76.070000 169.980000 77.030000 170.050000 78.030000 C 170.050000 78.030000 170.110000 79.140000 170.190000 80.950000 C 170.190000 81.780000 170.040000 82.740000 169.950000 83.680000 C 169.850000 84.620000 169.760000 85.560000 169.430000 86.380000 C 167.780000 91.960000 167.540000 89.350000 167.750000 86.060000 C 167.690000 86.150000 167.790000 85.700000 167.770000 84.960000 C 167.720000 84.180000 167.660000 83.180000 167.600000 82.200000 C 167.610000 81.180000 167.290000 80.170000 167.170000 79.420000 C 167.030000 78.650000 166.940000 78.150000 166.940000 78.150000 C 166.820000 77.380000 166.580000 76.630000 166.420000 75.860000 C 166.250000 75.140000 166.060000 74.420000 165.790000 73.720000 C 165.280000 72.160000 164.660000 70.620000 163.920000 69.190000 Z"/><path fill="rgb(72, 19, 16)" d=" M 187.130000 91.700000 L 187.120000 91.490000 C 187.240000 90.760000 187.690000 89.250000 189.690000 90.120000 L 189.920000 90.300000 C 190.730000 91.910000 191.420000 93.560000 191.980000 95.270000 C 192.210000 96.000000 192.440000 96.740000 192.620000 97.490000 C 192.870000 98.470000 193.070000 99.460000 193.220000 100.470000 C 193.220000 100.470000 193.340000 101.730000 193.230000 103.440000 C 193.180000 105.150000 192.650000 107.290000 191.870000 108.870000 C 191.250000 110.240000 190.590000 110.970000 190.190000 111.350000 C 189.800000 111.740000 189.590000 111.760000 189.540000 111.550000 C 189.400000 111.110000 189.980000 109.850000 190.270000 108.240000 C 190.210000 108.400000 190.650000 106.500000 190.610000 104.520000 C 190.550000 102.530000 190.080000 100.530000 190.080000 100.530000 C 189.970000 99.770000 189.800000 99.010000 189.600000 98.260000 C 189.430000 97.580000 189.230000 96.910000 189.020000 96.240000 C 188.510000 94.690000 187.870000 93.150000 187.130000 91.700000 Z"/><path fill="rgb(72, 19, 16)" d=" M 173.470000 107.530000 L 173.520000 107.320000 C 173.850000 106.620000 174.780000 105.380000 176.390000 106.800000 L 176.550000 107.030000 C 176.830000 108.760000 177.050000 110.490000 177.220000 112.240000 C 177.310000 113.490000 177.480000 114.730000 177.510000 116.000000 L 177.610000 118.930000 C 177.610000 118.930000 177.280000 123.840000 176.140000 127.110000 C 173.740000 132.520000 173.900000 129.770000 174.470000 126.650000 C 174.410000 126.810000 174.570000 124.800000 174.660000 122.750000 C 174.630000 121.700000 174.590000 120.660000 174.560000 119.880000 C 174.560000 119.100000 174.490000 118.570000 174.490000 118.570000 L 174.400000 116.160000 C 174.370000 114.960000 174.210000 113.750000 174.120000 112.550000 C 173.950000 110.870000 173.740000 109.190000 173.470000 107.530000 Z"/><path fill="rgb(72, 19, 16)" d=" M 144.740000 44.810000 L 144.860000 44.620000 C 145.490000 44.030000 146.850000 43.500000 147.680000 45.390000 L 147.730000 45.650000 C 147.280000 47.250000 146.900000 48.890000 146.610000 50.530000 C 146.450000 51.480000 146.280000 52.430000 146.180000 53.380000 C 146.060000 54.300000 146.000000 55.220000 145.930000 56.140000 C 145.930000 56.140000 145.340000 60.660000 145.750000 63.870000 C 146.140000 66.550000 146.400000 67.430000 145.940000 67.310000 C 145.580000 67.170000 144.650000 65.920000 144.040000 64.170000 C 144.030000 64.370000 143.390000 62.260000 143.100000 60.040000 C 142.840000 57.830000 142.850000 55.560000 142.850000 55.560000 C 142.920000 54.710000 142.980000 53.850000 143.090000 53.010000 C 143.200000 51.990000 143.370000 50.980000 143.540000 49.980000 C 143.860000 48.230000 144.250000 46.520000 144.740000 44.810000 Z"/><path fill="rgb(72, 19, 16)" d=" M 141.250000 78.840000 L 141.380000 78.660000 C 142.020000 78.070000 143.370000 77.540000 144.200000 79.430000 L 144.260000 79.690000 C 143.800000 81.280000 143.430000 82.920000 143.140000 84.560000 C 142.960000 85.510000 142.800000 86.470000 142.700000 87.420000 C 142.570000 88.340000 142.520000 89.260000 142.450000 90.180000 C 142.450000 90.180000 141.860000 94.700000 142.270000 97.910000 C 142.650000 100.590000 142.910000 101.470000 142.460000 101.350000 C 142.100000 101.200000 141.170000 99.960000 140.560000 98.210000 C 140.550000 98.410000 139.910000 96.300000 139.620000 94.080000 C 139.350000 91.870000 139.380000 89.590000 139.380000 89.590000 C 139.440000 88.740000 139.500000 87.890000 139.610000 87.050000 C 139.720000 86.030000 139.890000 85.020000 140.060000 84.010000 C 140.370000 82.270000 140.770000 80.550000 141.250000 78.840000 Z"/><path fill="rgb(72, 19, 16)" d=" M 151.460000 111.570000 L 151.590000 111.390000 C 152.230000 110.790000 153.580000 110.260000 154.410000 112.150000 L 154.470000 112.410000 C 154.010000 114.010000 153.630000 115.650000 153.350000 117.290000 C 153.180000 118.240000 153.010000 119.200000 152.910000 120.150000 C 152.780000 121.070000 152.730000 121.990000 152.660000 122.910000 C 152.660000 122.910000 152.070000 127.440000 152.480000 130.640000 C 152.870000 133.320000 153.120000 134.200000 152.680000 134.080000 C 152.310000 133.940000 151.390000 132.690000 150.770000 130.940000 C 150.760000 131.140000 150.130000 129.040000 149.840000 126.810000 C 149.570000 124.600000 149.580000 122.330000 149.580000 122.330000 C 149.640000 121.480000 149.700000 120.630000 149.820000 119.780000 C 149.930000 118.760000 150.100000 117.750000 150.270000 116.740000 C 150.590000 115.000000 150.980000 113.280000 151.460000 111.570000 Z"/><path fill="rgb(72, 19, 16)" d=" M 253.300000 116.080000 L 253.370000 116.010000 C 253.780000 115.740000 254.850000 115.180000 256.240000 115.550000 L 256.390000 115.620000 C 256.390000 115.620000 256.510000 116.370000 256.550000 117.340000 C 256.610000 118.320000 256.750000 119.630000 256.680000 120.920000 C 256.660000 122.210000 256.620000 123.500000 256.600000 124.460000 C 256.480000 125.420000 256.390000 126.050000 256.390000 126.050000 C 256.390000 126.050000 255.860000 127.690000 255.230000 128.750000 C 254.330000 130.570000 253.760000 129.640000 253.540000 128.420000 L 253.320000 125.600000 C 253.320000 125.600000 253.390000 125.010000 253.510000 124.130000 C 253.530000 123.240000 253.550000 122.060000 253.570000 120.870000 C 253.600000 118.480000 253.300000 116.080000 253.300000 116.080000 Z"/><path fill="rgb(227, 93, 27)" d=" M 67.630000 147.070000 L 67.720000 147.000000 C 68.190000 146.780000 69.370000 146.570000 70.600000 147.400000 L 70.710000 147.510000 C 70.710000 147.540000 70.610000 148.280000 70.470000 149.370000 C 70.340000 150.450000 70.160000 151.890000 70.000000 153.320000 C 69.670000 156.190000 69.540000 158.990000 69.540000 158.990000 C 69.540000 158.990000 69.160000 160.790000 68.770000 162.050000 C 68.460000 164.100000 67.740000 163.880000 67.050000 162.190000 C 66.980000 162.240000 66.830000 161.390000 66.670000 160.500000 C 66.500000 159.590000 66.440000 158.710000 66.440000 158.710000 C 66.440000 158.710000 66.480000 157.980000 66.540000 156.890000 C 66.650000 155.800000 66.730000 154.350000 66.910000 152.910000 C 67.070000 151.480000 67.240000 150.030000 67.380000 148.940000 C 67.520000 147.850000 67.620000 147.110000 67.630000 147.070000 Z"/><path fill="rgb(227, 93, 27)" d=" M 73.030000 158.270000 L 73.110000 158.200000 C 73.560000 157.920000 74.700000 157.580000 76.030000 158.290000 L 76.150000 158.390000 C 76.150000 158.430000 76.120000 159.190000 76.100000 160.300000 C 76.090000 161.420000 76.080000 162.900000 76.060000 164.380000 C 76.100000 165.840000 76.140000 167.300000 76.170000 168.400000 C 76.190000 169.500000 76.250000 170.210000 76.250000 170.210000 C 76.250000 170.210000 76.140000 172.060000 75.820000 173.460000 C 75.410000 175.810000 74.640000 175.080000 74.110000 173.680000 L 73.130000 170.250000 C 73.130000 170.250000 73.090000 169.510000 73.060000 168.400000 C 73.030000 167.280000 72.980000 165.800000 72.940000 164.310000 C 72.960000 162.830000 72.970000 161.340000 72.980000 160.220000 C 73.010000 159.090000 73.030000 158.320000 73.030000 158.270000 Z"/><path fill="rgb(227, 93, 27)" d=" M 81.440000 146.320000 L 81.530000 146.270000 C 82.020000 146.130000 83.200000 146.100000 84.380000 146.920000 L 84.480000 147.030000 C 84.470000 147.060000 84.350000 147.660000 84.150000 148.540000 C 83.960000 149.440000 83.740000 150.620000 83.560000 151.790000 C 83.180000 154.150000 83.090000 156.430000 83.090000 156.430000 C 83.090000 156.430000 82.750000 157.870000 82.490000 158.890000 C 82.280000 160.660000 81.580000 160.600000 80.790000 159.240000 C 80.790000 159.280000 80.700000 159.110000 80.560000 158.820000 C 80.470000 158.540000 80.390000 158.170000 80.300000 157.790000 C 80.210000 157.390000 80.120000 156.990000 80.060000 156.700000 C 80.020000 156.410000 79.990000 156.220000 79.990000 156.220000 C 79.990000 156.220000 80.090000 153.680000 80.490000 151.250000 C 80.680000 150.030000 80.910000 148.820000 81.100000 147.900000 C 81.300000 146.980000 81.430000 146.360000 81.440000 146.320000 Z"/><path fill="rgb(227, 93, 27)" d=" M 230.560000 209.960000 L 230.460000 210.160000 C 229.950000 210.810000 228.720000 211.630000 227.560000 209.880000 L 227.470000 209.630000 L 227.940000 204.540000 C 228.040000 202.970000 228.180000 201.400000 228.230000 199.840000 L 228.350000 197.000000 C 228.350000 197.000000 228.780000 192.360000 228.920000 189.080000 C 228.600000 183.640000 229.660000 185.370000 230.650000 189.010000 C 230.650000 188.820000 231.010000 190.940000 231.200000 193.110000 C 231.350000 195.270000 231.440000 197.490000 231.440000 197.490000 L 231.340000 199.980000 C 231.280000 201.590000 231.140000 203.180000 231.050000 204.780000 L 230.560000 209.960000 Z"/><path fill="rgb(227, 93, 27)" d=" M 235.940000 222.280000 L 235.840000 222.360000 C 235.340000 222.580000 234.140000 222.720000 233.000000 221.700000 L 232.900000 221.570000 C 232.910000 221.520000 233.100000 220.700000 233.360000 219.490000 C 233.630000 218.270000 233.920000 216.650000 234.200000 215.040000 C 234.710000 211.810000 234.860000 208.630000 234.860000 208.630000 C 234.860000 208.630000 234.940000 208.190000 235.060000 207.440000 C 235.180000 206.750000 235.400000 205.860000 235.460000 205.150000 C 235.680000 202.650000 236.470000 203.220000 237.160000 204.920000 C 237.170000 204.820000 237.570000 205.840000 237.670000 206.850000 C 237.820000 207.860000 237.960000 208.920000 237.960000 208.920000 C 237.960000 208.920000 237.800000 212.320000 237.260000 215.610000 C 236.980000 217.270000 236.680000 218.910000 236.410000 220.150000 C 236.140000 221.390000 235.950000 222.240000 235.940000 222.280000 Z"/><path fill="rgb(227, 93, 27)" d=" M 200.910000 146.030000 L 200.970000 145.820000 C 201.350000 145.140000 202.340000 143.960000 203.870000 145.470000 L 204.020000 145.710000 C 204.200000 147.460000 204.310000 149.200000 204.370000 150.950000 L 204.390000 151.780000 L 204.390000 154.720000 C 204.390000 154.720000 204.310000 155.930000 204.060000 157.550000 C 203.880000 159.170000 203.350000 161.200000 202.900000 162.830000 C 200.960000 168.300000 200.840000 165.740000 201.210000 162.430000 C 201.160000 162.590000 201.300000 160.560000 201.380000 158.490000 C 201.370000 157.420000 201.360000 156.380000 201.360000 155.600000 C 201.310000 154.800000 201.290000 154.270000 201.290000 154.270000 L 201.280000 151.860000 L 201.250000 151.060000 C 201.190000 149.380000 201.090000 147.690000 200.910000 146.030000 Z"/><path fill="rgb(227, 93, 27)" d=" M 207.790000 144.910000 L 207.860000 144.840000 C 208.250000 144.590000 209.290000 143.990000 210.720000 144.250000 L 210.860000 144.310000 C 210.850000 144.340000 210.990000 144.960000 211.110000 145.860000 C 211.250000 146.750000 211.360000 147.940000 211.430000 149.130000 C 211.590000 151.510000 211.270000 153.940000 211.270000 153.940000 C 211.270000 153.940000 210.790000 155.500000 209.950000 156.410000 C 208.810000 157.980000 208.400000 156.940000 208.310000 155.900000 C 208.250000 155.940000 208.310000 155.330000 208.290000 154.710000 C 208.250000 154.060000 208.200000 153.440000 208.200000 153.440000 C 208.200000 153.440000 208.470000 151.390000 208.310000 149.240000 C 208.250000 148.170000 208.140000 147.090000 208.010000 146.280000 C 207.910000 145.470000 207.790000 144.940000 207.790000 144.910000 Z"/><path fill="rgb(227, 93, 27)" d=" M 237.980000 188.200000 L 237.910000 188.260000 C 237.440000 188.460000 236.280000 188.650000 235.010000 187.940000 L 234.880000 187.840000 C 234.880000 187.810000 234.950000 187.170000 235.040000 186.230000 C 235.100000 185.280000 235.230000 184.030000 235.280000 182.780000 C 235.320000 181.540000 235.350000 180.300000 235.380000 179.370000 C 235.440000 178.430000 235.350000 177.840000 235.350000 177.840000 C 235.350000 177.840000 235.580000 176.250000 235.980000 175.070000 C 236.530000 173.080000 237.260000 173.720000 237.700000 174.940000 L 238.470000 177.900000 C 238.470000 177.900000 238.540000 178.550000 238.480000 179.500000 C 238.460000 180.460000 238.430000 181.730000 238.390000 183.010000 C 238.340000 184.290000 238.210000 185.560000 238.140000 186.530000 C 238.050000 187.500000 237.990000 188.160000 237.980000 188.200000 Z"/><path fill="rgb(227, 93, 27)" d=" M 168.630000 228.300000 L 168.560000 228.370000 C 168.090000 228.600000 166.940000 228.870000 165.640000 228.160000 L 165.520000 228.060000 C 165.520000 228.030000 165.570000 227.330000 165.630000 226.310000 C 165.670000 225.280000 165.720000 223.920000 165.780000 222.570000 C 165.760000 221.230000 165.750000 219.880000 165.740000 218.880000 C 165.760000 217.860000 165.670000 217.220000 165.670000 217.220000 C 165.670000 217.220000 165.800000 215.530000 166.140000 214.230000 C 166.590000 212.060000 167.340000 212.700000 167.860000 214.010000 L 168.790000 217.180000 C 168.790000 217.180000 168.860000 217.890000 168.850000 218.910000 C 168.860000 219.940000 168.870000 221.320000 168.890000 222.700000 C 168.830000 224.080000 168.780000 225.460000 168.740000 226.500000 C 168.680000 227.550000 168.640000 228.260000 168.630000 228.300000 Z"/><path fill="rgb(227, 93, 27)" d=" M 161.070000 241.260000 L 160.990000 241.470000 C 160.550000 242.160000 159.420000 243.140000 158.070000 241.510000 L 157.950000 241.270000 L 157.900000 236.130000 L 157.880000 233.480000 L 157.830000 230.620000 C 157.830000 230.620000 158.040000 227.140000 158.300000 222.630000 C 158.510000 217.040000 159.360000 218.990000 160.030000 222.570000 C 160.210000 222.240000 160.950000 230.960000 160.950000 230.960000 L 161.000000 233.440000 L 161.030000 236.090000 L 161.070000 241.260000 Z"/><path fill="rgb(227, 93, 27)" d=" M 153.210000 229.300000 L 153.120000 229.350000 C 152.660000 229.540000 151.520000 229.660000 150.220000 229.040000 L 150.100000 228.960000 C 150.090000 228.920000 150.180000 228.420000 150.200000 227.610000 C 150.190000 226.810000 150.320000 225.750000 150.230000 224.710000 C 150.160000 223.660000 150.100000 222.610000 150.050000 221.830000 C 150.000000 221.050000 149.810000 220.580000 149.840000 220.570000 C 149.840000 220.570000 149.860000 219.230000 150.130000 218.150000 C 150.420000 216.350000 151.190000 216.730000 151.790000 217.720000 L 152.930000 220.180000 C 153.030000 220.180000 153.260000 222.430000 153.350000 224.690000 C 153.420000 225.820000 153.310000 226.950000 153.310000 227.800000 C 153.290000 228.650000 153.210000 229.300000 153.210000 229.300000 Z"/><path fill="rgb(222, 69, 28)" d=" M 110.800000 231.480000 L 59.610000 281.420000 L 69.030000 285.300000 L 116.280000 232.780000 L 110.800000 231.480000 Z"/><path fill="rgb(230, 114, 27)" d=" M 130.550000 235.230000 L 128.220000 237.880000 L 109.960000 236.000000 C 109.960000 236.000000 106.940000 236.470000 106.340000 238.780000 C 105.910000 240.460000 117.930000 241.570000 124.540000 242.070000 L 115.080000 252.840000 L 96.710000 250.150000 C 96.710000 250.150000 93.080000 251.550000 92.490000 253.850000 C 92.090000 255.420000 102.910000 257.570000 109.860000 258.790000 L 102.360000 267.320000 L 84.060000 262.650000 C 84.060000 262.650000 79.220000 263.600000 79.220000 265.900000 C 79.230000 267.750000 93.210000 270.400000 98.790000 271.390000 L 90.150000 281.220000 L 72.620000 276.080000 C 72.620000 276.080000 68.390000 277.480000 68.400000 279.780000 C 68.410000 281.490000 80.100000 284.410000 86.130000 285.800000 L 82.990000 289.380000 L 93.290000 290.700000 L 130.610000 245.360000 L 136.570000 236.570000 L 130.550000 235.230000 Z"/><path fill="rgb(101, 38, 19)" d=" M 214.310000 204.860000 C 213.870000 205.400000 213.390000 205.910000 212.890000 206.380000 C 203.790000 214.850000 189.530000 214.370000 181.030000 205.300000 C 175.030000 198.910000 173.530000 189.960000 176.360000 182.260000 C 169.890000 190.810000 170.310000 202.980000 177.890000 211.060000 C 186.380000 220.130000 200.650000 220.610000 209.750000 212.140000 C 211.870000 210.170000 213.360000 207.660000 214.310000 204.860000 Z"/><path fill="rgb(72, 19, 16)" d=" M 181.030000 205.300000 C 189.530000 214.370000 203.790000 214.850000 212.890000 206.380000 C 213.390000 205.910000 213.870000 205.400000 214.310000 204.860000 C 217.420000 195.670000 214.540000 183.350000 208.020000 176.390000 C 199.530000 167.330000 188.070000 170.850000 178.980000 179.320000 C 177.980000 180.230000 177.130000 181.230000 176.360000 182.260000 C 173.530000 189.960000 175.030000 198.910000 181.030000 205.300000 Z"/></svg>