<?xml version="1.0" standalone="no"?><!DOCTYPE svg PUBLIC "-//W3C//DTD SVG 1.1//EN" "http://www.w3.org/Graphics/SVG/1.1/DTD/svg11.dtd"><svg id="Jeepers0.svg" width="390" height="390" version="1.1" viewBox="0 0 300 300" xmlns="http://www.w3.org/2000/svg" xmlns:xlink="http://www.w3.org/1999/xlink"><defs xmlns="http://www.w3.org/1999/xhtml"><style type="text/css"><![CDATA[
* { border: 0px; margin: 0px; padding: 0px; }
html { background-color: rgb(255, 255, 255); font-family: Verdana, Arial; }
.webgl-content * { position: absolute; width: 100%; height: 100%; user-select: none; }
.webgl-content .logo, .progress { position: absolute; left: 50%; top: 50%; transform: translate(-50%, -50%); }
.webgl-content .logo { background: url("progressLogo.Light.png") center center / contain no-repeat; width: 154px; height: 130px; }
.webgl-content .progress { height: 18px; width: 141px; margin-top: 90px; }
.webgl-content .progress .empty { background: url("progressEmpty.Light.png") right center / cover no-repeat; float: right; width: 100%; height: 100%; display: inline-block; }
.webgl-content .progress .full { background: url("progressFull.Light.png") left center / cover no-repeat; float: left; width: 0%; height: 100%; display: inline-block; }
.webgl-content .logo.Dark { background-image: url("progressLogo.Dark.png"); }
.webgl-content .progress.Dark .empty { background-image: url("progressEmpty.Dark.png"); }
.webgl-content .progress.Dark .full { background-image: url("progressFull.Dark.png"); }
#loading-content { z-index: 10000; position: fixed; width: 100%; height: 100%; left: 0px; top: 0px; overflow: hidden; background: url("background.png"); }
.hud-intro .hud-intro-social .btn-discord, .hud-respawn .hud-respawn-social .btn-discord { background-image: url("//lordz.io/images/discord-icon.png"); }
.hud-intro .hud-intro-social .btn-twitter, .hud-respawn .hud-respawn-social .btn-twitter { background-image: url("//lordz.io/images/twitter-icon.png"); }
.hud-intro .hud-intro-social .btn-facebook, .hud-respawn .hud-respawn-social .btn-facebook { background-image: url("//lordz.io/images/facebook-icon.png"); }
.hud-intro .hud-intro-social .btn-youtube, .hud-respawn .hud-respawn-social .btn-youtube { background-image: url("//lordz.io/images/youtube-icon.png"); }
* { box-sizing: border-box; user-select: none; }
.btn { position: relative; display: inline-block; top: 0px; height: 36px; line-height: 36px; padding: 0px 20px; background: rgb(68, 68, 68); color: rgb(238, 238, 238); border: 0px; font-size: 14px; vertical-align: top; text-align: center; text-decoration: none; text-shadow: rgba(0, 0, 0, 0.4) 0px 1px 0px; box-shadow: rgba(0, 0, 0, 0.2) 0px 2px 10px, rgb(51, 51, 51) 0px 4px 0px; border-radius: 4px; transition: all 0.15s ease-in-out 0s; }
.btn:hover, .btn:active { background-color: rgb(85, 85, 85); color: rgb(255, 255, 255); }
.btn:active { top: 4px; box-shadow: rgba(0, 0, 0, 0.2) 0px 2px 10px !important; }
.btn-green { background-color: rgb(71, 149, 13); box-shadow: rgba(0, 0, 0, 0.2) 0px 2px 10px, rgb(53, 131, 0) 0px 4px 0px; }
.btn-green:hover, .btn-green:active { background-color: rgb(100, 184, 32); }
.btn-red { background-color: rgb(179, 53, 60); box-shadow: rgba(0, 0, 0, 0.2) 0px 2px 10px, rgb(161, 35, 42) 0px 4px 0px; }
.btn-red:hover, .btn-red:active { background-color: rgb(203, 87, 91); }
.btn-blue { background-color: rgb(29, 141, 238); box-shadow: rgba(0, 0, 0, 0.2) 0px 2px 10px, rgb(11, 123, 220) 0px 4px 0px; }
.btn-blue:hover, .btn-blue:active { background-color: rgb(79, 167, 238); }
.btn-purple { background-color: rgb(114, 55, 228); box-shadow: rgba(0, 0, 0, 0.2) 0px 2px 10px, rgb(96, 37, 210) 0px 4px 0px; }
.btn-purple:hover, .btn-purple:active { background-color: rgb(130, 89, 228); }
.btn-twitter { background-color: rgb(27, 149, 224); box-shadow: rgba(0, 0, 0, 0.2) 0px 2px 10px, rgb(9, 131, 206) 0px 4px 0px; }
.btn-twitter:hover, .btn-twitter:active { background-color: rgb(12, 122, 191); }
.btn-facebook { background-color: rgb(66, 103, 178); box-shadow: rgba(0, 0, 0, 0.2) 0px 2px 10px, rgb(48, 85, 160) 0px 4px 0px; }
.btn-facebook:hover, .btn-facebook:active { background-color: rgb(54, 88, 153); }
.btn-google { background-color: rgb(221, 75, 57); box-shadow: rgba(0, 0, 0, 0.2) 0px 2px 10px, rgb(203, 57, 39) 0px 4px 0px; }
.btn-google:hover, .btn-google:active { background-color: rgb(186, 63, 49); }
.btn-discord { background-color: rgb(114, 137, 218); box-shadow: rgba(0, 0, 0, 0.2) 0px 2px 10px, rgb(96, 119, 200) 0px 4px 0px; }
.btn-discord:hover, .btn-discord:active { background-color: rgb(90, 109, 176); }
.btn-youtube { background-color: rgb(229, 45, 39); box-shadow: rgba(0, 0, 0, 0.2) 0px 2px 10px, rgb(211, 27, 21) 0px 4px 0px; }
.btn-youtube:hover, .btn-youtube:active { background-color: rgb(186, 37, 33); }
.hud { position: fixed; top: 0px; left: 0px; bottom: 0px; right: 0px; }
.hud .hud-bottom-left { display: flex; position: absolute; bottom: 20px; left: 20px; flex-direction: column-reverse; }
.hud-intro .hud-intro-corner-bottom-left, .hud-respawn .hud-respawn-corner-bottom-left { position: fixed; bottom: 20px; left: 20px; text-align: left; }
.hud-intro .hud-intro-social, .hud-respawn .hud-respawn-social { width: 240px; line-height: 24px; font-size: 14px; color: rgb(119, 119, 119); }
.hud-intro .hud-intro-social .btn, .hud-respawn .hud-respawn-social .btn { display: block; float: left; margin: 0px 10px 0px 0px; width: 40px; height: 40px; line-height: 40px; background-size: 24px; background-position: center center; background-repeat: no-repeat; }
.hud-intro .hud-intro-more-games { position: relative; bottom: 5px; line-height: 20px; font-size: 14px; color: rgba(255, 255, 255, 0.4); text-shadow: rgba(0, 0, 0, 0.2) 0px 1px 3px; }
.hud-intro .hud-intro-more-games a { display: inline-block; padding: 0px 20px; line-height: 40px; background: rgb(132, 115, 212); color: rgb(238, 238, 238); text-decoration: none; border-radius: 4px; transition: all 0.15s ease-in-out 0s; }
.hud-intro .hud-intro-more-games a:hover, .hud-intro .hud-intro-more-games a:active { background: rgb(103, 90, 166); }
#preroll video { left: 0px; top: 0px; }
.fb_hidden { position: absolute; top: -10000px; z-index: 10001; }
.fb_reposition { overflow: hidden; position: relative; }
.fb_invisible { display: none; }
.fb_reset { background: none; border: 0px; border-spacing: 0px; color: rgb(0, 0, 0); cursor: auto; direction: ltr; font-family: "lucida grande", tahoma, verdana, arial, sans-serif; font-size: 11px; font-style: normal; font-variant: normal; font-weight: normal; letter-spacing: normal; line-height: 1; margin: 0px; overflow: visible; padding: 0px; text-align: left; text-decoration: none; text-indent: 0px; text-shadow: none; text-transform: none; visibility: visible; white-space: normal; word-spacing: normal; }
.fb_animate { animation: 0.3s ease 0s 1 normal forwards running fb_transform; }
.fb_dialog { background: rgba(82, 82, 82, 0.7); position: absolute; top: -10000px; z-index: 10001; }
.fb_dialog_advanced { border-radius: 8px; padding: 10px; }
.fb_dialog_content { background: rgb(255, 255, 255); color: rgb(55, 55, 55); }
.fb_dialog_close_icon { background: url("https://static.xx.fbcdn.net/rsrc.php/v3/yq/r/IE9JII6Z1Ys.png") 0px 0px no-repeat scroll transparent; cursor: pointer; display: block; height: 15px; position: absolute; right: 18px; top: 17px; width: 15px; }
.fb_dialog_mobile .fb_dialog_close_icon { left: 5px; right: auto; top: 5px; }
.fb_dialog_padding { background-color: transparent; position: absolute; width: 1px; z-index: -1; }
.fb_dialog_close_icon:hover { background: url("https://static.xx.fbcdn.net/rsrc.php/v3/yq/r/IE9JII6Z1Ys.png") 0px -15px no-repeat scroll transparent; }
.fb_dialog_close_icon:active { background: url("https://static.xx.fbcdn.net/rsrc.php/v3/yq/r/IE9JII6Z1Ys.png") 0px -30px no-repeat scroll transparent; }
.fb_dialog_iframe { line-height: 0; }
.fb_dialog_content .dialog_title { background: rgb(109, 132, 180); border: 1px solid rgb(54, 88, 153); color: rgb(255, 255, 255); font-size: 14px; font-weight: bold; margin: 0px; }
body.fb_hidden { height: 100%; left: 0px; margin: 0px; overflow: visible; position: absolute; top: -10000px; transform: none; width: 100%; }
.fb_dialog.fb_dialog_mobile.loading { background: url("https://static.xx.fbcdn.net/rsrc.php/v3/ya/r/3rhSv5V8j3o.gif") 50% 50% no-repeat white; min-height: 100%; min-width: 100%; overflow: hidden; position: absolute; top: 0px; z-index: 10001; }
.fb_dialog.fb_dialog_mobile.loading.centered { background: none; height: auto; min-height: initial; min-width: initial; width: auto; }
.fb_dialog.fb_dialog_mobile.loading.centered #fb_dialog_loader_spinner { width: 100%; }
.fb_dialog.fb_dialog_mobile.loading.centered .fb_dialog_content { background: none; }
.loading.centered #fb_dialog_loader_close { clear: both; color: rgb(255, 255, 255); display: block; font-size: 18px; padding-top: 20px; }
#fb-root #fb_dialog_ipad_overlay { background: rgba(0, 0, 0, 0.4); bottom: 0px; left: 0px; min-height: 100%; position: absolute; right: 0px; top: 0px; width: 100%; z-index: 10000; }
#fb-root #fb_dialog_ipad_overlay.hidden { display: none; }
.fb_dialog.fb_dialog_mobile.loading iframe { visibility: hidden; }
.fb_dialog_mobile .fb_dialog_iframe { position: sticky; top: 0px; }
.fb_dialog_content .dialog_header { border-bottom: 1px solid rgb(4, 59, 135); border-top-color: rgb(4, 59, 135); border-right-color: rgb(4, 59, 135); border-left-color: rgb(4, 59, 135); box-shadow: white 0px 1px 1px -1px inset; color: rgb(255, 255, 255); font: bold 14px Helvetica, sans-serif; text-overflow: ellipsis; text-shadow: rgba(0, 30, 84, 0.298) 0px -1px 0px; vertical-align: middle; white-space: nowrap; }
.fb_dialog_content .dialog_header table { height: 43px; width: 100%; }
.fb_dialog_content .dialog_header td.header_left { font-size: 12px; padding-left: 5px; vertical-align: middle; width: 60px; }
.fb_dialog_content .dialog_header td.header_right { font-size: 12px; padding-right: 5px; vertical-align: middle; width: 60px; }
.fb_dialog_content .touchable_button { background-clip: padding-box; border: 1px solid rgb(41, 72, 125); border-radius: 3px; display: inline-block; line-height: 18px; margin-top: 3px; max-width: 85px; padding: 4px 12px; position: relative; }
.fb_dialog_content .dialog_header .touchable_button input { background: none; border: none; color: rgb(255, 255, 255); font: bold 12px Helvetica, sans-serif; margin: 2px -12px; padding: 2px 6px 3px; text-shadow: rgba(0, 30, 84, 0.298) 0px -1px 0px; }
.fb_dialog_content .dialog_header .header_center { color: rgb(255, 255, 255); font-size: 16px; font-weight: bold; line-height: 18px; text-align: center; vertical-align: middle; }
.fb_dialog_content .dialog_content { background: url("https://static.xx.fbcdn.net/rsrc.php/v3/y9/r/jKEcVPZFk-2.gif") 50% 50% no-repeat; border-width: 0px 1px; border-right-style: solid; border-left-style: solid; border-right-color: rgb(74, 74, 74); border-left-color: rgb(74, 74, 74); border-image: initial; border-bottom-style: initial; border-bottom-color: initial; border-top-style: initial; border-top-color: initial; height: 150px; }
.fb_dialog_content .dialog_footer { background: rgb(245, 246, 247); border-width: 1px; border-style: solid; border-color: rgb(204, 204, 204) rgb(74, 74, 74) rgb(74, 74, 74); border-image: initial; height: 40px; }
#fb_dialog_loader_close { float: left; }
.fb_dialog.fb_dialog_mobile .fb_dialog_close_button { text-shadow: rgba(0, 30, 84, 0.298) 0px -1px 0px; }
.fb_dialog.fb_dialog_mobile .fb_dialog_close_icon { visibility: hidden; }
#fb_dialog_loader_spinner { animation: 1.2s linear 0s infinite normal none running rotateSpinner; background-color: transparent; background-image: url("https://static.xx.fbcdn.net/rsrc.php/v3/yD/r/t-wz8gw1xG1.png"); background-position: 50% 50%; background-repeat: no-repeat; height: 24px; width: 24px; }
.fb_iframe_widget { display: inline-block; position: relative; }
.fb_iframe_widget span { display: inline-block; position: relative; text-align: justify; }
.fb_iframe_widget iframe { position: absolute; }
.fb_iframe_widget_fluid_desktop, .fb_iframe_widget_fluid_desktop span, .fb_iframe_widget_fluid_desktop iframe { max-width: 100%; }
.fb_iframe_widget_fluid_desktop iframe { min-width: 220px; position: relative; }
.fb_iframe_widget_lift { z-index: 1; }
.fb_iframe_widget_fluid { display: inline; }
.fb_iframe_widget_fluid span { width: 100%; }
.st0 { fill: rgb(119, 183, 73); }
.st1 { fill: rgb(247, 175, 47); }
.st2 { fill: rgb(233, 81, 15); }
.st3 { fill: url("#SVGID_1_"); }
.st4 { fill: url("#SVGID_2_"); }
.st5 { fill: rgb(252, 242, 119); }
.st6 { fill: url("#SVGID_3_"); }
.st7 { fill: url("#SVGID_4_"); }
.st8 { fill: url("#SVGID_5_"); }
.st9 { fill: url("#SVGID_6_"); }
.st10 { fill: url("#SVGID_7_"); }
.st11 { fill: url("#SVGID_8_"); }
.st12 { fill: url("#SVGID_9_"); }
.st13 { fill: url("#SVGID_10_"); }
.st14 { fill: url("#SVGID_11_"); }
.st15 { fill: url("#SVGID_12_"); }
.st16 { fill: url("#SVGID_13_"); }
.st17 { fill: url("#SVGID_14_"); }
.st18 { fill: url("#SVGID_15_"); }
.st19 { fill: url("#SVGID_16_"); }
.st0 { fill: rgb(119, 183, 73); }
.st1 { fill: rgb(247, 175, 47); }
.st2 { fill: rgb(233, 81, 15); }
.st3 { fill: url("#SVGID_1_"); }
.st4 { fill: url("#SVGID_2_"); }
.st5 { fill: rgb(252, 242, 119); }
.st6 { fill: url("#SVGID_3_"); }
.st7 { fill: url("#SVGID_4_"); }
.st8 { fill: url("#SVGID_5_"); }
.st9 { fill: url("#SVGID_6_"); }
.st10 { fill: url("#SVGID_7_"); }
.st11 { fill: url("#SVGID_8_"); }
.st12 { fill: url("#SVGID_9_"); }
.st13 { fill: url("#SVGID_10_"); }
.st14 { fill: url("#SVGID_11_"); }
.st15 { fill: url("#SVGID_12_"); }
.st16 { fill: url("#SVGID_13_"); }
.st17 { fill: url("#SVGID_14_"); }
.st18 { fill: url("#SVGID_15_"); }
.st19 { fill: url("#SVGID_16_"); }
.st0 { fill: rgb(119, 183, 73); }
.st1 { fill: rgb(247, 175, 47); }
.st2 { fill: rgb(233, 81, 15); }
.st3 { fill: url("#SVGID_1_"); }
.st4 { fill: url("#SVGID_2_"); }
.st5 { fill: rgb(252, 242, 119); }
.st6 { fill: url("#SVGID_3_"); }
.st7 { fill: url("#SVGID_4_"); }
.st8 { fill: url("#SVGID_5_"); }
.st9 { fill: url("#SVGID_6_"); }
.st10 { fill: url("#SVGID_7_"); }
.st11 { fill: url("#SVGID_8_"); }
.st12 { fill: url("#SVGID_9_"); }
.st13 { fill: url("#SVGID_10_"); }
.st14 { fill: url("#SVGID_11_"); }
.st15 { fill: url("#SVGID_12_"); }
.st16 { fill: url("#SVGID_13_"); }
.st17 { fill: url("#SVGID_14_"); }
.st18 { fill: url("#SVGID_15_"); }
.st19 { fill: url("#SVGID_16_"); }
.st0 { fill: rgb(119, 183, 73); }
.st1 { fill: rgb(247, 175, 47); }
.st2 { fill: rgb(233, 81, 15); }
.st3 { fill: url("#SVGID_1_"); }
.st4 { fill: url("#SVGID_2_"); }
.st5 { fill: rgb(252, 242, 119); }
.st6 { fill: url("#SVGID_3_"); }
.st7 { fill: url("#SVGID_4_"); }
.st8 { fill: url("#SVGID_5_"); }
.st9 { fill: url("#SVGID_6_"); }
.st10 { fill: url("#SVGID_7_"); }
.st11 { fill: url("#SVGID_8_"); }
.st12 { fill: url("#SVGID_9_"); }
.st13 { fill: url("#SVGID_10_"); }
.st14 { fill: url("#SVGID_11_"); }
.st15 { fill: url("#SVGID_12_"); }
.st16 { fill: url("#SVGID_13_"); }
.st17 { fill: url("#SVGID_14_"); }
.st18 { fill: url("#SVGID_15_"); }
.st19 { fill: url("#SVGID_16_"); }]]></style></defs><path fill="rgb(20, 21, 24)" d=" M 1.540000 186.350000 L 1.520000 127.440000 C 8.540000 125.770000 15.870000 125.830000 23.490000 127.440000 L 23.500000 186.340000 C 16.340000 188.510000 9.010000 188.360000 1.540000 186.350000 Z"/><path fill="rgb(71, 71, 70)" d=" M 16.520000 158.700000 L 16.520000 161.050000 L 23.500000 161.050000 L 23.490000 158.700000 L 16.520000 158.700000 Z M 16.520000 152.890000 L 16.520000 155.230000 L 23.490000 155.230000 L 23.490000 152.890000 L 16.520000 152.890000 Z M 16.520000 147.070000 L 16.520000 149.410000 L 23.490000 149.410000 L 23.490000 147.070000 L 16.520000 147.070000 Z M 16.520000 129.620000 L 16.520000 131.970000 L 23.490000 131.970000 L 23.490000 129.620000 L 16.520000 129.620000 Z M 16.520000 135.440000 L 16.520000 137.780000 L 23.490000 137.780000 L 23.490000 135.440000 L 16.520000 135.440000 Z M 16.520000 176.150000 L 16.520000 178.490000 L 23.500000 178.490000 L 23.500000 176.150000 L 16.520000 176.150000 Z M 23.500000 181.970000 L 16.520000 181.970000 L 16.520000 184.310000 L 23.500000 184.310000 L 23.500000 181.970000 Z M 16.520000 170.330000 L 16.520000 172.680000 L 23.500000 172.680000 L 23.500000 170.330000 L 16.520000 170.330000 Z M 16.520000 164.520000 L 16.520000 166.860000 L 23.500000 166.860000 L 23.500000 164.520000 L 16.520000 164.520000 Z M 16.520000 141.250000 L 16.520000 143.600000 L 23.490000 143.600000 L 23.490000 141.250000 L 16.520000 141.250000 Z M 1.540000 170.330000 L 1.540000 172.680000 L 8.510000 172.680000 L 8.510000 170.330000 L 1.540000 170.330000 Z M 1.530000 158.700000 L 1.530000 161.050000 L 8.510000 161.050000 L 8.510000 158.700000 L 1.530000 158.700000 Z M 1.530000 164.520000 L 1.540000 166.860000 L 8.510000 166.860000 L 8.510000 164.520000 L 1.530000 164.520000 Z M 1.540000 176.150000 L 1.540000 178.490000 L 8.510000 178.490000 L 8.510000 176.150000 L 1.540000 176.150000 Z M 1.540000 181.970000 L 1.540000 184.310000 L 8.510000 184.310000 L 8.510000 181.970000 L 1.540000 181.970000 Z M 1.530000 147.070000 L 1.530000 149.410000 L 8.510000 149.410000 L 8.510000 147.070000 L 1.530000 147.070000 Z M 1.530000 141.250000 L 1.530000 143.600000 L 8.510000 143.600000 L 8.510000 141.250000 L 1.530000 141.250000 Z M 1.530000 135.440000 L 1.530000 137.780000 L 8.510000 137.780000 L 8.510000 135.440000 L 1.530000 135.440000 Z M 1.530000 152.890000 L 1.530000 155.230000 L 8.510000 155.230000 L 8.510000 152.890000 L 1.530000 152.890000 Z M 1.530000 129.620000 L 1.530000 131.970000 L 8.510000 131.970000 L 8.510000 129.620000 L 1.530000 129.620000 Z"/><path fill="rgb(20, 21, 24)" d=" M 229.740000 109.330000 L 287.630000 117.820000 C 288.200000 124.650000 287.020000 131.520000 284.270000 138.430000 L 226.380000 129.940000 C 225.350000 122.900000 226.620000 116.040000 229.740000 109.330000 Z"/><path fill="rgb(71, 71, 70)" d=" M 254.620000 127.380000 L 252.310000 127.040000 L 251.240000 133.590000 L 253.540000 133.930000 L 254.620000 127.380000 Z M 260.330000 128.220000 L 258.030000 127.880000 L 256.950000 134.420000 L 259.260000 134.760000 L 260.330000 128.220000 Z M 266.050000 129.060000 L 263.740000 128.720000 L 262.670000 135.260000 L 264.980000 135.600000 L 266.050000 129.060000 Z M 283.190000 131.580000 L 280.890000 131.240000 L 279.820000 137.780000 L 282.120000 138.120000 L 283.190000 131.580000 Z M 277.480000 130.740000 L 275.170000 130.400000 L 274.100000 136.940000 L 276.410000 137.280000 L 277.480000 130.740000 Z M 237.470000 124.860000 L 235.160000 124.520000 L 234.090000 131.070000 L 236.400000 131.410000 L 237.470000 124.860000 Z M 230.680000 130.570000 L 231.750000 124.020000 L 229.450000 123.680000 L 228.380000 130.230000 L 230.680000 130.570000 Z M 243.180000 125.700000 L 240.880000 125.360000 L 239.810000 131.910000 L 242.110000 132.250000 L 243.180000 125.700000 Z M 248.900000 126.540000 L 246.590000 126.200000 L 245.520000 132.750000 L 247.830000 133.090000 L 248.900000 126.540000 Z M 271.760000 129.900000 L 269.460000 129.560000 L 268.390000 136.100000 L 270.690000 136.440000 L 271.760000 129.900000 Z M 245.480000 111.640000 L 243.180000 111.300000 L 242.110000 117.840000 L 244.410000 118.180000 L 245.480000 111.640000 Z M 256.920000 113.310000 L 254.610000 112.970000 L 253.540000 119.520000 L 255.840000 119.860000 L 256.920000 113.310000 Z M 251.200000 112.470000 L 248.890000 112.140000 L 247.820000 118.680000 L 250.130000 119.020000 L 251.200000 112.470000 Z M 239.770000 110.800000 L 237.460000 110.460000 L 236.390000 117.000000 L 238.700000 117.340000 L 239.770000 110.800000 Z M 234.050000 109.960000 L 231.750000 109.620000 L 230.680000 116.160000 L 232.980000 116.500000 L 234.050000 109.960000 Z M 268.350000 114.990000 L 266.040000 114.650000 L 264.970000 121.200000 L 267.280000 121.540000 L 268.350000 114.990000 Z M 274.060000 115.830000 L 271.760000 115.490000 L 270.690000 122.040000 L 272.990000 122.380000 L 274.060000 115.830000 Z M 279.780000 116.670000 L 277.470000 116.330000 L 276.400000 122.880000 L 278.710000 123.220000 L 279.780000 116.670000 Z M 262.630000 114.150000 L 260.330000 113.810000 L 259.250000 120.360000 L 261.560000 120.700000 L 262.630000 114.150000 Z M 285.490000 117.510000 L 283.190000 117.170000 L 282.120000 123.720000 L 284.420000 124.060000 L 285.490000 117.510000 Z"/><path fill="rgb(20, 21, 24)" d=" M 177.790000 127.270000 L 182.610000 118.450000 C 183.310000 117.180000 182.800000 115.620000 181.480000 114.950000 C 180.160000 114.290000 178.530000 114.780000 177.830000 116.040000 L 165.620000 138.350000 C 164.920000 139.620000 165.430000 141.190000 166.750000 141.850000 C 168.070000 142.510000 169.700000 142.030000 170.400000 140.760000 L 175.650000 131.170000 L 186.090000 137.910000 C 186.970000 136.640000 187.860000 135.450000 188.750000 134.340000 L 177.790000 127.270000 Z"/><path fill="rgb(200, 72, 7)" d=" M 127.090000 114.200000 L 131.440000 156.010000 L 146.700000 156.010000 C 144.660000 138.810000 139.620000 132.310000 134.260000 114.200000 L 127.090000 114.200000 Z"/><path fill="rgb(94, 88, 61)" d=" M 203.180000 124.270000 L 213.820000 125.710000 L 191.510000 78.490000 L 186.470000 78.490000 L 203.180000 124.270000 Z"/><path fill="rgb(200, 72, 7)" d=" M 75.410000 80.810000 L 68.630000 127.240000 C 70.850000 127.190000 73.090000 127.170000 75.320000 127.200000 L 82.090000 80.810000 L 75.410000 80.810000 L 75.410000 80.810000 Z"/><path fill="rgb(200, 72, 7)" d=" M 48.030000 90.760000 C 49.850000 84.110000 57.450000 78.490000 64.620000 78.490000 L 69.190000 78.490000 L 69.190000 73.520000 L 64.620000 73.520000 C 55.120000 73.520000 45.430000 80.680000 43.010000 89.490000 L 31.500000 131.460000 C 33.250000 131.130000 35.130000 130.790000 37.140000 130.450000 L 48.030000 90.760000 Z"/><path fill="rgb(200, 72, 7)" d=" M 186.470000 78.490000 L 191.510000 78.490000 L 198.330000 78.490000 C 199.760000 78.490000 200.930000 77.380000 200.930000 76.000000 C 200.930000 74.630000 199.760000 73.520000 198.330000 73.520000 L 89.230000 73.520000 L 89.230000 78.490000 L 186.470000 78.490000 Z"/><path fill="rgb(178, 52, 6)" d=" M 69.190000 80.810000 L 75.410000 80.810000 L 82.090000 80.810000 L 89.230000 80.810000 L 89.230000 78.490000 L 89.230000 73.520000 L 89.230000 71.200000 L 69.190000 71.200000 L 69.190000 73.520000 L 69.190000 78.490000 L 69.190000 80.810000 Z"/><path fill="rgb(200, 72, 7)" d=" M 92.600000 142.880000 L 92.600000 154.120000 L 111.930000 154.120000 L 111.930000 156.010000 L 122.250000 156.010000 C 115.450000 145.710000 101.870000 143.260000 92.600000 142.880000 Z"/><path fill="rgb(224, 58, 15)" d=" M 293.770000 168.800000 C 293.770000 168.830000 293.760000 168.860000 293.760000 168.890000 C 293.620000 169.580000 293.490000 170.260000 293.360000 170.920000 C 293.350000 170.970000 293.350000 171.010000 293.340000 171.050000 C 293.280000 171.340000 293.220000 171.630000 293.170000 171.920000 C 293.160000 171.960000 293.150000 172.000000 293.140000 172.040000 C 293.010000 172.670000 292.890000 173.300000 292.760000 173.900000 C 292.750000 173.970000 292.740000 174.030000 292.730000 174.100000 C 292.680000 174.330000 292.630000 174.570000 292.580000 174.800000 C 292.570000 174.870000 292.550000 174.940000 292.540000 175.010000 C 292.480000 175.290000 292.420000 175.570000 292.360000 175.840000 C 292.360000 175.880000 292.350000 175.920000 292.340000 175.960000 C 292.290000 176.180000 292.250000 176.400000 292.200000 176.610000 C 292.180000 176.720000 292.160000 176.820000 292.140000 176.930000 C 292.100000 177.090000 292.070000 177.260000 292.030000 177.420000 C 292.010000 177.520000 291.990000 177.610000 291.970000 177.700000 C 291.920000 177.930000 291.870000 178.160000 291.830000 178.380000 C 291.810000 178.480000 291.790000 178.570000 291.770000 178.670000 C 291.730000 178.810000 291.700000 178.950000 291.670000 179.090000 C 291.650000 179.190000 291.630000 179.280000 291.610000 179.370000 C 291.580000 179.530000 291.550000 179.670000 291.510000 179.820000 C 291.500000 179.890000 291.480000 179.970000 291.470000 180.040000 C 291.420000 180.260000 291.370000 180.470000 291.330000 180.680000 C 291.320000 180.690000 291.320000 180.700000 291.320000 180.710000 C 291.220000 181.160000 291.120000 181.590000 291.040000 181.980000 L 296.900000 182.020000 L 298.870000 169.150000 L 293.970000 167.770000 C 293.970000 167.780000 293.970000 167.790000 293.960000 167.800000 C 293.900000 168.130000 293.840000 168.470000 293.770000 168.800000 Z"/><path fill="rgb(63, 62, 66)" d=" M 188.750000 134.340000 C 187.860000 135.450000 186.970000 136.640000 186.090000 137.910000 C 182.590000 142.950000 179.330000 149.150000 177.960000 156.010000 L 191.710000 156.010000 L 202.920000 156.010000 L 203.170000 125.150000 L 198.140000 124.560000 C 198.140000 124.560000 193.590000 128.250000 188.750000 134.340000 Z"/><path fill="rgb(145, 123, 50)" d=" M 110.250000 192.260000 C 109.180000 179.120000 110.000000 164.540000 110.840000 156.700000 L 86.700000 158.210000 L 86.040000 135.250000 C 86.040000 135.250000 62.080000 133.180000 21.960000 138.530000 L 22.050000 141.900000 L 34.040000 141.900000 L 34.040000 171.350000 L 22.980000 179.440000 L 22.920000 177.250000 L 31.760000 170.410000 L 31.760000 144.090000 L 22.100000 144.090000 L 22.090000 143.700000 L 23.240000 190.070000 L 26.900000 190.070000 L 26.900000 197.050000 L 26.940000 197.050000 C 28.590000 180.140000 43.430000 166.900000 61.500000 166.900000 C 79.560000 166.900000 94.400000 180.140000 96.050000 197.050000 L 138.140000 197.050000 L 135.370000 192.270000 L 110.250000 192.270000 L 110.250000 192.260000 Z"/><path fill="rgb(145, 123, 50)" d=" M 220.780000 133.740000 L 286.520000 142.240000 L 286.520000 135.560000 L 218.130000 126.300000 L 218.270000 126.320000 L 220.780000 133.740000 Z"/><path fill="rgb(145, 123, 50)" d=" M 295.320000 160.100000 C 295.310000 160.160000 295.300000 160.230000 295.290000 160.290000 C 295.300000 160.230000 295.310000 160.160000 295.320000 160.100000 Z"/><path fill="rgb(145, 123, 50)" d=" M 295.150000 161.130000 C 295.140000 161.220000 295.120000 161.310000 295.110000 161.400000 C 295.120000 161.310000 295.140000 161.220000 295.150000 161.130000 Z"/><path fill="rgb(145, 123, 50)" d=" M 295.520000 158.840000 C 295.510000 158.930000 295.500000 159.010000 295.480000 159.100000 C 295.500000 159.010000 295.510000 158.930000 295.520000 158.840000 Z"/><path fill="rgb(145, 123, 50)" d=" M 294.380000 165.560000 C 294.370000 165.600000 294.370000 165.630000 294.360000 165.670000 C 294.370000 165.630000 294.370000 165.600000 294.380000 165.560000 Z"/><path fill="rgb(145, 123, 50)" d=" M 294.970000 162.220000 C 294.960000 162.290000 294.940000 162.350000 294.930000 162.410000 C 294.940000 162.350000 294.960000 162.290000 294.970000 162.220000 Z"/><path fill="rgb(145, 123, 50)" d=" M 295.690000 157.750000 C 295.670000 157.870000 295.660000 157.980000 295.640000 158.100000 C 295.660000 157.980000 295.670000 157.870000 295.690000 157.750000 Z"/><path fill="rgb(145, 123, 50)" d=" M 294.570000 164.480000 C 294.560000 164.540000 294.550000 164.590000 294.540000 164.650000 C 294.550000 164.590000 294.560000 164.540000 294.570000 164.480000 Z"/><path fill="rgb(145, 123, 50)" d=" M 296.480000 152.070000 C 296.450000 152.310000 296.420000 152.560000 296.390000 152.810000 C 296.420000 152.560000 296.450000 152.310000 296.480000 152.070000 Z"/><path fill="rgb(145, 123, 50)" d=" M 296.600000 151.080000 C 296.580000 151.260000 296.560000 151.430000 296.540000 151.610000 C 296.560000 151.430000 296.580000 151.260000 296.600000 151.080000 Z"/><path fill="rgb(145, 123, 50)" d=" M 291.320000 180.710000 C 291.320000 180.700000 291.320000 180.690000 291.330000 180.680000 C 291.320000 180.690000 291.320000 180.700000 291.320000 180.710000 Z"/><path fill="rgb(145, 123, 50)" d=" M 296.700000 150.160000 C 296.690000 150.330000 296.660000 150.510000 296.640000 150.690000 C 296.660000 150.510000 296.690000 150.330000 296.700000 150.160000 Z"/><path fill="rgb(145, 123, 50)" d=" M 296.180000 154.370000 C 296.160000 154.530000 296.140000 154.680000 296.120000 154.830000 C 296.140000 154.680000 296.160000 154.530000 296.180000 154.370000 Z"/><path fill="rgb(145, 123, 50)" d=" M 295.850000 156.720000 C 295.830000 156.840000 295.810000 156.960000 295.790000 157.070000 C 295.810000 156.960000 295.830000 156.840000 295.850000 156.720000 Z"/><path fill="rgb(145, 123, 50)" d=" M 296.310000 153.400000 C 296.290000 153.550000 296.270000 153.700000 296.250000 153.850000 C 296.270000 153.700000 296.290000 153.550000 296.310000 153.400000 Z"/><path fill="rgb(145, 123, 50)" d=" M 291.470000 180.040000 C 291.480000 179.970000 291.500000 179.890000 291.510000 179.820000 C 291.500000 179.890000 291.480000 179.970000 291.470000 180.040000 Z"/><path fill="rgb(145, 123, 50)" d=" M 293.340000 171.050000 C 293.350000 171.010000 293.350000 170.960000 293.360000 170.920000 C 293.350000 170.960000 293.350000 171.010000 293.340000 171.050000 Z"/><path fill="rgb(145, 123, 50)" d=" M 293.760000 168.890000 C 293.760000 168.860000 293.770000 168.830000 293.770000 168.800000 C 293.770000 168.830000 293.760000 168.860000 293.760000 168.890000 Z"/><path fill="rgb(145, 123, 50)" d=" M 293.140000 172.040000 C 293.150000 172.000000 293.160000 171.960000 293.170000 171.920000 C 293.160000 171.960000 293.150000 172.000000 293.140000 172.040000 Z"/><path fill="rgb(145, 123, 50)" d=" M 293.970000 167.770000 C 293.970000 167.770000 293.970000 167.760000 293.970000 167.760000 C 293.970000 167.770000 293.970000 167.780000 293.960000 167.800000 C 293.970000 167.790000 293.970000 167.780000 293.970000 167.770000 Z"/><path fill="rgb(145, 123, 50)" d=" M 290.630000 183.780000 C 290.630000 183.780000 290.630000 183.770000 290.630000 183.770000 C 290.630000 183.770000 290.630000 183.780000 290.630000 183.780000 Z"/><path fill="rgb(145, 123, 50)" d=" M 292.720000 174.100000 C 292.740000 174.030000 292.750000 173.970000 292.760000 173.900000 C 292.750000 173.970000 292.740000 174.030000 292.720000 174.100000 Z"/><path fill="rgb(145, 123, 50)" d=" M 296.850000 148.760000 C 296.820000 149.100000 296.780000 149.450000 296.740000 149.800000 C 296.780000 149.450000 296.820000 149.100000 296.850000 148.760000 Z"/><path fill="rgb(145, 123, 50)" d=" M 288.860000 166.800000 L 292.140000 145.330000 L 297.160000 144.800000 C 297.330000 141.610000 297.280000 138.880000 296.880000 136.960000 L 288.040000 135.770000 L 288.800000 135.870000 L 288.800000 144.750000 L 219.050000 135.730000 L 215.750000 125.970000 L 213.820000 125.710000 L 203.180000 124.270000 L 203.170000 125.150000 L 202.920000 156.010000 L 191.710000 156.010000 C 188.060000 166.750000 187.310000 187.270000 187.160000 197.050000 L 195.160000 197.050000 C 196.820000 180.130000 211.650000 166.890000 229.720000 166.890000 C 247.780000 166.890000 262.620000 180.130000 264.270000 197.050000 L 267.050000 197.050000 L 267.050000 184.230000 L 278.920000 184.230000 C 279.640000 177.110000 280.520000 170.040000 281.390000 166.800000 L 288.860000 166.800000 Z"/><path fill="rgb(145, 123, 50)" d=" M 291.770000 178.660000 C 291.790000 178.570000 291.810000 178.480000 291.830000 178.380000 C 291.810000 178.480000 291.790000 178.570000 291.770000 178.660000 Z"/><path fill="rgb(145, 123, 50)" d=" M 291.970000 177.700000 C 291.990000 177.610000 292.010000 177.510000 292.030000 177.420000 C 292.010000 177.510000 291.990000 177.610000 291.970000 177.700000 Z"/><path fill="rgb(145, 123, 50)" d=" M 291.610000 179.370000 C 291.630000 179.280000 291.650000 179.190000 291.670000 179.090000 C 291.650000 179.190000 291.630000 179.280000 291.610000 179.370000 Z"/><path fill="rgb(145, 123, 50)" d=" M 292.140000 176.930000 C 292.160000 176.820000 292.180000 176.720000 292.200000 176.610000 C 292.180000 176.720000 292.160000 176.820000 292.140000 176.930000 Z"/><path fill="rgb(145, 123, 50)" d=" M 292.540000 175.000000 C 292.550000 174.940000 292.570000 174.870000 292.580000 174.800000 C 292.570000 174.870000 292.550000 174.940000 292.540000 175.000000 Z"/><path fill="rgb(145, 123, 50)" d=" M 292.340000 175.950000 C 292.350000 175.920000 292.360000 175.880000 292.360000 175.840000 C 292.360000 175.880000 292.350000 175.920000 292.340000 175.950000 Z"/><path fill="rgb(145, 123, 50)" d=" M 296.040000 155.420000 C 296.020000 155.550000 296.000000 155.670000 295.980000 155.800000 C 296.000000 155.670000 296.020000 155.550000 296.040000 155.420000 Z"/><path fill="rgb(145, 123, 50)" d=" M 297.150000 144.970000 C 297.110000 145.560000 297.070000 146.160000 297.020000 146.780000 C 297.070000 146.160000 297.110000 145.560000 297.150000 144.970000 Z"/><path fill="rgb(145, 123, 50)" d=" M 296.930000 147.940000 C 296.910000 148.120000 296.890000 148.300000 296.880000 148.480000 C 296.890000 148.300000 296.910000 148.120000 296.930000 147.940000 Z"/><path fill="rgb(145, 123, 50)" d=" M 297.000000 147.080000 C 296.990000 147.250000 296.970000 147.440000 296.950000 147.620000 C 296.970000 147.440000 296.990000 147.250000 297.000000 147.080000 Z"/><path fill="rgb(180, 157, 69)" d=" M 288.800000 144.750000 L 288.800000 135.870000 L 288.040000 135.770000 L 286.520000 135.560000 L 286.520000 135.560000 L 286.520000 142.240000 L 220.780000 133.740000 L 218.270000 126.320000 L 218.130000 126.300000 L 215.750000 125.970000 L 215.750000 125.970000 L 219.050000 135.730000 L 288.800000 144.750000 Z"/><path fill="rgb(180, 157, 69)" d=" M 177.960000 156.020000 L 146.700000 156.020000 L 131.440000 156.020000 L 122.250000 156.020000 L 111.930000 156.020000 L 111.930000 156.630000 L 110.840000 156.700000 C 110.000000 164.540000 109.180000 179.120000 110.250000 192.260000 L 135.370000 192.260000 L 138.140000 197.050000 L 187.160000 197.050000 C 187.310000 187.270000 188.060000 166.750000 191.710000 156.010000 L 177.960000 156.020000 Z M 130.040000 163.420000 L 115.200000 163.420000 L 115.200000 160.140000 L 130.040000 160.140000 L 130.040000 163.420000 Z"/><path fill="rgb(180, 157, 69)" d=" M 229.720000 166.890000 C 211.650000 166.890000 196.820000 180.130000 195.160000 197.050000 L 264.270000 197.050000 C 262.620000 180.130000 247.780000 166.890000 229.720000 166.890000 Z"/><path fill="rgb(180, 157, 69)" d=" M 61.500000 166.890000 C 43.430000 166.890000 28.590000 180.130000 26.940000 197.050000 L 96.050000 197.050000 C 94.400000 180.130000 79.560000 166.890000 61.500000 166.890000 Z"/><path fill="rgb(20, 21, 24)" d=" M 86.040000 135.250000 L 86.700000 158.210000 L 110.840000 156.700000 L 111.930000 156.630000 L 111.930000 156.020000 L 111.930000 154.120000 L 92.600000 154.120000 L 92.600000 142.880000 L 92.600000 128.650000 C 87.050000 127.730000 81.200000 127.290000 75.320000 127.200000 C 73.090000 127.170000 70.850000 127.190000 68.630000 127.240000 C 57.190000 127.550000 46.030000 128.970000 37.140000 130.450000 C 35.130000 130.790000 33.250000 131.130000 31.500000 131.460000 C 23.480000 132.970000 18.360000 134.310000 18.360000 134.310000 L 18.360000 139.020000 C 19.570000 138.850000 20.780000 138.690000 21.960000 138.530000 C 62.080000 133.180000 86.040000 135.250000 86.040000 135.250000 Z"/><path fill="rgb(180, 157, 69)" d=" M 31.760000 144.090000 L 31.760000 170.410000 L 22.920000 177.250000 L 22.980000 179.440000 L 34.040000 171.350000 L 34.040000 141.900000 L 22.050000 141.900000 L 22.050000 141.900000 L 22.090000 143.700000 L 22.100000 144.090000 L 31.760000 144.090000 Z"/><path fill="rgb(20, 21, 24)" d=" M 23.240000 190.070000 L 15.480000 190.070000 L 17.170000 199.930000 L 26.900000 199.930000 L 26.900000 197.050000 L 26.900000 190.070000 L 23.240000 190.070000 Z"/><path fill="rgb(26, 25, 22)" d=" M 115.200000 160.140000 L 130.040000 160.140000 L 130.040000 163.420000 L 115.200000 163.420000 L 115.200000 160.140000 Z"/><path fill="rgb(180, 157, 69)" d=" M 297.160000 144.800000 L 292.140000 145.330000 L 288.860000 166.800000 L 281.390000 166.800000 C 280.520000 170.040000 279.640000 177.110000 278.920000 184.230000 L 290.520000 184.230000 L 290.520000 184.230000 C 290.560000 184.090000 290.590000 183.950000 290.630000 183.780000 C 290.630000 183.780000 290.630000 183.770000 290.630000 183.770000 C 290.740000 183.270000 290.880000 182.670000 291.040000 181.980000 C 291.120000 181.590000 291.220000 181.160000 291.320000 180.710000 C 291.320000 180.700000 291.320000 180.690000 291.330000 180.680000 C 291.370000 180.470000 291.420000 180.260000 291.470000 180.040000 C 291.480000 179.970000 291.500000 179.890000 291.510000 179.820000 C 291.550000 179.670000 291.580000 179.520000 291.610000 179.370000 C 291.630000 179.280000 291.650000 179.190000 291.670000 179.090000 C 291.700000 178.950000 291.730000 178.810000 291.770000 178.660000 C 291.790000 178.570000 291.810000 178.470000 291.830000 178.380000 C 291.870000 178.150000 291.920000 177.930000 291.970000 177.700000 C 291.990000 177.610000 292.010000 177.510000 292.030000 177.420000 C 292.070000 177.260000 292.100000 177.090000 292.140000 176.930000 C 292.160000 176.820000 292.180000 176.720000 292.200000 176.610000 C 292.250000 176.390000 292.290000 176.170000 292.340000 175.950000 C 292.350000 175.910000 292.360000 175.880000 292.360000 175.840000 C 292.420000 175.560000 292.480000 175.290000 292.540000 175.000000 C 292.550000 174.940000 292.570000 174.870000 292.580000 174.800000 C 292.630000 174.570000 292.680000 174.330000 292.730000 174.090000 C 292.740000 174.030000 292.750000 173.970000 292.760000 173.900000 C 292.890000 173.290000 293.010000 172.670000 293.140000 172.040000 C 293.150000 172.000000 293.160000 171.960000 293.170000 171.920000 C 293.220000 171.630000 293.280000 171.340000 293.340000 171.050000 C 293.350000 171.000000 293.350000 170.960000 293.360000 170.920000 C 293.490000 170.260000 293.620000 169.580000 293.760000 168.890000 C 293.760000 168.860000 293.770000 168.830000 293.770000 168.790000 C 293.840000 168.460000 293.900000 168.130000 293.960000 167.800000 C 293.970000 167.780000 293.970000 167.770000 293.970000 167.750000 C 294.100000 167.070000 294.230000 166.370000 294.360000 165.670000 C 294.370000 165.630000 294.370000 165.590000 294.380000 165.560000 C 294.430000 165.250000 294.490000 164.950000 294.540000 164.650000 C 294.550000 164.590000 294.560000 164.540000 294.570000 164.480000 C 294.700000 163.790000 294.820000 163.100000 294.940000 162.410000 C 294.950000 162.350000 294.960000 162.280000 294.970000 162.220000 C 295.010000 161.950000 295.060000 161.670000 295.110000 161.390000 C 295.120000 161.300000 295.140000 161.220000 295.150000 161.130000 C 295.200000 160.850000 295.240000 160.570000 295.290000 160.290000 C 295.300000 160.220000 295.310000 160.160000 295.320000 160.100000 C 295.380000 159.760000 295.430000 159.430000 295.480000 159.090000 C 295.500000 159.010000 295.510000 158.930000 295.520000 158.840000 C 295.560000 158.590000 295.600000 158.340000 295.640000 158.100000 C 295.660000 157.980000 295.680000 157.860000 295.690000 157.750000 C 295.730000 157.520000 295.760000 157.300000 295.790000 157.070000 C 295.810000 156.950000 295.830000 156.840000 295.850000 156.720000 C 295.890000 156.410000 295.940000 156.100000 295.980000 155.790000 C 296.000000 155.670000 296.020000 155.540000 296.040000 155.420000 C 296.060000 155.220000 296.090000 155.020000 296.120000 154.820000 C 296.140000 154.670000 296.160000 154.520000 296.180000 154.370000 C 296.210000 154.200000 296.230000 154.020000 296.250000 153.850000 C 296.270000 153.690000 296.290000 153.540000 296.310000 153.390000 C 296.340000 153.200000 296.360000 153.000000 296.390000 152.810000 C 296.420000 152.560000 296.450000 152.310000 296.480000 152.060000 C 296.500000 151.910000 296.520000 151.760000 296.540000 151.600000 C 296.560000 151.430000 296.580000 151.250000 296.600000 151.080000 C 296.620000 150.940000 296.630000 150.810000 296.650000 150.680000 C 296.670000 150.510000 296.690000 150.330000 296.700000 150.150000 C 296.720000 150.030000 296.730000 149.910000 296.740000 149.790000 C 296.780000 149.440000 296.820000 149.100000 296.850000 148.750000 C 296.860000 148.660000 296.870000 148.570000 296.880000 148.480000 C 296.890000 148.300000 296.910000 148.120000 296.930000 147.940000 C 296.940000 147.830000 296.950000 147.720000 296.960000 147.610000 C 296.970000 147.430000 296.990000 147.250000 297.000000 147.070000 C 297.010000 146.970000 297.020000 146.880000 297.020000 146.780000 C 297.070000 146.160000 297.120000 145.560000 297.150000 144.970000 C 297.150000 144.910000 297.160000 144.860000 297.160000 144.800000 L 297.160000 144.800000 L 297.160000 144.800000 Z"/><path fill="rgb(20, 21, 24)" d=" M 278.920000 184.230000 L 267.050000 184.230000 L 267.050000 197.050000 L 267.050000 200.660000 L 291.410000 200.660000 L 294.460000 184.230000 L 290.520000 184.230000 L 290.520000 184.230000 L 278.920000 184.230000 Z"/><path fill="rgb(20, 21, 24)" d=" M 83.460000 179.500000 C 95.790000 191.450000 95.790000 210.810000 83.460000 222.760000 C 71.130000 234.700000 51.140000 234.700000 38.810000 222.760000 C 26.480000 210.810000 26.480000 191.450000 38.810000 179.500000 C 51.140000 167.550000 71.130000 167.550000 83.460000 179.500000 Z"/><path fill="rgb(94, 88, 61)" d=" M 74.680000 188.010000 C 82.170000 195.250000 82.170000 207.010000 74.680000 214.250000 C 67.200000 221.500000 55.070000 221.500000 47.590000 214.250000 C 40.110000 207.010000 40.110000 195.250000 47.590000 188.010000 C 55.070000 180.760000 67.200000 180.760000 74.680000 188.010000 Z"/><path fill="rgb(248, 237, 199)" d=" M 61.140000 215.500000 C 52.950000 215.500000 46.300000 209.060000 46.300000 201.130000 C 46.300000 193.200000 52.950000 186.760000 61.140000 186.760000 C 69.320000 186.760000 75.970000 193.200000 75.970000 201.130000 C 75.970000 209.060000 69.320000 215.500000 61.140000 215.500000 Z M 61.140000 188.010000 C 53.670000 188.010000 47.590000 193.890000 47.590000 201.130000 C 47.590000 208.370000 53.670000 214.250000 61.140000 214.250000 C 68.600000 214.250000 74.680000 208.370000 74.680000 201.130000 C 74.680000 193.890000 68.600000 188.010000 61.140000 188.010000 Z"/><path fill="rgb(20, 21, 24)" d=" M 251.800000 179.500000 C 264.060000 191.450000 264.060000 210.810000 251.800000 222.760000 C 239.540000 234.700000 219.660000 234.700000 207.390000 222.760000 C 195.130000 210.810000 195.130000 191.450000 207.390000 179.500000 C 219.660000 167.550000 239.540000 167.550000 251.800000 179.500000 Z"/><path fill="rgb(94, 88, 61)" d=" M 243.070000 188.010000 C 250.510000 195.250000 250.510000 207.010000 243.070000 214.250000 C 235.630000 221.500000 223.560000 221.500000 216.120000 214.250000 C 208.680000 207.010000 208.680000 195.250000 216.120000 188.010000 C 223.560000 180.760000 235.630000 180.760000 243.070000 188.010000 Z"/><path fill="rgb(248, 237, 199)" d=" M 229.600000 215.500000 C 221.460000 215.500000 214.840000 209.060000 214.840000 201.130000 C 214.840000 193.200000 221.460000 186.760000 229.600000 186.760000 C 237.730000 186.760000 244.350000 193.200000 244.350000 201.130000 C 244.350000 209.060000 237.730000 215.500000 229.600000 215.500000 Z M 229.600000 188.010000 C 222.170000 188.010000 216.130000 193.890000 216.130000 201.130000 C 216.130000 208.370000 222.170000 214.250000 229.600000 214.250000 C 237.020000 214.250000 243.060000 208.370000 243.060000 201.130000 C 243.060000 193.890000 237.020000 188.010000 229.600000 188.010000 Z"/></svg>