<?xml version="1.0" standalone="no"?><!DOCTYPE svg PUBLIC "-//W3C//DTD SVG 1.1//EN" "http://www.w3.org/Graphics/SVG/1.1/DTD/svg11.dtd"><svg id="JodyWitch0.svg" width="150" height="150" version="1.1" viewBox="0 0 300 300" xmlns="http://www.w3.org/2000/svg" xmlns:xlink="http://www.w3.org/1999/xlink"><defs xmlns="http://www.w3.org/1999/xhtml"><style type="text/css"><![CDATA[
* { border: 0px; margin: 0px; padding: 0px; }
html { background-color: rgb(255, 255, 255); font-family: Verdana, Arial; }
.webgl-content * { position: absolute; width: 100%; height: 100%; user-select: none; }
.webgl-content .logo, .progress { position: absolute; left: 50%; top: 50%; transform: translate(-50%, -50%); }
.webgl-content .logo { background: url("progressLogo.Light.png") center center / contain no-repeat; width: 154px; height: 130px; }
.webgl-content .progress { height: 18px; width: 141px; margin-top: 90px; }
.webgl-content .progress .empty { background: url("progressEmpty.Light.png") right center / cover no-repeat; float: right; width: 100%; height: 100%; display: inline-block; }
.webgl-content .progress .full { background: url("progressFull.Light.png") left center / cover no-repeat; float: left; width: 0%; height: 100%; display: inline-block; }
.webgl-content .logo.Dark { background-image: url("progressLogo.Dark.png"); }
.webgl-content .progress.Dark .empty { background-image: url("progressEmpty.Dark.png"); }
.webgl-content .progress.Dark .full { background-image: url("progressFull.Dark.png"); }
#loading-content { z-index: 10000; position: fixed; width: 100%; height: 100%; left: 0px; top: 0px; overflow: hidden; background: url("background.png"); }
.hud-intro .hud-intro-social .btn-discord, .hud-respawn .hud-respawn-social .btn-discord { background-image: url("//lordz.io/images/discord-icon.png"); }
.hud-intro .hud-intro-social .btn-twitter, .hud-respawn .hud-respawn-social .btn-twitter { background-image: url("//lordz.io/images/twitter-icon.png"); }
.hud-intro .hud-intro-social .btn-facebook, .hud-respawn .hud-respawn-social .btn-facebook { background-image: url("//lordz.io/images/facebook-icon.png"); }
.hud-intro .hud-intro-social .btn-youtube, .hud-respawn .hud-respawn-social .btn-youtube { background-image: url("//lordz.io/images/youtube-icon.png"); }
* { box-sizing: border-box; user-select: none; }
.btn { position: relative; display: inline-block; top: 0px; height: 36px; line-height: 36px; padding: 0px 20px; background: rgb(68, 68, 68); color: rgb(238, 238, 238); border: 0px; font-size: 14px; vertical-align: top; text-align: center; text-decoration: none; text-shadow: rgba(0, 0, 0, 0.4) 0px 1px 0px; box-shadow: rgba(0, 0, 0, 0.2) 0px 2px 10px, rgb(51, 51, 51) 0px 4px 0px; border-radius: 4px; transition: all 0.15s ease-in-out 0s; }
.btn:hover, .btn:active { background-color: rgb(85, 85, 85); color: rgb(255, 255, 255); }
.btn:active { top: 4px; box-shadow: rgba(0, 0, 0, 0.2) 0px 2px 10px !important; }
.btn-green { background-color: rgb(71, 149, 13); box-shadow: rgba(0, 0, 0, 0.2) 0px 2px 10px, rgb(53, 131, 0) 0px 4px 0px; }
.btn-green:hover, .btn-green:active { background-color: rgb(100, 184, 32); }
.btn-red { background-color: rgb(179, 53, 60); box-shadow: rgba(0, 0, 0, 0.2) 0px 2px 10px, rgb(161, 35, 42) 0px 4px 0px; }
.btn-red:hover, .btn-red:active { background-color: rgb(203, 87, 91); }
.btn-blue { background-color: rgb(29, 141, 238); box-shadow: rgba(0, 0, 0, 0.2) 0px 2px 10px, rgb(11, 123, 220) 0px 4px 0px; }
.btn-blue:hover, .btn-blue:active { background-color: rgb(79, 167, 238); }
.btn-purple { background-color: rgb(114, 55, 228); box-shadow: rgba(0, 0, 0, 0.2) 0px 2px 10px, rgb(96, 37, 210) 0px 4px 0px; }
.btn-purple:hover, .btn-purple:active { background-color: rgb(130, 89, 228); }
.btn-twitter { background-color: rgb(27, 149, 224); box-shadow: rgba(0, 0, 0, 0.2) 0px 2px 10px, rgb(9, 131, 206) 0px 4px 0px; }
.btn-twitter:hover, .btn-twitter:active { background-color: rgb(12, 122, 191); }
.btn-facebook { background-color: rgb(66, 103, 178); box-shadow: rgba(0, 0, 0, 0.2) 0px 2px 10px, rgb(48, 85, 160) 0px 4px 0px; }
.btn-facebook:hover, .btn-facebook:active { background-color: rgb(54, 88, 153); }
.btn-google { background-color: rgb(221, 75, 57); box-shadow: rgba(0, 0, 0, 0.2) 0px 2px 10px, rgb(203, 57, 39) 0px 4px 0px; }
.btn-google:hover, .btn-google:active { background-color: rgb(186, 63, 49); }
.btn-discord { background-color: rgb(114, 137, 218); box-shadow: rgba(0, 0, 0, 0.2) 0px 2px 10px, rgb(96, 119, 200) 0px 4px 0px; }
.btn-discord:hover, .btn-discord:active { background-color: rgb(90, 109, 176); }
.btn-youtube { background-color: rgb(229, 45, 39); box-shadow: rgba(0, 0, 0, 0.2) 0px 2px 10px, rgb(211, 27, 21) 0px 4px 0px; }
.btn-youtube:hover, .btn-youtube:active { background-color: rgb(186, 37, 33); }
.hud { position: fixed; top: 0px; left: 0px; bottom: 0px; right: 0px; }
.hud .hud-bottom-left { display: flex; position: absolute; bottom: 20px; left: 20px; flex-direction: column-reverse; }
.hud-intro .hud-intro-corner-bottom-left, .hud-respawn .hud-respawn-corner-bottom-left { position: fixed; bottom: 20px; left: 20px; text-align: left; }
.hud-intro .hud-intro-social, .hud-respawn .hud-respawn-social { width: 240px; line-height: 24px; font-size: 14px; color: rgb(119, 119, 119); }
.hud-intro .hud-intro-social .btn, .hud-respawn .hud-respawn-social .btn { display: block; float: left; margin: 0px 10px 0px 0px; width: 40px; height: 40px; line-height: 40px; background-size: 24px; background-position: center center; background-repeat: no-repeat; }
.hud-intro .hud-intro-more-games { position: relative; bottom: 5px; line-height: 20px; font-size: 14px; color: rgba(255, 255, 255, 0.4); text-shadow: rgba(0, 0, 0, 0.2) 0px 1px 3px; }
.hud-intro .hud-intro-more-games a { display: inline-block; padding: 0px 20px; line-height: 40px; background: rgb(132, 115, 212); color: rgb(238, 238, 238); text-decoration: none; border-radius: 4px; transition: all 0.15s ease-in-out 0s; }
.hud-intro .hud-intro-more-games a:hover, .hud-intro .hud-intro-more-games a:active { background: rgb(103, 90, 166); }
#preroll video { left: 0px; top: 0px; }
.fb_hidden { position: absolute; top: -10000px; z-index: 10001; }
.fb_reposition { overflow: hidden; position: relative; }
.fb_invisible { display: none; }
.fb_reset { background: none; border: 0px; border-spacing: 0px; color: rgb(0, 0, 0); cursor: auto; direction: ltr; font-family: "lucida grande", tahoma, verdana, arial, sans-serif; font-size: 11px; font-style: normal; font-variant: normal; font-weight: normal; letter-spacing: normal; line-height: 1; margin: 0px; overflow: visible; padding: 0px; text-align: left; text-decoration: none; text-indent: 0px; text-shadow: none; text-transform: none; visibility: visible; white-space: normal; word-spacing: normal; }
.fb_animate { animation: 0.3s ease 0s 1 normal forwards running fb_transform; }
.fb_dialog { background: rgba(82, 82, 82, 0.7); position: absolute; top: -10000px; z-index: 10001; }
.fb_dialog_advanced { border-radius: 8px; padding: 10px; }
.fb_dialog_content { background: rgb(255, 255, 255); color: rgb(55, 55, 55); }
.fb_dialog_close_icon { background: url("https://static.xx.fbcdn.net/rsrc.php/v3/yq/r/IE9JII6Z1Ys.png") 0px 0px no-repeat scroll transparent; cursor: pointer; display: block; height: 15px; position: absolute; right: 18px; top: 17px; width: 15px; }
.fb_dialog_mobile .fb_dialog_close_icon { left: 5px; right: auto; top: 5px; }
.fb_dialog_padding { background-color: transparent; position: absolute; width: 1px; z-index: -1; }
.fb_dialog_close_icon:hover { background: url("https://static.xx.fbcdn.net/rsrc.php/v3/yq/r/IE9JII6Z1Ys.png") 0px -15px no-repeat scroll transparent; }
.fb_dialog_close_icon:active { background: url("https://static.xx.fbcdn.net/rsrc.php/v3/yq/r/IE9JII6Z1Ys.png") 0px -30px no-repeat scroll transparent; }
.fb_dialog_iframe { line-height: 0; }
.fb_dialog_content .dialog_title { background: rgb(109, 132, 180); border: 1px solid rgb(54, 88, 153); color: rgb(255, 255, 255); font-size: 14px; font-weight: bold; margin: 0px; }
body.fb_hidden { height: 100%; left: 0px; margin: 0px; overflow: visible; position: absolute; top: -10000px; transform: none; width: 100%; }
.fb_dialog.fb_dialog_mobile.loading { background: url("https://static.xx.fbcdn.net/rsrc.php/v3/ya/r/3rhSv5V8j3o.gif") 50% 50% no-repeat white; min-height: 100%; min-width: 100%; overflow: hidden; position: absolute; top: 0px; z-index: 10001; }
.fb_dialog.fb_dialog_mobile.loading.centered { background: none; height: auto; min-height: initial; min-width: initial; width: auto; }
.fb_dialog.fb_dialog_mobile.loading.centered #fb_dialog_loader_spinner { width: 100%; }
.fb_dialog.fb_dialog_mobile.loading.centered .fb_dialog_content { background: none; }
.loading.centered #fb_dialog_loader_close { clear: both; color: rgb(255, 255, 255); display: block; font-size: 18px; padding-top: 20px; }
#fb-root #fb_dialog_ipad_overlay { background: rgba(0, 0, 0, 0.4); bottom: 0px; left: 0px; min-height: 100%; position: absolute; right: 0px; top: 0px; width: 100%; z-index: 10000; }
#fb-root #fb_dialog_ipad_overlay.hidden { display: none; }
.fb_dialog.fb_dialog_mobile.loading iframe { visibility: hidden; }
.fb_dialog_mobile .fb_dialog_iframe { position: sticky; top: 0px; }
.fb_dialog_content .dialog_header { border-bottom: 1px solid rgb(4, 59, 135); border-top-color: rgb(4, 59, 135); border-right-color: rgb(4, 59, 135); border-left-color: rgb(4, 59, 135); box-shadow: white 0px 1px 1px -1px inset; color: rgb(255, 255, 255); font: bold 14px Helvetica, sans-serif; text-overflow: ellipsis; text-shadow: rgba(0, 30, 84, 0.298) 0px -1px 0px; vertical-align: middle; white-space: nowrap; }
.fb_dialog_content .dialog_header table { height: 43px; width: 100%; }
.fb_dialog_content .dialog_header td.header_left { font-size: 12px; padding-left: 5px; vertical-align: middle; width: 60px; }
.fb_dialog_content .dialog_header td.header_right { font-size: 12px; padding-right: 5px; vertical-align: middle; width: 60px; }
.fb_dialog_content .touchable_button { background-clip: padding-box; border: 1px solid rgb(41, 72, 125); border-radius: 3px; display: inline-block; line-height: 18px; margin-top: 3px; max-width: 85px; padding: 4px 12px; position: relative; }
.fb_dialog_content .dialog_header .touchable_button input { background: none; border: none; color: rgb(255, 255, 255); font: bold 12px Helvetica, sans-serif; margin: 2px -12px; padding: 2px 6px 3px; text-shadow: rgba(0, 30, 84, 0.298) 0px -1px 0px; }
.fb_dialog_content .dialog_header .header_center { color: rgb(255, 255, 255); font-size: 16px; font-weight: bold; line-height: 18px; text-align: center; vertical-align: middle; }
.fb_dialog_content .dialog_content { background: url("https://static.xx.fbcdn.net/rsrc.php/v3/y9/r/jKEcVPZFk-2.gif") 50% 50% no-repeat; border-width: 0px 1px; border-right-style: solid; border-left-style: solid; border-right-color: rgb(74, 74, 74); border-left-color: rgb(74, 74, 74); border-image: initial; border-bottom-style: initial; border-bottom-color: initial; border-top-style: initial; border-top-color: initial; height: 150px; }
.fb_dialog_content .dialog_footer { background: rgb(245, 246, 247); border-width: 1px; border-style: solid; border-color: rgb(204, 204, 204) rgb(74, 74, 74) rgb(74, 74, 74); border-image: initial; height: 40px; }
#fb_dialog_loader_close { float: left; }
.fb_dialog.fb_dialog_mobile .fb_dialog_close_button { text-shadow: rgba(0, 30, 84, 0.298) 0px -1px 0px; }
.fb_dialog.fb_dialog_mobile .fb_dialog_close_icon { visibility: hidden; }
#fb_dialog_loader_spinner { animation: 1.2s linear 0s infinite normal none running rotateSpinner; background-color: transparent; background-image: url("https://static.xx.fbcdn.net/rsrc.php/v3/yD/r/t-wz8gw1xG1.png"); background-position: 50% 50%; background-repeat: no-repeat; height: 24px; width: 24px; }
.fb_iframe_widget { display: inline-block; position: relative; }
.fb_iframe_widget span { display: inline-block; position: relative; text-align: justify; }
.fb_iframe_widget iframe { position: absolute; }
.fb_iframe_widget_fluid_desktop, .fb_iframe_widget_fluid_desktop span, .fb_iframe_widget_fluid_desktop iframe { max-width: 100%; }
.fb_iframe_widget_fluid_desktop iframe { min-width: 220px; position: relative; }
.fb_iframe_widget_lift { z-index: 1; }
.fb_iframe_widget_fluid { display: inline; }
.fb_iframe_widget_fluid span { width: 100%; }
.st0 { fill: rgb(119, 183, 73); }
.st1 { fill: rgb(247, 175, 47); }
.st2 { fill: rgb(233, 81, 15); }
.st3 { fill: url("#SVGID_1_"); }
.st4 { fill: url("#SVGID_2_"); }
.st5 { fill: rgb(252, 242, 119); }
.st6 { fill: url("#SVGID_3_"); }
.st7 { fill: url("#SVGID_4_"); }
.st8 { fill: url("#SVGID_5_"); }
.st9 { fill: url("#SVGID_6_"); }
.st10 { fill: url("#SVGID_7_"); }
.st11 { fill: url("#SVGID_8_"); }
.st12 { fill: url("#SVGID_9_"); }
.st13 { fill: url("#SVGID_10_"); }
.st14 { fill: url("#SVGID_11_"); }
.st15 { fill: url("#SVGID_12_"); }
.st16 { fill: url("#SVGID_13_"); }
.st17 { fill: url("#SVGID_14_"); }
.st18 { fill: url("#SVGID_15_"); }
.st19 { fill: url("#SVGID_16_"); }
.st0 { fill: rgb(119, 183, 73); }
.st1 { fill: rgb(247, 175, 47); }
.st2 { fill: rgb(233, 81, 15); }
.st3 { fill: url("#SVGID_1_"); }
.st4 { fill: url("#SVGID_2_"); }
.st5 { fill: rgb(252, 242, 119); }
.st6 { fill: url("#SVGID_3_"); }
.st7 { fill: url("#SVGID_4_"); }
.st8 { fill: url("#SVGID_5_"); }
.st9 { fill: url("#SVGID_6_"); }
.st10 { fill: url("#SVGID_7_"); }
.st11 { fill: url("#SVGID_8_"); }
.st12 { fill: url("#SVGID_9_"); }
.st13 { fill: url("#SVGID_10_"); }
.st14 { fill: url("#SVGID_11_"); }
.st15 { fill: url("#SVGID_12_"); }
.st16 { fill: url("#SVGID_13_"); }
.st17 { fill: url("#SVGID_14_"); }
.st18 { fill: url("#SVGID_15_"); }
.st19 { fill: url("#SVGID_16_"); }
.st0 { fill: rgb(119, 183, 73); }
.st1 { fill: rgb(247, 175, 47); }
.st2 { fill: rgb(233, 81, 15); }
.st3 { fill: url("#SVGID_1_"); }
.st4 { fill: url("#SVGID_2_"); }
.st5 { fill: rgb(252, 242, 119); }
.st6 { fill: url("#SVGID_3_"); }
.st7 { fill: url("#SVGID_4_"); }
.st8 { fill: url("#SVGID_5_"); }
.st9 { fill: url("#SVGID_6_"); }
.st10 { fill: url("#SVGID_7_"); }
.st11 { fill: url("#SVGID_8_"); }
.st12 { fill: url("#SVGID_9_"); }
.st13 { fill: url("#SVGID_10_"); }
.st14 { fill: url("#SVGID_11_"); }
.st15 { fill: url("#SVGID_12_"); }
.st16 { fill: url("#SVGID_13_"); }
.st17 { fill: url("#SVGID_14_"); }
.st18 { fill: url("#SVGID_15_"); }
.st19 { fill: url("#SVGID_16_"); }
.st0 { fill: rgb(119, 183, 73); }
.st1 { fill: rgb(247, 175, 47); }
.st2 { fill: rgb(233, 81, 15); }
.st3 { fill: url("#SVGID_1_"); }
.st4 { fill: url("#SVGID_2_"); }
.st5 { fill: rgb(252, 242, 119); }
.st6 { fill: url("#SVGID_3_"); }
.st7 { fill: url("#SVGID_4_"); }
.st8 { fill: url("#SVGID_5_"); }
.st9 { fill: url("#SVGID_6_"); }
.st10 { fill: url("#SVGID_7_"); }
.st11 { fill: url("#SVGID_8_"); }
.st12 { fill: url("#SVGID_9_"); }
.st13 { fill: url("#SVGID_10_"); }
.st14 { fill: url("#SVGID_11_"); }
.st15 { fill: url("#SVGID_12_"); }
.st16 { fill: url("#SVGID_13_"); }
.st17 { fill: url("#SVGID_14_"); }
.st18 { fill: url("#SVGID_15_"); }
.st19 { fill: url("#SVGID_16_"); }]]></style></defs><path fill="rgb(47, 49, 57)" d=" M 69.790000 128.660000 L 65.490000 112.630000 L 171.810000 112.630000 L 167.120000 126.710000 L 69.790000 128.660000 Z"/><path fill="rgb(47, 49, 57)" d=" M 71.750000 146.640000 L 61.190000 230.400000 L 121.000000 218.950000 L 173.760000 230.400000 L 162.430000 137.650000 L 71.750000 146.640000 Z"/><path fill="rgb(179, 26, 22)" d=" M 149.360000 179.470000 C 148.910000 176.060000 148.400000 172.670000 147.790000 169.340000 L 135.970000 169.340000 C 135.970000 169.340000 136.290000 172.860000 136.750000 178.740000 C 141.000000 178.520000 145.280000 178.570000 149.360000 179.470000 Z"/><path fill="rgb(251, 50, 43)" d=" M 149.360000 179.470000 C 145.280000 178.570000 141.000000 178.520000 136.750000 178.740000 C 138.770000 204.090000 143.560000 273.430000 137.600000 294.950000 L 151.470000 295.760000 L 145.350000 290.870000 C 145.350000 290.870000 156.120000 231.600000 149.360000 179.470000 Z"/><path fill="rgb(251, 50, 43)" d=" M 85.350000 294.950000 L 99.220000 295.760000 L 93.100000 290.870000 C 93.100000 290.870000 103.570000 233.270000 97.380000 181.700000 C 93.190000 182.240000 89.020000 183.190000 84.960000 184.600000 C 87.130000 213.450000 90.900000 274.920000 85.350000 294.950000 Z"/><path fill="rgb(179, 26, 22)" d=" M 83.720000 169.340000 C 83.720000 169.340000 84.250000 175.270000 84.960000 184.600000 C 89.020000 183.190000 93.190000 182.240000 97.390000 181.700000 C 96.890000 177.530000 96.280000 173.400000 95.550000 169.340000 L 83.720000 169.340000 Z"/><path fill="rgb(119, 37, 15)" d=" M 102.850000 282.120000 L 104.410000 287.100000 L 105.340000 284.920000 L 110.000000 284.610000 L 107.670000 294.090000 C 107.670000 294.090000 98.270000 291.030000 95.510000 290.340000 C 97.000000 287.150000 98.910000 268.340000 98.910000 268.340000 L 86.680000 266.850000 C 87.120000 274.750000 84.130000 295.290000 84.130000 295.290000 L 109.090000 296.620000 L 109.690000 296.420000 L 113.270000 281.970000 L 102.850000 282.120000 Z"/><path fill="rgb(119, 37, 15)" d=" M 155.240000 282.900000 L 156.790000 287.880000 L 157.730000 285.700000 L 162.390000 285.390000 L 160.060000 294.870000 C 160.060000 294.870000 150.650000 291.810000 147.890000 291.120000 C 149.380000 287.920000 151.290000 269.120000 151.290000 269.120000 L 139.060000 267.630000 C 139.510000 275.530000 136.510000 296.060000 136.510000 296.060000 L 161.480000 297.390000 L 162.080000 297.200000 L 165.650000 282.740000 L 155.240000 282.900000 Z"/><path fill="rgb(235, 123, 12)" d=" M 145.130000 278.550000 L 153.530000 278.390000 L 151.200000 287.880000 L 144.200000 288.030000 L 145.130000 278.550000 Z"/><path fill="rgb(235, 123, 12)" d=" M 91.970000 277.460000 L 91.190000 286.790000 L 98.030000 286.630000 L 99.900000 277.930000 L 91.970000 277.460000 Z"/><path fill="rgb(24, 152, 139)" d=" M 50.910000 259.120000 C 51.810000 259.740000 54.060000 261.530000 54.890000 264.270000 L 56.540000 263.070000 C 56.540000 263.070000 56.200000 257.640000 51.440000 253.160000 C 50.920000 255.140000 50.810000 257.130000 50.910000 259.120000 Z"/><path fill="rgb(235, 123, 12)" d=" M 39.410000 270.570000 L 37.630000 268.180000 C 34.340000 266.770000 30.540000 270.430000 24.850000 272.850000 C 14.070000 277.450000 0.710000 283.480000 0.710000 283.480000 C 1.210000 284.160000 1.930000 285.240000 2.710000 286.430000 C 4.580000 285.450000 7.920000 283.710000 7.260000 284.190000 C 6.810000 284.520000 5.110000 286.140000 3.510000 287.670000 C 4.130000 288.630000 4.740000 289.610000 5.280000 290.470000 L 9.710000 287.490000 L 5.910000 291.470000 C 6.180000 291.910000 6.420000 292.280000 6.600000 292.570000 L 6.550000 292.610000 C 6.550000 292.610000 6.640000 292.720000 6.790000 292.890000 C 6.920000 293.090000 6.990000 293.210000 6.990000 293.210000 L 7.040000 293.170000 C 7.270000 293.430000 7.560000 293.760000 7.900000 294.150000 L 12.810000 291.680000 L 8.680000 295.040000 C 9.340000 295.810000 10.100000 296.680000 10.840000 297.550000 C 12.760000 296.470000 14.810000 295.300000 15.260000 294.970000 C 15.910000 294.490000 13.280000 297.170000 11.790000 298.680000 C 12.710000 299.770000 13.520000 300.770000 14.030000 301.450000 C 14.030000 301.450000 23.170000 291.050000 30.690000 281.980000 C 34.560000 277.330000 39.790000 274.070000 39.410000 270.570000 Z"/><path fill="rgb(180, 0, 22)" d=" M 42.660000 269.330000 L 39.770000 265.430000 L 123.730000 204.270000 L 125.410000 206.550000 L 42.660000 269.330000 Z"/><path fill="rgb(251, 50, 43)" d=" M 39.770000 263.540000 L 44.430000 269.830000 L 39.930000 273.160000 L 35.270000 266.870000 L 39.770000 263.540000 Z"/><path fill="rgb(20, 21, 24)" d=" M 95.390000 78.080000 C 101.600000 49.750000 92.060000 25.480000 80.960000 1.620000 L 85.290000 0.180000 C 112.610000 22.970000 131.570000 48.770000 140.830000 78.080000 L 95.390000 78.080000 Z"/><path fill="rgb(251, 50, 43)" d=" M 140.830000 78.080000 C 138.530000 70.790000 135.620000 63.720000 132.140000 56.860000 C 120.840000 55.930000 107.610000 56.960000 97.320000 58.190000 C 97.460000 64.620000 96.890000 71.230000 95.390000 78.080000 L 140.830000 78.080000 Z"/><path fill="rgb(20, 21, 24)" d=" M 162.940000 69.230000 C 187.310000 75.010000 187.310000 84.370000 162.940000 90.140000 C 138.580000 95.920000 99.080000 95.920000 74.710000 90.140000 C 50.350000 84.370000 50.350000 75.010000 74.710000 69.230000 C 99.080000 63.460000 138.580000 63.460000 162.940000 69.230000 Z"/><path fill="rgb(24, 152, 139)" d=" M 187.810000 255.490000 L 193.260000 257.910000 C 199.280000 234.290000 200.310000 213.910000 198.470000 196.620000 C 193.740000 197.470000 189.110000 199.870000 185.580000 202.810000 C 190.100000 230.140000 187.810000 255.490000 187.810000 255.490000 Z"/><path fill="rgb(13, 71, 66)" d=" M 179.380000 178.180000 C 182.230000 186.140000 184.210000 194.570000 185.580000 202.810000 C 189.110000 199.870000 193.740000 197.470000 198.470000 196.620000 C 197.420000 186.790000 195.450000 177.950000 192.930000 170.080000 C 188.090000 172.120000 183.490000 174.940000 179.380000 178.180000 Z"/><path fill="rgb(24, 152, 139)" d=" M 161.050000 120.330000 C 155.490000 124.260000 152.870000 132.110000 148.460000 140.470000 C 163.920000 147.320000 173.490000 161.760000 179.380000 178.180000 C 183.490000 174.940000 188.090000 172.120000 192.930000 170.080000 C 182.050000 136.160000 161.050000 120.330000 161.050000 120.330000 Z"/><path fill="rgb(24, 152, 139)" d=" M 192.900000 256.910000 C 192.900000 256.910000 200.420000 261.720000 192.450000 272.690000 L 191.100000 272.390000 C 191.100000 272.390000 192.900000 269.530000 191.850000 265.930000 C 191.850000 265.930000 191.400000 270.140000 189.300000 272.240000 L 187.190000 271.340000 C 187.190000 271.340000 189.600000 268.630000 189.300000 264.880000 C 189.300000 264.880000 187.640000 268.780000 184.640000 270.740000 L 183.290000 269.530000 C 183.290000 269.530000 188.240000 262.020000 186.740000 258.860000 C 186.740000 258.860000 183.430000 260.820000 182.380000 264.270000 L 180.730000 263.070000 C 180.730000 263.070000 181.180000 256.010000 188.090000 251.350000 L 192.900000 256.910000 Z"/><path fill="rgb(24, 152, 139)" d=" M 167.400000 96.360000 C 167.220000 94.140000 165.050000 91.500000 162.690000 90.710000 C 162.510000 86.050000 162.120000 81.940000 161.460000 78.720000 C 161.460000 78.720000 92.450000 67.820000 72.470000 82.950000 C 72.470000 82.950000 72.260000 87.130000 72.120000 93.800000 C 69.660000 94.530000 66.640000 97.840000 65.890000 99.900000 C 67.260000 100.160000 68.470000 99.520000 69.450000 98.530000 C 68.740000 100.080000 67.600000 101.740000 67.510000 103.490000 C 68.080000 103.000000 69.090000 102.570000 69.650000 101.990000 C 68.790000 104.220000 67.060000 106.090000 67.500000 108.620000 C 69.070000 108.380000 70.550000 107.290000 71.980000 106.220000 C 71.980000 126.630000 73.060000 155.690000 78.520000 173.160000 C 78.520000 173.160000 134.820000 176.790000 156.620000 172.550000 C 156.620000 172.550000 161.790000 135.050000 162.680000 105.640000 C 163.540000 105.910000 164.560000 105.910000 165.410000 105.840000 C 165.820000 103.780000 164.350000 101.750000 163.460000 100.110000 C 164.370000 100.810000 165.480000 100.990000 166.610000 100.700000 C 166.530000 98.740000 165.150000 97.030000 163.960000 95.680000 C 164.960000 96.340000 166.160000 96.620000 167.400000 96.360000 Z"/><path fill="rgb(13, 71, 66)" d=" M 112.080000 76.160000 C 112.510000 73.740000 114.020000 67.430000 117.410000 67.700000 C 117.670000 69.260000 116.760000 71.340000 116.140000 72.580000 C 116.700000 70.430000 122.720000 65.940000 124.800000 67.200000 C 124.320000 68.970000 122.290000 71.510000 120.840000 72.760000 C 122.150000 71.520000 127.440000 67.740000 129.010000 69.900000 C 130.310000 71.690000 126.090000 74.740000 125.040000 75.720000 L 112.080000 76.160000 Z"/><path fill="rgb(20, 21, 24)" d=" M 94.350000 105.120000 C 95.440000 106.730000 95.440000 109.350000 94.350000 110.960000 C 93.260000 112.580000 91.490000 112.580000 90.400000 110.960000 C 89.310000 109.350000 89.310000 106.730000 90.400000 105.120000 C 91.490000 103.500000 93.260000 103.500000 94.350000 105.120000 Z"/><path fill="rgb(20, 21, 24)" d=" M 155.350000 101.950000 C 156.440000 103.560000 156.440000 106.180000 155.350000 107.790000 C 154.260000 109.410000 152.490000 109.410000 151.400000 107.790000 C 150.310000 106.180000 150.310000 103.560000 151.400000 101.950000 C 152.490000 100.330000 154.260000 100.330000 155.350000 101.950000 Z"/><path fill="rgb(255, 255, 255)" d=" M 105.330000 117.080000 L 144.780000 116.540000 C 144.780000 116.540000 128.680000 146.870000 105.330000 117.080000 Z"/><path fill="rgb(13, 71, 66)" d=" M 80.610000 152.090000 C 80.410000 151.270000 78.740000 151.650000 78.950000 152.470000 C 79.280000 153.800000 79.610000 155.120000 79.940000 156.450000 C 80.150000 157.270000 81.810000 156.880000 81.610000 156.070000 C 81.270000 154.740000 80.940000 153.410000 80.610000 152.090000 Z"/><path fill="rgb(13, 71, 66)" d=" M 83.910000 150.650000 L 83.910000 153.960000 C 83.910000 154.870000 85.590000 154.720000 85.590000 153.920000 L 85.590000 150.600000 C 85.590000 149.690000 83.910000 149.850000 83.910000 150.650000 Z"/><path fill="rgb(13, 71, 66)" d=" M 83.580000 158.930000 L 83.580000 160.920000 C 83.580000 161.830000 85.260000 161.680000 85.260000 160.880000 L 85.260000 158.890000 C 85.260000 157.970000 83.580000 158.130000 83.580000 158.930000 Z"/><path fill="rgb(13, 71, 66)" d=" M 149.190000 157.600000 L 149.190000 159.590000 C 149.190000 160.500000 150.870000 160.350000 150.870000 159.550000 L 150.870000 157.560000 C 150.870000 156.650000 149.190000 156.810000 149.190000 157.600000 Z"/><path fill="rgb(13, 71, 66)" d=" M 153.830000 158.270000 C 153.820000 159.060000 153.880000 159.980000 153.310000 160.600000 C 153.040000 160.890000 153.160000 161.310000 153.510000 161.470000 C 153.910000 161.640000 154.410000 161.510000 154.690000 161.200000 C 155.450000 160.370000 155.500000 159.290000 155.500000 158.220000 C 155.510000 157.310000 153.830000 157.470000 153.830000 158.270000 Z"/><path fill="rgb(13, 71, 66)" d=" M 151.230000 165.390000 C 150.870000 166.170000 150.840000 167.030000 150.840000 167.880000 C 150.840000 168.790000 152.520000 168.630000 152.520000 167.830000 C 152.520000 167.120000 152.500000 166.340000 152.800000 165.680000 C 153.210000 164.790000 151.550000 164.670000 151.230000 165.390000 Z"/><path fill="rgb(19, 115, 105)" d=" M 161.460000 78.720000 C 161.460000 78.720000 92.450000 67.820000 72.470000 82.950000 C 72.470000 82.950000 72.370000 85.040000 72.260000 88.600000 C 89.970000 82.710000 115.720000 77.530000 123.520000 91.640000 C 123.520000 91.640000 131.020000 78.910000 162.260000 84.230000 C 162.060000 82.200000 161.790000 80.340000 161.460000 78.720000 Z"/><path fill="rgb(29, 185, 170)" d=" M 125.250000 158.790000 C 113.330000 156.890000 105.670000 167.560000 102.120000 174.240000 C 112.510000 174.580000 124.810000 174.770000 135.780000 174.420000 C 136.700000 168.810000 136.110000 160.510000 125.250000 158.790000 Z"/><path fill="rgb(251, 50, 43)" d=" M 77.270000 172.870000 L 75.470000 165.050000 L 158.280000 164.650000 L 157.280000 173.270000 C 157.280000 173.270000 123.390000 178.690000 77.270000 172.870000 Z"/><path fill="rgb(13, 71, 66)" d=" M 115.690000 131.670000 C 115.690000 131.670000 126.970000 139.500000 134.340000 133.050000 C 134.340000 133.050000 128.350000 145.710000 115.690000 131.670000 Z"/><path fill="rgb(13, 71, 66)" d=" M 45.100000 167.810000 C 42.750000 174.560000 40.780000 182.090000 39.510000 190.460000 C 44.260000 191.960000 48.700000 194.470000 52.630000 197.670000 C 54.020000 190.570000 55.920000 183.450000 58.450000 176.690000 C 55.130000 172.570000 50.290000 168.900000 45.100000 167.810000 Z"/><path fill="rgb(24, 152, 139)" d=" M 88.810000 140.470000 C 87.650000 131.090000 83.030000 125.230000 75.500000 122.310000 C 75.500000 122.310000 56.000000 136.520000 45.100000 167.810000 C 50.290000 168.900000 55.130000 172.570000 58.450000 176.690000 C 64.370000 160.890000 73.820000 147.110000 88.810000 140.470000 Z"/><path fill="rgb(24, 152, 139)" d=" M 52.630000 197.670000 C 48.700000 194.470000 44.250000 191.960000 39.510000 190.470000 C 36.720000 208.860000 37.220000 231.240000 44.020000 257.910000 L 49.460000 255.490000 C 49.460000 255.490000 46.880000 226.870000 52.630000 197.670000 Z"/><path fill="rgb(24, 152, 139)" d=" M 50.530000 258.870000 C 50.530000 258.870000 50.680000 258.950000 50.910000 259.120000 C 50.810000 257.130000 50.920000 255.140000 51.440000 253.160000 C 50.780000 252.530000 50.030000 251.920000 49.180000 251.350000 L 44.370000 256.910000 C 44.370000 256.910000 36.860000 261.720000 44.820000 272.690000 L 46.170000 272.390000 C 46.170000 272.390000 44.370000 269.530000 45.420000 265.930000 C 45.420000 265.930000 45.870000 270.140000 47.970000 272.240000 L 50.080000 271.340000 C 50.080000 271.340000 47.670000 268.630000 47.970000 264.880000 C 47.970000 264.880000 49.630000 268.780000 52.630000 270.740000 L 53.990000 269.530000 C 53.990000 269.530000 52.760000 267.670000 51.710000 265.420000 C 51.720000 265.440000 51.720000 265.470000 51.730000 265.500000 C 51.720000 265.470000 51.720000 265.440000 51.710000 265.420000 C 50.650000 263.140000 49.780000 260.450000 50.530000 258.870000 Z"/><path fill="rgb(20, 21, 24)" d=" M 71.720000 124.140000 C 71.720000 124.140000 57.180000 137.560000 50.460000 148.380000 L 65.010000 166.280000 L 73.210000 153.230000 L 72.460000 170.010000 L 102.670000 169.630000 L 98.190000 129.360000 C 98.190000 129.360000 77.310000 131.600000 71.720000 124.140000 Z"/><path fill="rgb(20, 21, 24)" d=" M 150.390000 129.740000 L 147.800000 169.340000 L 164.560000 166.650000 L 160.090000 149.500000 L 166.050000 155.840000 L 180.220000 137.190000 C 180.220000 137.190000 167.920000 124.140000 163.070000 121.160000 C 163.070000 121.160000 157.100000 130.850000 150.390000 129.740000 Z"/><path fill="rgb(20, 21, 24)" d=" M 94.200000 137.110000 L 153.490000 143.830000 L 153.300000 145.520000 L 94.010000 138.810000 L 94.200000 137.110000 Z"/><path fill="rgb(20, 21, 24)" d=" M 155.780000 132.640000 L 156.190000 134.300000 L 96.900000 148.840000 L 96.500000 147.190000 L 155.780000 132.640000 Z"/><path fill="rgb(20, 21, 24)" d=" M 98.600000 150.120000 L 151.920000 152.350000 L 151.850000 154.060000 L 98.530000 151.820000 L 98.600000 150.120000 Z"/><path fill="rgb(20, 21, 24)" d=" M 150.920000 145.340000 L 151.380000 146.980000 L 97.690000 161.910000 L 97.230000 160.260000 L 150.920000 145.340000 Z"/><path fill="rgb(20, 21, 24)" d=" M 150.820000 158.690000 L 150.910000 160.400000 L 99.350000 163.020000 L 99.260000 161.320000 L 150.820000 158.690000 Z"/><path fill="rgb(13, 71, 66)" d=" M 122.170000 95.440000 L 122.950000 113.030000 L 130.380000 107.940000 L 126.860000 105.990000 L 127.250000 95.050000 L 122.170000 95.440000 Z"/><path fill="rgb(20, 21, 24)" d=" M 82.730000 103.080000 C 82.730000 103.080000 89.400000 91.400000 98.860000 98.350000 C 98.860000 98.350000 89.960000 82.220000 82.730000 103.080000 Z"/><path fill="rgb(20, 21, 24)" d=" M 146.420000 90.560000 C 146.420000 90.560000 154.770000 85.280000 158.940000 93.620000 C 158.940000 93.620000 154.210000 78.050000 146.420000 90.560000 Z"/><path fill="rgb(28, 177, 161)" d=" M 85.240000 117.060000 C 87.080000 119.020000 87.080000 122.190000 85.240000 124.140000 C 83.390000 126.100000 80.400000 126.100000 78.550000 124.140000 C 76.700000 122.190000 76.700000 119.020000 78.550000 117.060000 C 80.400000 115.110000 83.390000 115.110000 85.240000 117.060000 Z"/><path fill="rgb(28, 177, 161)" d=" M 158.390000 116.780000 C 160.230000 118.740000 160.230000 121.910000 158.390000 123.860000 C 156.540000 125.820000 153.550000 125.820000 151.700000 123.860000 C 149.850000 121.910000 149.850000 118.740000 151.700000 116.780000 C 153.550000 114.830000 156.540000 114.830000 158.390000 116.780000 Z"/></svg>