<?xml version="1.0" standalone="no"?><!DOCTYPE svg PUBLIC "-//W3C//DTD SVG 1.1//EN" "http://www.w3.org/Graphics/SVG/1.1/DTD/svg11.dtd"><svg id="Mandrill0.svg" width="150" height="150" version="1.1" viewBox="0 0 300 300" xmlns="http://www.w3.org/2000/svg" xmlns:xlink="http://www.w3.org/1999/xlink"><defs xmlns="http://www.w3.org/1999/xhtml"><style type="text/css"><![CDATA[
* { border: 0px; margin: 0px; padding: 0px; }
html { background-color: rgb(255, 255, 255); font-family: Verdana, Arial; }
.webgl-content * { position: absolute; width: 100%; height: 100%; user-select: none; }
.webgl-content .logo, .progress { position: absolute; left: 50%; top: 50%; transform: translate(-50%, -50%); }
.webgl-content .logo { background: url("progressLogo.Light.png") center center / contain no-repeat; width: 154px; height: 130px; }
.webgl-content .progress { height: 18px; width: 141px; margin-top: 90px; }
.webgl-content .progress .empty { background: url("progressEmpty.Light.png") right center / cover no-repeat; float: right; width: 100%; height: 100%; display: inline-block; }
.webgl-content .progress .full { background: url("progressFull.Light.png") left center / cover no-repeat; float: left; width: 0%; height: 100%; display: inline-block; }
.webgl-content .logo.Dark { background-image: url("progressLogo.Dark.png"); }
.webgl-content .progress.Dark .empty { background-image: url("progressEmpty.Dark.png"); }
.webgl-content .progress.Dark .full { background-image: url("progressFull.Dark.png"); }
#loading-content { z-index: 10000; position: fixed; width: 100%; height: 100%; left: 0px; top: 0px; overflow: hidden; background: url("background.png"); }
.hud-intro .hud-intro-social .btn-discord, .hud-respawn .hud-respawn-social .btn-discord { background-image: url("//lordz.io/images/discord-icon.png"); }
.hud-intro .hud-intro-social .btn-twitter, .hud-respawn .hud-respawn-social .btn-twitter { background-image: url("//lordz.io/images/twitter-icon.png"); }
.hud-intro .hud-intro-social .btn-facebook, .hud-respawn .hud-respawn-social .btn-facebook { background-image: url("//lordz.io/images/facebook-icon.png"); }
.hud-intro .hud-intro-social .btn-youtube, .hud-respawn .hud-respawn-social .btn-youtube { background-image: url("//lordz.io/images/youtube-icon.png"); }
* { box-sizing: border-box; user-select: none; }
.btn { position: relative; display: inline-block; top: 0px; height: 36px; line-height: 36px; padding: 0px 20px; background: rgb(68, 68, 68); color: rgb(238, 238, 238); border: 0px; font-size: 14px; vertical-align: top; text-align: center; text-decoration: none; text-shadow: rgba(0, 0, 0, 0.4) 0px 1px 0px; box-shadow: rgba(0, 0, 0, 0.2) 0px 2px 10px, rgb(51, 51, 51) 0px 4px 0px; border-radius: 4px; transition: all 0.15s ease-in-out 0s; }
.btn:hover, .btn:active { background-color: rgb(85, 85, 85); color: rgb(255, 255, 255); }
.btn:active { top: 4px; box-shadow: rgba(0, 0, 0, 0.2) 0px 2px 10px !important; }
.btn-green { background-color: rgb(71, 149, 13); box-shadow: rgba(0, 0, 0, 0.2) 0px 2px 10px, rgb(53, 131, 0) 0px 4px 0px; }
.btn-green:hover, .btn-green:active { background-color: rgb(100, 184, 32); }
.btn-red { background-color: rgb(179, 53, 60); box-shadow: rgba(0, 0, 0, 0.2) 0px 2px 10px, rgb(161, 35, 42) 0px 4px 0px; }
.btn-red:hover, .btn-red:active { background-color: rgb(203, 87, 91); }
.btn-blue { background-color: rgb(29, 141, 238); box-shadow: rgba(0, 0, 0, 0.2) 0px 2px 10px, rgb(11, 123, 220) 0px 4px 0px; }
.btn-blue:hover, .btn-blue:active { background-color: rgb(79, 167, 238); }
.btn-purple { background-color: rgb(114, 55, 228); box-shadow: rgba(0, 0, 0, 0.2) 0px 2px 10px, rgb(96, 37, 210) 0px 4px 0px; }
.btn-purple:hover, .btn-purple:active { background-color: rgb(130, 89, 228); }
.btn-twitter { background-color: rgb(27, 149, 224); box-shadow: rgba(0, 0, 0, 0.2) 0px 2px 10px, rgb(9, 131, 206) 0px 4px 0px; }
.btn-twitter:hover, .btn-twitter:active { background-color: rgb(12, 122, 191); }
.btn-facebook { background-color: rgb(66, 103, 178); box-shadow: rgba(0, 0, 0, 0.2) 0px 2px 10px, rgb(48, 85, 160) 0px 4px 0px; }
.btn-facebook:hover, .btn-facebook:active { background-color: rgb(54, 88, 153); }
.btn-google { background-color: rgb(221, 75, 57); box-shadow: rgba(0, 0, 0, 0.2) 0px 2px 10px, rgb(203, 57, 39) 0px 4px 0px; }
.btn-google:hover, .btn-google:active { background-color: rgb(186, 63, 49); }
.btn-discord { background-color: rgb(114, 137, 218); box-shadow: rgba(0, 0, 0, 0.2) 0px 2px 10px, rgb(96, 119, 200) 0px 4px 0px; }
.btn-discord:hover, .btn-discord:active { background-color: rgb(90, 109, 176); }
.btn-youtube { background-color: rgb(229, 45, 39); box-shadow: rgba(0, 0, 0, 0.2) 0px 2px 10px, rgb(211, 27, 21) 0px 4px 0px; }
.btn-youtube:hover, .btn-youtube:active { background-color: rgb(186, 37, 33); }
.hud { position: fixed; top: 0px; left: 0px; bottom: 0px; right: 0px; }
.hud .hud-bottom-left { display: flex; position: absolute; bottom: 20px; left: 20px; flex-direction: column-reverse; }
.hud-intro .hud-intro-corner-bottom-left, .hud-respawn .hud-respawn-corner-bottom-left { position: fixed; bottom: 20px; left: 20px; text-align: left; }
.hud-intro .hud-intro-social, .hud-respawn .hud-respawn-social { width: 240px; line-height: 24px; font-size: 14px; color: rgb(119, 119, 119); }
.hud-intro .hud-intro-social .btn, .hud-respawn .hud-respawn-social .btn { display: block; float: left; margin: 0px 10px 0px 0px; width: 40px; height: 40px; line-height: 40px; background-size: 24px; background-position: center center; background-repeat: no-repeat; }
.hud-intro .hud-intro-more-games { position: relative; bottom: 5px; line-height: 20px; font-size: 14px; color: rgba(255, 255, 255, 0.4); text-shadow: rgba(0, 0, 0, 0.2) 0px 1px 3px; }
.hud-intro .hud-intro-more-games a { display: inline-block; padding: 0px 20px; line-height: 40px; background: rgb(132, 115, 212); color: rgb(238, 238, 238); text-decoration: none; border-radius: 4px; transition: all 0.15s ease-in-out 0s; }
.hud-intro .hud-intro-more-games a:hover, .hud-intro .hud-intro-more-games a:active { background: rgb(103, 90, 166); }
#preroll video { left: 0px; top: 0px; }
.fb_hidden { position: absolute; top: -10000px; z-index: 10001; }
.fb_reposition { overflow: hidden; position: relative; }
.fb_invisible { display: none; }
.fb_reset { background: none; border: 0px; border-spacing: 0px; color: rgb(0, 0, 0); cursor: auto; direction: ltr; font-family: "lucida grande", tahoma, verdana, arial, sans-serif; font-size: 11px; font-style: normal; font-variant: normal; font-weight: normal; letter-spacing: normal; line-height: 1; margin: 0px; overflow: visible; padding: 0px; text-align: left; text-decoration: none; text-indent: 0px; text-shadow: none; text-transform: none; visibility: visible; white-space: normal; word-spacing: normal; }
.fb_animate { animation: 0.3s ease 0s 1 normal forwards running fb_transform; }
.fb_dialog { background: rgba(82, 82, 82, 0.7); position: absolute; top: -10000px; z-index: 10001; }
.fb_dialog_advanced { border-radius: 8px; padding: 10px; }
.fb_dialog_content { background: rgb(255, 255, 255); color: rgb(55, 55, 55); }
.fb_dialog_close_icon { background: url("https://static.xx.fbcdn.net/rsrc.php/v3/yq/r/IE9JII6Z1Ys.png") 0px 0px no-repeat scroll transparent; cursor: pointer; display: block; height: 15px; position: absolute; right: 18px; top: 17px; width: 15px; }
.fb_dialog_mobile .fb_dialog_close_icon { left: 5px; right: auto; top: 5px; }
.fb_dialog_padding { background-color: transparent; position: absolute; width: 1px; z-index: -1; }
.fb_dialog_close_icon:hover { background: url("https://static.xx.fbcdn.net/rsrc.php/v3/yq/r/IE9JII6Z1Ys.png") 0px -15px no-repeat scroll transparent; }
.fb_dialog_close_icon:active { background: url("https://static.xx.fbcdn.net/rsrc.php/v3/yq/r/IE9JII6Z1Ys.png") 0px -30px no-repeat scroll transparent; }
.fb_dialog_iframe { line-height: 0; }
.fb_dialog_content .dialog_title { background: rgb(109, 132, 180); border: 1px solid rgb(54, 88, 153); color: rgb(255, 255, 255); font-size: 14px; font-weight: bold; margin: 0px; }
body.fb_hidden { height: 100%; left: 0px; margin: 0px; overflow: visible; position: absolute; top: -10000px; transform: none; width: 100%; }
.fb_dialog.fb_dialog_mobile.loading { background: url("https://static.xx.fbcdn.net/rsrc.php/v3/ya/r/3rhSv5V8j3o.gif") 50% 50% no-repeat white; min-height: 100%; min-width: 100%; overflow: hidden; position: absolute; top: 0px; z-index: 10001; }
.fb_dialog.fb_dialog_mobile.loading.centered { background: none; height: auto; min-height: initial; min-width: initial; width: auto; }
.fb_dialog.fb_dialog_mobile.loading.centered #fb_dialog_loader_spinner { width: 100%; }
.fb_dialog.fb_dialog_mobile.loading.centered .fb_dialog_content { background: none; }
.loading.centered #fb_dialog_loader_close { clear: both; color: rgb(255, 255, 255); display: block; font-size: 18px; padding-top: 20px; }
#fb-root #fb_dialog_ipad_overlay { background: rgba(0, 0, 0, 0.4); bottom: 0px; left: 0px; min-height: 100%; position: absolute; right: 0px; top: 0px; width: 100%; z-index: 10000; }
#fb-root #fb_dialog_ipad_overlay.hidden { display: none; }
.fb_dialog.fb_dialog_mobile.loading iframe { visibility: hidden; }
.fb_dialog_mobile .fb_dialog_iframe { position: sticky; top: 0px; }
.fb_dialog_content .dialog_header { border-bottom: 1px solid rgb(4, 59, 135); border-top-color: rgb(4, 59, 135); border-right-color: rgb(4, 59, 135); border-left-color: rgb(4, 59, 135); box-shadow: white 0px 1px 1px -1px inset; color: rgb(255, 255, 255); font: bold 14px Helvetica, sans-serif; text-overflow: ellipsis; text-shadow: rgba(0, 30, 84, 0.298) 0px -1px 0px; vertical-align: middle; white-space: nowrap; }
.fb_dialog_content .dialog_header table { height: 43px; width: 100%; }
.fb_dialog_content .dialog_header td.header_left { font-size: 12px; padding-left: 5px; vertical-align: middle; width: 60px; }
.fb_dialog_content .dialog_header td.header_right { font-size: 12px; padding-right: 5px; vertical-align: middle; width: 60px; }
.fb_dialog_content .touchable_button { background-clip: padding-box; border: 1px solid rgb(41, 72, 125); border-radius: 3px; display: inline-block; line-height: 18px; margin-top: 3px; max-width: 85px; padding: 4px 12px; position: relative; }
.fb_dialog_content .dialog_header .touchable_button input { background: none; border: none; color: rgb(255, 255, 255); font: bold 12px Helvetica, sans-serif; margin: 2px -12px; padding: 2px 6px 3px; text-shadow: rgba(0, 30, 84, 0.298) 0px -1px 0px; }
.fb_dialog_content .dialog_header .header_center { color: rgb(255, 255, 255); font-size: 16px; font-weight: bold; line-height: 18px; text-align: center; vertical-align: middle; }
.fb_dialog_content .dialog_content { background: url("https://static.xx.fbcdn.net/rsrc.php/v3/y9/r/jKEcVPZFk-2.gif") 50% 50% no-repeat; border-width: 0px 1px; border-right-style: solid; border-left-style: solid; border-right-color: rgb(74, 74, 74); border-left-color: rgb(74, 74, 74); border-image: initial; border-bottom-style: initial; border-bottom-color: initial; border-top-style: initial; border-top-color: initial; height: 150px; }
.fb_dialog_content .dialog_footer { background: rgb(245, 246, 247); border-width: 1px; border-style: solid; border-color: rgb(204, 204, 204) rgb(74, 74, 74) rgb(74, 74, 74); border-image: initial; height: 40px; }
#fb_dialog_loader_close { float: left; }
.fb_dialog.fb_dialog_mobile .fb_dialog_close_button { text-shadow: rgba(0, 30, 84, 0.298) 0px -1px 0px; }
.fb_dialog.fb_dialog_mobile .fb_dialog_close_icon { visibility: hidden; }
#fb_dialog_loader_spinner { animation: 1.2s linear 0s infinite normal none running rotateSpinner; background-color: transparent; background-image: url("https://static.xx.fbcdn.net/rsrc.php/v3/yD/r/t-wz8gw1xG1.png"); background-position: 50% 50%; background-repeat: no-repeat; height: 24px; width: 24px; }
.fb_iframe_widget { display: inline-block; position: relative; }
.fb_iframe_widget span { display: inline-block; position: relative; text-align: justify; }
.fb_iframe_widget iframe { position: absolute; }
.fb_iframe_widget_fluid_desktop, .fb_iframe_widget_fluid_desktop span, .fb_iframe_widget_fluid_desktop iframe { max-width: 100%; }
.fb_iframe_widget_fluid_desktop iframe { min-width: 220px; position: relative; }
.fb_iframe_widget_lift { z-index: 1; }
.fb_iframe_widget_fluid { display: inline; }
.fb_iframe_widget_fluid span { width: 100%; }
.st0 { fill: rgb(119, 183, 73); }
.st1 { fill: rgb(247, 175, 47); }
.st2 { fill: rgb(233, 81, 15); }
.st3 { fill: url("#SVGID_1_"); }
.st4 { fill: url("#SVGID_2_"); }
.st5 { fill: rgb(252, 242, 119); }
.st6 { fill: url("#SVGID_3_"); }
.st7 { fill: url("#SVGID_4_"); }
.st8 { fill: url("#SVGID_5_"); }
.st9 { fill: url("#SVGID_6_"); }
.st10 { fill: url("#SVGID_7_"); }
.st11 { fill: url("#SVGID_8_"); }
.st12 { fill: url("#SVGID_9_"); }
.st13 { fill: url("#SVGID_10_"); }
.st14 { fill: url("#SVGID_11_"); }
.st15 { fill: url("#SVGID_12_"); }
.st16 { fill: url("#SVGID_13_"); }
.st17 { fill: url("#SVGID_14_"); }
.st18 { fill: url("#SVGID_15_"); }
.st19 { fill: url("#SVGID_16_"); }
.st0 { fill: rgb(119, 183, 73); }
.st1 { fill: rgb(247, 175, 47); }
.st2 { fill: rgb(233, 81, 15); }
.st3 { fill: url("#SVGID_1_"); }
.st4 { fill: url("#SVGID_2_"); }
.st5 { fill: rgb(252, 242, 119); }
.st6 { fill: url("#SVGID_3_"); }
.st7 { fill: url("#SVGID_4_"); }
.st8 { fill: url("#SVGID_5_"); }
.st9 { fill: url("#SVGID_6_"); }
.st10 { fill: url("#SVGID_7_"); }
.st11 { fill: url("#SVGID_8_"); }
.st12 { fill: url("#SVGID_9_"); }
.st13 { fill: url("#SVGID_10_"); }
.st14 { fill: url("#SVGID_11_"); }
.st15 { fill: url("#SVGID_12_"); }
.st16 { fill: url("#SVGID_13_"); }
.st17 { fill: url("#SVGID_14_"); }
.st18 { fill: url("#SVGID_15_"); }
.st19 { fill: url("#SVGID_16_"); }
.st0 { fill: rgb(119, 183, 73); }
.st1 { fill: rgb(247, 175, 47); }
.st2 { fill: rgb(233, 81, 15); }
.st3 { fill: url("#SVGID_1_"); }
.st4 { fill: url("#SVGID_2_"); }
.st5 { fill: rgb(252, 242, 119); }
.st6 { fill: url("#SVGID_3_"); }
.st7 { fill: url("#SVGID_4_"); }
.st8 { fill: url("#SVGID_5_"); }
.st9 { fill: url("#SVGID_6_"); }
.st10 { fill: url("#SVGID_7_"); }
.st11 { fill: url("#SVGID_8_"); }
.st12 { fill: url("#SVGID_9_"); }
.st13 { fill: url("#SVGID_10_"); }
.st14 { fill: url("#SVGID_11_"); }
.st15 { fill: url("#SVGID_12_"); }
.st16 { fill: url("#SVGID_13_"); }
.st17 { fill: url("#SVGID_14_"); }
.st18 { fill: url("#SVGID_15_"); }
.st19 { fill: url("#SVGID_16_"); }
.st0 { fill: rgb(119, 183, 73); }
.st1 { fill: rgb(247, 175, 47); }
.st2 { fill: rgb(233, 81, 15); }
.st3 { fill: url("#SVGID_1_"); }
.st4 { fill: url("#SVGID_2_"); }
.st5 { fill: rgb(252, 242, 119); }
.st6 { fill: url("#SVGID_3_"); }
.st7 { fill: url("#SVGID_4_"); }
.st8 { fill: url("#SVGID_5_"); }
.st9 { fill: url("#SVGID_6_"); }
.st10 { fill: url("#SVGID_7_"); }
.st11 { fill: url("#SVGID_8_"); }
.st12 { fill: url("#SVGID_9_"); }
.st13 { fill: url("#SVGID_10_"); }
.st14 { fill: url("#SVGID_11_"); }
.st15 { fill: url("#SVGID_12_"); }
.st16 { fill: url("#SVGID_13_"); }
.st17 { fill: url("#SVGID_14_"); }
.st18 { fill: url("#SVGID_15_"); }
.st19 { fill: url("#SVGID_16_"); }]]></style></defs><path fill="rgb(36, 13, 39)" d=" M 212.430000 177.390000 C 212.430000 177.390000 212.420000 177.380000 212.420000 177.380000 C 212.420000 177.380000 212.430000 177.390000 212.430000 177.390000 Z"/><path fill="rgb(36, 13, 39)" d=" M 227.950000 162.480000 C 228.710000 166.820000 228.690000 172.440000 228.270000 178.220000 C 226.510000 179.730000 224.680000 181.250000 222.780000 182.890000 C 223.570000 181.550000 223.380000 179.630000 224.030000 178.210000 C 222.000000 180.530000 219.610000 182.720000 217.000000 184.300000 C 219.500000 190.560000 220.100000 198.470000 220.210000 203.280000 C 216.230000 206.310000 212.920000 212.810000 212.920000 212.810000 L 215.290000 214.820000 L 218.440000 209.540000 C 221.610000 213.220000 218.050000 224.220000 218.050000 224.220000 L 220.170000 224.320000 L 221.380000 216.640000 C 222.330000 218.620000 222.330000 221.960000 222.160000 224.410000 L 223.750000 224.490000 L 224.980000 216.750000 C 225.930000 218.750000 225.920000 222.120000 225.750000 224.580000 L 226.740000 224.630000 C 229.710000 218.650000 223.880000 207.420000 223.880000 207.420000 C 223.880000 207.420000 230.580000 177.400000 227.950000 162.480000 Z"/><path fill="rgb(36, 13, 39)" d=" M 227.490000 160.380000 C 227.650000 161.000000 227.800000 161.650000 227.920000 162.340000 C 227.800000 161.660000 227.660000 161.000000 227.490000 160.380000 Z"/><path fill="rgb(36, 13, 39)" d=" M 210.520000 176.070000 C 210.520000 176.070000 210.510000 176.060000 210.500000 176.060000 C 210.510000 176.060000 210.510000 176.060000 210.520000 176.070000 Z"/><path fill="rgb(36, 13, 39)" d=" M 227.230000 159.510000 C 227.310000 159.750000 227.380000 160.000000 227.450000 160.260000 C 227.380000 160.000000 227.310000 159.750000 227.230000 159.510000 Z"/><path fill="rgb(36, 13, 39)" d=" M 226.880000 158.530000 C 226.980000 158.790000 227.080000 159.060000 227.170000 159.330000 C 227.080000 159.060000 226.980000 158.790000 226.880000 158.530000 Z"/><path fill="rgb(36, 13, 39)" d=" M 217.160000 169.780000 C 220.950000 166.750000 224.510000 162.870000 226.880000 158.530000 C 226.620000 157.900000 226.330000 157.320000 226.010000 156.810000 C 223.370000 152.700000 215.670000 152.740000 207.220000 154.320000 C 211.500000 150.300000 215.170000 147.840000 215.170000 147.840000 C 211.490000 148.920000 206.480000 152.450000 202.890000 155.250000 C 201.110000 155.670000 199.320000 156.140000 197.580000 156.640000 C 202.370000 151.900000 206.790000 148.950000 206.790000 148.950000 C 202.150000 150.310000 195.420000 155.530000 192.060000 158.320000 C 184.480000 160.770000 178.680000 163.200000 178.680000 163.200000 L 184.290000 186.810000 C 195.330000 176.550000 202.990000 173.840000 208.310000 175.200000 C 212.330000 170.690000 215.550000 165.350000 217.850000 160.420000 C 217.140000 163.660000 217.870000 166.540000 217.160000 169.780000 Z"/><path fill="rgb(36, 13, 39)" d=" M 211.200000 176.470000 C 211.190000 176.460000 211.180000 176.450000 211.170000 176.450000 C 211.180000 176.450000 211.190000 176.460000 211.200000 176.470000 Z"/><path fill="rgb(36, 13, 39)" d=" M 211.830000 176.910000 C 211.820000 176.900000 211.810000 176.890000 211.800000 176.890000 C 211.810000 176.890000 211.820000 176.900000 211.830000 176.910000 Z"/><path fill="rgb(177, 59, 85)" d=" M 224.030000 178.210000 C 224.250000 177.710000 224.580000 177.280000 225.100000 176.950000 C 224.750000 177.370000 224.400000 177.790000 224.030000 178.210000 C 223.380000 179.630000 223.570000 181.550000 222.780000 182.890000 C 224.680000 181.250000 226.510000 179.730000 228.270000 178.220000 C 228.690000 172.440000 228.710000 166.820000 227.950000 162.480000 C 227.940000 162.440000 227.930000 162.390000 227.920000 162.340000 C 227.800000 161.660000 227.650000 161.000000 227.490000 160.380000 C 227.480000 160.340000 227.460000 160.300000 227.450000 160.260000 C 227.380000 160.000000 227.310000 159.750000 227.230000 159.510000 C 227.210000 159.450000 227.190000 159.390000 227.170000 159.330000 C 227.080000 159.060000 226.980000 158.790000 226.880000 158.530000 C 226.880000 158.530000 226.880000 158.530000 226.880000 158.530000 L 226.880000 158.530000 C 224.510000 162.870000 220.950000 166.750000 217.160000 169.780000 C 217.870000 166.540000 217.140000 163.660000 217.850000 160.430000 C 215.550000 165.350000 212.330000 170.700000 208.310000 175.200000 C 208.310000 175.200000 208.300000 175.200000 208.300000 175.200000 C 209.090000 175.400000 209.820000 175.690000 210.500000 176.060000 C 210.510000 176.060000 210.510000 176.060000 210.520000 176.070000 C 210.740000 176.190000 210.950000 176.310000 211.170000 176.450000 C 211.180000 176.450000 211.190000 176.460000 211.190000 176.470000 C 211.400000 176.600000 211.600000 176.740000 211.800000 176.890000 C 211.810000 176.890000 211.820000 176.900000 211.830000 176.910000 C 212.030000 177.060000 212.230000 177.210000 212.420000 177.380000 C 212.420000 177.380000 212.430000 177.390000 212.430000 177.390000 C 214.410000 179.100000 215.890000 181.540000 216.990000 184.300000 L 216.990000 184.300000 C 219.610000 182.720000 222.000000 180.530000 224.030000 178.210000 Z"/><path fill="rgb(132, 23, 47)" d=" M 224.030000 178.210000 C 224.390000 177.790000 224.750000 177.370000 225.100000 176.950000 C 224.580000 177.280000 224.250000 177.710000 224.030000 178.210000 Z"/><path fill="rgb(36, 13, 39)" d=" M 100.940000 140.950000 C 101.410000 140.420000 101.870000 139.920000 102.340000 139.470000 C 101.870000 139.920000 101.410000 140.420000 100.940000 140.950000 Z"/><path fill="rgb(36, 13, 39)" d=" M 94.860000 161.220000 C 94.060000 158.840000 93.270000 156.600000 92.530000 154.400000 C 95.140000 149.210000 98.000000 144.370000 100.880000 141.030000 C 90.980000 152.490000 81.360000 181.730000 81.360000 181.730000 C 81.360000 181.730000 70.600000 188.390000 70.090000 195.050000 L 70.960000 195.520000 C 72.070000 193.320000 73.790000 190.410000 75.640000 189.190000 L 72.730000 196.460000 L 74.140000 197.210000 C 75.250000 195.020000 76.950000 192.150000 78.780000 190.930000 L 75.890000 198.150000 L 77.770000 199.150000 C 77.770000 199.150000 80.330000 187.880000 84.940000 186.340000 L 84.940000 192.490000 L 88.010000 191.980000 C 88.010000 191.980000 88.490000 184.690000 86.620000 180.050000 C 89.180000 175.980000 93.750000 169.490000 99.100000 165.400000 C 97.660000 162.690000 96.730000 159.590000 96.180000 156.560000 C 96.010000 158.120000 94.860000 159.670000 94.860000 161.220000 Z"/><path fill="rgb(36, 13, 39)" d=" M 108.110000 161.630000 C 108.110000 161.630000 108.120000 161.630000 108.120000 161.630000 C 108.120000 161.630000 108.110000 161.630000 108.110000 161.630000 Z"/><path fill="rgb(36, 13, 39)" d=" M 107.350000 161.680000 C 107.340000 161.690000 107.340000 161.690000 107.330000 161.690000 C 107.340000 161.690000 107.340000 161.690000 107.350000 161.680000 Z"/><path fill="rgb(36, 13, 39)" d=" M 102.420000 139.400000 C 102.610000 139.210000 102.810000 139.030000 103.010000 138.860000 C 102.810000 139.030000 102.610000 139.210000 102.420000 139.400000 Z"/><path fill="rgb(36, 13, 39)" d=" M 133.830000 155.840000 C 132.360000 151.720000 129.260000 143.790000 125.970000 140.250000 C 125.970000 140.250000 128.260000 145.050000 129.940000 151.570000 C 128.700000 150.250000 127.410000 148.930000 126.090000 147.650000 C 124.440000 143.410000 121.940000 137.820000 119.330000 135.010000 C 119.330000 135.010000 121.230000 139.000000 122.850000 144.650000 C 116.400000 138.960000 109.800000 134.980000 105.430000 137.170000 C 104.670000 137.550000 103.910000 138.080000 103.140000 138.740000 C 103.360000 138.550000 103.580000 138.360000 103.810000 138.200000 C 103.610000 143.140000 104.690000 148.290000 106.390000 152.830000 C 107.440000 149.690000 109.540000 147.590000 110.590000 144.440000 C 110.050000 149.850000 110.070000 156.090000 111.220000 162.020000 C 116.490000 163.580000 121.680000 169.830000 125.920000 184.290000 L 142.820000 166.880000 C 142.820000 166.880000 139.090000 161.820000 133.830000 155.840000 Z"/><path fill="rgb(177, 59, 85)" d=" M 110.590000 144.450000 C 109.540000 147.590000 107.440000 149.690000 106.390000 152.840000 C 104.690000 148.290000 103.610000 143.140000 103.810000 138.200000 C 103.580000 138.370000 103.360000 138.550000 103.140000 138.740000 C 103.100000 138.780000 103.050000 138.820000 103.010000 138.860000 C 102.810000 139.030000 102.610000 139.210000 102.420000 139.400000 C 102.390000 139.420000 102.360000 139.450000 102.340000 139.470000 C 101.870000 139.920000 101.410000 140.420000 100.940000 140.950000 C 100.920000 140.980000 100.900000 141.000000 100.880000 141.030000 C 97.990000 144.370000 95.140000 149.210000 92.530000 154.400000 C 93.270000 156.600000 94.060000 158.840000 94.860000 161.220000 C 94.860000 159.670000 96.010000 158.120000 96.180000 156.560000 C 96.080000 156.020000 95.980000 155.470000 95.910000 154.930000 C 96.180000 155.480000 96.240000 156.020000 96.180000 156.560000 C 96.730000 159.590000 97.660000 162.690000 99.100000 165.400000 L 99.100000 165.400000 C 101.710000 163.410000 104.500000 161.980000 107.330000 161.690000 C 107.340000 161.690000 107.340000 161.690000 107.350000 161.690000 C 107.600000 161.660000 107.850000 161.640000 108.110000 161.630000 C 108.110000 161.630000 108.120000 161.630000 108.120000 161.630000 C 109.150000 161.600000 110.190000 161.730000 111.220000 162.030000 C 111.220000 162.030000 111.220000 162.030000 111.220000 162.030000 C 110.080000 156.090000 110.050000 149.850000 110.590000 144.450000 Z"/><path fill="rgb(132, 23, 47)" d=" M 95.910000 154.930000 C 95.980000 155.470000 96.080000 156.020000 96.180000 156.560000 C 96.240000 156.020000 96.180000 155.480000 95.910000 154.930000 Z"/><path fill="rgb(36, 13, 39)" d=" M 165.350000 240.800000 C 165.350000 240.800000 183.080000 267.380000 173.170000 285.110000 L 184.120000 285.630000 L 179.950000 283.020000 C 179.950000 283.020000 186.200000 255.390000 180.470000 241.320000 L 165.350000 240.800000 Z"/><path fill="rgb(36, 13, 39)" d=" M 99.590000 244.280000 C 99.590000 244.280000 117.310000 270.860000 107.410000 288.590000 L 118.350000 289.110000 L 114.180000 286.500000 C 114.180000 286.500000 120.440000 258.870000 114.710000 244.800000 L 99.590000 244.280000 Z"/><path fill="rgb(36, 13, 39)" d=" M 76.330000 232.880000 L 95.910000 247.210000 C 95.910000 247.210000 84.370000 257.000000 76.330000 232.880000 Z"/><path fill="rgb(36, 13, 39)" d=" M 138.560000 241.580000 C 138.160000 241.640000 137.750000 241.700000 137.350000 241.760000 C 137.750000 241.700000 138.160000 241.640000 138.560000 241.580000 Z"/><path fill="rgb(36, 13, 39)" d=" M 149.120000 240.740000 C 149.630000 240.740000 150.130000 240.750000 150.630000 240.760000 C 150.130000 240.750000 149.630000 240.740000 149.120000 240.740000 Z"/><path fill="rgb(36, 13, 39)" d=" M 140.990000 241.260000 C 140.570000 241.310000 140.150000 241.360000 139.730000 241.420000 C 140.150000 241.360000 140.570000 241.310000 140.990000 241.260000 Z"/><path fill="rgb(36, 13, 39)" d=" M 143.400000 241.010000 C 142.970000 241.050000 142.550000 241.090000 142.110000 241.130000 C 142.550000 241.090000 142.970000 241.050000 143.400000 241.010000 Z"/><path fill="rgb(36, 13, 39)" d=" M 119.910000 245.820000 C 119.890000 245.830000 119.880000 245.840000 119.860000 245.840000 C 119.880000 245.840000 119.890000 245.830000 119.910000 245.820000 Z"/><path fill="rgb(36, 13, 39)" d=" M 136.120000 241.960000 C 135.740000 242.030000 135.360000 242.090000 134.980000 242.160000 C 135.360000 242.100000 135.740000 242.030000 136.120000 241.960000 Z"/><path fill="rgb(36, 13, 39)" d=" M 145.810000 240.840000 C 145.370000 240.870000 144.920000 240.890000 144.480000 240.920000 C 144.920000 240.890000 145.370000 240.870000 145.810000 240.840000 Z"/><path fill="rgb(36, 13, 39)" d=" M 131.240000 242.900000 C 131.000000 242.950000 130.760000 243.010000 130.520000 243.060000 C 130.760000 243.010000 131.000000 242.960000 131.240000 242.900000 Z"/><path fill="rgb(36, 13, 39)" d=" M 133.670000 242.410000 C 133.340000 242.470000 133.000000 242.540000 132.670000 242.610000 C 133.000000 242.540000 133.340000 242.470000 133.670000 242.410000 Z"/><path fill="rgb(36, 13, 39)" d=" M 153.580000 240.920000 C 152.860000 240.860000 152.120000 240.810000 151.380000 240.780000 C 152.120000 240.810000 152.860000 240.850000 153.580000 240.920000 Z"/><path fill="rgb(36, 13, 39)" d=" M 159.570000 241.600000 C 159.350000 241.560000 159.120000 241.540000 158.900000 241.510000 C 159.120000 241.540000 159.350000 241.560000 159.570000 241.600000 Z"/><path fill="rgb(36, 13, 39)" d=" M 167.150000 242.920000 C 167.030000 242.890000 166.910000 242.870000 166.790000 242.840000 C 166.910000 242.870000 167.030000 242.900000 167.150000 242.920000 Z"/><path fill="rgb(36, 13, 39)" d=" M 148.190000 240.760000 C 147.740000 240.760000 147.280000 240.770000 146.820000 240.790000 C 147.280000 240.770000 147.740000 240.760000 148.190000 240.760000 Z"/><path fill="rgb(36, 13, 39)" d=" M 164.800000 242.450000 C 164.670000 242.430000 164.550000 242.400000 164.430000 242.380000 C 164.550000 242.400000 164.670000 242.430000 164.800000 242.450000 Z"/><path fill="rgb(36, 13, 39)" d=" M 156.960000 241.270000 C 156.720000 241.240000 156.480000 241.210000 156.240000 241.180000 C 156.480000 241.210000 156.720000 241.240000 156.960000 241.270000 Z"/><path fill="rgb(36, 13, 39)" d=" M 124.270000 219.170000 L 120.840000 221.080000 C 126.930000 200.820000 147.490000 178.590000 158.220000 173.900000 C 178.480000 165.050000 178.840000 187.720000 178.840000 187.720000 L 175.550000 183.830000 C 180.570000 190.190000 177.010000 230.540000 177.010000 230.540000 L 175.780000 225.360000 C 176.620000 229.720000 175.170000 237.820000 173.610000 244.510000 C 173.610000 244.510000 173.600000 244.510000 173.600000 244.510000 C 184.610000 247.630000 190.280000 251.410000 190.280000 251.410000 C 190.280000 251.410000 180.850000 176.430000 186.090000 148.120000 L 157.780000 148.120000 C 157.780000 148.120000 95.910000 202.120000 93.810000 255.600000 C 93.810000 255.600000 104.320000 250.660000 117.770000 246.480000 C 117.750000 246.480000 117.740000 246.490000 117.720000 246.500000 C 118.290000 231.730000 124.270000 219.170000 124.270000 219.170000 Z"/><path fill="rgb(177, 59, 85)" d=" M 119.910000 245.820000 C 123.330000 244.810000 126.910000 243.860000 130.520000 243.060000 C 130.760000 243.010000 131.000000 242.950000 131.240000 242.900000 C 131.710000 242.800000 132.190000 242.700000 132.670000 242.610000 C 133.000000 242.540000 133.340000 242.470000 133.670000 242.410000 C 134.110000 242.320000 134.550000 242.240000 134.980000 242.160000 C 135.360000 242.100000 135.740000 242.030000 136.120000 241.960000 C 136.530000 241.890000 136.940000 241.830000 137.340000 241.760000 C 137.750000 241.700000 138.150000 241.640000 138.560000 241.580000 C 138.950000 241.520000 139.340000 241.470000 139.730000 241.410000 C 140.150000 241.360000 140.570000 241.310000 140.990000 241.260000 C 141.360000 241.210000 141.740000 241.170000 142.110000 241.130000 C 142.540000 241.090000 142.970000 241.050000 143.400000 241.010000 C 143.760000 240.980000 144.120000 240.950000 144.480000 240.920000 C 144.920000 240.890000 145.360000 240.860000 145.800000 240.840000 C 146.140000 240.820000 146.480000 240.800000 146.820000 240.790000 C 147.280000 240.770000 147.730000 240.760000 148.190000 240.750000 C 148.500000 240.750000 148.810000 240.740000 149.120000 240.740000 C 149.630000 240.740000 150.120000 240.750000 150.620000 240.760000 C 150.870000 240.770000 151.130000 240.770000 151.380000 240.780000 C 152.120000 240.810000 152.860000 240.850000 153.580000 240.920000 C 154.480000 241.000000 155.370000 241.080000 156.240000 241.180000 C 156.480000 241.210000 156.720000 241.240000 156.960000 241.260000 C 157.610000 241.340000 158.260000 241.420000 158.890000 241.500000 C 159.120000 241.530000 159.350000 241.560000 159.570000 241.590000 C 161.250000 241.830000 162.870000 242.090000 164.420000 242.380000 C 164.550000 242.400000 164.670000 242.420000 164.800000 242.450000 C 165.470000 242.570000 166.140000 242.710000 166.790000 242.840000 C 166.910000 242.870000 167.030000 242.890000 167.150000 242.920000 C 169.460000 243.410000 171.620000 243.950000 173.590000 244.510000 C 173.600000 244.510000 173.600000 244.510000 173.610000 244.510000 C 175.170000 237.820000 176.610000 229.710000 175.780000 225.360000 L 177.010000 230.530000 C 177.010000 230.530000 180.570000 190.180000 175.550000 183.830000 L 178.840000 187.710000 C 178.840000 187.710000 178.480000 165.040000 158.220000 173.890000 C 147.490000 178.580000 126.930000 200.810000 120.830000 221.070000 L 124.270000 219.160000 C 124.270000 219.160000 118.280000 231.720000 117.720000 246.490000 C 117.730000 246.480000 117.750000 246.480000 117.770000 246.470000 C 118.460000 246.260000 119.150000 246.050000 119.860000 245.840000 C 119.880000 245.840000 119.890000 245.830000 119.910000 245.820000 Z M 155.670000 220.270000 C 156.190000 220.600000 155.710000 221.430000 155.190000 221.100000 C 151.060000 218.440000 146.570000 221.970000 146.540000 226.560000 C 146.530000 229.110000 149.020000 234.210000 152.360000 232.410000 C 153.730000 231.670000 155.610000 229.450000 155.030000 227.720000 C 154.660000 226.630000 153.080000 227.330000 152.410000 227.680000 C 152.110000 227.840000 151.790000 228.090000 151.480000 228.200000 C 151.690000 228.130000 151.910000 228.060000 152.130000 228.060000 C 152.490000 228.060000 152.680000 228.230000 152.900000 228.480000 C 153.300000 228.950000 152.620000 229.630000 152.220000 229.160000 C 151.860000 228.750000 150.850000 229.700000 150.590000 228.770000 C 150.290000 227.680000 151.080000 227.260000 151.920000 226.850000 C 153.020000 226.330000 154.550000 225.720000 155.550000 226.730000 C 157.410000 228.590000 154.580000 232.430000 152.850000 233.230000 C 148.870000 235.090000 145.350000 230.180000 145.580000 226.550000 C 145.910000 221.350000 150.740000 217.100000 155.670000 220.270000 Z"/><path fill="rgb(36, 13, 39)" d=" M 152.850000 233.230000 C 154.580000 232.430000 157.410000 228.590000 155.550000 226.740000 C 154.550000 225.730000 153.020000 226.330000 151.920000 226.860000 C 151.080000 227.260000 150.290000 227.680000 150.590000 228.780000 C 150.850000 229.700000 151.870000 228.750000 152.220000 229.160000 C 152.620000 229.630000 153.300000 228.950000 152.900000 228.480000 C 152.680000 228.230000 152.490000 228.060000 152.130000 228.060000 C 151.910000 228.060000 151.690000 228.130000 151.480000 228.200000 C 151.790000 228.100000 152.110000 227.840000 152.410000 227.680000 C 153.080000 227.330000 154.660000 226.630000 155.030000 227.720000 C 155.610000 229.450000 153.730000 231.670000 152.360000 232.410000 C 149.020000 234.210000 146.530000 229.110000 146.540000 226.560000 C 146.570000 221.980000 151.060000 218.440000 155.190000 221.100000 C 155.710000 221.430000 156.190000 220.600000 155.670000 220.270000 C 150.740000 217.100000 145.920000 221.350000 145.580000 226.560000 C 145.350000 230.180000 148.870000 235.090000 152.850000 233.230000 Z"/><path fill="rgb(253, 204, 112)" d=" M 223.220000 131.760000 L 229.910000 128.220000 C 227.070000 126.020000 223.360000 125.940000 220.040000 126.560000 C 218.070000 133.960000 214.870000 140.680000 211.120000 146.620000 L 211.120000 146.620000 C 211.110000 146.620000 211.110000 146.620000 211.110000 146.630000 C 208.860000 150.180000 206.430000 153.460000 203.940000 156.430000 C 203.910000 156.470000 203.880000 156.510000 203.850000 156.550000 C 203.470000 157.000000 203.100000 157.440000 202.720000 157.880000 C 202.670000 157.930000 202.620000 157.990000 202.580000 158.040000 C 202.210000 158.460000 201.850000 158.870000 201.490000 159.280000 C 201.430000 159.340000 201.370000 159.400000 201.310000 159.470000 C 200.960000 159.860000 200.610000 160.250000 200.250000 160.630000 C 200.190000 160.690000 200.130000 160.760000 200.070000 160.820000 C 199.720000 161.200000 199.370000 161.570000 199.020000 161.930000 C 198.960000 162.000000 198.900000 162.060000 198.840000 162.120000 C 198.480000 162.490000 198.130000 162.850000 197.790000 163.200000 C 197.730000 163.250000 197.680000 163.310000 197.620000 163.360000 C 197.260000 163.720000 196.900000 164.080000 196.550000 164.420000 C 196.510000 164.460000 196.470000 164.500000 196.430000 164.550000 C 196.060000 164.910000 195.690000 165.260000 195.320000 165.600000 C 195.300000 165.630000 195.270000 165.650000 195.240000 165.680000 C 192.470000 168.300000 189.880000 170.490000 187.720000 172.200000 L 187.720000 172.200000 C 187.420000 172.440000 187.120000 172.670000 186.840000 172.890000 C 186.810000 172.910000 186.780000 172.930000 186.760000 172.950000 C 186.500000 173.150000 186.250000 173.340000 186.010000 173.520000 C 185.970000 173.550000 185.930000 173.580000 185.880000 173.620000 C 185.720000 173.740000 185.560000 173.860000 185.400000 173.980000 C 196.810000 174.530000 205.010000 163.360000 205.010000 163.360000 C 205.090000 166.740000 201.810000 174.070000 201.810000 174.070000 C 208.250000 168.560000 211.900000 154.050000 211.900000 154.050000 L 214.190000 159.140000 C 217.220000 149.860000 218.570000 146.640000 218.570000 146.640000 L 226.710000 147.130000 L 222.680000 140.380000 L 229.200000 138.260000 C 227.220000 134.650000 223.220000 131.760000 223.220000 131.760000 Z"/><path fill="rgb(253, 204, 112)" d=" M 173.950000 173.390000 C 173.620000 173.240000 173.300000 173.080000 172.980000 172.920000 C 172.730000 172.800000 172.480000 172.680000 172.230000 172.560000 C 171.840000 172.360000 171.460000 172.160000 171.070000 171.960000 C 170.960000 171.900000 170.860000 171.850000 170.760000 171.790000 C 170.600000 171.710000 170.430000 171.620000 170.270000 171.540000 C 170.010000 171.390000 169.740000 171.260000 169.470000 171.110000 C 168.760000 170.730000 168.070000 170.330000 167.380000 169.940000 C 167.210000 169.840000 167.040000 169.740000 166.870000 169.640000 C 166.670000 169.520000 166.460000 169.410000 166.250000 169.290000 L 163.240000 167.900000 C 163.240000 167.900000 161.470000 166.750000 159.070000 164.450000 C 152.740000 159.670000 147.960000 154.440000 144.440000 148.960000 C 144.440000 148.860000 144.450000 148.740000 144.450000 148.630000 C 139.310000 140.420000 136.930000 131.640000 136.340000 122.980000 C 133.620000 122.490000 130.750000 122.640000 128.320000 124.260000 L 134.680000 128.540000 C 134.680000 128.540000 130.450000 131.160000 128.170000 134.710000 L 134.490000 137.490000 L 129.910000 144.100000 L 138.060000 144.340000 C 138.060000 144.340000 139.130000 147.790000 141.360000 157.660000 L 144.070000 152.600000 C 144.070000 152.600000 146.480000 167.940000 152.420000 174.210000 C 152.420000 174.210000 149.780000 166.340000 150.150000 162.850000 C 150.150000 162.850000 161.090000 175.800000 174.470000 173.650000 C 174.460000 173.640000 174.440000 173.630000 174.430000 173.630000 C 174.270000 173.550000 174.110000 173.470000 173.950000 173.390000 Z"/><path fill="rgb(248, 173, 208)" d=" M 226.870000 94.790000 C 227.510000 90.340000 223.210000 92.200000 219.850000 94.260000 C 220.670000 97.250000 221.250000 100.170000 221.620000 103.030000 C 223.510000 101.820000 226.220000 99.340000 226.870000 94.790000 Z"/><path fill="rgb(36, 13, 39)" d=" M 177.940000 175.210000 C 177.670000 175.090000 177.410000 174.970000 177.150000 174.860000 C 177.410000 174.970000 177.670000 175.090000 177.940000 175.210000 Z"/><path fill="rgb(36, 13, 39)" d=" M 183.170000 175.590000 C 183.040000 175.680000 182.920000 175.760000 182.800000 175.840000 C 182.920000 175.760000 183.040000 175.680000 183.170000 175.590000 Z"/><path fill="rgb(36, 13, 39)" d=" M 182.040000 176.350000 C 182.060000 176.340000 182.070000 176.330000 182.090000 176.320000 C 182.080000 176.330000 182.070000 176.330000 182.070000 176.340000 C 182.060000 176.340000 182.050000 176.350000 182.040000 176.350000 Z"/><path fill="rgb(36, 13, 39)" d=" M 181.620000 176.630000 C 181.620000 176.630000 181.600000 176.640000 181.600000 176.650000 C 181.630000 176.630000 181.670000 176.600000 181.720000 176.570000 C 181.710000 176.580000 181.700000 176.580000 181.690000 176.590000 C 181.660000 176.600000 181.650000 176.620000 181.620000 176.630000 Z"/><path fill="rgb(36, 13, 39)" d=" M 181.770000 176.530000 C 181.790000 176.520000 181.810000 176.510000 181.830000 176.490000 C 181.820000 176.500000 181.810000 176.510000 181.800000 176.510000 C 181.790000 176.520000 181.780000 176.530000 181.770000 176.530000 Z"/><path fill="rgb(36, 13, 39)" d=" M 181.530000 176.690000 C 181.530000 176.690000 181.550000 176.680000 181.580000 176.660000 C 181.570000 176.660000 181.570000 176.660000 181.570000 176.660000 C 181.540000 176.680000 181.530000 176.690000 181.530000 176.690000 Z"/><path fill="rgb(36, 13, 39)" d=" M 181.860000 176.470000 C 181.890000 176.450000 181.920000 176.440000 181.950000 176.420000 C 181.930000 176.430000 181.910000 176.440000 181.890000 176.460000 C 181.880000 176.460000 181.870000 176.470000 181.860000 176.470000 Z"/><path fill="rgb(36, 13, 39)" d=" M 185.090000 174.200000 C 184.900000 174.350000 184.710000 174.480000 184.530000 174.620000 C 184.710000 174.480000 184.900000 174.350000 185.090000 174.200000 Z"/><path fill="rgb(36, 13, 39)" d=" M 183.740000 175.190000 C 183.590000 175.290000 183.450000 175.400000 183.310000 175.490000 C 183.440000 175.400000 183.590000 175.290000 183.740000 175.190000 Z"/><path fill="rgb(36, 13, 39)" d=" M 182.400000 176.110000 C 182.390000 176.120000 182.380000 176.130000 182.370000 176.140000 C 182.470000 176.070000 182.570000 176.000000 182.680000 175.920000 C 182.600000 175.980000 182.520000 176.030000 182.450000 176.080000 C 182.430000 176.090000 182.420000 176.100000 182.400000 176.110000 Z"/><path fill="rgb(36, 13, 39)" d=" M 184.370000 174.730000 C 184.200000 174.860000 184.040000 174.970000 183.890000 175.080000 C 184.040000 174.970000 184.200000 174.850000 184.370000 174.730000 Z"/><path fill="rgb(36, 13, 39)" d=" M 182.110000 176.310000 C 182.160000 176.270000 182.220000 176.240000 182.280000 176.200000 C 182.230000 176.230000 182.200000 176.250000 182.150000 176.280000 C 182.140000 176.290000 182.120000 176.300000 182.110000 176.310000 Z"/><path fill="rgb(36, 13, 39)" d=" M 201.310000 159.460000 C 200.960000 159.860000 200.600000 160.250000 200.250000 160.630000 C 200.600000 160.250000 200.960000 159.860000 201.310000 159.460000 Z"/><path fill="rgb(36, 13, 39)" d=" M 200.070000 160.820000 C 199.720000 161.200000 199.370000 161.570000 199.020000 161.930000 C 199.370000 161.570000 199.720000 161.200000 200.070000 160.820000 Z"/><path fill="rgb(36, 13, 39)" d=" M 197.620000 163.360000 C 197.260000 163.720000 196.900000 164.070000 196.550000 164.420000 C 196.900000 164.070000 197.260000 163.720000 197.620000 163.360000 Z"/><path fill="rgb(36, 13, 39)" d=" M 203.850000 156.540000 C 203.470000 157.000000 203.100000 157.440000 202.720000 157.880000 C 203.100000 157.440000 203.470000 157.000000 203.850000 156.540000 Z"/><path fill="rgb(36, 13, 39)" d=" M 202.580000 158.040000 C 202.210000 158.460000 201.850000 158.870000 201.490000 159.270000 C 201.850000 158.870000 202.210000 158.460000 202.580000 158.040000 Z"/><path fill="rgb(36, 13, 39)" d=" M 198.840000 162.120000 C 198.480000 162.490000 198.130000 162.840000 197.790000 163.190000 C 198.130000 162.840000 198.480000 162.490000 198.840000 162.120000 Z"/><path fill="rgb(36, 13, 39)" d=" M 185.240000 174.100000 C 185.290000 174.060000 185.340000 174.020000 185.400000 173.980000 C 185.560000 173.860000 185.720000 173.740000 185.880000 173.610000 C 185.660000 173.780000 185.440000 173.940000 185.240000 174.100000 Z"/><path fill="rgb(36, 13, 39)" d=" M 205.650000 154.320000 C 205.650000 154.330000 205.640000 154.330000 205.630000 154.340000 C 205.290000 154.780000 204.950000 155.200000 204.600000 155.630000 C 204.590000 155.640000 204.590000 155.650000 204.580000 155.660000 C 204.370000 155.920000 204.160000 156.180000 203.940000 156.430000 C 206.430000 153.460000 208.860000 150.180000 211.110000 146.630000 C 209.380000 149.360000 207.540000 151.930000 205.650000 154.320000 L 205.650000 154.320000 Z"/><path fill="rgb(36, 13, 39)" d=" M 196.430000 164.540000 C 196.060000 164.900000 195.690000 165.250000 195.320000 165.600000 C 195.690000 165.250000 196.060000 164.900000 196.430000 164.540000 Z"/><path fill="rgb(36, 13, 39)" d=" M 188.160000 171.840000 C 188.160000 171.840000 188.160000 171.840000 188.160000 171.840000 C 188.010000 171.960000 187.860000 172.080000 187.720000 172.190000 C 189.890000 170.480000 192.470000 168.300000 195.240000 165.680000 C 192.670000 168.110000 190.270000 170.160000 188.200000 171.810000 C 188.190000 171.820000 188.170000 171.830000 188.160000 171.840000 Z"/><path fill="rgb(36, 13, 39)" d=" M 186.750000 172.950000 C 186.500000 173.150000 186.250000 173.340000 186.010000 173.520000 C 186.250000 173.340000 186.500000 173.150000 186.750000 172.950000 Z"/><path fill="rgb(36, 13, 39)" d=" M 187.720000 172.190000 C 187.420000 172.440000 187.120000 172.660000 186.840000 172.880000 C 187.120000 172.660000 187.420000 172.440000 187.720000 172.190000 Z"/><path fill="rgb(36, 13, 39)" d=" M 171.070000 171.960000 C 170.970000 171.900000 170.860000 171.850000 170.760000 171.790000 C 170.860000 171.850000 170.970000 171.900000 171.070000 171.960000 Z"/><path fill="rgb(36, 13, 39)" d=" M 144.510000 146.680000 C 144.530000 146.370000 144.540000 146.050000 144.550000 145.730000 C 144.570000 145.280000 144.590000 144.840000 144.620000 144.380000 C 144.640000 143.940000 144.670000 143.500000 144.690000 143.050000 C 144.710000 142.740000 144.730000 142.440000 144.750000 142.130000 C 144.940000 139.370000 145.210000 136.470000 145.590000 133.510000 C 145.590000 133.490000 145.600000 133.470000 145.600000 133.450000 C 146.950000 123.040000 149.720000 111.860000 155.180000 103.160000 C 155.180000 103.160000 155.440000 103.150000 155.930000 103.130000 C 160.290000 106.230000 168.990000 112.190000 177.460000 116.580000 C 182.140000 119.010000 186.740000 120.950000 190.490000 121.660000 C 190.490000 121.660000 193.190000 119.900000 196.840000 117.050000 C 200.450000 114.230000 204.970000 110.340000 208.710000 106.040000 C 208.910000 106.100000 209.100000 106.170000 209.300000 106.230000 C 209.300000 106.230000 212.890000 118.480000 212.420000 134.080000 L 212.420000 134.080000 C 212.420000 134.080000 212.420000 134.090000 212.420000 134.100000 C 212.360000 136.050000 212.230000 138.040000 212.030000 140.070000 C 212.020000 140.160000 212.020000 140.240000 212.010000 140.330000 C 211.910000 141.280000 211.790000 142.240000 211.660000 143.200000 C 211.640000 143.360000 211.610000 143.530000 211.590000 143.690000 C 211.450000 144.660000 211.300000 145.630000 211.120000 146.620000 C 214.870000 140.680000 218.070000 133.960000 220.040000 126.560000 C 221.960000 119.340000 222.700000 111.470000 221.620000 103.030000 C 221.250000 100.170000 220.670000 97.240000 219.850000 94.260000 C 218.630000 89.770000 216.890000 85.140000 214.520000 80.380000 C 212.060000 75.260000 208.940000 70.320000 203.310000 66.030000 L 202.860000 73.270000 C 202.860000 73.270000 178.370000 47.580000 173.630000 48.790000 C 172.310000 49.130000 181.860000 67.640000 181.860000 67.640000 C 181.860000 67.640000 165.460000 54.080000 162.320000 52.550000 C 159.180000 51.020000 167.010000 70.270000 164.960000 71.740000 C 163.570000 72.730000 155.240000 66.140000 153.040000 65.070000 C 153.040000 65.070000 143.940000 78.830000 139.110000 97.190000 C 141.610000 98.590000 143.960000 100.420000 143.960000 100.420000 L 140.370000 107.590000 C 140.370000 107.590000 138.900000 107.100000 137.270000 105.750000 C 136.350000 111.300000 135.940000 117.110000 136.340000 122.980000 C 136.930000 131.640000 139.310000 140.420000 144.450000 148.630000 C 144.470000 148.000000 144.490000 147.350000 144.510000 146.680000 Z"/><path fill="rgb(36, 13, 39)" d=" M 173.950000 173.390000 C 174.110000 173.470000 174.270000 173.550000 174.430000 173.620000 C 174.270000 173.550000 174.110000 173.470000 173.950000 173.390000 Z"/><path fill="rgb(248, 173, 208)" d=" M 212.420000 134.080000 C 212.890000 118.480000 209.300000 106.230000 209.300000 106.230000 C 209.100000 106.170000 208.910000 106.100000 208.700000 106.040000 C 204.970000 110.340000 200.450000 114.230000 196.840000 117.050000 L 193.700000 141.440000 C 199.060000 133.920000 206.810000 126.240000 212.420000 134.080000 Z M 202.830000 115.590000 C 204.090000 115.590000 205.110000 117.620000 205.110000 120.130000 C 205.110000 122.640000 204.090000 124.680000 202.830000 124.680000 C 201.580000 124.680000 200.560000 122.640000 200.560000 120.130000 C 200.560000 117.620000 201.580000 115.590000 202.830000 115.590000 Z"/><path fill="rgb(248, 173, 208)" d=" M 155.180000 103.160000 C 149.720000 111.860000 146.960000 123.040000 145.600000 133.460000 C 145.700000 132.670000 145.810000 131.880000 145.930000 131.090000 C 157.040000 131.160000 170.580000 131.480000 179.300000 138.160000 L 177.460000 116.580000 C 168.990000 112.190000 160.290000 106.230000 155.920000 103.130000 C 155.440000 103.150000 155.180000 103.160000 155.180000 103.160000 Z M 167.400000 116.070000 C 168.660000 116.070000 169.670000 118.100000 169.670000 120.610000 C 169.670000 123.120000 168.660000 125.160000 167.400000 125.160000 C 166.150000 125.160000 165.130000 123.120000 165.130000 120.610000 C 165.130000 118.100000 166.150000 116.070000 167.400000 116.070000 Z"/><path fill="rgb(248, 173, 208)" d=" M 212.010000 140.330000 C 211.910000 141.280000 211.790000 142.240000 211.660000 143.200000 C 211.790000 142.240000 211.910000 141.280000 212.010000 140.330000 Z"/><path fill="rgb(248, 173, 208)" d=" M 211.560000 143.870000 C 211.760000 142.510000 211.920000 141.160000 212.050000 139.820000 C 212.040000 139.910000 212.040000 139.990000 212.030000 140.070000 C 212.230000 138.040000 212.360000 136.050000 212.420000 134.100000 C 212.370000 135.580000 212.280000 137.090000 212.150000 138.620000 C 212.240000 137.570000 212.300000 136.530000 212.350000 135.500000 C 206.640000 136.410000 201.300000 139.220000 196.620000 142.930000 C 197.660000 143.440000 198.600000 144.060000 199.440000 144.770000 C 203.290000 141.810000 207.580000 139.530000 212.150000 138.660000 C 212.120000 139.040000 212.090000 139.430000 212.050000 139.820000 C 208.460000 141.900000 205.260000 144.840000 202.440000 148.130000 C 203.070000 149.040000 203.630000 150.000000 204.130000 150.990000 C 206.350000 148.270000 208.820000 145.800000 211.560000 143.880000 C 211.430000 144.790000 211.290000 145.700000 211.120000 146.620000 L 211.120000 146.620000 C 211.300000 145.640000 211.450000 144.660000 211.590000 143.690000 C 211.580000 143.750000 211.570000 143.810000 211.560000 143.870000 Z"/><path fill="rgb(248, 173, 208)" d=" M 144.620000 144.380000 C 144.640000 143.940000 144.670000 143.500000 144.690000 143.050000 C 144.670000 143.500000 144.640000 143.940000 144.620000 144.380000 Z"/><path fill="rgb(248, 173, 208)" d=" M 144.510000 146.680000 C 144.530000 146.370000 144.540000 146.050000 144.550000 145.730000 C 144.540000 146.050000 144.530000 146.370000 144.510000 146.680000 Z"/><path fill="rgb(248, 173, 208)" d=" M 144.750000 142.130000 C 144.940000 139.370000 145.210000 136.470000 145.590000 133.510000 C 145.210000 136.470000 144.940000 139.370000 144.750000 142.130000 Z"/><path fill="rgb(70, 158, 174)" d=" M 174.730000 173.770000 C 174.870000 173.840000 175.020000 173.900000 175.160000 173.970000 C 175.010000 173.900000 174.870000 173.830000 174.730000 173.760000 C 174.730000 173.770000 174.730000 173.770000 174.730000 173.770000 Z"/><path fill="rgb(70, 158, 174)" d=" M 162.200000 166.690000 C 162.920000 167.180000 163.660000 167.670000 164.420000 168.150000 C 163.660000 167.670000 162.920000 167.180000 162.200000 166.690000 Z"/><path fill="rgb(70, 158, 174)" d=" M 166.870000 169.640000 C 166.130000 169.210000 165.410000 168.770000 164.690000 168.320000 C 165.210000 168.640000 165.720000 168.970000 166.260000 169.290000 C 166.460000 169.410000 166.670000 169.520000 166.870000 169.640000 Z"/><path fill="rgb(70, 158, 174)" d=" M 167.380000 169.940000 C 168.070000 170.330000 168.760000 170.730000 169.470000 171.110000 C 168.760000 170.720000 168.070000 170.330000 167.380000 169.940000 Z"/><path fill="rgb(70, 158, 174)" d=" M 176.860000 174.730000 C 176.960000 174.770000 177.050000 174.810000 177.140000 174.860000 C 177.410000 174.970000 177.670000 175.090000 177.930000 175.210000 C 178.040000 175.250000 178.150000 175.300000 178.250000 175.350000 C 177.780000 175.150000 177.330000 174.940000 176.860000 174.730000 Z"/><path fill="rgb(70, 158, 174)" d=" M 181.690000 176.590000 C 181.700000 176.580000 181.710000 176.580000 181.720000 176.570000 C 181.740000 176.560000 181.760000 176.540000 181.770000 176.530000 C 181.780000 176.530000 181.790000 176.520000 181.800000 176.510000 C 181.760000 176.540000 181.720000 176.570000 181.690000 176.590000 Z"/><path fill="rgb(70, 158, 174)" d=" M 181.570000 176.660000 C 181.570000 176.660000 181.570000 176.660000 181.580000 176.660000 C 181.580000 176.660000 181.590000 176.650000 181.600000 176.650000 C 181.600000 176.640000 181.620000 176.630000 181.620000 176.630000 C 181.600000 176.640000 181.580000 176.660000 181.570000 176.660000 Z"/><path fill="rgb(70, 158, 174)" d=" M 212.050000 139.820000 C 212.090000 139.430000 212.120000 139.040000 212.150000 138.660000 C 207.580000 139.530000 203.290000 141.810000 199.440000 144.770000 C 200.600000 145.750000 201.580000 146.890000 202.440000 148.140000 C 205.260000 144.840000 208.460000 141.900000 212.050000 139.820000 Z"/><path fill="rgb(70, 158, 174)" d=" M 165.420000 153.450000 C 166.510000 151.490000 167.680000 149.640000 168.960000 148.010000 C 164.310000 144.430000 159.310000 141.600000 154.000000 139.970000 C 158.340000 143.320000 162.150000 148.080000 165.420000 153.450000 Z"/><path fill="rgb(70, 158, 174)" d=" M 145.600000 133.460000 C 145.600000 133.470000 145.600000 133.490000 145.590000 133.510000 C 145.210000 136.470000 144.940000 139.370000 144.750000 142.130000 C 144.730000 142.440000 144.710000 142.740000 144.690000 143.050000 C 144.670000 143.500000 144.640000 143.940000 144.620000 144.380000 C 144.590000 144.840000 144.570000 145.280000 144.550000 145.730000 C 144.540000 146.050000 144.530000 146.370000 144.510000 146.680000 C 144.490000 147.350000 144.470000 148.000000 144.450000 148.640000 C 144.450000 148.740000 144.450000 148.860000 144.440000 148.970000 C 147.970000 154.440000 152.750000 159.670000 159.070000 164.460000 C 160.040000 165.190000 161.060000 165.910000 162.100000 166.630000 C 161.350000 166.110000 160.610000 165.590000 159.890000 165.060000 C 161.070000 162.410000 162.310000 159.550000 163.690000 156.760000 C 158.800000 148.150000 152.560000 140.990000 145.010000 138.840000 C 145.120000 137.700000 145.230000 136.540000 145.370000 135.380000 C 154.720000 135.800000 163.320000 139.800000 171.010000 145.690000 C 173.460000 143.270000 176.280000 141.700000 179.590000 141.610000 L 179.300000 138.160000 C 170.580000 131.480000 157.050000 131.160000 145.930000 131.090000 C 145.810000 131.880000 145.700000 132.670000 145.600000 133.460000 Z"/><path fill="rgb(70, 158, 174)" d=" M 182.150000 176.280000 C 182.200000 176.250000 182.230000 176.230000 182.280000 176.200000 C 182.310000 176.180000 182.340000 176.160000 182.370000 176.140000 C 182.380000 176.130000 182.390000 176.120000 182.400000 176.110000 C 182.310000 176.180000 182.230000 176.230000 182.150000 176.280000 Z"/><path fill="rgb(70, 158, 174)" d=" M 181.890000 176.460000 C 181.910000 176.440000 181.930000 176.430000 181.950000 176.420000 C 181.980000 176.400000 182.010000 176.380000 182.040000 176.350000 C 182.050000 176.350000 182.060000 176.340000 182.060000 176.340000 C 182.000000 176.380000 181.940000 176.420000 181.890000 176.460000 Z"/><path fill="rgb(70, 158, 174)" d=" M 185.880000 173.610000 C 185.930000 173.580000 185.970000 173.550000 186.010000 173.520000 C 186.250000 173.340000 186.500000 173.140000 186.750000 172.950000 C 186.780000 172.930000 186.810000 172.910000 186.840000 172.880000 C 187.120000 172.660000 187.420000 172.440000 187.720000 172.190000 L 187.720000 172.190000 C 187.860000 172.080000 188.010000 171.960000 188.160000 171.840000 C 188.160000 171.840000 188.160000 171.840000 188.160000 171.840000 C 185.580000 173.900000 183.550000 175.340000 182.450000 176.080000 C 182.520000 176.030000 182.600000 175.980000 182.680000 175.920000 C 182.720000 175.900000 182.760000 175.870000 182.800000 175.840000 C 182.920000 175.760000 183.040000 175.680000 183.170000 175.590000 C 183.220000 175.560000 183.260000 175.520000 183.310000 175.490000 C 183.450000 175.400000 183.590000 175.300000 183.740000 175.190000 C 183.780000 175.160000 183.830000 175.120000 183.880000 175.080000 C 184.040000 174.970000 184.200000 174.860000 184.370000 174.730000 C 184.430000 174.690000 184.480000 174.660000 184.530000 174.620000 C 184.710000 174.480000 184.900000 174.350000 185.090000 174.200000 C 185.140000 174.170000 185.190000 174.140000 185.240000 174.100000 C 185.440000 173.940000 185.660000 173.780000 185.880000 173.610000 Z"/><path fill="rgb(70, 158, 174)" d=" M 194.590000 166.280000 C 194.590000 166.280000 194.590000 166.280000 194.590000 166.290000 C 194.520000 166.350000 194.460000 166.410000 194.390000 166.470000 C 193.910000 166.910000 193.430000 167.350000 192.970000 167.770000 C 192.860000 167.860000 192.760000 167.950000 192.650000 168.050000 C 192.220000 168.440000 191.780000 168.820000 191.360000 169.180000 C 191.280000 169.250000 191.190000 169.320000 191.110000 169.390000 C 190.690000 169.760000 190.280000 170.110000 189.870000 170.440000 C 189.740000 170.550000 189.610000 170.660000 189.480000 170.770000 C 189.090000 171.090000 188.720000 171.390000 188.350000 171.680000 C 188.300000 171.720000 188.250000 171.770000 188.200000 171.810000 C 190.270000 170.150000 192.670000 168.110000 195.240000 165.670000 C 195.270000 165.650000 195.300000 165.620000 195.320000 165.600000 C 195.690000 165.250000 196.060000 164.900000 196.430000 164.540000 C 196.470000 164.500000 196.510000 164.460000 196.550000 164.420000 C 196.900000 164.070000 197.260000 163.720000 197.620000 163.360000 C 197.680000 163.300000 197.730000 163.250000 197.790000 163.190000 C 198.130000 162.840000 198.490000 162.480000 198.840000 162.120000 C 198.900000 162.050000 198.960000 161.990000 199.020000 161.930000 C 199.370000 161.560000 199.720000 161.190000 200.070000 160.820000 C 200.130000 160.750000 200.190000 160.690000 200.250000 160.620000 C 200.610000 160.240000 200.960000 159.850000 201.310000 159.460000 C 201.370000 159.400000 201.430000 159.330000 201.490000 159.270000 C 201.850000 158.860000 202.210000 158.450000 202.580000 158.030000 C 202.620000 157.980000 202.670000 157.930000 202.720000 157.870000 C 203.100000 157.440000 203.470000 156.990000 203.850000 156.540000 C 203.880000 156.500000 203.910000 156.470000 203.950000 156.430000 C 204.160000 156.170000 204.370000 155.910000 204.580000 155.650000 C 201.230000 159.760000 197.780000 163.310000 194.590000 166.280000 Z"/><path fill="rgb(70, 158, 174)" d=" M 204.600000 155.630000 C 204.950000 155.200000 205.290000 154.780000 205.630000 154.340000 C 205.290000 154.780000 204.950000 155.200000 204.600000 155.630000 Z"/><path fill="rgb(70, 158, 174)" d=" M 211.560000 143.870000 C 211.570000 143.810000 211.580000 143.750000 211.590000 143.690000 C 211.610000 143.530000 211.640000 143.360000 211.660000 143.200000 C 211.790000 142.240000 211.910000 141.280000 212.010000 140.330000 C 212.020000 140.250000 212.020000 140.160000 212.030000 140.080000 C 212.040000 139.990000 212.040000 139.910000 212.050000 139.830000 C 211.920000 141.160000 211.760000 142.510000 211.560000 143.870000 Z"/><path fill="rgb(70, 158, 174)" d=" M 212.350000 135.500000 C 212.300000 136.530000 212.240000 137.570000 212.150000 138.620000 C 212.270000 137.090000 212.370000 135.580000 212.420000 134.100000 C 212.420000 134.090000 212.420000 134.090000 212.420000 134.080000 L 212.420000 134.080000 C 206.810000 126.240000 199.060000 133.920000 193.700000 141.450000 L 193.640000 141.910000 C 194.730000 142.140000 195.710000 142.500000 196.620000 142.930000 C 201.290000 139.220000 206.640000 136.410000 212.350000 135.500000 Z"/><path fill="rgb(70, 158, 174)" d=" M 211.560000 143.880000 C 208.820000 145.800000 206.350000 148.270000 204.130000 150.990000 C 204.700000 152.090000 205.200000 153.210000 205.650000 154.320000 C 207.540000 151.920000 209.380000 149.360000 211.110000 146.630000 C 211.110000 146.620000 211.110000 146.620000 211.120000 146.620000 C 211.280000 145.700000 211.430000 144.790000 211.560000 143.880000 Z"/><path fill="rgb(70, 158, 174)" d=" M 171.070000 171.960000 C 171.460000 172.160000 171.840000 172.360000 172.230000 172.560000 C 171.760000 172.320000 171.300000 172.070000 170.830000 171.830000 C 170.710000 171.760000 170.590000 171.700000 170.460000 171.640000 C 170.460000 171.640000 170.460000 171.630000 170.460000 171.630000 C 170.400000 171.600000 170.330000 171.570000 170.270000 171.540000 C 170.440000 171.620000 170.600000 171.710000 170.760000 171.790000 C 170.870000 171.850000 170.970000 171.900000 171.070000 171.960000 Z"/><path fill="rgb(248, 173, 208)" d=" M 188.200000 171.810000 C 188.250000 171.770000 188.300000 171.720000 188.350000 171.690000 C 188.290000 171.740000 188.230000 171.790000 188.160000 171.840000 C 188.160000 171.840000 188.160000 171.840000 188.160000 171.840000 L 188.160000 171.840000 C 188.170000 171.830000 188.190000 171.820000 188.200000 171.810000 Z"/><path fill="rgb(248, 173, 208)" d=" M 172.980000 172.920000 C 173.300000 173.080000 173.620000 173.230000 173.950000 173.390000 C 174.110000 173.470000 174.270000 173.550000 174.430000 173.620000 C 174.440000 173.630000 174.460000 173.640000 174.470000 173.650000 C 174.560000 173.690000 174.640000 173.730000 174.730000 173.770000 L 174.730000 173.770000 C 174.730000 173.770000 174.730000 173.760000 174.730000 173.760000 C 174.140000 173.480000 173.550000 173.200000 172.980000 172.920000 Z"/><path fill="rgb(248, 173, 208)" d=" M 170.830000 171.830000 C 170.710000 171.760000 170.590000 171.700000 170.460000 171.630000 C 170.460000 171.630000 170.460000 171.630000 170.460000 171.640000 C 170.590000 171.700000 170.710000 171.760000 170.830000 171.830000 Z"/><path fill="rgb(248, 173, 208)" d=" M 189.480000 170.770000 C 189.600000 170.670000 189.740000 170.560000 189.870000 170.450000 C 189.740000 170.560000 189.600000 170.660000 189.480000 170.770000 Z"/><path fill="rgb(248, 173, 208)" d=" M 191.110000 169.400000 C 191.190000 169.320000 191.280000 169.250000 191.360000 169.180000 C 191.280000 169.250000 191.190000 169.330000 191.110000 169.400000 Z"/><path fill="rgb(248, 173, 208)" d=" M 194.590000 166.280000 C 194.530000 166.340000 194.460000 166.410000 194.390000 166.470000 C 194.460000 166.410000 194.520000 166.350000 194.590000 166.290000 C 194.590000 166.280000 194.590000 166.280000 194.590000 166.280000 Z"/><path fill="rgb(248, 173, 208)" d=" M 192.650000 168.050000 C 192.760000 167.950000 192.860000 167.860000 192.970000 167.770000 C 192.860000 167.860000 192.760000 167.960000 192.650000 168.050000 Z"/><path fill="rgb(248, 173, 208)" d=" M 145.370000 135.380000 C 145.230000 136.540000 145.120000 137.700000 145.010000 138.840000 C 152.560000 140.990000 158.800000 148.150000 163.690000 156.760000 C 164.240000 155.640000 164.820000 154.530000 165.420000 153.450000 C 162.150000 148.080000 158.340000 143.320000 154.000000 139.970000 C 159.310000 141.600000 164.310000 144.430000 168.960000 148.010000 C 169.610000 147.170000 170.300000 146.400000 171.010000 145.690000 C 163.320000 139.800000 154.720000 135.800000 145.370000 135.380000 Z"/><path fill="rgb(223, 22, 63)" d=" M 182.400000 176.110000 C 182.420000 176.100000 182.430000 176.090000 182.450000 176.080000 C 183.550000 175.340000 185.580000 173.900000 188.160000 171.840000 C 188.230000 171.790000 188.290000 171.740000 188.350000 171.690000 C 188.720000 171.390000 189.090000 171.090000 189.480000 170.770000 C 189.600000 170.670000 189.740000 170.560000 189.870000 170.450000 C 190.280000 170.110000 190.690000 169.760000 191.110000 169.400000 C 191.190000 169.330000 191.280000 169.250000 191.360000 169.180000 C 191.780000 168.820000 192.220000 168.440000 192.650000 168.050000 C 192.760000 167.960000 192.860000 167.870000 192.970000 167.770000 C 193.430000 167.350000 193.910000 166.920000 194.390000 166.470000 C 194.460000 166.410000 194.530000 166.340000 194.590000 166.280000 C 197.780000 163.320000 201.230000 159.760000 204.580000 155.660000 C 204.590000 155.650000 204.600000 155.640000 204.610000 155.630000 C 204.950000 155.210000 205.290000 154.780000 205.640000 154.340000 C 205.640000 154.340000 205.650000 154.330000 205.650000 154.320000 L 205.650000 154.320000 C 205.200000 153.210000 204.700000 152.090000 204.140000 150.990000 C 203.630000 150.010000 203.070000 149.050000 202.440000 148.140000 C 201.590000 146.890000 200.600000 145.750000 199.440000 144.770000 C 198.600000 144.060000 197.660000 143.440000 196.620000 142.940000 C 195.710000 142.500000 194.730000 142.140000 193.640000 141.910000 L 193.700000 141.450000 L 196.840000 117.050000 C 193.200000 119.900000 190.490000 121.670000 190.490000 121.670000 C 186.740000 120.950000 182.140000 119.010000 177.460000 116.580000 L 179.300000 138.170000 L 179.590000 141.610000 C 176.280000 141.700000 173.460000 143.270000 171.010000 145.690000 C 170.300000 146.400000 169.620000 147.170000 168.960000 148.010000 C 167.680000 149.640000 166.510000 151.490000 165.420000 153.450000 C 164.820000 154.530000 164.240000 155.640000 163.690000 156.760000 C 162.310000 159.550000 161.070000 162.410000 159.900000 165.060000 C 160.610000 165.590000 161.350000 166.110000 162.110000 166.630000 C 162.140000 166.650000 162.170000 166.670000 162.200000 166.690000 C 162.930000 167.180000 163.670000 167.670000 164.420000 168.150000 C 164.520000 168.210000 164.610000 168.260000 164.700000 168.320000 C 165.410000 168.770000 166.130000 169.210000 166.880000 169.640000 C 167.050000 169.740000 167.220000 169.840000 167.390000 169.940000 C 168.070000 170.330000 168.770000 170.720000 169.480000 171.110000 C 169.740000 171.260000 170.010000 171.390000 170.280000 171.540000 C 170.340000 171.570000 170.400000 171.600000 170.470000 171.630000 C 170.590000 171.700000 170.710000 171.760000 170.840000 171.830000 C 171.300000 172.070000 171.760000 172.320000 172.240000 172.560000 C 172.480000 172.680000 172.740000 172.800000 172.980000 172.920000 C 173.560000 173.200000 174.140000 173.490000 174.730000 173.760000 C 174.880000 173.830000 175.020000 173.900000 175.160000 173.970000 C 175.720000 174.230000 176.300000 174.480000 176.870000 174.730000 C 177.330000 174.940000 177.780000 175.150000 178.260000 175.350000 C 179.330000 175.800000 180.420000 176.250000 181.530000 176.690000 C 181.530000 176.690000 181.550000 176.680000 181.570000 176.670000 C 181.590000 176.660000 181.610000 176.640000 181.630000 176.630000 C 181.650000 176.620000 181.670000 176.610000 181.700000 176.590000 C 181.730000 176.570000 181.770000 176.540000 181.810000 176.510000 C 181.820000 176.510000 181.830000 176.500000 181.840000 176.500000 C 181.850000 176.490000 181.860000 176.480000 181.870000 176.480000 C 181.870000 176.470000 181.890000 176.460000 181.890000 176.460000 C 181.950000 176.420000 182.010000 176.380000 182.070000 176.340000 C 182.080000 176.340000 182.090000 176.330000 182.100000 176.320000 C 182.100000 176.320000 182.110000 176.320000 182.110000 176.310000 C 182.130000 176.300000 182.140000 176.290000 182.160000 176.280000 C 182.230000 176.230000 182.310000 176.180000 182.400000 176.110000 Z M 181.590000 164.360000 C 180.270000 163.420000 179.260000 162.230000 178.470000 160.950000 C 176.900000 158.390000 175.960000 155.570000 175.540000 152.690000 C 176.750000 155.320000 178.070000 157.870000 179.750000 160.060000 C 181.400000 162.220000 183.660000 163.990000 186.070000 163.560000 C 187.260000 163.410000 188.440000 162.810000 189.530000 162.030000 C 190.630000 161.270000 191.620000 160.300000 192.600000 159.300000 C 194.530000 157.260000 196.250000 154.970000 198.050000 152.690000 C 196.970000 155.390000 195.590000 157.970000 193.790000 160.310000 C 192.890000 161.500000 191.850000 162.580000 190.660000 163.550000 C 189.450000 164.480000 188.010000 165.290000 186.340000 165.540000 C 184.670000 165.780000 182.900000 165.290000 181.590000 164.360000 Z M 190.650000 145.630000 C 191.170000 145.630000 191.600000 146.480000 191.600000 147.530000 C 191.600000 148.570000 191.170000 149.420000 190.650000 149.420000 C 190.130000 149.420000 189.700000 148.570000 189.700000 147.530000 C 189.700000 146.480000 190.130000 145.630000 190.650000 145.630000 Z M 186.540000 147.530000 C 186.540000 148.570000 186.110000 149.420000 185.590000 149.420000 C 185.060000 149.420000 184.640000 148.570000 184.640000 147.530000 C 184.640000 146.480000 185.070000 145.630000 185.590000 145.630000 C 186.110000 145.630000 186.540000 146.480000 186.540000 147.530000 Z"/><path fill="rgb(36, 13, 39)" d=" M 186.260000 146.180000 C 186.630000 146.920000 186.630000 148.130000 186.260000 148.870000 C 185.890000 149.610000 185.290000 149.610000 184.920000 148.870000 C 184.550000 148.130000 184.550000 146.920000 184.920000 146.180000 C 185.290000 145.440000 185.890000 145.440000 186.260000 146.180000 Z"/><path fill="rgb(36, 13, 39)" d=" M 191.320000 146.180000 C 191.690000 146.920000 191.690000 148.130000 191.320000 148.870000 C 190.950000 149.610000 190.350000 149.610000 189.980000 148.870000 C 189.610000 148.130000 189.610000 146.920000 189.980000 146.180000 C 190.350000 145.440000 190.950000 145.440000 191.320000 146.180000 Z"/><path fill="rgb(255, 255, 255)" d=" M 186.350000 165.540000 C 188.020000 165.280000 189.450000 164.480000 190.660000 163.550000 C 191.860000 162.580000 192.900000 161.490000 193.790000 160.310000 C 195.590000 157.970000 196.980000 155.390000 198.050000 152.690000 C 196.260000 154.970000 194.530000 157.260000 192.600000 159.300000 C 191.620000 160.300000 190.630000 161.270000 189.530000 162.030000 C 188.440000 162.810000 187.260000 163.410000 186.070000 163.560000 C 183.670000 163.990000 181.410000 162.210000 179.750000 160.060000 C 178.070000 157.870000 176.750000 155.320000 175.540000 152.690000 C 175.960000 155.570000 176.900000 158.390000 178.480000 160.950000 C 179.260000 162.230000 180.270000 163.420000 181.590000 164.360000 C 182.900000 165.290000 184.670000 165.780000 186.350000 165.540000 Z"/><path fill="rgb(36, 13, 39)" d=" M 169.010000 117.400000 C 169.900000 119.170000 169.900000 122.050000 169.010000 123.830000 C 168.120000 125.600000 166.680000 125.600000 165.800000 123.830000 C 164.910000 122.050000 164.910000 119.170000 165.800000 117.400000 C 166.680000 115.620000 168.120000 115.620000 169.010000 117.400000 Z"/><path fill="rgb(36, 13, 39)" d=" M 204.440000 116.920000 C 205.330000 118.690000 205.330000 121.570000 204.440000 123.350000 C 203.550000 125.120000 202.110000 125.120000 201.230000 123.350000 C 200.340000 121.570000 200.340000 118.690000 201.230000 116.920000 C 202.110000 115.150000 203.550000 115.150000 204.440000 116.920000 Z"/><path fill="rgb(248, 173, 208)" d=" M 143.960000 100.420000 C 143.960000 100.420000 141.610000 98.590000 139.110000 97.200000 C 136.000000 95.460000 132.630000 94.400000 133.200000 98.370000 C 133.720000 102.030000 135.580000 104.350000 137.270000 105.750000 C 138.900000 107.100000 140.370000 107.590000 140.370000 107.590000 L 143.960000 100.420000 Z"/></svg>