<?xml version="1.0" standalone="no"?><!DOCTYPE svg PUBLIC "-//W3C//DTD SVG 1.1//EN" "http://www.w3.org/Graphics/SVG/1.1/DTD/svg11.dtd"><svg id="MissChief0.svg" width="150" height="150" version="1.1" viewBox="0 0 300 300" xmlns="http://www.w3.org/2000/svg" xmlns:xlink="http://www.w3.org/1999/xlink"><defs xmlns="http://www.w3.org/1999/xhtml"><style type="text/css"><![CDATA[
* { border: 0px; margin: 0px; padding: 0px; }
html { background-color: rgb(255, 255, 255); font-family: Verdana, Arial; }
.webgl-content * { position: absolute; width: 100%; height: 100%; user-select: none; }
.webgl-content .logo, .progress { position: absolute; left: 50%; top: 50%; transform: translate(-50%, -50%); }
.webgl-content .logo { background: url("progressLogo.Light.png") center center / contain no-repeat; width: 154px; height: 130px; }
.webgl-content .progress { height: 18px; width: 141px; margin-top: 90px; }
.webgl-content .progress .empty { background: url("progressEmpty.Light.png") right center / cover no-repeat; float: right; width: 100%; height: 100%; display: inline-block; }
.webgl-content .progress .full { background: url("progressFull.Light.png") left center / cover no-repeat; float: left; width: 0%; height: 100%; display: inline-block; }
.webgl-content .logo.Dark { background-image: url("progressLogo.Dark.png"); }
.webgl-content .progress.Dark .empty { background-image: url("progressEmpty.Dark.png"); }
.webgl-content .progress.Dark .full { background-image: url("progressFull.Dark.png"); }
#loading-content { z-index: 10000; position: fixed; width: 100%; height: 100%; left: 0px; top: 0px; overflow: hidden; background: url("background.png"); }
.hud-intro .hud-intro-social .btn-discord, .hud-respawn .hud-respawn-social .btn-discord { background-image: url("//lordz.io/images/discord-icon.png"); }
.hud-intro .hud-intro-social .btn-twitter, .hud-respawn .hud-respawn-social .btn-twitter { background-image: url("//lordz.io/images/twitter-icon.png"); }
.hud-intro .hud-intro-social .btn-facebook, .hud-respawn .hud-respawn-social .btn-facebook { background-image: url("//lordz.io/images/facebook-icon.png"); }
.hud-intro .hud-intro-social .btn-youtube, .hud-respawn .hud-respawn-social .btn-youtube { background-image: url("//lordz.io/images/youtube-icon.png"); }
* { box-sizing: border-box; user-select: none; }
.btn { position: relative; display: inline-block; top: 0px; height: 36px; line-height: 36px; padding: 0px 20px; background: rgb(68, 68, 68); color: rgb(238, 238, 238); border: 0px; font-size: 14px; vertical-align: top; text-align: center; text-decoration: none; text-shadow: rgba(0, 0, 0, 0.4) 0px 1px 0px; box-shadow: rgba(0, 0, 0, 0.2) 0px 2px 10px, rgb(51, 51, 51) 0px 4px 0px; border-radius: 4px; transition: all 0.15s ease-in-out 0s; }
.btn:hover, .btn:active { background-color: rgb(85, 85, 85); color: rgb(255, 255, 255); }
.btn:active { top: 4px; box-shadow: rgba(0, 0, 0, 0.2) 0px 2px 10px !important; }
.btn-green { background-color: rgb(71, 149, 13); box-shadow: rgba(0, 0, 0, 0.2) 0px 2px 10px, rgb(53, 131, 0) 0px 4px 0px; }
.btn-green:hover, .btn-green:active { background-color: rgb(100, 184, 32); }
.btn-red { background-color: rgb(179, 53, 60); box-shadow: rgba(0, 0, 0, 0.2) 0px 2px 10px, rgb(161, 35, 42) 0px 4px 0px; }
.btn-red:hover, .btn-red:active { background-color: rgb(203, 87, 91); }
.btn-blue { background-color: rgb(29, 141, 238); box-shadow: rgba(0, 0, 0, 0.2) 0px 2px 10px, rgb(11, 123, 220) 0px 4px 0px; }
.btn-blue:hover, .btn-blue:active { background-color: rgb(79, 167, 238); }
.btn-purple { background-color: rgb(114, 55, 228); box-shadow: rgba(0, 0, 0, 0.2) 0px 2px 10px, rgb(96, 37, 210) 0px 4px 0px; }
.btn-purple:hover, .btn-purple:active { background-color: rgb(130, 89, 228); }
.btn-twitter { background-color: rgb(27, 149, 224); box-shadow: rgba(0, 0, 0, 0.2) 0px 2px 10px, rgb(9, 131, 206) 0px 4px 0px; }
.btn-twitter:hover, .btn-twitter:active { background-color: rgb(12, 122, 191); }
.btn-facebook { background-color: rgb(66, 103, 178); box-shadow: rgba(0, 0, 0, 0.2) 0px 2px 10px, rgb(48, 85, 160) 0px 4px 0px; }
.btn-facebook:hover, .btn-facebook:active { background-color: rgb(54, 88, 153); }
.btn-google { background-color: rgb(221, 75, 57); box-shadow: rgba(0, 0, 0, 0.2) 0px 2px 10px, rgb(203, 57, 39) 0px 4px 0px; }
.btn-google:hover, .btn-google:active { background-color: rgb(186, 63, 49); }
.btn-discord { background-color: rgb(114, 137, 218); box-shadow: rgba(0, 0, 0, 0.2) 0px 2px 10px, rgb(96, 119, 200) 0px 4px 0px; }
.btn-discord:hover, .btn-discord:active { background-color: rgb(90, 109, 176); }
.btn-youtube { background-color: rgb(229, 45, 39); box-shadow: rgba(0, 0, 0, 0.2) 0px 2px 10px, rgb(211, 27, 21) 0px 4px 0px; }
.btn-youtube:hover, .btn-youtube:active { background-color: rgb(186, 37, 33); }
.hud { position: fixed; top: 0px; left: 0px; bottom: 0px; right: 0px; }
.hud .hud-bottom-left { display: flex; position: absolute; bottom: 20px; left: 20px; flex-direction: column-reverse; }
.hud-intro .hud-intro-corner-bottom-left, .hud-respawn .hud-respawn-corner-bottom-left { position: fixed; bottom: 20px; left: 20px; text-align: left; }
.hud-intro .hud-intro-social, .hud-respawn .hud-respawn-social { width: 240px; line-height: 24px; font-size: 14px; color: rgb(119, 119, 119); }
.hud-intro .hud-intro-social .btn, .hud-respawn .hud-respawn-social .btn { display: block; float: left; margin: 0px 10px 0px 0px; width: 40px; height: 40px; line-height: 40px; background-size: 24px; background-position: center center; background-repeat: no-repeat; }
.hud-intro .hud-intro-more-games { position: relative; bottom: 5px; line-height: 20px; font-size: 14px; color: rgba(255, 255, 255, 0.4); text-shadow: rgba(0, 0, 0, 0.2) 0px 1px 3px; }
.hud-intro .hud-intro-more-games a { display: inline-block; padding: 0px 20px; line-height: 40px; background: rgb(132, 115, 212); color: rgb(238, 238, 238); text-decoration: none; border-radius: 4px; transition: all 0.15s ease-in-out 0s; }
.hud-intro .hud-intro-more-games a:hover, .hud-intro .hud-intro-more-games a:active { background: rgb(103, 90, 166); }
#preroll video { left: 0px; top: 0px; }
.fb_hidden { position: absolute; top: -10000px; z-index: 10001; }
.fb_reposition { overflow: hidden; position: relative; }
.fb_invisible { display: none; }
.fb_reset { background: none; border: 0px; border-spacing: 0px; color: rgb(0, 0, 0); cursor: auto; direction: ltr; font-family: "lucida grande", tahoma, verdana, arial, sans-serif; font-size: 11px; font-style: normal; font-variant: normal; font-weight: normal; letter-spacing: normal; line-height: 1; margin: 0px; overflow: visible; padding: 0px; text-align: left; text-decoration: none; text-indent: 0px; text-shadow: none; text-transform: none; visibility: visible; white-space: normal; word-spacing: normal; }
.fb_animate { animation: 0.3s ease 0s 1 normal forwards running fb_transform; }
.fb_dialog { background: rgba(82, 82, 82, 0.7); position: absolute; top: -10000px; z-index: 10001; }
.fb_dialog_advanced { border-radius: 8px; padding: 10px; }
.fb_dialog_content { background: rgb(255, 255, 255); color: rgb(55, 55, 55); }
.fb_dialog_close_icon { background: url("https://static.xx.fbcdn.net/rsrc.php/v3/yq/r/IE9JII6Z1Ys.png") 0px 0px no-repeat scroll transparent; cursor: pointer; display: block; height: 15px; position: absolute; right: 18px; top: 17px; width: 15px; }
.fb_dialog_mobile .fb_dialog_close_icon { left: 5px; right: auto; top: 5px; }
.fb_dialog_padding { background-color: transparent; position: absolute; width: 1px; z-index: -1; }
.fb_dialog_close_icon:hover { background: url("https://static.xx.fbcdn.net/rsrc.php/v3/yq/r/IE9JII6Z1Ys.png") 0px -15px no-repeat scroll transparent; }
.fb_dialog_close_icon:active { background: url("https://static.xx.fbcdn.net/rsrc.php/v3/yq/r/IE9JII6Z1Ys.png") 0px -30px no-repeat scroll transparent; }
.fb_dialog_iframe { line-height: 0; }
.fb_dialog_content .dialog_title { background: rgb(109, 132, 180); border: 1px solid rgb(54, 88, 153); color: rgb(255, 255, 255); font-size: 14px; font-weight: bold; margin: 0px; }
body.fb_hidden { height: 100%; left: 0px; margin: 0px; overflow: visible; position: absolute; top: -10000px; transform: none; width: 100%; }
.fb_dialog.fb_dialog_mobile.loading { background: url("https://static.xx.fbcdn.net/rsrc.php/v3/ya/r/3rhSv5V8j3o.gif") 50% 50% no-repeat white; min-height: 100%; min-width: 100%; overflow: hidden; position: absolute; top: 0px; z-index: 10001; }
.fb_dialog.fb_dialog_mobile.loading.centered { background: none; height: auto; min-height: initial; min-width: initial; width: auto; }
.fb_dialog.fb_dialog_mobile.loading.centered #fb_dialog_loader_spinner { width: 100%; }
.fb_dialog.fb_dialog_mobile.loading.centered .fb_dialog_content { background: none; }
.loading.centered #fb_dialog_loader_close { clear: both; color: rgb(255, 255, 255); display: block; font-size: 18px; padding-top: 20px; }
#fb-root #fb_dialog_ipad_overlay { background: rgba(0, 0, 0, 0.4); bottom: 0px; left: 0px; min-height: 100%; position: absolute; right: 0px; top: 0px; width: 100%; z-index: 10000; }
#fb-root #fb_dialog_ipad_overlay.hidden { display: none; }
.fb_dialog.fb_dialog_mobile.loading iframe { visibility: hidden; }
.fb_dialog_mobile .fb_dialog_iframe { position: sticky; top: 0px; }
.fb_dialog_content .dialog_header { border-bottom: 1px solid rgb(4, 59, 135); border-top-color: rgb(4, 59, 135); border-right-color: rgb(4, 59, 135); border-left-color: rgb(4, 59, 135); box-shadow: white 0px 1px 1px -1px inset; color: rgb(255, 255, 255); font: bold 14px Helvetica, sans-serif; text-overflow: ellipsis; text-shadow: rgba(0, 30, 84, 0.298) 0px -1px 0px; vertical-align: middle; white-space: nowrap; }
.fb_dialog_content .dialog_header table { height: 43px; width: 100%; }
.fb_dialog_content .dialog_header td.header_left { font-size: 12px; padding-left: 5px; vertical-align: middle; width: 60px; }
.fb_dialog_content .dialog_header td.header_right { font-size: 12px; padding-right: 5px; vertical-align: middle; width: 60px; }
.fb_dialog_content .touchable_button { background-clip: padding-box; border: 1px solid rgb(41, 72, 125); border-radius: 3px; display: inline-block; line-height: 18px; margin-top: 3px; max-width: 85px; padding: 4px 12px; position: relative; }
.fb_dialog_content .dialog_header .touchable_button input { background: none; border: none; color: rgb(255, 255, 255); font: bold 12px Helvetica, sans-serif; margin: 2px -12px; padding: 2px 6px 3px; text-shadow: rgba(0, 30, 84, 0.298) 0px -1px 0px; }
.fb_dialog_content .dialog_header .header_center { color: rgb(255, 255, 255); font-size: 16px; font-weight: bold; line-height: 18px; text-align: center; vertical-align: middle; }
.fb_dialog_content .dialog_content { background: url("https://static.xx.fbcdn.net/rsrc.php/v3/y9/r/jKEcVPZFk-2.gif") 50% 50% no-repeat; border-width: 0px 1px; border-right-style: solid; border-left-style: solid; border-right-color: rgb(74, 74, 74); border-left-color: rgb(74, 74, 74); border-image: initial; border-bottom-style: initial; border-bottom-color: initial; border-top-style: initial; border-top-color: initial; height: 150px; }
.fb_dialog_content .dialog_footer { background: rgb(245, 246, 247); border-width: 1px; border-style: solid; border-color: rgb(204, 204, 204) rgb(74, 74, 74) rgb(74, 74, 74); border-image: initial; height: 40px; }
#fb_dialog_loader_close { float: left; }
.fb_dialog.fb_dialog_mobile .fb_dialog_close_button { text-shadow: rgba(0, 30, 84, 0.298) 0px -1px 0px; }
.fb_dialog.fb_dialog_mobile .fb_dialog_close_icon { visibility: hidden; }
#fb_dialog_loader_spinner { animation: 1.2s linear 0s infinite normal none running rotateSpinner; background-color: transparent; background-image: url("https://static.xx.fbcdn.net/rsrc.php/v3/yD/r/t-wz8gw1xG1.png"); background-position: 50% 50%; background-repeat: no-repeat; height: 24px; width: 24px; }
.fb_iframe_widget { display: inline-block; position: relative; }
.fb_iframe_widget span { display: inline-block; position: relative; text-align: justify; }
.fb_iframe_widget iframe { position: absolute; }
.fb_iframe_widget_fluid_desktop, .fb_iframe_widget_fluid_desktop span, .fb_iframe_widget_fluid_desktop iframe { max-width: 100%; }
.fb_iframe_widget_fluid_desktop iframe { min-width: 220px; position: relative; }
.fb_iframe_widget_lift { z-index: 1; }
.fb_iframe_widget_fluid { display: inline; }
.fb_iframe_widget_fluid span { width: 100%; }
.st0 { fill: rgb(119, 183, 73); }
.st1 { fill: rgb(247, 175, 47); }
.st2 { fill: rgb(233, 81, 15); }
.st3 { fill: url("#SVGID_1_"); }
.st4 { fill: url("#SVGID_2_"); }
.st5 { fill: rgb(252, 242, 119); }
.st6 { fill: url("#SVGID_3_"); }
.st7 { fill: url("#SVGID_4_"); }
.st8 { fill: url("#SVGID_5_"); }
.st9 { fill: url("#SVGID_6_"); }
.st10 { fill: url("#SVGID_7_"); }
.st11 { fill: url("#SVGID_8_"); }
.st12 { fill: url("#SVGID_9_"); }
.st13 { fill: url("#SVGID_10_"); }
.st14 { fill: url("#SVGID_11_"); }
.st15 { fill: url("#SVGID_12_"); }
.st16 { fill: url("#SVGID_13_"); }
.st17 { fill: url("#SVGID_14_"); }
.st18 { fill: url("#SVGID_15_"); }
.st19 { fill: url("#SVGID_16_"); }
.st0 { fill: rgb(119, 183, 73); }
.st1 { fill: rgb(247, 175, 47); }
.st2 { fill: rgb(233, 81, 15); }
.st3 { fill: url("#SVGID_1_"); }
.st4 { fill: url("#SVGID_2_"); }
.st5 { fill: rgb(252, 242, 119); }
.st6 { fill: url("#SVGID_3_"); }
.st7 { fill: url("#SVGID_4_"); }
.st8 { fill: url("#SVGID_5_"); }
.st9 { fill: url("#SVGID_6_"); }
.st10 { fill: url("#SVGID_7_"); }
.st11 { fill: url("#SVGID_8_"); }
.st12 { fill: url("#SVGID_9_"); }
.st13 { fill: url("#SVGID_10_"); }
.st14 { fill: url("#SVGID_11_"); }
.st15 { fill: url("#SVGID_12_"); }
.st16 { fill: url("#SVGID_13_"); }
.st17 { fill: url("#SVGID_14_"); }
.st18 { fill: url("#SVGID_15_"); }
.st19 { fill: url("#SVGID_16_"); }
.st0 { fill: rgb(119, 183, 73); }
.st1 { fill: rgb(247, 175, 47); }
.st2 { fill: rgb(233, 81, 15); }
.st3 { fill: url("#SVGID_1_"); }
.st4 { fill: url("#SVGID_2_"); }
.st5 { fill: rgb(252, 242, 119); }
.st6 { fill: url("#SVGID_3_"); }
.st7 { fill: url("#SVGID_4_"); }
.st8 { fill: url("#SVGID_5_"); }
.st9 { fill: url("#SVGID_6_"); }
.st10 { fill: url("#SVGID_7_"); }
.st11 { fill: url("#SVGID_8_"); }
.st12 { fill: url("#SVGID_9_"); }
.st13 { fill: url("#SVGID_10_"); }
.st14 { fill: url("#SVGID_11_"); }
.st15 { fill: url("#SVGID_12_"); }
.st16 { fill: url("#SVGID_13_"); }
.st17 { fill: url("#SVGID_14_"); }
.st18 { fill: url("#SVGID_15_"); }
.st19 { fill: url("#SVGID_16_"); }
.st0 { fill: rgb(119, 183, 73); }
.st1 { fill: rgb(247, 175, 47); }
.st2 { fill: rgb(233, 81, 15); }
.st3 { fill: url("#SVGID_1_"); }
.st4 { fill: url("#SVGID_2_"); }
.st5 { fill: rgb(252, 242, 119); }
.st6 { fill: url("#SVGID_3_"); }
.st7 { fill: url("#SVGID_4_"); }
.st8 { fill: url("#SVGID_5_"); }
.st9 { fill: url("#SVGID_6_"); }
.st10 { fill: url("#SVGID_7_"); }
.st11 { fill: url("#SVGID_8_"); }
.st12 { fill: url("#SVGID_9_"); }
.st13 { fill: url("#SVGID_10_"); }
.st14 { fill: url("#SVGID_11_"); }
.st15 { fill: url("#SVGID_12_"); }
.st16 { fill: url("#SVGID_13_"); }
.st17 { fill: url("#SVGID_14_"); }
.st18 { fill: url("#SVGID_15_"); }
.st19 { fill: url("#SVGID_16_"); }]]></style></defs><path fill="rgb(253, 197, 9)" d=" M 146.260000 214.860000 C 143.860000 213.170000 141.870000 211.080000 139.380000 209.410000 C 128.560000 202.180000 115.600000 197.890000 102.540000 197.410000 C 95.630000 197.150000 87.800000 199.170000 82.710000 204.130000 C 77.170000 209.520000 75.040000 220.470000 80.440000 226.640000 C 84.410000 231.190000 91.660000 233.290000 97.200000 230.460000 C 99.370000 229.350000 100.960000 227.490000 101.710000 225.190000 C 102.850000 221.690000 100.530000 218.970000 99.070000 215.900000 C 97.620000 212.860000 97.710000 208.140000 100.720000 206.000000 C 103.590000 203.960000 107.850000 204.900000 110.370000 207.350000 C 112.880000 209.800000 113.960000 213.360000 114.440000 216.820000 C 115.210000 222.330000 113.550000 228.500000 110.190000 232.970000 C 105.340000 239.400000 96.620000 242.480000 88.690000 241.320000 C 79.790000 240.010000 72.970000 232.550000 70.490000 224.240000 C 67.900000 215.550000 70.440000 203.750000 77.390000 197.570000 C 84.090000 191.620000 93.540000 189.420000 102.340000 189.830000 C 111.840000 190.270000 121.150000 192.780000 130.010000 196.100000 C 134.550000 197.800000 139.000000 199.740000 143.390000 201.810000 C 146.870000 203.450000 151.810000 205.090000 154.390000 208.040000 C 158.960000 213.270000 151.540000 218.110000 146.700000 215.150000 C 146.550000 215.060000 146.400000 214.960000 146.260000 214.860000 Z"/><path fill="rgb(14, 112, 126)" d=" M 69.500000 217.070000 C 72.110000 217.130000 74.710000 217.200000 77.320000 217.260000 C 77.340000 215.370000 77.670000 213.450000 78.250000 211.630000 C 76.000000 210.910000 72.750000 209.830000 70.560000 209.260000 C 69.860000 211.820000 69.500000 214.470000 69.500000 217.070000 Z"/><path fill="rgb(14, 112, 126)" d=" M 77.390000 235.590000 C 79.340000 233.450000 81.200000 231.210000 82.950000 228.900000 C 82.020000 228.240000 81.170000 227.480000 80.440000 226.640000 C 80.320000 226.510000 80.210000 226.370000 80.100000 226.230000 C 78.050000 228.010000 76.080000 229.890000 74.140000 231.790000 C 75.100000 233.160000 76.190000 234.440000 77.390000 235.590000 Z"/><path fill="rgb(14, 112, 126)" d=" M 88.690000 241.320000 C 90.530000 241.590000 92.410000 241.620000 94.270000 241.450000 C 93.790000 238.190000 93.440000 234.920000 93.230000 231.640000 C 91.080000 231.900000 88.870000 231.610000 86.800000 230.880000 C 85.960000 233.940000 84.990000 236.970000 83.880000 239.950000 C 85.400000 240.610000 87.010000 241.070000 88.690000 241.320000 Z"/><path fill="rgb(14, 112, 126)" d=" M 107.380000 235.960000 C 105.140000 233.150000 102.800000 230.420000 100.380000 227.760000 C 99.660000 228.740000 98.740000 229.560000 97.660000 230.190000 C 99.310000 233.160000 101.000000 236.120000 102.700000 239.060000 C 104.390000 238.230000 105.970000 237.190000 107.380000 235.960000 Z"/><path fill="rgb(14, 112, 126)" d=" M 80.560000 206.760000 C 81.140000 205.870000 81.790000 205.060000 82.500000 204.330000 C 80.680000 202.190000 78.900000 200.010000 77.150000 197.810000 C 75.880000 198.980000 74.760000 200.340000 73.800000 201.840000 C 76.140000 203.350000 78.390000 205.000000 80.560000 206.760000 Z"/><path d=" M 82.410000 196.240000 C 83.080000 195.820000 83.780000 195.450000 84.510000 195.120000"/><path d=" M 87.320000 194.810000 C 88.270000 194.330000 88.170000 194.330000 89.210000 194.100000"/><path d=" M 85.200000 197.460000 C 85.630000 197.260000 86.060000 197.060000 86.490000 196.870000"/><path d=" M 112.970000 219.560000 C 112.970000 220.280000 112.970000 220.480000 112.760000 221.190000"/><path d=" M 112.550000 224.420000 C 112.420000 225.280000 112.350000 225.440000 112.000000 226.170000"/><path d=" M 110.960000 220.120000 C 110.900000 220.800000 110.720000 221.710000 110.420000 222.360000"/><path d=" M 110.300000 225.060000 C 110.130000 225.850000 109.840000 226.760000 109.330000 227.500000"/><path fill="rgb(14, 112, 126)" d=" M 92.030000 190.600000 C 92.680000 193.150000 93.280000 195.720000 93.830000 198.290000 C 95.740000 197.830000 97.680000 197.540000 99.590000 197.440000 C 99.410000 194.890000 99.260000 192.350000 99.140000 189.800000 C 96.760000 189.860000 94.370000 190.130000 92.030000 190.600000 Z"/><path fill="rgb(14, 112, 126)" d=" M 115.830000 191.750000 C 113.410000 191.190000 110.960000 190.740000 108.500000 190.400000 C 108.570000 192.910000 108.630000 195.410000 108.660000 197.920000 C 110.830000 198.200000 112.990000 198.570000 115.120000 199.050000 C 115.360000 196.620000 115.590000 194.180000 115.830000 191.750000 Z"/><path fill="rgb(161, 99, 87)" d=" M 173.340000 151.190000 C 176.020000 155.590000 175.750000 154.780000 178.860000 158.820000 C 181.240000 161.920000 184.330000 165.790000 188.170000 166.490000 C 190.970000 167.010000 193.480000 165.490000 195.700000 163.740000 C 198.550000 161.500000 201.790000 159.230000 206.860000 152.190000 C 208.940000 149.310000 210.600000 145.990000 213.590000 144.110000 C 215.900000 142.650000 219.080000 144.660000 221.210000 146.420000 C 221.620000 146.760000 221.990000 147.180000 222.240000 147.670000 C 222.540000 148.260000 222.660000 148.930000 222.730000 149.590000 C 222.870000 150.720000 222.820000 152.550000 222.110000 153.490000 C 221.700000 154.040000 220.760000 153.930000 220.470000 153.290000 C 220.260000 152.840000 220.360000 152.290000 220.290000 151.790000 C 220.150000 150.730000 218.120000 149.140000 217.140000 149.210000 C 215.080000 149.360000 213.950000 153.070000 214.250000 154.920000 C 214.410000 155.900000 216.120000 157.580000 217.130000 157.490000 C 218.030000 157.410000 218.390000 155.910000 219.310000 156.060000 C 219.700000 156.120000 219.960000 156.580000 219.960000 157.010000 C 219.940000 159.690000 216.730000 160.510000 214.850000 160.200000 C 213.820000 160.030000 212.670000 159.860000 211.820000 160.520000 C 211.610000 160.680000 211.420000 160.880000 211.250000 161.100000 C 207.200000 166.300000 199.510000 173.230000 195.080000 175.140000 C 191.830000 176.530000 188.280000 177.170000 184.820000 176.520000 C 181.630000 175.930000 178.640000 173.340000 176.260000 171.070000 C 173.200000 168.150000 170.790000 164.710000 168.380000 161.160000 C 165.890000 157.510000 166.590000 158.910000 164.430000 155.020000 C 163.270000 152.920000 161.470000 150.140000 162.800000 147.680000 C 164.060000 145.310000 167.590000 143.170000 169.400000 145.050000 C 169.980000 145.650000 170.430000 146.380000 170.870000 147.110000 C 171.700000 148.470000 172.520000 149.840000 173.340000 151.190000 Z"/><path fill="rgb(253, 197, 9)" d=" M 193.590000 165.210000 C 191.920000 166.220000 190.120000 166.850000 188.170000 166.490000 C 184.330000 165.790000 181.240000 161.920000 178.860000 158.820000 C 175.750000 154.780000 176.020000 155.590000 173.340000 151.190000 C 172.520000 149.840000 171.700000 148.470000 170.870000 147.110000 C 170.430000 146.380000 169.980000 145.650000 169.410000 145.050000 C 167.590000 143.170000 164.060000 145.310000 162.800000 147.680000 C 161.470000 150.140000 163.270000 152.920000 164.430000 155.020000 C 166.590000 158.910000 165.900000 157.510000 168.380000 161.160000 C 170.790000 164.710000 173.210000 168.150000 176.270000 171.070000 C 178.650000 173.340000 181.630000 175.920000 184.820000 176.520000 C 188.280000 177.170000 191.830000 176.530000 195.080000 175.130000 C 195.980000 174.740000 197.030000 174.140000 198.140000 173.380000 C 198.110000 173.270000 198.070000 173.160000 198.030000 173.040000 C 196.630000 170.390000 194.960000 167.890000 193.590000 165.210000 Z"/><path fill="rgb(14, 112, 126)" d=" M 188.310000 166.460000 C 188.180000 166.430000 188.050000 166.400000 187.920000 166.360000 L 187.560000 176.780000 C 189.400000 176.800000 191.230000 176.480000 193.000000 175.930000 L 191.110000 166.330000 C 190.210000 166.570000 189.280000 166.640000 188.310000 166.460000 Z"/><path fill="rgb(14, 112, 126)" d=" M 182.920000 163.270000 L 177.230000 171.730000 C 178.550000 172.970000 180.040000 174.230000 181.620000 175.170000 L 185.580000 165.380000 C 184.640000 164.810000 183.750000 164.080000 182.920000 163.270000 Z"/><path fill="rgb(14, 112, 126)" d=" M 179.090000 158.760000 C 178.190000 157.580000 177.580000 156.810000 177.100000 156.210000 L 169.930000 162.900000 C 170.810000 164.190000 171.710000 165.460000 172.660000 166.680000 L 179.950000 159.870000 C 179.650000 159.500000 179.370000 159.120000 179.090000 158.760000 Z"/><path fill="rgb(14, 112, 126)" d=" M 173.620000 151.110000 C 173.030000 150.110000 172.430000 149.110000 171.830000 148.110000 L 164.380000 154.190000 C 164.520000 154.450000 164.660000 154.700000 164.800000 154.940000 C 165.960000 157.070000 166.290000 157.620000 166.740000 158.270000 L 174.260000 152.150000 C 174.060000 151.830000 173.860000 151.500000 173.620000 151.110000 Z"/><path fill="rgb(14, 112, 126)" d=" M 183.050000 285.250000 C 189.610000 266.740000 190.120000 244.890000 186.020000 225.680000 C 186.020000 225.680000 185.440000 216.180000 184.590000 214.630000 C 168.250000 210.860000 142.620000 216.020000 125.850000 216.290000 C 126.570000 218.040000 127.170000 219.840000 127.660000 221.670000 L 127.550000 221.730000 C 133.510000 256.410000 113.830000 291.820000 116.080000 291.970000 C 118.330000 292.110000 133.050000 293.190000 133.570000 291.790000 C 134.100000 290.380000 126.510000 287.910000 125.450000 284.880000 C 125.450000 284.880000 125.450000 284.880000 125.450000 284.880000 C 131.210000 271.110000 135.550000 248.820000 135.260000 233.900000 L 180.590000 233.420000 C 186.640000 260.570000 172.660000 292.130000 174.030000 292.280000 C 175.390000 292.420000 190.580000 293.440000 191.490000 292.150000 C 192.400000 290.870000 184.250000 288.220000 183.050000 285.250000 Z"/><path fill="rgb(174, 0, 107)" d=" M 121.440000 221.280000 C 121.600000 222.440000 121.780000 223.600000 121.980000 224.760000 C 122.360000 226.910000 190.080000 226.840000 190.020000 225.980000 C 189.120000 211.650000 188.470000 197.360000 188.470000 183.020000 C 188.470000 173.380000 189.100000 163.810000 189.160000 154.090000 C 189.210000 147.530000 188.590000 140.670000 185.150000 135.090000 C 176.450000 121.000000 147.740000 118.910000 134.820000 127.530000 C 121.360000 136.500000 120.970000 160.380000 120.510000 174.730000 C 119.950000 192.320000 119.310000 205.590000 121.440000 221.280000 Z"/><path fill="rgb(116, 0, 79)" d=" M 183.330000 132.630000 C 183.310000 132.610000 183.290000 132.590000 183.280000 132.570000 C 180.520000 129.440000 176.670000 127.050000 172.260000 125.370000 C 172.220000 125.360000 172.180000 125.340000 172.150000 125.330000 C 171.640000 125.140000 171.130000 124.960000 170.610000 124.790000 C 170.580000 124.780000 170.550000 124.760000 170.510000 124.750000 C 170.060000 124.600000 169.600000 124.470000 169.140000 124.330000 C 168.840000 124.250000 168.540000 124.170000 168.240000 124.080000 C 157.340000 121.160000 144.350000 122.100000 136.240000 126.660000 C 135.760000 126.940000 135.280000 127.220000 134.820000 127.530000 L 134.820000 127.530000 L 134.820000 127.530000 C 126.980000 132.760000 123.580000 143.050000 122.010000 153.570000 C 123.280000 153.890000 124.270000 154.110000 124.490000 154.150000 C 129.890000 155.250000 135.320000 156.150000 140.780000 156.850000 C 151.510000 158.230000 162.340000 158.820000 173.150000 158.630000 C 178.490000 158.530000 183.950000 158.200000 189.130000 156.960000 C 189.140000 156.000000 189.160000 155.050000 189.160000 154.090000 C 189.200000 147.530000 188.590000 140.670000 185.140000 135.090000 C 184.610000 134.220000 184.000000 133.410000 183.330000 132.630000 Z"/><path fill="rgb(161, 99, 87)" d=" M 171.720000 139.170000 C 187.810000 138.030000 199.880000 129.070000 206.170000 112.130000 C 208.730000 105.240000 209.930000 97.820000 210.170000 90.400000 C 210.230000 88.830000 210.350000 73.970000 208.990000 73.690000 C 175.020000 66.740000 140.230000 64.720000 105.790000 67.700000 C 105.460000 85.420000 105.510000 104.570000 114.940000 118.900000 C 121.080000 128.230000 129.890000 133.650000 139.970000 136.600000 C 149.490000 139.380000 161.190000 139.910000 171.720000 139.170000 Z"/><path fill="rgb(93, 0, 69)" d=" M 151.390000 93.860000 C 152.280000 95.580000 152.800000 97.510000 152.910000 99.470000 C 155.290000 99.090000 176.550000 100.800000 176.710000 100.170000 C 177.310000 97.670000 178.190000 95.090000 178.150000 92.520000 C 178.680000 95.580000 179.210000 98.650000 179.730000 101.710000 C 189.730000 101.960000 195.990000 100.890000 204.090000 100.590000 C 205.020000 100.500000 205.320000 68.590000 204.540000 68.530000 C 189.210000 67.270000 173.840000 66.700000 158.460000 66.840000 C 150.940000 66.910000 143.420000 67.140000 135.910000 67.540000 C 130.200000 67.850000 120.990000 67.710000 115.180000 68.410000 C 114.830000 68.450000 118.600000 97.920000 119.180000 100.560000 C 127.700000 100.600000 140.000000 100.500000 148.530000 100.540000 C 149.460000 98.280000 150.390000 96.020000 151.330000 93.760000 C 151.350000 93.790000 151.370000 93.830000 151.390000 93.860000 Z"/><path fill="rgb(67, 0, 54)" d=" M 136.550000 104.980000 C 136.450000 104.180000 135.950000 103.430000 134.890000 103.060000 C 132.230000 102.130000 130.570000 106.020000 132.790000 107.540000 C 134.890000 108.980000 136.790000 106.830000 136.550000 104.980000 Z"/><path fill="rgb(67, 0, 54)" d=" M 199.310000 104.980000 C 199.210000 104.180000 198.710000 103.430000 197.650000 103.060000 C 194.990000 102.130000 193.330000 106.020000 195.550000 107.540000 C 197.650000 108.980000 199.550000 106.830000 199.310000 104.980000 Z"/><path fill="rgb(209, 143, 117)" d=" M 172.940000 119.540000 C 171.280000 119.560000 169.620000 119.570000 167.950000 119.590000 C 167.500000 119.590000 166.970000 119.560000 166.690000 119.210000 C 166.470000 118.920000 166.480000 118.510000 166.510000 118.150000 C 166.830000 113.620000 167.150000 109.090000 167.470000 104.560000 C 168.560000 104.500000 170.070000 104.500000 170.070000 104.500000 C 170.350000 108.510000 170.290000 112.550000 169.880000 116.540000 C 170.900000 116.550000 171.920000 116.550000 172.940000 116.550000 C 172.940000 117.550000 172.940000 118.550000 172.940000 119.540000 Z"/><path fill="rgb(255, 255, 255)" d=" M 181.810000 123.770000 C 181.850000 123.830000 181.900000 123.890000 181.930000 123.960000 C 182.560000 125.030000 182.240000 126.440000 181.520000 127.450000 C 180.420000 128.990000 177.610000 130.410000 175.850000 131.060000 C 170.900000 132.910000 165.210000 133.070000 160.340000 130.880000 C 158.240000 129.930000 154.090000 125.970000 156.950000 123.510000 C 157.950000 122.650000 159.540000 122.740000 160.630000 123.500000 C 164.880000 126.460000 169.190000 128.220000 174.040000 125.140000 C 175.310000 124.330000 176.490000 123.320000 177.920000 122.860000 C 179.270000 122.410000 180.990000 122.640000 181.810000 123.770000 Z"/><path fill="rgb(255, 255, 255)" d=" M 193.410000 90.560000 C 195.460000 87.570000 197.360000 84.470000 199.110000 81.290000 L 129.120000 80.970000 C 130.950000 83.560000 132.780000 86.160000 134.600000 88.750000 C 135.360000 89.820000 136.130000 90.910000 136.650000 92.110000 C 137.880000 90.370000 138.990000 88.540000 139.980000 86.650000 L 190.140000 86.220000 C 191.230000 87.670000 192.320000 89.120000 193.410000 90.560000 Z"/><path fill="rgb(224, 112, 116)" d=" M 123.810000 119.580000 C 124.260000 120.230000 125.060000 120.680000 126.170000 120.640000 C 127.970000 120.580000 129.300000 118.460000 128.370000 116.880000 C 127.850000 115.980000 126.680000 115.570000 125.670000 115.780000 C 123.440000 116.240000 122.920000 118.300000 123.810000 119.580000 Z"/><path fill="rgb(224, 112, 116)" d=" M 199.430000 119.950000 C 202.610000 121.040000 202.880000 115.990000 200.180000 116.280000 C 198.410000 116.470000 197.490000 119.290000 199.430000 119.950000 Z"/><path fill="rgb(94, 218, 167)" d=" M 212.960000 51.680000 C 217.140000 52.770000 221.030000 54.990000 224.090000 58.060000 C 223.140000 58.950000 222.180000 59.850000 221.230000 60.750000 C 224.840000 66.010000 227.610000 71.850000 229.390000 77.980000 C 227.500000 77.770000 225.560000 77.970000 223.750000 78.560000 C 225.000000 85.400000 225.060000 92.470000 223.910000 99.330000 C 223.660000 98.960000 221.250000 98.750000 217.240000 98.550000"/><path fill="rgb(253, 197, 9)" d=" M 188.850000 26.140000 L 198.640000 7.430000 C 199.240000 6.280000 200.670000 5.860000 201.780000 6.510000 C 211.600000 12.330000 220.670000 19.690000 228.630000 28.300000 C 229.600000 29.350000 229.790000 30.920000 229.100000 32.180000 C 225.420000 38.970000 220.530000 45.050000 216.190000 51.680000"/><path fill="rgb(254, 228, 164)" d=" M 198.960000 32.450000 C 199.810000 31.270000 200.660000 30.090000 201.520000 28.910000 C 202.390000 27.700000 203.300000 26.450000 204.510000 25.660000 C 205.720000 24.870000 207.320000 24.620000 208.520000 25.450000 C 209.680000 26.250000 210.190000 27.900000 210.080000 29.410000 C 209.970000 30.920000 209.340000 32.330000 208.660000 33.640000 C 208.160000 34.600000 207.630000 35.530000 207.100000 36.470000 C 206.830000 36.950000 206.550000 37.430000 206.280000 37.910000 C 206.250000 37.970000 206.210000 38.040000 206.230000 38.110000"/><path fill="rgb(94, 218, 167)" d=" M 94.970000 51.680000 C 90.780000 52.770000 86.070000 55.600000 83.000000 58.660000 C 84.410000 59.470000 85.740000 59.850000 86.700000 60.750000 C 83.080000 66.010000 80.310000 73.660000 78.530000 79.800000 C 80.420000 79.590000 82.360000 79.780000 84.170000 80.370000 C 82.920000 87.220000 82.860000 92.470000 84.010000 99.330000 C 84.260000 98.960000 90.830000 98.750000 94.840000 98.550000"/><path fill="rgb(253, 197, 9)" d=" M 128.700000 26.140000 L 118.000000 7.560000 C 117.280000 6.310000 115.700000 5.840000 114.430000 6.520000 C 103.660000 12.310000 93.710000 19.640000 84.970000 28.210000 C 83.860000 29.290000 83.650000 31.020000 84.450000 32.350000 C 88.490000 39.070000 93.830000 45.100000 98.580000 51.680000"/><path fill="rgb(254, 228, 164)" d=" M 120.320000 27.320000 C 119.380000 26.130000 118.440000 24.950000 117.500000 23.770000 C 116.540000 22.560000 115.540000 21.320000 114.200000 20.530000 C 112.870000 19.740000 111.100000 19.480000 109.790000 20.310000 C 108.510000 21.110000 107.950000 22.760000 108.070000 24.270000 C 108.190000 25.790000 108.880000 27.190000 109.630000 28.510000 C 110.180000 29.460000 110.760000 30.400000 111.350000 31.330000 C 111.650000 31.810000 111.950000 32.290000 112.250000 32.770000 C 112.290000 32.830000 112.330000 32.900000 112.310000 32.970000"/><path fill="rgb(253, 197, 9)" d=" M 88.480000 72.700000 C 88.030000 80.940000 89.030000 89.330000 91.150000 97.390000 C 91.600000 99.120000 95.270000 112.800000 97.160000 112.720000 C 100.620000 112.570000 109.810000 112.420000 114.520000 112.270000 C 115.320000 112.240000 115.920000 111.540000 115.830000 110.750000 C 115.260000 105.930000 113.970000 91.490000 113.380000 86.230000 C 113.260000 85.170000 114.070000 84.220000 115.130000 84.170000 C 148.200000 82.350000 173.740000 81.700000 206.850000 83.980000 C 207.390000 84.020000 207.820000 84.470000 207.830000 85.020000 C 207.970000 93.750000 208.050000 103.480000 206.380000 111.990000 C 207.600000 112.070000 216.620000 112.430000 217.130000 110.790000 C 223.800000 89.060000 225.010000 59.320000 210.000000 40.670000 C 194.800000 21.790000 172.760000 15.910000 149.310000 17.810000 C 132.750000 19.160000 116.750000 22.570000 104.720000 34.810000 C 94.820000 44.890000 89.250000 58.640000 88.480000 72.700000 Z"/><path fill="rgb(10, 79, 83)" d=" M 114.760000 52.890000 C 114.950000 53.120000 115.180000 53.330000 115.460000 53.510000 C 119.430000 56.050000 123.020000 49.850000 118.680000 47.770000 C 115.630000 46.310000 112.820000 50.580000 114.760000 52.890000 Z"/><path fill="rgb(10, 79, 83)" d=" M 206.650000 49.660000 C 202.500000 49.190000 201.800000 55.860000 205.850000 56.110000 C 209.610000 56.350000 210.530000 50.090000 206.650000 49.660000 Z"/><path fill="rgb(14, 112, 126)" d=" M 170.440000 64.390000 C 175.850000 64.840000 181.270000 65.150000 186.700000 65.320000 C 186.570000 67.510000 186.440000 69.690000 186.310000 71.880000 C 186.280000 72.430000 186.240000 73.020000 185.950000 73.500000 C 185.720000 73.890000 185.350000 74.170000 184.970000 74.420000 C 179.600000 78.120000 172.020000 78.350000 165.700000 77.980000 C 162.220000 77.770000 158.760000 77.200000 155.400000 76.280000 C 154.200000 75.950000 146.660000 74.120000 146.450000 72.870000 C 145.990000 70.170000 146.300000 67.450000 146.180000 64.710000 C 149.420000 64.910000 151.200000 64.680000 153.900000 64.840000 C 157.010000 65.030000 160.110000 65.120000 163.220000 65.120000 C 163.170000 63.110000 162.810000 40.530000 162.470000 40.530000 C 162.920000 40.530000 169.400000 40.850000 169.400000 40.940000 C 169.750000 48.760000 170.090000 56.580000 170.440000 64.390000 Z"/><path fill="rgb(14, 112, 126)" d=" M 168.070000 82.530000 C 168.830000 82.530000 169.140000 76.970000 169.290000 74.330000 C 168.650000 74.310000 166.170000 74.120000 165.570000 74.330000 C 165.870000 76.610000 167.310000 82.530000 168.070000 82.530000 Z"/><path fill="rgb(14, 112, 126)" d=" M 88.530000 73.620000 C 88.370000 77.650000 88.540000 81.720000 89.010000 85.760000 C 93.700000 83.140000 98.480000 80.720000 103.340000 78.480000 C 98.410000 76.860000 93.470000 75.240000 88.530000 73.620000 Z"/><path fill="rgb(14, 112, 126)" d=" M 90.270000 93.460000 C 90.560000 94.860000 90.870000 96.250000 91.220000 97.620000 C 91.300000 97.930000 91.480000 98.630000 91.740000 99.560000 C 95.590000 97.700000 99.500000 95.970000 103.470000 94.410000 C 99.090000 93.870000 94.680000 93.550000 90.270000 93.460000 Z"/><path fill="rgb(14, 112, 126)" d=" M 221.270000 81.510000 C 221.300000 79.820000 221.280000 78.130000 221.220000 76.440000 C 219.150000 77.120000 217.070000 77.800000 215.000000 78.480000 C 217.110000 79.450000 219.200000 80.470000 221.270000 81.510000 Z"/><path fill="rgb(14, 112, 126)" d=" M 219.940000 96.510000 C 220.070000 95.630000 220.210000 94.750000 220.320000 93.860000 C 218.500000 94.000000 216.690000 94.190000 214.870000 94.410000 C 216.570000 95.080000 218.260000 95.780000 219.940000 96.510000 Z"/><path d=" M 96.700000 53.220000 C 96.300000 54.330000 95.830000 55.080000 95.400000 56.350000"/><path d=" M 99.460000 57.150000 C 99.160000 57.960000 98.550000 59.470000 98.250000 60.570000"/><path d=" M 95.650000 60.190000 C 95.050000 61.580000 94.740000 62.990000 94.540000 64.100000"/><path d=" M 215.800000 58.000000 C 216.040000 58.960000 216.640000 60.880000 216.840000 62.390000"/><path d=" M 216.760000 65.530000 C 217.240000 66.620000 217.590000 68.580000 217.440000 68.130000"/><path d=" M 213.890000 62.280000 C 214.100000 62.990000 214.300000 63.690000 214.500000 64.400000"/><path d=" M 97.500000 64.350000 C 97.310000 65.560000 97.200000 65.160000 97.080000 66.870000"/><path d=" M 214.980000 68.530000 C 214.680000 67.870000 215.680000 69.940000 215.480000 71.450000"/><path fill="rgb(14, 112, 126)" d=" M 181.220000 20.950000 C 182.000000 19.780000 182.950000 18.730000 184.050000 17.850000 C 180.270000 16.800000 176.360000 16.200000 172.430000 16.060000 C 172.890000 15.300000 173.570000 14.670000 174.360000 14.270000 C 170.420000 14.470000 166.490000 14.790000 162.570000 15.220000 C 163.340000 14.350000 164.110000 13.480000 164.880000 12.610000 C 160.260000 13.940000 155.750000 15.630000 151.400000 17.670000 C 150.700000 17.710000 150.010000 17.760000 149.310000 17.810000 C 146.650000 18.030000 144.000000 18.300000 141.380000 18.650000 C 146.000000 22.610000 149.770000 27.580000 152.280000 33.150000 C 154.500000 30.550000 156.730000 27.960000 158.950000 25.370000 C 160.680000 29.140000 162.410000 32.910000 164.130000 36.690000 C 166.750000 32.960000 169.760000 29.510000 173.080000 26.400000 C 174.990000 29.520000 177.490000 32.270000 180.420000 34.460000 C 180.950000 30.120000 182.230000 25.880000 184.160000 21.960000 C 183.190000 21.600000 182.210000 21.270000 181.220000 20.950000 Z M 181.070000 20.910000 C 181.120000 20.820000 181.170000 20.720000 181.220000 20.630000 C 181.180000 20.730000 181.140000 20.820000 181.100000 20.920000 C 181.090000 20.910000 181.080000 20.910000 181.070000 20.910000 Z"/><path fill="rgb(161, 99, 87)" d=" M 137.550000 162.950000 C 138.250000 168.000000 138.000000 166.600000 138.910000 171.620000 C 139.610000 175.460000 140.120000 177.910000 143.200000 180.510000 C 145.450000 182.400000 148.660000 183.170000 151.440000 183.200000 C 155.670000 183.240000 161.840000 181.700000 169.560000 178.430000 C 171.810000 177.470000 174.000000 176.370000 176.310000 175.600000 C 178.620000 174.820000 181.090000 174.380000 183.480000 174.810000 C 188.240000 175.660000 190.380000 181.890000 190.850000 186.580000 C 190.890000 187.020000 190.930000 187.470000 190.840000 187.900000 C 190.770000 188.240000 190.600000 188.600000 190.300000 188.750000 C 189.860000 188.980000 189.310000 188.710000 189.030000 188.290000 C 188.750000 187.870000 188.680000 187.350000 188.590000 186.850000 C 188.390000 185.700000 187.570000 183.200000 186.990000 182.210000 C 186.490000 181.340000 185.950000 180.030000 185.190000 181.060000 C 185.000000 181.340000 185.060000 181.720000 185.140000 182.050000 C 185.540000 183.790000 187.160000 187.330000 186.890000 189.120000 C 186.820000 189.590000 186.580000 190.140000 186.120000 190.160000 C 185.920000 190.170000 185.730000 190.070000 185.570000 189.940000 C 184.880000 189.390000 184.590000 188.480000 184.390000 187.610000 C 184.110000 186.420000 182.740000 181.660000 181.910000 181.850000 C 181.370000 181.970000 181.380000 182.650000 181.390000 182.910000 C 181.460000 183.960000 182.220000 186.980000 182.510000 187.980000 C 182.790000 188.990000 182.940000 190.110000 182.520000 191.070000 C 182.440000 191.270000 182.320000 191.460000 182.140000 191.590000 C 181.810000 191.820000 181.350000 191.730000 181.040000 191.480000 C 180.720000 191.230000 180.530000 190.850000 180.390000 190.470000 C 179.810000 188.850000 179.350000 183.090000 178.310000 183.380000 C 177.430000 183.630000 177.770000 184.680000 177.920000 185.440000 C 178.160000 186.680000 179.180000 189.540000 178.670000 190.780000 C 178.300000 191.670000 177.140000 191.330000 176.730000 190.680000 C 175.720000 189.110000 176.970000 184.570000 173.640000 186.050000 C 170.280000 187.550000 165.120000 190.230000 160.630000 191.180000 C 155.900000 192.190000 150.900000 193.200000 146.090000 192.500000 C 142.570000 191.980000 139.130000 190.670000 136.360000 188.320000 C 133.800000 186.160000 132.210000 182.630000 131.250000 179.280000 C 130.070000 175.170000 129.300000 171.090000 128.780000 166.860000 C 128.240000 162.500000 128.420000 164.350000 128.130000 160.250000 C 127.960000 157.890000 127.730000 154.620000 130.030000 153.230000 C 132.230000 151.910000 136.100000 153.220000 136.860000 155.730000 C 137.100000 156.540000 137.300000 161.230000 137.550000 162.950000 Z"/><path fill="rgb(253, 197, 9)" d=" M 152.860000 183.210000 C 152.370000 183.240000 151.890000 183.260000 151.440000 183.260000 C 148.660000 183.230000 145.450000 182.460000 143.200000 180.580000 C 140.120000 178.010000 139.610000 175.570000 138.910000 171.760000 C 138.000000 166.770000 138.250000 168.160000 137.550000 163.140000 C 137.400000 162.110000 137.270000 160.020000 137.130000 158.340000 C 137.040000 157.220000 137.220000 153.990000 137.220000 152.560000 C 137.220000 149.950000 132.780000 148.240000 130.390000 150.070000 C 128.380000 151.600000 127.970000 156.920000 128.040000 159.010000 C 128.060000 159.510000 128.100000 160.000000 128.130000 160.460000 C 128.420000 164.540000 128.240000 162.690000 128.780000 167.020000 C 129.300000 171.230000 130.080000 175.280000 131.260000 179.370000 C 132.210000 182.700000 133.800000 186.200000 136.360000 188.360000 C 139.130000 190.690000 142.580000 191.990000 146.090000 192.500000 C 148.740000 192.890000 151.450000 192.750000 154.140000 192.380000 C 153.590000 189.350000 153.240000 186.270000 152.860000 183.210000 Z"/><path fill="rgb(14, 112, 126)" d=" M 144.960000 181.630000 L 141.760000 191.350000 C 143.240000 191.890000 144.780000 192.280000 146.330000 192.500000 C 146.770000 192.560000 147.200000 192.600000 147.640000 192.630000 L 148.970000 182.990000 C 147.580000 182.740000 146.200000 182.300000 144.960000 181.630000 Z"/><path fill="rgb(14, 112, 126)" d=" M 140.350000 176.710000 L 131.750000 180.780000 C 132.560000 183.130000 133.710000 185.440000 135.310000 187.220000 L 142.930000 180.190000 C 141.670000 179.060000 140.890000 177.940000 140.350000 176.710000 Z"/><path fill="rgb(14, 112, 126)" d=" M 139.060000 171.780000 C 138.710000 169.880000 138.530000 168.910000 138.400000 168.160000 L 129.190000 169.860000 C 129.430000 171.390000 129.720000 172.900000 130.050000 174.400000 L 139.240000 172.700000 C 139.180000 172.400000 139.120000 172.100000 139.060000 171.780000 Z"/><path fill="rgb(14, 112, 126)" d=" M 137.250000 158.370000 L 128.040000 159.040000 C 128.060000 159.550000 128.100000 160.040000 128.130000 160.500000 C 128.270000 162.510000 128.300000 163.070000 128.360000 163.660000 L 137.650000 162.980000 C 137.510000 161.900000 137.380000 159.960000 137.250000 158.370000 Z"/><path fill="rgb(253, 197, 9)" d=" M 188.960000 205.730000 C 170.150000 207.190000 151.000000 206.530000 132.220000 205.390000 C 128.710000 205.180000 125.190000 204.920000 121.680000 204.630000 C 121.340000 204.610000 120.760000 204.500000 120.070000 204.370000 C 120.180000 208.090000 120.400000 211.800000 120.780000 215.620000 C 132.640000 216.600000 144.530000 217.170000 156.430000 217.300000 C 166.430000 217.420000 176.470000 217.950000 186.440000 216.970000 C 187.450000 216.870000 188.460000 216.760000 189.470000 216.620000 C 189.280000 212.990000 189.110000 209.360000 188.960000 205.730000 Z"/><path fill="rgb(67, 0, 54)" d=" M 133.780000 291.750000 C 134.310000 290.290000 126.720000 287.740000 125.660000 284.610000 C 125.660000 284.610000 125.660000 284.610000 125.660000 284.610000 C 126.110000 283.500000 126.550000 282.330000 126.980000 281.130000 C 124.470000 281.200000 120.490000 281.290000 117.980000 281.410000 C 115.690000 287.940000 114.090000 291.880000 114.820000 291.930000 C 117.070000 292.080000 133.250000 293.200000 133.780000 291.750000 Z"/><path fill="rgb(67, 0, 54)" d=" M 183.260000 285.000000 C 183.630000 283.910000 183.980000 282.800000 184.310000 281.690000 C 181.890000 281.470000 177.980000 281.420000 175.550000 281.380000 C 173.740000 288.010000 172.270000 292.200000 172.760000 292.250000 C 174.120000 292.400000 190.780000 293.460000 191.690000 292.130000 C 192.600000 290.800000 184.460000 288.060000 183.260000 285.000000 Z"/></svg>