<?xml version="1.0" standalone="no"?><!DOCTYPE svg PUBLIC "-//W3C//DTD SVG 1.1//EN" "http://www.w3.org/Graphics/SVG/1.1/DTD/svg11.dtd"><svg height="129" width="129" version="1.1" id="Mistletoe0.svg" xmlns:xlink="http://www.w3.org/1999/xlink" x="0px" y="0px" viewBox="0 0 300 300" enable-background="new 0 0 300 300" xml:space="preserve" xmlns="http://www.w3.org/2000/svg"><defs xmlns="http://www.w3.org/1999/xhtml"><style type="text/css"><![CDATA[
* { border: 0px; margin: 0px; padding: 0px; }
html { background-color: rgb(255, 255, 255); font-family: Verdana, Arial; }
.webgl-content * { position: absolute; width: 100%; height: 100%; user-select: none; }
.webgl-content .logo, .progress { position: absolute; left: 50%; top: 50%; transform: translate(-50%, -50%); }
.webgl-content .logo { background: url("progressLogo.Light.png") center center / contain no-repeat; width: 154px; height: 130px; }
.webgl-content .progress { height: 18px; width: 141px; margin-top: 90px; }
.webgl-content .progress .empty { background: url("progressEmpty.Light.png") right center / cover no-repeat; float: right; width: 100%; height: 100%; display: inline-block; }
.webgl-content .progress .full { background: url("progressFull.Light.png") left center / cover no-repeat; float: left; width: 0%; height: 100%; display: inline-block; }
.webgl-content .logo.Dark { background-image: url("progressLogo.Dark.png"); }
.webgl-content .progress.Dark .empty { background-image: url("progressEmpty.Dark.png"); }
.webgl-content .progress.Dark .full { background-image: url("progressFull.Dark.png"); }
#loading-content { z-index: 10000; position: fixed; width: 100%; height: 100%; left: 0px; top: 0px; overflow: hidden; background: url("background.png"); }
.hud-intro .hud-intro-social .btn-discord, .hud-respawn .hud-respawn-social .btn-discord { background-image: url("//lordz.io/images/discord-icon.png"); }
.hud-intro .hud-intro-social .btn-twitter, .hud-respawn .hud-respawn-social .btn-twitter { background-image: url("//lordz.io/images/twitter-icon.png"); }
.hud-intro .hud-intro-social .btn-facebook, .hud-respawn .hud-respawn-social .btn-facebook { background-image: url("//lordz.io/images/facebook-icon.png"); }
.hud-intro .hud-intro-social .btn-youtube, .hud-respawn .hud-respawn-social .btn-youtube { background-image: url("//lordz.io/images/youtube-icon.png"); }
* { box-sizing: border-box; user-select: none; }
.btn { position: relative; display: inline-block; top: 0px; height: 36px; line-height: 36px; padding: 0px 20px; background: rgb(68, 68, 68); color: rgb(238, 238, 238); border: 0px; font-size: 14px; vertical-align: top; text-align: center; text-decoration: none; text-shadow: rgba(0, 0, 0, 0.4) 0px 1px 0px; box-shadow: rgba(0, 0, 0, 0.2) 0px 2px 10px, rgb(51, 51, 51) 0px 4px 0px; border-radius: 4px; transition: all 0.15s ease-in-out 0s; }
.btn:hover, .btn:active { background-color: rgb(85, 85, 85); color: rgb(255, 255, 255); }
.btn:active { top: 4px; box-shadow: rgba(0, 0, 0, 0.2) 0px 2px 10px !important; }
.btn-green { background-color: rgb(71, 149, 13); box-shadow: rgba(0, 0, 0, 0.2) 0px 2px 10px, rgb(53, 131, 0) 0px 4px 0px; }
.btn-green:hover, .btn-green:active { background-color: rgb(100, 184, 32); }
.btn-red { background-color: rgb(179, 53, 60); box-shadow: rgba(0, 0, 0, 0.2) 0px 2px 10px, rgb(161, 35, 42) 0px 4px 0px; }
.btn-red:hover, .btn-red:active { background-color: rgb(203, 87, 91); }
.btn-blue { background-color: rgb(29, 141, 238); box-shadow: rgba(0, 0, 0, 0.2) 0px 2px 10px, rgb(11, 123, 220) 0px 4px 0px; }
.btn-blue:hover, .btn-blue:active { background-color: rgb(79, 167, 238); }
.btn-purple { background-color: rgb(114, 55, 228); box-shadow: rgba(0, 0, 0, 0.2) 0px 2px 10px, rgb(96, 37, 210) 0px 4px 0px; }
.btn-purple:hover, .btn-purple:active { background-color: rgb(130, 89, 228); }
.btn-twitter { background-color: rgb(27, 149, 224); box-shadow: rgba(0, 0, 0, 0.2) 0px 2px 10px, rgb(9, 131, 206) 0px 4px 0px; }
.btn-twitter:hover, .btn-twitter:active { background-color: rgb(12, 122, 191); }
.btn-facebook { background-color: rgb(66, 103, 178); box-shadow: rgba(0, 0, 0, 0.2) 0px 2px 10px, rgb(48, 85, 160) 0px 4px 0px; }
.btn-facebook:hover, .btn-facebook:active { background-color: rgb(54, 88, 153); }
.btn-google { background-color: rgb(221, 75, 57); box-shadow: rgba(0, 0, 0, 0.2) 0px 2px 10px, rgb(203, 57, 39) 0px 4px 0px; }
.btn-google:hover, .btn-google:active { background-color: rgb(186, 63, 49); }
.btn-discord { background-color: rgb(114, 137, 218); box-shadow: rgba(0, 0, 0, 0.2) 0px 2px 10px, rgb(96, 119, 200) 0px 4px 0px; }
.btn-discord:hover, .btn-discord:active { background-color: rgb(90, 109, 176); }
.btn-youtube { background-color: rgb(229, 45, 39); box-shadow: rgba(0, 0, 0, 0.2) 0px 2px 10px, rgb(211, 27, 21) 0px 4px 0px; }
.btn-youtube:hover, .btn-youtube:active { background-color: rgb(186, 37, 33); }
.hud { position: fixed; top: 0px; left: 0px; bottom: 0px; right: 0px; }
.hud .hud-bottom-left { display: flex; position: absolute; bottom: 20px; left: 20px; flex-direction: column-reverse; }
.hud-intro .hud-intro-corner-bottom-left, .hud-respawn .hud-respawn-corner-bottom-left { position: fixed; bottom: 20px; left: 20px; text-align: left; }
.hud-intro .hud-intro-social, .hud-respawn .hud-respawn-social { width: 240px; line-height: 24px; font-size: 14px; color: rgb(119, 119, 119); }
.hud-intro .hud-intro-social .btn, .hud-respawn .hud-respawn-social .btn { display: block; float: left; margin: 0px 10px 0px 0px; width: 40px; height: 40px; line-height: 40px; background-size: 24px; background-position: center center; background-repeat: no-repeat; }
.hud-intro .hud-intro-more-games { position: relative; bottom: 5px; line-height: 20px; font-size: 14px; color: rgba(255, 255, 255, 0.4); text-shadow: rgba(0, 0, 0, 0.2) 0px 1px 3px; }
.hud-intro .hud-intro-more-games a { display: inline-block; padding: 0px 20px; line-height: 40px; background: rgb(132, 115, 212); color: rgb(238, 238, 238); text-decoration: none; border-radius: 4px; transition: all 0.15s ease-in-out 0s; }
.hud-intro .hud-intro-more-games a:hover, .hud-intro .hud-intro-more-games a:active { background: rgb(103, 90, 166); }
#preroll video { left: 0px; top: 0px; }
.fb_hidden { position: absolute; top: -10000px; z-index: 10001; }
.fb_reposition { overflow: hidden; position: relative; }
.fb_invisible { display: none; }
.fb_reset { background: none; border: 0px; border-spacing: 0px; color: rgb(0, 0, 0); cursor: auto; direction: ltr; font-family: "lucida grande", tahoma, verdana, arial, sans-serif; font-size: 11px; font-style: normal; font-variant: normal; font-weight: normal; letter-spacing: normal; line-height: 1; margin: 0px; overflow: visible; padding: 0px; text-align: left; text-decoration: none; text-indent: 0px; text-shadow: none; text-transform: none; visibility: visible; white-space: normal; word-spacing: normal; }
.fb_animate { animation: 0.3s ease 0s 1 normal forwards running fb_transform; }
.fb_dialog { background: rgba(82, 82, 82, 0.7); position: absolute; top: -10000px; z-index: 10001; }
.fb_dialog_advanced { border-radius: 8px; padding: 10px; }
.fb_dialog_content { background: rgb(255, 255, 255); color: rgb(55, 55, 55); }
.fb_dialog_close_icon { background: url("https://static.xx.fbcdn.net/rsrc.php/v3/yq/r/IE9JII6Z1Ys.png") 0px 0px no-repeat scroll transparent; cursor: pointer; display: block; height: 15px; position: absolute; right: 18px; top: 17px; width: 15px; }
.fb_dialog_mobile .fb_dialog_close_icon { left: 5px; right: auto; top: 5px; }
.fb_dialog_padding { background-color: transparent; position: absolute; width: 1px; z-index: -1; }
.fb_dialog_close_icon:hover { background: url("https://static.xx.fbcdn.net/rsrc.php/v3/yq/r/IE9JII6Z1Ys.png") 0px -15px no-repeat scroll transparent; }
.fb_dialog_close_icon:active { background: url("https://static.xx.fbcdn.net/rsrc.php/v3/yq/r/IE9JII6Z1Ys.png") 0px -30px no-repeat scroll transparent; }
.fb_dialog_iframe { line-height: 0; }
.fb_dialog_content .dialog_title { background: rgb(109, 132, 180); border: 1px solid rgb(54, 88, 153); color: rgb(255, 255, 255); font-size: 14px; font-weight: bold; margin: 0px; }
body.fb_hidden { height: 100%; left: 0px; margin: 0px; overflow: visible; position: absolute; top: -10000px; transform: none; width: 100%; }
.fb_dialog.fb_dialog_mobile.loading { background: url("https://static.xx.fbcdn.net/rsrc.php/v3/ya/r/3rhSv5V8j3o.gif") 50% 50% no-repeat white; min-height: 100%; min-width: 100%; overflow: hidden; position: absolute; top: 0px; z-index: 10001; }
.fb_dialog.fb_dialog_mobile.loading.centered { background: none; height: auto; min-height: initial; min-width: initial; width: auto; }
.fb_dialog.fb_dialog_mobile.loading.centered #fb_dialog_loader_spinner { width: 100%; }
.fb_dialog.fb_dialog_mobile.loading.centered .fb_dialog_content { background: none; }
.loading.centered #fb_dialog_loader_close { clear: both; color: rgb(255, 255, 255); display: block; font-size: 18px; padding-top: 20px; }
#fb-root #fb_dialog_ipad_overlay { background: rgba(0, 0, 0, 0.4); bottom: 0px; left: 0px; min-height: 100%; position: absolute; right: 0px; top: 0px; width: 100%; z-index: 10000; }
#fb-root #fb_dialog_ipad_overlay.hidden { display: none; }
.fb_dialog.fb_dialog_mobile.loading iframe { visibility: hidden; }
.fb_dialog_mobile .fb_dialog_iframe { position: sticky; top: 0px; }
.fb_dialog_content .dialog_header { border-bottom: 1px solid rgb(4, 59, 135); border-top-color: rgb(4, 59, 135); border-right-color: rgb(4, 59, 135); border-left-color: rgb(4, 59, 135); box-shadow: white 0px 1px 1px -1px inset; color: rgb(255, 255, 255); font: bold 14px Helvetica, sans-serif; text-overflow: ellipsis; text-shadow: rgba(0, 30, 84, 0.298) 0px -1px 0px; vertical-align: middle; white-space: nowrap; }
.fb_dialog_content .dialog_header table { height: 43px; width: 100%; }
.fb_dialog_content .dialog_header td.header_left { font-size: 12px; padding-left: 5px; vertical-align: middle; width: 60px; }
.fb_dialog_content .dialog_header td.header_right { font-size: 12px; padding-right: 5px; vertical-align: middle; width: 60px; }
.fb_dialog_content .touchable_button { background-clip: padding-box; border: 1px solid rgb(41, 72, 125); border-radius: 3px; display: inline-block; line-height: 18px; margin-top: 3px; max-width: 85px; padding: 4px 12px; position: relative; }
.fb_dialog_content .dialog_header .touchable_button input { background: none; border: none; color: rgb(255, 255, 255); font: bold 12px Helvetica, sans-serif; margin: 2px -12px; padding: 2px 6px 3px; text-shadow: rgba(0, 30, 84, 0.298) 0px -1px 0px; }
.fb_dialog_content .dialog_header .header_center { color: rgb(255, 255, 255); font-size: 16px; font-weight: bold; line-height: 18px; text-align: center; vertical-align: middle; }
.fb_dialog_content .dialog_content { background: url("https://static.xx.fbcdn.net/rsrc.php/v3/y9/r/jKEcVPZFk-2.gif") 50% 50% no-repeat; border-width: 0px 1px; border-right-style: solid; border-left-style: solid; border-right-color: rgb(74, 74, 74); border-left-color: rgb(74, 74, 74); border-image: initial; border-bottom-style: initial; border-bottom-color: initial; border-top-style: initial; border-top-color: initial; height: 150px; }
.fb_dialog_content .dialog_footer { background: rgb(245, 246, 247); border-width: 1px; border-style: solid; border-color: rgb(204, 204, 204) rgb(74, 74, 74) rgb(74, 74, 74); border-image: initial; height: 40px; }
#fb_dialog_loader_close { float: left; }
.fb_dialog.fb_dialog_mobile .fb_dialog_close_button { text-shadow: rgba(0, 30, 84, 0.298) 0px -1px 0px; }
.fb_dialog.fb_dialog_mobile .fb_dialog_close_icon { visibility: hidden; }
#fb_dialog_loader_spinner { animation: 1.2s linear 0s infinite normal none running rotateSpinner; background-color: transparent; background-image: url("https://static.xx.fbcdn.net/rsrc.php/v3/yD/r/t-wz8gw1xG1.png"); background-position: 50% 50%; background-repeat: no-repeat; height: 24px; width: 24px; }
.fb_iframe_widget { display: inline-block; position: relative; }
.fb_iframe_widget span { display: inline-block; position: relative; text-align: justify; }
.fb_iframe_widget iframe { position: absolute; }
.fb_iframe_widget_fluid_desktop, .fb_iframe_widget_fluid_desktop span, .fb_iframe_widget_fluid_desktop iframe { max-width: 100%; }
.fb_iframe_widget_fluid_desktop iframe { min-width: 220px; position: relative; }
.fb_iframe_widget_lift { z-index: 1; }
.fb_iframe_widget_fluid { display: inline; }
.fb_iframe_widget_fluid span { width: 100%; }
.st0 { fill: rgb(119, 183, 73); }
.st1 { fill: rgb(247, 175, 47); }
.st2 { fill: rgb(233, 81, 15); }
.st3 { fill: url("#SVGID_1_"); }
.st4 { fill: url("#SVGID_2_"); }
.st5 { fill: rgb(252, 242, 119); }
.st6 { fill: url("#SVGID_3_"); }
.st7 { fill: url("#SVGID_4_"); }
.st8 { fill: url("#SVGID_5_"); }
.st9 { fill: url("#SVGID_6_"); }
.st10 { fill: url("#SVGID_7_"); }
.st11 { fill: url("#SVGID_8_"); }
.st12 { fill: url("#SVGID_9_"); }
.st13 { fill: url("#SVGID_10_"); }
.st14 { fill: url("#SVGID_11_"); }
.st15 { fill: url("#SVGID_12_"); }
.st16 { fill: url("#SVGID_13_"); }
.st17 { fill: url("#SVGID_14_"); }
.st18 { fill: url("#SVGID_15_"); }
.st19 { fill: url("#SVGID_16_"); }
.st0 { fill: rgb(119, 183, 73); }
.st1 { fill: rgb(247, 175, 47); }
.st2 { fill: rgb(233, 81, 15); }
.st3 { fill: url("#SVGID_1_"); }
.st4 { fill: url("#SVGID_2_"); }
.st5 { fill: rgb(252, 242, 119); }
.st6 { fill: url("#SVGID_3_"); }
.st7 { fill: url("#SVGID_4_"); }
.st8 { fill: url("#SVGID_5_"); }
.st9 { fill: url("#SVGID_6_"); }
.st10 { fill: url("#SVGID_7_"); }
.st11 { fill: url("#SVGID_8_"); }
.st12 { fill: url("#SVGID_9_"); }
.st13 { fill: url("#SVGID_10_"); }
.st14 { fill: url("#SVGID_11_"); }
.st15 { fill: url("#SVGID_12_"); }
.st16 { fill: url("#SVGID_13_"); }
.st17 { fill: url("#SVGID_14_"); }
.st18 { fill: url("#SVGID_15_"); }
.st19 { fill: url("#SVGID_16_"); }
.st0 { fill: rgb(119, 183, 73); }
.st1 { fill: rgb(247, 175, 47); }
.st2 { fill: rgb(233, 81, 15); }
.st3 { fill: url("#SVGID_1_"); }
.st4 { fill: url("#SVGID_2_"); }
.st5 { fill: rgb(252, 242, 119); }
.st6 { fill: url("#SVGID_3_"); }
.st7 { fill: url("#SVGID_4_"); }
.st8 { fill: url("#SVGID_5_"); }
.st9 { fill: url("#SVGID_6_"); }
.st10 { fill: url("#SVGID_7_"); }
.st11 { fill: url("#SVGID_8_"); }
.st12 { fill: url("#SVGID_9_"); }
.st13 { fill: url("#SVGID_10_"); }
.st14 { fill: url("#SVGID_11_"); }
.st15 { fill: url("#SVGID_12_"); }
.st16 { fill: url("#SVGID_13_"); }
.st17 { fill: url("#SVGID_14_"); }
.st18 { fill: url("#SVGID_15_"); }
.st19 { fill: url("#SVGID_16_"); }
.st0 { fill: rgb(119, 183, 73); }
.st1 { fill: rgb(247, 175, 47); }
.st2 { fill: rgb(233, 81, 15); }
.st3 { fill: url("#SVGID_1_"); }
.st4 { fill: url("#SVGID_2_"); }
.st5 { fill: rgb(252, 242, 119); }
.st6 { fill: url("#SVGID_3_"); }
.st7 { fill: url("#SVGID_4_"); }
.st8 { fill: url("#SVGID_5_"); }
.st9 { fill: url("#SVGID_6_"); }
.st10 { fill: url("#SVGID_7_"); }
.st11 { fill: url("#SVGID_8_"); }
.st12 { fill: url("#SVGID_9_"); }
.st13 { fill: url("#SVGID_10_"); }
.st14 { fill: url("#SVGID_11_"); }
.st15 { fill: url("#SVGID_12_"); }
.st16 { fill: url("#SVGID_13_"); }
.st17 { fill: url("#SVGID_14_"); }
.st18 { fill: url("#SVGID_15_"); }
.st19 { fill: url("#SVGID_16_"); }]]></style></defs><g>	<g>		<path fill="#097E8F" d="M181.9,140.7c3.1,0,6.2,0.4,9.2,1.3c3,0.8,5.9,2.2,8.5,3.9c0.7,0.4,1.3,0.9,1.9,1.3&#9;&#9;&#9;c0.6,0.5,1.2,1.1,1.6,1.9c0.2,0.4,0.3,0.8,0.3,1.3c0,0.5-0.2,0.9-0.6,1.3c-0.7,0.7-1.6,0.8-2.4,0.8c-3.2,0-6.3-0.8-9.2-2.2&#9;&#9;&#9;l0.4-0.8c2,0.8,3.9,1.8,5.6,3c0.9,0.6,1.7,1.3,2.5,2c0.8,0.7,1.6,1.4,2.1,2.5c0.2,0.5,0.4,1.2,0.1,1.9c-0.3,0.7-0.9,1.1-1.5,1.2&#9;&#9;&#9;c-0.6,0.1-1.2,0.1-1.7,0c-0.5-0.1-1.1-0.2-1.6-0.3c-2.1-0.5-4.1-1.5-5.8-2.8l0.5-0.7c2.6,1.5,5,3.4,7.1,5.4c0.5,0.5,1.1,1,1.6,1.6&#9;&#9;&#9;c0.5,0.6,0.9,1.3,1,2.2c0,0.9-0.5,1.7-1.2,2.1c-0.7,0.5-1.5,0.6-2.3,0.5c-0.8-0.1-1.5-0.3-2.2-0.6c-0.7-0.3-1.4-0.5-2.1-0.8&#9;&#9;&#9;c-1.4-0.6-2.7-1.3-3.9-2.1c-2.5-1.6-4.9-3.4-6.9-5.6c2.1,2.1,4.5,3.9,7.1,5.3c1.3,0.7,2.6,1.4,4,1.9c1.4,0.5,2.8,1.1,4.1,1.2&#9;&#9;&#9;c0.7,0,1.4-0.1,1.9-0.5c0.5-0.4,0.9-1,0.9-1.6c0-0.6-0.4-1.2-0.8-1.8c-0.5-0.5-1-1-1.5-1.5c-2.1-2-4.5-3.8-7-5.3l0.5-0.7&#9;&#9;&#9;c1.6,1.2,3.5,2.1,5.5,2.6c1,0.2,2,0.5,2.9,0.3c0.9-0.2,1.2-1,0.7-1.8c-0.4-0.8-1.1-1.5-1.9-2.2c-0.8-0.7-1.6-1.3-2.4-2&#9;&#9;&#9;c-1.7-1.2-3.5-2.2-5.4-3l0.4-0.8c2.7,1.4,5.7,2.2,8.8,2.2c0.7,0,1.5-0.1,1.9-0.5c0.4-0.4,0.5-1.1,0.2-1.7c-0.6-1.3-2-2.1-3.2-3&#9;&#9;&#9;C194.2,143,188.1,141,181.9,140.7z"/>	</g>	<g>		<path fill="#097E8F" d="M220.7,195.4c-0.3-0.4-0.7-0.1-1.2,0.1c-1.7,0.5-4.3,2.2-4.8,2.2c1.1-1.7,3.4-4.6,2.7-5.3&#9;&#9;&#9;c-2,0.1-3.9,1.3-4.9,3.1c1-1.8,1.5-3.8,1.5-5.8c-0.9-0.6-6.1,4.4-7.3,8c-0.2-1.3-1-3.4-1.5-3.4c-0.8,0-1.1,3-1.1,5.8&#9;&#9;&#9;c-3.6,5.5-18.4,27.2-22.8,23.7c-5.1-3.9-15.1-28.9-15.1-28.9l-8.5,13.1c0,0,9.5,38.6,22.7,35.8c11.8-2.5,30-30.9,33.6-36.7&#9;&#9;&#9;c2.5-3.1,4.7-6.5,6.6-10C220.9,196.7,221.2,195.9,220.7,195.4z"/>		<g>			<path fill="#22D4C2" d="M182.3,223.7c-0.4,1.9-0.7,3.7-0.7,5.6c-0.1,1.9,0.1,3.7,0.3,5.6c-1-1.7-1.3-3.7-1.3-5.7&#9;&#9;&#9;&#9;C180.7,227.3,181.3,225.3,182.3,223.7z"/>		</g>		<g>			<path fill="#22D4C2" d="M182,224.1c-1.2,1.2-2.3,2.3-3.3,3.6c-1,1.3-1.8,2.6-2.7,4c0.1-1.7,0.9-3.3,2-4.6&#9;&#9;&#9;&#9;C179,225.7,180.4,224.6,182,224.1z"/>		</g>	</g>	<g>		<path fill="#097E8F" d="M99.7,194.9c0,0-22.3,38.9-9.9,74.4c0.4,1.2,2.2-2.7,2.2-4.5s2.2,4.6,2.9,4.5c0.9-0.2,1-6,1.9-6.2&#9;&#9;&#9;c0.5-0.1,1,6.3,2.4,5.2c1.5-1.1,0.9-8.8,0.9-8.8s3.3,5.1,4,2.9s-4.9-10.4-4.9-10.4s-2.6-23.9,8.9-39.4c8.8-11.9,15-21.3,15-21.3&#9;&#9;&#9;l-12.1-6.6L99.7,194.9z"/>		<g>			<path fill="#22D4C2" d="M92.5,223c1.7,0.6,3.1,1.6,4.4,2.8c1.3,1.2,2.4,2.6,3.1,4.2c-1.3-1.1-2.5-2.3-3.8-3.5&#9;&#9;&#9;&#9;C95,225.3,93.8,224.2,92.5,223z"/>		</g>		<g>			<path fill="#22D4C2" d="M96.5,219.1c1,0.9,1.7,2,2.3,3.1c0.6,1.2,1,2.4,1.1,3.8c-0.8-1.1-1.4-2.2-2-3.3&#9;&#9;&#9;&#9;C97.4,221.5,96.8,220.4,96.5,219.1z"/>		</g>	</g>	<path fill="#097E8F" d="M115.5,238.6l2,54.6h12.5l-5.5-4.5c0,0,12.3-27.7,8.6-52.1L115.5,238.6z"/>	<path fill="#097E8F" d="M140.4,238.6l2,54.6h12.5l-5.5-4.5c0,0,12.3-27.7,8.6-52.1L140.4,238.6z"/>	<path fill="#FF4F56" d="M108.2,189.1c0,0-4.2,64.8,1.4,67.6c5.6,2.8,9.9-15.5,9.9-15.5s3.8,18.3,6.6,16.9&#9;&#9;c2.8-1.4,6.6-12.2,6.6-12.2s2.3,14.1,7,11.7c4.7-2.3,5.6-13.2,5.6-13.2s4.7,15,8.5,12.2s2.3-16,2.3-16s7.5,18.8,11.7,15.5&#9;&#9;c4.2-3.3-2.3-69.5-2.3-69.5L108.2,189.1z"/>	<path fill="#22D4C2" d="M201.6,176.9c-2.8-1.1-5.7-1.7-8.6-1.9c-2.9-0.2-5.9,0-8.8,0.7c-3,0.8-6,1.9-9.1,4.2&#9;&#9;c2.7,2.7,5.5,4.3,8.4,5.4c2.8,1.1,5.7,1.7,8.6,1.9c2.9,0.2,5.9,0,8.8-0.7c3-0.8,6-1.9,9.1-4.2C207.3,179.6,204.5,178.1,201.6,176.9&#9;&#9;z M185.1,186.7c-2.5-1.5-5.2-2.6-8.2-3.3c-3-0.7-6.2-1-10.1-0.3c0.5,1.8,1.2,3.3,2,4.7c-2.1-2-4.6-3.9-8.2-5.3&#9;&#9;c-1.1,3.5-1.1,6.6-0.8,9.4c0.4,2.8,1.3,5.5,2.5,7.9c1.2,2.5,2.9,4.7,5,6.8c2.1,2,4.6,3.9,8.3,5.3c1.2-3.5,1.1-6.6,0.8-9.4&#9;&#9;c-0.4-2.8-1.3-5.5-2.5-7.9c-0.3-0.5-0.5-1-0.8-1.5c1.6,1.6,3.3,2.9,5.2,4c2.5,1.5,5.2,2.6,8.2,3.3c3,0.7,6.2,1,10.2,0.3&#9;&#9;c-1-3.6-2.8-6.2-4.7-8.5C189.8,190,187.6,188.2,185.1,186.7z M158.2,191.8c-1.4-2.5-3.2-5-6.3-7.3c-2.2,3.1-3.1,6-3.6,8.8&#9;&#9;c-0.5,2.8-0.5,5.6,0,8.3c0.4,2.7,1.3,5.3,2.7,7.9c1.4,2.5,3.2,5,6.3,7.3c2.2-3.1,3.1-6,3.6-8.8c0.5-2.8,0.5-5.6,0-8.3&#9;&#9;C160.5,197,159.6,194.4,158.2,191.8z M87.5,189.4c2.8-0.2,5.6-0.8,8.4-1.9c2.8-1.2,5.5-2.7,8.1-5.4c-3-2.3-5.9-3.5-8.8-4.2&#9;&#9;c-2.9-0.7-5.8-0.9-8.6-0.7c-2.8,0.2-5.6,0.8-8.4,1.9c-2.8,1.1-5.5,2.7-8.1,5.4c3,2.4,5.9,3.5,8.8,4.2&#9;&#9;C81.8,189.4,84.7,189.6,87.5,189.4z M118.1,184.7c-3.5,1.4-5.9,3.2-8,5.3c0.8-1.4,1.4-2.9,2-4.7c-3.8-0.7-6.9-0.4-9.8,0.3&#9;&#9;c-2.9,0.7-5.5,1.8-7.9,3.3c-2.4,1.5-4.6,3.3-6.5,5.5c-1.9,2.3-3.6,4.9-4.6,8.5c3.8,0.7,6.9,0.4,9.9-0.3c2.9-0.7,5.5-1.8,7.9-3.3&#9;&#9;c1.8-1.1,3.5-2.4,5.1-4c-0.3,0.5-0.6,1-0.8,1.5c-1.2,2.4-2.1,5.1-2.4,7.9c-0.3,2.9-0.4,5.9,0.8,9.4c3.5-1.4,6-3.2,8-5.3&#9;&#9;c2-2.1,3.6-4.3,4.8-6.8c1.2-2.5,2-5.1,2.4-7.9C119.1,191.3,119.2,188.2,118.1,184.7z M126.5,186.6c-3,2.3-4.7,4.8-6.1,7.3&#9;&#9;c-1.3,2.5-2.2,5.2-2.6,7.9c-0.5,2.7-0.5,5.4,0,8.3c0.5,2.8,1.4,5.7,3.5,8.8c3-2.3,4.8-4.8,6.1-7.3c1.3-2.5,2.2-5.2,2.6-7.9&#9;&#9;c0.4-2.7,0.5-5.4,0-8.3C129.5,192.6,128.6,189.7,126.5,186.6z M139.1,184.6c-2.8,2.7-4.3,5.4-5.3,8.1c-1,2.7-1.4,5.4-1.4,8.2&#9;&#9;c0,2.7,0.5,5.5,1.6,8.2c1.1,2.7,2.6,5.5,5.6,8.3c2.9-2.7,4.3-5.4,5.4-8.1c1-2.7,1.4-5.4,1.4-8.2c0-2.7-0.5-5.5-1.6-8.2&#9;&#9;C143.5,190.1,142,187.4,139.1,184.6z"/>	<path fill="#FF4F56" d="M100.6,120.5c0,0-16.4,54-11.3,60.1c5.2,6.1,11.7,15.5,52.1,15s47.4-14.1,49.8-19.7&#9;&#9;c2.3-5.6-12.7-57.3-12.7-57.3C153.8,111.4,127.7,112.7,100.6,120.5z"/>	<g>		<path fill="#4A3F6F" d="M121.8,148.7c0.4,1.1,0.6,2.2,0.8,3.2c0.1,1.1,0.2,2.2,0.2,3.2c0,1.1-0.1,2.2-0.2,3.2&#9;&#9;&#9;c-0.2,1.1-0.4,2.2-0.8,3.2c-0.4-1.1-0.6-2.2-0.8-3.2c-0.1-1.1-0.2-2.2-0.2-3.2c0-1.1,0.1-2.2,0.2-3.2&#9;&#9;&#9;C121.2,150.8,121.4,149.8,121.8,148.7z"/>	</g>	<g>		<path fill="#4A3F6F" d="M167,148.7c0.4,1.1,0.6,2.2,0.8,3.2c0.1,1.1,0.2,2.2,0.2,3.2c0,1.1-0.1,2.2-0.2,3.2&#9;&#9;&#9;c-0.2,1.1-0.4,2.2-0.8,3.2c-0.4-1.1-0.6-2.2-0.8-3.2c-0.1-1.1-0.2-2.2-0.2-3.2c0-1.1,0.1-2.2,0.2-3.2&#9;&#9;&#9;C166.4,150.8,166.6,149.8,167,148.7z"/>	</g>	<g>		<path fill="#4A3F6F" d="M134.4,164.5c1.8,1.5,3.7,2.9,5.7,3.9c2,1,4.1,1.7,6.2,1.7c1.1,0,2.1-0.2,3.1-0.5c0.5-0.1,1-0.4,1.5-0.6&#9;&#9;&#9;c0.5-0.3,1-0.5,1.4-0.8c1.9-1.2,3.6-2.7,5.3-4.4c-1,2.1-2.5,4.1-4.4,5.7c-1.9,1.6-4.4,2.6-7,2.6c-2.6,0-5-1-7-2.4&#9;&#9;&#9;C137.3,168.3,135.6,166.6,134.4,164.5z"/>	</g>	<circle fill="#FC7B8C" cx="111.6" cy="172" r="8.7"/>	<circle fill="#FC7B8C" cx="178" cy="172" r="8.7"/>	<g>		<path fill="#097E8F" d="M168.7,79.2c0,0-15.9-19.4-3.1-36.8c0,0-20.2-12.8-21.5-29.8c-1.3,16.9-21.5,29.8-21.5,29.8&#9;&#9;&#9;c12.8,17.3-3.1,36.8-3.1,36.8c18.1,3.4,17.2,22.8,17.2,22.8l7.3-0.4l7.3,0.4C151.5,102,150.6,82.6,168.7,79.2z"/>		<g>			<path fill="#73CDD6" d="M144.1,26.2c0.2,3.3,0.2,6.6,0.3,10l0.2,10c0.1,6.6,0.1,13.3,0.2,19.9c-0.1,6.6,0,13.3-0.2,19.9l-0.2,10&#9;&#9;&#9;&#9;c-0.1,3.3-0.2,6.6-0.3,10c-0.2-3.3-0.2-6.6-0.3-10l-0.2-10c-0.1-6.6-0.1-13.3-0.2-19.9c0.1-6.6,0-13.3,0.2-19.9l0.2-10&#9;&#9;&#9;&#9;C143.9,32.9,144,29.5,144.1,26.2z"/>		</g>		<ellipse fill="#B52840" cx="144.1" cy="108.9" rx="10.7" ry="10.2"/>		<g>			<path fill="#FFFFFF" d="M137.4,109.9c-0.6-1.1-0.7-2.4-0.3-3.6c0.3-1.2,1-2.4,2-3.3c1-0.9,2.2-1.4,3.5-1.5c1.2-0.2,2.5,0,3.6,0.7&#9;&#9;&#9;&#9;c-1.2,0.1-2.3,0.3-3.3,0.7c-1,0.4-1.9,0.9-2.7,1.5c-0.8,0.7-1.4,1.5-1.9,2.4C137.8,107.7,137.5,108.7,137.4,109.9z"/>		</g>	</g>	<g>		<path fill="#097E8F" d="M120.4,87.4c0,0-25.7,2.2-33.9-18.4c0,0-22.3,9.6-37.8,1C62.8,80.8,63,105,63,105&#9;&#9;&#9;c22.2-0.9,30.5,23.6,30.5,23.6c12.9-13.3,29.4-1.4,29.4-1.4l3.6-6.4l4.4-5.9C131,114.9,113.5,104.5,120.4,87.4z"/>		<g>			<path fill="#73CDD6" d="M60.5,77.7c3,1.8,5.9,3.6,8.9,5.4l8.8,5.5c5.9,3.7,11.7,7.5,17.5,11.2c5.8,3.8,11.6,7.6,17.4,11.5&#9;&#9;&#9;&#9;l8.6,5.8c2.8,2,5.7,3.9,8.5,6c-3-1.8-5.9-3.6-8.9-5.4l-8.8-5.5c-5.9-3.7-11.7-7.5-17.5-11.2c-5.8-3.8-11.6-7.6-17.4-11.5&#9;&#9;&#9;&#9;l-8.6-5.8C66.2,81.7,63.4,79.8,60.5,77.7z"/>		</g>					<ellipse transform="matrix(0.5458 -0.8379 0.8379 0.5458 -44.2677 168.1778)" fill="#DB3549" cx="133" cy="124.9" rx="10.7" ry="10.7"/>		<g>			<path fill="#FFFFFF" d="M130.2,131.1c-1.2-0.1-2.4-0.8-3.3-1.7c-0.9-0.9-1.6-2.1-1.8-3.5c-0.2-1.3,0-2.7,0.5-3.9&#9;&#9;&#9;&#9;c0.5-1.2,1.4-2.2,2.6-2.7c-0.6,1.1-1,2.1-1.2,3.2c-0.2,1.1-0.2,2.1-0.1,3.1c0.2,1,0.6,2,1.1,2.9&#9;&#9;&#9;&#9;C128.5,129.5,129.2,130.3,130.2,131.1z"/>		</g>	</g>	<g>		<path fill="#097E8F" d="M168.9,88.4c0,0,25.5,3.8,35-16.3c0,0,21.6,10.9,37.7,3.4c-14.7,9.9-16.5,34-16.5,34&#9;&#9;&#9;c-22.1-2.2-31.9,21.6-31.9,21.6c-12-14-29.3-3.2-29.3-3.2l-3.2-6.6l-4-6.2C156.6,115.1,174.8,105.9,168.9,88.4z"/>		<g>			<path fill="#73CDD6" d="M229.3,82.5c-2.9,1.8-5.9,3.6-8.9,5.4l-9,5.3c-6,3.5-12,6.9-18,10.4c-6.1,3.4-12.1,6.8-18.2,10.1l-9.2,5&#9;&#9;&#9;&#9;c-3.1,1.6-6.1,3.3-9.2,4.8c2.9-1.8,5.9-3.6,8.9-5.4l9-5.3c6-3.5,12-6.9,18.1-10.4c6.1-3.4,12.1-6.8,18.2-10.1l9.2-5&#9;&#9;&#9;&#9;C223.1,85.7,226.2,84,229.3,82.5z"/>		</g>					<ellipse transform="matrix(0.8701 -0.4929 0.4929 0.8701 -41.6345 92.1614)" fill="#DB3549" cx="154" cy="125.1" rx="10.7" ry="10.7"/>		<g>			<path fill="#FFFFFF" d="M156.4,131.4c1-0.7,1.8-1.5,2.4-2.4c0.6-0.9,1.1-1.8,1.3-2.8c0.2-1,0.3-2,0.1-3.1c-0.2-1.1-0.5-2.1-1-3.2&#9;&#9;&#9;&#9;c1.1,0.6,1.9,1.7,2.4,2.9c0.5,1.2,0.6,2.6,0.3,3.9c-0.3,1.3-1,2.5-2,3.3C158.9,130.8,157.7,131.4,156.4,131.4z"/>		</g>	</g>	<g>		<path fill="#097E8F" d="M99.5,140.7c-6.2,0.2-12.3,2.2-17.4,5.6c-1.3,0.9-2.6,1.7-3.2,3c-0.3,0.6-0.3,1.3,0.2,1.7&#9;&#9;&#9;c0.4,0.4,1.2,0.5,1.9,0.5c3,0,6.1-0.8,8.8-2.2l0.4,0.8c-1.9,0.8-3.7,1.8-5.4,3c-0.8,0.6-1.6,1.3-2.4,2c-0.8,0.7-1.5,1.4-1.9,2.2&#9;&#9;&#9;c-0.4,0.8-0.1,1.6,0.7,1.8c0.8,0.2,1.9,0,2.9-0.3c2-0.5,3.9-1.4,5.5-2.6l0.5,0.7c-2.5,1.5-4.9,3.3-7,5.3c-0.5,0.5-1.1,1-1.5,1.5&#9;&#9;&#9;c-0.4,0.5-0.8,1.1-0.8,1.8c0,0.6,0.3,1.2,0.9,1.6c0.5,0.4,1.2,0.5,1.9,0.5c1.4-0.1,2.8-0.7,4.1-1.2c1.4-0.6,2.7-1.2,4-1.9&#9;&#9;&#9;c2.6-1.5,4.9-3.3,7.1-5.3c-2,2.2-4.3,4.1-6.9,5.6c-1.3,0.8-2.6,1.5-3.9,2.1c-0.7,0.3-1.4,0.6-2.1,0.8c-0.7,0.3-1.4,0.5-2.2,0.6&#9;&#9;&#9;c-0.8,0.1-1.6-0.1-2.3-0.5c-0.7-0.4-1.2-1.3-1.2-2.1c0-0.9,0.5-1.6,1-2.2c0.5-0.6,1-1.1,1.6-1.6c2.1-2.1,4.5-3.9,7.1-5.4l0.5,0.7&#9;&#9;&#9;c-1.7,1.3-3.7,2.2-5.8,2.8c-0.5,0.1-1.1,0.2-1.6,0.3c-0.6,0.1-1.1,0.1-1.7,0c-0.6-0.1-1.3-0.6-1.5-1.2c-0.3-0.7-0.1-1.4,0.1-1.9&#9;&#9;&#9;c0.5-1.1,1.4-1.8,2.1-2.5c0.8-0.7,1.6-1.4,2.5-2c1.7-1.2,3.6-2.2,5.6-3l0.4,0.8c-2.8,1.5-6,2.2-9.2,2.2c-0.8,0-1.7-0.1-2.4-0.8&#9;&#9;&#9;c-0.3-0.3-0.5-0.8-0.6-1.3c0-0.5,0.1-0.9,0.3-1.3c0.4-0.8,1-1.4,1.6-1.9c0.6-0.5,1.3-0.9,1.9-1.3c2.6-1.7,5.5-3,8.5-3.9&#9;&#9;&#9;C93.3,141.2,96.4,140.7,99.5,140.7z"/>	</g>	<g>		<path fill="#22D4C2" d="M114.4,221c-1.6,2.3-2,5.3-1.1,7.9c0.5,1.3,1.2,2.5,2.3,3.3c1.1,0.8,2.4,1.4,3.7,1.6&#9;&#9;&#9;c1.3,0.2,2.7,0,3.9-0.5c0.6-0.3,1.2-0.7,1.6-1.1c0.5-0.5,0.9-1,1.2-1.6c1.2-2.4,0.9-5.5-1-7.3l0.6,0c-1.9,2-2,5.5-0.5,7.7&#9;&#9;&#9;c1.6,2.3,4.7,3.4,7.4,2.9c2.8-0.4,5.3-2.3,6.8-4.8c0.8-1.2,1.3-2.5,1.4-3.9c0.1-1.4-0.3-2.8-1.3-3.6l0.7-0.2&#9;&#9;&#9;c-1.7,4,1.3,9.3,5.6,10c2.1,0.4,4.4-0.5,5.9-2.1c1.6-1.5,2.5-3.7,2.4-5.9c0-0.3,0-0.5-0.1-0.8c-0.1-0.3-0.1-0.5-0.2-0.8&#9;&#9;&#9;c-0.2-0.5-0.6-0.9-1-1c-0.4-0.1-0.7,0.3-0.8,0.8c-0.1,0.5-0.2,1.1-0.2,1.6c0,2.2,1.1,4.4,2.9,5.8c0.9,0.7,1.9,1.2,3,1.4&#9;&#9;&#9;c1.1,0.2,2.3,0.1,3.4-0.2c2.2-0.6,4.2-2.2,5.1-4.3c-0.4,1.1-1.1,2.1-2,2.8c-0.9,0.8-1.9,1.4-3,1.7c-1.1,0.4-2.3,0.5-3.5,0.3&#9;&#9;&#9;c-1.2-0.2-2.3-0.7-3.2-1.4c-1.9-1.5-3.1-3.8-3.2-6.2c0-0.6,0-1.2,0.2-1.8c0.1-0.3,0.2-0.6,0.4-0.9c0.2-0.3,0.7-0.5,1.1-0.4&#9;&#9;&#9;c0.8,0.2,1.2,0.8,1.5,1.3c0.2,0.3,0.2,0.6,0.3,0.9c0.1,0.3,0.1,0.6,0.1,0.9c0.2,2.4-0.8,4.9-2.5,6.6c-1.7,1.7-4.2,2.8-6.7,2.4&#9;&#9;&#9;c-2.5-0.4-4.5-2.1-5.7-4.2c-1.2-2.1-1.6-4.8-0.6-7.1l0.2-0.6l0.5,0.4c0.7,0.5,1.2,1.2,1.5,2c0.3,0.8,0.3,1.6,0.3,2.4&#9;&#9;&#9;c-0.1,1.6-0.7,3.1-1.5,4.4c-1.6,2.6-4.3,4.7-7.5,5.2c-3.1,0.5-6.5-0.7-8.3-3.4c-0.9-1.3-1.3-2.9-1.2-4.5c0.1-1.6,0.7-3.2,1.8-4.3&#9;&#9;&#9;l0.3-0.3l0.3,0.3c0.5,0.5,1,1.2,1.3,1.8c0.3,0.7,0.5,1.4,0.6,2.1c0.1,1.5-0.1,3-0.8,4.3c-0.3,0.6-0.8,1.2-1.3,1.7&#9;&#9;&#9;c-0.5,0.5-1.2,0.9-1.8,1.2c-1.3,0.6-2.8,0.7-4.3,0.5c-1.4-0.2-2.8-0.8-3.9-1.7c-1.1-0.9-1.9-2.2-2.3-3.5&#9;&#9;&#9;C112.2,226.3,112.7,223.2,114.4,221z"/>	</g>	<g>		<path fill="#22D4C2" d="M112.6,125.4c1,2.5,2.3,4.8,3.8,7c1.5,2.2,3.2,4.2,5.1,6c1.9,1.8,4,3.4,6.3,4.8l1.7,1l1.8,0.9l1.8,0.8&#9;&#9;&#9;c0.6,0.2,1.3,0.5,1.9,0.7c-0.7-0.1-1.3-0.3-2-0.5l-1.9-0.6l-1.9-0.8l-1.8-0.9c-2.4-1.3-4.6-2.9-6.6-4.8c-2-1.9-3.7-4-5.1-6.3&#9;&#9;&#9;l-1-1.8l-0.9-1.8l-0.7-1.9C113,126.7,112.8,126.1,112.6,125.4z"/>	</g>	<g>		<path fill="#22D4C2" d="M130.2,133.9c2.2,3.4,5,6.4,8.3,8.6c3.3,2.3,7.1,3.8,11.1,4.6c-4.1,0-8.2-1.5-11.6-3.8&#9;&#9;&#9;C134.6,141,131.8,137.7,130.2,133.9z"/>	</g>	<g>		<path fill="#22D4C2" d="M143.5,136c3.1,1.5,6.1,2.9,9.2,4.1c3.1,1.2,6.3,2.2,9.5,3.2c-3.4-0.2-6.7-1-9.9-2.3&#9;&#9;&#9;C149.2,139.8,146.2,138.2,143.5,136z"/>	</g>	<g>		<path fill="#22D4C2" d="M162.2,135c2.6,0.6,5.1,1.6,7.5,2.6c2.4,1,4.8,2.1,7.1,3.5c-2.6-0.6-5.1-1.6-7.5-2.6&#9;&#9;&#9;C166.9,137.4,164.5,136.3,162.2,135z"/>	</g>	<g>		<path fill="#22D4C2" d="M104.3,127.1c-0.9,2.6-1.4,5.3-1.4,8c0,2.7,0.4,5.3,1.2,8c-1.5-2.3-2.3-5.2-2.2-8&#9;&#9;&#9;C101.9,132.3,102.7,129.4,104.3,127.1z"/>	</g>	<g>		<path fill="#22D4C2" d="M108.6,129.9c-0.1,2.4,0,4.8,0.5,7.1c0.5,2.3,1.3,4.5,2.4,6.7c-1.7-1.7-2.9-4.1-3.4-6.5&#9;&#9;&#9;C107.6,134.8,107.7,132.2,108.6,129.9z"/>	</g></g></svg>