<?xml version="1.0" standalone="no"?><!DOCTYPE svg PUBLIC "-//W3C//DTD SVG 1.1//EN" "http://www.w3.org/Graphics/SVG/1.1/DTD/svg11.dtd"><svg id="Mosquito0.svg" width="150" height="150" version="1.1" viewBox="0 0 300 300" xmlns="http://www.w3.org/2000/svg" xmlns:xlink="http://www.w3.org/1999/xlink"><defs xmlns="http://www.w3.org/1999/xhtml"><style type="text/css"><![CDATA[
* { border: 0px; margin: 0px; padding: 0px; }
html { background-color: rgb(255, 255, 255); font-family: Verdana, Arial; }
.webgl-content * { position: absolute; width: 100%; height: 100%; user-select: none; }
.webgl-content .logo, .progress { position: absolute; left: 50%; top: 50%; transform: translate(-50%, -50%); }
.webgl-content .logo { background: url("progressLogo.Light.png") center center / contain no-repeat; width: 154px; height: 130px; }
.webgl-content .progress { height: 18px; width: 141px; margin-top: 90px; }
.webgl-content .progress .empty { background: url("progressEmpty.Light.png") right center / cover no-repeat; float: right; width: 100%; height: 100%; display: inline-block; }
.webgl-content .progress .full { background: url("progressFull.Light.png") left center / cover no-repeat; float: left; width: 0%; height: 100%; display: inline-block; }
.webgl-content .logo.Dark { background-image: url("progressLogo.Dark.png"); }
.webgl-content .progress.Dark .empty { background-image: url("progressEmpty.Dark.png"); }
.webgl-content .progress.Dark .full { background-image: url("progressFull.Dark.png"); }
#loading-content { z-index: 10000; position: fixed; width: 100%; height: 100%; left: 0px; top: 0px; overflow: hidden; background: url("background.png"); }
.hud-intro .hud-intro-social .btn-discord, .hud-respawn .hud-respawn-social .btn-discord { background-image: url("//lordz.io/images/discord-icon.png"); }
.hud-intro .hud-intro-social .btn-twitter, .hud-respawn .hud-respawn-social .btn-twitter { background-image: url("//lordz.io/images/twitter-icon.png"); }
.hud-intro .hud-intro-social .btn-facebook, .hud-respawn .hud-respawn-social .btn-facebook { background-image: url("//lordz.io/images/facebook-icon.png"); }
.hud-intro .hud-intro-social .btn-youtube, .hud-respawn .hud-respawn-social .btn-youtube { background-image: url("//lordz.io/images/youtube-icon.png"); }
* { box-sizing: border-box; user-select: none; }
.btn { position: relative; display: inline-block; top: 0px; height: 36px; line-height: 36px; padding: 0px 20px; background: rgb(68, 68, 68); color: rgb(238, 238, 238); border: 0px; font-size: 14px; vertical-align: top; text-align: center; text-decoration: none; text-shadow: rgba(0, 0, 0, 0.4) 0px 1px 0px; box-shadow: rgba(0, 0, 0, 0.2) 0px 2px 10px, rgb(51, 51, 51) 0px 4px 0px; border-radius: 4px; transition: all 0.15s ease-in-out 0s; }
.btn:hover, .btn:active { background-color: rgb(85, 85, 85); color: rgb(255, 255, 255); }
.btn:active { top: 4px; box-shadow: rgba(0, 0, 0, 0.2) 0px 2px 10px !important; }
.btn-green { background-color: rgb(71, 149, 13); box-shadow: rgba(0, 0, 0, 0.2) 0px 2px 10px, rgb(53, 131, 0) 0px 4px 0px; }
.btn-green:hover, .btn-green:active { background-color: rgb(100, 184, 32); }
.btn-red { background-color: rgb(179, 53, 60); box-shadow: rgba(0, 0, 0, 0.2) 0px 2px 10px, rgb(161, 35, 42) 0px 4px 0px; }
.btn-red:hover, .btn-red:active { background-color: rgb(203, 87, 91); }
.btn-blue { background-color: rgb(29, 141, 238); box-shadow: rgba(0, 0, 0, 0.2) 0px 2px 10px, rgb(11, 123, 220) 0px 4px 0px; }
.btn-blue:hover, .btn-blue:active { background-color: rgb(79, 167, 238); }
.btn-purple { background-color: rgb(114, 55, 228); box-shadow: rgba(0, 0, 0, 0.2) 0px 2px 10px, rgb(96, 37, 210) 0px 4px 0px; }
.btn-purple:hover, .btn-purple:active { background-color: rgb(130, 89, 228); }
.btn-twitter { background-color: rgb(27, 149, 224); box-shadow: rgba(0, 0, 0, 0.2) 0px 2px 10px, rgb(9, 131, 206) 0px 4px 0px; }
.btn-twitter:hover, .btn-twitter:active { background-color: rgb(12, 122, 191); }
.btn-facebook { background-color: rgb(66, 103, 178); box-shadow: rgba(0, 0, 0, 0.2) 0px 2px 10px, rgb(48, 85, 160) 0px 4px 0px; }
.btn-facebook:hover, .btn-facebook:active { background-color: rgb(54, 88, 153); }
.btn-google { background-color: rgb(221, 75, 57); box-shadow: rgba(0, 0, 0, 0.2) 0px 2px 10px, rgb(203, 57, 39) 0px 4px 0px; }
.btn-google:hover, .btn-google:active { background-color: rgb(186, 63, 49); }
.btn-discord { background-color: rgb(114, 137, 218); box-shadow: rgba(0, 0, 0, 0.2) 0px 2px 10px, rgb(96, 119, 200) 0px 4px 0px; }
.btn-discord:hover, .btn-discord:active { background-color: rgb(90, 109, 176); }
.btn-youtube { background-color: rgb(229, 45, 39); box-shadow: rgba(0, 0, 0, 0.2) 0px 2px 10px, rgb(211, 27, 21) 0px 4px 0px; }
.btn-youtube:hover, .btn-youtube:active { background-color: rgb(186, 37, 33); }
.hud { position: fixed; top: 0px; left: 0px; bottom: 0px; right: 0px; }
.hud .hud-bottom-left { display: flex; position: absolute; bottom: 20px; left: 20px; flex-direction: column-reverse; }
.hud-intro .hud-intro-corner-bottom-left, .hud-respawn .hud-respawn-corner-bottom-left { position: fixed; bottom: 20px; left: 20px; text-align: left; }
.hud-intro .hud-intro-social, .hud-respawn .hud-respawn-social { width: 240px; line-height: 24px; font-size: 14px; color: rgb(119, 119, 119); }
.hud-intro .hud-intro-social .btn, .hud-respawn .hud-respawn-social .btn { display: block; float: left; margin: 0px 10px 0px 0px; width: 40px; height: 40px; line-height: 40px; background-size: 24px; background-position: center center; background-repeat: no-repeat; }
.hud-intro .hud-intro-more-games { position: relative; bottom: 5px; line-height: 20px; font-size: 14px; color: rgba(255, 255, 255, 0.4); text-shadow: rgba(0, 0, 0, 0.2) 0px 1px 3px; }
.hud-intro .hud-intro-more-games a { display: inline-block; padding: 0px 20px; line-height: 40px; background: rgb(132, 115, 212); color: rgb(238, 238, 238); text-decoration: none; border-radius: 4px; transition: all 0.15s ease-in-out 0s; }
.hud-intro .hud-intro-more-games a:hover, .hud-intro .hud-intro-more-games a:active { background: rgb(103, 90, 166); }
#preroll video { left: 0px; top: 0px; }
.fb_hidden { position: absolute; top: -10000px; z-index: 10001; }
.fb_reposition { overflow: hidden; position: relative; }
.fb_invisible { display: none; }
.fb_reset { background: none; border: 0px; border-spacing: 0px; color: rgb(0, 0, 0); cursor: auto; direction: ltr; font-family: "lucida grande", tahoma, verdana, arial, sans-serif; font-size: 11px; font-style: normal; font-variant: normal; font-weight: normal; letter-spacing: normal; line-height: 1; margin: 0px; overflow: visible; padding: 0px; text-align: left; text-decoration: none; text-indent: 0px; text-shadow: none; text-transform: none; visibility: visible; white-space: normal; word-spacing: normal; }
.fb_animate { animation: 0.3s ease 0s 1 normal forwards running fb_transform; }
.fb_dialog { background: rgba(82, 82, 82, 0.7); position: absolute; top: -10000px; z-index: 10001; }
.fb_dialog_advanced { border-radius: 8px; padding: 10px; }
.fb_dialog_content { background: rgb(255, 255, 255); color: rgb(55, 55, 55); }
.fb_dialog_close_icon { background: url("https://static.xx.fbcdn.net/rsrc.php/v3/yq/r/IE9JII6Z1Ys.png") 0px 0px no-repeat scroll transparent; cursor: pointer; display: block; height: 15px; position: absolute; right: 18px; top: 17px; width: 15px; }
.fb_dialog_mobile .fb_dialog_close_icon { left: 5px; right: auto; top: 5px; }
.fb_dialog_padding { background-color: transparent; position: absolute; width: 1px; z-index: -1; }
.fb_dialog_close_icon:hover { background: url("https://static.xx.fbcdn.net/rsrc.php/v3/yq/r/IE9JII6Z1Ys.png") 0px -15px no-repeat scroll transparent; }
.fb_dialog_close_icon:active { background: url("https://static.xx.fbcdn.net/rsrc.php/v3/yq/r/IE9JII6Z1Ys.png") 0px -30px no-repeat scroll transparent; }
.fb_dialog_iframe { line-height: 0; }
.fb_dialog_content .dialog_title { background: rgb(109, 132, 180); border: 1px solid rgb(54, 88, 153); color: rgb(255, 255, 255); font-size: 14px; font-weight: bold; margin: 0px; }
body.fb_hidden { height: 100%; left: 0px; margin: 0px; overflow: visible; position: absolute; top: -10000px; transform: none; width: 100%; }
.fb_dialog.fb_dialog_mobile.loading { background: url("https://static.xx.fbcdn.net/rsrc.php/v3/ya/r/3rhSv5V8j3o.gif") 50% 50% no-repeat white; min-height: 100%; min-width: 100%; overflow: hidden; position: absolute; top: 0px; z-index: 10001; }
.fb_dialog.fb_dialog_mobile.loading.centered { background: none; height: auto; min-height: initial; min-width: initial; width: auto; }
.fb_dialog.fb_dialog_mobile.loading.centered #fb_dialog_loader_spinner { width: 100%; }
.fb_dialog.fb_dialog_mobile.loading.centered .fb_dialog_content { background: none; }
.loading.centered #fb_dialog_loader_close { clear: both; color: rgb(255, 255, 255); display: block; font-size: 18px; padding-top: 20px; }
#fb-root #fb_dialog_ipad_overlay { background: rgba(0, 0, 0, 0.4); bottom: 0px; left: 0px; min-height: 100%; position: absolute; right: 0px; top: 0px; width: 100%; z-index: 10000; }
#fb-root #fb_dialog_ipad_overlay.hidden { display: none; }
.fb_dialog.fb_dialog_mobile.loading iframe { visibility: hidden; }
.fb_dialog_mobile .fb_dialog_iframe { position: sticky; top: 0px; }
.fb_dialog_content .dialog_header { border-bottom: 1px solid rgb(4, 59, 135); border-top-color: rgb(4, 59, 135); border-right-color: rgb(4, 59, 135); border-left-color: rgb(4, 59, 135); box-shadow: white 0px 1px 1px -1px inset; color: rgb(255, 255, 255); font: bold 14px Helvetica, sans-serif; text-overflow: ellipsis; text-shadow: rgba(0, 30, 84, 0.298) 0px -1px 0px; vertical-align: middle; white-space: nowrap; }
.fb_dialog_content .dialog_header table { height: 43px; width: 100%; }
.fb_dialog_content .dialog_header td.header_left { font-size: 12px; padding-left: 5px; vertical-align: middle; width: 60px; }
.fb_dialog_content .dialog_header td.header_right { font-size: 12px; padding-right: 5px; vertical-align: middle; width: 60px; }
.fb_dialog_content .touchable_button { background-clip: padding-box; border: 1px solid rgb(41, 72, 125); border-radius: 3px; display: inline-block; line-height: 18px; margin-top: 3px; max-width: 85px; padding: 4px 12px; position: relative; }
.fb_dialog_content .dialog_header .touchable_button input { background: none; border: none; color: rgb(255, 255, 255); font: bold 12px Helvetica, sans-serif; margin: 2px -12px; padding: 2px 6px 3px; text-shadow: rgba(0, 30, 84, 0.298) 0px -1px 0px; }
.fb_dialog_content .dialog_header .header_center { color: rgb(255, 255, 255); font-size: 16px; font-weight: bold; line-height: 18px; text-align: center; vertical-align: middle; }
.fb_dialog_content .dialog_content { background: url("https://static.xx.fbcdn.net/rsrc.php/v3/y9/r/jKEcVPZFk-2.gif") 50% 50% no-repeat; border-width: 0px 1px; border-right-style: solid; border-left-style: solid; border-right-color: rgb(74, 74, 74); border-left-color: rgb(74, 74, 74); border-image: initial; border-bottom-style: initial; border-bottom-color: initial; border-top-style: initial; border-top-color: initial; height: 150px; }
.fb_dialog_content .dialog_footer { background: rgb(245, 246, 247); border-width: 1px; border-style: solid; border-color: rgb(204, 204, 204) rgb(74, 74, 74) rgb(74, 74, 74); border-image: initial; height: 40px; }
#fb_dialog_loader_close { float: left; }
.fb_dialog.fb_dialog_mobile .fb_dialog_close_button { text-shadow: rgba(0, 30, 84, 0.298) 0px -1px 0px; }
.fb_dialog.fb_dialog_mobile .fb_dialog_close_icon { visibility: hidden; }
#fb_dialog_loader_spinner { animation: 1.2s linear 0s infinite normal none running rotateSpinner; background-color: transparent; background-image: url("https://static.xx.fbcdn.net/rsrc.php/v3/yD/r/t-wz8gw1xG1.png"); background-position: 50% 50%; background-repeat: no-repeat; height: 24px; width: 24px; }
.fb_iframe_widget { display: inline-block; position: relative; }
.fb_iframe_widget span { display: inline-block; position: relative; text-align: justify; }
.fb_iframe_widget iframe { position: absolute; }
.fb_iframe_widget_fluid_desktop, .fb_iframe_widget_fluid_desktop span, .fb_iframe_widget_fluid_desktop iframe { max-width: 100%; }
.fb_iframe_widget_fluid_desktop iframe { min-width: 220px; position: relative; }
.fb_iframe_widget_lift { z-index: 1; }
.fb_iframe_widget_fluid { display: inline; }
.fb_iframe_widget_fluid span { width: 100%; }
.st0 { fill: rgb(119, 183, 73); }
.st1 { fill: rgb(247, 175, 47); }
.st2 { fill: rgb(233, 81, 15); }
.st3 { fill: url("#SVGID_1_"); }
.st4 { fill: url("#SVGID_2_"); }
.st5 { fill: rgb(252, 242, 119); }
.st6 { fill: url("#SVGID_3_"); }
.st7 { fill: url("#SVGID_4_"); }
.st8 { fill: url("#SVGID_5_"); }
.st9 { fill: url("#SVGID_6_"); }
.st10 { fill: url("#SVGID_7_"); }
.st11 { fill: url("#SVGID_8_"); }
.st12 { fill: url("#SVGID_9_"); }
.st13 { fill: url("#SVGID_10_"); }
.st14 { fill: url("#SVGID_11_"); }
.st15 { fill: url("#SVGID_12_"); }
.st16 { fill: url("#SVGID_13_"); }
.st17 { fill: url("#SVGID_14_"); }
.st18 { fill: url("#SVGID_15_"); }
.st19 { fill: url("#SVGID_16_"); }
.st0 { fill: rgb(119, 183, 73); }
.st1 { fill: rgb(247, 175, 47); }
.st2 { fill: rgb(233, 81, 15); }
.st3 { fill: url("#SVGID_1_"); }
.st4 { fill: url("#SVGID_2_"); }
.st5 { fill: rgb(252, 242, 119); }
.st6 { fill: url("#SVGID_3_"); }
.st7 { fill: url("#SVGID_4_"); }
.st8 { fill: url("#SVGID_5_"); }
.st9 { fill: url("#SVGID_6_"); }
.st10 { fill: url("#SVGID_7_"); }
.st11 { fill: url("#SVGID_8_"); }
.st12 { fill: url("#SVGID_9_"); }
.st13 { fill: url("#SVGID_10_"); }
.st14 { fill: url("#SVGID_11_"); }
.st15 { fill: url("#SVGID_12_"); }
.st16 { fill: url("#SVGID_13_"); }
.st17 { fill: url("#SVGID_14_"); }
.st18 { fill: url("#SVGID_15_"); }
.st19 { fill: url("#SVGID_16_"); }
.st0 { fill: rgb(119, 183, 73); }
.st1 { fill: rgb(247, 175, 47); }
.st2 { fill: rgb(233, 81, 15); }
.st3 { fill: url("#SVGID_1_"); }
.st4 { fill: url("#SVGID_2_"); }
.st5 { fill: rgb(252, 242, 119); }
.st6 { fill: url("#SVGID_3_"); }
.st7 { fill: url("#SVGID_4_"); }
.st8 { fill: url("#SVGID_5_"); }
.st9 { fill: url("#SVGID_6_"); }
.st10 { fill: url("#SVGID_7_"); }
.st11 { fill: url("#SVGID_8_"); }
.st12 { fill: url("#SVGID_9_"); }
.st13 { fill: url("#SVGID_10_"); }
.st14 { fill: url("#SVGID_11_"); }
.st15 { fill: url("#SVGID_12_"); }
.st16 { fill: url("#SVGID_13_"); }
.st17 { fill: url("#SVGID_14_"); }
.st18 { fill: url("#SVGID_15_"); }
.st19 { fill: url("#SVGID_16_"); }
.st0 { fill: rgb(119, 183, 73); }
.st1 { fill: rgb(247, 175, 47); }
.st2 { fill: rgb(233, 81, 15); }
.st3 { fill: url("#SVGID_1_"); }
.st4 { fill: url("#SVGID_2_"); }
.st5 { fill: rgb(252, 242, 119); }
.st6 { fill: url("#SVGID_3_"); }
.st7 { fill: url("#SVGID_4_"); }
.st8 { fill: url("#SVGID_5_"); }
.st9 { fill: url("#SVGID_6_"); }
.st10 { fill: url("#SVGID_7_"); }
.st11 { fill: url("#SVGID_8_"); }
.st12 { fill: url("#SVGID_9_"); }
.st13 { fill: url("#SVGID_10_"); }
.st14 { fill: url("#SVGID_11_"); }
.st15 { fill: url("#SVGID_12_"); }
.st16 { fill: url("#SVGID_13_"); }
.st17 { fill: url("#SVGID_14_"); }
.st18 { fill: url("#SVGID_15_"); }
.st19 { fill: url("#SVGID_16_"); }]]></style></defs><path fill="rgb(83, 169, 173)" d=" M 136.670000 181.230000 C 132.120000 175.830000 127.460000 170.550000 122.770000 165.280000 L 125.360000 164.870000 C 117.630000 179.930000 110.350000 195.220000 103.000000 210.470000 C 99.360000 218.110000 95.680000 225.730000 92.090000 233.400000 L 81.280000 256.370000 L 81.060000 256.830000 L 80.540000 256.800000 C 73.710000 256.370000 66.870000 255.870000 60.030000 255.500000 L 60.180000 253.500000 C 67.000000 254.170000 73.830000 254.700000 80.660000 255.300000 L 79.920000 255.730000 L 90.770000 232.770000 C 94.400000 225.130000 97.940000 217.440000 101.530000 209.770000 C 108.620000 194.400000 115.780000 179.060000 122.490000 163.510000 L 123.380000 161.430000 L 125.080000 163.090000 C 130.100000 168.040000 135.140000 172.960000 140.300000 177.770000 L 136.670000 181.230000 Z"/><path fill="rgb(83, 169, 173)" d=" M 160.830000 175.190000 C 161.320000 176.850000 161.920000 178.440000 162.520000 180.020000 C 163.150000 181.600000 163.790000 183.160000 164.490000 184.700000 C 165.860000 187.780000 167.360000 190.780000 168.950000 193.740000 L 169.150000 194.110000 L 169.080000 194.450000 L 163.120000 222.720000 C 162.140000 227.440000 161.100000 232.140000 160.060000 236.840000 C 158.990000 241.540000 157.940000 246.240000 156.600000 250.920000 L 156.540000 251.140000 L 156.330000 251.310000 C 154.930000 252.460000 153.550000 253.640000 152.170000 254.810000 L 150.930000 253.240000 C 152.390000 252.160000 153.860000 251.110000 155.310000 250.020000 L 155.030000 250.410000 C 155.820000 248.170000 156.500000 245.870000 157.130000 243.550000 C 157.770000 241.240000 158.350000 238.910000 158.900000 236.570000 C 160.040000 231.910000 161.020000 227.200000 161.990000 222.490000 C 162.930000 217.770000 163.820000 213.050000 164.660000 208.310000 C 165.470000 203.570000 166.300000 198.830000 167.020000 194.080000 L 167.150000 194.790000 C 165.360000 191.950000 163.490000 189.160000 161.490000 186.440000 C 160.500000 185.080000 159.450000 183.750000 158.400000 182.430000 C 157.320000 181.110000 156.230000 179.810000 155.030000 178.570000 L 160.830000 175.190000 Z"/><path fill="rgb(161, 45, 34)" d=" M 111.260000 177.500000 C 112.010000 177.050000 112.760000 176.620000 113.500000 176.210000 C 112.760000 176.620000 112.010000 177.050000 111.260000 177.500000 Z"/><path fill="rgb(161, 45, 34)" d=" M 113.520000 176.200000 C 114.250000 175.780000 114.980000 175.390000 115.700000 175.010000 C 114.980000 175.390000 114.250000 175.780000 113.520000 176.200000 Z"/><path fill="rgb(161, 45, 34)" d=" M 109.170000 178.770000 C 109.840000 178.360000 110.500000 177.960000 111.150000 177.570000 C 110.500000 177.960000 109.840000 178.360000 109.170000 178.770000 Z"/><path fill="rgb(161, 45, 34)" d=" M 106.670000 180.380000 C 107.350000 179.930000 108.010000 179.500000 108.680000 179.080000 C 108.010000 179.500000 107.350000 179.930000 106.670000 180.380000 Z"/><path fill="rgb(161, 45, 34)" d=" M 86.050000 197.290000 C 88.810000 194.550000 91.550000 192.030000 94.250000 189.740000 C 91.550000 192.030000 88.810000 194.550000 86.050000 197.290000 Z"/><path fill="rgb(161, 45, 34)" d=" M 106.540000 180.460000 C 102.610000 183.060000 98.510000 186.120000 94.300000 189.700000 C 97.710000 198.200000 109.320000 211.240000 116.560000 218.880000 C 112.770000 220.660000 109.120000 222.180000 105.620000 223.480000 C 112.950000 220.760000 120.970000 217.080000 129.550000 212.090000 C 129.890000 211.890000 130.210000 211.670000 130.540000 211.460000 C 116.740000 203.170000 109.160000 187.020000 106.540000 180.460000 Z"/><path fill="rgb(161, 45, 34)" d=" M 72.950000 211.970000 C 68.640000 217.380000 64.330000 223.420000 60.070000 230.180000 C 60.070000 230.180000 68.190000 231.830000 82.020000 229.730000 C 77.250000 224.750000 73.650000 219.100000 71.110000 214.320000 C 71.720000 213.520000 72.340000 212.740000 72.950000 211.970000 Z"/><path fill="rgb(161, 45, 34)" d=" M 86.030000 197.310000 C 83.590000 199.730000 81.130000 202.340000 78.660000 205.150000 C 82.560000 211.960000 89.690000 220.360000 95.560000 226.770000 C 94.320000 227.120000 93.110000 227.440000 91.930000 227.730000 C 96.150000 226.690000 100.720000 225.300000 105.600000 223.490000 C 95.360000 215.880000 89.050000 204.150000 86.030000 197.310000 Z"/><path fill="rgb(161, 45, 34)" d=" M 134.840000 208.320000 C 133.550000 209.430000 132.120000 210.480000 130.550000 211.460000 C 132.120000 210.480000 133.550000 209.430000 134.840000 208.320000 Z"/><path fill="rgb(161, 45, 34)" d=" M 88.100000 228.610000 C 87.210000 228.800000 86.340000 228.970000 85.490000 229.130000 C 86.340000 228.970000 87.210000 228.800000 88.100000 228.610000 Z"/><path fill="rgb(161, 45, 34)" d=" M 145.400000 165.480000 C 145.400000 165.480000 133.150000 165.720000 115.720000 174.990000 C 118.930000 183.560000 131.010000 197.090000 138.370000 204.840000 C 137.850000 205.440000 137.290000 206.030000 136.710000 206.610000 C 152.740000 190.720000 145.400000 165.480000 145.400000 165.480000 Z"/><path fill="rgb(161, 45, 34)" d=" M 91.900000 227.740000 C 90.800000 228.010000 89.730000 228.260000 88.680000 228.490000 C 89.730000 228.260000 90.800000 228.010000 91.900000 227.740000 Z"/><path fill="rgb(161, 45, 34)" d=" M 76.800000 207.290000 C 77.410000 206.570000 78.020000 205.870000 78.630000 205.170000 C 78.020000 205.870000 77.410000 206.570000 76.800000 207.290000 Z"/><path fill="rgb(161, 45, 34)" d=" M 136.700000 206.620000 C 136.110000 207.200000 135.500000 207.770000 134.850000 208.320000 C 135.500000 207.770000 136.120000 207.200000 136.700000 206.620000 Z"/><path fill="rgb(161, 45, 34)" d=" M 84.920000 229.240000 C 83.940000 229.420000 82.980000 229.580000 82.050000 229.720000 C 82.980000 229.580000 83.940000 229.420000 84.920000 229.240000 Z"/><path fill="rgb(161, 45, 34)" d=" M 74.920000 209.530000 C 75.510000 208.820000 76.090000 208.120000 76.680000 207.430000 C 76.090000 208.120000 75.510000 208.820000 74.920000 209.530000 Z"/><path fill="rgb(161, 45, 34)" d=" M 73.010000 211.890000 C 73.600000 211.150000 74.190000 210.430000 74.770000 209.720000 C 74.190000 210.430000 73.600000 211.150000 73.010000 211.890000 Z"/><path fill="rgb(233, 62, 47)" d=" M 115.720000 174.990000 C 115.720000 174.990000 115.720000 174.990000 115.720000 174.990000 C 115.710000 175.000000 115.700000 175.000000 115.690000 175.010000 C 114.980000 175.390000 114.250000 175.790000 113.510000 176.200000 C 113.510000 176.200000 113.500000 176.210000 113.500000 176.210000 C 112.760000 176.620000 112.010000 177.060000 111.260000 177.500000 C 111.220000 177.520000 111.180000 177.550000 111.150000 177.570000 C 110.500000 177.960000 109.840000 178.360000 109.170000 178.770000 C 109.010000 178.880000 108.840000 178.980000 108.680000 179.080000 C 108.010000 179.500000 107.350000 179.930000 106.670000 180.380000 C 106.630000 180.410000 106.580000 180.430000 106.540000 180.460000 C 106.540000 180.460000 106.540000 180.460000 106.540000 180.460000 C 109.160000 187.020000 116.740000 203.170000 130.540000 211.460000 L 130.540000 211.460000 C 130.540000 211.460000 130.550000 211.460000 130.550000 211.460000 C 132.120000 210.480000 133.550000 209.430000 134.840000 208.320000 C 134.850000 208.320000 134.850000 208.320000 134.850000 208.320000 C 135.500000 207.770000 136.110000 207.200000 136.700000 206.620000 C 136.700000 206.620000 136.710000 206.620000 136.710000 206.610000 C 137.290000 206.030000 137.850000 205.440000 138.370000 204.840000 C 131.010000 197.090000 118.940000 183.560000 115.720000 174.990000 Z"/><path fill="rgb(233, 62, 47)" d=" M 78.660000 205.150000 L 78.660000 205.150000 C 78.650000 205.150000 78.640000 205.160000 78.630000 205.170000 C 78.020000 205.870000 77.410000 206.570000 76.800000 207.290000 C 76.760000 207.340000 76.720000 207.380000 76.680000 207.430000 C 76.090000 208.120000 75.510000 208.820000 74.920000 209.530000 C 74.870000 209.590000 74.820000 209.660000 74.770000 209.720000 C 74.180000 210.430000 73.600000 211.150000 73.010000 211.890000 C 72.990000 211.910000 72.970000 211.940000 72.950000 211.960000 C 72.340000 212.740000 71.720000 213.520000 71.110000 214.320000 C 73.650000 219.100000 77.250000 224.750000 82.020000 229.720000 L 82.020000 229.720000 C 82.030000 229.720000 82.040000 229.720000 82.050000 229.720000 C 82.980000 229.580000 83.940000 229.420000 84.920000 229.240000 C 85.110000 229.200000 85.300000 229.170000 85.490000 229.130000 C 86.340000 228.970000 87.210000 228.800000 88.090000 228.610000 C 88.290000 228.570000 88.480000 228.530000 88.680000 228.490000 C 89.730000 228.260000 90.800000 228.010000 91.900000 227.740000 C 91.910000 227.740000 91.920000 227.740000 91.930000 227.740000 C 93.110000 227.440000 94.320000 227.120000 95.560000 226.770000 C 89.690000 220.360000 82.560000 211.960000 78.660000 205.150000 Z"/><path fill="rgb(233, 62, 47)" d=" M 94.300000 189.700000 C 94.300000 189.700000 94.290000 189.700000 94.300000 189.700000 C 94.280000 189.710000 94.260000 189.720000 94.250000 189.740000 C 91.550000 192.030000 88.810000 194.550000 86.050000 197.290000 C 86.040000 197.300000 86.030000 197.310000 86.030000 197.310000 L 86.030000 197.310000 C 89.050000 204.150000 95.360000 215.880000 105.600000 223.490000 L 105.600000 223.490000 C 105.610000 223.490000 105.620000 223.480000 105.630000 223.480000 C 109.120000 222.180000 112.770000 220.660000 116.560000 218.880000 C 109.310000 211.240000 97.710000 198.200000 94.300000 189.700000 Z"/><path fill="rgb(161, 45, 34)" d=" M 162.460000 155.660000 C 169.940000 163.140000 169.940000 175.260000 162.460000 182.740000 C 154.980000 190.220000 142.850000 190.220000 135.370000 182.740000 C 127.890000 175.260000 127.890000 163.140000 135.370000 155.660000 C 142.850000 148.170000 154.980000 148.170000 162.460000 155.660000 Z"/><path fill="rgb(235, 192, 202)" d=" M 107.110000 106.710000 C 140.180000 132.930000 163.730000 158.920000 163.730000 158.920000 C 163.730000 158.920000 123.640000 157.510000 90.570000 131.290000 C 57.500000 105.070000 45.490000 77.620000 50.340000 69.020000 C 55.190000 60.410000 74.040000 80.490000 107.110000 106.710000 Z"/><path fill="rgb(235, 192, 202)" d=" M 136.080000 88.090000 C 155.540000 125.530000 166.410000 158.880000 166.410000 158.880000 C 166.410000 158.880000 130.400000 141.210000 110.940000 103.760000 C 91.470000 66.320000 91.720000 36.360000 99.660000 30.490000 C 107.610000 24.610000 116.610000 50.640000 136.080000 88.090000 Z"/><path fill="rgb(83, 169, 173)" d=" M 148.730000 174.690000 C 145.880000 178.140000 143.190000 181.690000 140.540000 185.280000 C 139.210000 187.070000 137.920000 188.890000 136.620000 190.700000 C 135.310000 192.500000 134.070000 194.350000 132.790000 196.170000 L 132.950000 195.480000 C 133.900000 204.680000 134.910000 213.870000 135.990000 223.050000 L 137.690000 236.810000 C 138.230000 241.400000 138.910000 245.980000 139.510000 250.560000 L 139.130000 249.930000 L 142.750000 252.310000 L 141.620000 253.950000 L 138.100000 251.410000 L 137.770000 251.160000 L 137.720000 250.780000 C 137.210000 246.180000 136.770000 241.580000 136.200000 236.990000 L 134.550000 223.220000 C 133.410000 214.050000 132.180000 204.890000 130.900000 195.730000 L 130.850000 195.380000 L 131.060000 195.030000 C 132.240000 193.140000 133.450000 191.270000 134.590000 189.360000 C 135.750000 187.460000 136.910000 185.550000 138.030000 183.630000 C 140.290000 179.780000 142.500000 175.910000 144.550000 171.930000 L 148.730000 174.690000 Z"/><path fill="rgb(83, 169, 173)" d=" M 125.670000 184.410000 C 121.070000 179.070000 116.350000 173.830000 111.610000 168.620000 L 114.200000 168.170000 C 106.620000 183.320000 99.500000 198.680000 92.310000 214.000000 C 88.750000 221.690000 85.150000 229.340000 81.640000 237.050000 L 71.070000 260.130000 L 70.860000 260.600000 L 70.340000 260.570000 C 63.490000 260.210000 56.660000 259.780000 49.810000 259.480000 L 49.940000 257.480000 C 56.770000 258.080000 63.600000 258.540000 70.440000 259.070000 L 69.700000 259.510000 L 80.320000 236.440000 C 83.870000 228.760000 87.330000 221.030000 90.830000 213.330000 C 97.760000 197.880000 104.770000 182.470000 111.310000 166.850000 L 112.180000 164.760000 L 113.890000 166.400000 C 118.960000 171.300000 124.060000 176.170000 129.270000 180.930000 L 125.670000 184.410000 Z"/><path fill="rgb(83, 169, 173)" d=" M 190.150000 143.650000 C 189.320000 133.670000 184.140000 126.110000 181.110000 122.490000 C 181.690000 121.970000 182.060000 121.230000 182.060000 120.390000 C 182.060000 118.840000 180.800000 117.580000 179.250000 117.580000 C 177.690000 117.580000 176.440000 118.840000 176.440000 120.390000 C 176.440000 121.950000 177.690000 123.210000 179.250000 123.210000 C 179.880000 123.210000 180.460000 122.990000 180.920000 122.640000 C 184.150000 127.970000 186.560000 138.060000 187.600000 142.910000 C 185.610000 142.440000 183.500000 142.150000 181.300000 142.050000 C 179.590000 141.980000 177.920000 142.030000 176.320000 142.190000 C 175.270000 132.630000 170.310000 125.390000 167.370000 121.860000 C 167.950000 121.350000 168.320000 120.600000 168.320000 119.770000 C 168.320000 118.220000 167.060000 116.960000 165.510000 116.960000 C 163.950000 116.960000 162.690000 118.220000 162.690000 119.770000 C 162.690000 121.320000 163.950000 122.580000 165.510000 122.580000 C 166.140000 122.580000 166.710000 122.360000 167.180000 122.010000 C 170.470000 127.450000 172.910000 137.790000 173.910000 142.540000 C 165.360000 144.140000 159.120000 149.510000 158.690000 159.160000 C 158.140000 171.430000 167.530000 181.820000 179.670000 182.370000 C 191.810000 182.910000 202.100000 173.400000 202.650000 161.130000 C 203.050000 152.050000 197.820000 146.260000 190.150000 143.650000 Z"/><path fill="rgb(8, 51, 57)" d=" M 173.820000 158.030000 C 173.970000 156.570000 174.390000 155.170000 175.020000 153.840000 C 175.320000 153.160000 175.710000 152.520000 176.190000 151.900000 C 176.690000 151.300000 177.280000 150.640000 178.350000 150.380000 C 178.880000 150.250000 179.510000 150.350000 179.970000 150.610000 C 180.430000 150.870000 180.760000 151.210000 181.020000 151.550000 C 181.500000 152.250000 181.810000 152.950000 182.020000 153.680000 C 182.450000 155.110000 182.610000 156.550000 182.540000 158.010000 C 181.880000 156.710000 181.350000 155.400000 180.730000 154.200000 C 180.410000 153.610000 180.090000 153.030000 179.700000 152.610000 C 179.510000 152.410000 179.320000 152.250000 179.150000 152.180000 C 178.990000 152.100000 178.880000 152.090000 178.720000 152.120000 C 178.380000 152.180000 177.890000 152.560000 177.460000 153.000000 C 177.010000 153.450000 176.630000 154.000000 176.210000 154.540000 C 175.420000 155.650000 174.660000 156.840000 173.820000 158.030000 Z"/><path fill="rgb(8, 51, 57)" d=" M 192.390000 158.120000 C 192.420000 156.950000 192.670000 155.810000 193.080000 154.710000 C 193.280000 154.150000 193.550000 153.620000 193.910000 153.080000 C 194.100000 152.810000 194.330000 152.550000 194.650000 152.310000 C 194.960000 152.080000 195.500000 151.860000 196.060000 152.000000 C 196.600000 152.140000 196.910000 152.480000 197.140000 152.760000 C 197.360000 153.050000 197.510000 153.350000 197.640000 153.640000 C 197.870000 154.230000 198.040000 154.790000 198.130000 155.380000 C 198.340000 156.530000 198.390000 157.680000 198.250000 158.850000 C 197.760000 157.780000 197.390000 156.720000 196.980000 155.700000 C 196.770000 155.200000 196.580000 154.690000 196.330000 154.260000 C 196.120000 153.830000 195.750000 153.450000 195.690000 153.480000 C 195.690000 153.470000 195.650000 153.460000 195.510000 153.550000 C 195.370000 153.630000 195.210000 153.790000 195.050000 153.970000 C 194.720000 154.320000 194.440000 154.780000 194.140000 155.230000 C 193.570000 156.150000 193.020000 157.140000 192.390000 158.120000 Z"/><path fill="rgb(8, 51, 57)" d=" M 272.020000 189.530000 C 272.020000 189.530000 235.740000 189.350000 196.270000 166.860000 C 193.810000 164.630000 187.730000 158.280000 187.540000 149.920000 L 182.900000 149.430000 L 188.510000 169.690000 L 184.360000 169.690000 L 186.070000 175.800000 C 186.070000 175.790000 249.070000 195.580000 272.020000 189.530000 Z"/><path fill="rgb(255, 255, 255)" d=" M 171.130000 163.810000 C 171.130000 163.810000 172.690000 188.180000 180.810000 167.250000 L 171.130000 163.810000 Z"/></svg>