<?xml version="1.0" standalone="no"?><!DOCTYPE svg PUBLIC "-//W3C//DTD SVG 1.1//EN" "http://www.w3.org/Graphics/SVG/1.1/DTD/svg11.dtd"><svg id="Mustache0.svg" width="150" height="150" version="1.1" viewBox="0 0 300 300" xmlns="http://www.w3.org/2000/svg" xmlns:xlink="http://www.w3.org/1999/xlink"><defs xmlns="http://www.w3.org/1999/xhtml"><style type="text/css"><![CDATA[
* { border: 0px; margin: 0px; padding: 0px; }
html { background-color: rgb(255, 255, 255); font-family: Verdana, Arial; }
.webgl-content * { position: absolute; width: 100%; height: 100%; user-select: none; }
.webgl-content .logo, .progress { position: absolute; left: 50%; top: 50%; transform: translate(-50%, -50%); }
.webgl-content .logo { background: url("progressLogo.Light.png") center center / contain no-repeat; width: 154px; height: 130px; }
.webgl-content .progress { height: 18px; width: 141px; margin-top: 90px; }
.webgl-content .progress .empty { background: url("progressEmpty.Light.png") right center / cover no-repeat; float: right; width: 100%; height: 100%; display: inline-block; }
.webgl-content .progress .full { background: url("progressFull.Light.png") left center / cover no-repeat; float: left; width: 0%; height: 100%; display: inline-block; }
.webgl-content .logo.Dark { background-image: url("progressLogo.Dark.png"); }
.webgl-content .progress.Dark .empty { background-image: url("progressEmpty.Dark.png"); }
.webgl-content .progress.Dark .full { background-image: url("progressFull.Dark.png"); }
#loading-content { z-index: 10000; position: fixed; width: 100%; height: 100%; left: 0px; top: 0px; overflow: hidden; background: url("background.png"); }
.hud-intro .hud-intro-social .btn-discord, .hud-respawn .hud-respawn-social .btn-discord { background-image: url("//lordz.io/images/discord-icon.png"); }
.hud-intro .hud-intro-social .btn-twitter, .hud-respawn .hud-respawn-social .btn-twitter { background-image: url("//lordz.io/images/twitter-icon.png"); }
.hud-intro .hud-intro-social .btn-facebook, .hud-respawn .hud-respawn-social .btn-facebook { background-image: url("//lordz.io/images/facebook-icon.png"); }
.hud-intro .hud-intro-social .btn-youtube, .hud-respawn .hud-respawn-social .btn-youtube { background-image: url("//lordz.io/images/youtube-icon.png"); }
* { box-sizing: border-box; user-select: none; }
.btn { position: relative; display: inline-block; top: 0px; height: 36px; line-height: 36px; padding: 0px 20px; background: rgb(68, 68, 68); color: rgb(238, 238, 238); border: 0px; font-size: 14px; vertical-align: top; text-align: center; text-decoration: none; text-shadow: rgba(0, 0, 0, 0.4) 0px 1px 0px; box-shadow: rgba(0, 0, 0, 0.2) 0px 2px 10px, rgb(51, 51, 51) 0px 4px 0px; border-radius: 4px; transition: all 0.15s ease-in-out 0s; }
.btn:hover, .btn:active { background-color: rgb(85, 85, 85); color: rgb(255, 255, 255); }
.btn:active { top: 4px; box-shadow: rgba(0, 0, 0, 0.2) 0px 2px 10px !important; }
.btn-green { background-color: rgb(71, 149, 13); box-shadow: rgba(0, 0, 0, 0.2) 0px 2px 10px, rgb(53, 131, 0) 0px 4px 0px; }
.btn-green:hover, .btn-green:active { background-color: rgb(100, 184, 32); }
.btn-red { background-color: rgb(179, 53, 60); box-shadow: rgba(0, 0, 0, 0.2) 0px 2px 10px, rgb(161, 35, 42) 0px 4px 0px; }
.btn-red:hover, .btn-red:active { background-color: rgb(203, 87, 91); }
.btn-blue { background-color: rgb(29, 141, 238); box-shadow: rgba(0, 0, 0, 0.2) 0px 2px 10px, rgb(11, 123, 220) 0px 4px 0px; }
.btn-blue:hover, .btn-blue:active { background-color: rgb(79, 167, 238); }
.btn-purple { background-color: rgb(114, 55, 228); box-shadow: rgba(0, 0, 0, 0.2) 0px 2px 10px, rgb(96, 37, 210) 0px 4px 0px; }
.btn-purple:hover, .btn-purple:active { background-color: rgb(130, 89, 228); }
.btn-twitter { background-color: rgb(27, 149, 224); box-shadow: rgba(0, 0, 0, 0.2) 0px 2px 10px, rgb(9, 131, 206) 0px 4px 0px; }
.btn-twitter:hover, .btn-twitter:active { background-color: rgb(12, 122, 191); }
.btn-facebook { background-color: rgb(66, 103, 178); box-shadow: rgba(0, 0, 0, 0.2) 0px 2px 10px, rgb(48, 85, 160) 0px 4px 0px; }
.btn-facebook:hover, .btn-facebook:active { background-color: rgb(54, 88, 153); }
.btn-google { background-color: rgb(221, 75, 57); box-shadow: rgba(0, 0, 0, 0.2) 0px 2px 10px, rgb(203, 57, 39) 0px 4px 0px; }
.btn-google:hover, .btn-google:active { background-color: rgb(186, 63, 49); }
.btn-discord { background-color: rgb(114, 137, 218); box-shadow: rgba(0, 0, 0, 0.2) 0px 2px 10px, rgb(96, 119, 200) 0px 4px 0px; }
.btn-discord:hover, .btn-discord:active { background-color: rgb(90, 109, 176); }
.btn-youtube { background-color: rgb(229, 45, 39); box-shadow: rgba(0, 0, 0, 0.2) 0px 2px 10px, rgb(211, 27, 21) 0px 4px 0px; }
.btn-youtube:hover, .btn-youtube:active { background-color: rgb(186, 37, 33); }
.hud { position: fixed; top: 0px; left: 0px; bottom: 0px; right: 0px; }
.hud .hud-bottom-left { display: flex; position: absolute; bottom: 20px; left: 20px; flex-direction: column-reverse; }
.hud-intro .hud-intro-corner-bottom-left, .hud-respawn .hud-respawn-corner-bottom-left { position: fixed; bottom: 20px; left: 20px; text-align: left; }
.hud-intro .hud-intro-social, .hud-respawn .hud-respawn-social { width: 240px; line-height: 24px; font-size: 14px; color: rgb(119, 119, 119); }
.hud-intro .hud-intro-social .btn, .hud-respawn .hud-respawn-social .btn { display: block; float: left; margin: 0px 10px 0px 0px; width: 40px; height: 40px; line-height: 40px; background-size: 24px; background-position: center center; background-repeat: no-repeat; }
.hud-intro .hud-intro-more-games { position: relative; bottom: 5px; line-height: 20px; font-size: 14px; color: rgba(255, 255, 255, 0.4); text-shadow: rgba(0, 0, 0, 0.2) 0px 1px 3px; }
.hud-intro .hud-intro-more-games a { display: inline-block; padding: 0px 20px; line-height: 40px; background: rgb(132, 115, 212); color: rgb(238, 238, 238); text-decoration: none; border-radius: 4px; transition: all 0.15s ease-in-out 0s; }
.hud-intro .hud-intro-more-games a:hover, .hud-intro .hud-intro-more-games a:active { background: rgb(103, 90, 166); }
#preroll video { left: 0px; top: 0px; }
.fb_hidden { position: absolute; top: -10000px; z-index: 10001; }
.fb_reposition { overflow: hidden; position: relative; }
.fb_invisible { display: none; }
.fb_reset { background: none; border: 0px; border-spacing: 0px; color: rgb(0, 0, 0); cursor: auto; direction: ltr; font-family: "lucida grande", tahoma, verdana, arial, sans-serif; font-size: 11px; font-style: normal; font-variant: normal; font-weight: normal; letter-spacing: normal; line-height: 1; margin: 0px; overflow: visible; padding: 0px; text-align: left; text-decoration: none; text-indent: 0px; text-shadow: none; text-transform: none; visibility: visible; white-space: normal; word-spacing: normal; }
.fb_animate { animation: 0.3s ease 0s 1 normal forwards running fb_transform; }
.fb_dialog { background: rgba(82, 82, 82, 0.7); position: absolute; top: -10000px; z-index: 10001; }
.fb_dialog_advanced { border-radius: 8px; padding: 10px; }
.fb_dialog_content { background: rgb(255, 255, 255); color: rgb(55, 55, 55); }
.fb_dialog_close_icon { background: url("https://static.xx.fbcdn.net/rsrc.php/v3/yq/r/IE9JII6Z1Ys.png") 0px 0px no-repeat scroll transparent; cursor: pointer; display: block; height: 15px; position: absolute; right: 18px; top: 17px; width: 15px; }
.fb_dialog_mobile .fb_dialog_close_icon { left: 5px; right: auto; top: 5px; }
.fb_dialog_padding { background-color: transparent; position: absolute; width: 1px; z-index: -1; }
.fb_dialog_close_icon:hover { background: url("https://static.xx.fbcdn.net/rsrc.php/v3/yq/r/IE9JII6Z1Ys.png") 0px -15px no-repeat scroll transparent; }
.fb_dialog_close_icon:active { background: url("https://static.xx.fbcdn.net/rsrc.php/v3/yq/r/IE9JII6Z1Ys.png") 0px -30px no-repeat scroll transparent; }
.fb_dialog_iframe { line-height: 0; }
.fb_dialog_content .dialog_title { background: rgb(109, 132, 180); border: 1px solid rgb(54, 88, 153); color: rgb(255, 255, 255); font-size: 14px; font-weight: bold; margin: 0px; }
body.fb_hidden { height: 100%; left: 0px; margin: 0px; overflow: visible; position: absolute; top: -10000px; transform: none; width: 100%; }
.fb_dialog.fb_dialog_mobile.loading { background: url("https://static.xx.fbcdn.net/rsrc.php/v3/ya/r/3rhSv5V8j3o.gif") 50% 50% no-repeat white; min-height: 100%; min-width: 100%; overflow: hidden; position: absolute; top: 0px; z-index: 10001; }
.fb_dialog.fb_dialog_mobile.loading.centered { background: none; height: auto; min-height: initial; min-width: initial; width: auto; }
.fb_dialog.fb_dialog_mobile.loading.centered #fb_dialog_loader_spinner { width: 100%; }
.fb_dialog.fb_dialog_mobile.loading.centered .fb_dialog_content { background: none; }
.loading.centered #fb_dialog_loader_close { clear: both; color: rgb(255, 255, 255); display: block; font-size: 18px; padding-top: 20px; }
#fb-root #fb_dialog_ipad_overlay { background: rgba(0, 0, 0, 0.4); bottom: 0px; left: 0px; min-height: 100%; position: absolute; right: 0px; top: 0px; width: 100%; z-index: 10000; }
#fb-root #fb_dialog_ipad_overlay.hidden { display: none; }
.fb_dialog.fb_dialog_mobile.loading iframe { visibility: hidden; }
.fb_dialog_mobile .fb_dialog_iframe { position: sticky; top: 0px; }
.fb_dialog_content .dialog_header { border-bottom: 1px solid rgb(4, 59, 135); border-top-color: rgb(4, 59, 135); border-right-color: rgb(4, 59, 135); border-left-color: rgb(4, 59, 135); box-shadow: white 0px 1px 1px -1px inset; color: rgb(255, 255, 255); font: bold 14px Helvetica, sans-serif; text-overflow: ellipsis; text-shadow: rgba(0, 30, 84, 0.298) 0px -1px 0px; vertical-align: middle; white-space: nowrap; }
.fb_dialog_content .dialog_header table { height: 43px; width: 100%; }
.fb_dialog_content .dialog_header td.header_left { font-size: 12px; padding-left: 5px; vertical-align: middle; width: 60px; }
.fb_dialog_content .dialog_header td.header_right { font-size: 12px; padding-right: 5px; vertical-align: middle; width: 60px; }
.fb_dialog_content .touchable_button { background-clip: padding-box; border: 1px solid rgb(41, 72, 125); border-radius: 3px; display: inline-block; line-height: 18px; margin-top: 3px; max-width: 85px; padding: 4px 12px; position: relative; }
.fb_dialog_content .dialog_header .touchable_button input { background: none; border: none; color: rgb(255, 255, 255); font: bold 12px Helvetica, sans-serif; margin: 2px -12px; padding: 2px 6px 3px; text-shadow: rgba(0, 30, 84, 0.298) 0px -1px 0px; }
.fb_dialog_content .dialog_header .header_center { color: rgb(255, 255, 255); font-size: 16px; font-weight: bold; line-height: 18px; text-align: center; vertical-align: middle; }
.fb_dialog_content .dialog_content { background: url("https://static.xx.fbcdn.net/rsrc.php/v3/y9/r/jKEcVPZFk-2.gif") 50% 50% no-repeat; border-width: 0px 1px; border-right-style: solid; border-left-style: solid; border-right-color: rgb(74, 74, 74); border-left-color: rgb(74, 74, 74); border-image: initial; border-bottom-style: initial; border-bottom-color: initial; border-top-style: initial; border-top-color: initial; height: 150px; }
.fb_dialog_content .dialog_footer { background: rgb(245, 246, 247); border-width: 1px; border-style: solid; border-color: rgb(204, 204, 204) rgb(74, 74, 74) rgb(74, 74, 74); border-image: initial; height: 40px; }
#fb_dialog_loader_close { float: left; }
.fb_dialog.fb_dialog_mobile .fb_dialog_close_button { text-shadow: rgba(0, 30, 84, 0.298) 0px -1px 0px; }
.fb_dialog.fb_dialog_mobile .fb_dialog_close_icon { visibility: hidden; }
#fb_dialog_loader_spinner { animation: 1.2s linear 0s infinite normal none running rotateSpinner; background-color: transparent; background-image: url("https://static.xx.fbcdn.net/rsrc.php/v3/yD/r/t-wz8gw1xG1.png"); background-position: 50% 50%; background-repeat: no-repeat; height: 24px; width: 24px; }
.fb_iframe_widget { display: inline-block; position: relative; }
.fb_iframe_widget span { display: inline-block; position: relative; text-align: justify; }
.fb_iframe_widget iframe { position: absolute; }
.fb_iframe_widget_fluid_desktop, .fb_iframe_widget_fluid_desktop span, .fb_iframe_widget_fluid_desktop iframe { max-width: 100%; }
.fb_iframe_widget_fluid_desktop iframe { min-width: 220px; position: relative; }
.fb_iframe_widget_lift { z-index: 1; }
.fb_iframe_widget_fluid { display: inline; }
.fb_iframe_widget_fluid span { width: 100%; }
.st0 { fill: rgb(119, 183, 73); }
.st1 { fill: rgb(247, 175, 47); }
.st2 { fill: rgb(233, 81, 15); }
.st3 { fill: url("#SVGID_1_"); }
.st4 { fill: url("#SVGID_2_"); }
.st5 { fill: rgb(252, 242, 119); }
.st6 { fill: url("#SVGID_3_"); }
.st7 { fill: url("#SVGID_4_"); }
.st8 { fill: url("#SVGID_5_"); }
.st9 { fill: url("#SVGID_6_"); }
.st10 { fill: url("#SVGID_7_"); }
.st11 { fill: url("#SVGID_8_"); }
.st12 { fill: url("#SVGID_9_"); }
.st13 { fill: url("#SVGID_10_"); }
.st14 { fill: url("#SVGID_11_"); }
.st15 { fill: url("#SVGID_12_"); }
.st16 { fill: url("#SVGID_13_"); }
.st17 { fill: url("#SVGID_14_"); }
.st18 { fill: url("#SVGID_15_"); }
.st19 { fill: url("#SVGID_16_"); }
.st0 { fill: rgb(119, 183, 73); }
.st1 { fill: rgb(247, 175, 47); }
.st2 { fill: rgb(233, 81, 15); }
.st3 { fill: url("#SVGID_1_"); }
.st4 { fill: url("#SVGID_2_"); }
.st5 { fill: rgb(252, 242, 119); }
.st6 { fill: url("#SVGID_3_"); }
.st7 { fill: url("#SVGID_4_"); }
.st8 { fill: url("#SVGID_5_"); }
.st9 { fill: url("#SVGID_6_"); }
.st10 { fill: url("#SVGID_7_"); }
.st11 { fill: url("#SVGID_8_"); }
.st12 { fill: url("#SVGID_9_"); }
.st13 { fill: url("#SVGID_10_"); }
.st14 { fill: url("#SVGID_11_"); }
.st15 { fill: url("#SVGID_12_"); }
.st16 { fill: url("#SVGID_13_"); }
.st17 { fill: url("#SVGID_14_"); }
.st18 { fill: url("#SVGID_15_"); }
.st19 { fill: url("#SVGID_16_"); }
.st0 { fill: rgb(119, 183, 73); }
.st1 { fill: rgb(247, 175, 47); }
.st2 { fill: rgb(233, 81, 15); }
.st3 { fill: url("#SVGID_1_"); }
.st4 { fill: url("#SVGID_2_"); }
.st5 { fill: rgb(252, 242, 119); }
.st6 { fill: url("#SVGID_3_"); }
.st7 { fill: url("#SVGID_4_"); }
.st8 { fill: url("#SVGID_5_"); }
.st9 { fill: url("#SVGID_6_"); }
.st10 { fill: url("#SVGID_7_"); }
.st11 { fill: url("#SVGID_8_"); }
.st12 { fill: url("#SVGID_9_"); }
.st13 { fill: url("#SVGID_10_"); }
.st14 { fill: url("#SVGID_11_"); }
.st15 { fill: url("#SVGID_12_"); }
.st16 { fill: url("#SVGID_13_"); }
.st17 { fill: url("#SVGID_14_"); }
.st18 { fill: url("#SVGID_15_"); }
.st19 { fill: url("#SVGID_16_"); }
.st0 { fill: rgb(119, 183, 73); }
.st1 { fill: rgb(247, 175, 47); }
.st2 { fill: rgb(233, 81, 15); }
.st3 { fill: url("#SVGID_1_"); }
.st4 { fill: url("#SVGID_2_"); }
.st5 { fill: rgb(252, 242, 119); }
.st6 { fill: url("#SVGID_3_"); }
.st7 { fill: url("#SVGID_4_"); }
.st8 { fill: url("#SVGID_5_"); }
.st9 { fill: url("#SVGID_6_"); }
.st10 { fill: url("#SVGID_7_"); }
.st11 { fill: url("#SVGID_8_"); }
.st12 { fill: url("#SVGID_9_"); }
.st13 { fill: url("#SVGID_10_"); }
.st14 { fill: url("#SVGID_11_"); }
.st15 { fill: url("#SVGID_12_"); }
.st16 { fill: url("#SVGID_13_"); }
.st17 { fill: url("#SVGID_14_"); }
.st18 { fill: url("#SVGID_15_"); }
.st19 { fill: url("#SVGID_16_"); }]]></style></defs><path fill="rgb(57, 46, 75)" d=" M 281.540000 225.100000 C 278.780000 220.350000 268.520000 221.120000 268.520000 221.120000 L 268.450000 219.520000 C 272.600000 203.970000 268.970000 161.990000 268.970000 161.990000 C 257.050000 156.810000 214.030000 158.880000 214.030000 158.880000 C 208.330000 167.170000 213.510000 171.840000 213.510000 171.840000 C 228.540000 166.140000 254.980000 172.870000 254.980000 172.870000 C 258.080000 179.610000 260.160000 219.520000 260.160000 219.520000 L 260.710000 223.260000 L 254.120000 227.240000 C 253.660000 231.070000 256.110000 236.590000 259.330000 234.900000 C 262.550000 233.220000 258.720000 229.850000 258.720000 229.850000 C 259.180000 226.790000 264.230000 225.710000 264.230000 225.710000 C 271.280000 228.010000 266.070000 242.710000 266.070000 242.710000 C 268.210000 243.480000 270.210000 242.860000 270.210000 242.860000 C 273.880000 237.660000 273.120000 229.850000 273.120000 229.850000 C 276.180000 232.600000 273.270000 242.560000 273.270000 242.560000 C 275.410000 242.710000 277.100000 241.030000 277.100000 241.030000 C 281.080000 229.690000 275.410000 227.400000 275.410000 227.400000 C 279.500000 227.760000 281.110000 231.030000 279.090000 238.580000 L 282.610000 239.040000 C 285.520000 233.830000 284.290000 229.850000 281.540000 225.100000 Z"/><path fill="rgb(57, 46, 75)" d=" M 105.390000 220.650000 C 105.390000 220.650000 109.760000 249.660000 101.020000 271.120000 L 112.550000 271.120000 L 108.170000 267.550000 C 108.170000 267.550000 116.920000 245.690000 116.120000 221.040000 L 105.390000 220.650000 Z"/><path fill="rgb(57, 46, 75)" d=" M 184.490000 220.650000 C 184.490000 220.650000 188.860000 249.660000 180.120000 271.120000 L 191.640000 271.120000 L 187.270000 267.550000 C 187.270000 267.550000 196.020000 245.690000 195.220000 221.040000 L 184.490000 220.650000 Z"/><path fill="rgb(121, 163, 53)" d=" M 122.090000 31.840000 C 111.350000 35.820000 95.850000 52.120000 95.850000 52.120000 C 108.290000 56.430000 111.970000 73.540000 113.010000 85.350000 L 137.410000 75.130000 C 134.450000 51.410000 122.090000 31.840000 122.090000 31.840000 Z"/><path fill="rgb(57, 46, 75)" d=" M 113.010000 85.350000 C 113.600000 92.030000 113.340000 97.030000 113.340000 97.030000 L 137.990000 87.890000 C 138.160000 83.560000 137.930000 79.280000 137.410000 75.130000 L 113.010000 85.350000 Z"/><path fill="rgb(121, 163, 53)" d=" M 108.970000 105.380000 L 106.580000 100.210000 C 106.580000 100.210000 131.620000 85.100000 143.950000 84.710000 L 144.010000 93.060000 C 144.010000 93.060000 116.520000 101.400000 108.970000 105.380000 Z"/><path fill="rgb(221, 70, 75)" d=" M 193.090000 107.760000 L 193.330000 108.110000 C 179.770000 97.140000 162.270000 92.290000 144.010000 93.060000 C 127.170000 93.770000 114.230000 99.560000 104.310000 108.360000 C 97.920000 110.980000 73.100000 121.750000 75.180000 130.420000 C 75.180000 130.420000 82.040000 127.730000 86.340000 124.640000 C 83.340000 127.730000 79.030000 133.130000 79.560000 138.370000 C 79.560000 138.370000 80.340000 140.200000 85.090000 135.800000 C 69.130000 172.070000 72.570000 219.270000 73.520000 226.260000 C 75.080000 237.660000 81.820000 228.330000 81.820000 228.330000 C 84.410000 239.740000 88.550000 228.850000 88.550000 228.850000 C 91.140000 241.290000 96.850000 227.300000 96.850000 227.300000 C 107.210000 246.480000 121.200000 227.300000 121.200000 227.300000 C 128.460000 235.590000 135.200000 225.020000 135.200000 225.020000 C 152.290000 245.690000 176.660000 225.260000 176.660000 225.260000 C 184.440000 241.320000 196.870000 226.290000 196.870000 226.290000 C 211.920000 236.940000 221.060000 227.800000 221.060000 227.800000 C 221.060000 227.800000 225.590000 227.450000 219.160000 160.960000 C 218.220000 151.220000 216.070000 142.600000 212.970000 135.020000 C 218.440000 140.390000 219.320000 138.370000 219.320000 138.370000 C 219.840000 133.130000 215.540000 127.730000 212.540000 124.640000 C 216.840000 127.730000 223.690000 130.420000 223.690000 130.420000 C 226.080000 120.480000 193.090000 107.760000 193.090000 107.760000 Z"/><path fill="rgb(57, 46, 75)" d=" M 120.430000 155.440000 C 120.320000 155.440000 120.210000 155.420000 120.100000 155.380000 C 119.580000 155.200000 119.310000 154.630000 119.490000 154.110000 C 119.840000 153.130000 123.000000 144.580000 127.690000 144.510000 C 127.710000 144.510000 127.730000 144.510000 127.750000 144.510000 C 130.430000 144.510000 132.740000 147.130000 134.810000 152.500000 C 135.010000 153.010000 134.760000 153.590000 134.240000 153.790000 C 133.730000 153.990000 133.150000 153.730000 132.950000 153.220000 C 131.280000 148.890000 129.430000 146.510000 127.750000 146.510000 C 127.740000 146.510000 127.730000 146.510000 127.720000 146.510000 C 124.920000 146.550000 122.130000 152.640000 121.380000 154.770000 C 121.230000 155.190000 120.850000 155.440000 120.430000 155.440000 Z"/><path fill="rgb(57, 46, 75)" d=" M 195.550000 155.440000 C 195.140000 155.440000 194.750000 155.180000 194.610000 154.770000 C 193.480000 151.600000 190.760000 146.550000 188.260000 146.510000 C 188.250000 146.510000 188.240000 146.510000 188.240000 146.510000 C 186.550000 146.510000 184.710000 148.890000 183.040000 153.220000 C 182.840000 153.730000 182.260000 153.990000 181.750000 153.790000 C 181.230000 153.590000 180.970000 153.010000 181.170000 152.500000 C 183.250000 147.130000 185.560000 144.510000 188.230000 144.510000 C 188.250000 144.510000 188.270000 144.510000 188.290000 144.520000 C 192.990000 144.580000 196.150000 153.130000 196.490000 154.110000 C 196.680000 154.630000 196.410000 155.200000 195.890000 155.380000 C 195.780000 155.420000 195.660000 155.440000 195.550000 155.440000 Z"/><path fill="rgb(57, 46, 75)" d=" M 148.750000 173.240000 C 148.480000 173.020000 148.050000 172.700000 147.670000 172.430000 C 147.280000 172.150000 146.880000 171.870000 146.470000 171.600000 C 145.660000 171.060000 144.820000 170.560000 143.980000 170.120000 C 142.300000 169.220000 140.590000 168.490000 139.000000 168.160000 C 137.400000 167.830000 136.060000 167.900000 134.940000 168.370000 C 133.810000 168.840000 132.690000 169.930000 131.810000 171.510000 C 131.360000 172.290000 130.980000 173.170000 130.650000 174.100000 C 130.300000 175.130000 129.860000 176.340000 129.400000 177.420000 C 128.480000 179.640000 127.310000 181.810000 125.750000 183.790000 C 124.200000 185.740000 122.110000 187.530000 119.560000 188.260000 C 118.300000 188.630000 116.980000 188.690000 115.740000 188.500000 C 114.500000 188.290000 113.360000 187.880000 112.330000 187.180000 L 112.760000 186.380000 C 113.730000 186.670000 114.830000 186.760000 115.810000 186.650000 C 116.810000 186.550000 117.740000 186.210000 118.550000 185.750000 C 120.180000 184.800000 121.370000 183.240000 122.250000 181.480000 C 123.150000 179.720000 123.750000 177.740000 124.220000 175.720000 C 124.460000 174.680000 124.620000 173.730000 124.810000 172.590000 C 125.040000 171.360000 125.360000 170.110000 125.830000 168.850000 C 126.300000 167.590000 126.920000 166.320000 127.780000 165.100000 C 128.650000 163.890000 129.790000 162.750000 131.150000 161.870000 C 132.510000 160.990000 134.060000 160.380000 135.590000 160.090000 C 137.130000 159.800000 138.640000 159.770000 140.060000 159.880000 C 142.910000 160.140000 145.470000 160.910000 147.830000 161.900000 C 149.010000 162.400000 150.150000 162.960000 151.250000 163.560000 C 151.810000 163.870000 152.350000 164.180000 152.890000 164.510000 C 153.450000 164.860000 153.930000 165.180000 154.560000 165.630000 L 148.750000 173.240000 Z"/><path fill="rgb(57, 46, 75)" d=" M 163.070000 165.630000 C 163.700000 165.180000 164.190000 164.860000 164.740000 164.510000 C 165.280000 164.180000 165.830000 163.870000 166.380000 163.560000 C 167.490000 162.960000 168.620000 162.400000 169.800000 161.900000 C 172.170000 160.910000 174.720000 160.140000 177.570000 159.880000 C 179.000000 159.770000 180.500000 159.800000 182.040000 160.090000 C 183.580000 160.380000 185.130000 160.990000 186.490000 161.870000 C 187.850000 162.750000 188.990000 163.890000 189.850000 165.100000 C 190.720000 166.320000 191.340000 167.590000 191.810000 168.850000 C 192.270000 170.110000 192.590000 171.360000 192.820000 172.590000 C 193.010000 173.730000 193.170000 174.680000 193.420000 175.720000 C 193.890000 177.740000 194.480000 179.720000 195.390000 181.480000 C 196.270000 183.240000 197.460000 184.800000 199.090000 185.750000 C 199.900000 186.210000 200.820000 186.550000 201.820000 186.650000 C 202.810000 186.760000 203.900000 186.670000 204.870000 186.380000 L 205.310000 187.180000 C 204.270000 187.880000 203.140000 188.290000 201.890000 188.500000 C 200.660000 188.690000 199.330000 188.630000 198.080000 188.260000 C 195.520000 187.530000 193.440000 185.740000 191.880000 183.790000 C 190.330000 181.810000 189.160000 179.640000 188.240000 177.420000 C 187.780000 176.340000 187.340000 175.130000 186.990000 174.100000 C 186.660000 173.170000 186.270000 172.290000 185.830000 171.510000 C 184.940000 169.940000 183.830000 168.840000 182.700000 168.370000 C 181.580000 167.900000 180.240000 167.830000 178.640000 168.160000 C 177.050000 168.490000 175.340000 169.230000 173.660000 170.120000 C 172.820000 170.560000 171.980000 171.060000 171.170000 171.600000 C 170.760000 171.870000 170.360000 172.150000 169.970000 172.430000 C 169.590000 172.700000 169.160000 173.020000 168.890000 173.240000 L 163.070000 165.630000 Z"/><path fill="rgb(254, 218, 9)" d=" M 152.850000 126.730000 C 153.170000 127.690000 153.940000 150.140000 153.940000 150.140000 L 148.360000 150.470000 L 148.680000 158.500000 L 168.260000 156.570000 L 167.290000 147.910000 L 161.190000 149.190000 L 157.990000 125.760000 L 152.850000 126.730000 Z"/><path fill="rgb(255, 255, 255)" d=" M 174.950000 178.110000 C 174.950000 178.110000 151.770000 184.480000 139.900000 176.950000 C 139.900000 176.950000 156.700000 218.670000 174.950000 178.110000 Z"/><path fill="rgb(57, 46, 75)" d=" M 130.400000 110.600000 C 128.590000 112.740000 127.470000 115.140000 126.930000 117.880000 C 126.580000 119.640000 126.330000 122.160000 127.890000 123.410000 C 130.490000 125.500000 135.860000 120.970000 137.530000 119.350000 C 139.020000 117.900000 139.940000 116.050000 139.730000 113.950000 C 139.610000 112.700000 138.330000 113.060000 137.740000 113.700000 C 136.720000 114.790000 137.330000 117.140000 137.540000 118.400000 C 137.890000 120.490000 139.460000 122.200000 141.400000 122.900000 C 145.920000 124.540000 148.330000 117.850000 149.590000 114.960000 C 150.150000 113.690000 150.630000 111.420000 149.490000 110.280000 C 148.390000 109.180000 147.640000 111.180000 147.580000 111.940000 C 147.260000 116.390000 151.550000 121.560000 155.500000 123.040000 C 160.280000 124.830000 162.940000 118.770000 162.570000 114.950000 C 162.410000 113.300000 161.520000 111.850000 160.490000 110.600000 C 160.240000 110.300000 159.720000 110.550000 159.740000 110.910000 C 159.940000 115.950000 164.350000 122.510000 169.980000 121.670000 C 175.320000 120.870000 172.250000 112.760000 170.470000 110.180000 C 170.210000 109.810000 169.690000 109.960000 169.650000 110.400000 C 169.410000 113.170000 170.880000 116.310000 173.090000 117.990000 C 174.920000 119.380000 178.090000 120.130000 179.730000 117.960000 C 182.650000 114.080000 177.490000 107.110000 174.720000 104.500000 C 174.300000 104.110000 173.680000 104.730000 174.090000 105.120000 C 176.720000 107.590000 179.250000 111.510000 179.620000 115.140000 C 179.980000 118.490000 176.280000 119.020000 174.000000 117.590000 C 171.750000 116.170000 170.300000 113.010000 170.520000 110.400000 C 170.250000 110.480000 169.980000 110.550000 169.710000 110.620000 C 171.400000 113.070000 174.160000 119.620000 169.750000 120.820000 C 164.830000 122.170000 160.770000 114.870000 160.620000 110.910000 C 160.370000 111.010000 160.120000 111.120000 159.870000 111.220000 C 162.400000 114.310000 162.610000 120.630000 158.160000 122.310000 C 155.160000 123.440000 151.990000 119.870000 150.590000 117.760000 C 149.810000 116.560000 149.120000 115.170000 148.770000 113.790000 C 148.720000 113.570000 148.670000 113.360000 148.620000 113.150000 C 148.090000 111.920000 148.310000 111.620000 149.280000 112.240000 C 149.360000 113.120000 148.970000 114.220000 148.620000 115.010000 C 147.560000 117.440000 146.850000 119.710000 144.630000 121.410000 C 140.740000 124.370000 138.430000 119.140000 138.110000 116.110000 C 138.000000 115.440000 138.260000 114.890000 138.910000 114.470000 C 139.010000 115.480000 138.590000 116.370000 138.120000 117.220000 C 137.270000 118.720000 135.710000 119.880000 134.320000 120.820000 C 132.710000 121.910000 128.640000 124.550000 127.700000 121.500000 C 126.670000 118.160000 128.940000 113.680000 131.020000 111.220000 C 131.380000 110.790000 130.760000 110.170000 130.400000 110.600000 L 130.400000 110.600000 Z"/><path fill="rgb(175, 56, 61)" d=" M 73.520000 226.260000 C 75.080000 237.660000 81.810000 228.330000 81.810000 228.330000 C 84.410000 239.740000 88.550000 228.850000 88.550000 228.850000 C 88.990000 230.940000 89.510000 232.270000 90.080000 233.060000 C 83.810000 203.980000 93.250000 128.860000 93.250000 128.860000 C 89.950000 131.470000 87.290000 133.720000 85.160000 135.650000 C 69.120000 171.940000 72.570000 219.260000 73.520000 226.260000 Z"/><path fill="rgb(175, 56, 61)" d=" M 92.880000 200.540000 C 92.550000 199.090000 89.620000 199.770000 89.960000 201.210000 C 90.220000 202.360000 90.260000 203.500000 90.260000 204.670000 C 90.260000 206.280000 93.210000 206.000000 93.210000 204.600000 C 93.210000 203.230000 93.190000 201.870000 92.880000 200.540000 Z"/><path fill="rgb(175, 56, 61)" d=" M 96.520000 195.900000 C 96.500000 197.700000 96.240000 199.460000 95.890000 201.230000 C 95.590000 202.770000 98.570000 202.540000 98.850000 201.150000 C 99.190000 199.390000 99.450000 197.620000 99.470000 195.830000 C 99.490000 194.220000 96.540000 194.500000 96.520000 195.900000 Z"/><path fill="rgb(175, 56, 61)" d=" M 97.890000 212.130000 C 97.610000 211.200000 97.590000 210.250000 97.590000 209.290000 C 97.590000 208.550000 96.960000 208.180000 96.260000 208.200000 C 95.670000 208.220000 94.640000 208.630000 94.640000 209.370000 C 94.640000 210.510000 94.630000 211.700000 94.970000 212.800000 C 95.410000 214.230000 98.320000 213.530000 97.890000 212.130000 Z"/><path fill="rgb(175, 56, 61)" d=" M 208.960000 204.990000 L 208.960000 208.740000 C 208.960000 210.350000 211.910000 210.070000 211.910000 208.670000 L 211.910000 204.910000 C 211.910000 203.310000 208.960000 203.580000 208.960000 204.990000 Z"/><path fill="rgb(175, 56, 61)" d=" M 216.160000 197.780000 C 216.160000 199.260000 216.120000 200.710000 215.850000 202.170000 C 215.560000 203.710000 218.540000 203.480000 218.800000 202.090000 C 219.070000 200.640000 219.110000 199.180000 219.110000 197.710000 C 219.110000 196.100000 216.160000 196.380000 216.160000 197.780000 Z"/><path fill="rgb(175, 56, 61)" d=" M 214.590000 213.750000 L 214.590000 217.200000 C 214.590000 218.800000 217.550000 218.530000 217.550000 217.120000 L 217.550000 213.680000 C 217.550000 212.070000 214.590000 212.350000 214.590000 213.750000 Z"/><path fill="rgb(57, 46, 75)" d=" M 83.890000 158.880000 C 83.890000 158.880000 40.870000 156.810000 28.950000 161.990000 C 28.950000 161.990000 25.320000 203.970000 29.470000 219.520000 L 29.400000 221.120000 C 29.400000 221.120000 19.140000 220.350000 16.380000 225.100000 C 13.630000 229.850000 12.400000 233.830000 15.310000 239.040000 L 18.830000 238.580000 C 16.810000 231.030000 18.420000 227.760000 22.510000 227.400000 C 22.510000 227.400000 16.840000 229.690000 20.820000 241.030000 C 20.820000 241.030000 22.510000 242.710000 24.650000 242.560000 C 24.650000 242.560000 21.740000 232.600000 24.800000 229.850000 C 24.800000 229.850000 24.040000 237.660000 27.710000 242.860000 C 27.710000 242.860000 29.710000 243.480000 31.850000 242.710000 C 31.850000 242.710000 26.640000 228.010000 33.690000 225.710000 C 33.690000 225.710000 38.740000 226.790000 39.200000 229.850000 C 39.200000 229.850000 35.370000 233.220000 38.590000 234.900000 C 41.800000 236.590000 44.250000 231.070000 43.790000 227.240000 L 37.210000 223.260000 L 37.760000 219.520000 C 37.760000 219.520000 39.830000 179.610000 42.940000 172.870000 C 42.940000 172.870000 69.380000 166.140000 84.410000 171.840000 C 84.410000 171.840000 89.590000 167.170000 83.890000 158.880000 Z"/></svg>