<?xml version="1.0" standalone="no"?><!DOCTYPE svg PUBLIC "-//W3C//DTD SVG 1.1//EN" "http://www.w3.org/Graphics/SVG/1.1/DTD/svg11.dtd"><svg id="Octopus0.svg" width="150" height="150" version="1.1" viewBox="0 0 300 300" xmlns="http://www.w3.org/2000/svg" xmlns:xlink="http://www.w3.org/1999/xlink"><defs xmlns="http://www.w3.org/1999/xhtml"><style type="text/css"><![CDATA[
* { border: 0px; margin: 0px; padding: 0px; }
html { background-color: rgb(255, 255, 255); font-family: Verdana, Arial; }
.webgl-content * { position: absolute; width: 100%; height: 100%; user-select: none; }
.webgl-content .logo, .progress { position: absolute; left: 50%; top: 50%; transform: translate(-50%, -50%); }
.webgl-content .logo { background: url("progressLogo.Light.png") center center / contain no-repeat; width: 154px; height: 130px; }
.webgl-content .progress { height: 18px; width: 141px; margin-top: 90px; }
.webgl-content .progress .empty { background: url("progressEmpty.Light.png") right center / cover no-repeat; float: right; width: 100%; height: 100%; display: inline-block; }
.webgl-content .progress .full { background: url("progressFull.Light.png") left center / cover no-repeat; float: left; width: 0%; height: 100%; display: inline-block; }
.webgl-content .logo.Dark { background-image: url("progressLogo.Dark.png"); }
.webgl-content .progress.Dark .empty { background-image: url("progressEmpty.Dark.png"); }
.webgl-content .progress.Dark .full { background-image: url("progressFull.Dark.png"); }
#loading-content { z-index: 10000; position: fixed; width: 100%; height: 100%; left: 0px; top: 0px; overflow: hidden; background: url("background.png"); }
.hud-intro .hud-intro-social .btn-discord, .hud-respawn .hud-respawn-social .btn-discord { background-image: url("//lordz.io/images/discord-icon.png"); }
.hud-intro .hud-intro-social .btn-twitter, .hud-respawn .hud-respawn-social .btn-twitter { background-image: url("//lordz.io/images/twitter-icon.png"); }
.hud-intro .hud-intro-social .btn-facebook, .hud-respawn .hud-respawn-social .btn-facebook { background-image: url("//lordz.io/images/facebook-icon.png"); }
.hud-intro .hud-intro-social .btn-youtube, .hud-respawn .hud-respawn-social .btn-youtube { background-image: url("//lordz.io/images/youtube-icon.png"); }
* { box-sizing: border-box; user-select: none; }
.btn { position: relative; display: inline-block; top: 0px; height: 36px; line-height: 36px; padding: 0px 20px; background: rgb(68, 68, 68); color: rgb(238, 238, 238); border: 0px; font-size: 14px; vertical-align: top; text-align: center; text-decoration: none; text-shadow: rgba(0, 0, 0, 0.4) 0px 1px 0px; box-shadow: rgba(0, 0, 0, 0.2) 0px 2px 10px, rgb(51, 51, 51) 0px 4px 0px; border-radius: 4px; transition: all 0.15s ease-in-out 0s; }
.btn:hover, .btn:active { background-color: rgb(85, 85, 85); color: rgb(255, 255, 255); }
.btn:active { top: 4px; box-shadow: rgba(0, 0, 0, 0.2) 0px 2px 10px !important; }
.btn-green { background-color: rgb(71, 149, 13); box-shadow: rgba(0, 0, 0, 0.2) 0px 2px 10px, rgb(53, 131, 0) 0px 4px 0px; }
.btn-green:hover, .btn-green:active { background-color: rgb(100, 184, 32); }
.btn-red { background-color: rgb(179, 53, 60); box-shadow: rgba(0, 0, 0, 0.2) 0px 2px 10px, rgb(161, 35, 42) 0px 4px 0px; }
.btn-red:hover, .btn-red:active { background-color: rgb(203, 87, 91); }
.btn-blue { background-color: rgb(29, 141, 238); box-shadow: rgba(0, 0, 0, 0.2) 0px 2px 10px, rgb(11, 123, 220) 0px 4px 0px; }
.btn-blue:hover, .btn-blue:active { background-color: rgb(79, 167, 238); }
.btn-purple { background-color: rgb(114, 55, 228); box-shadow: rgba(0, 0, 0, 0.2) 0px 2px 10px, rgb(96, 37, 210) 0px 4px 0px; }
.btn-purple:hover, .btn-purple:active { background-color: rgb(130, 89, 228); }
.btn-twitter { background-color: rgb(27, 149, 224); box-shadow: rgba(0, 0, 0, 0.2) 0px 2px 10px, rgb(9, 131, 206) 0px 4px 0px; }
.btn-twitter:hover, .btn-twitter:active { background-color: rgb(12, 122, 191); }
.btn-facebook { background-color: rgb(66, 103, 178); box-shadow: rgba(0, 0, 0, 0.2) 0px 2px 10px, rgb(48, 85, 160) 0px 4px 0px; }
.btn-facebook:hover, .btn-facebook:active { background-color: rgb(54, 88, 153); }
.btn-google { background-color: rgb(221, 75, 57); box-shadow: rgba(0, 0, 0, 0.2) 0px 2px 10px, rgb(203, 57, 39) 0px 4px 0px; }
.btn-google:hover, .btn-google:active { background-color: rgb(186, 63, 49); }
.btn-discord { background-color: rgb(114, 137, 218); box-shadow: rgba(0, 0, 0, 0.2) 0px 2px 10px, rgb(96, 119, 200) 0px 4px 0px; }
.btn-discord:hover, .btn-discord:active { background-color: rgb(90, 109, 176); }
.btn-youtube { background-color: rgb(229, 45, 39); box-shadow: rgba(0, 0, 0, 0.2) 0px 2px 10px, rgb(211, 27, 21) 0px 4px 0px; }
.btn-youtube:hover, .btn-youtube:active { background-color: rgb(186, 37, 33); }
.hud { position: fixed; top: 0px; left: 0px; bottom: 0px; right: 0px; }
.hud .hud-bottom-left { display: flex; position: absolute; bottom: 20px; left: 20px; flex-direction: column-reverse; }
.hud-intro .hud-intro-corner-bottom-left, .hud-respawn .hud-respawn-corner-bottom-left { position: fixed; bottom: 20px; left: 20px; text-align: left; }
.hud-intro .hud-intro-social, .hud-respawn .hud-respawn-social { width: 240px; line-height: 24px; font-size: 14px; color: rgb(119, 119, 119); }
.hud-intro .hud-intro-social .btn, .hud-respawn .hud-respawn-social .btn { display: block; float: left; margin: 0px 10px 0px 0px; width: 40px; height: 40px; line-height: 40px; background-size: 24px; background-position: center center; background-repeat: no-repeat; }
.hud-intro .hud-intro-more-games { position: relative; bottom: 5px; line-height: 20px; font-size: 14px; color: rgba(255, 255, 255, 0.4); text-shadow: rgba(0, 0, 0, 0.2) 0px 1px 3px; }
.hud-intro .hud-intro-more-games a { display: inline-block; padding: 0px 20px; line-height: 40px; background: rgb(132, 115, 212); color: rgb(238, 238, 238); text-decoration: none; border-radius: 4px; transition: all 0.15s ease-in-out 0s; }
.hud-intro .hud-intro-more-games a:hover, .hud-intro .hud-intro-more-games a:active { background: rgb(103, 90, 166); }
#preroll video { left: 0px; top: 0px; }
.fb_hidden { position: absolute; top: -10000px; z-index: 10001; }
.fb_reposition { overflow: hidden; position: relative; }
.fb_invisible { display: none; }
.fb_reset { background: none; border: 0px; border-spacing: 0px; color: rgb(0, 0, 0); cursor: auto; direction: ltr; font-family: "lucida grande", tahoma, verdana, arial, sans-serif; font-size: 11px; font-style: normal; font-variant: normal; font-weight: normal; letter-spacing: normal; line-height: 1; margin: 0px; overflow: visible; padding: 0px; text-align: left; text-decoration: none; text-indent: 0px; text-shadow: none; text-transform: none; visibility: visible; white-space: normal; word-spacing: normal; }
.fb_animate { animation: 0.3s ease 0s 1 normal forwards running fb_transform; }
.fb_dialog { background: rgba(82, 82, 82, 0.7); position: absolute; top: -10000px; z-index: 10001; }
.fb_dialog_advanced { border-radius: 8px; padding: 10px; }
.fb_dialog_content { background: rgb(255, 255, 255); color: rgb(55, 55, 55); }
.fb_dialog_close_icon { background: url("https://static.xx.fbcdn.net/rsrc.php/v3/yq/r/IE9JII6Z1Ys.png") 0px 0px no-repeat scroll transparent; cursor: pointer; display: block; height: 15px; position: absolute; right: 18px; top: 17px; width: 15px; }
.fb_dialog_mobile .fb_dialog_close_icon { left: 5px; right: auto; top: 5px; }
.fb_dialog_padding { background-color: transparent; position: absolute; width: 1px; z-index: -1; }
.fb_dialog_close_icon:hover { background: url("https://static.xx.fbcdn.net/rsrc.php/v3/yq/r/IE9JII6Z1Ys.png") 0px -15px no-repeat scroll transparent; }
.fb_dialog_close_icon:active { background: url("https://static.xx.fbcdn.net/rsrc.php/v3/yq/r/IE9JII6Z1Ys.png") 0px -30px no-repeat scroll transparent; }
.fb_dialog_iframe { line-height: 0; }
.fb_dialog_content .dialog_title { background: rgb(109, 132, 180); border: 1px solid rgb(54, 88, 153); color: rgb(255, 255, 255); font-size: 14px; font-weight: bold; margin: 0px; }
body.fb_hidden { height: 100%; left: 0px; margin: 0px; overflow: visible; position: absolute; top: -10000px; transform: none; width: 100%; }
.fb_dialog.fb_dialog_mobile.loading { background: url("https://static.xx.fbcdn.net/rsrc.php/v3/ya/r/3rhSv5V8j3o.gif") 50% 50% no-repeat white; min-height: 100%; min-width: 100%; overflow: hidden; position: absolute; top: 0px; z-index: 10001; }
.fb_dialog.fb_dialog_mobile.loading.centered { background: none; height: auto; min-height: initial; min-width: initial; width: auto; }
.fb_dialog.fb_dialog_mobile.loading.centered #fb_dialog_loader_spinner { width: 100%; }
.fb_dialog.fb_dialog_mobile.loading.centered .fb_dialog_content { background: none; }
.loading.centered #fb_dialog_loader_close { clear: both; color: rgb(255, 255, 255); display: block; font-size: 18px; padding-top: 20px; }
#fb-root #fb_dialog_ipad_overlay { background: rgba(0, 0, 0, 0.4); bottom: 0px; left: 0px; min-height: 100%; position: absolute; right: 0px; top: 0px; width: 100%; z-index: 10000; }
#fb-root #fb_dialog_ipad_overlay.hidden { display: none; }
.fb_dialog.fb_dialog_mobile.loading iframe { visibility: hidden; }
.fb_dialog_mobile .fb_dialog_iframe { position: sticky; top: 0px; }
.fb_dialog_content .dialog_header { border-bottom: 1px solid rgb(4, 59, 135); border-top-color: rgb(4, 59, 135); border-right-color: rgb(4, 59, 135); border-left-color: rgb(4, 59, 135); box-shadow: white 0px 1px 1px -1px inset; color: rgb(255, 255, 255); font: bold 14px Helvetica, sans-serif; text-overflow: ellipsis; text-shadow: rgba(0, 30, 84, 0.298) 0px -1px 0px; vertical-align: middle; white-space: nowrap; }
.fb_dialog_content .dialog_header table { height: 43px; width: 100%; }
.fb_dialog_content .dialog_header td.header_left { font-size: 12px; padding-left: 5px; vertical-align: middle; width: 60px; }
.fb_dialog_content .dialog_header td.header_right { font-size: 12px; padding-right: 5px; vertical-align: middle; width: 60px; }
.fb_dialog_content .touchable_button { background-clip: padding-box; border: 1px solid rgb(41, 72, 125); border-radius: 3px; display: inline-block; line-height: 18px; margin-top: 3px; max-width: 85px; padding: 4px 12px; position: relative; }
.fb_dialog_content .dialog_header .touchable_button input { background: none; border: none; color: rgb(255, 255, 255); font: bold 12px Helvetica, sans-serif; margin: 2px -12px; padding: 2px 6px 3px; text-shadow: rgba(0, 30, 84, 0.298) 0px -1px 0px; }
.fb_dialog_content .dialog_header .header_center { color: rgb(255, 255, 255); font-size: 16px; font-weight: bold; line-height: 18px; text-align: center; vertical-align: middle; }
.fb_dialog_content .dialog_content { background: url("https://static.xx.fbcdn.net/rsrc.php/v3/y9/r/jKEcVPZFk-2.gif") 50% 50% no-repeat; border-width: 0px 1px; border-right-style: solid; border-left-style: solid; border-right-color: rgb(74, 74, 74); border-left-color: rgb(74, 74, 74); border-image: initial; border-bottom-style: initial; border-bottom-color: initial; border-top-style: initial; border-top-color: initial; height: 150px; }
.fb_dialog_content .dialog_footer { background: rgb(245, 246, 247); border-width: 1px; border-style: solid; border-color: rgb(204, 204, 204) rgb(74, 74, 74) rgb(74, 74, 74); border-image: initial; height: 40px; }
#fb_dialog_loader_close { float: left; }
.fb_dialog.fb_dialog_mobile .fb_dialog_close_button { text-shadow: rgba(0, 30, 84, 0.298) 0px -1px 0px; }
.fb_dialog.fb_dialog_mobile .fb_dialog_close_icon { visibility: hidden; }
#fb_dialog_loader_spinner { animation: 1.2s linear 0s infinite normal none running rotateSpinner; background-color: transparent; background-image: url("https://static.xx.fbcdn.net/rsrc.php/v3/yD/r/t-wz8gw1xG1.png"); background-position: 50% 50%; background-repeat: no-repeat; height: 24px; width: 24px; }
.fb_iframe_widget { display: inline-block; position: relative; }
.fb_iframe_widget span { display: inline-block; position: relative; text-align: justify; }
.fb_iframe_widget iframe { position: absolute; }
.fb_iframe_widget_fluid_desktop, .fb_iframe_widget_fluid_desktop span, .fb_iframe_widget_fluid_desktop iframe { max-width: 100%; }
.fb_iframe_widget_fluid_desktop iframe { min-width: 220px; position: relative; }
.fb_iframe_widget_lift { z-index: 1; }
.fb_iframe_widget_fluid { display: inline; }
.fb_iframe_widget_fluid span { width: 100%; }
.st0 { fill: rgb(119, 183, 73); }
.st1 { fill: rgb(247, 175, 47); }
.st2 { fill: rgb(233, 81, 15); }
.st3 { fill: url("#SVGID_1_"); }
.st4 { fill: url("#SVGID_2_"); }
.st5 { fill: rgb(252, 242, 119); }
.st6 { fill: url("#SVGID_3_"); }
.st7 { fill: url("#SVGID_4_"); }
.st8 { fill: url("#SVGID_5_"); }
.st9 { fill: url("#SVGID_6_"); }
.st10 { fill: url("#SVGID_7_"); }
.st11 { fill: url("#SVGID_8_"); }
.st12 { fill: url("#SVGID_9_"); }
.st13 { fill: url("#SVGID_10_"); }
.st14 { fill: url("#SVGID_11_"); }
.st15 { fill: url("#SVGID_12_"); }
.st16 { fill: url("#SVGID_13_"); }
.st17 { fill: url("#SVGID_14_"); }
.st18 { fill: url("#SVGID_15_"); }
.st19 { fill: url("#SVGID_16_"); }
.st0 { fill: rgb(119, 183, 73); }
.st1 { fill: rgb(247, 175, 47); }
.st2 { fill: rgb(233, 81, 15); }
.st3 { fill: url("#SVGID_1_"); }
.st4 { fill: url("#SVGID_2_"); }
.st5 { fill: rgb(252, 242, 119); }
.st6 { fill: url("#SVGID_3_"); }
.st7 { fill: url("#SVGID_4_"); }
.st8 { fill: url("#SVGID_5_"); }
.st9 { fill: url("#SVGID_6_"); }
.st10 { fill: url("#SVGID_7_"); }
.st11 { fill: url("#SVGID_8_"); }
.st12 { fill: url("#SVGID_9_"); }
.st13 { fill: url("#SVGID_10_"); }
.st14 { fill: url("#SVGID_11_"); }
.st15 { fill: url("#SVGID_12_"); }
.st16 { fill: url("#SVGID_13_"); }
.st17 { fill: url("#SVGID_14_"); }
.st18 { fill: url("#SVGID_15_"); }
.st19 { fill: url("#SVGID_16_"); }
.st0 { fill: rgb(119, 183, 73); }
.st1 { fill: rgb(247, 175, 47); }
.st2 { fill: rgb(233, 81, 15); }
.st3 { fill: url("#SVGID_1_"); }
.st4 { fill: url("#SVGID_2_"); }
.st5 { fill: rgb(252, 242, 119); }
.st6 { fill: url("#SVGID_3_"); }
.st7 { fill: url("#SVGID_4_"); }
.st8 { fill: url("#SVGID_5_"); }
.st9 { fill: url("#SVGID_6_"); }
.st10 { fill: url("#SVGID_7_"); }
.st11 { fill: url("#SVGID_8_"); }
.st12 { fill: url("#SVGID_9_"); }
.st13 { fill: url("#SVGID_10_"); }
.st14 { fill: url("#SVGID_11_"); }
.st15 { fill: url("#SVGID_12_"); }
.st16 { fill: url("#SVGID_13_"); }
.st17 { fill: url("#SVGID_14_"); }
.st18 { fill: url("#SVGID_15_"); }
.st19 { fill: url("#SVGID_16_"); }
.st0 { fill: rgb(119, 183, 73); }
.st1 { fill: rgb(247, 175, 47); }
.st2 { fill: rgb(233, 81, 15); }
.st3 { fill: url("#SVGID_1_"); }
.st4 { fill: url("#SVGID_2_"); }
.st5 { fill: rgb(252, 242, 119); }
.st6 { fill: url("#SVGID_3_"); }
.st7 { fill: url("#SVGID_4_"); }
.st8 { fill: url("#SVGID_5_"); }
.st9 { fill: url("#SVGID_6_"); }
.st10 { fill: url("#SVGID_7_"); }
.st11 { fill: url("#SVGID_8_"); }
.st12 { fill: url("#SVGID_9_"); }
.st13 { fill: url("#SVGID_10_"); }
.st14 { fill: url("#SVGID_11_"); }
.st15 { fill: url("#SVGID_12_"); }
.st16 { fill: url("#SVGID_13_"); }
.st17 { fill: url("#SVGID_14_"); }
.st18 { fill: url("#SVGID_15_"); }
.st19 { fill: url("#SVGID_16_"); }]]></style></defs><path fill="rgb(251, 50, 43)" d=" M 172.880000 147.310000 C 173.040000 146.920000 173.140000 146.710000 173.250000 146.470000 L 173.560000 145.820000 L 174.180000 144.630000 C 174.590000 143.870000 175.010000 143.150000 175.430000 142.430000 C 176.290000 141.010000 177.190000 139.650000 178.130000 138.310000 C 180.030000 135.630000 182.150000 133.100000 184.540000 130.700000 C 189.270000 125.930000 195.350000 121.700000 202.410000 119.410000 C 205.910000 118.260000 209.600000 117.640000 213.190000 117.540000 C 216.780000 117.410000 220.270000 117.800000 223.530000 118.520000 C 226.790000 119.250000 229.830000 120.300000 232.660000 121.540000 C 234.070000 122.150000 235.470000 122.820000 236.750000 123.510000 L 237.930000 124.140000 L 238.990000 124.760000 C 239.700000 125.190000 240.400000 125.640000 241.080000 126.110000 C 243.820000 127.980000 246.370000 130.220000 248.570000 132.700000 C 250.770000 135.190000 252.620000 137.900000 254.130000 140.680000 C 257.150000 146.270000 258.770000 152.050000 259.750000 157.580000 C 261.660000 168.690000 261.320000 179.120000 260.940000 189.230000 C 260.720000 194.280000 260.470000 199.250000 260.340000 204.140000 C 260.210000 209.020000 260.190000 213.840000 260.560000 218.470000 C 260.760000 220.780000 261.040000 223.050000 261.510000 225.200000 C 261.620000 225.740000 261.760000 226.280000 261.890000 226.790000 L 262.360000 228.500000 C 262.690000 229.610000 263.040000 230.720000 263.420000 231.800000 C 264.180000 233.950000 265.060000 236.020000 266.110000 237.880000 C 267.160000 239.740000 268.380000 241.380000 269.740000 242.550000 C 270.420000 243.140000 271.120000 243.590000 271.860000 243.920000 C 272.220000 244.080000 272.610000 244.210000 272.980000 244.310000 C 273.380000 244.390000 273.320000 244.390000 273.600000 244.440000 C 273.800000 244.470000 274.010000 244.500000 274.220000 244.520000 C 275.880000 244.670000 277.700000 244.260000 279.460000 243.380000 C 282.990000 241.600000 286.100000 238.050000 287.570000 234.160000 C 287.930000 233.170000 288.180000 232.230000 288.310000 231.200000 C 288.430000 230.190000 288.460000 229.110000 288.370000 228.070000 C 288.190000 225.970000 287.550000 223.890000 286.530000 221.950000 C 284.500000 218.040000 280.930000 214.820000 276.840000 212.690000 L 276.830000 212.690000 C 275.810000 212.160000 275.410000 210.900000 275.940000 209.880000 C 276.450000 208.900000 277.640000 208.500000 278.640000 208.950000 C 283.510000 211.150000 287.930000 214.640000 290.920000 219.410000 C 293.900000 224.160000 295.100000 230.320000 293.370000 236.060000 C 292.530000 238.870000 291.180000 241.420000 289.460000 243.710000 C 287.740000 246.010000 285.620000 248.060000 283.040000 249.660000 C 280.480000 251.240000 277.340000 252.350000 274.000000 252.340000 C 273.580000 252.340000 273.170000 252.330000 272.750000 252.300000 C 272.400000 252.280000 271.730000 252.180000 271.520000 252.150000 C 270.660000 252.020000 269.840000 251.820000 269.030000 251.540000 C 267.420000 251.000000 265.940000 250.200000 264.630000 249.280000 C 262.010000 247.410000 260.050000 245.100000 258.420000 242.760000 C 256.800000 240.400000 255.500000 237.950000 254.370000 235.490000 C 253.810000 234.250000 253.290000 233.010000 252.810000 231.770000 L 252.110000 229.920000 C 251.870000 229.240000 251.640000 228.580000 251.430000 227.910000 C 250.600000 225.240000 249.990000 222.590000 249.520000 219.950000 C 247.680000 209.420000 247.530000 199.240000 246.850000 189.370000 C 246.540000 184.430000 246.170000 179.580000 245.580000 174.870000 C 244.980000 170.180000 244.180000 165.610000 242.930000 161.430000 C 241.680000 157.240000 240.000000 153.450000 237.860000 150.470000 C 235.730000 147.460000 233.140000 145.350000 230.140000 143.870000 C 229.760000 143.680000 229.370000 143.510000 228.980000 143.340000 L 228.390000 143.100000 L 227.880000 142.920000 C 226.890000 142.550000 225.990000 142.260000 225.060000 142.000000 C 223.210000 141.500000 221.420000 141.200000 219.760000 141.100000 C 216.410000 140.890000 213.680000 141.540000 211.400000 142.840000 C 209.100000 144.120000 207.020000 146.160000 205.190000 148.880000 C 204.270000 150.230000 203.460000 151.750000 202.750000 153.340000 C 202.390000 154.130000 202.070000 154.950000 201.800000 155.750000 C 201.670000 156.150000 201.540000 156.550000 201.440000 156.930000 L 201.310000 157.460000 L 201.270000 157.670000 C 201.260000 157.720000 201.250000 157.800000 201.300000 157.710000 C 198.430000 165.560000 189.740000 169.590000 181.890000 166.720000 C 174.040000 163.850000 170.010000 155.160000 172.880000 147.310000 Z"/><path fill="rgb(251, 50, 43)" d=" M 180.870000 170.300000 C 180.920000 170.280000 180.840000 170.310000 181.110000 170.210000 L 181.410000 170.110000 L 181.810000 169.990000 L 182.490000 169.800000 C 182.920000 169.700000 183.310000 169.610000 183.700000 169.530000 C 184.470000 169.380000 185.210000 169.270000 185.930000 169.180000 C 187.380000 169.010000 188.780000 168.940000 190.180000 168.940000 C 192.980000 168.940000 195.760000 169.300000 198.450000 169.970000 C 203.840000 171.290000 208.720000 174.030000 212.470000 177.310000 C 216.230000 180.610000 218.960000 184.340000 221.040000 188.020000 C 223.110000 191.720000 224.590000 195.410000 225.760000 199.030000 C 228.020000 206.290000 229.160000 213.310000 229.820000 220.210000 C 230.140000 223.660000 230.380000 227.090000 230.490000 230.460000 C 230.610000 233.830000 230.650000 237.080000 230.730000 240.290000 C 230.860000 246.700000 231.180000 252.950000 232.070000 258.970000 C 232.510000 261.980000 233.140000 264.910000 234.030000 267.690000 C 234.470000 269.080000 234.970000 270.430000 235.560000 271.710000 C 235.700000 272.030000 235.850000 272.350000 236.010000 272.660000 L 236.130000 272.900000 L 236.160000 272.960000 C 236.190000 273.020000 236.130000 272.910000 236.140000 272.940000 L 236.160000 272.970000 L 236.230000 273.100000 L 236.520000 273.630000 C 236.800000 274.150000 237.170000 274.770000 237.540000 275.310000 C 239.050000 277.520000 240.950000 279.300000 243.280000 280.500000 C 245.610000 281.720000 248.390000 282.320000 251.320000 282.410000 C 257.220000 282.590000 263.500000 281.110000 269.670000 279.350000 L 269.680000 279.350000 C 270.790000 279.030000 271.940000 279.670000 272.250000 280.780000 C 272.550000 281.830000 271.970000 282.930000 270.960000 283.300000 C 264.850000 285.530000 258.570000 287.960000 251.460000 288.510000 C 247.920000 288.760000 244.130000 288.480000 240.470000 287.160000 C 236.810000 285.860000 233.500000 283.450000 230.960000 280.610000 C 230.320000 279.890000 229.740000 279.190000 229.120000 278.350000 L 228.760000 277.860000 L 228.670000 277.740000 L 228.540000 277.550000 L 228.340000 277.270000 C 228.080000 276.880000 227.830000 276.500000 227.580000 276.110000 C 226.600000 274.560000 225.740000 272.970000 224.970000 271.350000 C 223.420000 268.110000 222.240000 264.800000 221.210000 261.500000 C 219.170000 254.880000 217.930000 248.230000 216.710000 241.750000 C 216.110000 238.520000 215.540000 235.310000 214.930000 232.240000 C 214.310000 229.170000 213.650000 226.180000 212.830000 223.250000 C 211.200000 217.400000 209.170000 211.770000 206.490000 207.030000 C 203.900000 202.310000 200.410000 198.570000 197.480000 197.450000 C 196.040000 196.840000 194.850000 196.850000 193.840000 197.100000 C 193.340000 197.220000 192.850000 197.440000 192.410000 197.690000 C 192.200000 197.810000 192.000000 197.970000 191.860000 198.120000 C 191.790000 198.200000 191.730000 198.270000 191.720000 198.340000 C 191.720000 198.370000 191.730000 198.400000 191.770000 198.420000 C 191.790000 198.430000 191.820000 198.430000 191.880000 198.430000 C 191.900000 198.430000 191.940000 198.420000 191.990000 198.410000 L 192.030000 198.400000 C 192.050000 198.400000 192.050000 198.400000 192.150000 198.360000 C 192.360000 198.280000 192.240000 198.330000 192.240000 198.340000 C 189.790000 209.190000 179.000000 216.010000 168.140000 213.550000 C 157.280000 211.100000 150.470000 200.310000 152.920000 189.450000 C 154.570000 182.150000 159.990000 176.680000 166.670000 174.620000 L 180.870000 170.300000 Z"/><path fill="rgb(251, 50, 43)" d=" M 73.150000 155.560000 L 72.700000 154.940000 L 72.350000 154.440000 L 71.580000 153.390000 C 71.070000 152.690000 70.530000 152.000000 69.980000 151.340000 C 68.880000 150.010000 67.730000 148.730000 66.540000 147.550000 C 64.160000 145.160000 61.600000 143.110000 59.000000 141.520000 C 56.380000 139.940000 53.720000 138.860000 51.080000 138.340000 C 49.750000 138.090000 48.420000 137.990000 47.070000 138.050000 C 45.630000 138.120000 44.180000 138.330000 42.730000 138.690000 C 36.980000 140.130000 31.390000 144.230000 27.110000 150.010000 C 22.810000 155.750000 19.640000 162.880000 17.950000 170.360000 C 17.090000 174.100000 16.580000 177.940000 16.480000 181.780000 C 16.440000 183.690000 16.510000 185.610000 16.690000 187.490000 C 16.730000 187.940000 16.810000 188.520000 16.850000 188.750000 C 16.910000 189.100000 17.010000 189.520000 17.120000 189.920000 C 17.330000 190.740000 17.620000 191.600000 17.960000 192.480000 C 19.320000 196.020000 21.250000 199.700000 23.220000 203.370000 C 25.210000 207.030000 27.280000 210.730000 29.280000 214.510000 C 31.280000 218.300000 33.200000 222.180000 34.870000 226.240000 C 36.520000 230.300000 37.960000 234.580000 38.420000 239.260000 C 38.630000 241.590000 38.560000 244.030000 37.960000 246.450000 C 37.370000 248.850000 36.190000 251.180000 34.570000 253.050000 C 32.950000 254.930000 30.990000 256.370000 28.960000 257.470000 C 26.920000 258.580000 24.800000 259.370000 22.670000 259.990000 C 21.570000 260.300000 20.410000 259.670000 20.090000 258.570000 C 19.780000 257.500000 20.370000 256.380000 21.410000 256.030000 L 21.420000 256.020000 C 25.170000 254.730000 28.720000 252.820000 30.820000 250.000000 C 32.950000 247.230000 33.420000 243.630000 32.820000 239.930000 C 32.230000 236.220000 30.750000 232.490000 28.990000 228.860000 C 27.230000 225.230000 25.110000 221.700000 22.920000 218.180000 C 20.710000 214.650000 18.400000 211.160000 16.100000 207.570000 C 13.800000 203.970000 11.460000 200.360000 9.440000 196.180000 C 8.930000 195.130000 8.450000 194.030000 8.030000 192.840000 C 7.810000 192.240000 7.620000 191.640000 7.430000 190.960000 C 7.230000 190.180000 7.130000 189.710000 6.990000 189.120000 C 6.480000 186.850000 6.120000 184.570000 5.890000 182.270000 C 5.390000 177.690000 5.400000 173.080000 5.820000 168.490000 C 6.710000 159.340000 9.110000 150.190000 13.740000 141.620000 C 16.060000 137.350000 18.980000 133.240000 22.600000 129.540000 C 26.220000 125.850000 30.640000 122.640000 35.620000 120.330000 C 38.100000 119.170000 40.720000 118.240000 43.430000 117.570000 C 46.230000 116.880000 49.130000 116.510000 52.010000 116.440000 C 57.800000 116.260000 63.420000 117.360000 68.550000 119.070000 C 78.840000 122.570000 87.390000 128.340000 94.990000 134.610000 L 95.220000 134.800000 C 101.720000 140.170000 102.640000 149.790000 97.270000 156.300000 C 91.900000 162.800000 82.280000 163.720000 75.770000 158.350000 C 74.780000 157.530000 73.880000 156.550000 73.150000 155.560000 Z"/><path fill="rgb(251, 50, 43)" d=" M 89.650000 187.910000 C 89.620000 187.860000 89.240000 187.890000 88.970000 187.910000 L 88.030000 188.000000 C 87.380000 188.070000 86.720000 188.160000 86.050000 188.280000 C 84.710000 188.510000 83.360000 188.790000 82.040000 189.140000 C 79.400000 189.840000 76.840000 190.730000 74.530000 191.840000 C 72.200000 192.920000 70.120000 194.210000 68.390000 195.640000 C 66.650000 197.080000 65.270000 198.640000 64.280000 200.410000 C 63.290000 202.170000 62.600000 204.170000 62.410000 206.480000 C 62.200000 208.780000 62.430000 211.360000 63.040000 214.050000 C 64.900000 221.170000 66.110000 228.400000 66.700000 235.610000 C 67.270000 242.830000 67.370000 250.080000 66.530000 257.370000 C 66.100000 261.010000 65.470000 264.650000 64.460000 268.270000 C 63.450000 271.890000 62.070000 275.500000 59.970000 278.880000 C 57.910000 282.240000 54.990000 285.440000 51.210000 287.380000 C 47.450000 289.360000 43.190000 289.880000 39.370000 289.480000 C 35.520000 289.090000 31.980000 287.910000 28.700000 286.450000 C 25.420000 284.980000 22.340000 283.240000 19.390000 281.340000 C 18.430000 280.720000 18.150000 279.430000 18.770000 278.460000 C 19.360000 277.550000 20.550000 277.250000 21.490000 277.750000 L 21.510000 277.760000 C 24.450000 279.330000 27.450000 280.740000 30.530000 281.730000 C 33.600000 282.740000 36.730000 283.390000 39.710000 283.380000 C 42.680000 283.390000 45.420000 282.650000 47.570000 281.140000 C 49.730000 279.660000 51.380000 277.430000 52.570000 274.820000 C 53.750000 272.210000 54.480000 269.250000 54.910000 266.210000 C 55.350000 263.150000 55.490000 259.990000 55.400000 256.820000 C 55.210000 250.460000 54.290000 244.030000 52.780000 237.770000 C 51.260000 231.500000 49.280000 225.400000 46.700000 219.610000 C 45.120000 215.840000 43.880000 211.680000 43.430000 207.150000 C 42.990000 202.640000 43.310000 197.760000 44.730000 193.130000 C 46.120000 188.490000 48.440000 184.190000 51.220000 180.510000 C 54.010000 176.820000 57.210000 173.710000 60.550000 170.990000 C 63.900000 168.290000 67.400000 165.970000 71.010000 163.930000 C 72.820000 162.920000 74.640000 161.950000 76.530000 161.050000 C 77.470000 160.610000 78.420000 160.170000 79.410000 159.740000 L 80.930000 159.110000 C 81.480000 158.890000 81.930000 158.710000 82.720000 158.460000 L 102.460000 152.200000 C 115.020000 148.210000 128.430000 155.160000 132.420000 167.720000 C 136.400000 180.290000 129.450000 193.700000 116.890000 197.680000 C 106.420000 201.000000 95.350000 196.700000 89.650000 187.910000 Z"/><path fill="rgb(179, 26, 22)" d=" M 89.280000 246.770000 C 89.280000 246.770000 86.360000 283.390000 88.790000 291.920000 L 114.120000 290.910000 C 114.120000 290.910000 117.040000 284.890000 109.250000 283.390000 L 110.710000 243.260000 L 89.280000 246.770000 Z"/><path fill="rgb(179, 26, 22)" d=" M 166.720000 246.770000 C 166.720000 246.770000 163.800000 283.390000 166.230000 291.920000 L 191.560000 290.910000 C 191.560000 290.910000 194.480000 284.890000 186.690000 283.390000 L 188.150000 242.760000 L 166.720000 246.770000 Z"/><path fill="rgb(253, 175, 31)" d=" M 190.320000 55.590000 L 202.110000 54.160000 L 197.210000 40.110000 C 197.210000 40.110000 213.330000 50.220000 214.750000 63.380000 C 214.750000 63.380000 200.160000 69.980000 192.260000 69.750000 C 192.260000 69.750000 188.680000 65.810000 190.320000 55.590000 Z"/><path fill="rgb(251, 50, 43)" d=" M 203.250000 139.180000 C 203.250000 239.250000 206.170000 259.310000 138.720000 259.310000 C 76.620000 259.310000 74.180000 254.290000 74.180000 139.180000 C 74.180000 77.810000 75.160000 28.070000 138.710000 28.070000 C 206.660000 28.070000 203.250000 77.810000 203.250000 139.180000 Z"/><path fill="rgb(253, 175, 31)" d=" M 89.110000 58.230000 L 77.270000 57.210000 L 81.710000 42.990000 C 81.710000 42.990000 65.930000 53.660000 64.940000 66.860000 C 64.940000 66.860000 79.740000 72.950000 87.630000 72.450000 C 87.630000 72.450000 91.080000 68.390000 89.110000 58.230000 Z"/><path fill="rgb(68, 18, 15)" d=" M 107.840000 137.450000 L 179.330000 135.420000 C 179.330000 135.420000 185.250000 178.580000 143.340000 178.580000 C 101.390000 178.580000 107.840000 137.450000 107.840000 137.450000 Z"/><path fill="rgb(255, 255, 255)" d=" M 122.320000 137.040000 C 122.210000 137.840000 122.140000 138.670000 122.140000 139.530000 C 122.140000 145.700000 125.230000 150.700000 129.040000 150.700000 C 132.850000 150.700000 135.940000 145.700000 135.940000 139.530000 C 135.940000 138.530000 135.860000 137.570000 135.710000 136.660000 L 122.320000 137.040000 Z M 108.460000 137.430000 C 108.380000 138.110000 108.330000 138.810000 108.330000 139.530000 C 108.330000 145.700000 111.420000 150.700000 115.240000 150.700000 C 119.050000 150.700000 122.140000 145.700000 122.140000 139.530000 C 122.140000 138.670000 122.080000 137.850000 121.960000 137.050000 L 108.460000 137.430000 Z M 136.190000 136.640000 C 136.040000 137.570000 135.950000 138.530000 135.950000 139.530000 C 135.950000 145.700000 139.040000 150.700000 142.850000 150.700000 C 146.660000 150.700000 149.750000 145.700000 149.750000 139.530000 C 149.750000 138.390000 149.650000 137.300000 149.450000 136.260000 L 136.190000 136.640000 Z M 150.060000 136.250000 C 149.860000 137.290000 149.750000 138.390000 149.750000 139.530000 C 149.750000 145.700000 152.840000 150.700000 156.660000 150.700000 C 160.470000 150.700000 163.560000 145.700000 163.560000 139.530000 C 163.560000 138.250000 163.420000 137.020000 163.170000 135.880000 L 150.060000 136.250000 Z M 176.890000 135.480000 L 163.950000 135.850000 C 163.700000 137.010000 163.560000 138.240000 163.560000 139.530000 C 163.560000 145.700000 166.650000 150.700000 170.460000 150.700000 C 174.270000 150.700000 177.360000 145.700000 177.360000 139.530000 C 177.370000 138.100000 177.190000 136.740000 176.890000 135.480000 Z"/><path fill="rgb(68, 18, 15)" d=" M 110.070000 113.480000 C 111.700000 116.060000 111.700000 120.240000 110.070000 122.820000 C 108.430000 125.400000 105.780000 125.400000 104.140000 122.820000 C 102.500000 120.240000 102.500000 116.060000 104.140000 113.480000 C 105.780000 110.910000 108.430000 110.910000 110.070000 113.480000 Z"/><path fill="rgb(68, 18, 15)" d=" M 188.460000 113.480000 C 190.100000 116.060000 190.100000 120.240000 188.460000 122.820000 C 186.830000 125.400000 184.170000 125.400000 182.540000 122.820000 C 180.900000 120.240000 180.900000 116.060000 182.540000 113.480000 C 184.170000 110.910000 186.830000 110.910000 188.460000 113.480000 Z"/><path fill="rgb(252, 148, 139)" d=" M 139.890000 117.130000 C 139.890000 118.660000 139.890000 127.290000 139.890000 127.290000 L 164.050000 126.280000 L 163.560000 115.100000 L 139.890000 117.130000 Z"/><path fill="rgb(252, 148, 139)" d=" M 145.810000 119.670000 L 144.980000 58.390000 L 160.260000 58.390000 L 158.130000 117.640000 L 145.810000 119.670000 Z"/><path fill="rgb(68, 18, 15)" d=" M 107.350000 72.960000 C 107.350000 72.960000 168.980000 54.170000 190.680000 72.960000 C 190.680000 72.960000 164.540000 30.810000 107.350000 72.960000 Z"/><path fill="rgb(179, 26, 22)" d=" M 107.140000 231.470000 C 107.140000 236.580000 103.850000 240.720000 99.800000 240.720000 C 95.740000 240.720000 92.460000 236.580000 92.460000 231.470000 C 92.460000 226.350000 95.740000 222.210000 99.800000 222.210000 C 103.850000 222.210000 107.140000 226.350000 107.140000 231.470000 Z"/><path fill="rgb(179, 26, 22)" d=" M 93.760000 212.150000 C 95.220000 213.950000 95.220000 216.880000 93.760000 218.690000 C 92.300000 220.500000 89.920000 220.500000 88.460000 218.690000 C 87.000000 216.880000 87.000000 213.950000 88.460000 212.150000 C 89.920000 210.340000 92.300000 210.340000 93.760000 212.150000 Z"/><path fill="rgb(179, 26, 22)" d=" M 109.620000 207.110000 C 111.450000 209.300000 111.450000 212.860000 109.620000 215.050000 C 107.790000 217.240000 104.810000 217.240000 102.980000 215.050000 C 101.150000 212.860000 101.150000 209.300000 102.980000 207.110000 C 104.810000 204.910000 107.790000 204.910000 109.620000 207.110000 Z"/><path fill="rgb(179, 26, 22)" d=" M 193.070000 222.350000 C 194.730000 224.480000 194.730000 227.940000 193.070000 230.070000 C 191.410000 232.200000 188.730000 232.200000 187.070000 230.070000 C 185.410000 227.940000 185.410000 224.480000 187.070000 222.350000 C 188.730000 220.220000 191.410000 220.220000 193.070000 222.350000 Z"/><path fill="rgb(179, 26, 22)" d=" M 196.880000 208.710000 C 198.300000 210.970000 198.300000 214.620000 196.880000 216.880000 C 195.460000 219.130000 193.160000 219.130000 191.740000 216.880000 C 190.320000 214.620000 190.320000 210.970000 191.740000 208.710000 C 193.160000 206.460000 195.460000 206.460000 196.880000 208.710000 Z"/><path fill="rgb(179, 26, 22)" d=" M 186.280000 205.500000 C 187.700000 207.630000 187.700000 211.090000 186.280000 213.220000 C 184.860000 215.360000 182.560000 215.360000 181.140000 213.220000 C 179.720000 211.090000 179.720000 207.630000 181.140000 205.500000 C 182.560000 203.370000 184.860000 203.370000 186.280000 205.500000 Z"/><path fill="rgb(252, 148, 139)" d=" M 99.760000 138.680000 C 102.360000 141.360000 102.360000 145.710000 99.760000 148.390000 C 97.150000 151.070000 92.940000 151.070000 90.330000 148.390000 C 87.730000 145.710000 87.730000 141.360000 90.330000 138.680000 C 92.940000 136.000000 97.150000 136.000000 99.760000 138.680000 Z"/><path fill="rgb(252, 148, 139)" d=" M 196.660000 139.540000 C 196.660000 143.330000 193.670000 146.410000 189.990000 146.410000 C 186.310000 146.410000 183.320000 143.330000 183.320000 139.540000 C 183.320000 135.750000 186.310000 132.680000 189.990000 132.680000 C 193.670000 132.680000 196.660000 135.750000 196.660000 139.540000 Z"/><path fill="rgb(148, 33, 28)" d=" M 135.830000 31.870000 C 135.510000 28.520000 140.480000 10.920000 144.420000 12.610000 C 147.110000 13.770000 143.860000 20.950000 143.030000 22.900000 C 144.110000 20.610000 146.260000 18.800000 148.330000 17.510000 C 149.570000 16.730000 155.560000 13.470000 157.010000 14.930000 C 159.260000 17.190000 152.600000 21.390000 151.190000 22.160000 C 154.470000 21.030000 160.100000 18.130000 163.130000 21.470000 C 166.180000 24.830000 159.860000 28.150000 157.820000 30.150000"/></svg>