<?xml version="1.0" standalone="no"?><!DOCTYPE svg PUBLIC "-//W3C//DTD SVG 1.1//EN" "http://www.w3.org/Graphics/SVG/1.1/DTD/svg11.dtd"><svg id="ParrotFlying0.svg" width="150" height="150" version="1.1" viewBox="0 0 300 300" xmlns="http://www.w3.org/2000/svg" xmlns:xlink="http://www.w3.org/1999/xlink"><defs xmlns="http://www.w3.org/1999/xhtml"><style type="text/css"><![CDATA[
* { border: 0px; margin: 0px; padding: 0px; }
html { background-color: rgb(255, 255, 255); font-family: Verdana, Arial; }
.webgl-content * { position: absolute; width: 100%; height: 100%; user-select: none; }
.webgl-content .logo, .progress { position: absolute; left: 50%; top: 50%; transform: translate(-50%, -50%); }
.webgl-content .logo { background: url("progressLogo.Light.png") center center / contain no-repeat; width: 154px; height: 130px; }
.webgl-content .progress { height: 18px; width: 141px; margin-top: 90px; }
.webgl-content .progress .empty { background: url("progressEmpty.Light.png") right center / cover no-repeat; float: right; width: 100%; height: 100%; display: inline-block; }
.webgl-content .progress .full { background: url("progressFull.Light.png") left center / cover no-repeat; float: left; width: 0%; height: 100%; display: inline-block; }
.webgl-content .logo.Dark { background-image: url("progressLogo.Dark.png"); }
.webgl-content .progress.Dark .empty { background-image: url("progressEmpty.Dark.png"); }
.webgl-content .progress.Dark .full { background-image: url("progressFull.Dark.png"); }
#loading-content { z-index: 10000; position: fixed; width: 100%; height: 100%; left: 0px; top: 0px; overflow: hidden; background: url("background.png"); }
.hud-intro .hud-intro-social .btn-discord, .hud-respawn .hud-respawn-social .btn-discord { background-image: url("//lordz.io/images/discord-icon.png"); }
.hud-intro .hud-intro-social .btn-twitter, .hud-respawn .hud-respawn-social .btn-twitter { background-image: url("//lordz.io/images/twitter-icon.png"); }
.hud-intro .hud-intro-social .btn-facebook, .hud-respawn .hud-respawn-social .btn-facebook { background-image: url("//lordz.io/images/facebook-icon.png"); }
.hud-intro .hud-intro-social .btn-youtube, .hud-respawn .hud-respawn-social .btn-youtube { background-image: url("//lordz.io/images/youtube-icon.png"); }
* { box-sizing: border-box; user-select: none; }
.btn { position: relative; display: inline-block; top: 0px; height: 36px; line-height: 36px; padding: 0px 20px; background: rgb(68, 68, 68); color: rgb(238, 238, 238); border: 0px; font-size: 14px; vertical-align: top; text-align: center; text-decoration: none; text-shadow: rgba(0, 0, 0, 0.4) 0px 1px 0px; box-shadow: rgba(0, 0, 0, 0.2) 0px 2px 10px, rgb(51, 51, 51) 0px 4px 0px; border-radius: 4px; transition: all 0.15s ease-in-out 0s; }
.btn:hover, .btn:active { background-color: rgb(85, 85, 85); color: rgb(255, 255, 255); }
.btn:active { top: 4px; box-shadow: rgba(0, 0, 0, 0.2) 0px 2px 10px !important; }
.btn-green { background-color: rgb(71, 149, 13); box-shadow: rgba(0, 0, 0, 0.2) 0px 2px 10px, rgb(53, 131, 0) 0px 4px 0px; }
.btn-green:hover, .btn-green:active { background-color: rgb(100, 184, 32); }
.btn-red { background-color: rgb(179, 53, 60); box-shadow: rgba(0, 0, 0, 0.2) 0px 2px 10px, rgb(161, 35, 42) 0px 4px 0px; }
.btn-red:hover, .btn-red:active { background-color: rgb(203, 87, 91); }
.btn-blue { background-color: rgb(29, 141, 238); box-shadow: rgba(0, 0, 0, 0.2) 0px 2px 10px, rgb(11, 123, 220) 0px 4px 0px; }
.btn-blue:hover, .btn-blue:active { background-color: rgb(79, 167, 238); }
.btn-purple { background-color: rgb(114, 55, 228); box-shadow: rgba(0, 0, 0, 0.2) 0px 2px 10px, rgb(96, 37, 210) 0px 4px 0px; }
.btn-purple:hover, .btn-purple:active { background-color: rgb(130, 89, 228); }
.btn-twitter { background-color: rgb(27, 149, 224); box-shadow: rgba(0, 0, 0, 0.2) 0px 2px 10px, rgb(9, 131, 206) 0px 4px 0px; }
.btn-twitter:hover, .btn-twitter:active { background-color: rgb(12, 122, 191); }
.btn-facebook { background-color: rgb(66, 103, 178); box-shadow: rgba(0, 0, 0, 0.2) 0px 2px 10px, rgb(48, 85, 160) 0px 4px 0px; }
.btn-facebook:hover, .btn-facebook:active { background-color: rgb(54, 88, 153); }
.btn-google { background-color: rgb(221, 75, 57); box-shadow: rgba(0, 0, 0, 0.2) 0px 2px 10px, rgb(203, 57, 39) 0px 4px 0px; }
.btn-google:hover, .btn-google:active { background-color: rgb(186, 63, 49); }
.btn-discord { background-color: rgb(114, 137, 218); box-shadow: rgba(0, 0, 0, 0.2) 0px 2px 10px, rgb(96, 119, 200) 0px 4px 0px; }
.btn-discord:hover, .btn-discord:active { background-color: rgb(90, 109, 176); }
.btn-youtube { background-color: rgb(229, 45, 39); box-shadow: rgba(0, 0, 0, 0.2) 0px 2px 10px, rgb(211, 27, 21) 0px 4px 0px; }
.btn-youtube:hover, .btn-youtube:active { background-color: rgb(186, 37, 33); }
.hud { position: fixed; top: 0px; left: 0px; bottom: 0px; right: 0px; }
.hud .hud-bottom-left { display: flex; position: absolute; bottom: 20px; left: 20px; flex-direction: column-reverse; }
.hud-intro .hud-intro-corner-bottom-left, .hud-respawn .hud-respawn-corner-bottom-left { position: fixed; bottom: 20px; left: 20px; text-align: left; }
.hud-intro .hud-intro-social, .hud-respawn .hud-respawn-social { width: 240px; line-height: 24px; font-size: 14px; color: rgb(119, 119, 119); }
.hud-intro .hud-intro-social .btn, .hud-respawn .hud-respawn-social .btn { display: block; float: left; margin: 0px 10px 0px 0px; width: 40px; height: 40px; line-height: 40px; background-size: 24px; background-position: center center; background-repeat: no-repeat; }
.hud-intro .hud-intro-more-games { position: relative; bottom: 5px; line-height: 20px; font-size: 14px; color: rgba(255, 255, 255, 0.4); text-shadow: rgba(0, 0, 0, 0.2) 0px 1px 3px; }
.hud-intro .hud-intro-more-games a { display: inline-block; padding: 0px 20px; line-height: 40px; background: rgb(132, 115, 212); color: rgb(238, 238, 238); text-decoration: none; border-radius: 4px; transition: all 0.15s ease-in-out 0s; }
.hud-intro .hud-intro-more-games a:hover, .hud-intro .hud-intro-more-games a:active { background: rgb(103, 90, 166); }
#preroll video { left: 0px; top: 0px; }
.fb_hidden { position: absolute; top: -10000px; z-index: 10001; }
.fb_reposition { overflow: hidden; position: relative; }
.fb_invisible { display: none; }
.fb_reset { background: none; border: 0px; border-spacing: 0px; color: rgb(0, 0, 0); cursor: auto; direction: ltr; font-family: "lucida grande", tahoma, verdana, arial, sans-serif; font-size: 11px; font-style: normal; font-variant: normal; font-weight: normal; letter-spacing: normal; line-height: 1; margin: 0px; overflow: visible; padding: 0px; text-align: left; text-decoration: none; text-indent: 0px; text-shadow: none; text-transform: none; visibility: visible; white-space: normal; word-spacing: normal; }
.fb_animate { animation: 0.3s ease 0s 1 normal forwards running fb_transform; }
.fb_dialog { background: rgba(82, 82, 82, 0.7); position: absolute; top: -10000px; z-index: 10001; }
.fb_dialog_advanced { border-radius: 8px; padding: 10px; }
.fb_dialog_content { background: rgb(255, 255, 255); color: rgb(55, 55, 55); }
.fb_dialog_close_icon { background: url("https://static.xx.fbcdn.net/rsrc.php/v3/yq/r/IE9JII6Z1Ys.png") 0px 0px no-repeat scroll transparent; cursor: pointer; display: block; height: 15px; position: absolute; right: 18px; top: 17px; width: 15px; }
.fb_dialog_mobile .fb_dialog_close_icon { left: 5px; right: auto; top: 5px; }
.fb_dialog_padding { background-color: transparent; position: absolute; width: 1px; z-index: -1; }
.fb_dialog_close_icon:hover { background: url("https://static.xx.fbcdn.net/rsrc.php/v3/yq/r/IE9JII6Z1Ys.png") 0px -15px no-repeat scroll transparent; }
.fb_dialog_close_icon:active { background: url("https://static.xx.fbcdn.net/rsrc.php/v3/yq/r/IE9JII6Z1Ys.png") 0px -30px no-repeat scroll transparent; }
.fb_dialog_iframe { line-height: 0; }
.fb_dialog_content .dialog_title { background: rgb(109, 132, 180); border: 1px solid rgb(54, 88, 153); color: rgb(255, 255, 255); font-size: 14px; font-weight: bold; margin: 0px; }
body.fb_hidden { height: 100%; left: 0px; margin: 0px; overflow: visible; position: absolute; top: -10000px; transform: none; width: 100%; }
.fb_dialog.fb_dialog_mobile.loading { background: url("https://static.xx.fbcdn.net/rsrc.php/v3/ya/r/3rhSv5V8j3o.gif") 50% 50% no-repeat white; min-height: 100%; min-width: 100%; overflow: hidden; position: absolute; top: 0px; z-index: 10001; }
.fb_dialog.fb_dialog_mobile.loading.centered { background: none; height: auto; min-height: initial; min-width: initial; width: auto; }
.fb_dialog.fb_dialog_mobile.loading.centered #fb_dialog_loader_spinner { width: 100%; }
.fb_dialog.fb_dialog_mobile.loading.centered .fb_dialog_content { background: none; }
.loading.centered #fb_dialog_loader_close { clear: both; color: rgb(255, 255, 255); display: block; font-size: 18px; padding-top: 20px; }
#fb-root #fb_dialog_ipad_overlay { background: rgba(0, 0, 0, 0.4); bottom: 0px; left: 0px; min-height: 100%; position: absolute; right: 0px; top: 0px; width: 100%; z-index: 10000; }
#fb-root #fb_dialog_ipad_overlay.hidden { display: none; }
.fb_dialog.fb_dialog_mobile.loading iframe { visibility: hidden; }
.fb_dialog_mobile .fb_dialog_iframe { position: sticky; top: 0px; }
.fb_dialog_content .dialog_header { border-bottom: 1px solid rgb(4, 59, 135); border-top-color: rgb(4, 59, 135); border-right-color: rgb(4, 59, 135); border-left-color: rgb(4, 59, 135); box-shadow: white 0px 1px 1px -1px inset; color: rgb(255, 255, 255); font: bold 14px Helvetica, sans-serif; text-overflow: ellipsis; text-shadow: rgba(0, 30, 84, 0.298) 0px -1px 0px; vertical-align: middle; white-space: nowrap; }
.fb_dialog_content .dialog_header table { height: 43px; width: 100%; }
.fb_dialog_content .dialog_header td.header_left { font-size: 12px; padding-left: 5px; vertical-align: middle; width: 60px; }
.fb_dialog_content .dialog_header td.header_right { font-size: 12px; padding-right: 5px; vertical-align: middle; width: 60px; }
.fb_dialog_content .touchable_button { background-clip: padding-box; border: 1px solid rgb(41, 72, 125); border-radius: 3px; display: inline-block; line-height: 18px; margin-top: 3px; max-width: 85px; padding: 4px 12px; position: relative; }
.fb_dialog_content .dialog_header .touchable_button input { background: none; border: none; color: rgb(255, 255, 255); font: bold 12px Helvetica, sans-serif; margin: 2px -12px; padding: 2px 6px 3px; text-shadow: rgba(0, 30, 84, 0.298) 0px -1px 0px; }
.fb_dialog_content .dialog_header .header_center { color: rgb(255, 255, 255); font-size: 16px; font-weight: bold; line-height: 18px; text-align: center; vertical-align: middle; }
.fb_dialog_content .dialog_content { background: url("https://static.xx.fbcdn.net/rsrc.php/v3/y9/r/jKEcVPZFk-2.gif") 50% 50% no-repeat; border-width: 0px 1px; border-right-style: solid; border-left-style: solid; border-right-color: rgb(74, 74, 74); border-left-color: rgb(74, 74, 74); border-image: initial; border-bottom-style: initial; border-bottom-color: initial; border-top-style: initial; border-top-color: initial; height: 150px; }
.fb_dialog_content .dialog_footer { background: rgb(245, 246, 247); border-width: 1px; border-style: solid; border-color: rgb(204, 204, 204) rgb(74, 74, 74) rgb(74, 74, 74); border-image: initial; height: 40px; }
#fb_dialog_loader_close { float: left; }
.fb_dialog.fb_dialog_mobile .fb_dialog_close_button { text-shadow: rgba(0, 30, 84, 0.298) 0px -1px 0px; }
.fb_dialog.fb_dialog_mobile .fb_dialog_close_icon { visibility: hidden; }
#fb_dialog_loader_spinner { animation: 1.2s linear 0s infinite normal none running rotateSpinner; background-color: transparent; background-image: url("https://static.xx.fbcdn.net/rsrc.php/v3/yD/r/t-wz8gw1xG1.png"); background-position: 50% 50%; background-repeat: no-repeat; height: 24px; width: 24px; }
.fb_iframe_widget { display: inline-block; position: relative; }
.fb_iframe_widget span { display: inline-block; position: relative; text-align: justify; }
.fb_iframe_widget iframe { position: absolute; }
.fb_iframe_widget_fluid_desktop, .fb_iframe_widget_fluid_desktop span, .fb_iframe_widget_fluid_desktop iframe { max-width: 100%; }
.fb_iframe_widget_fluid_desktop iframe { min-width: 220px; position: relative; }
.fb_iframe_widget_lift { z-index: 1; }
.fb_iframe_widget_fluid { display: inline; }
.fb_iframe_widget_fluid span { width: 100%; }
.st0 { fill: rgb(119, 183, 73); }
.st1 { fill: rgb(247, 175, 47); }
.st2 { fill: rgb(233, 81, 15); }
.st3 { fill: url("#SVGID_1_"); }
.st4 { fill: url("#SVGID_2_"); }
.st5 { fill: rgb(252, 242, 119); }
.st6 { fill: url("#SVGID_3_"); }
.st7 { fill: url("#SVGID_4_"); }
.st8 { fill: url("#SVGID_5_"); }
.st9 { fill: url("#SVGID_6_"); }
.st10 { fill: url("#SVGID_7_"); }
.st11 { fill: url("#SVGID_8_"); }
.st12 { fill: url("#SVGID_9_"); }
.st13 { fill: url("#SVGID_10_"); }
.st14 { fill: url("#SVGID_11_"); }
.st15 { fill: url("#SVGID_12_"); }
.st16 { fill: url("#SVGID_13_"); }
.st17 { fill: url("#SVGID_14_"); }
.st18 { fill: url("#SVGID_15_"); }
.st19 { fill: url("#SVGID_16_"); }
.st0 { fill: rgb(119, 183, 73); }
.st1 { fill: rgb(247, 175, 47); }
.st2 { fill: rgb(233, 81, 15); }
.st3 { fill: url("#SVGID_1_"); }
.st4 { fill: url("#SVGID_2_"); }
.st5 { fill: rgb(252, 242, 119); }
.st6 { fill: url("#SVGID_3_"); }
.st7 { fill: url("#SVGID_4_"); }
.st8 { fill: url("#SVGID_5_"); }
.st9 { fill: url("#SVGID_6_"); }
.st10 { fill: url("#SVGID_7_"); }
.st11 { fill: url("#SVGID_8_"); }
.st12 { fill: url("#SVGID_9_"); }
.st13 { fill: url("#SVGID_10_"); }
.st14 { fill: url("#SVGID_11_"); }
.st15 { fill: url("#SVGID_12_"); }
.st16 { fill: url("#SVGID_13_"); }
.st17 { fill: url("#SVGID_14_"); }
.st18 { fill: url("#SVGID_15_"); }
.st19 { fill: url("#SVGID_16_"); }
.st0 { fill: rgb(119, 183, 73); }
.st1 { fill: rgb(247, 175, 47); }
.st2 { fill: rgb(233, 81, 15); }
.st3 { fill: url("#SVGID_1_"); }
.st4 { fill: url("#SVGID_2_"); }
.st5 { fill: rgb(252, 242, 119); }
.st6 { fill: url("#SVGID_3_"); }
.st7 { fill: url("#SVGID_4_"); }
.st8 { fill: url("#SVGID_5_"); }
.st9 { fill: url("#SVGID_6_"); }
.st10 { fill: url("#SVGID_7_"); }
.st11 { fill: url("#SVGID_8_"); }
.st12 { fill: url("#SVGID_9_"); }
.st13 { fill: url("#SVGID_10_"); }
.st14 { fill: url("#SVGID_11_"); }
.st15 { fill: url("#SVGID_12_"); }
.st16 { fill: url("#SVGID_13_"); }
.st17 { fill: url("#SVGID_14_"); }
.st18 { fill: url("#SVGID_15_"); }
.st19 { fill: url("#SVGID_16_"); }
.st0 { fill: rgb(119, 183, 73); }
.st1 { fill: rgb(247, 175, 47); }
.st2 { fill: rgb(233, 81, 15); }
.st3 { fill: url("#SVGID_1_"); }
.st4 { fill: url("#SVGID_2_"); }
.st5 { fill: rgb(252, 242, 119); }
.st6 { fill: url("#SVGID_3_"); }
.st7 { fill: url("#SVGID_4_"); }
.st8 { fill: url("#SVGID_5_"); }
.st9 { fill: url("#SVGID_6_"); }
.st10 { fill: url("#SVGID_7_"); }
.st11 { fill: url("#SVGID_8_"); }
.st12 { fill: url("#SVGID_9_"); }
.st13 { fill: url("#SVGID_10_"); }
.st14 { fill: url("#SVGID_11_"); }
.st15 { fill: url("#SVGID_12_"); }
.st16 { fill: url("#SVGID_13_"); }
.st17 { fill: url("#SVGID_14_"); }
.st18 { fill: url("#SVGID_15_"); }
.st19 { fill: url("#SVGID_16_"); }]]></style></defs><path fill="rgb(8, 51, 57)" d=" M 217.820000 105.820000 C 209.880000 72.250000 208.220000 11.150000 99.640000 41.480000 C 99.640000 41.480000 101.420000 52.960000 117.450000 52.650000 L 106.150000 55.340000 C 106.150000 55.340000 117.840000 71.500000 131.150000 69.360000 L 119.110000 73.150000 C 119.110000 73.150000 127.340000 90.940000 144.660000 87.540000 C 144.660000 87.540000 178.590000 146.290000 202.880000 135.730000 C 220.750000 127.960000 220.610000 117.580000 217.820000 105.820000 Z"/><path fill="rgb(19, 149, 146)" d=" M 199.230000 68.080000 C 198.000000 65.500000 196.300000 62.680000 193.040000 63.630000 C 189.750000 64.580000 190.460000 69.250000 191.920000 73.480000 C 190.670000 71.720000 189.320000 70.040000 187.830000 68.450000 C 187.610000 68.210000 187.170000 68.260000 186.980000 68.520000 C 184.700000 71.780000 185.590000 75.490000 186.920000 79.010000 C 184.730000 76.050000 182.160000 73.410000 179.100000 71.280000 C 178.860000 71.120000 178.480000 71.200000 178.320000 71.430000 C 176.140000 74.440000 176.410000 77.660000 177.580000 80.740000 C 175.880000 79.010000 173.870000 77.810000 171.860000 78.720000 C 168.940000 80.050000 170.420000 84.740000 171.930000 88.100000 C 169.230000 85.370000 166.140000 83.040000 162.420000 81.900000 C 162.170000 81.820000 161.800000 81.910000 161.690000 82.190000 C 159.960000 86.750000 162.450000 94.030000 167.470000 95.530000 C 167.920000 95.660000 168.600000 95.010000 168.000000 94.830000 C 163.530000 93.490000 161.220000 87.050000 162.470000 82.810000 C 166.920000 84.360000 170.430000 87.620000 173.440000 91.170000 C 173.740000 91.520000 174.570000 91.190000 174.310000 90.710000 C 172.910000 88.080000 169.990000 82.820000 171.880000 79.750000 C 173.890000 76.490000 179.800000 85.220000 180.530000 86.380000 C 180.780000 86.780000 181.690000 86.380000 181.410000 85.930000 C 178.870000 81.850000 175.980000 76.790000 178.830000 72.230000 C 182.950000 75.210000 186.160000 79.120000 188.710000 83.500000 C 188.920000 83.860000 189.780000 83.560000 189.620000 83.140000 C 188.090000 78.990000 185.040000 73.740000 187.430000 69.450000 C 190.390000 72.720000 192.860000 76.320000 194.900000 80.240000 C 195.130000 80.650000 196.020000 80.260000 195.770000 79.780000 C 194.530000 77.540000 193.620000 75.090000 192.860000 72.650000 C 192.230000 70.620000 190.680000 65.840000 193.090000 64.410000 C 197.810000 61.610000 201.530000 76.930000 202.180000 79.760000 C 202.290000 80.240000 203.250000 79.970000 203.140000 79.480000 C 202.250000 75.580000 200.950000 71.690000 199.230000 68.080000 Z"/><path fill="rgb(19, 149, 146)" d=" M 202.690000 91.580000 C 202.470000 91.440000 202.070000 91.480000 201.920000 91.730000 C 200.400000 94.250000 200.260000 96.860000 200.660000 99.500000 C 199.810000 97.970000 198.800000 96.530000 197.500000 95.280000 C 197.290000 95.070000 196.890000 95.250000 196.730000 95.430000 C 193.960000 98.390000 194.200000 102.070000 195.170000 105.640000 C 193.640000 103.260000 191.920000 101.030000 189.410000 99.630000 C 189.120000 99.470000 188.720000 99.560000 188.580000 99.870000 C 187.040000 103.100000 188.130000 106.480000 189.650000 109.620000 C 186.780000 106.630000 182.790000 103.720000 180.700000 107.620000 C 177.950000 112.750000 183.630000 118.130000 187.860000 119.910000 C 188.300000 120.100000 188.970000 119.460000 188.390000 119.220000 C 184.420000 117.540000 180.470000 113.740000 181.160000 109.040000 C 181.470000 106.900000 183.250000 106.330000 185.100000 107.070000 C 187.970000 108.230000 190.070000 111.280000 191.770000 113.700000 C 192.050000 114.090000 192.890000 113.720000 192.650000 113.250000 C 190.730000 109.520000 187.690000 104.900000 189.260000 100.610000 C 192.540000 102.720000 194.410000 106.310000 196.450000 109.530000 C 196.670000 109.890000 197.520000 109.600000 197.370000 109.170000 C 195.880000 104.990000 194.120000 100.060000 197.120000 96.250000 C 199.540000 98.750000 200.920000 101.980000 202.060000 105.230000 C 202.220000 105.700000 203.160000 105.430000 203.020000 104.950000 C 201.870000 100.870000 200.390000 96.520000 202.470000 92.550000 C 206.670000 95.670000 208.030000 101.980000 209.000000 106.820000 C 209.090000 107.300000 210.060000 107.030000 209.960000 106.550000 C 208.930000 101.380000 207.420000 94.650000 202.690000 91.580000 Z"/><path fill="rgb(8, 51, 57)" d=" M 91.710000 203.670000 C 109.740000 187.140000 125.940000 175.920000 125.940000 175.920000 C 125.330000 177.010000 124.700000 178.070000 124.070000 179.130000 C 126.470000 176.460000 127.760000 174.880000 127.760000 174.880000 L 125.000000 175.430000 C 123.070000 176.120000 121.180000 176.820000 119.320000 177.530000 C 120.420000 177.400000 121.500000 177.260000 122.620000 177.140000 C 122.620000 177.140000 106.980000 186.780000 85.780000 196.340000 C 81.330000 198.350000 76.650000 200.350000 71.810000 202.260000 C 69.440000 203.190000 67.040000 204.100000 64.620000 204.970000 C 35.740000 224.010000 25.090000 240.580000 25.090000 240.580000 C 42.960000 237.560000 59.700000 229.990000 74.270000 221.020000 C 76.040000 219.100000 77.830000 217.200000 79.630000 215.350000 C 83.650000 211.240000 87.720000 207.330000 91.710000 203.670000 Z"/><path fill="rgb(252, 133, 21)" d=" M 85.780000 196.340000 C 106.990000 186.780000 122.620000 177.140000 122.620000 177.140000 C 121.500000 177.260000 120.420000 177.400000 119.320000 177.530000 C 104.760000 179.250000 91.650000 182.230000 80.120000 185.790000 C 81.280000 189.680000 83.650000 193.010000 85.780000 196.340000 Z"/><path fill="rgb(239, 52, 42)" d=" M 71.810000 202.260000 C 76.650000 200.350000 81.340000 198.350000 85.780000 196.340000 C 83.650000 193.010000 81.280000 189.680000 80.120000 185.790000 C 74.720000 187.460000 69.660000 189.250000 64.960000 191.090000 C 67.110000 194.820000 69.670000 198.380000 71.810000 202.260000 Z"/><path fill="rgb(252, 133, 21)" d=" M 64.960000 191.090000 C 37.090000 202.060000 21.800000 214.940000 21.800000 214.940000 C 35.520000 214.090000 50.500000 210.080000 64.620000 204.970000 C 67.040000 204.100000 69.450000 203.190000 71.810000 202.260000 C 69.670000 198.380000 67.110000 194.820000 64.960000 191.090000 Z"/><path fill="rgb(252, 133, 21)" d=" M 79.640000 215.350000 C 77.830000 217.210000 76.040000 219.100000 74.270000 221.020000 C 65.050000 231.080000 56.580000 242.050000 50.890000 253.130000 C 50.890000 253.130000 68.610000 244.400000 89.660000 223.550000 C 86.220000 220.910000 82.870000 218.160000 79.640000 215.350000 Z"/><path fill="rgb(239, 52, 42)" d=" M 91.710000 203.670000 C 87.720000 207.330000 83.650000 211.240000 79.640000 215.350000 C 82.870000 218.160000 86.220000 220.910000 89.660000 223.550000 C 93.390000 219.850000 97.220000 215.760000 101.090000 211.280000 C 97.680000 209.150000 94.670000 206.450000 91.710000 203.670000 Z"/><path fill="rgb(252, 133, 21)" d=" M 125.950000 175.920000 C 125.950000 175.920000 109.740000 187.150000 91.710000 203.670000 C 94.670000 206.450000 97.680000 209.150000 101.090000 211.280000 C 108.870000 202.250000 116.750000 191.570000 124.070000 179.130000 C 124.700000 178.070000 125.330000 177.010000 125.950000 175.920000 Z"/><path fill="rgb(252, 133, 21)" d=" M 247.190000 50.530000 C 247.460000 50.620000 247.730000 50.720000 247.990000 50.820000 C 247.730000 50.720000 247.470000 50.620000 247.190000 50.530000 Z"/><path fill="rgb(252, 133, 21)" d=" M 197.080000 189.970000 C 196.330000 190.160000 195.570000 190.350000 194.810000 190.530000 C 195.570000 190.350000 196.330000 190.160000 197.080000 189.970000 Z"/><path fill="rgb(252, 133, 21)" d=" M 153.910000 195.200000 C 152.340000 195.230000 150.770000 195.240000 149.210000 195.240000 C 150.770000 195.240000 152.340000 195.230000 153.910000 195.200000 Z"/><path fill="rgb(252, 133, 21)" d=" M 229.320000 46.640000 C 230.580000 46.720000 231.820000 46.840000 233.030000 47.000000 C 231.820000 46.840000 230.580000 46.720000 229.320000 46.640000 Z"/><path fill="rgb(252, 133, 21)" d=" M 185.200000 192.480000 C 184.470000 192.600000 183.740000 192.720000 183.000000 192.840000 C 183.740000 192.720000 184.470000 192.600000 185.200000 192.480000 Z"/><path fill="rgb(252, 133, 21)" d=" M 233.070000 47.010000 C 234.870000 47.250000 236.600000 47.560000 238.250000 47.930000 C 236.600000 47.560000 234.870000 47.250000 233.070000 47.010000 Z"/><path fill="rgb(252, 133, 21)" d=" M 146.690000 195.220000 C 146.030000 195.210000 145.380000 195.210000 144.730000 195.190000 C 145.380000 195.210000 146.030000 195.210000 146.690000 195.220000 Z"/><path fill="rgb(252, 133, 21)" d=" M 194.790000 190.530000 C 191.690000 191.270000 188.550000 191.900000 185.380000 192.450000 C 188.550000 191.900000 191.690000 191.270000 194.790000 190.530000 Z"/><path fill="rgb(252, 133, 21)" d=" M 144.400000 195.190000 C 143.730000 195.180000 143.060000 195.160000 142.390000 195.140000 C 143.060000 195.160000 143.730000 195.180000 144.400000 195.190000 Z"/><path fill="rgb(252, 133, 21)" d=" M 142.210000 195.140000 C 139.960000 195.080000 137.740000 195.000000 135.570000 194.890000 C 137.740000 195.000000 139.960000 195.080000 142.210000 195.140000 Z"/><path fill="rgb(252, 133, 21)" d=" M 208.480000 186.470000 C 204.820000 187.800000 201.040000 188.950000 197.180000 189.940000 C 201.040000 188.960000 204.820000 187.800000 208.480000 186.470000 Z"/><path fill="rgb(252, 133, 21)" d=" M 251.370000 52.190000 C 251.380000 52.200000 251.400000 52.210000 251.410000 52.210000 C 251.400000 52.210000 251.380000 52.200000 251.370000 52.190000 Z"/><path fill="rgb(252, 133, 21)" d=" M 248.300000 50.940000 C 248.570000 51.040000 248.830000 51.140000 249.070000 51.240000 C 248.830000 51.140000 248.570000 51.040000 248.300000 50.940000 Z"/><path fill="rgb(252, 133, 21)" d=" M 245.860000 50.060000 C 246.250000 50.190000 246.620000 50.320000 246.970000 50.450000 C 246.620000 50.320000 246.250000 50.190000 245.860000 50.060000 Z"/><path fill="rgb(252, 133, 21)" d=" M 250.280000 51.730000 C 250.400000 51.780000 250.520000 51.830000 250.630000 51.880000 C 250.520000 51.830000 250.400000 51.780000 250.280000 51.730000 Z"/><path fill="rgb(252, 133, 21)" d=" M 241.650000 48.760000 C 242.610000 49.030000 243.520000 49.300000 244.380000 49.570000 C 243.520000 49.300000 242.610000 49.030000 241.650000 48.760000 Z"/><path fill="rgb(252, 133, 21)" d=" M 238.380000 47.950000 C 239.440000 48.190000 240.470000 48.440000 241.450000 48.710000 C 240.470000 48.440000 239.440000 48.190000 238.380000 47.950000 Z"/><path fill="rgb(252, 133, 21)" d=" M 251.790000 52.380000 C 251.800000 52.390000 251.820000 52.400000 251.840000 52.400000 C 251.820000 52.400000 251.800000 52.390000 251.790000 52.380000 Z"/><path fill="rgb(252, 133, 21)" d=" M 244.600000 49.640000 C 244.960000 49.760000 245.310000 49.870000 245.660000 49.990000 C 245.310000 49.870000 244.960000 49.760000 244.600000 49.640000 Z"/><path fill="rgb(252, 133, 21)" d=" M 156.190000 195.150000 C 155.460000 195.170000 154.720000 195.190000 153.980000 195.200000 C 154.720000 195.190000 155.460000 195.170000 156.190000 195.150000 Z"/><path fill="rgb(252, 133, 21)" d=" M 149.200000 195.240000 C 148.460000 195.240000 147.720000 195.230000 146.990000 195.220000 C 147.720000 195.230000 148.460000 195.240000 149.200000 195.240000 Z"/><path fill="rgb(252, 133, 21)" d=" M 158.530000 195.080000 C 157.850000 195.110000 157.170000 195.130000 156.500000 195.140000 C 157.170000 195.130000 157.850000 195.110000 158.530000 195.080000 Z"/><path fill="rgb(252, 133, 21)" d=" M 168.300000 194.530000 C 165.920000 194.720000 163.530000 194.870000 161.160000 194.980000 C 163.530000 194.870000 165.920000 194.720000 168.300000 194.530000 Z"/><path fill="rgb(252, 133, 21)" d=" M 171.920000 175.160000 C 188.480000 169.720000 210.830000 142.790000 225.570000 133.410000 C 232.630000 126.090000 244.060000 126.270000 254.890000 129.920000 C 251.870000 160.680000 232.750000 177.600000 208.480000 186.460000 C 238.660000 175.450000 260.870000 151.980000 254.100000 104.940000 C 253.850000 103.220000 253.580000 101.480000 253.290000 99.720000 L 252.760000 52.840000 L 252.760000 52.840000 L 252.760000 53.060000 C 246.370000 75.510000 230.320000 105.310000 216.060000 91.660000 C 205.850000 81.900000 205.230000 64.410000 206.260000 52.380000 C 213.360000 47.360000 221.670000 46.170000 229.290000 46.640000 C 213.470000 45.660000 194.650000 51.850000 189.860000 84.600000 C 174.480000 128.540000 120.010000 183.790000 82.980000 174.880000 C 82.980000 174.880000 93.800000 183.160000 103.940000 182.550000 C 103.940000 182.550000 101.190000 188.050000 88.540000 189.180000 C 88.540000 189.180000 108.960000 193.600000 135.510000 194.890000 C 136.570000 192.520000 138.340000 189.900000 140.970000 186.990000 C 148.980000 178.140000 161.560000 178.560000 171.920000 175.160000 Z"/><path fill="rgb(19, 149, 146)" d=" M 196.380000 77.620000 C 195.810000 80.620000 195.450000 83.640000 195.480000 86.690000 C 195.490000 88.000000 197.540000 88.180000 197.530000 86.860000 C 197.490000 83.800000 197.850000 80.790000 198.420000 77.790000 C 198.670000 76.490000 196.620000 76.340000 196.380000 77.620000 Z M 201.820000 78.690000 C 201.380000 81.910000 200.940000 85.130000 200.510000 88.360000 C 200.330000 89.670000 202.380000 89.830000 202.550000 88.520000 C 202.990000 85.300000 203.420000 82.080000 203.860000 78.850000 C 204.040000 77.540000 201.990000 77.380000 201.820000 78.690000 Z M 198.430000 93.980000 C 198.500000 97.110000 198.570000 100.240000 198.640000 103.370000 C 198.670000 104.680000 200.720000 104.850000 200.690000 103.530000 C 200.620000 100.410000 200.550000 97.280000 200.480000 94.150000 C 200.450000 92.840000 198.400000 92.660000 198.430000 93.980000 Z"/><path fill="rgb(252, 133, 21)" d=" M 249.370000 51.350000 C 249.570000 51.430000 249.760000 51.510000 249.940000 51.590000 C 249.760000 51.510000 249.570000 51.440000 249.370000 51.350000 Z"/><path fill="rgb(252, 133, 21)" d=" M 170.640000 194.340000 C 169.930000 194.400000 169.210000 194.460000 168.500000 194.520000 C 169.210000 194.460000 169.930000 194.400000 170.640000 194.340000 Z"/><path fill="rgb(252, 133, 21)" d=" M 160.990000 194.980000 C 160.280000 195.020000 159.570000 195.040000 158.850000 195.070000 C 159.570000 195.040000 160.280000 195.020000 160.990000 194.980000 Z"/><path fill="rgb(252, 133, 21)" d=" M 182.820000 192.860000 C 179.660000 193.350000 176.480000 193.760000 173.300000 194.080000 C 176.480000 193.760000 179.660000 193.350000 182.820000 192.860000 Z"/><path fill="rgb(252, 133, 21)" d=" M 173.080000 194.110000 C 172.370000 194.180000 171.660000 194.250000 170.950000 194.310000 C 171.660000 194.250000 172.370000 194.180000 173.080000 194.110000 Z"/><path fill="rgb(253, 184, 37)" d=" M 156.190000 195.150000 C 156.300000 195.150000 156.400000 195.150000 156.500000 195.140000 C 157.170000 195.130000 157.850000 195.110000 158.530000 195.080000 C 158.640000 195.080000 158.750000 195.070000 158.860000 195.070000 C 159.570000 195.040000 160.280000 195.020000 160.990000 194.980000 C 161.050000 194.980000 161.110000 194.980000 161.160000 194.980000 C 163.530000 194.870000 165.920000 194.720000 168.310000 194.540000 C 168.370000 194.530000 168.430000 194.530000 168.500000 194.520000 C 169.210000 194.460000 169.930000 194.400000 170.640000 194.340000 C 170.750000 194.330000 170.850000 194.320000 170.950000 194.310000 C 171.660000 194.250000 172.370000 194.180000 173.080000 194.110000 C 173.150000 194.100000 173.230000 194.090000 173.300000 194.090000 C 176.480000 193.760000 179.660000 193.360000 182.820000 192.860000 C 182.880000 192.850000 182.940000 192.850000 183.000000 192.840000 C 183.740000 192.720000 184.470000 192.600000 185.200000 192.480000 C 185.260000 192.470000 185.320000 192.460000 185.380000 192.450000 C 188.550000 191.900000 191.690000 191.270000 194.790000 190.540000 C 194.800000 190.530000 194.800000 190.530000 194.810000 190.530000 C 195.570000 190.350000 196.330000 190.160000 197.080000 189.970000 C 197.110000 189.960000 197.150000 189.950000 197.180000 189.940000 C 201.040000 188.960000 204.820000 187.800000 208.480000 186.470000 C 208.480000 186.470000 208.480000 186.470000 208.480000 186.460000 C 232.750000 177.600000 251.870000 160.680000 254.890000 129.920000 C 244.060000 126.270000 232.630000 126.100000 225.570000 133.410000 C 210.840000 142.790000 188.480000 169.720000 171.920000 175.160000 C 161.560000 178.560000 148.980000 178.140000 140.970000 186.990000 C 138.340000 189.900000 136.570000 192.520000 135.520000 194.890000 L 135.520000 194.890000 C 135.530000 194.890000 135.550000 194.890000 135.570000 194.890000 C 137.740000 195.000000 139.960000 195.080000 142.210000 195.140000 C 142.270000 195.140000 142.330000 195.140000 142.390000 195.140000 C 143.060000 195.160000 143.730000 195.180000 144.410000 195.190000 C 144.520000 195.190000 144.630000 195.190000 144.740000 195.190000 C 145.380000 195.210000 146.040000 195.220000 146.690000 195.220000 C 146.790000 195.220000 146.890000 195.220000 146.990000 195.220000 C 147.720000 195.230000 148.460000 195.240000 149.200000 195.240000 C 149.210000 195.240000 149.210000 195.240000 149.210000 195.240000 C 150.770000 195.240000 152.340000 195.230000 153.920000 195.200000 C 153.940000 195.200000 153.960000 195.200000 153.990000 195.200000 C 154.720000 195.190000 155.460000 195.170000 156.190000 195.150000 Z"/><path fill="rgb(254, 223, 167)" d=" M 206.260000 52.380000 C 205.230000 64.410000 205.850000 81.900000 216.060000 91.660000 C 230.330000 105.310000 246.380000 75.510000 252.760000 53.060000 L 252.760000 52.840000 L 252.760000 52.840000 C 252.760000 52.840000 252.420000 52.670000 251.840000 52.400000 C 251.820000 52.400000 251.800000 52.390000 251.790000 52.380000 C 251.670000 52.330000 251.550000 52.270000 251.410000 52.210000 C 251.400000 52.210000 251.380000 52.200000 251.370000 52.190000 C 251.150000 52.100000 250.900000 51.990000 250.630000 51.880000 C 250.520000 51.830000 250.410000 51.780000 250.280000 51.730000 C 250.170000 51.680000 250.060000 51.640000 249.940000 51.590000 C 249.760000 51.510000 249.570000 51.430000 249.370000 51.360000 C 249.270000 51.320000 249.180000 51.280000 249.070000 51.240000 C 248.830000 51.140000 248.570000 51.040000 248.300000 50.940000 C 248.200000 50.900000 248.090000 50.860000 247.990000 50.820000 C 247.730000 50.720000 247.470000 50.630000 247.190000 50.530000 C 247.120000 50.500000 247.050000 50.470000 246.970000 50.450000 C 246.620000 50.320000 246.250000 50.190000 245.860000 50.060000 C 245.800000 50.040000 245.730000 50.010000 245.660000 49.990000 C 245.320000 49.870000 244.960000 49.760000 244.600000 49.640000 C 244.530000 49.620000 244.460000 49.600000 244.390000 49.570000 C 243.520000 49.300000 242.610000 49.030000 241.650000 48.770000 C 241.590000 48.750000 241.520000 48.730000 241.450000 48.710000 C 240.470000 48.450000 239.450000 48.190000 238.380000 47.950000 C 238.340000 47.940000 238.300000 47.940000 238.250000 47.930000 C 236.610000 47.560000 234.870000 47.250000 233.070000 47.010000 C 233.060000 47.010000 233.050000 47.000000 233.030000 47.000000 C 231.820000 46.840000 230.580000 46.720000 229.320000 46.640000 C 229.310000 46.640000 229.300000 46.640000 229.290000 46.640000 C 221.680000 46.170000 213.370000 47.360000 206.260000 52.380000 Z"/><path fill="rgb(4, 29, 31)" d=" M 248.080000 88.930000 C 246.590000 93.020000 247.300000 96.320000 248.620000 99.400000 C 248.620000 99.400000 260.640000 102.580000 265.300000 99.610000 L 256.500000 88.700000 L 248.080000 88.930000 Z"/><path fill="rgb(8, 51, 57)" d=" M 251.090000 52.190000 C 251.090000 52.190000 288.030000 59.800000 282.380000 101.590000 C 282.380000 101.590000 274.420000 92.660000 269.190000 92.600000 C 263.960000 92.550000 247.700000 89.370000 247.700000 89.370000 C 247.310000 77.230000 248.350000 64.850000 251.090000 52.190000 Z"/><path fill="rgb(13, 86, 94)" d=" M 259.420000 55.200000 C 256.060000 65.760000 260.520000 88.610000 268.520000 83.020000 C 269.590000 82.280000 271.110000 87.540000 273.180000 93.880000 C 277.710000 96.350000 282.380000 101.590000 282.380000 101.590000 C 286.270000 72.800000 269.950000 60.230000 259.420000 55.200000 Z"/><path fill="rgb(100, 25, 30)" d=" M 233.400000 66.370000 C 235.120000 68.440000 235.830000 72.180000 234.980000 74.730000 C 234.140000 77.280000 232.060000 77.670000 230.340000 75.610000 C 228.620000 73.540000 227.910000 69.800000 228.760000 67.250000 C 229.600000 64.700000 231.680000 64.310000 233.400000 66.370000 Z"/><path fill="rgb(19, 149, 146)" d=" M 179.590000 120.060000 C 158.010000 90.150000 131.380000 30.460000 36.500000 104.830000 C 36.500000 104.830000 42.960000 115.450000 58.670000 108.590000 L 48.600000 115.870000 C 48.600000 115.870000 66.770000 127.050000 79.040000 119.500000 L 68.690000 128.160000 C 68.690000 128.160000 84.100000 142.370000 99.820000 131.930000 C 99.820000 131.930000 157.380000 176.100000 177.050000 155.730000 C 191.540000 140.740000 187.150000 130.540000 179.590000 120.060000 Z"/><path fill="rgb(253, 184, 37)" d=" M 145.780000 90.390000 C 143.510000 88.340000 140.680000 86.240000 137.840000 88.510000 C 134.980000 90.800000 137.590000 95.120000 140.760000 98.710000 C 138.810000 97.490000 136.790000 96.370000 134.670000 95.410000 C 134.350000 95.270000 133.930000 95.490000 133.860000 95.830000 C 132.940000 99.990000 135.340000 103.290000 138.090000 106.220000 C 134.720000 104.190000 131.090000 102.630000 127.200000 101.780000 C 126.900000 101.720000 126.560000 101.950000 126.490000 102.240000 C 125.570000 106.110000 127.150000 109.180000 129.560000 111.750000 C 127.170000 110.730000 124.710000 110.370000 123.090000 112.090000 C 120.750000 114.590000 124.130000 118.620000 126.990000 121.330000 C 123.210000 119.740000 119.210000 118.700000 115.070000 119.090000 C 114.780000 119.120000 114.450000 119.360000 114.460000 119.680000 C 114.620000 124.890000 120.060000 131.060000 125.630000 130.490000 C 126.130000 130.440000 126.530000 129.520000 125.870000 129.580000 C 120.900000 130.090000 115.980000 124.670000 115.480000 119.980000 C 120.510000 119.690000 125.310000 121.470000 129.740000 123.740000 C 130.190000 123.970000 130.870000 123.300000 130.420000 122.930000 C 127.960000 120.900000 122.920000 116.900000 123.530000 113.100000 C 124.180000 109.060000 133.590000 115.260000 134.790000 116.110000 C 135.210000 116.400000 135.930000 115.640000 135.470000 115.310000 C 131.290000 112.310000 126.370000 108.490000 127.320000 102.820000 C 132.610000 104.080000 137.380000 106.640000 141.690000 109.920000 C 142.040000 110.190000 142.780000 109.540000 142.450000 109.190000 C 139.240000 105.720000 134.080000 101.780000 134.680000 96.560000 C 138.950000 98.580000 142.860000 101.120000 146.470000 104.160000 C 146.870000 104.480000 147.590000 103.720000 147.150000 103.360000 C 145.010000 101.650000 143.100000 99.600000 141.350000 97.500000 C 139.900000 95.760000 136.410000 91.660000 138.210000 89.270000 C 141.730000 84.570000 151.680000 98.180000 153.470000 100.720000 C 153.780000 101.150000 154.620000 100.490000 154.310000 100.050000 C 151.840000 96.560000 148.960000 93.250000 145.780000 90.390000 Z"/><path fill="rgb(253, 184, 37)" d=" M 158.810000 112.190000 C 158.540000 112.140000 158.150000 112.350000 158.110000 112.650000 C 157.630000 115.760000 158.570000 118.400000 160.040000 120.840000 C 158.580000 119.670000 156.990000 118.670000 155.200000 117.970000 C 154.900000 117.850000 154.580000 118.190000 154.490000 118.430000 C 152.970000 122.490000 154.710000 126.020000 157.130000 129.150000 C 154.640000 127.430000 152.030000 125.930000 148.980000 125.570000 C 148.630000 125.530000 148.270000 125.780000 148.250000 126.150000 C 148.050000 129.970000 150.520000 132.870000 153.300000 135.350000 C 149.250000 133.560000 144.110000 132.320000 143.640000 137.030000 C 143.020000 143.220000 150.830000 146.210000 155.740000 146.250000 C 156.250000 146.250000 156.650000 145.340000 155.980000 145.340000 C 151.380000 145.310000 145.920000 143.170000 144.670000 138.240000 C 144.110000 136.000000 145.630000 134.720000 147.760000 134.690000 C 151.070000 134.660000 154.400000 136.810000 157.070000 138.510000 C 157.500000 138.780000 158.180000 138.070000 157.750000 137.700000 C 154.330000 134.810000 149.440000 131.490000 149.240000 126.600000 C 153.340000 127.340000 156.650000 130.130000 159.990000 132.480000 C 160.350000 132.730000 161.070000 132.100000 160.740000 131.740000 C 157.560000 128.220000 153.810000 124.080000 155.220000 119.080000 C 158.630000 120.560000 161.310000 123.190000 163.770000 125.930000 C 164.120000 126.330000 164.930000 125.680000 164.600000 125.270000 C 161.800000 121.700000 158.560000 118.010000 158.980000 113.230000 C 164.410000 114.600000 168.340000 120.270000 171.270000 124.670000 C 171.570000 125.100000 172.410000 124.440000 172.110000 124.000000 C 168.990000 119.320000 164.740000 113.280000 158.810000 112.190000 Z"/></svg>