<?xml version="1.0" standalone="no"?><!DOCTYPE svg PUBLIC "-//W3C//DTD SVG 1.1//EN" "http://www.w3.org/Graphics/SVG/1.1/DTD/svg11.dtd"><svg height="150" width="150" version="1.1" id="Penguin0.svg" xmlns:xlink="http://www.w3.org/1999/xlink" x="0px" y="0px" viewBox="0 0 300 300" enable-background="new 0 0 300 300" xml:space="preserve" xmlns="http://www.w3.org/2000/svg"><defs xmlns="http://www.w3.org/1999/xhtml"><style type="text/css"><![CDATA[
* { border: 0px; margin: 0px; padding: 0px; }
html { background-color: rgb(255, 255, 255); font-family: Verdana, Arial; }
.webgl-content * { position: absolute; width: 100%; height: 100%; user-select: none; }
.webgl-content .logo, .progress { position: absolute; left: 50%; top: 50%; transform: translate(-50%, -50%); }
.webgl-content .logo { background: url("progressLogo.Light.png") center center / contain no-repeat; width: 154px; height: 130px; }
.webgl-content .progress { height: 18px; width: 141px; margin-top: 90px; }
.webgl-content .progress .empty { background: url("progressEmpty.Light.png") right center / cover no-repeat; float: right; width: 100%; height: 100%; display: inline-block; }
.webgl-content .progress .full { background: url("progressFull.Light.png") left center / cover no-repeat; float: left; width: 0%; height: 100%; display: inline-block; }
.webgl-content .logo.Dark { background-image: url("progressLogo.Dark.png"); }
.webgl-content .progress.Dark .empty { background-image: url("progressEmpty.Dark.png"); }
.webgl-content .progress.Dark .full { background-image: url("progressFull.Dark.png"); }
#loading-content { z-index: 10000; position: fixed; width: 100%; height: 100%; left: 0px; top: 0px; overflow: hidden; background: url("background.png"); }
.hud-intro .hud-intro-social .btn-discord, .hud-respawn .hud-respawn-social .btn-discord { background-image: url("//lordz.io/images/discord-icon.png"); }
.hud-intro .hud-intro-social .btn-twitter, .hud-respawn .hud-respawn-social .btn-twitter { background-image: url("//lordz.io/images/twitter-icon.png"); }
.hud-intro .hud-intro-social .btn-facebook, .hud-respawn .hud-respawn-social .btn-facebook { background-image: url("//lordz.io/images/facebook-icon.png"); }
.hud-intro .hud-intro-social .btn-youtube, .hud-respawn .hud-respawn-social .btn-youtube { background-image: url("//lordz.io/images/youtube-icon.png"); }
* { box-sizing: border-box; user-select: none; }
.btn { position: relative; display: inline-block; top: 0px; height: 36px; line-height: 36px; padding: 0px 20px; background: rgb(68, 68, 68); color: rgb(238, 238, 238); border: 0px; font-size: 14px; vertical-align: top; text-align: center; text-decoration: none; text-shadow: rgba(0, 0, 0, 0.4) 0px 1px 0px; box-shadow: rgba(0, 0, 0, 0.2) 0px 2px 10px, rgb(51, 51, 51) 0px 4px 0px; border-radius: 4px; transition: all 0.15s ease-in-out 0s; }
.btn:hover, .btn:active { background-color: rgb(85, 85, 85); color: rgb(255, 255, 255); }
.btn:active { top: 4px; box-shadow: rgba(0, 0, 0, 0.2) 0px 2px 10px !important; }
.btn-green { background-color: rgb(71, 149, 13); box-shadow: rgba(0, 0, 0, 0.2) 0px 2px 10px, rgb(53, 131, 0) 0px 4px 0px; }
.btn-green:hover, .btn-green:active { background-color: rgb(100, 184, 32); }
.btn-red { background-color: rgb(179, 53, 60); box-shadow: rgba(0, 0, 0, 0.2) 0px 2px 10px, rgb(161, 35, 42) 0px 4px 0px; }
.btn-red:hover, .btn-red:active { background-color: rgb(203, 87, 91); }
.btn-blue { background-color: rgb(29, 141, 238); box-shadow: rgba(0, 0, 0, 0.2) 0px 2px 10px, rgb(11, 123, 220) 0px 4px 0px; }
.btn-blue:hover, .btn-blue:active { background-color: rgb(79, 167, 238); }
.btn-purple { background-color: rgb(114, 55, 228); box-shadow: rgba(0, 0, 0, 0.2) 0px 2px 10px, rgb(96, 37, 210) 0px 4px 0px; }
.btn-purple:hover, .btn-purple:active { background-color: rgb(130, 89, 228); }
.btn-twitter { background-color: rgb(27, 149, 224); box-shadow: rgba(0, 0, 0, 0.2) 0px 2px 10px, rgb(9, 131, 206) 0px 4px 0px; }
.btn-twitter:hover, .btn-twitter:active { background-color: rgb(12, 122, 191); }
.btn-facebook { background-color: rgb(66, 103, 178); box-shadow: rgba(0, 0, 0, 0.2) 0px 2px 10px, rgb(48, 85, 160) 0px 4px 0px; }
.btn-facebook:hover, .btn-facebook:active { background-color: rgb(54, 88, 153); }
.btn-google { background-color: rgb(221, 75, 57); box-shadow: rgba(0, 0, 0, 0.2) 0px 2px 10px, rgb(203, 57, 39) 0px 4px 0px; }
.btn-google:hover, .btn-google:active { background-color: rgb(186, 63, 49); }
.btn-discord { background-color: rgb(114, 137, 218); box-shadow: rgba(0, 0, 0, 0.2) 0px 2px 10px, rgb(96, 119, 200) 0px 4px 0px; }
.btn-discord:hover, .btn-discord:active { background-color: rgb(90, 109, 176); }
.btn-youtube { background-color: rgb(229, 45, 39); box-shadow: rgba(0, 0, 0, 0.2) 0px 2px 10px, rgb(211, 27, 21) 0px 4px 0px; }
.btn-youtube:hover, .btn-youtube:active { background-color: rgb(186, 37, 33); }
.hud { position: fixed; top: 0px; left: 0px; bottom: 0px; right: 0px; }
.hud .hud-bottom-left { display: flex; position: absolute; bottom: 20px; left: 20px; flex-direction: column-reverse; }
.hud-intro .hud-intro-corner-bottom-left, .hud-respawn .hud-respawn-corner-bottom-left { position: fixed; bottom: 20px; left: 20px; text-align: left; }
.hud-intro .hud-intro-social, .hud-respawn .hud-respawn-social { width: 240px; line-height: 24px; font-size: 14px; color: rgb(119, 119, 119); }
.hud-intro .hud-intro-social .btn, .hud-respawn .hud-respawn-social .btn { display: block; float: left; margin: 0px 10px 0px 0px; width: 40px; height: 40px; line-height: 40px; background-size: 24px; background-position: center center; background-repeat: no-repeat; }
.hud-intro .hud-intro-more-games { position: relative; bottom: 5px; line-height: 20px; font-size: 14px; color: rgba(255, 255, 255, 0.4); text-shadow: rgba(0, 0, 0, 0.2) 0px 1px 3px; }
.hud-intro .hud-intro-more-games a { display: inline-block; padding: 0px 20px; line-height: 40px; background: rgb(132, 115, 212); color: rgb(238, 238, 238); text-decoration: none; border-radius: 4px; transition: all 0.15s ease-in-out 0s; }
.hud-intro .hud-intro-more-games a:hover, .hud-intro .hud-intro-more-games a:active { background: rgb(103, 90, 166); }
#preroll video { left: 0px; top: 0px; }
.fb_hidden { position: absolute; top: -10000px; z-index: 10001; }
.fb_reposition { overflow: hidden; position: relative; }
.fb_invisible { display: none; }
.fb_reset { background: none; border: 0px; border-spacing: 0px; color: rgb(0, 0, 0); cursor: auto; direction: ltr; font-family: "lucida grande", tahoma, verdana, arial, sans-serif; font-size: 11px; font-style: normal; font-variant: normal; font-weight: normal; letter-spacing: normal; line-height: 1; margin: 0px; overflow: visible; padding: 0px; text-align: left; text-decoration: none; text-indent: 0px; text-shadow: none; text-transform: none; visibility: visible; white-space: normal; word-spacing: normal; }
.fb_animate { animation: 0.3s ease 0s 1 normal forwards running fb_transform; }
.fb_dialog { background: rgba(82, 82, 82, 0.7); position: absolute; top: -10000px; z-index: 10001; }
.fb_dialog_advanced { border-radius: 8px; padding: 10px; }
.fb_dialog_content { background: rgb(255, 255, 255); color: rgb(55, 55, 55); }
.fb_dialog_close_icon { background: url("https://static.xx.fbcdn.net/rsrc.php/v3/yq/r/IE9JII6Z1Ys.png") 0px 0px no-repeat scroll transparent; cursor: pointer; display: block; height: 15px; position: absolute; right: 18px; top: 17px; width: 15px; }
.fb_dialog_mobile .fb_dialog_close_icon { left: 5px; right: auto; top: 5px; }
.fb_dialog_padding { background-color: transparent; position: absolute; width: 1px; z-index: -1; }
.fb_dialog_close_icon:hover { background: url("https://static.xx.fbcdn.net/rsrc.php/v3/yq/r/IE9JII6Z1Ys.png") 0px -15px no-repeat scroll transparent; }
.fb_dialog_close_icon:active { background: url("https://static.xx.fbcdn.net/rsrc.php/v3/yq/r/IE9JII6Z1Ys.png") 0px -30px no-repeat scroll transparent; }
.fb_dialog_iframe { line-height: 0; }
.fb_dialog_content .dialog_title { background: rgb(109, 132, 180); border: 1px solid rgb(54, 88, 153); color: rgb(255, 255, 255); font-size: 14px; font-weight: bold; margin: 0px; }
body.fb_hidden { height: 100%; left: 0px; margin: 0px; overflow: visible; position: absolute; top: -10000px; transform: none; width: 100%; }
.fb_dialog.fb_dialog_mobile.loading { background: url("https://static.xx.fbcdn.net/rsrc.php/v3/ya/r/3rhSv5V8j3o.gif") 50% 50% no-repeat white; min-height: 100%; min-width: 100%; overflow: hidden; position: absolute; top: 0px; z-index: 10001; }
.fb_dialog.fb_dialog_mobile.loading.centered { background: none; height: auto; min-height: initial; min-width: initial; width: auto; }
.fb_dialog.fb_dialog_mobile.loading.centered #fb_dialog_loader_spinner { width: 100%; }
.fb_dialog.fb_dialog_mobile.loading.centered .fb_dialog_content { background: none; }
.loading.centered #fb_dialog_loader_close { clear: both; color: rgb(255, 255, 255); display: block; font-size: 18px; padding-top: 20px; }
#fb-root #fb_dialog_ipad_overlay { background: rgba(0, 0, 0, 0.4); bottom: 0px; left: 0px; min-height: 100%; position: absolute; right: 0px; top: 0px; width: 100%; z-index: 10000; }
#fb-root #fb_dialog_ipad_overlay.hidden { display: none; }
.fb_dialog.fb_dialog_mobile.loading iframe { visibility: hidden; }
.fb_dialog_mobile .fb_dialog_iframe { position: sticky; top: 0px; }
.fb_dialog_content .dialog_header { border-bottom: 1px solid rgb(4, 59, 135); border-top-color: rgb(4, 59, 135); border-right-color: rgb(4, 59, 135); border-left-color: rgb(4, 59, 135); box-shadow: white 0px 1px 1px -1px inset; color: rgb(255, 255, 255); font: bold 14px Helvetica, sans-serif; text-overflow: ellipsis; text-shadow: rgba(0, 30, 84, 0.298) 0px -1px 0px; vertical-align: middle; white-space: nowrap; }
.fb_dialog_content .dialog_header table { height: 43px; width: 100%; }
.fb_dialog_content .dialog_header td.header_left { font-size: 12px; padding-left: 5px; vertical-align: middle; width: 60px; }
.fb_dialog_content .dialog_header td.header_right { font-size: 12px; padding-right: 5px; vertical-align: middle; width: 60px; }
.fb_dialog_content .touchable_button { background-clip: padding-box; border: 1px solid rgb(41, 72, 125); border-radius: 3px; display: inline-block; line-height: 18px; margin-top: 3px; max-width: 85px; padding: 4px 12px; position: relative; }
.fb_dialog_content .dialog_header .touchable_button input { background: none; border: none; color: rgb(255, 255, 255); font: bold 12px Helvetica, sans-serif; margin: 2px -12px; padding: 2px 6px 3px; text-shadow: rgba(0, 30, 84, 0.298) 0px -1px 0px; }
.fb_dialog_content .dialog_header .header_center { color: rgb(255, 255, 255); font-size: 16px; font-weight: bold; line-height: 18px; text-align: center; vertical-align: middle; }
.fb_dialog_content .dialog_content { background: url("https://static.xx.fbcdn.net/rsrc.php/v3/y9/r/jKEcVPZFk-2.gif") 50% 50% no-repeat; border-width: 0px 1px; border-right-style: solid; border-left-style: solid; border-right-color: rgb(74, 74, 74); border-left-color: rgb(74, 74, 74); border-image: initial; border-bottom-style: initial; border-bottom-color: initial; border-top-style: initial; border-top-color: initial; height: 150px; }
.fb_dialog_content .dialog_footer { background: rgb(245, 246, 247); border-width: 1px; border-style: solid; border-color: rgb(204, 204, 204) rgb(74, 74, 74) rgb(74, 74, 74); border-image: initial; height: 40px; }
#fb_dialog_loader_close { float: left; }
.fb_dialog.fb_dialog_mobile .fb_dialog_close_button { text-shadow: rgba(0, 30, 84, 0.298) 0px -1px 0px; }
.fb_dialog.fb_dialog_mobile .fb_dialog_close_icon { visibility: hidden; }
#fb_dialog_loader_spinner { animation: 1.2s linear 0s infinite normal none running rotateSpinner; background-color: transparent; background-image: url("https://static.xx.fbcdn.net/rsrc.php/v3/yD/r/t-wz8gw1xG1.png"); background-position: 50% 50%; background-repeat: no-repeat; height: 24px; width: 24px; }
.fb_iframe_widget { display: inline-block; position: relative; }
.fb_iframe_widget span { display: inline-block; position: relative; text-align: justify; }
.fb_iframe_widget iframe { position: absolute; }
.fb_iframe_widget_fluid_desktop, .fb_iframe_widget_fluid_desktop span, .fb_iframe_widget_fluid_desktop iframe { max-width: 100%; }
.fb_iframe_widget_fluid_desktop iframe { min-width: 220px; position: relative; }
.fb_iframe_widget_lift { z-index: 1; }
.fb_iframe_widget_fluid { display: inline; }
.fb_iframe_widget_fluid span { width: 100%; }
.st0 { fill: rgb(119, 183, 73); }
.st1 { fill: rgb(247, 175, 47); }
.st2 { fill: rgb(233, 81, 15); }
.st3 { fill: url("#SVGID_1_"); }
.st4 { fill: url("#SVGID_2_"); }
.st5 { fill: rgb(252, 242, 119); }
.st6 { fill: url("#SVGID_3_"); }
.st7 { fill: url("#SVGID_4_"); }
.st8 { fill: url("#SVGID_5_"); }
.st9 { fill: url("#SVGID_6_"); }
.st10 { fill: url("#SVGID_7_"); }
.st11 { fill: url("#SVGID_8_"); }
.st12 { fill: url("#SVGID_9_"); }
.st13 { fill: url("#SVGID_10_"); }
.st14 { fill: url("#SVGID_11_"); }
.st15 { fill: url("#SVGID_12_"); }
.st16 { fill: url("#SVGID_13_"); }
.st17 { fill: url("#SVGID_14_"); }
.st18 { fill: url("#SVGID_15_"); }
.st19 { fill: url("#SVGID_16_"); }
.st0 { fill: rgb(119, 183, 73); }
.st1 { fill: rgb(247, 175, 47); }
.st2 { fill: rgb(233, 81, 15); }
.st3 { fill: url("#SVGID_1_"); }
.st4 { fill: url("#SVGID_2_"); }
.st5 { fill: rgb(252, 242, 119); }
.st6 { fill: url("#SVGID_3_"); }
.st7 { fill: url("#SVGID_4_"); }
.st8 { fill: url("#SVGID_5_"); }
.st9 { fill: url("#SVGID_6_"); }
.st10 { fill: url("#SVGID_7_"); }
.st11 { fill: url("#SVGID_8_"); }
.st12 { fill: url("#SVGID_9_"); }
.st13 { fill: url("#SVGID_10_"); }
.st14 { fill: url("#SVGID_11_"); }
.st15 { fill: url("#SVGID_12_"); }
.st16 { fill: url("#SVGID_13_"); }
.st17 { fill: url("#SVGID_14_"); }
.st18 { fill: url("#SVGID_15_"); }
.st19 { fill: url("#SVGID_16_"); }
.st0 { fill: rgb(119, 183, 73); }
.st1 { fill: rgb(247, 175, 47); }
.st2 { fill: rgb(233, 81, 15); }
.st3 { fill: url("#SVGID_1_"); }
.st4 { fill: url("#SVGID_2_"); }
.st5 { fill: rgb(252, 242, 119); }
.st6 { fill: url("#SVGID_3_"); }
.st7 { fill: url("#SVGID_4_"); }
.st8 { fill: url("#SVGID_5_"); }
.st9 { fill: url("#SVGID_6_"); }
.st10 { fill: url("#SVGID_7_"); }
.st11 { fill: url("#SVGID_8_"); }
.st12 { fill: url("#SVGID_9_"); }
.st13 { fill: url("#SVGID_10_"); }
.st14 { fill: url("#SVGID_11_"); }
.st15 { fill: url("#SVGID_12_"); }
.st16 { fill: url("#SVGID_13_"); }
.st17 { fill: url("#SVGID_14_"); }
.st18 { fill: url("#SVGID_15_"); }
.st19 { fill: url("#SVGID_16_"); }
.st0 { fill: rgb(119, 183, 73); }
.st1 { fill: rgb(247, 175, 47); }
.st2 { fill: rgb(233, 81, 15); }
.st3 { fill: url("#SVGID_1_"); }
.st4 { fill: url("#SVGID_2_"); }
.st5 { fill: rgb(252, 242, 119); }
.st6 { fill: url("#SVGID_3_"); }
.st7 { fill: url("#SVGID_4_"); }
.st8 { fill: url("#SVGID_5_"); }
.st9 { fill: url("#SVGID_6_"); }
.st10 { fill: url("#SVGID_7_"); }
.st11 { fill: url("#SVGID_8_"); }
.st12 { fill: url("#SVGID_9_"); }
.st13 { fill: url("#SVGID_10_"); }
.st14 { fill: url("#SVGID_11_"); }
.st15 { fill: url("#SVGID_12_"); }
.st16 { fill: url("#SVGID_13_"); }
.st17 { fill: url("#SVGID_14_"); }
.st18 { fill: url("#SVGID_15_"); }
.st19 { fill: url("#SVGID_16_"); }]]></style></defs><g>	<path fill="#FF5171" d="M116.3,22.3c-0.1,0-0.1,0-0.2,0c-0.5-1.2-1.2-2.3-2.1-3.3c-1.3-1.4-2.8-2.7-4.7-3.2c0.5,1.9,1,3.5,1.5,5.1&#9;&#9;l0.7,2.3c-0.2,0.1-0.3,0.1-0.5,0.2c-1.1-1.4-2.4-2.6-4-3.4c-1.7-0.9-3.7-1.3-5.7-0.9c1.3,1.5,2.4,2.7,3.4,3.9&#9;&#9;c0.8,0.9,1.5,1.9,2.1,2.8c0,0,0,0,0,0c-0.4-0.3-0.7-0.7-1.1-0.9c-1.3-0.9-2.9-1.5-4.5-1.7c-1.6-0.2-3.3-0.1-4.8,0.7&#9;&#9;c1.3,1.2,2.4,2,3.5,2.8c1.1,0.8,2.1,1.5,3.2,2.2c0.2,0.1,0.4,0.3,0.6,0.4c-1.6,2.4-2.5,5.3-2.5,8.3c0,8.4,6.8,15.2,15.2,15.2&#9;&#9;c8.4,0,15.2-6.8,15.2-15.2S124.7,22.3,116.3,22.3z"/>	<g>		<path fill="#4A3F6F" d="M178.1,173.6c0,0,30,77.5,44.6,70c11.3-5.8-20.9-108.8-20.9-108.8"/>		<path fill="#097E8F" d="M178.1,173.6c3.3,7.6,6.7,15.1,10.4,22.6c3.6,7.5,7.3,14.8,11.3,22c2,3.6,4.1,7.1,6.4,10.5&#9;&#9;&#9;c2.3,3.4,4.7,6.7,7.4,9.6c1.4,1.4,2.9,2.7,4.5,3.6c0.8,0.4,1.6,0.7,2.3,0.7c0.4,0,0.7,0,1.1-0.1c0.2,0,0.3-0.1,0.5-0.2&#9;&#9;&#9;c0.2-0.1,0.2-0.1,0.3-0.2c0.4-0.3,0.7-1.1,0.9-2c0.2-0.9,0.3-1.8,0.4-2.8c0.1-2,0-4-0.1-6c-0.6-8.1-2.1-16.3-3.8-24.3&#9;&#9;&#9;c-1.6-8.1-3.5-16.1-5.5-24.2c-2-8-4-16.1-6.1-24.1c-2-8-4.2-16-6.3-24c5.4,15.7,10.4,31.5,14.7,47.5c2.2,8,4.2,16.1,6,24.2&#9;&#9;&#9;c0.9,4.1,1.7,8.1,2.4,12.3c0.7,4.1,1.3,8.2,1.6,12.5c0.1,2.1,0.2,4.2,0.1,6.4c-0.1,1.1-0.2,2.2-0.5,3.3c-0.3,1.1-0.7,2.4-1.8,3.5&#9;&#9;&#9;c-0.3,0.3-0.7,0.5-1,0.7c-0.3,0.1-0.6,0.3-1,0.4c-0.7,0.2-1.4,0.3-2,0.2c-1.3-0.1-2.5-0.5-3.5-1.1c-2.1-1.1-3.7-2.6-5.2-4.2&#9;&#9;&#9;c-2.9-3.2-5.3-6.6-7.6-10.1c-2.2-3.5-4.3-7.2-6.2-10.9C190,204.5,183.6,189.2,178.1,173.6z"/>	</g>	<path fill="#FFB846" d="M108.5,256.6c0,0-57.1,27.2-54.8,28.7c2.3,1.6,15.5-2.7,15.5-2.7s-10.9,4.7-8.9,6.6&#9;&#9;c1.9,1.9,17.9-3.9,17.9-3.9s-11.3,6.6-8.9,8.5c2.3,1.9,66-24.5,66-24.5L108.5,256.6z"/>	<path fill="#FFB846" d="M191.5,256.6c0,0,57.1,27.2,54.8,28.7c-2.3,1.6-15.5-2.7-15.5-2.7s10.9,4.7,8.9,6.6&#9;&#9;c-1.9,1.9-17.9-3.9-17.9-3.9s11.3,6.6,8.9,8.5c-2.3,1.9-66-24.5-66-24.5L191.5,256.6z"/>	<path fill="#4A3F6F" d="M91.4,268.2c0,0,44.5,17,114-4.2l-2.9-125.5c0,0,2.7-99.2-59.2-89.1S88.5,185.1,91.4,268.2z"/>	<g>		<path fill="#4A3F6F" d="M94.3,154.8c0,0-37,83.1-22.3,90.7c12.3,6.4,61.2-77.6,61.2-77.6"/>		<path fill="#097E8F" d="M94.3,154.8c-3,7.7-6,15.3-8.7,23c-2.8,7.7-5.5,15.5-8,23.3c-2.4,7.8-4.7,15.7-6.3,23.6&#9;&#9;&#9;c-0.8,4-1.4,8-1.3,11.9c0,1.9,0.3,3.9,0.9,5.5c0.3,0.8,0.8,1.4,1.3,1.8c0.1,0.1,0.3,0.2,0.4,0.3c0.1,0.1,0.2,0.1,0.4,0.1&#9;&#9;&#9;c0.3,0.1,0.6,0.1,1,0c1.5-0.3,3.2-1.4,4.7-2.6c1.5-1.2,3-2.6,4.4-4c2.8-2.9,5.5-6,8-9.1c5.1-6.3,9.9-13,14.7-19.7&#9;&#9;&#9;c4.7-6.7,9.3-13.5,13.8-20.4c4.6-6.8,9-13.7,13.4-20.7c-7.9,14.4-16.2,28.6-25.3,42.3c-4.5,6.9-9.3,13.6-14.4,20.1&#9;&#9;&#9;c-2.6,3.3-5.2,6.4-8.2,9.4c-1.5,1.5-3,3-4.7,4.3c-0.8,0.7-1.7,1.3-2.7,1.9c-1,0.6-2,1.1-3.3,1.3c-0.6,0.1-1.4,0.2-2.1,0&#9;&#9;&#9;c-0.4-0.1-0.7-0.2-1.1-0.4c-0.3-0.2-0.6-0.3-0.9-0.5c-1.1-0.8-1.9-1.9-2.3-3c-0.9-2.2-1.1-4.5-1.1-6.6c0-4.3,0.6-8.4,1.5-12.5&#9;&#9;&#9;c1.7-8.1,4.1-16,6.8-23.8C80.7,184.8,87.2,169.6,94.3,154.8z"/>	</g>	<path fill="#097E8F" d="M188.6,268.4c0-3.5-0.1-7-0.2-10.4c-0.3-9.4-1-18.8-2.2-28.1c-1.3-9.3-2.9-18.5-6.3-27.3&#9;&#9;c-1.7-4.3-3.7-8.6-6.8-12.2c-1.5-1.8-3.3-3.4-5.4-4.7c-2.1-1.2-4.6-1.9-7.1-2c-5.1-0.2-10.2,2.1-14,5.5c-3.8,3.4-6.7,7.7-9,12&#9;&#9;c-4.6,8.8-7.5,18.1-9.8,27.5c-2.3,9.4-3.9,18.8-5.1,28.3c-0.7,5.7-1.3,11.3-1.7,17C137.7,275.4,160.7,275,188.6,268.4z"/>	<path fill="#FFB846" d="M231.6,100.2c-0.3-4-79.7,10.8-77.8,17.1c0.8,2.8,80.1,3.6,79.8-3.6c-0.1-3.5-58.8,0.3-58.8,0.3&#9;&#9;S231.9,104.6,231.6,100.2z"/>	<g>		<path fill="#FFFFFF" d="M154.6,90.4c0.8,1.1,1.2,2.2,1.6,3.4c0.4,1.1,0.6,2.3,0.7,3.5c0.1,1.2,0.2,2.4,0.1,3.6&#9;&#9;&#9;c-0.1,1.2-0.3,2.4-0.8,3.7c-0.8-1.1-1.2-2.2-1.6-3.4c-0.4-1.1-0.6-2.3-0.7-3.5c-0.1-1.2-0.2-2.4-0.1-3.6&#9;&#9;&#9;C153.9,92.8,154.1,91.6,154.6,90.4z"/>	</g>	<g>		<path fill="#FFFFFF" d="M186.3,85.3c0.8,1.1,1.2,2.2,1.6,3.4c0.4,1.1,0.6,2.3,0.7,3.5c0.1,1.2,0.2,2.4,0.1,3.6&#9;&#9;&#9;c-0.1,1.2-0.3,2.4-0.8,3.7c-0.8-1.1-1.2-2.2-1.6-3.4c-0.4-1.1-0.6-2.3-0.7-3.5c-0.1-1.2-0.2-2.4-0.1-3.6&#9;&#9;&#9;C185.6,87.8,185.8,86.6,186.3,85.3z"/>	</g>	<path fill="#FF5171" d="M98.8,74.2c0,0-0.6,60.9,15.2,60.9s18.6-51.9,18.6-51.9s55.2-5.6,58.1-7.9c2.8-2.3-18.6-32.7-28.8-34.4&#9;&#9;C151.8,39.2,100.5,31.3,98.8,74.2z"/>	<path fill="#FDF9FF" d="M100.5,104.4c9.6-3,19.9-5.6,30.9-7.9c0.4-2.9,0.6-5.5,0.8-7.6c-11.5,2.3-22.3,5-32.4,8.1&#9;&#9;C99.9,99.4,100.2,101.9,100.5,104.4z M167.5,43.7c-2-1.5-4-2.5-5.6-2.8c-1.9-0.3-5.1-0.8-9.2-1.2c-5.8,1.4-11.5,2.9-17.2,4.6&#9;&#9;c-11,3.2-21.2,6.6-30.9,10.4c-1.9,2.7-3.4,5.9-4.4,9.6c11.4-4.8,23.7-9.2,37.2-13C147.4,48.4,157.4,45.9,167.5,43.7z M179.9,56.3&#9;&#9;c-1.8-2.2-3.6-4.4-5.5-6.3c-11.4,2.1-22.8,4.5-34,7.4c-15,3.8-28.7,8.3-41.3,13.3c-0.1,1.1-0.2,2.3-0.3,3.5c0,0,0,1.7,0,4.4&#9;&#9;c13.1-5.5,27.4-10.2,43.4-14.2C154.6,61.2,167.3,58.6,179.9,56.3z M102.8,118.4c8.1-2.3,16.7-4.4,25.7-6.2c0.6-2.5,1.1-5.1,1.5-7.7&#9;&#9;c-10.1,1.9-19.6,4.1-28.7,6.7C101.8,113.7,102.3,116.1,102.8,118.4z M185.5,63.8c-15.1,2.1-30.3,4.5-45.3,7.7&#9;&#9;c-15,3.2-28.6,7.1-41.3,11.6c0.1,2.3,0.2,4.8,0.3,7.6c12.9-4.8,27-8.8,42.5-12.2c15.7-3.4,31.8-5.9,47.8-8&#9;&#9;C188.6,68.7,187.2,66.3,185.5,63.8z"/>	<g>		<path fill="#097E8F" d="M102.6,232.3c0.1,1.7,0.1,3.5,0.1,5.2c0,1.7-0.2,3.4-0.3,5.1c-0.2,1.7-0.4,3.4-0.7,5.1&#9;&#9;&#9;c-0.3,1.7-0.6,3.4-1.1,5.1c-0.1-1.7-0.1-3.5-0.1-5.2c0-1.7,0.2-3.4,0.3-5.1c0.2-1.7,0.4-3.4,0.7-5.1&#9;&#9;&#9;C101.8,235.7,102.1,234,102.6,232.3z"/>	</g>	<g>		<path fill="#097E8F" d="M115.1,218.4c0.1,1.5,0,3.1-0.1,4.6c-0.1,1.5-0.3,3-0.5,4.5c-0.2,1.5-0.5,3-0.8,4.5&#9;&#9;&#9;c-0.3,1.5-0.7,3-1.2,4.4c-0.1-1.5,0-3.1,0.1-4.6c0.1-1.5,0.3-3,0.5-4.5c0.2-1.5,0.5-3,0.8-4.5&#9;&#9;&#9;C114.2,221.3,114.6,219.8,115.1,218.4z"/>	</g>	<g>		<path fill="#097E8F" d="M112.1,252.3c0.3,1.1,0.4,2.1,0.5,3.1c0.1,1,0.1,2.1,0,3.1c0,1-0.1,2.1-0.3,3.1c-0.2,1-0.4,2.1-0.7,3.1&#9;&#9;&#9;c-0.3-1.1-0.4-2.1-0.5-3.1c-0.1-1-0.1-2.1,0-3.1c0-1,0.1-2.1,0.3-3.1C111.6,254.4,111.8,253.3,112.1,252.3z"/>	</g></g></svg>