<?xml version="1.0" standalone="no"?><!DOCTYPE svg PUBLIC "-//W3C//DTD SVG 1.1//EN" "http://www.w3.org/Graphics/SVG/1.1/DTD/svg11.dtd"><svg height="300" width="300" version="1.1" id="Polarbear0.svg" xmlns:xlink="http://www.w3.org/1999/xlink" x="0px" y="0px" viewBox="0 0 300 300" enable-background="new 0 0 300 300" xml:space="preserve" xmlns="http://www.w3.org/2000/svg"><defs xmlns="http://www.w3.org/1999/xhtml"><style type="text/css"><![CDATA[
* { border: 0px; margin: 0px; padding: 0px; }
html { background-color: rgb(255, 255, 255); font-family: Verdana, Arial; }
.webgl-content * { position: absolute; width: 100%; height: 100%; user-select: none; }
.webgl-content .logo, .progress { position: absolute; left: 50%; top: 50%; transform: translate(-50%, -50%); }
.webgl-content .logo { background: url("progressLogo.Light.png") center center / contain no-repeat; width: 154px; height: 130px; }
.webgl-content .progress { height: 18px; width: 141px; margin-top: 90px; }
.webgl-content .progress .empty { background: url("progressEmpty.Light.png") right center / cover no-repeat; float: right; width: 100%; height: 100%; display: inline-block; }
.webgl-content .progress .full { background: url("progressFull.Light.png") left center / cover no-repeat; float: left; width: 0%; height: 100%; display: inline-block; }
.webgl-content .logo.Dark { background-image: url("progressLogo.Dark.png"); }
.webgl-content .progress.Dark .empty { background-image: url("progressEmpty.Dark.png"); }
.webgl-content .progress.Dark .full { background-image: url("progressFull.Dark.png"); }
#loading-content { z-index: 10000; position: fixed; width: 100%; height: 100%; left: 0px; top: 0px; overflow: hidden; background: url("background.png"); }
.hud-intro .hud-intro-social .btn-discord, .hud-respawn .hud-respawn-social .btn-discord { background-image: url("//lordz.io/images/discord-icon.png"); }
.hud-intro .hud-intro-social .btn-twitter, .hud-respawn .hud-respawn-social .btn-twitter { background-image: url("//lordz.io/images/twitter-icon.png"); }
.hud-intro .hud-intro-social .btn-facebook, .hud-respawn .hud-respawn-social .btn-facebook { background-image: url("//lordz.io/images/facebook-icon.png"); }
.hud-intro .hud-intro-social .btn-youtube, .hud-respawn .hud-respawn-social .btn-youtube { background-image: url("//lordz.io/images/youtube-icon.png"); }
* { box-sizing: border-box; user-select: none; }
.btn { position: relative; display: inline-block; top: 0px; height: 36px; line-height: 36px; padding: 0px 20px; background: rgb(68, 68, 68); color: rgb(238, 238, 238); border: 0px; font-size: 14px; vertical-align: top; text-align: center; text-decoration: none; text-shadow: rgba(0, 0, 0, 0.4) 0px 1px 0px; box-shadow: rgba(0, 0, 0, 0.2) 0px 2px 10px, rgb(51, 51, 51) 0px 4px 0px; border-radius: 4px; transition: all 0.15s ease-in-out 0s; }
.btn:hover, .btn:active { background-color: rgb(85, 85, 85); color: rgb(255, 255, 255); }
.btn:active { top: 4px; box-shadow: rgba(0, 0, 0, 0.2) 0px 2px 10px !important; }
.btn-green { background-color: rgb(71, 149, 13); box-shadow: rgba(0, 0, 0, 0.2) 0px 2px 10px, rgb(53, 131, 0) 0px 4px 0px; }
.btn-green:hover, .btn-green:active { background-color: rgb(100, 184, 32); }
.btn-red { background-color: rgb(179, 53, 60); box-shadow: rgba(0, 0, 0, 0.2) 0px 2px 10px, rgb(161, 35, 42) 0px 4px 0px; }
.btn-red:hover, .btn-red:active { background-color: rgb(203, 87, 91); }
.btn-blue { background-color: rgb(29, 141, 238); box-shadow: rgba(0, 0, 0, 0.2) 0px 2px 10px, rgb(11, 123, 220) 0px 4px 0px; }
.btn-blue:hover, .btn-blue:active { background-color: rgb(79, 167, 238); }
.btn-purple { background-color: rgb(114, 55, 228); box-shadow: rgba(0, 0, 0, 0.2) 0px 2px 10px, rgb(96, 37, 210) 0px 4px 0px; }
.btn-purple:hover, .btn-purple:active { background-color: rgb(130, 89, 228); }
.btn-twitter { background-color: rgb(27, 149, 224); box-shadow: rgba(0, 0, 0, 0.2) 0px 2px 10px, rgb(9, 131, 206) 0px 4px 0px; }
.btn-twitter:hover, .btn-twitter:active { background-color: rgb(12, 122, 191); }
.btn-facebook { background-color: rgb(66, 103, 178); box-shadow: rgba(0, 0, 0, 0.2) 0px 2px 10px, rgb(48, 85, 160) 0px 4px 0px; }
.btn-facebook:hover, .btn-facebook:active { background-color: rgb(54, 88, 153); }
.btn-google { background-color: rgb(221, 75, 57); box-shadow: rgba(0, 0, 0, 0.2) 0px 2px 10px, rgb(203, 57, 39) 0px 4px 0px; }
.btn-google:hover, .btn-google:active { background-color: rgb(186, 63, 49); }
.btn-discord { background-color: rgb(114, 137, 218); box-shadow: rgba(0, 0, 0, 0.2) 0px 2px 10px, rgb(96, 119, 200) 0px 4px 0px; }
.btn-discord:hover, .btn-discord:active { background-color: rgb(90, 109, 176); }
.btn-youtube { background-color: rgb(229, 45, 39); box-shadow: rgba(0, 0, 0, 0.2) 0px 2px 10px, rgb(211, 27, 21) 0px 4px 0px; }
.btn-youtube:hover, .btn-youtube:active { background-color: rgb(186, 37, 33); }
.hud { position: fixed; top: 0px; left: 0px; bottom: 0px; right: 0px; }
.hud .hud-bottom-left { display: flex; position: absolute; bottom: 20px; left: 20px; flex-direction: column-reverse; }
.hud-intro .hud-intro-corner-bottom-left, .hud-respawn .hud-respawn-corner-bottom-left { position: fixed; bottom: 20px; left: 20px; text-align: left; }
.hud-intro .hud-intro-social, .hud-respawn .hud-respawn-social { width: 240px; line-height: 24px; font-size: 14px; color: rgb(119, 119, 119); }
.hud-intro .hud-intro-social .btn, .hud-respawn .hud-respawn-social .btn { display: block; float: left; margin: 0px 10px 0px 0px; width: 40px; height: 40px; line-height: 40px; background-size: 24px; background-position: center center; background-repeat: no-repeat; }
.hud-intro .hud-intro-more-games { position: relative; bottom: 5px; line-height: 20px; font-size: 14px; color: rgba(255, 255, 255, 0.4); text-shadow: rgba(0, 0, 0, 0.2) 0px 1px 3px; }
.hud-intro .hud-intro-more-games a { display: inline-block; padding: 0px 20px; line-height: 40px; background: rgb(132, 115, 212); color: rgb(238, 238, 238); text-decoration: none; border-radius: 4px; transition: all 0.15s ease-in-out 0s; }
.hud-intro .hud-intro-more-games a:hover, .hud-intro .hud-intro-more-games a:active { background: rgb(103, 90, 166); }
#preroll video { left: 0px; top: 0px; }
.fb_hidden { position: absolute; top: -10000px; z-index: 10001; }
.fb_reposition { overflow: hidden; position: relative; }
.fb_invisible { display: none; }
.fb_reset { background: none; border: 0px; border-spacing: 0px; color: rgb(0, 0, 0); cursor: auto; direction: ltr; font-family: "lucida grande", tahoma, verdana, arial, sans-serif; font-size: 11px; font-style: normal; font-variant: normal; font-weight: normal; letter-spacing: normal; line-height: 1; margin: 0px; overflow: visible; padding: 0px; text-align: left; text-decoration: none; text-indent: 0px; text-shadow: none; text-transform: none; visibility: visible; white-space: normal; word-spacing: normal; }
.fb_animate { animation: 0.3s ease 0s 1 normal forwards running fb_transform; }
.fb_dialog { background: rgba(82, 82, 82, 0.7); position: absolute; top: -10000px; z-index: 10001; }
.fb_dialog_advanced { border-radius: 8px; padding: 10px; }
.fb_dialog_content { background: rgb(255, 255, 255); color: rgb(55, 55, 55); }
.fb_dialog_close_icon { background: url("https://static.xx.fbcdn.net/rsrc.php/v3/yq/r/IE9JII6Z1Ys.png") 0px 0px no-repeat scroll transparent; cursor: pointer; display: block; height: 15px; position: absolute; right: 18px; top: 17px; width: 15px; }
.fb_dialog_mobile .fb_dialog_close_icon { left: 5px; right: auto; top: 5px; }
.fb_dialog_padding { background-color: transparent; position: absolute; width: 1px; z-index: -1; }
.fb_dialog_close_icon:hover { background: url("https://static.xx.fbcdn.net/rsrc.php/v3/yq/r/IE9JII6Z1Ys.png") 0px -15px no-repeat scroll transparent; }
.fb_dialog_close_icon:active { background: url("https://static.xx.fbcdn.net/rsrc.php/v3/yq/r/IE9JII6Z1Ys.png") 0px -30px no-repeat scroll transparent; }
.fb_dialog_iframe { line-height: 0; }
.fb_dialog_content .dialog_title { background: rgb(109, 132, 180); border: 1px solid rgb(54, 88, 153); color: rgb(255, 255, 255); font-size: 14px; font-weight: bold; margin: 0px; }
body.fb_hidden { height: 100%; left: 0px; margin: 0px; overflow: visible; position: absolute; top: -10000px; transform: none; width: 100%; }
.fb_dialog.fb_dialog_mobile.loading { background: url("https://static.xx.fbcdn.net/rsrc.php/v3/ya/r/3rhSv5V8j3o.gif") 50% 50% no-repeat white; min-height: 100%; min-width: 100%; overflow: hidden; position: absolute; top: 0px; z-index: 10001; }
.fb_dialog.fb_dialog_mobile.loading.centered { background: none; height: auto; min-height: initial; min-width: initial; width: auto; }
.fb_dialog.fb_dialog_mobile.loading.centered #fb_dialog_loader_spinner { width: 100%; }
.fb_dialog.fb_dialog_mobile.loading.centered .fb_dialog_content { background: none; }
.loading.centered #fb_dialog_loader_close { clear: both; color: rgb(255, 255, 255); display: block; font-size: 18px; padding-top: 20px; }
#fb-root #fb_dialog_ipad_overlay { background: rgba(0, 0, 0, 0.4); bottom: 0px; left: 0px; min-height: 100%; position: absolute; right: 0px; top: 0px; width: 100%; z-index: 10000; }
#fb-root #fb_dialog_ipad_overlay.hidden { display: none; }
.fb_dialog.fb_dialog_mobile.loading iframe { visibility: hidden; }
.fb_dialog_mobile .fb_dialog_iframe { position: sticky; top: 0px; }
.fb_dialog_content .dialog_header { border-bottom: 1px solid rgb(4, 59, 135); border-top-color: rgb(4, 59, 135); border-right-color: rgb(4, 59, 135); border-left-color: rgb(4, 59, 135); box-shadow: white 0px 1px 1px -1px inset; color: rgb(255, 255, 255); font: bold 14px Helvetica, sans-serif; text-overflow: ellipsis; text-shadow: rgba(0, 30, 84, 0.298) 0px -1px 0px; vertical-align: middle; white-space: nowrap; }
.fb_dialog_content .dialog_header table { height: 43px; width: 100%; }
.fb_dialog_content .dialog_header td.header_left { font-size: 12px; padding-left: 5px; vertical-align: middle; width: 60px; }
.fb_dialog_content .dialog_header td.header_right { font-size: 12px; padding-right: 5px; vertical-align: middle; width: 60px; }
.fb_dialog_content .touchable_button { background-clip: padding-box; border: 1px solid rgb(41, 72, 125); border-radius: 3px; display: inline-block; line-height: 18px; margin-top: 3px; max-width: 85px; padding: 4px 12px; position: relative; }
.fb_dialog_content .dialog_header .touchable_button input { background: none; border: none; color: rgb(255, 255, 255); font: bold 12px Helvetica, sans-serif; margin: 2px -12px; padding: 2px 6px 3px; text-shadow: rgba(0, 30, 84, 0.298) 0px -1px 0px; }
.fb_dialog_content .dialog_header .header_center { color: rgb(255, 255, 255); font-size: 16px; font-weight: bold; line-height: 18px; text-align: center; vertical-align: middle; }
.fb_dialog_content .dialog_content { background: url("https://static.xx.fbcdn.net/rsrc.php/v3/y9/r/jKEcVPZFk-2.gif") 50% 50% no-repeat; border-width: 0px 1px; border-right-style: solid; border-left-style: solid; border-right-color: rgb(74, 74, 74); border-left-color: rgb(74, 74, 74); border-image: initial; border-bottom-style: initial; border-bottom-color: initial; border-top-style: initial; border-top-color: initial; height: 150px; }
.fb_dialog_content .dialog_footer { background: rgb(245, 246, 247); border-width: 1px; border-style: solid; border-color: rgb(204, 204, 204) rgb(74, 74, 74) rgb(74, 74, 74); border-image: initial; height: 40px; }
#fb_dialog_loader_close { float: left; }
.fb_dialog.fb_dialog_mobile .fb_dialog_close_button { text-shadow: rgba(0, 30, 84, 0.298) 0px -1px 0px; }
.fb_dialog.fb_dialog_mobile .fb_dialog_close_icon { visibility: hidden; }
#fb_dialog_loader_spinner { animation: 1.2s linear 0s infinite normal none running rotateSpinner; background-color: transparent; background-image: url("https://static.xx.fbcdn.net/rsrc.php/v3/yD/r/t-wz8gw1xG1.png"); background-position: 50% 50%; background-repeat: no-repeat; height: 24px; width: 24px; }
.fb_iframe_widget { display: inline-block; position: relative; }
.fb_iframe_widget span { display: inline-block; position: relative; text-align: justify; }
.fb_iframe_widget iframe { position: absolute; }
.fb_iframe_widget_fluid_desktop, .fb_iframe_widget_fluid_desktop span, .fb_iframe_widget_fluid_desktop iframe { max-width: 100%; }
.fb_iframe_widget_fluid_desktop iframe { min-width: 220px; position: relative; }
.fb_iframe_widget_lift { z-index: 1; }
.fb_iframe_widget_fluid { display: inline; }
.fb_iframe_widget_fluid span { width: 100%; }
.st0 { fill: rgb(119, 183, 73); }
.st1 { fill: rgb(247, 175, 47); }
.st2 { fill: rgb(233, 81, 15); }
.st3 { fill: url("#SVGID_1_"); }
.st4 { fill: url("#SVGID_2_"); }
.st5 { fill: rgb(252, 242, 119); }
.st6 { fill: url("#SVGID_3_"); }
.st7 { fill: url("#SVGID_4_"); }
.st8 { fill: url("#SVGID_5_"); }
.st9 { fill: url("#SVGID_6_"); }
.st10 { fill: url("#SVGID_7_"); }
.st11 { fill: url("#SVGID_8_"); }
.st12 { fill: url("#SVGID_9_"); }
.st13 { fill: url("#SVGID_10_"); }
.st14 { fill: url("#SVGID_11_"); }
.st15 { fill: url("#SVGID_12_"); }
.st16 { fill: url("#SVGID_13_"); }
.st17 { fill: url("#SVGID_14_"); }
.st18 { fill: url("#SVGID_15_"); }
.st19 { fill: url("#SVGID_16_"); }
.st0 { fill: rgb(119, 183, 73); }
.st1 { fill: rgb(247, 175, 47); }
.st2 { fill: rgb(233, 81, 15); }
.st3 { fill: url("#SVGID_1_"); }
.st4 { fill: url("#SVGID_2_"); }
.st5 { fill: rgb(252, 242, 119); }
.st6 { fill: url("#SVGID_3_"); }
.st7 { fill: url("#SVGID_4_"); }
.st8 { fill: url("#SVGID_5_"); }
.st9 { fill: url("#SVGID_6_"); }
.st10 { fill: url("#SVGID_7_"); }
.st11 { fill: url("#SVGID_8_"); }
.st12 { fill: url("#SVGID_9_"); }
.st13 { fill: url("#SVGID_10_"); }
.st14 { fill: url("#SVGID_11_"); }
.st15 { fill: url("#SVGID_12_"); }
.st16 { fill: url("#SVGID_13_"); }
.st17 { fill: url("#SVGID_14_"); }
.st18 { fill: url("#SVGID_15_"); }
.st19 { fill: url("#SVGID_16_"); }
.st0 { fill: rgb(119, 183, 73); }
.st1 { fill: rgb(247, 175, 47); }
.st2 { fill: rgb(233, 81, 15); }
.st3 { fill: url("#SVGID_1_"); }
.st4 { fill: url("#SVGID_2_"); }
.st5 { fill: rgb(252, 242, 119); }
.st6 { fill: url("#SVGID_3_"); }
.st7 { fill: url("#SVGID_4_"); }
.st8 { fill: url("#SVGID_5_"); }
.st9 { fill: url("#SVGID_6_"); }
.st10 { fill: url("#SVGID_7_"); }
.st11 { fill: url("#SVGID_8_"); }
.st12 { fill: url("#SVGID_9_"); }
.st13 { fill: url("#SVGID_10_"); }
.st14 { fill: url("#SVGID_11_"); }
.st15 { fill: url("#SVGID_12_"); }
.st16 { fill: url("#SVGID_13_"); }
.st17 { fill: url("#SVGID_14_"); }
.st18 { fill: url("#SVGID_15_"); }
.st19 { fill: url("#SVGID_16_"); }
.st0 { fill: rgb(119, 183, 73); }
.st1 { fill: rgb(247, 175, 47); }
.st2 { fill: rgb(233, 81, 15); }
.st3 { fill: url("#SVGID_1_"); }
.st4 { fill: url("#SVGID_2_"); }
.st5 { fill: rgb(252, 242, 119); }
.st6 { fill: url("#SVGID_3_"); }
.st7 { fill: url("#SVGID_4_"); }
.st8 { fill: url("#SVGID_5_"); }
.st9 { fill: url("#SVGID_6_"); }
.st10 { fill: url("#SVGID_7_"); }
.st11 { fill: url("#SVGID_8_"); }
.st12 { fill: url("#SVGID_9_"); }
.st13 { fill: url("#SVGID_10_"); }
.st14 { fill: url("#SVGID_11_"); }
.st15 { fill: url("#SVGID_12_"); }
.st16 { fill: url("#SVGID_13_"); }
.st17 { fill: url("#SVGID_14_"); }
.st18 { fill: url("#SVGID_15_"); }
.st19 { fill: url("#SVGID_16_"); }]]></style></defs><g>	<path fill="#017CBF" d="M32.3,172.9c-0.5-5.1-3.5-9.9-7.8-12.5c-0.2,1.9,0.4,3.8,1.6,5.3c-4-2.7-10-2.1-13.4,1.3&#9;&#9;c2.2,0.8,4.3,1.6,6.5,2.3c-3.8,0.9-6.6,4.8-6.3,8.7c1.7-0.8,3.3-1.7,5-2.5c-3.1,2.8-3.5,7.8-1.4,11.4s6,5.8,10.1,6.5&#9;&#9;c1.6,0.3,3.3,0.3,4.7-0.5c1.4-0.8,2.4-2.5,1.8-4L32.3,172.9z"/>	<g>		<path fill="#017CBF" d="M108.2,240.4c0,0-15.4,38.2-44.7,37.4c0,0-9.7-1.2-11-4.1c-1.2-2.8,2.4-8.1,2.4-8.1s-4.5-46.7,5.3-66.2"/>		<g>			<path fill="#07D8E7" d="M66.3,272.5c-0.4,0.8-1,1.6-1.6,2.2c-0.6,0.6-1.4,1.2-2.1,1.7c-0.8,0.5-1.6,0.8-2.5,1.1&#9;&#9;&#9;&#9;c-0.9,0.3-1.8,0.4-2.7,0.4c0.8-0.5,1.5-0.9,2.3-1.4l2.2-1.3l2.2-1.3C64.8,273.4,65.5,273,66.3,272.5z"/>		</g>		<g>			<path fill="#07D8E7" d="M62.3,268.1c-0.9,2.1-2.7,3.7-4.7,4.8c-1,0.5-2.1,0.9-3.2,1.2c-1.1,0.2-2.3,0.3-3.4,0.1&#9;&#9;&#9;&#9;c1.1-0.4,2.1-0.7,3.1-1.1c1-0.4,2-0.9,2.9-1.4C58.8,270.7,60.5,269.5,62.3,268.1z"/>		</g>	</g>	<g>		<path fill="#017CBF" d="M235.8,234.9c0,0-4.5,14.8,2.7,24.2c7.2,9.4,14.8,13.9,9.4,17.1c-5.4,3.1-55.6,15-62-44"/>		<g>			<path fill="#07D8E7" d="M241.2,278l-2.1-3.5c-0.7-1.1-1.4-2.2-2.2-3.3c-0.8-1.1-1.6-2.1-2.4-3.2l-2.6-3.1&#9;&#9;&#9;&#9;c1.2,0.6,2.4,1.4,3.4,2.4c1,0.9,1.9,2,2.8,3.1c0.8,1.1,1.5,2.3,2,3.6C240.6,275.3,241,276.7,241.2,278z"/>		</g>		<g>			<path fill="#07D8E7" d="M233.8,279c-1.2-2-2.3-3.8-3.6-5.6c-0.7-0.9-1.3-1.7-2.1-2.5l-2.3-2.5c1.1,0.4,2.1,1,3,1.7&#9;&#9;&#9;&#9;c0.9,0.7,1.7,1.6,2.4,2.5C232.7,274.5,233.7,276.7,233.8,279z"/>		</g>	</g>	<path fill="#FFFFFF" d="M72.1,240c40.4-10.4,92.5-11.2,131.8,9.3c-40.4,3.7-130.7-5.3-130.7-5.3s-3,0-7.5-0.6&#9;&#9;C67.1,242,69.2,240.9,72.1,240z"/>	<path fill="#07D8E7" d="M26.8,180.4c12.7-64.5,77.7-54.5,89.1-54.1c11.4,0.5,122.3,23.6,126.4,80c0,0,4.1,36.8-32.3,42.3&#9;&#9;c-1.9,0.3-3.9,0.5-6.1,0.7c-39.3-20.5-91.4-19.7-131.8-9.3c-2.9,0.8-4.9,2-6.4,3.4C50.2,241.2,16.9,230.5,26.8,180.4z"/>	<g>		<path fill="#07D8E7" d="M187.7,237.6c0,0-5.1,16.9,3.1,27.6c8.2,10.7,16.9,15.9,10.7,19.4c-6.1,3.6-71.9,23-76.9-63.5"/>		<g>			<path fill="#017CBF" d="M194,286.8l-2.4-4c-0.8-1.3-1.6-2.6-2.5-3.8c-0.9-1.2-1.8-2.4-2.8-3.6l-3-3.6c1.4,0.7,2.7,1.6,3.9,2.7&#9;&#9;&#9;&#9;c1.2,1.1,2.2,2.3,3.1,3.5c0.9,1.3,1.7,2.7,2.3,4.1C193.3,283.7,193.8,285.2,194,286.8z"/>		</g>		<g>			<path fill="#017CBF" d="M185.6,287.9c-0.7-1.1-1.3-2.2-2-3.3c-0.7-1-1.4-2.1-2.1-3.1c-0.7-1-1.5-1.9-2.4-2.9&#9;&#9;&#9;&#9;c-0.8-0.9-1.7-1.9-2.6-2.8c1.3,0.4,2.4,1.1,3.4,1.9c1,0.8,2,1.8,2.8,2.8c0.8,1.1,1.5,2.2,2,3.4&#9;&#9;&#9;&#9;C185.2,285.3,185.5,286.6,185.6,287.9z"/>		</g>	</g>	<g>		<path fill="#07D8E7" d="M79.5,238.1c0,0-17.3,42.7-50,41.8c0,0-10.9-1.4-12.3-4.5s2.7-9.1,2.7-9.1s-5-52.3,5.9-74.1"/>		<g>			<path fill="#017CBF" d="M32.7,274c-0.4,0.9-1.1,1.7-1.8,2.5c-0.7,0.7-1.5,1.3-2.4,1.9c-0.9,0.5-1.8,0.9-2.8,1.2&#9;&#9;&#9;&#9;c-1,0.3-2,0.5-3,0.4c0.9-0.6,1.7-1.1,2.5-1.5l2.5-1.4l2.4-1.5C31,275,31.8,274.5,32.7,274z"/>		</g>		<g>			<path fill="#017CBF" d="M28.2,269.1c-0.5,1.2-1.3,2.2-2.2,3.1c-0.9,0.9-2,1.7-3.1,2.3c-1.1,0.6-2.4,1.1-3.6,1.3&#9;&#9;&#9;&#9;c-1.3,0.3-2.6,0.3-3.8,0.1c1.2-0.4,2.4-0.8,3.5-1.3c1.1-0.5,2.2-1,3.2-1.5c1-0.6,2.1-1.2,3.1-1.8&#9;&#9;&#9;&#9;C26.2,270.6,27.2,269.8,28.2,269.1z"/>		</g>	</g>	<ellipse fill="#FF4A7F" cx="218.3" cy="210.2" rx="37.5" ry="39"/>	<g>		<path fill="#1C399D" d="M229.9,183.6c1.2-1.9,0.9-4.4-0.3-6.2c-0.6-0.9-1.4-1.7-2.4-2.1c-1-0.4-2.1-0.5-3.1-0.1&#9;&#9;&#9;c-1,0.4-1.7,1.3-2.1,2.3c-0.3,1-0.4,2.1-0.1,3.2c0.6,2.1,2.1,3.7,3.6,5.3l-0.3,0.2c-1-2.4-2.4-4.5-4.1-6.4&#9;&#9;&#9;c-0.9-0.9-1.8-1.8-2.9-2.5c-1-0.7-2.2-1.2-3.4-1c-1.2,0.2-2.1,1.2-2.5,2.4c-0.4,1.2-0.4,2.5,0.1,3.6c1,2.3,3.2,3.9,5.3,5.3&#9;&#9;&#9;l-0.3,0.4c-2-2.1-4.4-3.9-7-5.2c-1.3-0.6-2.7-1.2-4.1-1.6c-1.4-0.4-2.9-0.8-4.2-0.7c-0.7,0.1-1.3,0.3-1.8,0.8&#9;&#9;&#9;c-0.5,0.5-0.7,1.1-0.7,1.8c0,1.4,0.7,2.7,1.6,3.8c1,1,2.3,1.8,3.5,2.6c1.2,0.9,2.4,1.9,3.1,3.3l0.6,1.3l-1.2-0.9&#9;&#9;&#9;c-2.2-1.7-4.4-3.4-7-4.1c-1.3-0.4-2.6-0.5-3.9-0.2c-1.3,0.3-2.5,1-3.4,1.9c-0.4,0.5-0.8,1-1,1.6c-0.2,0.6-0.2,1.2-0.1,1.9&#9;&#9;&#9;c0.2,1.3,1,2.4,1.9,3.3c1,0.9,2.2,1.4,3.5,1.8c1.3,0.4,2.6,0.6,4,0.7l-0.1,0.8c-2.3-0.4-4.7-0.2-6.9,0.4c-1.1,0.3-2.2,0.8-3.2,1.4&#9;&#9;&#9;c-1,0.6-1.9,1.3-2.4,2.3c-0.5,1-0.4,2.1,0.1,3.1c0.5,1,1.3,1.8,2.3,2.3c2,1,4.4,0.9,6.8,0.8l-0.2,0.8c-1.6-1.2-4-1-5.7,0.2&#9;&#9;&#9;c-1.7,1.1-2.4,3.4-1.9,5.4c0.2,1,0.7,1.9,1.4,2.7c0.7,0.7,1.6,1.3,2.6,1.5c2,0.5,4.3,0,5.8-1.3l0.2,0.7c-2.3-0.2-4.6,0.8-6.1,2.5&#9;&#9;&#9;c-0.7,0.9-1.3,1.9-1.4,3c-0.2,1.1-0.1,2.3,0.3,3.4c0.7,2.2,2.7,3.9,5,4.1c2.3,0.2,4.7-0.8,5.8-2.8l0.5,0.4&#9;&#9;&#9;c-0.9,0.7-1.7,1.3-2.5,2.1c-0.8,0.8-1.4,1.7-1.7,2.6c-0.3,1-0.3,2.1,0.2,3c0.5,0.9,1.4,1.6,2.3,2c1,0.4,2.1,0.5,3.1,0.4&#9;&#9;&#9;c1-0.1,2.1-0.6,3-1.2c1.8-1.2,3.3-2.9,4.7-4.5l0.4,0.3c-1.1,1.6-2,3.3-2.3,5.2c-0.1,0.9-0.1,1.9,0.4,2.7c0.4,0.8,1.2,1.4,2.1,1.6&#9;&#9;&#9;c1.8,0.5,3.8-0.3,5.1-1.6c1.3-1.4,2.1-3.1,2.9-4.9l0.4,0.2c-0.6,1.3-1.2,2.7-0.9,4.1c0.2,0.7,0.5,1.3,1.1,1.7&#9;&#9;&#9;c0.5,0.4,1.3,0.5,1.9,0.2c0.6-0.3,1.2-0.8,1.6-1.3c0.4-0.6,0.7-1.2,1-1.9c0.5-1.3,1.1-2.8,2.4-3.6l0.7-0.4l-0.5,0.5&#9;&#9;&#9;c-0.9,0.9-1,2.4-0.6,3.6c0.4,1.2,1.5,2.3,2.8,2.3c1.3,0.1,2.5-0.8,3.1-2c0.6-1.1,0.7-2.7-0.1-3.7c0.8,1.1,0.8,2.6,0.1,3.7&#9;&#9;&#9;c-0.6,1.2-1.8,2.1-3.2,2c-1.4-0.1-2.5-1.2-3-2.4c-0.5-1.2-0.4-2.8,0.6-3.8l0.1,0.2c-1.2,0.7-1.8,2.2-2.3,3.5&#9;&#9;&#9;c-0.5,1.3-1.3,2.8-2.7,3.4c-0.7,0.3-1.6,0.3-2.2-0.2c-0.6-0.4-1-1.2-1.2-1.9c-0.3-1.5,0.3-3,0.9-4.3l0.4,0.2&#9;&#9;&#9;c-0.8,1.8-1.6,3.6-3,5.1c-1.4,1.5-3.5,2.3-5.5,1.8c-1-0.3-1.9-1-2.4-1.9c-0.5-0.9-0.6-2-0.4-3c0.3-2,1.3-3.8,2.3-5.4l0.4,0.3&#9;&#9;&#9;c-1.4,1.7-2.9,3.4-4.8,4.7c-1,0.6-2,1.1-3.2,1.2c-1.2,0.1-2.3,0-3.4-0.4c-1.1-0.4-2.1-1.2-2.7-2.2c-0.6-1.1-0.6-2.4-0.3-3.5&#9;&#9;&#9;c0.4-1.1,1.1-2.1,1.9-2.9c0.8-0.8,1.7-1.5,2.6-2.2l1.3-0.9l-0.8,1.4c-1.3,2.2-4,3.4-6.5,3.1c-0.6-0.1-1.2-0.2-1.8-0.4&#9;&#9;&#9;c-0.6-0.2-1.1-0.6-1.6-1c-1-0.8-1.7-1.9-2.1-3.1c-0.4-1.2-0.6-2.5-0.4-3.7c0.2-1.3,0.8-2.4,1.6-3.4c1.6-1.9,4.2-3,6.7-2.8l0.9,0.1&#9;&#9;&#9;l-0.7,0.6c-1.8,1.5-4.3,2.1-6.5,1.5c-1.1-0.3-2.2-0.9-3-1.7c-0.8-0.9-1.4-1.9-1.7-3c-0.3-1.1-0.3-2.3,0.1-3.5&#9;&#9;&#9;c0.2-0.6,0.5-1.1,0.8-1.6c0.4-0.5,0.8-0.9,1.3-1.2c1.9-1.3,4.7-1.6,6.7-0.2l1.1,0.7l-1.3,0.1c-2.4,0.1-4.9,0.3-7.3-0.9&#9;&#9;&#9;c-1.1-0.6-2.1-1.5-2.7-2.7c-0.6-1.1-0.7-2.6-0.1-3.9c0.6-1.2,1.7-2,2.7-2.6c1.1-0.6,2.2-1.1,3.4-1.4c2.4-0.7,4.9-0.8,7.3-0.4&#9;&#9;&#9;l-0.1,0.8c-1.4-0.2-2.8-0.4-4.1-0.8c-1.4-0.4-2.7-1-3.8-2c-1.1-1-2-2.2-2.2-3.7c-0.1-0.7,0-1.5,0.2-2.2c0.2-0.7,0.6-1.4,1.1-1.9&#9;&#9;&#9;c2-2.2,5.3-2.8,8-1.9c2.8,0.8,5,2.6,7.2,4.3l-0.5,0.4c-0.6-1.3-1.7-2.2-2.9-3.1c-1.2-0.9-2.5-1.6-3.6-2.7c-1-1.2-1.7-2.6-1.7-4.2&#9;&#9;&#9;c0-0.8,0.3-1.6,0.9-2.2c0.6-0.6,1.4-0.9,2.2-1c1.6-0.1,3,0.3,4.5,0.7c1.4,0.4,2.8,1,4.2,1.6c2.7,1.3,5.1,3.1,7.2,5.3l1.7,1.8&#9;&#9;&#9;l-2.1-1.4c-1.1-0.7-2.1-1.5-3.1-2.4c-1-0.9-1.8-1.9-2.3-3.2c-0.5-1.3-0.5-2.7-0.1-4c0.4-1.3,1.5-2.4,2.9-2.7&#9;&#9;&#9;c1.4-0.3,2.7,0.4,3.8,1.1c1.1,0.8,2,1.7,2.9,2.6c1.8,1.9,3.2,4.1,4.1,6.6l0.3,0.8l-0.6-0.6c-1.5-1.6-3-3.3-3.6-5.4&#9;&#9;&#9;c-0.3-1.1-0.2-2.2,0.1-3.3c0.4-1,1.1-2,2.2-2.4c1.1-0.4,2.2-0.3,3.2,0.1c1,0.4,1.9,1.2,2.5,2.1&#9;&#9;&#9;C230.9,179.2,231.1,181.8,229.9,183.6z"/>	</g>	<ellipse fill="#017CBF" cx="227.1" cy="210.2" rx="23.8" ry="24.8"/>	<path fill="#07D8E7" d="M187.9,186.7c0.6-1.3,2.3-1.8,3.7-1.6c1.4,0.2,2.7,1,4,1.8c1.5,0.9,2.9,1.8,4.4,2.7&#9;&#9;c10.7-7.5,27.7-10.6,49-10.6c0.2-2.5,0.9-5,2.2-7.1c1-1.6,3.1-3.2,4.6-2.1c1,0.7,1,2.2,0.8,3.4c-0.4,2.3-1.3,4.5-2.6,6.4&#9;&#9;c10.3,4.7,21.4,31.4,21.4,31.4s20.1-1.7,8.3,13.8c-16.3,21.5-42.3,18.1-52.7,15.6c-9.1-2.2-28.2-33.7-32.7-45&#9;&#9;c-3.1-0.3-6.1-1.5-8.4-3.4C188.4,190.6,187,188.5,187.9,186.7z"/>	<g>		<path fill="#1C399D" d="M264.8,199.1c-0.9-1-1.7-2-2.5-2.9c-0.4-0.5-0.8-0.9-1.3-1.3c-0.2-0.2-0.4-0.4-0.6-0.5&#9;&#9;&#9;c-0.2-0.2-0.5-0.2-0.4-0.2c0,0,0,0,0,0c0,0,0,0.1,0,0.1c0,0,0,0.1-0.1,0.1c-0.1,0.2-0.1,0.5-0.2,0.8c-0.1,0.6-0.1,1.2-0.1,1.8&#9;&#9;&#9;c0,1.3,0.1,2.5,0,3.8c-0.5-1.2-0.8-2.5-1-3.8c-0.1-0.7-0.2-1.3-0.1-2c0-0.4,0.1-0.7,0.2-1.1c0-0.1,0.1-0.2,0.1-0.3&#9;&#9;&#9;c0.1-0.1,0.1-0.2,0.2-0.3c0.2-0.2,0.5-0.4,0.8-0.4c0.6,0,1,0.3,1.3,0.5c0.3,0.2,0.6,0.5,0.8,0.7c0.4,0.5,0.8,1,1.2,1.6&#9;&#9;&#9;C263.8,196.7,264.4,197.8,264.8,199.1z"/>	</g>	<g>		<path fill="#1C399D" d="M236.5,204c-0.9-1-1.7-2-2.5-2.9c-0.4-0.5-0.8-0.9-1.3-1.3c-0.2-0.2-0.4-0.4-0.6-0.5&#9;&#9;&#9;c-0.2-0.2-0.5-0.2-0.4-0.2c0,0,0,0,0,0c0,0,0,0.1,0,0.1c0,0,0,0.1-0.1,0.1c-0.1,0.2-0.1,0.5-0.2,0.8c-0.1,0.6-0.1,1.2-0.1,1.8&#9;&#9;&#9;c0,1.3,0.1,2.5,0,3.8c-0.5-1.2-0.8-2.5-1-3.8c-0.1-0.7-0.2-1.3-0.1-2c0-0.4,0.1-0.7,0.2-1.1c0-0.1,0.1-0.2,0.1-0.3&#9;&#9;&#9;c0.1-0.1,0.1-0.2,0.2-0.3c0.2-0.2,0.5-0.4,0.8-0.4c0.6,0,1,0.3,1.3,0.5c0.3,0.2,0.6,0.5,0.8,0.7c0.4,0.5,0.8,1,1.2,1.6&#9;&#9;&#9;C235.5,201.6,236.1,202.8,236.5,204z"/>	</g>	<g>		<path fill="#1C399D" d="M246.5,225.7c-3.5,1.6-7.4,2-11.2,1.4c-3.8-0.6-7.5-2.2-10.3-4.7c3.2,1.9,6.8,3.3,10.4,3.8&#9;&#9;&#9;C239.1,226.8,242.9,226.6,246.5,225.7z"/>	</g>	<g>		<path fill="#017CBF" d="M122.8,228.3c-2-1.8-3.4-4.2-4.3-6.8c-0.9-2.6-1.2-5.4-0.7-8c0.2,2.7,0.7,5.2,1.6,7.7&#9;&#9;&#9;C120.2,223.7,121.4,226,122.8,228.3z"/>	</g>	<g>		<path fill="#017CBF" d="M115.7,224.3c-0.8-1.7-1.3-3.5-1.8-5.3c-0.4-1.8-0.8-3.6-0.9-5.5c0.8,1.7,1.3,3.5,1.8,5.3&#9;&#9;&#9;C115.2,220.6,115.6,222.4,115.7,224.3z"/>	</g>	<g>		<path fill="#017CBF" d="M196.8,162.5c-2.6-2.3-5.2-4.5-8-6.5c-2.8-2-5.8-3.6-8.9-5.2c3.4,0.9,6.5,2.5,9.4,4.5&#9;&#9;&#9;C192.1,157.2,194.7,159.6,196.8,162.5z"/>	</g>	<g>		<path fill="#017CBF" d="M188.6,166.5c-1.5-1.3-3-2.6-4.5-3.9c-1.5-1.2-3.1-2.4-4.7-3.6c1.9,0.6,3.7,1.6,5.3,2.9&#9;&#9;&#9;C186.3,163.2,187.7,164.7,188.6,166.5z"/>	</g>	<g>		<path fill="#017CBF" d="M172,148.4c-2.1-1.2-4.1-2.2-6.3-3.1c-2.1-0.9-4.4-1.5-6.7-2.1c2.4-0.1,4.8,0.4,7,1.3&#9;&#9;&#9;C168.3,145.3,170.4,146.6,172,148.4z"/>	</g>	<g>		<path fill="#017CBF" d="M171.3,156.4c-2-0.6-3.8-1.4-5.6-2.4c-1.8-0.9-3.5-1.9-5.2-3.2c2,0.6,3.8,1.4,5.6,2.4&#9;&#9;&#9;C167.9,154.2,169.7,155.2,171.3,156.4z"/>	</g>	<g>		<path fill="#017CBF" d="M151.2,142.5c-1.7-0.5-3.2-1.2-4.8-1.8c-1.6-0.6-3.2-1.2-4.7-2c1.8,0.1,3.5,0.5,5.1,1.2&#9;&#9;&#9;C148.4,140.5,149.9,141.3,151.2,142.5z"/>	</g>	<g>		<path fill="#017CBF" d="M147.2,149.8c-2.1-1.1-4.2-2.1-6.4-3.1c-2.1-0.9-4.3-1.7-6.6-2.5c2.4,0.1,4.8,0.7,7,1.7&#9;&#9;&#9;C143.4,146.9,145.5,148.2,147.2,149.8z"/>	</g>	<g>		<path fill="#017CBF" d="M129.4,137.7c-2.5-1-4.9-1.9-7.4-2.4c-2.5-0.6-5.1-0.8-7.7-1c2.6-0.6,5.3-0.5,7.9,0.1&#9;&#9;&#9;C124.8,135,127.3,136,129.4,137.7z"/>	</g>	<g>		<path fill="#017CBF" d="M123.9,145.4c-2.3-0.6-4.6-1.2-7-1.5c-2.3-0.4-4.7-0.5-7.1-0.7c2.4-0.6,4.8-0.6,7.2-0.2&#9;&#9;&#9;C119.5,143.4,121.8,144.1,123.9,145.4z"/>	</g>	<g>		<path fill="#017CBF" d="M103.5,133.4c-3.6-0.6-7.2-0.5-10.7,0.3c-3.5,0.8-6.8,2.3-9.8,4.4c2.5-2.7,6-4.5,9.6-5.3&#9;&#9;&#9;C96.2,132,100,132.1,103.5,133.4z"/>	</g>	<g>		<path fill="#017CBF" d="M93.9,146.1c-2.9,0.1-5.8,0.5-8.5,1.4c-2.7,0.9-5.3,2.2-7.8,3.8c2-2.2,4.6-3.8,7.5-4.7&#9;&#9;&#9;C88,145.8,91,145.5,93.9,146.1z"/>	</g>	<g>		<path fill="#017CBF" d="M72.5,139.1c-2.6,1-5.1,2.1-7.5,3.5c-2.4,1.4-4.5,3.1-6.6,4.9c1.6-2.3,3.7-4.2,6.2-5.7&#9;&#9;&#9;C66.9,140.4,69.7,139.4,72.5,139.1z"/>	</g>	<g>		<path fill="#017CBF" d="M67.6,153.9c-2.7,1.5-5.2,3.1-7.5,4.9c-2.4,1.8-4.5,3.9-6.5,6.2c1.5-2.7,3.6-5,6-6.9&#9;&#9;&#9;C62,156.2,64.7,154.7,67.6,153.9z"/>	</g>	<g>		<path fill="#017CBF" d="M45.4,156.5c-2.2,1.8-4.2,3.7-5.9,6c-1.7,2.2-3,4.7-4.1,7.3c0.4-2.8,1.6-5.6,3.4-7.9&#9;&#9;&#9;C40.5,159.6,42.8,157.7,45.4,156.5z"/>	</g>	<g>		<path fill="#017CBF" d="M45.4,169.8c-1.4,1.9-2.9,3.8-4.1,5.8c-1.3,2-2.4,4-3.6,6.1c0.5-2.4,1.6-4.6,2.9-6.6&#9;&#9;&#9;C41.9,173.1,43.5,171.2,45.4,169.8z"/>	</g>	<g>		<path fill="#017CBF" d="M81,162c-2.1,0.9-4,1.9-5.8,3.1c-1.8,1.2-3.4,2.7-5,4.3c1-2,2.6-3.7,4.4-5C76.5,163.1,78.7,162.2,81,162z"/>	</g>	<g>		<path fill="#017CBF" d="M63.9,168.2c-2,0.9-3.9,2-5.6,3.3c-1.7,1.3-3.2,2.9-4.7,4.6c0.8-2.1,2.3-3.9,4.1-5.3&#9;&#9;&#9;C59.5,169.5,61.7,168.5,63.9,168.2z"/>	</g>	<g>		<path fill="#017CBF" d="M55.8,181.7c-1.7,1.3-3.3,2.7-4.7,4.2c-1.4,1.5-2.6,3.2-3.8,5c0.5-2.1,1.7-4,3.1-5.6&#9;&#9;&#9;C51.9,183.7,53.7,182.4,55.8,181.7z"/>	</g>	<path fill="#1C399D" d="M259.6,212l3.6-0.8c4.9-1.1,9.8,2.2,10.2,7.2c0.1,1.1-0.1,2-0.8,2.3c-2.8,1.2-16.4,4.9-17.9,3.1&#9;&#9;c-0.2-0.3-0.7-1.2-1.4-2.7c1.4-3.4,3.5-6.5,6.1-9.4L259.6,212z"/>	<path fill="#FFFFFF" d="M244.5,184.8l15,26.9c-2.6,2.8-4.7,5.9-6.1,9.4c-3.8-8.4-13.5-33.1-13.5-33.1L244.5,184.8z"/>	<g>		<path fill="#FFFFFF" d="M269.3,216.2c-1.1-1-2.4-1.7-3.7-1.9c-1.3-0.2-2.7,0-4.1,0.7c0.9-1.2,2.6-1.8,4.2-1.6&#9;&#9;&#9;C267.4,213.7,268.8,214.8,269.3,216.2z"/>	</g>	<path fill="#017CBF" d="M252.4,179.9c0.2-0.7,0.7-1.3,1-1.9c0.3-0.6,0.4-1.5-0.1-2c-0.5-0.5-1.4-0.4-1.9,0.1s-0.8,1.2-0.9,1.9&#9;&#9;c-0.2,0.7-0.2,1.4-0.6,2"/>	<path fill="#017CBF" d="M199.4,191.9c-0.6-0.7-1.2-1.4-1.9-1.9c-0.7-0.5-1.7-0.8-2.5-0.5c-0.9,0.2-1.6,1.1-1.5,2&#9;&#9;c0.1,0.8,0.7,1.3,1.4,1.7c1.4,0.8,3,1.2,4.6,1"/></g></svg>