<?xml version="1.0" standalone="no"?><!DOCTYPE svg PUBLIC "-//W3C//DTD SVG 1.1//EN" "http://www.w3.org/Graphics/SVG/1.1/DTD/svg11.dtd"><svg id="Pumpkin0.svg" xmlns:xlink="http://www.w3.org/1999/xlink" width="150" height="150" viewBox="0 0 150 150" version="1.1" xmlns="http://www.w3.org/2000/svg"><defs xmlns="http://www.w3.org/1999/xhtml"><style type="text/css"><![CDATA[
* { border: 0px; margin: 0px; padding: 0px; }
html { background-color: rgb(255, 255, 255); font-family: Verdana, Arial; }
.webgl-content * { position: absolute; width: 100%; height: 100%; user-select: none; }
.webgl-content .logo, .progress { position: absolute; left: 50%; top: 50%; transform: translate(-50%, -50%); }
.webgl-content .logo { background: url("progressLogo.Light.png") center center / contain no-repeat; width: 154px; height: 130px; }
.webgl-content .progress { height: 18px; width: 141px; margin-top: 90px; }
.webgl-content .progress .empty { background: url("progressEmpty.Light.png") right center / cover no-repeat; float: right; width: 100%; height: 100%; display: inline-block; }
.webgl-content .progress .full { background: url("progressFull.Light.png") left center / cover no-repeat; float: left; width: 0%; height: 100%; display: inline-block; }
.webgl-content .logo.Dark { background-image: url("progressLogo.Dark.png"); }
.webgl-content .progress.Dark .empty { background-image: url("progressEmpty.Dark.png"); }
.webgl-content .progress.Dark .full { background-image: url("progressFull.Dark.png"); }
#loading-content { z-index: 10000; position: fixed; width: 100%; height: 100%; left: 0px; top: 0px; overflow: hidden; background: url("background.png"); }
.hud-intro .hud-intro-social .btn-discord, .hud-respawn .hud-respawn-social .btn-discord { background-image: url("//lordz.io/images/discord-icon.png"); }
.hud-intro .hud-intro-social .btn-twitter, .hud-respawn .hud-respawn-social .btn-twitter { background-image: url("//lordz.io/images/twitter-icon.png"); }
.hud-intro .hud-intro-social .btn-facebook, .hud-respawn .hud-respawn-social .btn-facebook { background-image: url("//lordz.io/images/facebook-icon.png"); }
.hud-intro .hud-intro-social .btn-youtube, .hud-respawn .hud-respawn-social .btn-youtube { background-image: url("//lordz.io/images/youtube-icon.png"); }
* { box-sizing: border-box; user-select: none; }
.btn { position: relative; display: inline-block; top: 0px; height: 36px; line-height: 36px; padding: 0px 20px; background: rgb(68, 68, 68); color: rgb(238, 238, 238); border: 0px; font-size: 14px; vertical-align: top; text-align: center; text-decoration: none; text-shadow: rgba(0, 0, 0, 0.4) 0px 1px 0px; box-shadow: rgba(0, 0, 0, 0.2) 0px 2px 10px, rgb(51, 51, 51) 0px 4px 0px; border-radius: 4px; transition: all 0.15s ease-in-out 0s; }
.btn:hover, .btn:active { background-color: rgb(85, 85, 85); color: rgb(255, 255, 255); }
.btn:active { top: 4px; box-shadow: rgba(0, 0, 0, 0.2) 0px 2px 10px !important; }
.btn-green { background-color: rgb(71, 149, 13); box-shadow: rgba(0, 0, 0, 0.2) 0px 2px 10px, rgb(53, 131, 0) 0px 4px 0px; }
.btn-green:hover, .btn-green:active { background-color: rgb(100, 184, 32); }
.btn-red { background-color: rgb(179, 53, 60); box-shadow: rgba(0, 0, 0, 0.2) 0px 2px 10px, rgb(161, 35, 42) 0px 4px 0px; }
.btn-red:hover, .btn-red:active { background-color: rgb(203, 87, 91); }
.btn-blue { background-color: rgb(29, 141, 238); box-shadow: rgba(0, 0, 0, 0.2) 0px 2px 10px, rgb(11, 123, 220) 0px 4px 0px; }
.btn-blue:hover, .btn-blue:active { background-color: rgb(79, 167, 238); }
.btn-purple { background-color: rgb(114, 55, 228); box-shadow: rgba(0, 0, 0, 0.2) 0px 2px 10px, rgb(96, 37, 210) 0px 4px 0px; }
.btn-purple:hover, .btn-purple:active { background-color: rgb(130, 89, 228); }
.btn-twitter { background-color: rgb(27, 149, 224); box-shadow: rgba(0, 0, 0, 0.2) 0px 2px 10px, rgb(9, 131, 206) 0px 4px 0px; }
.btn-twitter:hover, .btn-twitter:active { background-color: rgb(12, 122, 191); }
.btn-facebook { background-color: rgb(66, 103, 178); box-shadow: rgba(0, 0, 0, 0.2) 0px 2px 10px, rgb(48, 85, 160) 0px 4px 0px; }
.btn-facebook:hover, .btn-facebook:active { background-color: rgb(54, 88, 153); }
.btn-google { background-color: rgb(221, 75, 57); box-shadow: rgba(0, 0, 0, 0.2) 0px 2px 10px, rgb(203, 57, 39) 0px 4px 0px; }
.btn-google:hover, .btn-google:active { background-color: rgb(186, 63, 49); }
.btn-discord { background-color: rgb(114, 137, 218); box-shadow: rgba(0, 0, 0, 0.2) 0px 2px 10px, rgb(96, 119, 200) 0px 4px 0px; }
.btn-discord:hover, .btn-discord:active { background-color: rgb(90, 109, 176); }
.btn-youtube { background-color: rgb(229, 45, 39); box-shadow: rgba(0, 0, 0, 0.2) 0px 2px 10px, rgb(211, 27, 21) 0px 4px 0px; }
.btn-youtube:hover, .btn-youtube:active { background-color: rgb(186, 37, 33); }
.hud { position: fixed; top: 0px; left: 0px; bottom: 0px; right: 0px; }
.hud .hud-bottom-left { display: flex; position: absolute; bottom: 20px; left: 20px; flex-direction: column-reverse; }
.hud-intro .hud-intro-corner-bottom-left, .hud-respawn .hud-respawn-corner-bottom-left { position: fixed; bottom: 20px; left: 20px; text-align: left; }
.hud-intro .hud-intro-social, .hud-respawn .hud-respawn-social { width: 240px; line-height: 24px; font-size: 14px; color: rgb(119, 119, 119); }
.hud-intro .hud-intro-social .btn, .hud-respawn .hud-respawn-social .btn { display: block; float: left; margin: 0px 10px 0px 0px; width: 40px; height: 40px; line-height: 40px; background-size: 24px; background-position: center center; background-repeat: no-repeat; }
.hud-intro .hud-intro-more-games { position: relative; bottom: 5px; line-height: 20px; font-size: 14px; color: rgba(255, 255, 255, 0.4); text-shadow: rgba(0, 0, 0, 0.2) 0px 1px 3px; }
.hud-intro .hud-intro-more-games a { display: inline-block; padding: 0px 20px; line-height: 40px; background: rgb(132, 115, 212); color: rgb(238, 238, 238); text-decoration: none; border-radius: 4px; transition: all 0.15s ease-in-out 0s; }
.hud-intro .hud-intro-more-games a:hover, .hud-intro .hud-intro-more-games a:active { background: rgb(103, 90, 166); }
#preroll video { left: 0px; top: 0px; }
.fb_hidden { position: absolute; top: -10000px; z-index: 10001; }
.fb_reposition { overflow: hidden; position: relative; }
.fb_invisible { display: none; }
.fb_reset { background: none; border: 0px; border-spacing: 0px; color: rgb(0, 0, 0); cursor: auto; direction: ltr; font-family: "lucida grande", tahoma, verdana, arial, sans-serif; font-size: 11px; font-style: normal; font-variant: normal; font-weight: normal; letter-spacing: normal; line-height: 1; margin: 0px; overflow: visible; padding: 0px; text-align: left; text-decoration: none; text-indent: 0px; text-shadow: none; text-transform: none; visibility: visible; white-space: normal; word-spacing: normal; }
.fb_animate { animation: 0.3s ease 0s 1 normal forwards running fb_transform; }
.fb_dialog { background: rgba(82, 82, 82, 0.7); position: absolute; top: -10000px; z-index: 10001; }
.fb_dialog_advanced { border-radius: 8px; padding: 10px; }
.fb_dialog_content { background: rgb(255, 255, 255); color: rgb(55, 55, 55); }
.fb_dialog_close_icon { background: url("https://static.xx.fbcdn.net/rsrc.php/v3/yq/r/IE9JII6Z1Ys.png") 0px 0px no-repeat scroll transparent; cursor: pointer; display: block; height: 15px; position: absolute; right: 18px; top: 17px; width: 15px; }
.fb_dialog_mobile .fb_dialog_close_icon { left: 5px; right: auto; top: 5px; }
.fb_dialog_padding { background-color: transparent; position: absolute; width: 1px; z-index: -1; }
.fb_dialog_close_icon:hover { background: url("https://static.xx.fbcdn.net/rsrc.php/v3/yq/r/IE9JII6Z1Ys.png") 0px -15px no-repeat scroll transparent; }
.fb_dialog_close_icon:active { background: url("https://static.xx.fbcdn.net/rsrc.php/v3/yq/r/IE9JII6Z1Ys.png") 0px -30px no-repeat scroll transparent; }
.fb_dialog_iframe { line-height: 0; }
.fb_dialog_content .dialog_title { background: rgb(109, 132, 180); border: 1px solid rgb(54, 88, 153); color: rgb(255, 255, 255); font-size: 14px; font-weight: bold; margin: 0px; }
body.fb_hidden { height: 100%; left: 0px; margin: 0px; overflow: visible; position: absolute; top: -10000px; transform: none; width: 100%; }
.fb_dialog.fb_dialog_mobile.loading { background: url("https://static.xx.fbcdn.net/rsrc.php/v3/ya/r/3rhSv5V8j3o.gif") 50% 50% no-repeat white; min-height: 100%; min-width: 100%; overflow: hidden; position: absolute; top: 0px; z-index: 10001; }
.fb_dialog.fb_dialog_mobile.loading.centered { background: none; height: auto; min-height: initial; min-width: initial; width: auto; }
.fb_dialog.fb_dialog_mobile.loading.centered #fb_dialog_loader_spinner { width: 100%; }
.fb_dialog.fb_dialog_mobile.loading.centered .fb_dialog_content { background: none; }
.loading.centered #fb_dialog_loader_close { clear: both; color: rgb(255, 255, 255); display: block; font-size: 18px; padding-top: 20px; }
#fb-root #fb_dialog_ipad_overlay { background: rgba(0, 0, 0, 0.4); bottom: 0px; left: 0px; min-height: 100%; position: absolute; right: 0px; top: 0px; width: 100%; z-index: 10000; }
#fb-root #fb_dialog_ipad_overlay.hidden { display: none; }
.fb_dialog.fb_dialog_mobile.loading iframe { visibility: hidden; }
.fb_dialog_mobile .fb_dialog_iframe { position: sticky; top: 0px; }
.fb_dialog_content .dialog_header { border-bottom: 1px solid rgb(4, 59, 135); border-top-color: rgb(4, 59, 135); border-right-color: rgb(4, 59, 135); border-left-color: rgb(4, 59, 135); box-shadow: white 0px 1px 1px -1px inset; color: rgb(255, 255, 255); font: bold 14px Helvetica, sans-serif; text-overflow: ellipsis; text-shadow: rgba(0, 30, 84, 0.298) 0px -1px 0px; vertical-align: middle; white-space: nowrap; }
.fb_dialog_content .dialog_header table { height: 43px; width: 100%; }
.fb_dialog_content .dialog_header td.header_left { font-size: 12px; padding-left: 5px; vertical-align: middle; width: 60px; }
.fb_dialog_content .dialog_header td.header_right { font-size: 12px; padding-right: 5px; vertical-align: middle; width: 60px; }
.fb_dialog_content .touchable_button { background-clip: padding-box; border: 1px solid rgb(41, 72, 125); border-radius: 3px; display: inline-block; line-height: 18px; margin-top: 3px; max-width: 85px; padding: 4px 12px; position: relative; }
.fb_dialog_content .dialog_header .touchable_button input { background: none; border: none; color: rgb(255, 255, 255); font: bold 12px Helvetica, sans-serif; margin: 2px -12px; padding: 2px 6px 3px; text-shadow: rgba(0, 30, 84, 0.298) 0px -1px 0px; }
.fb_dialog_content .dialog_header .header_center { color: rgb(255, 255, 255); font-size: 16px; font-weight: bold; line-height: 18px; text-align: center; vertical-align: middle; }
.fb_dialog_content .dialog_content { background: url("https://static.xx.fbcdn.net/rsrc.php/v3/y9/r/jKEcVPZFk-2.gif") 50% 50% no-repeat; border-width: 0px 1px; border-right-style: solid; border-left-style: solid; border-right-color: rgb(74, 74, 74); border-left-color: rgb(74, 74, 74); border-image: initial; border-bottom-style: initial; border-bottom-color: initial; border-top-style: initial; border-top-color: initial; height: 150px; }
.fb_dialog_content .dialog_footer { background: rgb(245, 246, 247); border-width: 1px; border-style: solid; border-color: rgb(204, 204, 204) rgb(74, 74, 74) rgb(74, 74, 74); border-image: initial; height: 40px; }
#fb_dialog_loader_close { float: left; }
.fb_dialog.fb_dialog_mobile .fb_dialog_close_button { text-shadow: rgba(0, 30, 84, 0.298) 0px -1px 0px; }
.fb_dialog.fb_dialog_mobile .fb_dialog_close_icon { visibility: hidden; }
#fb_dialog_loader_spinner { animation: 1.2s linear 0s infinite normal none running rotateSpinner; background-color: transparent; background-image: url("https://static.xx.fbcdn.net/rsrc.php/v3/yD/r/t-wz8gw1xG1.png"); background-position: 50% 50%; background-repeat: no-repeat; height: 24px; width: 24px; }
.fb_iframe_widget { display: inline-block; position: relative; }
.fb_iframe_widget span { display: inline-block; position: relative; text-align: justify; }
.fb_iframe_widget iframe { position: absolute; }
.fb_iframe_widget_fluid_desktop, .fb_iframe_widget_fluid_desktop span, .fb_iframe_widget_fluid_desktop iframe { max-width: 100%; }
.fb_iframe_widget_fluid_desktop iframe { min-width: 220px; position: relative; }
.fb_iframe_widget_lift { z-index: 1; }
.fb_iframe_widget_fluid { display: inline; }
.fb_iframe_widget_fluid span { width: 100%; }
.st0 { fill: rgb(119, 183, 73); }
.st1 { fill: rgb(247, 175, 47); }
.st2 { fill: rgb(233, 81, 15); }
.st3 { fill: url("#SVGID_1_"); }
.st4 { fill: url("#SVGID_2_"); }
.st5 { fill: rgb(252, 242, 119); }
.st6 { fill: url("#SVGID_3_"); }
.st7 { fill: url("#SVGID_4_"); }
.st8 { fill: url("#SVGID_5_"); }
.st9 { fill: url("#SVGID_6_"); }
.st10 { fill: url("#SVGID_7_"); }
.st11 { fill: url("#SVGID_8_"); }
.st12 { fill: url("#SVGID_9_"); }
.st13 { fill: url("#SVGID_10_"); }
.st14 { fill: url("#SVGID_11_"); }
.st15 { fill: url("#SVGID_12_"); }
.st16 { fill: url("#SVGID_13_"); }
.st17 { fill: url("#SVGID_14_"); }
.st18 { fill: url("#SVGID_15_"); }
.st19 { fill: url("#SVGID_16_"); }
.st0 { fill: rgb(119, 183, 73); }
.st1 { fill: rgb(247, 175, 47); }
.st2 { fill: rgb(233, 81, 15); }
.st3 { fill: url("#SVGID_1_"); }
.st4 { fill: url("#SVGID_2_"); }
.st5 { fill: rgb(252, 242, 119); }
.st6 { fill: url("#SVGID_3_"); }
.st7 { fill: url("#SVGID_4_"); }
.st8 { fill: url("#SVGID_5_"); }
.st9 { fill: url("#SVGID_6_"); }
.st10 { fill: url("#SVGID_7_"); }
.st11 { fill: url("#SVGID_8_"); }
.st12 { fill: url("#SVGID_9_"); }
.st13 { fill: url("#SVGID_10_"); }
.st14 { fill: url("#SVGID_11_"); }
.st15 { fill: url("#SVGID_12_"); }
.st16 { fill: url("#SVGID_13_"); }
.st17 { fill: url("#SVGID_14_"); }
.st18 { fill: url("#SVGID_15_"); }
.st19 { fill: url("#SVGID_16_"); }
.st0 { fill: rgb(119, 183, 73); }
.st1 { fill: rgb(247, 175, 47); }
.st2 { fill: rgb(233, 81, 15); }
.st3 { fill: url("#SVGID_1_"); }
.st4 { fill: url("#SVGID_2_"); }
.st5 { fill: rgb(252, 242, 119); }
.st6 { fill: url("#SVGID_3_"); }
.st7 { fill: url("#SVGID_4_"); }
.st8 { fill: url("#SVGID_5_"); }
.st9 { fill: url("#SVGID_6_"); }
.st10 { fill: url("#SVGID_7_"); }
.st11 { fill: url("#SVGID_8_"); }
.st12 { fill: url("#SVGID_9_"); }
.st13 { fill: url("#SVGID_10_"); }
.st14 { fill: url("#SVGID_11_"); }
.st15 { fill: url("#SVGID_12_"); }
.st16 { fill: url("#SVGID_13_"); }
.st17 { fill: url("#SVGID_14_"); }
.st18 { fill: url("#SVGID_15_"); }
.st19 { fill: url("#SVGID_16_"); }
.st0 { fill: rgb(119, 183, 73); }
.st1 { fill: rgb(247, 175, 47); }
.st2 { fill: rgb(233, 81, 15); }
.st3 { fill: url("#SVGID_1_"); }
.st4 { fill: url("#SVGID_2_"); }
.st5 { fill: rgb(252, 242, 119); }
.st6 { fill: url("#SVGID_3_"); }
.st7 { fill: url("#SVGID_4_"); }
.st8 { fill: url("#SVGID_5_"); }
.st9 { fill: url("#SVGID_6_"); }
.st10 { fill: url("#SVGID_7_"); }
.st11 { fill: url("#SVGID_8_"); }
.st12 { fill: url("#SVGID_9_"); }
.st13 { fill: url("#SVGID_10_"); }
.st14 { fill: url("#SVGID_11_"); }
.st15 { fill: url("#SVGID_12_"); }
.st16 { fill: url("#SVGID_13_"); }
.st17 { fill: url("#SVGID_14_"); }
.st18 { fill: url("#SVGID_15_"); }
.st19 { fill: url("#SVGID_16_"); }]]></style></defs><style type="text/css">	.st0{fill:#77B749;}	.st1{fill:#F7AF2F;}	.st2{fill:#E9510F;}	.st3{fill:url(#SVGID_1_);}	.st4{fill:url(#SVGID_2_);}	.st5{fill:#FCF277;}	.st6{fill:url(#SVGID_3_);}	.st7{fill:url(#SVGID_4_);}	.st8{fill:url(#SVGID_5_);}	.st9{fill:url(#SVGID_6_);}	.st10{fill:url(#SVGID_7_);}	.st11{fill:url(#SVGID_8_);}	.st12{fill:url(#SVGID_9_);}	.st13{fill:url(#SVGID_10_);}	.st14{fill:url(#SVGID_11_);}	.st15{fill:url(#SVGID_12_);}	.st16{fill:url(#SVGID_13_);}	.st17{fill:url(#SVGID_14_);}	.st18{fill:url(#SVGID_15_);}	.st19{fill:url(#SVGID_16_);}</style><g id="Layer_1">	<g>		<g>			<path class="st0" d="M79.3,44.3c0,0,3.9-0.7,5.5-2.3l-0.5,1.6c0,0,2.7,1.1,4.4-0.2l-1.6,2.3L79.3,44.3z"/>			<path class="st0" d="M73.7,44.3c0,0-7.2,0.2-8.8-2.7c0,0-1.8,3,1.6,4.4L73.7,44.3z"/>		</g>		<g>			<path class="st1" d="M117.2,75.1c0,18.5-18.9,33.5-42.2,33.5c-23.3,0-42.3-15-42.3-33.5s20-31,43.3-31&#9;&#9;&#9;&#9;C99.4,44.1,117.2,56.6,117.2,75.1z"/>			<path class="st2" d="M61.8,48.1c-2.4,1.3-4.7,2.8-6.9,4.4c-2.2,1.7-4.2,3.5-6,5.5c-1.8,2-3.4,4.2-4.6,6.6c-1.2,2.4-2.1,5-2.4,7.6&#9;&#9;&#9;&#9;c-0.4,2.7-0.2,5.4,0.3,8c0.5,2.7,1.4,5.2,2.6,7.7c1.2,2.5,2.5,4.8,4.1,7.1c1.5,2.3,3.2,4.4,5,6.5c-3.8-3.9-7.3-8.3-9.8-13.2&#9;&#9;&#9;&#9;c-1.2-2.5-2.2-5.1-2.8-7.8c-0.6-2.7-0.7-5.6-0.3-8.3c0.4-2.8,1.3-5.5,2.6-7.9c1.3-2.5,3-4.7,4.9-6.7c1.9-2,4-3.8,6.3-5.4&#9;&#9;&#9;&#9;c1.1-0.8,2.3-1.5,3.5-2.2C59.3,49.2,60.5,48.6,61.8,48.1z"/>			<path class="st2" d="M68.3,51.1c-1.1,2-2.1,4-2.9,6.1c-0.9,2.1-1.6,4.2-2.2,6.3c-1.2,4.3-2,8.7-2.2,13.2c-0.2,4.5,0.1,8.9,1,13.3&#9;&#9;&#9;&#9;c0.9,4.4,2.4,8.6,4.4,12.7c-2.3-3.9-4.1-8.1-5.1-12.5c-1.1-4.4-1.5-9-1.3-13.5c0.2-4.5,1.1-9.1,2.5-13.4&#9;&#9;&#9;&#9;C63.8,59,65.7,54.8,68.3,51.1z"/>			<path class="st2" d="M88.9,48.1c1.3,0.5,2.5,1.2,3.7,1.8c1.2,0.7,2.4,1.4,3.5,2.2c2.3,1.6,4.4,3.4,6.3,5.4c1.9,2,3.6,4.3,4.9,6.7&#9;&#9;&#9;&#9;c1.3,2.5,2.2,5.2,2.6,7.9c0.4,2.8,0.2,5.6-0.3,8.3c-0.6,2.7-1.5,5.4-2.8,7.8c-2.5,5-6,9.3-9.8,13.2c1.8-2.1,3.5-4.2,5-6.5&#9;&#9;&#9;&#9;c1.5-2.3,2.9-4.6,4.1-7.1c1.1-2.5,2.1-5,2.6-7.7c0.5-2.6,0.6-5.4,0.3-8c-0.3-2.7-1.2-5.3-2.4-7.6c-1.2-2.4-2.8-4.6-4.6-6.6&#9;&#9;&#9;&#9;c-1.8-2-3.8-3.9-6-5.5C93.7,50.8,91.4,49.4,88.9,48.1z"/>			<path class="st2" d="M82.4,51.1c2.6,3.7,4.5,7.9,5.9,12.2c1.4,4.3,2.3,8.8,2.5,13.4c0.2,4.5-0.2,9.1-1.3,13.5&#9;&#9;&#9;&#9;c-1.1,4.4-2.8,8.6-5.1,12.5c1.9-4.1,3.4-8.3,4.4-12.7c0.9-4.4,1.3-8.9,1-13.3c-0.2-4.5-1-8.9-2.2-13.2c-0.6-2.1-1.4-4.3-2.2-6.3&#9;&#9;&#9;&#9;C84.5,55.1,83.5,53,82.4,51.1z"/>			<path class="st2" d="M75.8,53.8c0.1,4,0.1,8.1,0,12.1c0,4-0.1,8.1-0.3,12.1c-0.1,4-0.3,8.1-0.5,12.1c-0.2,4-0.5,8.1-0.8,12.1&#9;&#9;&#9;&#9;c-0.1-4-0.1-8.1,0-12.1c0-4,0.1-8.1,0.3-12.1c0.1-4,0.3-8.1,0.5-12.1C75.2,61.9,75.4,57.8,75.8,53.8z"/>		</g>		<g>			<g>				<linearGradient id="SVGID_1_" gradientUnits="userSpaceOnUse" x1="59.7498" y1="60.5844" x2="59.7498" y2="75.1619">					<stop offset="0" style="stop-color:#1B1C20"/>					<stop offset="1" style="stop-color:#E9510F"/>				</linearGradient>				<path class="st3" d="M59.8,60c-3.5,0-6.4,1.8-6.4,4.1c0,1.5,1.2,2.7,3,3.5c0.1-1.3,1.4-2.2,3-2.2c1.7,0,3,1.1,3,2.5&#9;&#9;&#9;&#9;&#9;c2.1-0.7,3.6-2.1,3.6-3.7C66.1,61.8,63.3,60,59.8,60z"/>				<linearGradient id="SVGID_2_" gradientUnits="userSpaceOnUse" x1="90.2502" y1="60.5844" x2="90.2502" y2="75.1619">					<stop offset="0" style="stop-color:#1B1C20"/>					<stop offset="1" style="stop-color:#E9510F"/>				</linearGradient>				<path class="st4" d="M90.2,60c-3.5,0-6.4,1.8-6.4,4.1c0,1.5,1.2,2.7,3,3.5c0.1-1.3,1.4-2.2,3-2.2c1.7,0,3,1.1,3,2.5&#9;&#9;&#9;&#9;&#9;c2.1-0.7,3.6-2.1,3.6-3.7C96.6,61.8,93.8,60,90.2,60z"/>			</g>			<path class="st5" d="M90.2,60c-3.5,0-6.4,1.8-6.4,4.1c0,0.2,0,0.4,0.1,0.6c0.5-2,3.1-3.4,6.3-3.4c3.2,0,5.8,1.5,6.3,3.5&#9;&#9;&#9;&#9;c0.1-0.2,0.1-0.4,0.1-0.7C96.6,61.8,93.8,60,90.2,60z M59.8,60c-3.5,0-6.4,1.8-6.4,4.1c0,0.2,0,0.4,0.1,0.6&#9;&#9;&#9;&#9;c0.5-2,3.1-3.4,6.3-3.4c3.2,0,5.8,1.5,6.3,3.5c0.1-0.2,0.1-0.4,0.1-0.7C66.1,61.8,63.3,60,59.8,60z"/>		</g>		<g>			<linearGradient id="SVGID_3_" gradientUnits="userSpaceOnUse" x1="75.0002" y1="83.5848" x2="75.0002" y2="109.2072">				<stop offset="0" style="stop-color:#1B1C20"/>				<stop offset="1" style="stop-color:#E9510F"/>			</linearGradient>			<path class="st6" d="M99.6,84.5c0,4-11,14.3-24.6,14.3c-13.6,0-24.6-10.3-24.6-14.3c0-4,11-0.2,24.6-0.2&#9;&#9;&#9;&#9;C88.6,84.3,99.6,80.5,99.6,84.5z"/>			<path class="st5" d="M75,85.7c12.8,0,23.3-3.4,24.5-0.4c0.1-0.3,0.1-0.5,0.1-0.8c0-4-11-0.2-24.6-0.2c-13.6,0-24.6-3.8-24.6,0.2&#9;&#9;&#9;&#9;c0,0.2,0,0.5,0.1,0.8C51.7,82.4,62.2,85.7,75,85.7z"/>			<path class="st5" d="M72.3,84.2l0.1,4h6.9l0.3-4.1c-1.5,0.1-3,0.1-4.6,0.1C74.1,84.2,73.2,84.2,72.3,84.2z M63.7,88.2h6.2&#9;&#9;&#9;&#9;l0.8-4.1c-2.5-0.1-4.9-0.4-7.2-0.6L63.7,88.2z M61.8,92.7l-1.4,2.2c1.9,1,3.9,1.9,6.1,2.6l-0.1-3.1L61.8,92.7z M89.9,91l-5.8,3.7&#9;&#9;&#9;&#9;l0.3,2.5c2.7-0.9,5.2-2.2,7.3-3.6L89.9,91z M88.5,83.9c-2.1,0.3-4.5,0.5-7,0.7l0.7,3.5h6.2L88.5,83.9z"/>			<path class="st1" d="M72.3,84.2l0.1,4h6.9l0.3-4.1c-1.5,0.1-3,0.1-4.6,0.1C74.1,84.2,73.2,84.2,72.3,84.2z M61.8,92L60,94.9&#9;&#9;&#9;&#9;c2,1.2,4.2,2.2,6.5,3l-0.1-4.1L61.8,92z M63.7,88.2h6.2l0.8-4.1c-2.5-0.1-4.9-0.4-7.2-0.6L63.7,88.2z M89.9,90.4l-5.8,3.7&#9;&#9;&#9;&#9;l0.4,3.5c2.8-1,5.4-2.4,7.5-4L89.9,90.4z M88.5,82.9c-2.1,0.3-4.5,0.5-7,0.7l0.7,3.5h6.2L88.5,82.9z"/>		</g>		<g>			<linearGradient id="SVGID_4_" gradientUnits="userSpaceOnUse" x1="75.3093" y1="72.9282" x2="75.3093" y2="81.4244">				<stop offset="0" style="stop-color:#1B1C20"/>				<stop offset="1" style="stop-color:#E9510F"/>			</linearGradient>			<polygon class="st7" points="69.2,77.2 81.4,77.2 75.6,68.2 &#9;&#9;&#9;"/>			<polygon class="st5" points="75.6,70.2 80.1,77.2 81.4,77.2 75.6,68.2 69.2,77.2 70.7,77.2 &#9;&#9;&#9;"/>		</g>		<g>			<path class="st0" d="M74.9,44.8c0,0-0.4-8,5.8-9.4l2.7,1.9c0,0-5.3,1.9-5.5,7.2L74.9,44.8z"/>			<path class="st0" d="M71.2,43.7c0,0-3.2-2.1-4.9,2.3c0,0,5.1-1.1,6.8-0.9v2.6l3.2-2.5c0,0,5.4-0.4,6.8,1.4V45l2.6,1.1l-0.5-1.6&#9;&#9;&#9;&#9;C85.3,44.4,74.4,42.9,71.2,43.7z"/>		</g>	</g></g><g id="Layer_2"/><g id="Layer_3"/><g id="Layer_4"/></svg>