<?xml version="1.0" standalone="no"?><!DOCTYPE svg PUBLIC "-//W3C//DTD SVG 1.1//EN" "http://www.w3.org/Graphics/SVG/1.1/DTD/svg11.dtd"><svg height="300" width="300" id="Sleigh0.svg" version="1.1" xmlns:xlink="http://www.w3.org/1999/xlink" x="0px" y="0px" viewBox="0 0 300 300" enable-background="new 0 0 300 300" xml:space="preserve" xmlns="http://www.w3.org/2000/svg"><defs xmlns="http://www.w3.org/1999/xhtml"><style type="text/css"><![CDATA[
* { border: 0px; margin: 0px; padding: 0px; }
html { background-color: rgb(255, 255, 255); font-family: Verdana, Arial; }
.webgl-content * { position: absolute; width: 100%; height: 100%; user-select: none; }
.webgl-content .logo, .progress { position: absolute; left: 50%; top: 50%; transform: translate(-50%, -50%); }
.webgl-content .logo { background: url("progressLogo.Light.png") center center / contain no-repeat; width: 154px; height: 130px; }
.webgl-content .progress { height: 18px; width: 141px; margin-top: 90px; }
.webgl-content .progress .empty { background: url("progressEmpty.Light.png") right center / cover no-repeat; float: right; width: 100%; height: 100%; display: inline-block; }
.webgl-content .progress .full { background: url("progressFull.Light.png") left center / cover no-repeat; float: left; width: 0%; height: 100%; display: inline-block; }
.webgl-content .logo.Dark { background-image: url("progressLogo.Dark.png"); }
.webgl-content .progress.Dark .empty { background-image: url("progressEmpty.Dark.png"); }
.webgl-content .progress.Dark .full { background-image: url("progressFull.Dark.png"); }
#loading-content { z-index: 10000; position: fixed; width: 100%; height: 100%; left: 0px; top: 0px; overflow: hidden; background: url("background.png"); }
.hud-intro .hud-intro-social .btn-discord, .hud-respawn .hud-respawn-social .btn-discord { background-image: url("//lordz.io/images/discord-icon.png"); }
.hud-intro .hud-intro-social .btn-twitter, .hud-respawn .hud-respawn-social .btn-twitter { background-image: url("//lordz.io/images/twitter-icon.png"); }
.hud-intro .hud-intro-social .btn-facebook, .hud-respawn .hud-respawn-social .btn-facebook { background-image: url("//lordz.io/images/facebook-icon.png"); }
.hud-intro .hud-intro-social .btn-youtube, .hud-respawn .hud-respawn-social .btn-youtube { background-image: url("//lordz.io/images/youtube-icon.png"); }
* { box-sizing: border-box; user-select: none; }
.btn { position: relative; display: inline-block; top: 0px; height: 36px; line-height: 36px; padding: 0px 20px; background: rgb(68, 68, 68); color: rgb(238, 238, 238); border: 0px; font-size: 14px; vertical-align: top; text-align: center; text-decoration: none; text-shadow: rgba(0, 0, 0, 0.4) 0px 1px 0px; box-shadow: rgba(0, 0, 0, 0.2) 0px 2px 10px, rgb(51, 51, 51) 0px 4px 0px; border-radius: 4px; transition: all 0.15s ease-in-out 0s; }
.btn:hover, .btn:active { background-color: rgb(85, 85, 85); color: rgb(255, 255, 255); }
.btn:active { top: 4px; box-shadow: rgba(0, 0, 0, 0.2) 0px 2px 10px !important; }
.btn-green { background-color: rgb(71, 149, 13); box-shadow: rgba(0, 0, 0, 0.2) 0px 2px 10px, rgb(53, 131, 0) 0px 4px 0px; }
.btn-green:hover, .btn-green:active { background-color: rgb(100, 184, 32); }
.btn-red { background-color: rgb(179, 53, 60); box-shadow: rgba(0, 0, 0, 0.2) 0px 2px 10px, rgb(161, 35, 42) 0px 4px 0px; }
.btn-red:hover, .btn-red:active { background-color: rgb(203, 87, 91); }
.btn-blue { background-color: rgb(29, 141, 238); box-shadow: rgba(0, 0, 0, 0.2) 0px 2px 10px, rgb(11, 123, 220) 0px 4px 0px; }
.btn-blue:hover, .btn-blue:active { background-color: rgb(79, 167, 238); }
.btn-purple { background-color: rgb(114, 55, 228); box-shadow: rgba(0, 0, 0, 0.2) 0px 2px 10px, rgb(96, 37, 210) 0px 4px 0px; }
.btn-purple:hover, .btn-purple:active { background-color: rgb(130, 89, 228); }
.btn-twitter { background-color: rgb(27, 149, 224); box-shadow: rgba(0, 0, 0, 0.2) 0px 2px 10px, rgb(9, 131, 206) 0px 4px 0px; }
.btn-twitter:hover, .btn-twitter:active { background-color: rgb(12, 122, 191); }
.btn-facebook { background-color: rgb(66, 103, 178); box-shadow: rgba(0, 0, 0, 0.2) 0px 2px 10px, rgb(48, 85, 160) 0px 4px 0px; }
.btn-facebook:hover, .btn-facebook:active { background-color: rgb(54, 88, 153); }
.btn-google { background-color: rgb(221, 75, 57); box-shadow: rgba(0, 0, 0, 0.2) 0px 2px 10px, rgb(203, 57, 39) 0px 4px 0px; }
.btn-google:hover, .btn-google:active { background-color: rgb(186, 63, 49); }
.btn-discord { background-color: rgb(114, 137, 218); box-shadow: rgba(0, 0, 0, 0.2) 0px 2px 10px, rgb(96, 119, 200) 0px 4px 0px; }
.btn-discord:hover, .btn-discord:active { background-color: rgb(90, 109, 176); }
.btn-youtube { background-color: rgb(229, 45, 39); box-shadow: rgba(0, 0, 0, 0.2) 0px 2px 10px, rgb(211, 27, 21) 0px 4px 0px; }
.btn-youtube:hover, .btn-youtube:active { background-color: rgb(186, 37, 33); }
.hud { position: fixed; top: 0px; left: 0px; bottom: 0px; right: 0px; }
.hud .hud-bottom-left { display: flex; position: absolute; bottom: 20px; left: 20px; flex-direction: column-reverse; }
.hud-intro .hud-intro-corner-bottom-left, .hud-respawn .hud-respawn-corner-bottom-left { position: fixed; bottom: 20px; left: 20px; text-align: left; }
.hud-intro .hud-intro-social, .hud-respawn .hud-respawn-social { width: 240px; line-height: 24px; font-size: 14px; color: rgb(119, 119, 119); }
.hud-intro .hud-intro-social .btn, .hud-respawn .hud-respawn-social .btn { display: block; float: left; margin: 0px 10px 0px 0px; width: 40px; height: 40px; line-height: 40px; background-size: 24px; background-position: center center; background-repeat: no-repeat; }
.hud-intro .hud-intro-more-games { position: relative; bottom: 5px; line-height: 20px; font-size: 14px; color: rgba(255, 255, 255, 0.4); text-shadow: rgba(0, 0, 0, 0.2) 0px 1px 3px; }
.hud-intro .hud-intro-more-games a { display: inline-block; padding: 0px 20px; line-height: 40px; background: rgb(132, 115, 212); color: rgb(238, 238, 238); text-decoration: none; border-radius: 4px; transition: all 0.15s ease-in-out 0s; }
.hud-intro .hud-intro-more-games a:hover, .hud-intro .hud-intro-more-games a:active { background: rgb(103, 90, 166); }
#preroll video { left: 0px; top: 0px; }
.fb_hidden { position: absolute; top: -10000px; z-index: 10001; }
.fb_reposition { overflow: hidden; position: relative; }
.fb_invisible { display: none; }
.fb_reset { background: none; border: 0px; border-spacing: 0px; color: rgb(0, 0, 0); cursor: auto; direction: ltr; font-family: "lucida grande", tahoma, verdana, arial, sans-serif; font-size: 11px; font-style: normal; font-variant: normal; font-weight: normal; letter-spacing: normal; line-height: 1; margin: 0px; overflow: visible; padding: 0px; text-align: left; text-decoration: none; text-indent: 0px; text-shadow: none; text-transform: none; visibility: visible; white-space: normal; word-spacing: normal; }
.fb_animate { animation: 0.3s ease 0s 1 normal forwards running fb_transform; }
.fb_dialog { background: rgba(82, 82, 82, 0.7); position: absolute; top: -10000px; z-index: 10001; }
.fb_dialog_advanced { border-radius: 8px; padding: 10px; }
.fb_dialog_content { background: rgb(255, 255, 255); color: rgb(55, 55, 55); }
.fb_dialog_close_icon { background: url("https://static.xx.fbcdn.net/rsrc.php/v3/yq/r/IE9JII6Z1Ys.png") 0px 0px no-repeat scroll transparent; cursor: pointer; display: block; height: 15px; position: absolute; right: 18px; top: 17px; width: 15px; }
.fb_dialog_mobile .fb_dialog_close_icon { left: 5px; right: auto; top: 5px; }
.fb_dialog_padding { background-color: transparent; position: absolute; width: 1px; z-index: -1; }
.fb_dialog_close_icon:hover { background: url("https://static.xx.fbcdn.net/rsrc.php/v3/yq/r/IE9JII6Z1Ys.png") 0px -15px no-repeat scroll transparent; }
.fb_dialog_close_icon:active { background: url("https://static.xx.fbcdn.net/rsrc.php/v3/yq/r/IE9JII6Z1Ys.png") 0px -30px no-repeat scroll transparent; }
.fb_dialog_iframe { line-height: 0; }
.fb_dialog_content .dialog_title { background: rgb(109, 132, 180); border: 1px solid rgb(54, 88, 153); color: rgb(255, 255, 255); font-size: 14px; font-weight: bold; margin: 0px; }
body.fb_hidden { height: 100%; left: 0px; margin: 0px; overflow: visible; position: absolute; top: -10000px; transform: none; width: 100%; }
.fb_dialog.fb_dialog_mobile.loading { background: url("https://static.xx.fbcdn.net/rsrc.php/v3/ya/r/3rhSv5V8j3o.gif") 50% 50% no-repeat white; min-height: 100%; min-width: 100%; overflow: hidden; position: absolute; top: 0px; z-index: 10001; }
.fb_dialog.fb_dialog_mobile.loading.centered { background: none; height: auto; min-height: initial; min-width: initial; width: auto; }
.fb_dialog.fb_dialog_mobile.loading.centered #fb_dialog_loader_spinner { width: 100%; }
.fb_dialog.fb_dialog_mobile.loading.centered .fb_dialog_content { background: none; }
.loading.centered #fb_dialog_loader_close { clear: both; color: rgb(255, 255, 255); display: block; font-size: 18px; padding-top: 20px; }
#fb-root #fb_dialog_ipad_overlay { background: rgba(0, 0, 0, 0.4); bottom: 0px; left: 0px; min-height: 100%; position: absolute; right: 0px; top: 0px; width: 100%; z-index: 10000; }
#fb-root #fb_dialog_ipad_overlay.hidden { display: none; }
.fb_dialog.fb_dialog_mobile.loading iframe { visibility: hidden; }
.fb_dialog_mobile .fb_dialog_iframe { position: sticky; top: 0px; }
.fb_dialog_content .dialog_header { border-bottom: 1px solid rgb(4, 59, 135); border-top-color: rgb(4, 59, 135); border-right-color: rgb(4, 59, 135); border-left-color: rgb(4, 59, 135); box-shadow: white 0px 1px 1px -1px inset; color: rgb(255, 255, 255); font: bold 14px Helvetica, sans-serif; text-overflow: ellipsis; text-shadow: rgba(0, 30, 84, 0.298) 0px -1px 0px; vertical-align: middle; white-space: nowrap; }
.fb_dialog_content .dialog_header table { height: 43px; width: 100%; }
.fb_dialog_content .dialog_header td.header_left { font-size: 12px; padding-left: 5px; vertical-align: middle; width: 60px; }
.fb_dialog_content .dialog_header td.header_right { font-size: 12px; padding-right: 5px; vertical-align: middle; width: 60px; }
.fb_dialog_content .touchable_button { background-clip: padding-box; border: 1px solid rgb(41, 72, 125); border-radius: 3px; display: inline-block; line-height: 18px; margin-top: 3px; max-width: 85px; padding: 4px 12px; position: relative; }
.fb_dialog_content .dialog_header .touchable_button input { background: none; border: none; color: rgb(255, 255, 255); font: bold 12px Helvetica, sans-serif; margin: 2px -12px; padding: 2px 6px 3px; text-shadow: rgba(0, 30, 84, 0.298) 0px -1px 0px; }
.fb_dialog_content .dialog_header .header_center { color: rgb(255, 255, 255); font-size: 16px; font-weight: bold; line-height: 18px; text-align: center; vertical-align: middle; }
.fb_dialog_content .dialog_content { background: url("https://static.xx.fbcdn.net/rsrc.php/v3/y9/r/jKEcVPZFk-2.gif") 50% 50% no-repeat; border-width: 0px 1px; border-right-style: solid; border-left-style: solid; border-right-color: rgb(74, 74, 74); border-left-color: rgb(74, 74, 74); border-image: initial; border-bottom-style: initial; border-bottom-color: initial; border-top-style: initial; border-top-color: initial; height: 150px; }
.fb_dialog_content .dialog_footer { background: rgb(245, 246, 247); border-width: 1px; border-style: solid; border-color: rgb(204, 204, 204) rgb(74, 74, 74) rgb(74, 74, 74); border-image: initial; height: 40px; }
#fb_dialog_loader_close { float: left; }
.fb_dialog.fb_dialog_mobile .fb_dialog_close_button { text-shadow: rgba(0, 30, 84, 0.298) 0px -1px 0px; }
.fb_dialog.fb_dialog_mobile .fb_dialog_close_icon { visibility: hidden; }
#fb_dialog_loader_spinner { animation: 1.2s linear 0s infinite normal none running rotateSpinner; background-color: transparent; background-image: url("https://static.xx.fbcdn.net/rsrc.php/v3/yD/r/t-wz8gw1xG1.png"); background-position: 50% 50%; background-repeat: no-repeat; height: 24px; width: 24px; }
.fb_iframe_widget { display: inline-block; position: relative; }
.fb_iframe_widget span { display: inline-block; position: relative; text-align: justify; }
.fb_iframe_widget iframe { position: absolute; }
.fb_iframe_widget_fluid_desktop, .fb_iframe_widget_fluid_desktop span, .fb_iframe_widget_fluid_desktop iframe { max-width: 100%; }
.fb_iframe_widget_fluid_desktop iframe { min-width: 220px; position: relative; }
.fb_iframe_widget_lift { z-index: 1; }
.fb_iframe_widget_fluid { display: inline; }
.fb_iframe_widget_fluid span { width: 100%; }
.st0 { fill: rgb(119, 183, 73); }
.st1 { fill: rgb(247, 175, 47); }
.st2 { fill: rgb(233, 81, 15); }
.st3 { fill: url("#SVGID_1_"); }
.st4 { fill: url("#SVGID_2_"); }
.st5 { fill: rgb(252, 242, 119); }
.st6 { fill: url("#SVGID_3_"); }
.st7 { fill: url("#SVGID_4_"); }
.st8 { fill: url("#SVGID_5_"); }
.st9 { fill: url("#SVGID_6_"); }
.st10 { fill: url("#SVGID_7_"); }
.st11 { fill: url("#SVGID_8_"); }
.st12 { fill: url("#SVGID_9_"); }
.st13 { fill: url("#SVGID_10_"); }
.st14 { fill: url("#SVGID_11_"); }
.st15 { fill: url("#SVGID_12_"); }
.st16 { fill: url("#SVGID_13_"); }
.st17 { fill: url("#SVGID_14_"); }
.st18 { fill: url("#SVGID_15_"); }
.st19 { fill: url("#SVGID_16_"); }
.st0 { fill: rgb(119, 183, 73); }
.st1 { fill: rgb(247, 175, 47); }
.st2 { fill: rgb(233, 81, 15); }
.st3 { fill: url("#SVGID_1_"); }
.st4 { fill: url("#SVGID_2_"); }
.st5 { fill: rgb(252, 242, 119); }
.st6 { fill: url("#SVGID_3_"); }
.st7 { fill: url("#SVGID_4_"); }
.st8 { fill: url("#SVGID_5_"); }
.st9 { fill: url("#SVGID_6_"); }
.st10 { fill: url("#SVGID_7_"); }
.st11 { fill: url("#SVGID_8_"); }
.st12 { fill: url("#SVGID_9_"); }
.st13 { fill: url("#SVGID_10_"); }
.st14 { fill: url("#SVGID_11_"); }
.st15 { fill: url("#SVGID_12_"); }
.st16 { fill: url("#SVGID_13_"); }
.st17 { fill: url("#SVGID_14_"); }
.st18 { fill: url("#SVGID_15_"); }
.st19 { fill: url("#SVGID_16_"); }
.st0 { fill: rgb(119, 183, 73); }
.st1 { fill: rgb(247, 175, 47); }
.st2 { fill: rgb(233, 81, 15); }
.st3 { fill: url("#SVGID_1_"); }
.st4 { fill: url("#SVGID_2_"); }
.st5 { fill: rgb(252, 242, 119); }
.st6 { fill: url("#SVGID_3_"); }
.st7 { fill: url("#SVGID_4_"); }
.st8 { fill: url("#SVGID_5_"); }
.st9 { fill: url("#SVGID_6_"); }
.st10 { fill: url("#SVGID_7_"); }
.st11 { fill: url("#SVGID_8_"); }
.st12 { fill: url("#SVGID_9_"); }
.st13 { fill: url("#SVGID_10_"); }
.st14 { fill: url("#SVGID_11_"); }
.st15 { fill: url("#SVGID_12_"); }
.st16 { fill: url("#SVGID_13_"); }
.st17 { fill: url("#SVGID_14_"); }
.st18 { fill: url("#SVGID_15_"); }
.st19 { fill: url("#SVGID_16_"); }
.st0 { fill: rgb(119, 183, 73); }
.st1 { fill: rgb(247, 175, 47); }
.st2 { fill: rgb(233, 81, 15); }
.st3 { fill: url("#SVGID_1_"); }
.st4 { fill: url("#SVGID_2_"); }
.st5 { fill: rgb(252, 242, 119); }
.st6 { fill: url("#SVGID_3_"); }
.st7 { fill: url("#SVGID_4_"); }
.st8 { fill: url("#SVGID_5_"); }
.st9 { fill: url("#SVGID_6_"); }
.st10 { fill: url("#SVGID_7_"); }
.st11 { fill: url("#SVGID_8_"); }
.st12 { fill: url("#SVGID_9_"); }
.st13 { fill: url("#SVGID_10_"); }
.st14 { fill: url("#SVGID_11_"); }
.st15 { fill: url("#SVGID_12_"); }
.st16 { fill: url("#SVGID_13_"); }
.st17 { fill: url("#SVGID_14_"); }
.st18 { fill: url("#SVGID_15_"); }
.st19 { fill: url("#SVGID_16_"); }]]></style></defs><g id="Layer_1">	<g>		<g>							<path fill="none" stroke="#DB3549" stroke-width="4.998" stroke-linecap="round" stroke-linejoin="round" stroke-miterlimit="10" d="&#9;&#9;&#9;&#9;M110,125.1c0,0,3.9,19.7,13.6,30.3"/>							<path fill="none" stroke="#DB3549" stroke-width="3.332" stroke-linecap="round" stroke-linejoin="round" stroke-miterlimit="10" d="&#9;&#9;&#9;&#9;M74.8,145.1c1.9,0,3.4,1.8,3.3,3.7c-0.1,1.9-1.6,3.5-3.3,4.1s-3.7,0.4-5.5-0.3c-3.1-1.2-5.7-4-6.3-7.4c-0.6-3.3,1.1-7,4.2-8.4&#9;&#9;&#9;&#9;c3-1.4,6.6-0.5,9.3,1.3c2.8,1.7,5,4.2,7.5,6.3c4.2,3.5,9.3,5.9,14.6,7c5.9,1.2,14.6-0.6,14-8.5c-0.2-2.9-2.3-5.5-5-6.5&#9;&#9;&#9;&#9;c-1.9-0.7-4.1-0.6-5.8,0.4c-1.7,1.1-2.8,3.2-2.4,5.1c0.4,2,2.3,3.6,4.3,3.5"/>			<path fill="#FF4F56" d="M116.2,118.2c-29.9,1.5-55.2,0.9-59,0.8c0.8,3.3,1.4,6.7,1.9,10c2.9,0.1,7.8,0.1,14.3,0.1&#9;&#9;&#9;&#9;c11,0,26.4-0.2,43.3-1c2.8-0.1,4.9-2.5,4.7-5.2C121.3,120.2,118.9,118,116.2,118.2z"/>							<path fill="none" stroke="#DB3549" stroke-width="4.998" stroke-linecap="round" stroke-linejoin="round" stroke-miterlimit="10" d="&#9;&#9;&#9;&#9;M66.1,157.1c0,0-8.4-14.8-11.6-42.3"/>							<path fill="none" stroke="#DB3549" stroke-width="3.332" stroke-linecap="round" stroke-linejoin="round" stroke-miterlimit="10" d="&#9;&#9;&#9;&#9;M266.2,169.7c0.9-1.4,3-1.5,4.3-0.6c1.3,1,1.7,2.8,1.3,4.4c-0.4,1.6-1.6,2.9-2.9,3.8c-2.4,1.6-5.7,2.1-8.4,0.9&#9;&#9;&#9;&#9;c-2.7-1.2-4.5-4.3-4-7.2c0.5-2.8,2.9-4.9,5.5-6.1c2.6-1.1,5.5-1.5,8.2-2.3c4.6-1.3,8.8-3.7,12.3-7c3.8-3.7,6.8-10.8,0.8-14.3&#9;&#9;&#9;&#9;c-2.2-1.2-5.1-1.1-7.1,0.4c-1.4,1-2.5,2.6-2.6,4.4c-0.1,1.8,0.9,3.6,2.5,4.3c1.6,0.7,3.7,0.2,4.6-1.4"/>			<path fill="#FF4F56" d="M82.6,159.3L68,158c0,0,9.4,25,25.3,39.9h21.6C114.9,197.9,94.8,184.6,82.6,159.3z M145.5,158.8&#9;&#9;&#9;&#9;l20.3,38.3h12.3l-23-43.4L145.5,158.8z M191.3,153.7l-9.6,5.1l20.3,38.3h12.3L191.3,153.7z M109.3,158.8l20.3,38.3h12.3l-23-43.4&#9;&#9;&#9;&#9;L109.3,158.8z"/>			<path fill="#FF4F56" d="M82.6,159.3L68,158c0,0,9.4,25,25.3,39.9h21.6C114.9,197.9,94.8,184.6,82.6,159.3z M145.5,158.8&#9;&#9;&#9;&#9;l20.3,38.3h12.3l-23-43.4L145.5,158.8z M191.3,153.7l-9.6,5.1l20.3,38.3h12.3L191.3,153.7z M109.3,158.8l20.3,38.3h12.3l-23-43.4&#9;&#9;&#9;&#9;L109.3,158.8z"/>			<path fill="#DB3549" d="M68,158c0,0,2,5.2,5.6,12.2h15.2c-2.2-3.4-4.3-7-6.2-10.9L68,158z M109.3,158.8l6.1,11.5h12.3l-8.8-16.6&#9;&#9;&#9;&#9;L109.3,158.8z M145.5,158.8l6.1,11.5h12.3l-8.8-16.6L145.5,158.8z M191.3,153.7l-9.6,5.1l6.1,11.5h12.3L191.3,153.7z"/>			<path fill="#FF4F56" d="M263.8,160.4H63.3c-2.3,0-4.2-1.9-4.2-4.2v0c0-2.3,1.9-4.2,4.2-4.2h200.6c2.3,0,4.2,1.9,4.2,4.2v0&#9;&#9;&#9;&#9;C268,158.5,266.1,160.4,263.8,160.4z"/>			<path fill="#DB3549" d="M233.7,203.4c23-17.7,46.4-68.4,46.4-68.4c8.1-15.1,2.3-17.6-2.2-18.5c-6.5-1.3-18.3,3.1-14.5,11.7&#9;&#9;&#9;&#9;c3.8,8.6,12.4,1,12.4,1L227.3,193h-136l-42.9,5.5c-1-3.4-4.2-5.9-7.9-5.9c-4.6,0-8.3,3.7-8.3,8.3c0,0.9,0.2,1.7,0.5,2.5H233.7z"/>			<g>				<path fill="#FF4F56" d="M274.5,124c1.3,0.7,1.7,2.5,1.2,3.9c-0.3,0.7-0.9,1.3-1.6,1.7c-0.7,0.3-1.5,0.5-2.3,0.4&#9;&#9;&#9;&#9;&#9;c-0.8-0.1-1.6-0.4-2.2-1c-0.6-0.5-1.1-1.3-1.3-2c-0.5-1.5-0.3-3.3,0.7-4.7c1.8-2.8,5.6-3.7,8.6-2.4c1.5,0.6,2.8,2,3.4,3.5&#9;&#9;&#9;&#9;&#9;c0.6,1.5,0.7,3.2,0.5,4.7c-0.2,1.5-0.8,3-1.5,4.3c-0.7,1.3-1.5,2.6-2.4,3.7c-1.8,2.3-3.8,4.2-5.8,6.2c-1.9,2-3.7,4.1-5,6.4&#9;&#9;&#9;&#9;&#9;c-0.3,0.6-0.6,1.2-0.8,1.8c-0.2,0.6-0.4,1.3-0.5,2c-0.1,1.3,0.1,2.8,1.1,3.8c-0.6-0.4-1-1-1.3-1.7c-0.3-0.7-0.4-1.4-0.4-2.1&#9;&#9;&#9;&#9;&#9;c0-0.7,0.1-1.5,0.3-2.2c0.2-0.7,0.5-1.4,0.7-2.1c1.2-2.7,2.9-5,4.8-7.1c1.8-2.2,3.8-4.1,5.4-6.3c0.8-1.1,1.6-2.2,2.1-3.4&#9;&#9;&#9;&#9;&#9;c0.6-1.2,1-2.4,1.2-3.6c0.2-1.2,0.1-2.5-0.3-3.6c-0.4-1.1-1.2-1.9-2.2-2.4c-1-0.5-2.3-0.6-3.5-0.4c-1.2,0.3-2.3,0.9-3,1.8&#9;&#9;&#9;&#9;&#9;c-0.7,0.9-1,2.2-0.7,3.3c0.3,1.2,1.1,2.1,2.3,2.4c1.2,0.3,2.6-0.1,3.2-1.2C275.7,126.5,275.6,124.9,274.5,124z"/>			</g>			<circle fill="#22D4C2" cx="101" cy="197.7" r="2.2"/>			<circle fill="#22D4C2" cx="134.1" cy="197.7" r="2.2"/>			<circle fill="#22D4C2" cx="171.3" cy="197.7" r="2.2"/>			<circle fill="#22D4C2" cx="207.7" cy="197.7" r="2.2"/>			<path fill="#4A3F6F" d="M69.8,120.7c-1.9,0-3.3,1.5-3.3,3.4c0,1.9,1.5,3.3,3.4,3.3c1.9,0,3.3-1.5,3.3-3.4&#9;&#9;&#9;&#9;C73.2,122.2,71.7,120.7,69.8,120.7z M78.1,120.7c-1.9,0-3.3,1.5-3.3,3.4c0,1.9,1.5,3.3,3.4,3.3c1.9,0,3.3-1.5,3.3-3.4&#9;&#9;&#9;&#9;C81.4,122.1,79.9,120.6,78.1,120.7z M86.3,120.6c-1.9,0-3.3,1.5-3.3,3.4c0,1.9,1.5,3.3,3.4,3.3c1.9,0,3.3-1.5,3.3-3.4&#9;&#9;&#9;&#9;C89.6,122.1,88.1,120.6,86.3,120.6z M94.5,120.6c-1.9,0-3.3,1.5-3.3,3.4c0,1.9,1.5,3.3,3.4,3.3s3.3-1.5,3.3-3.4&#9;&#9;&#9;&#9;C97.9,122.1,96.4,120.6,94.5,120.6z M102.7,120.5c-1.9,0-3.3,1.5-3.3,3.4c0,1.9,1.5,3.3,3.4,3.3c1.9,0,3.3-1.5,3.3-3.4&#9;&#9;&#9;&#9;C106.1,122,104.6,120.5,102.7,120.5z"/>		</g>	</g></g><g id="Layer_3">	<g>		<path fill="#FFFFFF" d="M290,213.2c-1.4-2.6-4.1-3.1-6.4-5.4c-23.2-22.8-48.4-6-70.1-5.3c-19.6,0.7-33.5-5.6-53.2-4.9&#9;&#9;&#9;c-11.9,0.4-25.3,2.8-37.1,3.9c-11.5,1.1-21.8,2.4-33.2,0.5c-15.1-2.5-29.6-9-44.9-4.8c-6.8,1.9-13.4,4.8-20.3,6.2&#9;&#9;&#9;c-3.2,0.6-6.5,1-9.4,2.4c-12,5.7,1.1,7.3,6.5,7.3c5.7,0,11.4,0,17.2,0c17.1,0,34.1,0,51.2,0c42,0,83.9,0,125.9,0&#9;&#9;&#9;c24.4,0,48.8,0,73.3,0C289.5,213.2,290,213.1,290,213.2z"/>		<g>			<path fill="#22D4C2" d="M44.5,203.1c1.8-1.8,4.2-3,6.6-3.8c2.5-0.8,5.1-1.1,7.7-1c2.6,0.1,5.2,0.7,7.6,1.8c2.4,1,4.6,2.5,6.2,4.5&#9;&#9;&#9;&#9;c-2.4-0.8-4.7-1.5-7-2c-2.3-0.5-4.6-0.8-6.9-0.9c-2.3-0.1-4.6-0.1-7,0.2C49.4,202.1,47,202.5,44.5,203.1z"/>		</g>		<g>			<path fill="#22D4C2" d="M174.5,200.3c3.8-1.5,8.1-1.5,12.2-0.9c4.1,0.6,8,1.8,11.7,3.1c3.8,1.3,7.5,2.5,11.2,3.3&#9;&#9;&#9;&#9;c3.8,0.8,7.6,1.1,11.6,0.4c-3.5,2-7.9,2.5-12,2.2c-4.1-0.3-8.1-1.4-11.9-2.7c-3.8-1.3-7.5-2.7-11.2-3.7&#9;&#9;&#9;&#9;C182.3,200.9,178.5,200.2,174.5,200.3z"/>		</g>		<g>			<path fill="#22D4C2" d="M236.2,205.8c0.9-1.6,2.4-2.7,4-3.6c1.6-0.8,3.4-1.3,5.2-1.4c1.8-0.1,3.7,0.1,5.4,0.7&#9;&#9;&#9;&#9;c1.7,0.6,3.3,1.6,4.4,3c-1.8-0.2-3.4-0.4-5-0.4c-1.6-0.1-3.1-0.1-4.6,0c-1.5,0.1-3,0.3-4.6,0.6C239.5,205,238,205.4,236.2,205.8z&#9;&#9;&#9;&#9;"/>		</g>		<g>			<path fill="#22D4C2" d="M265.7,205c0.7-0.5,1.3-0.7,1.8-0.7c0.5-0.1,1,0,1.5,0.1c0.4,0.2,0.9,0.4,1.2,0.8&#9;&#9;&#9;&#9;c0.4,0.4,0.7,0.9,0.9,1.7c-0.7,0.5-1.3,0.7-1.8,0.7c-0.5,0.1-1,0-1.5-0.2c-0.4-0.2-0.9-0.4-1.2-0.8&#9;&#9;&#9;&#9;C266.3,206.3,265.9,205.8,265.7,205z"/>		</g>	</g></g></svg>