<?xml version="1.0" standalone="no"?><!DOCTYPE svg PUBLIC "-//W3C//DTD SVG 1.1//EN" "http://www.w3.org/Graphics/SVG/1.1/DTD/svg11.dtd"><svg height="225" width="225" version="1.1" id="SnowMan0.svg" xmlns:xlink="http://www.w3.org/1999/xlink" x="0px" y="0px" viewBox="0 0 300 300" enable-background="new 0 0 300 300" xml:space="preserve" xmlns="http://www.w3.org/2000/svg"><defs xmlns="http://www.w3.org/1999/xhtml"><style type="text/css"><![CDATA[
* { border: 0px; margin: 0px; padding: 0px; }
html { background-color: rgb(255, 255, 255); font-family: Verdana, Arial; }
.webgl-content * { position: absolute; width: 100%; height: 100%; user-select: none; }
.webgl-content .logo, .progress { position: absolute; left: 50%; top: 50%; transform: translate(-50%, -50%); }
.webgl-content .logo { background: url("progressLogo.Light.png") center center / contain no-repeat; width: 154px; height: 130px; }
.webgl-content .progress { height: 18px; width: 141px; margin-top: 90px; }
.webgl-content .progress .empty { background: url("progressEmpty.Light.png") right center / cover no-repeat; float: right; width: 100%; height: 100%; display: inline-block; }
.webgl-content .progress .full { background: url("progressFull.Light.png") left center / cover no-repeat; float: left; width: 0%; height: 100%; display: inline-block; }
.webgl-content .logo.Dark { background-image: url("progressLogo.Dark.png"); }
.webgl-content .progress.Dark .empty { background-image: url("progressEmpty.Dark.png"); }
.webgl-content .progress.Dark .full { background-image: url("progressFull.Dark.png"); }
#loading-content { z-index: 10000; position: fixed; width: 100%; height: 100%; left: 0px; top: 0px; overflow: hidden; background: url("background.png"); }
.hud-intro .hud-intro-social .btn-discord, .hud-respawn .hud-respawn-social .btn-discord { background-image: url("//lordz.io/images/discord-icon.png"); }
.hud-intro .hud-intro-social .btn-twitter, .hud-respawn .hud-respawn-social .btn-twitter { background-image: url("//lordz.io/images/twitter-icon.png"); }
.hud-intro .hud-intro-social .btn-facebook, .hud-respawn .hud-respawn-social .btn-facebook { background-image: url("//lordz.io/images/facebook-icon.png"); }
.hud-intro .hud-intro-social .btn-youtube, .hud-respawn .hud-respawn-social .btn-youtube { background-image: url("//lordz.io/images/youtube-icon.png"); }
* { box-sizing: border-box; user-select: none; }
.btn { position: relative; display: inline-block; top: 0px; height: 36px; line-height: 36px; padding: 0px 20px; background: rgb(68, 68, 68); color: rgb(238, 238, 238); border: 0px; font-size: 14px; vertical-align: top; text-align: center; text-decoration: none; text-shadow: rgba(0, 0, 0, 0.4) 0px 1px 0px; box-shadow: rgba(0, 0, 0, 0.2) 0px 2px 10px, rgb(51, 51, 51) 0px 4px 0px; border-radius: 4px; transition: all 0.15s ease-in-out 0s; }
.btn:hover, .btn:active { background-color: rgb(85, 85, 85); color: rgb(255, 255, 255); }
.btn:active { top: 4px; box-shadow: rgba(0, 0, 0, 0.2) 0px 2px 10px !important; }
.btn-green { background-color: rgb(71, 149, 13); box-shadow: rgba(0, 0, 0, 0.2) 0px 2px 10px, rgb(53, 131, 0) 0px 4px 0px; }
.btn-green:hover, .btn-green:active { background-color: rgb(100, 184, 32); }
.btn-red { background-color: rgb(179, 53, 60); box-shadow: rgba(0, 0, 0, 0.2) 0px 2px 10px, rgb(161, 35, 42) 0px 4px 0px; }
.btn-red:hover, .btn-red:active { background-color: rgb(203, 87, 91); }
.btn-blue { background-color: rgb(29, 141, 238); box-shadow: rgba(0, 0, 0, 0.2) 0px 2px 10px, rgb(11, 123, 220) 0px 4px 0px; }
.btn-blue:hover, .btn-blue:active { background-color: rgb(79, 167, 238); }
.btn-purple { background-color: rgb(114, 55, 228); box-shadow: rgba(0, 0, 0, 0.2) 0px 2px 10px, rgb(96, 37, 210) 0px 4px 0px; }
.btn-purple:hover, .btn-purple:active { background-color: rgb(130, 89, 228); }
.btn-twitter { background-color: rgb(27, 149, 224); box-shadow: rgba(0, 0, 0, 0.2) 0px 2px 10px, rgb(9, 131, 206) 0px 4px 0px; }
.btn-twitter:hover, .btn-twitter:active { background-color: rgb(12, 122, 191); }
.btn-facebook { background-color: rgb(66, 103, 178); box-shadow: rgba(0, 0, 0, 0.2) 0px 2px 10px, rgb(48, 85, 160) 0px 4px 0px; }
.btn-facebook:hover, .btn-facebook:active { background-color: rgb(54, 88, 153); }
.btn-google { background-color: rgb(221, 75, 57); box-shadow: rgba(0, 0, 0, 0.2) 0px 2px 10px, rgb(203, 57, 39) 0px 4px 0px; }
.btn-google:hover, .btn-google:active { background-color: rgb(186, 63, 49); }
.btn-discord { background-color: rgb(114, 137, 218); box-shadow: rgba(0, 0, 0, 0.2) 0px 2px 10px, rgb(96, 119, 200) 0px 4px 0px; }
.btn-discord:hover, .btn-discord:active { background-color: rgb(90, 109, 176); }
.btn-youtube { background-color: rgb(229, 45, 39); box-shadow: rgba(0, 0, 0, 0.2) 0px 2px 10px, rgb(211, 27, 21) 0px 4px 0px; }
.btn-youtube:hover, .btn-youtube:active { background-color: rgb(186, 37, 33); }
.hud { position: fixed; top: 0px; left: 0px; bottom: 0px; right: 0px; }
.hud .hud-bottom-left { display: flex; position: absolute; bottom: 20px; left: 20px; flex-direction: column-reverse; }
.hud-intro .hud-intro-corner-bottom-left, .hud-respawn .hud-respawn-corner-bottom-left { position: fixed; bottom: 20px; left: 20px; text-align: left; }
.hud-intro .hud-intro-social, .hud-respawn .hud-respawn-social { width: 240px; line-height: 24px; font-size: 14px; color: rgb(119, 119, 119); }
.hud-intro .hud-intro-social .btn, .hud-respawn .hud-respawn-social .btn { display: block; float: left; margin: 0px 10px 0px 0px; width: 40px; height: 40px; line-height: 40px; background-size: 24px; background-position: center center; background-repeat: no-repeat; }
.hud-intro .hud-intro-more-games { position: relative; bottom: 5px; line-height: 20px; font-size: 14px; color: rgba(255, 255, 255, 0.4); text-shadow: rgba(0, 0, 0, 0.2) 0px 1px 3px; }
.hud-intro .hud-intro-more-games a { display: inline-block; padding: 0px 20px; line-height: 40px; background: rgb(132, 115, 212); color: rgb(238, 238, 238); text-decoration: none; border-radius: 4px; transition: all 0.15s ease-in-out 0s; }
.hud-intro .hud-intro-more-games a:hover, .hud-intro .hud-intro-more-games a:active { background: rgb(103, 90, 166); }
#preroll video { left: 0px; top: 0px; }
.fb_hidden { position: absolute; top: -10000px; z-index: 10001; }
.fb_reposition { overflow: hidden; position: relative; }
.fb_invisible { display: none; }
.fb_reset { background: none; border: 0px; border-spacing: 0px; color: rgb(0, 0, 0); cursor: auto; direction: ltr; font-family: "lucida grande", tahoma, verdana, arial, sans-serif; font-size: 11px; font-style: normal; font-variant: normal; font-weight: normal; letter-spacing: normal; line-height: 1; margin: 0px; overflow: visible; padding: 0px; text-align: left; text-decoration: none; text-indent: 0px; text-shadow: none; text-transform: none; visibility: visible; white-space: normal; word-spacing: normal; }
.fb_animate { animation: 0.3s ease 0s 1 normal forwards running fb_transform; }
.fb_dialog { background: rgba(82, 82, 82, 0.7); position: absolute; top: -10000px; z-index: 10001; }
.fb_dialog_advanced { border-radius: 8px; padding: 10px; }
.fb_dialog_content { background: rgb(255, 255, 255); color: rgb(55, 55, 55); }
.fb_dialog_close_icon { background: url("https://static.xx.fbcdn.net/rsrc.php/v3/yq/r/IE9JII6Z1Ys.png") 0px 0px no-repeat scroll transparent; cursor: pointer; display: block; height: 15px; position: absolute; right: 18px; top: 17px; width: 15px; }
.fb_dialog_mobile .fb_dialog_close_icon { left: 5px; right: auto; top: 5px; }
.fb_dialog_padding { background-color: transparent; position: absolute; width: 1px; z-index: -1; }
.fb_dialog_close_icon:hover { background: url("https://static.xx.fbcdn.net/rsrc.php/v3/yq/r/IE9JII6Z1Ys.png") 0px -15px no-repeat scroll transparent; }
.fb_dialog_close_icon:active { background: url("https://static.xx.fbcdn.net/rsrc.php/v3/yq/r/IE9JII6Z1Ys.png") 0px -30px no-repeat scroll transparent; }
.fb_dialog_iframe { line-height: 0; }
.fb_dialog_content .dialog_title { background: rgb(109, 132, 180); border: 1px solid rgb(54, 88, 153); color: rgb(255, 255, 255); font-size: 14px; font-weight: bold; margin: 0px; }
body.fb_hidden { height: 100%; left: 0px; margin: 0px; overflow: visible; position: absolute; top: -10000px; transform: none; width: 100%; }
.fb_dialog.fb_dialog_mobile.loading { background: url("https://static.xx.fbcdn.net/rsrc.php/v3/ya/r/3rhSv5V8j3o.gif") 50% 50% no-repeat white; min-height: 100%; min-width: 100%; overflow: hidden; position: absolute; top: 0px; z-index: 10001; }
.fb_dialog.fb_dialog_mobile.loading.centered { background: none; height: auto; min-height: initial; min-width: initial; width: auto; }
.fb_dialog.fb_dialog_mobile.loading.centered #fb_dialog_loader_spinner { width: 100%; }
.fb_dialog.fb_dialog_mobile.loading.centered .fb_dialog_content { background: none; }
.loading.centered #fb_dialog_loader_close { clear: both; color: rgb(255, 255, 255); display: block; font-size: 18px; padding-top: 20px; }
#fb-root #fb_dialog_ipad_overlay { background: rgba(0, 0, 0, 0.4); bottom: 0px; left: 0px; min-height: 100%; position: absolute; right: 0px; top: 0px; width: 100%; z-index: 10000; }
#fb-root #fb_dialog_ipad_overlay.hidden { display: none; }
.fb_dialog.fb_dialog_mobile.loading iframe { visibility: hidden; }
.fb_dialog_mobile .fb_dialog_iframe { position: sticky; top: 0px; }
.fb_dialog_content .dialog_header { border-bottom: 1px solid rgb(4, 59, 135); border-top-color: rgb(4, 59, 135); border-right-color: rgb(4, 59, 135); border-left-color: rgb(4, 59, 135); box-shadow: white 0px 1px 1px -1px inset; color: rgb(255, 255, 255); font: bold 14px Helvetica, sans-serif; text-overflow: ellipsis; text-shadow: rgba(0, 30, 84, 0.298) 0px -1px 0px; vertical-align: middle; white-space: nowrap; }
.fb_dialog_content .dialog_header table { height: 43px; width: 100%; }
.fb_dialog_content .dialog_header td.header_left { font-size: 12px; padding-left: 5px; vertical-align: middle; width: 60px; }
.fb_dialog_content .dialog_header td.header_right { font-size: 12px; padding-right: 5px; vertical-align: middle; width: 60px; }
.fb_dialog_content .touchable_button { background-clip: padding-box; border: 1px solid rgb(41, 72, 125); border-radius: 3px; display: inline-block; line-height: 18px; margin-top: 3px; max-width: 85px; padding: 4px 12px; position: relative; }
.fb_dialog_content .dialog_header .touchable_button input { background: none; border: none; color: rgb(255, 255, 255); font: bold 12px Helvetica, sans-serif; margin: 2px -12px; padding: 2px 6px 3px; text-shadow: rgba(0, 30, 84, 0.298) 0px -1px 0px; }
.fb_dialog_content .dialog_header .header_center { color: rgb(255, 255, 255); font-size: 16px; font-weight: bold; line-height: 18px; text-align: center; vertical-align: middle; }
.fb_dialog_content .dialog_content { background: url("https://static.xx.fbcdn.net/rsrc.php/v3/y9/r/jKEcVPZFk-2.gif") 50% 50% no-repeat; border-width: 0px 1px; border-right-style: solid; border-left-style: solid; border-right-color: rgb(74, 74, 74); border-left-color: rgb(74, 74, 74); border-image: initial; border-bottom-style: initial; border-bottom-color: initial; border-top-style: initial; border-top-color: initial; height: 150px; }
.fb_dialog_content .dialog_footer { background: rgb(245, 246, 247); border-width: 1px; border-style: solid; border-color: rgb(204, 204, 204) rgb(74, 74, 74) rgb(74, 74, 74); border-image: initial; height: 40px; }
#fb_dialog_loader_close { float: left; }
.fb_dialog.fb_dialog_mobile .fb_dialog_close_button { text-shadow: rgba(0, 30, 84, 0.298) 0px -1px 0px; }
.fb_dialog.fb_dialog_mobile .fb_dialog_close_icon { visibility: hidden; }
#fb_dialog_loader_spinner { animation: 1.2s linear 0s infinite normal none running rotateSpinner; background-color: transparent; background-image: url("https://static.xx.fbcdn.net/rsrc.php/v3/yD/r/t-wz8gw1xG1.png"); background-position: 50% 50%; background-repeat: no-repeat; height: 24px; width: 24px; }
.fb_iframe_widget { display: inline-block; position: relative; }
.fb_iframe_widget span { display: inline-block; position: relative; text-align: justify; }
.fb_iframe_widget iframe { position: absolute; }
.fb_iframe_widget_fluid_desktop, .fb_iframe_widget_fluid_desktop span, .fb_iframe_widget_fluid_desktop iframe { max-width: 100%; }
.fb_iframe_widget_fluid_desktop iframe { min-width: 220px; position: relative; }
.fb_iframe_widget_lift { z-index: 1; }
.fb_iframe_widget_fluid { display: inline; }
.fb_iframe_widget_fluid span { width: 100%; }
.st0 { fill: rgb(119, 183, 73); }
.st1 { fill: rgb(247, 175, 47); }
.st2 { fill: rgb(233, 81, 15); }
.st3 { fill: url("#SVGID_1_"); }
.st4 { fill: url("#SVGID_2_"); }
.st5 { fill: rgb(252, 242, 119); }
.st6 { fill: url("#SVGID_3_"); }
.st7 { fill: url("#SVGID_4_"); }
.st8 { fill: url("#SVGID_5_"); }
.st9 { fill: url("#SVGID_6_"); }
.st10 { fill: url("#SVGID_7_"); }
.st11 { fill: url("#SVGID_8_"); }
.st12 { fill: url("#SVGID_9_"); }
.st13 { fill: url("#SVGID_10_"); }
.st14 { fill: url("#SVGID_11_"); }
.st15 { fill: url("#SVGID_12_"); }
.st16 { fill: url("#SVGID_13_"); }
.st17 { fill: url("#SVGID_14_"); }
.st18 { fill: url("#SVGID_15_"); }
.st19 { fill: url("#SVGID_16_"); }
.st0 { fill: rgb(119, 183, 73); }
.st1 { fill: rgb(247, 175, 47); }
.st2 { fill: rgb(233, 81, 15); }
.st3 { fill: url("#SVGID_1_"); }
.st4 { fill: url("#SVGID_2_"); }
.st5 { fill: rgb(252, 242, 119); }
.st6 { fill: url("#SVGID_3_"); }
.st7 { fill: url("#SVGID_4_"); }
.st8 { fill: url("#SVGID_5_"); }
.st9 { fill: url("#SVGID_6_"); }
.st10 { fill: url("#SVGID_7_"); }
.st11 { fill: url("#SVGID_8_"); }
.st12 { fill: url("#SVGID_9_"); }
.st13 { fill: url("#SVGID_10_"); }
.st14 { fill: url("#SVGID_11_"); }
.st15 { fill: url("#SVGID_12_"); }
.st16 { fill: url("#SVGID_13_"); }
.st17 { fill: url("#SVGID_14_"); }
.st18 { fill: url("#SVGID_15_"); }
.st19 { fill: url("#SVGID_16_"); }
.st0 { fill: rgb(119, 183, 73); }
.st1 { fill: rgb(247, 175, 47); }
.st2 { fill: rgb(233, 81, 15); }
.st3 { fill: url("#SVGID_1_"); }
.st4 { fill: url("#SVGID_2_"); }
.st5 { fill: rgb(252, 242, 119); }
.st6 { fill: url("#SVGID_3_"); }
.st7 { fill: url("#SVGID_4_"); }
.st8 { fill: url("#SVGID_5_"); }
.st9 { fill: url("#SVGID_6_"); }
.st10 { fill: url("#SVGID_7_"); }
.st11 { fill: url("#SVGID_8_"); }
.st12 { fill: url("#SVGID_9_"); }
.st13 { fill: url("#SVGID_10_"); }
.st14 { fill: url("#SVGID_11_"); }
.st15 { fill: url("#SVGID_12_"); }
.st16 { fill: url("#SVGID_13_"); }
.st17 { fill: url("#SVGID_14_"); }
.st18 { fill: url("#SVGID_15_"); }
.st19 { fill: url("#SVGID_16_"); }
.st0 { fill: rgb(119, 183, 73); }
.st1 { fill: rgb(247, 175, 47); }
.st2 { fill: rgb(233, 81, 15); }
.st3 { fill: url("#SVGID_1_"); }
.st4 { fill: url("#SVGID_2_"); }
.st5 { fill: rgb(252, 242, 119); }
.st6 { fill: url("#SVGID_3_"); }
.st7 { fill: url("#SVGID_4_"); }
.st8 { fill: url("#SVGID_5_"); }
.st9 { fill: url("#SVGID_6_"); }
.st10 { fill: url("#SVGID_7_"); }
.st11 { fill: url("#SVGID_8_"); }
.st12 { fill: url("#SVGID_9_"); }
.st13 { fill: url("#SVGID_10_"); }
.st14 { fill: url("#SVGID_11_"); }
.st15 { fill: url("#SVGID_12_"); }
.st16 { fill: url("#SVGID_13_"); }
.st17 { fill: url("#SVGID_14_"); }
.st18 { fill: url("#SVGID_15_"); }
.st19 { fill: url("#SVGID_16_"); }]]></style></defs><g>	<g>					<path fill="none" stroke="#4A3F6F" stroke-width="2.2892" stroke-linecap="round" stroke-linejoin="round" stroke-miterlimit="10" d="&#9;&#9;&#9;M225.4,180.8c2.2-7.1,10.1-11.6,17.5-11c7.4,0.6,14,5.7,17.7,12.2c3.7,6.5,4.8,14.2,4.4,21.6"/>		<g>							<path fill="none" stroke="#4A3F6F" stroke-width="2.2892" stroke-linecap="round" stroke-linejoin="round" stroke-miterlimit="10" d="&#9;&#9;&#9;&#9;M264.7,203c2.5-2.9,6.7-4.4,10.5-3.5c3.8,0.8,7,3.8,8.1,7.6"/>							<path fill="none" stroke="#4A3F6F" stroke-width="2.2892" stroke-linecap="round" stroke-linejoin="round" stroke-miterlimit="10" d="&#9;&#9;&#9;&#9;M264.3,203.2c3.6-0.1,7.2,1.9,9,5c1.8,3.1,1.9,7.2,0.1,10.3"/>							<path fill="none" stroke="#4A3F6F" stroke-width="2.2892" stroke-linecap="round" stroke-linejoin="round" stroke-miterlimit="10" d="&#9;&#9;&#9;&#9;M263.7,203.5c2.7,4.9,2.2,11.3-1.1,15.7"/>							<path fill="none" stroke="#4A3F6F" stroke-width="2.2892" stroke-linecap="round" stroke-linejoin="round" stroke-miterlimit="10" d="&#9;&#9;&#9;&#9;M264.7,204.2c-2.3-1.8-4.7-3.7-7.6-4.2c-2.9-0.5-6.3,0.9-7,3.8"/>		</g>	</g>	<g>					<path fill="none" stroke="#4A3F6F" stroke-width="2.2892" stroke-linecap="round" stroke-linejoin="round" stroke-miterlimit="10" d="&#9;&#9;&#9;M76.7,179.8c-1.6-7.3-9-12.4-16.5-12.5s-14.5,4.5-18.7,10.6c-4.3,6.1-6,13.7-6.3,21.1"/>		<g>							<path fill="none" stroke="#4A3F6F" stroke-width="2.2892" stroke-linecap="round" stroke-linejoin="round" stroke-miterlimit="10" d="&#9;&#9;&#9;&#9;M35.6,198.4c-2.2-3.2-6.3-4.9-10.1-4.4s-7.3,3.2-8.7,6.8"/>							<path fill="none" stroke="#4A3F6F" stroke-width="2.2892" stroke-linecap="round" stroke-linejoin="round" stroke-miterlimit="10" d="&#9;&#9;&#9;&#9;M36,198.7c-3.6-0.4-7.3,1.3-9.4,4.2c-2.1,2.9-2.5,7-1,10.3"/>							<path fill="none" stroke="#4A3F6F" stroke-width="2.2892" stroke-linecap="round" stroke-linejoin="round" stroke-miterlimit="10" d="&#9;&#9;&#9;&#9;M36.5,199.1c-3.1,4.6-3.2,11-0.3,15.8"/>							<path fill="none" stroke="#4A3F6F" stroke-width="2.2892" stroke-linecap="round" stroke-linejoin="round" stroke-miterlimit="10" d="&#9;&#9;&#9;&#9;M35.5,199.7c2.5-1.6,5-3.2,8-3.5c2.9-0.2,6.2,1.5,6.7,4.4"/>		</g>	</g>	<path fill="#22D4C2" d="M64.7,203.8c0,47.9,8.2,86.7,86.7,86.7c76.4,0,86.7-38.8,86.7-86.7s-38.8-86.7-86.7-86.7&#9;&#9;S64.7,155.9,64.7,203.8z"/>	<g>		<path fill="#4A3F6F" d="M196.5,119.2l8.8,16c0,0-21.4,25.3-55.9,23.1s-51-22.6-51-22.6l14.9-16.4H196.5z"/>		<path fill="#FF4F56" d="M137,119.2c-1.2,12.1-3.3,24-6.4,35.7c3.7,1.1,7.7,2,12.1,2.6c3.3-12.6,5.5-25.4,6.7-38.3H137z&#9;&#9;&#9; M191.9,119.2h-14.5c5.5,8.7,10.5,17.8,14.7,27.2c4.4-2.9,7.8-5.8,10-7.9C199,131.9,195.6,125.5,191.9,119.2z M168.5,119.2h-12.6&#9;&#9;&#9;c2.4,12.8,3.6,25.8,3.6,38.9c4.4-0.4,8.5-1.2,12.4-2.3C171.8,143.6,170.6,131.3,168.5,119.2z M106,142.7c2.7,2.1,6.2,4.4,10.4,6.6&#9;&#9;&#9;c5.9-9.4,10.6-19.5,14-30.1h-13.1C114.5,127.4,110.7,135.3,106,142.7z"/>	</g>	<path fill="#4A3F6F" d="M162.4,130.2c5,9.2,10,18.6,13,28.9c2.9,10.4,3.5,22-0.4,31c-2.8,6.4-11.5,10.4-14,17&#9;&#9;c-3.2,8.6,0.2,28.9,0.2,28.9l-36.4-4.4c0,0-5.8-16.2,0.3-28.5c2.8-5.6,10.2-11.5,15.8-18c4.2-5,1.8-14.8,0.3-22.3&#9;&#9;c-1.2-6.1-2.3-13.9-6.5-23.3L162.4,130.2z"/>	<g>		<path fill="#4A3F6F" d="M173,133.3c4.6,36.4-9.8,49.5-17.5,55c-11,7.8-23.7,3.7-37.3,13.8c-10.3,7.7-14.8,17.8-16.4,26&#9;&#9;&#9;c-8.3-5.1-16.5-10.1-24.8-15.2c0.8-13.5,4.4-27.4,14.7-35.5c11.9-9.3,24.5-4.4,35.2-13.9c6.5-5.7,11.6-16.2,10.7-36&#9;&#9;&#9;C147.2,129.4,163.4,131.5,173,133.3z"/>		<path fill="#FF4F56" d="M79.6,196.7c8.3,7.1,17.2,13.5,26.7,19c2.6-4.8,6.5-9.5,11.9-13.6c0.1-0.1,0.2-0.1,0.3-0.2&#9;&#9;&#9;c-10.8-5.9-20.9-13.2-30.1-21.5C84.2,185,81.4,190.6,79.6,196.7z M129.8,160.7c13.1,4.5,26.8,7.2,40.7,7.8&#9;&#9;&#9;c1.7-4.8,2.9-10.7,3.3-17.9c-12.6-0.3-25.1-2.5-37-6.5C135.5,151.5,132.9,156.8,129.8,160.7z M101.9,172.4&#9;&#9;&#9;c9.9,8.8,20.7,16.4,32.2,22.7c7.6-1.7,14.8-2.2,21.4-6.8c0.7-0.5,1.5-1.1,2.4-1.8c-12.5-5.1-24.2-11.9-34.9-20.1&#9;&#9;&#9;C116.3,170.3,109.1,170.3,101.9,172.4z"/>	</g>	<g>		<path fill="#FFFFFF" d="M84.4,161.5c-1.8,2.2-3.4,4.6-4.7,7.1c-1.4,2.5-2.5,5.1-3.4,7.7c-0.9,2.7-1.6,5.4-2.1,8.2l-0.3,2.1&#9;&#9;&#9;l-0.2,2.1l-0.1,2.1c0,0.7,0,1.4,0,2.1c-0.1-0.7-0.2-1.4-0.2-2.1l-0.1-2.1l0-2.2l0.2-2.1c0.3-2.9,0.9-5.7,1.9-8.4&#9;&#9;&#9;c0.9-2.7,2.2-5.3,3.7-7.8C80.5,165.8,82.3,163.5,84.4,161.5z"/>	</g>	<g>		<path fill="#FFFFFF" d="M79.4,240c1.1,2.6,2.2,5.2,3.6,7.6c1.4,2.4,3,4.7,4.7,7c-2.3-1.8-4.1-4-5.5-6.5&#9;&#9;&#9;C80.8,245.6,79.7,242.9,79.4,240z"/>	</g>	<g>		<path fill="#4A3F6F" d="M215.2,152.5c2.2,2.1,3.9,4.6,5.3,7.3c1.4,2.7,2.3,5.6,2.7,8.6c-1.1-2.8-2.2-5.5-3.6-8.1&#9;&#9;&#9;C218.3,157.6,216.8,155.1,215.2,152.5z"/>	</g>	<g>		<path fill="#4A3F6F" d="M209.2,156.5c1.1,1.4,1.9,2.9,2.7,4.5c0.7,1.6,1.4,3.2,1.8,4.9c-1.1-1.4-1.9-2.9-2.7-4.5&#9;&#9;&#9;C210.3,159.9,209.6,158.3,209.2,156.5z"/>	</g>	<g>		<path fill="#4A3F6F" d="M225.8,177.9c1.6,2.1,2.7,4.6,3.2,7.2c0.5,2.6,0.5,5.4-0.3,7.9c0-2.6-0.2-5.2-0.7-7.7&#9;&#9;&#9;C227.5,182.8,226.7,180.4,225.8,177.9z"/>	</g>	<g>		<path fill="#4A3F6F" d="M217.7,177.9c1.2,1.7,2,3.7,2.4,5.7c0.4,2,0.5,4.1,0,6.2c-0.3-2-0.6-4-1-6&#9;&#9;&#9;C218.8,181.8,218.2,179.9,217.7,177.9z"/>	</g>	<g>		<path fill="#4A3F6F" d="M228.4,202c0.8,2.1,0.8,4.4,0.5,6.6c-0.4,2.2-1.2,4.3-2.6,6.1c0.7-2.1,1.3-4.1,1.6-6.2&#9;&#9;&#9;C228.3,206.3,228.4,204.2,228.4,202z"/>	</g>	<g>		<path fill="#4A3F6F" d="M218.9,205.3c0.9,1.4,1.2,3.2,1.1,4.8c-0.1,1.7-0.7,3.3-1.8,4.6c0.4-1.6,0.7-3.1,0.8-4.7&#9;&#9;&#9;C219.1,208.5,219,206.9,218.9,205.3z"/>	</g>	<g>		<path fill="#4A3F6F" d="M223,224.9c-0.1,1.7-0.7,3.4-1.5,4.8c-0.9,1.5-2,2.8-3.4,3.8c0.9-1.5,1.7-2.8,2.5-4.2&#9;&#9;&#9;C221.5,227.8,222.2,226.4,223,224.9z"/>	</g>	<g>		<g>			<path fill="#4A3F6F" d="M138,45.8c0,0-16.8-21.8-21.8-22.1c-5-0.3-23.9,14.2-23.9,14.2L98.6,48l10.3-3.5c0,0,7.9,12,8.5,13&#9;&#9;&#9;&#9;S138,45.8,138,45.8z"/>							<ellipse transform="matrix(0.8514 -0.5245 0.5245 0.8514 -8.9576 75.5511)" fill="#FF4F56" cx="128.9" cy="53.6" rx="33.9" ry="5.9"/>							<ellipse transform="matrix(0.8514 -0.5245 0.5245 0.8514 -8.9576 75.5511)" fill="#4A3F6F" cx="128.9" cy="53.6" rx="17.8" ry="3.1"/>			<g>				<path fill="#22D4C2" d="M117.5,40.4c-0.1,0.8-0.4,1.6-1,2.3c-0.5,0.7-1.2,1.3-1.9,1.7c-1.5,0.9-3.2,1.5-5,1.4l-0.9,0l0.5-0.8&#9;&#9;&#9;&#9;&#9;c2-2.8,2.9-6.2,2.7-9.7c1,3.4,0.2,7.4-1.9,10.3l-0.4-0.8c1.5,0,3.1-0.4,4.5-1.1C115.6,43.1,117,42,117.5,40.4z"/>			</g>		</g>		<path fill="#22D4C2" d="M204.8,91.9c-0.7-15.6-10.4-29.7-22.6-38.5c2-0.9,4-1.9,5.7-3.2c-3.3-4.1-8.6-6.5-13.8-6.5&#9;&#9;&#9;c0.1,0,0.3-0.1,0.4-0.1c1.3-0.5,2.3-1.8,2.2-3.2c-0.3-2.3-3.4-2.9-5.7-2.7c-9.2,0.8-18.2,3.7-26.1,8.4&#9;&#9;&#9;c-18.8,5.2-47.8,21-39.7,50.5c7.3,26.6,24.6,48.7,52.1,47.4C184.8,142.7,206.1,119.4,204.8,91.9z"/>		<g>			<path fill="#FFFFFF" d="M117.7,72c-1.6,2-2.9,4.2-3.8,6.5c-0.9,2.3-1.6,4.7-1.9,7.2c-0.3,2.5-0.3,5,0.1,7.5l0.3,1.8l0.5,1.8&#9;&#9;&#9;&#9;l0.6,1.8c0.3,0.6,0.5,1.2,0.7,1.8c-0.3-0.5-0.7-1.1-1-1.6l-0.8-1.7l-0.6-1.8l-0.5-1.9c-0.6-2.5-0.6-5.1-0.3-7.7&#9;&#9;&#9;&#9;c0.3-2.6,1-5.1,2.2-7.4l0.9-1.7l1.1-1.6l1.2-1.5C116.8,72.9,117.2,72.4,117.7,72z"/>		</g>		<g>			<path fill="#4A3F6F" d="M181.3,69.6c0.8,0.7,1.5,1.5,2.1,2.4c0.6,0.8,1.1,1.7,1.6,2.6c0.5,0.9,0.9,1.8,1.2,2.8&#9;&#9;&#9;&#9;c0.3,1,0.6,2,0.7,3.1c-0.8-0.7-1.5-1.5-2.1-2.4c-0.6-0.8-1.1-1.7-1.6-2.6c-0.5-0.9-0.9-1.8-1.2-2.8&#9;&#9;&#9;&#9;C181.7,71.7,181.4,70.7,181.3,69.6z"/>		</g>		<g>			<path fill="#4A3F6F" d="M149.1,79.5c0.8,0.7,1.5,1.5,2.1,2.4c0.6,0.8,1.1,1.7,1.6,2.6c0.5,0.9,0.9,1.8,1.2,2.8&#9;&#9;&#9;&#9;c0.3,1,0.6,2,0.7,3.1c-0.8-0.7-1.5-1.5-2.1-2.4c-0.6-0.8-1.1-1.7-1.6-2.6c-0.5-0.9-0.9-1.8-1.2-2.8&#9;&#9;&#9;&#9;C149.5,81.6,149.2,80.6,149.1,79.5z"/>		</g>		<g>			<path fill="#4A3F6F" d="M184.2,107.7c-0.5,1.6-1.6,3.1-3,4.2c-1.4,1.1-3,1.9-4.8,2.2c-1.8,0.3-3.6,0.1-5.3-0.4&#9;&#9;&#9;&#9;c-1.7-0.6-3.2-1.6-4.2-2.9c1.5,0.7,3.1,1.2,4.6,1.4c1.5,0.2,3.1,0.2,4.5,0c1.5-0.3,2.9-0.8,4.3-1.5&#9;&#9;&#9;&#9;C181.7,109.9,182.9,108.9,184.2,107.7z"/>		</g>		<g>			<path fill="#FF4F56" d="M171.6,86.9c0,0,74-1.8,72.5,1.6s-73,11.3-73,11.3S162.3,91.9,171.6,86.9z"/>			<path fill="#4A3F6F" d="M183.2,98.5c0.5-0.1,1-0.1,1.5-0.2c0.3-2.1,0.7-4.2,1.3-6.2c0.6-1.9,1.5-3.7,2.5-5.5c-0.7,0-1.4,0-2,0&#9;&#9;&#9;&#9;c-1,1.4-1.9,3.1-2.4,4.8C183.3,93.6,183,96.1,183.2,98.5z M223.8,91.5c-0.1,0.5-0.1,1.1-0.2,1.6c0.7-0.1,1.4-0.2,2.1-0.3&#9;&#9;&#9;&#9;c0-0.3,0.1-0.6,0.1-0.9c0.3-1.8,0.8-3.5,1.4-5.3c-0.6,0-1.2,0-1.8,0C224.7,88.1,224.1,89.8,223.8,91.5z M202.2,91&#9;&#9;&#9;&#9;c-0.4,1.7-0.5,3.4-0.3,5.2c0.5-0.1,1.1-0.1,1.6-0.2c0.1-1.5,0.4-3,0.7-4.5c0.4-1.7,0.9-3.4,1.5-5c-0.6,0-1.2,0-1.8,0&#9;&#9;&#9;&#9;C203.2,87.8,202.6,89.4,202.2,91z"/>		</g>	</g></g></svg>