<?xml version="1.0" standalone="no"?><!DOCTYPE svg PUBLIC "-//W3C//DTD SVG 1.1//EN" "http://www.w3.org/Graphics/SVG/1.1/DTD/svg11.dtd"><svg id="Spacepod0.svg" width="150" height="150" version="1.1" viewBox="0 0 300 300" xmlns="http://www.w3.org/2000/svg" xmlns:xlink="http://www.w3.org/1999/xlink"><defs xmlns="http://www.w3.org/1999/xhtml"><style type="text/css"><![CDATA[
* { border: 0px; margin: 0px; padding: 0px; }
html { background-color: rgb(255, 255, 255); font-family: Verdana, Arial; }
.webgl-content * { position: absolute; width: 100%; height: 100%; user-select: none; }
.webgl-content .logo, .progress { position: absolute; left: 50%; top: 50%; transform: translate(-50%, -50%); }
.webgl-content .logo { background: url("progressLogo.Light.png") center center / contain no-repeat; width: 154px; height: 130px; }
.webgl-content .progress { height: 18px; width: 141px; margin-top: 90px; }
.webgl-content .progress .empty { background: url("progressEmpty.Light.png") right center / cover no-repeat; float: right; width: 100%; height: 100%; display: inline-block; }
.webgl-content .progress .full { background: url("progressFull.Light.png") left center / cover no-repeat; float: left; width: 0%; height: 100%; display: inline-block; }
.webgl-content .logo.Dark { background-image: url("progressLogo.Dark.png"); }
.webgl-content .progress.Dark .empty { background-image: url("progressEmpty.Dark.png"); }
.webgl-content .progress.Dark .full { background-image: url("progressFull.Dark.png"); }
#loading-content { z-index: 10000; position: fixed; width: 100%; height: 100%; left: 0px; top: 0px; overflow: hidden; background: url("background.png"); }
.hud-intro .hud-intro-social .btn-discord, .hud-respawn .hud-respawn-social .btn-discord { background-image: url("//lordz.io/images/discord-icon.png"); }
.hud-intro .hud-intro-social .btn-twitter, .hud-respawn .hud-respawn-social .btn-twitter { background-image: url("//lordz.io/images/twitter-icon.png"); }
.hud-intro .hud-intro-social .btn-facebook, .hud-respawn .hud-respawn-social .btn-facebook { background-image: url("//lordz.io/images/facebook-icon.png"); }
.hud-intro .hud-intro-social .btn-youtube, .hud-respawn .hud-respawn-social .btn-youtube { background-image: url("//lordz.io/images/youtube-icon.png"); }
* { box-sizing: border-box; user-select: none; }
.btn { position: relative; display: inline-block; top: 0px; height: 36px; line-height: 36px; padding: 0px 20px; background: rgb(68, 68, 68); color: rgb(238, 238, 238); border: 0px; font-size: 14px; vertical-align: top; text-align: center; text-decoration: none; text-shadow: rgba(0, 0, 0, 0.4) 0px 1px 0px; box-shadow: rgba(0, 0, 0, 0.2) 0px 2px 10px, rgb(51, 51, 51) 0px 4px 0px; border-radius: 4px; transition: all 0.15s ease-in-out 0s; }
.btn:hover, .btn:active { background-color: rgb(85, 85, 85); color: rgb(255, 255, 255); }
.btn:active { top: 4px; box-shadow: rgba(0, 0, 0, 0.2) 0px 2px 10px !important; }
.btn-green { background-color: rgb(71, 149, 13); box-shadow: rgba(0, 0, 0, 0.2) 0px 2px 10px, rgb(53, 131, 0) 0px 4px 0px; }
.btn-green:hover, .btn-green:active { background-color: rgb(100, 184, 32); }
.btn-red { background-color: rgb(179, 53, 60); box-shadow: rgba(0, 0, 0, 0.2) 0px 2px 10px, rgb(161, 35, 42) 0px 4px 0px; }
.btn-red:hover, .btn-red:active { background-color: rgb(203, 87, 91); }
.btn-blue { background-color: rgb(29, 141, 238); box-shadow: rgba(0, 0, 0, 0.2) 0px 2px 10px, rgb(11, 123, 220) 0px 4px 0px; }
.btn-blue:hover, .btn-blue:active { background-color: rgb(79, 167, 238); }
.btn-purple { background-color: rgb(114, 55, 228); box-shadow: rgba(0, 0, 0, 0.2) 0px 2px 10px, rgb(96, 37, 210) 0px 4px 0px; }
.btn-purple:hover, .btn-purple:active { background-color: rgb(130, 89, 228); }
.btn-twitter { background-color: rgb(27, 149, 224); box-shadow: rgba(0, 0, 0, 0.2) 0px 2px 10px, rgb(9, 131, 206) 0px 4px 0px; }
.btn-twitter:hover, .btn-twitter:active { background-color: rgb(12, 122, 191); }
.btn-facebook { background-color: rgb(66, 103, 178); box-shadow: rgba(0, 0, 0, 0.2) 0px 2px 10px, rgb(48, 85, 160) 0px 4px 0px; }
.btn-facebook:hover, .btn-facebook:active { background-color: rgb(54, 88, 153); }
.btn-google { background-color: rgb(221, 75, 57); box-shadow: rgba(0, 0, 0, 0.2) 0px 2px 10px, rgb(203, 57, 39) 0px 4px 0px; }
.btn-google:hover, .btn-google:active { background-color: rgb(186, 63, 49); }
.btn-discord { background-color: rgb(114, 137, 218); box-shadow: rgba(0, 0, 0, 0.2) 0px 2px 10px, rgb(96, 119, 200) 0px 4px 0px; }
.btn-discord:hover, .btn-discord:active { background-color: rgb(90, 109, 176); }
.btn-youtube { background-color: rgb(229, 45, 39); box-shadow: rgba(0, 0, 0, 0.2) 0px 2px 10px, rgb(211, 27, 21) 0px 4px 0px; }
.btn-youtube:hover, .btn-youtube:active { background-color: rgb(186, 37, 33); }
.hud { position: fixed; top: 0px; left: 0px; bottom: 0px; right: 0px; }
.hud .hud-bottom-left { display: flex; position: absolute; bottom: 20px; left: 20px; flex-direction: column-reverse; }
.hud-intro .hud-intro-corner-bottom-left, .hud-respawn .hud-respawn-corner-bottom-left { position: fixed; bottom: 20px; left: 20px; text-align: left; }
.hud-intro .hud-intro-social, .hud-respawn .hud-respawn-social { width: 240px; line-height: 24px; font-size: 14px; color: rgb(119, 119, 119); }
.hud-intro .hud-intro-social .btn, .hud-respawn .hud-respawn-social .btn { display: block; float: left; margin: 0px 10px 0px 0px; width: 40px; height: 40px; line-height: 40px; background-size: 24px; background-position: center center; background-repeat: no-repeat; }
.hud-intro .hud-intro-more-games { position: relative; bottom: 5px; line-height: 20px; font-size: 14px; color: rgba(255, 255, 255, 0.4); text-shadow: rgba(0, 0, 0, 0.2) 0px 1px 3px; }
.hud-intro .hud-intro-more-games a { display: inline-block; padding: 0px 20px; line-height: 40px; background: rgb(132, 115, 212); color: rgb(238, 238, 238); text-decoration: none; border-radius: 4px; transition: all 0.15s ease-in-out 0s; }
.hud-intro .hud-intro-more-games a:hover, .hud-intro .hud-intro-more-games a:active { background: rgb(103, 90, 166); }
#preroll video { left: 0px; top: 0px; }
.fb_hidden { position: absolute; top: -10000px; z-index: 10001; }
.fb_reposition { overflow: hidden; position: relative; }
.fb_invisible { display: none; }
.fb_reset { background: none; border: 0px; border-spacing: 0px; color: rgb(0, 0, 0); cursor: auto; direction: ltr; font-family: "lucida grande", tahoma, verdana, arial, sans-serif; font-size: 11px; font-style: normal; font-variant: normal; font-weight: normal; letter-spacing: normal; line-height: 1; margin: 0px; overflow: visible; padding: 0px; text-align: left; text-decoration: none; text-indent: 0px; text-shadow: none; text-transform: none; visibility: visible; white-space: normal; word-spacing: normal; }
.fb_animate { animation: 0.3s ease 0s 1 normal forwards running fb_transform; }
.fb_dialog { background: rgba(82, 82, 82, 0.7); position: absolute; top: -10000px; z-index: 10001; }
.fb_dialog_advanced { border-radius: 8px; padding: 10px; }
.fb_dialog_content { background: rgb(255, 255, 255); color: rgb(55, 55, 55); }
.fb_dialog_close_icon { background: url("https://static.xx.fbcdn.net/rsrc.php/v3/yq/r/IE9JII6Z1Ys.png") 0px 0px no-repeat scroll transparent; cursor: pointer; display: block; height: 15px; position: absolute; right: 18px; top: 17px; width: 15px; }
.fb_dialog_mobile .fb_dialog_close_icon { left: 5px; right: auto; top: 5px; }
.fb_dialog_padding { background-color: transparent; position: absolute; width: 1px; z-index: -1; }
.fb_dialog_close_icon:hover { background: url("https://static.xx.fbcdn.net/rsrc.php/v3/yq/r/IE9JII6Z1Ys.png") 0px -15px no-repeat scroll transparent; }
.fb_dialog_close_icon:active { background: url("https://static.xx.fbcdn.net/rsrc.php/v3/yq/r/IE9JII6Z1Ys.png") 0px -30px no-repeat scroll transparent; }
.fb_dialog_iframe { line-height: 0; }
.fb_dialog_content .dialog_title { background: rgb(109, 132, 180); border: 1px solid rgb(54, 88, 153); color: rgb(255, 255, 255); font-size: 14px; font-weight: bold; margin: 0px; }
body.fb_hidden { height: 100%; left: 0px; margin: 0px; overflow: visible; position: absolute; top: -10000px; transform: none; width: 100%; }
.fb_dialog.fb_dialog_mobile.loading { background: url("https://static.xx.fbcdn.net/rsrc.php/v3/ya/r/3rhSv5V8j3o.gif") 50% 50% no-repeat white; min-height: 100%; min-width: 100%; overflow: hidden; position: absolute; top: 0px; z-index: 10001; }
.fb_dialog.fb_dialog_mobile.loading.centered { background: none; height: auto; min-height: initial; min-width: initial; width: auto; }
.fb_dialog.fb_dialog_mobile.loading.centered #fb_dialog_loader_spinner { width: 100%; }
.fb_dialog.fb_dialog_mobile.loading.centered .fb_dialog_content { background: none; }
.loading.centered #fb_dialog_loader_close { clear: both; color: rgb(255, 255, 255); display: block; font-size: 18px; padding-top: 20px; }
#fb-root #fb_dialog_ipad_overlay { background: rgba(0, 0, 0, 0.4); bottom: 0px; left: 0px; min-height: 100%; position: absolute; right: 0px; top: 0px; width: 100%; z-index: 10000; }
#fb-root #fb_dialog_ipad_overlay.hidden { display: none; }
.fb_dialog.fb_dialog_mobile.loading iframe { visibility: hidden; }
.fb_dialog_mobile .fb_dialog_iframe { position: sticky; top: 0px; }
.fb_dialog_content .dialog_header { border-bottom: 1px solid rgb(4, 59, 135); border-top-color: rgb(4, 59, 135); border-right-color: rgb(4, 59, 135); border-left-color: rgb(4, 59, 135); box-shadow: white 0px 1px 1px -1px inset; color: rgb(255, 255, 255); font: bold 14px Helvetica, sans-serif; text-overflow: ellipsis; text-shadow: rgba(0, 30, 84, 0.298) 0px -1px 0px; vertical-align: middle; white-space: nowrap; }
.fb_dialog_content .dialog_header table { height: 43px; width: 100%; }
.fb_dialog_content .dialog_header td.header_left { font-size: 12px; padding-left: 5px; vertical-align: middle; width: 60px; }
.fb_dialog_content .dialog_header td.header_right { font-size: 12px; padding-right: 5px; vertical-align: middle; width: 60px; }
.fb_dialog_content .touchable_button { background-clip: padding-box; border: 1px solid rgb(41, 72, 125); border-radius: 3px; display: inline-block; line-height: 18px; margin-top: 3px; max-width: 85px; padding: 4px 12px; position: relative; }
.fb_dialog_content .dialog_header .touchable_button input { background: none; border: none; color: rgb(255, 255, 255); font: bold 12px Helvetica, sans-serif; margin: 2px -12px; padding: 2px 6px 3px; text-shadow: rgba(0, 30, 84, 0.298) 0px -1px 0px; }
.fb_dialog_content .dialog_header .header_center { color: rgb(255, 255, 255); font-size: 16px; font-weight: bold; line-height: 18px; text-align: center; vertical-align: middle; }
.fb_dialog_content .dialog_content { background: url("https://static.xx.fbcdn.net/rsrc.php/v3/y9/r/jKEcVPZFk-2.gif") 50% 50% no-repeat; border-width: 0px 1px; border-right-style: solid; border-left-style: solid; border-right-color: rgb(74, 74, 74); border-left-color: rgb(74, 74, 74); border-image: initial; border-bottom-style: initial; border-bottom-color: initial; border-top-style: initial; border-top-color: initial; height: 150px; }
.fb_dialog_content .dialog_footer { background: rgb(245, 246, 247); border-width: 1px; border-style: solid; border-color: rgb(204, 204, 204) rgb(74, 74, 74) rgb(74, 74, 74); border-image: initial; height: 40px; }
#fb_dialog_loader_close { float: left; }
.fb_dialog.fb_dialog_mobile .fb_dialog_close_button { text-shadow: rgba(0, 30, 84, 0.298) 0px -1px 0px; }
.fb_dialog.fb_dialog_mobile .fb_dialog_close_icon { visibility: hidden; }
#fb_dialog_loader_spinner { animation: 1.2s linear 0s infinite normal none running rotateSpinner; background-color: transparent; background-image: url("https://static.xx.fbcdn.net/rsrc.php/v3/yD/r/t-wz8gw1xG1.png"); background-position: 50% 50%; background-repeat: no-repeat; height: 24px; width: 24px; }
.fb_iframe_widget { display: inline-block; position: relative; }
.fb_iframe_widget span { display: inline-block; position: relative; text-align: justify; }
.fb_iframe_widget iframe { position: absolute; }
.fb_iframe_widget_fluid_desktop, .fb_iframe_widget_fluid_desktop span, .fb_iframe_widget_fluid_desktop iframe { max-width: 100%; }
.fb_iframe_widget_fluid_desktop iframe { min-width: 220px; position: relative; }
.fb_iframe_widget_lift { z-index: 1; }
.fb_iframe_widget_fluid { display: inline; }
.fb_iframe_widget_fluid span { width: 100%; }
.st0 { fill: rgb(119, 183, 73); }
.st1 { fill: rgb(247, 175, 47); }
.st2 { fill: rgb(233, 81, 15); }
.st3 { fill: url("#SVGID_1_"); }
.st4 { fill: url("#SVGID_2_"); }
.st5 { fill: rgb(252, 242, 119); }
.st6 { fill: url("#SVGID_3_"); }
.st7 { fill: url("#SVGID_4_"); }
.st8 { fill: url("#SVGID_5_"); }
.st9 { fill: url("#SVGID_6_"); }
.st10 { fill: url("#SVGID_7_"); }
.st11 { fill: url("#SVGID_8_"); }
.st12 { fill: url("#SVGID_9_"); }
.st13 { fill: url("#SVGID_10_"); }
.st14 { fill: url("#SVGID_11_"); }
.st15 { fill: url("#SVGID_12_"); }
.st16 { fill: url("#SVGID_13_"); }
.st17 { fill: url("#SVGID_14_"); }
.st18 { fill: url("#SVGID_15_"); }
.st19 { fill: url("#SVGID_16_"); }
.st0 { fill: rgb(119, 183, 73); }
.st1 { fill: rgb(247, 175, 47); }
.st2 { fill: rgb(233, 81, 15); }
.st3 { fill: url("#SVGID_1_"); }
.st4 { fill: url("#SVGID_2_"); }
.st5 { fill: rgb(252, 242, 119); }
.st6 { fill: url("#SVGID_3_"); }
.st7 { fill: url("#SVGID_4_"); }
.st8 { fill: url("#SVGID_5_"); }
.st9 { fill: url("#SVGID_6_"); }
.st10 { fill: url("#SVGID_7_"); }
.st11 { fill: url("#SVGID_8_"); }
.st12 { fill: url("#SVGID_9_"); }
.st13 { fill: url("#SVGID_10_"); }
.st14 { fill: url("#SVGID_11_"); }
.st15 { fill: url("#SVGID_12_"); }
.st16 { fill: url("#SVGID_13_"); }
.st17 { fill: url("#SVGID_14_"); }
.st18 { fill: url("#SVGID_15_"); }
.st19 { fill: url("#SVGID_16_"); }
.st0 { fill: rgb(119, 183, 73); }
.st1 { fill: rgb(247, 175, 47); }
.st2 { fill: rgb(233, 81, 15); }
.st3 { fill: url("#SVGID_1_"); }
.st4 { fill: url("#SVGID_2_"); }
.st5 { fill: rgb(252, 242, 119); }
.st6 { fill: url("#SVGID_3_"); }
.st7 { fill: url("#SVGID_4_"); }
.st8 { fill: url("#SVGID_5_"); }
.st9 { fill: url("#SVGID_6_"); }
.st10 { fill: url("#SVGID_7_"); }
.st11 { fill: url("#SVGID_8_"); }
.st12 { fill: url("#SVGID_9_"); }
.st13 { fill: url("#SVGID_10_"); }
.st14 { fill: url("#SVGID_11_"); }
.st15 { fill: url("#SVGID_12_"); }
.st16 { fill: url("#SVGID_13_"); }
.st17 { fill: url("#SVGID_14_"); }
.st18 { fill: url("#SVGID_15_"); }
.st19 { fill: url("#SVGID_16_"); }
.st0 { fill: rgb(119, 183, 73); }
.st1 { fill: rgb(247, 175, 47); }
.st2 { fill: rgb(233, 81, 15); }
.st3 { fill: url("#SVGID_1_"); }
.st4 { fill: url("#SVGID_2_"); }
.st5 { fill: rgb(252, 242, 119); }
.st6 { fill: url("#SVGID_3_"); }
.st7 { fill: url("#SVGID_4_"); }
.st8 { fill: url("#SVGID_5_"); }
.st9 { fill: url("#SVGID_6_"); }
.st10 { fill: url("#SVGID_7_"); }
.st11 { fill: url("#SVGID_8_"); }
.st12 { fill: url("#SVGID_9_"); }
.st13 { fill: url("#SVGID_10_"); }
.st14 { fill: url("#SVGID_11_"); }
.st15 { fill: url("#SVGID_12_"); }
.st16 { fill: url("#SVGID_13_"); }
.st17 { fill: url("#SVGID_14_"); }
.st18 { fill: url("#SVGID_15_"); }
.st19 { fill: url("#SVGID_16_"); }]]></style></defs><path fill="rgb(220, 0, 11)" d=" M 225.600000 10.670000 L 227.080000 11.570000 L 230.030000 24.060000 L 226.770000 25.210000 L 225.600000 10.670000 Z"/><path fill="rgb(220, 0, 11)" d=" M 238.130000 6.990000 L 236.730000 8.530000 L 239.370000 20.800000 L 242.920000 19.650000 L 238.130000 6.990000 Z"/><path fill="rgb(220, 0, 11)" d=" M 213.820000 115.910000 C 213.820000 115.910000 238.710000 116.860000 244.560000 113.680000 C 247.680000 90.660000 246.640000 44.290000 241.470000 27.340000 L 231.000000 27.660000 C 233.870000 49.950000 234.940000 71.910000 231.320000 93.010000 C 231.320000 93.010000 220.280000 95.240000 213.820000 95.240000 C 213.820000 95.240000 212.590000 112.090000 213.820000 115.910000 Z"/><path fill="rgb(234, 119, 21)" d=" M 244.270000 42.140000 C 244.160000 41.210000 244.040000 40.310000 243.910000 39.420000 C 240.010000 39.770000 236.130000 39.420000 232.250000 38.610000 C 232.340000 39.530000 232.430000 40.450000 232.510000 41.370000 C 236.430000 42.140000 240.350000 42.450000 244.270000 42.140000 Z M 218.000000 95.010000 C 221.920000 102.880000 227.510000 109.870000 234.000000 115.670000 C 235.390000 115.570000 236.720000 115.440000 237.970000 115.290000 C 231.260000 109.640000 225.430000 102.580000 221.410000 94.630000 C 220.270000 94.780000 219.120000 94.910000 218.000000 95.010000 Z M 233.580000 67.870000 C 237.620000 69.930000 241.840000 71.480000 246.230000 72.210000 C 246.210000 71.320000 246.190000 70.420000 246.160000 69.540000 C 241.780000 68.760000 237.590000 67.060000 233.620000 64.860000 C 233.620000 65.860000 233.600000 66.870000 233.580000 67.870000 Z M 245.620000 57.230000 C 245.560000 56.320000 245.500000 55.420000 245.440000 54.520000 C 241.310000 54.890000 237.270000 54.350000 233.340000 53.090000 C 233.390000 54.020000 233.420000 54.950000 233.460000 55.880000 C 237.420000 57.040000 241.480000 57.520000 245.620000 57.230000 Z M 229.600000 93.340000 C 234.410000 98.310000 239.570000 102.960000 245.350000 106.350000 C 245.430000 105.370000 245.510000 104.350000 245.590000 103.320000 C 240.480000 100.080000 235.880000 95.800000 231.590000 91.280000 C 231.500000 91.850000 231.420000 92.430000 231.320000 93.010000 C 231.320000 93.010000 230.670000 93.140000 229.600000 93.340000 Z M 232.740000 82.380000 C 237.000000 84.830000 241.540000 86.740000 246.240000 88.170000 C 246.260000 87.250000 246.270000 86.330000 246.290000 85.400000 C 241.640000 83.900000 237.170000 81.920000 233.020000 79.350000 C 232.930000 80.360000 232.840000 81.370000 232.740000 82.380000 Z"/><path fill="rgb(234, 119, 21)" d=" M 244.140000 28.040000 L 245.360000 34.760000 L 229.720000 39.160000 L 228.300000 32.450000 L 244.140000 28.040000 Z"/><path fill="rgb(9, 59, 61)" d=" M 221.230000 35.960000 L 252.120000 27.740000 L 243.450000 5.020000 L 238.130000 6.990000 L 241.580000 19.560000 L 226.940000 23.640000 L 225.600000 10.670000 L 219.900000 12.760000 L 221.230000 35.960000 Z"/><path fill="rgb(154, 0, 9)" d=" M 81.800000 271.730000 L 87.390000 271.730000 L 89.010000 252.970000 C 87.080000 252.070000 85.060000 251.360000 83.000000 250.830000 L 81.800000 271.730000 Z"/><path fill="rgb(220, 0, 11)" d=" M 86.810000 184.450000 L 83.000000 250.830000 C 85.060000 251.360000 87.080000 252.070000 89.010000 252.980000 L 95.180000 181.540000 L 86.810000 184.450000 Z"/><path fill="rgb(9, 59, 61)" d=" M 89.300000 267.250000 C 94.210000 273.770000 94.210000 284.340000 89.300000 290.860000 C 84.380000 297.380000 76.420000 297.380000 71.500000 290.860000 C 66.590000 284.340000 66.590000 273.770000 71.500000 267.250000 C 76.420000 260.730000 84.380000 260.730000 89.300000 267.250000 Z"/><path fill="rgb(25, 200, 191)" d=" M 84.550000 273.550000 C 86.850000 276.590000 86.850000 281.520000 84.550000 284.560000 C 82.260000 287.610000 78.540000 287.610000 76.250000 284.560000 C 73.960000 281.520000 73.960000 276.590000 76.250000 273.550000 C 78.540000 270.500000 82.260000 270.500000 84.550000 273.550000 Z"/><path fill="rgb(220, 0, 11)" d=" M 151.040000 185.200000 L 151.040000 249.490000 C 152.950000 249.620000 154.830000 250.050000 156.660000 250.740000 L 156.660000 185.200000 L 151.040000 185.200000 Z"/><path fill="rgb(154, 0, 9)" d=" M 151.040000 271.890000 L 156.660000 271.890000 L 156.660000 250.740000 C 154.830000 250.050000 152.950000 249.620000 151.040000 249.490000 L 151.040000 271.890000 Z"/><path fill="rgb(9, 59, 61)" d=" M 159.690000 267.440000 C 164.630000 273.920000 164.630000 284.420000 159.690000 290.890000 C 154.760000 297.370000 146.760000 297.370000 141.830000 290.890000 C 136.890000 284.420000 136.890000 273.920000 141.830000 267.440000 C 146.760000 260.970000 154.760000 260.970000 159.690000 267.440000 Z"/><path fill="rgb(25, 200, 191)" d=" M 154.930000 273.690000 C 157.230000 276.720000 157.230000 281.620000 154.930000 284.640000 C 152.630000 287.660000 148.890000 287.660000 146.590000 284.640000 C 144.290000 281.620000 144.290000 276.720000 146.590000 273.690000 C 148.890000 270.670000 152.630000 270.670000 154.930000 273.690000 Z"/><path fill="rgb(154, 0, 9)" d=" M 225.310000 271.890000 L 231.020000 271.890000 L 228.630000 247.300000 C 226.390000 247.670000 224.170000 248.280000 222.030000 249.100000 L 225.310000 271.890000 Z"/><path fill="rgb(220, 0, 11)" d=" M 212.830000 185.200000 L 222.030000 249.100000 C 224.170000 248.280000 226.390000 247.670000 228.630000 247.300000 L 222.590000 185.200000 L 212.830000 185.200000 Z"/><path fill="rgb(9, 59, 61)" d=" M 243.550000 267.440000 C 248.580000 273.920000 248.580000 284.420000 243.550000 290.890000 C 238.530000 297.370000 230.390000 297.370000 225.360000 290.890000 C 220.340000 284.420000 220.340000 273.920000 225.360000 267.440000 C 230.390000 260.970000 238.530000 260.970000 243.550000 267.440000 Z"/><path fill="rgb(25, 200, 191)" d=" M 238.700000 273.690000 C 241.050000 276.720000 241.050000 281.620000 238.700000 284.640000 C 236.360000 287.660000 232.560000 287.660000 230.210000 284.640000 C 227.870000 281.620000 227.870000 276.720000 230.210000 273.690000 C 232.560000 270.670000 236.360000 270.670000 238.700000 273.690000 Z"/><path fill="rgb(9, 59, 61)" d=" M 210.070000 91.760000 L 217.940000 90.450000 C 217.940000 90.450000 227.990000 107.430000 231.050000 119.190000 L 224.050000 121.800000 L 210.070000 91.760000 Z"/><path fill="rgb(8, 69, 66)" d=" M 65.700000 191.450000 L 67.070000 199.180000 C 67.070000 199.180000 145.590000 213.280000 237.360000 199.180000 L 237.810000 190.990000 L 65.700000 191.450000 Z"/><path fill="rgb(253, 161, 71)" d=" M 100.690000 75.950000 C 100.690000 75.950000 103.630000 3.880000 147.150000 2.710000 C 190.660000 1.540000 193.010000 75.950000 193.010000 75.950000 L 100.690000 75.950000 Z"/><path fill="rgb(253, 196, 135)" d=" M 184.010000 75.950000 L 193.010000 75.950000 C 193.010000 75.950000 190.660000 1.540000 147.150000 2.710000 C 146.440000 2.730000 145.730000 2.770000 145.040000 2.830000 C 179.440000 9.580000 183.600000 68.060000 184.010000 75.950000 Z"/><path fill="rgb(83, 110, 41)" d=" M 127.370000 76.720000 C 127.370000 76.720000 125.200000 20.550000 151.650000 20.990000 C 178.100000 21.420000 176.800000 74.130000 176.800000 74.130000 L 127.370000 76.720000 Z"/><path fill="rgb(138, 184, 66)" d=" M 160.460000 31.170000 C 163.170000 34.370000 163.170000 39.570000 160.460000 42.780000 C 157.750000 45.980000 153.360000 45.980000 150.650000 42.780000 C 147.940000 39.570000 147.940000 34.370000 150.650000 31.170000 C 153.360000 27.960000 157.750000 27.960000 160.460000 31.170000 Z"/><path fill="rgb(19, 154, 146)" d=" M 60.710000 194.590000 C 60.710000 194.590000 54.830000 105.830000 98.340000 74.190000 L 193.010000 70.090000 C 193.010000 70.090000 242.990000 102.600000 242.990000 194.590000 C 242.990000 194.590000 141.930000 204.550000 60.710000 194.590000 Z"/><path fill="rgb(9, 59, 61)" d=" M 151.840000 71.610000 C 160.310000 85.900000 180.430000 128.590000 179.000000 199.230000 C 181.960000 199.120000 184.840000 199.000000 187.640000 198.880000 C 187.640000 177.030000 185.420000 108.100000 158.810000 71.310000 L 151.840000 71.610000 Z"/><path fill="rgb(9, 59, 61)" d=" M 110.500000 161.480000 L 229.460000 161.480000 C 229.460000 161.480000 224.960000 86.970000 170.830000 88.260000 C 115.590000 89.570000 110.500000 161.480000 110.500000 161.480000 Z"/><path fill="rgb(253, 161, 71)" d=" M 110.500000 161.480000 L 229.460000 161.480000 C 229.460000 161.480000 224.960000 93.520000 170.830000 94.690000 C 115.590000 95.890000 110.500000 161.480000 110.500000 161.480000 Z"/><path fill="rgb(83, 110, 41)" d=" M 165.530000 114.310000 C 146.550000 113.240000 147.680000 148.990000 148.650000 161.480000 L 195.850000 161.480000 C 193.870000 151.550000 185.340000 115.430000 165.530000 114.310000 Z"/><path fill="rgb(138, 184, 66)" d=" M 175.200000 125.790000 C 177.910000 128.990000 177.910000 134.190000 175.200000 137.400000 C 172.490000 140.600000 168.100000 140.600000 165.390000 137.400000 C 162.680000 134.190000 162.680000 128.990000 165.390000 125.790000 C 168.100000 122.580000 172.490000 122.580000 175.200000 125.790000 Z"/><path fill="rgb(20, 21, 24)" d=" M 174.600000 127.680000 C 175.350000 129.000000 175.350000 131.150000 174.600000 132.470000 C 173.860000 133.800000 172.640000 133.800000 171.900000 132.470000 C 171.150000 131.150000 171.150000 129.000000 171.900000 127.680000 C 172.640000 126.350000 173.860000 126.350000 174.600000 127.680000 Z"/><path fill="rgb(20, 21, 24)" d=" M 159.160000 35.180000 C 160.070000 36.420000 160.070000 38.430000 159.160000 39.670000 C 158.240000 40.910000 156.760000 40.910000 155.850000 39.670000 C 154.930000 38.430000 154.930000 36.420000 155.850000 35.180000 C 156.760000 33.930000 158.240000 33.930000 159.160000 35.180000 Z"/><path fill="rgb(20, 21, 24)" d=" M 143.740000 47.160000 C 145.060000 49.600000 146.960000 51.650000 149.190000 53.090000 C 151.440000 54.530000 154.100000 55.190000 156.760000 55.160000 C 159.430000 55.140000 162.130000 54.510000 164.190000 52.840000 C 166.240000 51.180000 167.500000 48.580000 167.850000 45.850000 C 167.940000 48.600000 166.930000 51.520000 164.780000 53.510000 C 162.630000 55.520000 159.610000 56.300000 156.780000 56.340000 C 153.920000 56.420000 150.970000 55.600000 148.650000 53.900000 C 146.320000 52.210000 144.600000 49.800000 143.740000 47.160000 Z"/><path fill="rgb(20, 21, 24)" d=" M 178.510000 143.960000 C 177.260000 145.080000 175.730000 145.910000 174.120000 146.460000 C 172.510000 147.030000 170.780000 147.300000 169.060000 147.280000 C 167.330000 147.250000 165.610000 146.930000 164.020000 146.320000 C 162.410000 145.720000 160.950000 144.820000 159.670000 143.740000 C 162.720000 145.130000 165.850000 146.070000 169.070000 146.090000 C 170.680000 146.120000 172.280000 145.930000 173.860000 145.570000 C 175.430000 145.190000 177.010000 144.690000 178.510000 143.960000 Z"/><path fill="rgb(58, 77, 30)" d=" M 156.250000 148.960000 C 157.360000 150.680000 157.360000 153.470000 156.250000 155.190000 C 155.150000 156.910000 153.360000 156.910000 152.260000 155.190000 C 151.160000 153.470000 151.160000 150.680000 152.260000 148.960000 C 153.360000 147.230000 155.150000 147.230000 156.250000 148.960000 Z"/><path fill="rgb(58, 77, 30)" d=" M 154.330000 140.300000 C 155.050000 141.260000 155.050000 142.810000 154.330000 143.770000 C 153.610000 144.720000 152.450000 144.720000 151.730000 143.770000 C 151.010000 142.810000 151.010000 141.260000 151.730000 140.300000 C 152.450000 139.350000 153.610000 139.350000 154.330000 140.300000 Z"/><path fill="rgb(58, 77, 30)" d=" M 155.320000 132.570000 C 155.700000 133.340000 155.700000 134.580000 155.320000 135.340000 C 154.940000 136.110000 154.310000 136.110000 153.930000 135.340000 C 153.550000 134.580000 153.550000 133.340000 153.930000 132.570000 C 154.310000 131.810000 154.940000 131.810000 155.320000 132.570000 Z"/><path fill="rgb(58, 77, 30)" d=" M 134.390000 62.500000 C 135.490000 63.840000 135.490000 66.010000 134.390000 67.350000 C 133.290000 68.690000 131.500000 68.690000 130.390000 67.350000 C 129.290000 66.010000 129.290000 63.840000 130.390000 62.500000 C 131.500000 61.170000 133.290000 61.170000 134.390000 62.500000 Z"/><path fill="rgb(58, 77, 30)" d=" M 136.990000 50.680000 C 137.900000 51.920000 137.900000 53.940000 136.990000 55.180000 C 136.080000 56.420000 134.600000 56.420000 133.690000 55.180000 C 132.780000 53.940000 132.780000 51.920000 133.690000 50.680000 C 134.600000 49.440000 136.080000 49.440000 136.990000 50.680000 Z"/><path fill="rgb(58, 77, 30)" d=" M 140.820000 60.330000 C 141.540000 61.380000 141.540000 63.090000 140.820000 64.140000 C 140.100000 65.190000 138.930000 65.190000 138.210000 64.140000 C 137.490000 63.090000 137.490000 61.380000 138.210000 60.330000 C 138.930000 59.280000 140.100000 59.280000 140.820000 60.330000 Z"/><path fill="rgb(9, 59, 61)" d=" M 85.090000 90.810000 C 85.090000 90.810000 78.360000 102.560000 82.280000 117.370000 L 91.540000 117.930000 C 91.540000 117.930000 98.000000 99.760000 92.390000 91.370000 L 85.090000 90.810000 Z"/><path fill="rgb(25, 200, 191)" d=" M 240.460000 160.310000 C 220.500000 168.040000 218.370000 187.420000 218.530000 196.500000 C 221.730000 196.290000 224.670000 196.080000 227.310000 195.890000 C 228.520000 178.260000 235.600000 171.250000 241.550000 168.490000 C 241.230000 165.690000 240.870000 162.960000 240.460000 160.310000 Z M 62.840000 148.770000 C 62.550000 150.870000 62.290000 152.930000 62.060000 154.960000 C 72.550000 155.530000 90.840000 162.000000 99.490000 197.890000 C 102.000000 198.030000 104.510000 198.150000 107.030000 198.260000 C 104.820000 181.230000 96.190000 151.570000 62.840000 148.770000 Z"/><path fill="rgb(220, 0, 11)" d=" M 74.450000 10.670000 L 72.970000 11.570000 L 70.030000 24.060000 L 73.280000 25.210000 L 74.450000 10.670000 Z"/><path fill="rgb(220, 0, 11)" d=" M 61.950000 6.990000 L 63.350000 8.530000 L 60.720000 20.800000 L 57.170000 19.650000 L 61.950000 6.990000 Z"/><path fill="rgb(220, 0, 11)" d=" M 86.200000 115.910000 C 86.200000 115.910000 61.370000 116.860000 55.540000 113.680000 C 52.420000 90.660000 53.460000 44.290000 58.620000 27.340000 L 69.060000 27.660000 C 66.200000 49.950000 65.130000 71.910000 68.750000 93.010000 C 68.750000 93.010000 79.750000 95.240000 86.200000 95.240000 C 88.170000 100.700000 89.370000 111.890000 86.200000 115.910000 Z"/><path fill="rgb(234, 119, 21)" d=" M 67.550000 41.370000 C 67.630000 40.450000 67.720000 39.530000 67.810000 38.610000 C 63.940000 39.420000 60.080000 39.770000 56.180000 39.420000 C 56.060000 40.300000 55.940000 41.210000 55.820000 42.140000 C 59.740000 42.450000 63.650000 42.140000 67.550000 41.370000 Z M 78.630000 94.630000 C 74.620000 102.580000 68.800000 109.640000 62.110000 115.290000 C 63.350000 115.440000 64.690000 115.570000 66.070000 115.670000 C 72.540000 109.870000 78.120000 102.880000 82.030000 95.010000 C 80.910000 94.910000 79.770000 94.780000 78.630000 94.630000 Z M 66.450000 64.860000 C 62.490000 67.060000 58.310000 68.760000 53.940000 69.540000 C 53.920000 70.430000 53.890000 71.320000 53.870000 72.210000 C 58.250000 71.480000 62.460000 69.930000 66.490000 67.870000 C 66.470000 66.870000 66.450000 65.860000 66.450000 64.860000 Z M 66.610000 55.880000 C 66.640000 54.950000 66.680000 54.020000 66.730000 53.090000 C 62.810000 54.350000 58.780000 54.890000 54.660000 54.520000 C 54.600000 55.420000 54.540000 56.320000 54.480000 57.230000 C 58.610000 57.520000 62.660000 57.040000 66.610000 55.880000 Z M 68.750000 93.010000 C 68.650000 92.430000 68.560000 91.850000 68.470000 91.280000 C 64.200000 95.800000 59.610000 100.080000 54.510000 103.320000 C 54.590000 104.350000 54.670000 105.370000 54.750000 106.350000 C 60.510000 102.960000 65.670000 98.310000 70.460000 93.340000 C 69.400000 93.140000 68.750000 93.010000 68.750000 93.010000 Z M 67.050000 79.350000 C 62.910000 81.920000 58.450000 83.900000 53.820000 85.400000 C 53.830000 86.330000 53.840000 87.250000 53.860000 88.170000 C 58.550000 86.740000 63.080000 84.830000 67.330000 82.380000 C 67.230000 81.370000 67.130000 80.360000 67.050000 79.350000 Z"/><path fill="rgb(234, 119, 21)" d=" M 55.950000 28.040000 L 54.740000 34.760000 L 70.340000 39.160000 L 71.760000 32.450000 L 55.950000 28.040000 Z"/><path fill="rgb(9, 59, 61)" d=" M 78.810000 35.960000 L 48.000000 27.740000 L 56.650000 5.020000 L 61.950000 6.990000 L 58.510000 19.560000 L 73.110000 23.640000 L 74.450000 10.670000 L 80.130000 12.760000 L 78.810000 35.960000 Z"/></svg>