<?xml version="1.0" standalone="no"?><!DOCTYPE svg PUBLIC "-//W3C//DTD SVG 1.1//EN" "http://www.w3.org/Graphics/SVG/1.1/DTD/svg11.dtd"><svg id="Toucan0.svg" width="150" height="150" version="1.1" viewBox="0 0 300 300" xmlns="http://www.w3.org/2000/svg" xmlns:xlink="http://www.w3.org/1999/xlink"><defs xmlns="http://www.w3.org/1999/xhtml"><style type="text/css"><![CDATA[
* { border: 0px; margin: 0px; padding: 0px; }
html { background-color: rgb(255, 255, 255); font-family: Verdana, Arial; }
.webgl-content * { position: absolute; width: 100%; height: 100%; user-select: none; }
.webgl-content .logo, .progress { position: absolute; left: 50%; top: 50%; transform: translate(-50%, -50%); }
.webgl-content .logo { background: url("progressLogo.Light.png") center center / contain no-repeat; width: 154px; height: 130px; }
.webgl-content .progress { height: 18px; width: 141px; margin-top: 90px; }
.webgl-content .progress .empty { background: url("progressEmpty.Light.png") right center / cover no-repeat; float: right; width: 100%; height: 100%; display: inline-block; }
.webgl-content .progress .full { background: url("progressFull.Light.png") left center / cover no-repeat; float: left; width: 0%; height: 100%; display: inline-block; }
.webgl-content .logo.Dark { background-image: url("progressLogo.Dark.png"); }
.webgl-content .progress.Dark .empty { background-image: url("progressEmpty.Dark.png"); }
.webgl-content .progress.Dark .full { background-image: url("progressFull.Dark.png"); }
#loading-content { z-index: 10000; position: fixed; width: 100%; height: 100%; left: 0px; top: 0px; overflow: hidden; background: url("background.png"); }
.hud-intro .hud-intro-social .btn-discord, .hud-respawn .hud-respawn-social .btn-discord { background-image: url("//lordz.io/images/discord-icon.png"); }
.hud-intro .hud-intro-social .btn-twitter, .hud-respawn .hud-respawn-social .btn-twitter { background-image: url("//lordz.io/images/twitter-icon.png"); }
.hud-intro .hud-intro-social .btn-facebook, .hud-respawn .hud-respawn-social .btn-facebook { background-image: url("//lordz.io/images/facebook-icon.png"); }
.hud-intro .hud-intro-social .btn-youtube, .hud-respawn .hud-respawn-social .btn-youtube { background-image: url("//lordz.io/images/youtube-icon.png"); }
* { box-sizing: border-box; user-select: none; }
.btn { position: relative; display: inline-block; top: 0px; height: 36px; line-height: 36px; padding: 0px 20px; background: rgb(68, 68, 68); color: rgb(238, 238, 238); border: 0px; font-size: 14px; vertical-align: top; text-align: center; text-decoration: none; text-shadow: rgba(0, 0, 0, 0.4) 0px 1px 0px; box-shadow: rgba(0, 0, 0, 0.2) 0px 2px 10px, rgb(51, 51, 51) 0px 4px 0px; border-radius: 4px; transition: all 0.15s ease-in-out 0s; }
.btn:hover, .btn:active { background-color: rgb(85, 85, 85); color: rgb(255, 255, 255); }
.btn:active { top: 4px; box-shadow: rgba(0, 0, 0, 0.2) 0px 2px 10px !important; }
.btn-green { background-color: rgb(71, 149, 13); box-shadow: rgba(0, 0, 0, 0.2) 0px 2px 10px, rgb(53, 131, 0) 0px 4px 0px; }
.btn-green:hover, .btn-green:active { background-color: rgb(100, 184, 32); }
.btn-red { background-color: rgb(179, 53, 60); box-shadow: rgba(0, 0, 0, 0.2) 0px 2px 10px, rgb(161, 35, 42) 0px 4px 0px; }
.btn-red:hover, .btn-red:active { background-color: rgb(203, 87, 91); }
.btn-blue { background-color: rgb(29, 141, 238); box-shadow: rgba(0, 0, 0, 0.2) 0px 2px 10px, rgb(11, 123, 220) 0px 4px 0px; }
.btn-blue:hover, .btn-blue:active { background-color: rgb(79, 167, 238); }
.btn-purple { background-color: rgb(114, 55, 228); box-shadow: rgba(0, 0, 0, 0.2) 0px 2px 10px, rgb(96, 37, 210) 0px 4px 0px; }
.btn-purple:hover, .btn-purple:active { background-color: rgb(130, 89, 228); }
.btn-twitter { background-color: rgb(27, 149, 224); box-shadow: rgba(0, 0, 0, 0.2) 0px 2px 10px, rgb(9, 131, 206) 0px 4px 0px; }
.btn-twitter:hover, .btn-twitter:active { background-color: rgb(12, 122, 191); }
.btn-facebook { background-color: rgb(66, 103, 178); box-shadow: rgba(0, 0, 0, 0.2) 0px 2px 10px, rgb(48, 85, 160) 0px 4px 0px; }
.btn-facebook:hover, .btn-facebook:active { background-color: rgb(54, 88, 153); }
.btn-google { background-color: rgb(221, 75, 57); box-shadow: rgba(0, 0, 0, 0.2) 0px 2px 10px, rgb(203, 57, 39) 0px 4px 0px; }
.btn-google:hover, .btn-google:active { background-color: rgb(186, 63, 49); }
.btn-discord { background-color: rgb(114, 137, 218); box-shadow: rgba(0, 0, 0, 0.2) 0px 2px 10px, rgb(96, 119, 200) 0px 4px 0px; }
.btn-discord:hover, .btn-discord:active { background-color: rgb(90, 109, 176); }
.btn-youtube { background-color: rgb(229, 45, 39); box-shadow: rgba(0, 0, 0, 0.2) 0px 2px 10px, rgb(211, 27, 21) 0px 4px 0px; }
.btn-youtube:hover, .btn-youtube:active { background-color: rgb(186, 37, 33); }
.hud { position: fixed; top: 0px; left: 0px; bottom: 0px; right: 0px; }
.hud .hud-bottom-left { display: flex; position: absolute; bottom: 20px; left: 20px; flex-direction: column-reverse; }
.hud-intro .hud-intro-corner-bottom-left, .hud-respawn .hud-respawn-corner-bottom-left { position: fixed; bottom: 20px; left: 20px; text-align: left; }
.hud-intro .hud-intro-social, .hud-respawn .hud-respawn-social { width: 240px; line-height: 24px; font-size: 14px; color: rgb(119, 119, 119); }
.hud-intro .hud-intro-social .btn, .hud-respawn .hud-respawn-social .btn { display: block; float: left; margin: 0px 10px 0px 0px; width: 40px; height: 40px; line-height: 40px; background-size: 24px; background-position: center center; background-repeat: no-repeat; }
.hud-intro .hud-intro-more-games { position: relative; bottom: 5px; line-height: 20px; font-size: 14px; color: rgba(255, 255, 255, 0.4); text-shadow: rgba(0, 0, 0, 0.2) 0px 1px 3px; }
.hud-intro .hud-intro-more-games a { display: inline-block; padding: 0px 20px; line-height: 40px; background: rgb(132, 115, 212); color: rgb(238, 238, 238); text-decoration: none; border-radius: 4px; transition: all 0.15s ease-in-out 0s; }
.hud-intro .hud-intro-more-games a:hover, .hud-intro .hud-intro-more-games a:active { background: rgb(103, 90, 166); }
#preroll video { left: 0px; top: 0px; }
.fb_hidden { position: absolute; top: -10000px; z-index: 10001; }
.fb_reposition { overflow: hidden; position: relative; }
.fb_invisible { display: none; }
.fb_reset { background: none; border: 0px; border-spacing: 0px; color: rgb(0, 0, 0); cursor: auto; direction: ltr; font-family: "lucida grande", tahoma, verdana, arial, sans-serif; font-size: 11px; font-style: normal; font-variant: normal; font-weight: normal; letter-spacing: normal; line-height: 1; margin: 0px; overflow: visible; padding: 0px; text-align: left; text-decoration: none; text-indent: 0px; text-shadow: none; text-transform: none; visibility: visible; white-space: normal; word-spacing: normal; }
.fb_animate { animation: 0.3s ease 0s 1 normal forwards running fb_transform; }
.fb_dialog { background: rgba(82, 82, 82, 0.7); position: absolute; top: -10000px; z-index: 10001; }
.fb_dialog_advanced { border-radius: 8px; padding: 10px; }
.fb_dialog_content { background: rgb(255, 255, 255); color: rgb(55, 55, 55); }
.fb_dialog_close_icon { background: url("https://static.xx.fbcdn.net/rsrc.php/v3/yq/r/IE9JII6Z1Ys.png") 0px 0px no-repeat scroll transparent; cursor: pointer; display: block; height: 15px; position: absolute; right: 18px; top: 17px; width: 15px; }
.fb_dialog_mobile .fb_dialog_close_icon { left: 5px; right: auto; top: 5px; }
.fb_dialog_padding { background-color: transparent; position: absolute; width: 1px; z-index: -1; }
.fb_dialog_close_icon:hover { background: url("https://static.xx.fbcdn.net/rsrc.php/v3/yq/r/IE9JII6Z1Ys.png") 0px -15px no-repeat scroll transparent; }
.fb_dialog_close_icon:active { background: url("https://static.xx.fbcdn.net/rsrc.php/v3/yq/r/IE9JII6Z1Ys.png") 0px -30px no-repeat scroll transparent; }
.fb_dialog_iframe { line-height: 0; }
.fb_dialog_content .dialog_title { background: rgb(109, 132, 180); border: 1px solid rgb(54, 88, 153); color: rgb(255, 255, 255); font-size: 14px; font-weight: bold; margin: 0px; }
body.fb_hidden { height: 100%; left: 0px; margin: 0px; overflow: visible; position: absolute; top: -10000px; transform: none; width: 100%; }
.fb_dialog.fb_dialog_mobile.loading { background: url("https://static.xx.fbcdn.net/rsrc.php/v3/ya/r/3rhSv5V8j3o.gif") 50% 50% no-repeat white; min-height: 100%; min-width: 100%; overflow: hidden; position: absolute; top: 0px; z-index: 10001; }
.fb_dialog.fb_dialog_mobile.loading.centered { background: none; height: auto; min-height: initial; min-width: initial; width: auto; }
.fb_dialog.fb_dialog_mobile.loading.centered #fb_dialog_loader_spinner { width: 100%; }
.fb_dialog.fb_dialog_mobile.loading.centered .fb_dialog_content { background: none; }
.loading.centered #fb_dialog_loader_close { clear: both; color: rgb(255, 255, 255); display: block; font-size: 18px; padding-top: 20px; }
#fb-root #fb_dialog_ipad_overlay { background: rgba(0, 0, 0, 0.4); bottom: 0px; left: 0px; min-height: 100%; position: absolute; right: 0px; top: 0px; width: 100%; z-index: 10000; }
#fb-root #fb_dialog_ipad_overlay.hidden { display: none; }
.fb_dialog.fb_dialog_mobile.loading iframe { visibility: hidden; }
.fb_dialog_mobile .fb_dialog_iframe { position: sticky; top: 0px; }
.fb_dialog_content .dialog_header { border-bottom: 1px solid rgb(4, 59, 135); border-top-color: rgb(4, 59, 135); border-right-color: rgb(4, 59, 135); border-left-color: rgb(4, 59, 135); box-shadow: white 0px 1px 1px -1px inset; color: rgb(255, 255, 255); font: bold 14px Helvetica, sans-serif; text-overflow: ellipsis; text-shadow: rgba(0, 30, 84, 0.298) 0px -1px 0px; vertical-align: middle; white-space: nowrap; }
.fb_dialog_content .dialog_header table { height: 43px; width: 100%; }
.fb_dialog_content .dialog_header td.header_left { font-size: 12px; padding-left: 5px; vertical-align: middle; width: 60px; }
.fb_dialog_content .dialog_header td.header_right { font-size: 12px; padding-right: 5px; vertical-align: middle; width: 60px; }
.fb_dialog_content .touchable_button { background-clip: padding-box; border: 1px solid rgb(41, 72, 125); border-radius: 3px; display: inline-block; line-height: 18px; margin-top: 3px; max-width: 85px; padding: 4px 12px; position: relative; }
.fb_dialog_content .dialog_header .touchable_button input { background: none; border: none; color: rgb(255, 255, 255); font: bold 12px Helvetica, sans-serif; margin: 2px -12px; padding: 2px 6px 3px; text-shadow: rgba(0, 30, 84, 0.298) 0px -1px 0px; }
.fb_dialog_content .dialog_header .header_center { color: rgb(255, 255, 255); font-size: 16px; font-weight: bold; line-height: 18px; text-align: center; vertical-align: middle; }
.fb_dialog_content .dialog_content { background: url("https://static.xx.fbcdn.net/rsrc.php/v3/y9/r/jKEcVPZFk-2.gif") 50% 50% no-repeat; border-width: 0px 1px; border-right-style: solid; border-left-style: solid; border-right-color: rgb(74, 74, 74); border-left-color: rgb(74, 74, 74); border-image: initial; border-bottom-style: initial; border-bottom-color: initial; border-top-style: initial; border-top-color: initial; height: 150px; }
.fb_dialog_content .dialog_footer { background: rgb(245, 246, 247); border-width: 1px; border-style: solid; border-color: rgb(204, 204, 204) rgb(74, 74, 74) rgb(74, 74, 74); border-image: initial; height: 40px; }
#fb_dialog_loader_close { float: left; }
.fb_dialog.fb_dialog_mobile .fb_dialog_close_button { text-shadow: rgba(0, 30, 84, 0.298) 0px -1px 0px; }
.fb_dialog.fb_dialog_mobile .fb_dialog_close_icon { visibility: hidden; }
#fb_dialog_loader_spinner { animation: 1.2s linear 0s infinite normal none running rotateSpinner; background-color: transparent; background-image: url("https://static.xx.fbcdn.net/rsrc.php/v3/yD/r/t-wz8gw1xG1.png"); background-position: 50% 50%; background-repeat: no-repeat; height: 24px; width: 24px; }
.fb_iframe_widget { display: inline-block; position: relative; }
.fb_iframe_widget span { display: inline-block; position: relative; text-align: justify; }
.fb_iframe_widget iframe { position: absolute; }
.fb_iframe_widget_fluid_desktop, .fb_iframe_widget_fluid_desktop span, .fb_iframe_widget_fluid_desktop iframe { max-width: 100%; }
.fb_iframe_widget_fluid_desktop iframe { min-width: 220px; position: relative; }
.fb_iframe_widget_lift { z-index: 1; }
.fb_iframe_widget_fluid { display: inline; }
.fb_iframe_widget_fluid span { width: 100%; }
.st0 { fill: rgb(119, 183, 73); }
.st1 { fill: rgb(247, 175, 47); }
.st2 { fill: rgb(233, 81, 15); }
.st3 { fill: url("#SVGID_1_"); }
.st4 { fill: url("#SVGID_2_"); }
.st5 { fill: rgb(252, 242, 119); }
.st6 { fill: url("#SVGID_3_"); }
.st7 { fill: url("#SVGID_4_"); }
.st8 { fill: url("#SVGID_5_"); }
.st9 { fill: url("#SVGID_6_"); }
.st10 { fill: url("#SVGID_7_"); }
.st11 { fill: url("#SVGID_8_"); }
.st12 { fill: url("#SVGID_9_"); }
.st13 { fill: url("#SVGID_10_"); }
.st14 { fill: url("#SVGID_11_"); }
.st15 { fill: url("#SVGID_12_"); }
.st16 { fill: url("#SVGID_13_"); }
.st17 { fill: url("#SVGID_14_"); }
.st18 { fill: url("#SVGID_15_"); }
.st19 { fill: url("#SVGID_16_"); }
.st0 { fill: rgb(119, 183, 73); }
.st1 { fill: rgb(247, 175, 47); }
.st2 { fill: rgb(233, 81, 15); }
.st3 { fill: url("#SVGID_1_"); }
.st4 { fill: url("#SVGID_2_"); }
.st5 { fill: rgb(252, 242, 119); }
.st6 { fill: url("#SVGID_3_"); }
.st7 { fill: url("#SVGID_4_"); }
.st8 { fill: url("#SVGID_5_"); }
.st9 { fill: url("#SVGID_6_"); }
.st10 { fill: url("#SVGID_7_"); }
.st11 { fill: url("#SVGID_8_"); }
.st12 { fill: url("#SVGID_9_"); }
.st13 { fill: url("#SVGID_10_"); }
.st14 { fill: url("#SVGID_11_"); }
.st15 { fill: url("#SVGID_12_"); }
.st16 { fill: url("#SVGID_13_"); }
.st17 { fill: url("#SVGID_14_"); }
.st18 { fill: url("#SVGID_15_"); }
.st19 { fill: url("#SVGID_16_"); }
.st0 { fill: rgb(119, 183, 73); }
.st1 { fill: rgb(247, 175, 47); }
.st2 { fill: rgb(233, 81, 15); }
.st3 { fill: url("#SVGID_1_"); }
.st4 { fill: url("#SVGID_2_"); }
.st5 { fill: rgb(252, 242, 119); }
.st6 { fill: url("#SVGID_3_"); }
.st7 { fill: url("#SVGID_4_"); }
.st8 { fill: url("#SVGID_5_"); }
.st9 { fill: url("#SVGID_6_"); }
.st10 { fill: url("#SVGID_7_"); }
.st11 { fill: url("#SVGID_8_"); }
.st12 { fill: url("#SVGID_9_"); }
.st13 { fill: url("#SVGID_10_"); }
.st14 { fill: url("#SVGID_11_"); }
.st15 { fill: url("#SVGID_12_"); }
.st16 { fill: url("#SVGID_13_"); }
.st17 { fill: url("#SVGID_14_"); }
.st18 { fill: url("#SVGID_15_"); }
.st19 { fill: url("#SVGID_16_"); }
.st0 { fill: rgb(119, 183, 73); }
.st1 { fill: rgb(247, 175, 47); }
.st2 { fill: rgb(233, 81, 15); }
.st3 { fill: url("#SVGID_1_"); }
.st4 { fill: url("#SVGID_2_"); }
.st5 { fill: rgb(252, 242, 119); }
.st6 { fill: url("#SVGID_3_"); }
.st7 { fill: url("#SVGID_4_"); }
.st8 { fill: url("#SVGID_5_"); }
.st9 { fill: url("#SVGID_6_"); }
.st10 { fill: url("#SVGID_7_"); }
.st11 { fill: url("#SVGID_8_"); }
.st12 { fill: url("#SVGID_9_"); }
.st13 { fill: url("#SVGID_10_"); }
.st14 { fill: url("#SVGID_11_"); }
.st15 { fill: url("#SVGID_12_"); }
.st16 { fill: url("#SVGID_13_"); }
.st17 { fill: url("#SVGID_14_"); }
.st18 { fill: url("#SVGID_15_"); }
.st19 { fill: url("#SVGID_16_"); }]]></style></defs><path fill="rgb(36, 13, 39)" d=" M 110.820000 193.410000 C 111.760000 194.390000 112.680000 195.350000 113.580000 196.300000 C 112.680000 195.350000 111.760000 194.390000 110.820000 193.410000 Z"/><path fill="rgb(36, 13, 39)" d=" M 116.740000 199.670000 C 117.570000 200.560000 118.380000 201.440000 119.160000 202.300000 C 118.380000 201.440000 117.570000 200.560000 116.740000 199.670000 Z"/><path fill="rgb(36, 13, 39)" d=" M 110.750000 193.340000 C 104.580000 186.940000 97.760000 180.260000 91.330000 174.850000 C 73.010000 159.390000 68.390000 156.190000 65.400000 159.740000 C 62.120000 163.620000 63.150000 169.150000 80.580000 184.000000 C 78.060000 182.700000 75.570000 181.450000 73.140000 180.280000 C 47.290000 167.860000 40.980000 165.530000 38.570000 170.540000 C 35.890000 176.120000 41.930000 179.020000 67.780000 191.440000 C 69.370000 192.200000 71.000000 192.950000 72.670000 193.700000 C 51.990000 189.490000 46.020000 192.170000 45.070000 196.470000 C 43.950000 201.520000 49.410000 202.730000 72.790000 207.940000 C 79.860000 209.510000 87.880000 210.820000 95.640000 211.890000 C 99.000000 204.480000 103.040000 197.160000 107.760000 190.270000 C 108.770000 191.300000 109.770000 192.320000 110.750000 193.340000 Z"/><path fill="rgb(36, 13, 39)" d=" M 113.880000 196.620000 C 114.740000 197.530000 115.590000 198.430000 116.410000 199.320000 C 115.590000 198.430000 114.740000 197.530000 113.880000 196.620000 Z"/><path fill="rgb(36, 13, 39)" d=" M 111.520000 213.820000 C 108.910000 213.540000 106.120000 213.220000 103.240000 212.870000 C 106.120000 213.220000 108.910000 213.540000 111.520000 213.820000 Z"/><path fill="rgb(177, 59, 85)" d=" M 120.990000 204.300000 C 120.880000 204.180000 120.750000 204.040000 120.640000 203.910000 C 120.200000 203.440000 119.770000 202.960000 119.320000 202.460000 C 119.260000 202.410000 119.210000 202.350000 119.160000 202.300000 C 118.380000 201.440000 117.570000 200.560000 116.740000 199.670000 C 116.630000 199.550000 116.520000 199.440000 116.410000 199.320000 C 115.590000 198.430000 114.740000 197.530000 113.880000 196.620000 C 113.780000 196.510000 113.680000 196.410000 113.580000 196.300000 C 112.680000 195.350000 111.760000 194.390000 110.820000 193.410000 C 110.800000 193.390000 110.770000 193.370000 110.750000 193.340000 C 109.770000 192.320000 108.770000 191.300000 107.760000 190.270000 C 103.040000 197.160000 99.000000 204.480000 95.650000 211.890000 C 95.670000 211.890000 95.690000 211.890000 95.720000 211.900000 C 96.810000 212.050000 97.900000 212.190000 98.980000 212.330000 C 98.980000 212.330000 98.990000 212.330000 98.990000 212.330000 C 100.430000 212.520000 101.840000 212.700000 103.240000 212.870000 C 106.120000 213.220000 108.910000 213.540000 111.520000 213.820000 C 111.540000 213.820000 111.570000 213.820000 111.590000 213.830000 C 112.510000 213.930000 113.410000 214.020000 114.280000 214.110000 C 114.340000 214.110000 114.390000 214.120000 114.450000 214.130000 C 115.280000 214.210000 116.090000 214.290000 116.870000 214.370000 C 116.960000 214.380000 117.050000 214.390000 117.130000 214.400000 C 117.980000 214.480000 118.800000 214.560000 119.590000 214.630000 C 120.550000 211.770000 121.530000 208.900000 122.560000 206.040000 C 122.050000 205.470000 121.530000 204.900000 120.990000 204.300000 Z"/><path fill="rgb(216, 60, 9)" d=" M 129.530000 208.970000 L 133.780000 208.970000 L 133.780000 239.120000 L 129.530000 239.120000 Z"/><path fill="rgb(216, 60, 9)" d=" M 149.220000 208.970000 L 153.470000 208.970000 L 153.470000 239.120000 L 149.220000 239.120000 Z"/><path fill="rgb(177, 59, 85)" d=" M 174.850000 137.220000 C 174.850000 137.220000 201.910000 150.130000 220.350000 134.150000 C 220.350000 134.150000 223.430000 142.760000 214.820000 150.130000 L 224.650000 146.450000 C 224.650000 146.450000 222.810000 156.280000 216.050000 159.360000 L 224.040000 159.360000 C 224.040000 159.360000 208.670000 174.730000 174.850000 175.960000 L 174.850000 137.220000 L 174.850000 137.220000 Z"/><path fill="rgb(36, 13, 39)" d=" M 184.210000 146.140000 L 184.210000 146.140000 C 156.620000 171.140000 140.890000 119.220000 140.890000 119.220000 C 138.430000 116.150000 118.140000 116.150000 118.140000 116.150000 C 110.150000 105.660000 116.770000 85.020000 119.530000 77.650000 C 119.650000 77.340000 119.750000 77.060000 119.850000 76.800000 L 115.680000 76.800000 C 112.380000 82.470000 109.670000 88.310000 107.480000 94.260000 C 105.270000 97.840000 96.800000 112.260000 95.330000 125.100000 L 98.290000 120.450000 C 98.290000 120.450000 95.330000 139.040000 96.600000 147.490000 L 100.120000 144.530000 C 101.220000 170.500000 108.940000 195.510000 118.750000 215.140000 L 159.950000 215.140000 C 177.230000 200.060000 186.150000 176.400000 184.210000 146.140000 Z"/><path fill="rgb(254, 238, 202)" d=" M 118.140000 116.150000 C 118.140000 116.150000 138.430000 116.150000 140.890000 119.220000 C 140.890000 119.220000 156.620000 171.140000 184.210000 146.140000 L 184.210000 146.140000 C 186.230000 125.050000 178.210000 102.160000 164.870000 76.800000 L 119.850000 76.800000 C 119.750000 77.060000 119.640000 77.340000 119.530000 77.650000 C 116.770000 85.020000 110.150000 105.660000 118.140000 116.150000 Z"/><path fill="rgb(253, 177, 46)" d=" M 172.940000 124.410000 C 172.470000 123.530000 170.500000 124.270000 171.040000 125.270000 C 173.150000 129.200000 174.960000 131.680000 173.710000 135.830000 C 170.700000 132.930000 167.800000 130.130000 165.510000 126.530000 C 164.960000 125.680000 163.140000 126.370000 163.610000 127.400000 C 164.870000 130.180000 165.480000 133.040000 166.080000 135.950000 C 163.410000 133.820000 160.530000 131.680000 159.140000 128.650000 C 158.770000 127.850000 156.830000 128.440000 157.150000 129.330000 C 158.200000 132.200000 158.400000 135.070000 158.780000 137.990000 C 155.700000 134.770000 153.540000 130.890000 151.790000 126.730000 C 151.380000 125.750000 149.330000 126.260000 149.720000 127.200000 C 152.000000 132.630000 154.890000 137.610000 159.510000 141.360000 C 160.090000 141.830000 161.540000 141.430000 161.350000 140.530000 C 160.850000 138.210000 160.690000 135.940000 160.360000 133.680000 C 162.430000 135.670000 164.940000 137.350000 166.940000 139.230000 C 167.500000 139.760000 168.980000 139.270000 168.780000 138.400000 C 168.310000 136.340000 167.920000 134.310000 167.430000 132.310000 C 169.270000 134.330000 171.270000 136.190000 173.310000 138.170000 C 173.790000 138.640000 174.840000 138.330000 175.100000 137.760000 C 177.560000 132.190000 175.600000 129.350000 172.940000 124.410000 Z"/><path fill="rgb(216, 60, 9)" d=" M 145.810000 106.310000 L 163.640000 110.000000 C 163.640000 110.000000 164.870000 119.840000 172.240000 119.840000 C 179.620000 119.840000 228.190000 126.600000 238.030000 115.540000 C 206.020000 112.210000 175.980000 105.300000 147.650000 95.250000 L 145.810000 106.310000 Z"/><path fill="rgb(253, 177, 46)" d=" M 222.040000 89.710000 C 222.740000 83.490000 226.730000 77.660000 230.090000 73.750000 C 252.660000 87.180000 262.010000 106.310000 262.010000 106.310000 C 262.010000 106.310000 223.890000 28.230000 115.680000 76.800000 C 115.680000 76.800000 149.500000 74.340000 145.810000 106.310000 L 201.990000 106.310000 C 197.500000 82.710000 222.040000 89.710000 222.040000 89.710000 Z"/><path fill="rgb(36, 13, 39)" d=" M 230.090000 73.750000 C 226.730000 77.660000 222.740000 83.490000 222.040000 89.710000 C 222.040000 89.710000 197.500000 82.710000 201.990000 106.310000 L 262.010000 106.310000 C 262.010000 106.310000 252.660000 87.180000 230.090000 73.750000 Z"/><path fill="rgb(36, 13, 39)" d=" M 131.650000 93.100000 C 131.650000 96.330866 129.724824 98.950000 127.350000 98.950000 C 124.975176 98.950000 123.050000 96.330866 123.050000 93.100000 C 123.050000 89.869134 124.975176 87.250000 127.350000 87.250000 C 129.724824 87.250000 131.650000 89.869134 131.650000 93.100000 Z"/><path fill="rgb(177, 59, 85)" d=" M 163.020000 176.400000 L 155.030000 176.400000 C 162.400000 173.940000 161.180000 165.950000 161.180000 165.950000 C 131.790000 170.220000 131.270000 145.370000 132.570000 133.760000 C 130.670000 137.060000 127.590000 138.130000 124.760000 131.400000 C 124.730000 132.850000 125.710000 138.900000 123.700000 139.240000 C 122.130000 139.510000 118.030000 133.200000 117.340000 131.860000 C 118.100000 133.850000 118.620000 135.990000 118.240000 138.130000 C 115.060000 137.760000 113.230000 135.070000 111.820000 132.270000 C 106.190000 190.670000 124.570000 189.970000 133.550000 191.760000 C 148.180000 194.670000 161.260000 186.220000 161.260000 186.220000 L 155.640000 184.400000 C 161.170000 183.170000 163.020000 176.400000 163.020000 176.400000 Z"/></svg>