<?xml version="1.0" standalone="no"?><!DOCTYPE svg PUBLIC "-//W3C//DTD SVG 1.1//EN" "http://www.w3.org/Graphics/SVG/1.1/DTD/svg11.dtd"><svg id="Venus0.svg" width="150" height="150" version="1.1" viewBox="0 0 300 300" xmlns="http://www.w3.org/2000/svg" xmlns:xlink="http://www.w3.org/1999/xlink"><defs xmlns="http://www.w3.org/1999/xhtml"><style type="text/css"><![CDATA[
* { border: 0px; margin: 0px; padding: 0px; }
html { background-color: rgb(255, 255, 255); font-family: Verdana, Arial; }
.webgl-content * { position: absolute; width: 100%; height: 100%; user-select: none; }
.webgl-content .logo, .progress { position: absolute; left: 50%; top: 50%; transform: translate(-50%, -50%); }
.webgl-content .logo { background: url("progressLogo.Light.png") center center / contain no-repeat; width: 154px; height: 130px; }
.webgl-content .progress { height: 18px; width: 141px; margin-top: 90px; }
.webgl-content .progress .empty { background: url("progressEmpty.Light.png") right center / cover no-repeat; float: right; width: 100%; height: 100%; display: inline-block; }
.webgl-content .progress .full { background: url("progressFull.Light.png") left center / cover no-repeat; float: left; width: 0%; height: 100%; display: inline-block; }
.webgl-content .logo.Dark { background-image: url("progressLogo.Dark.png"); }
.webgl-content .progress.Dark .empty { background-image: url("progressEmpty.Dark.png"); }
.webgl-content .progress.Dark .full { background-image: url("progressFull.Dark.png"); }
#loading-content { z-index: 10000; position: fixed; width: 100%; height: 100%; left: 0px; top: 0px; overflow: hidden; background: url("background.png"); }
.hud-intro .hud-intro-social .btn-discord, .hud-respawn .hud-respawn-social .btn-discord { background-image: url("//lordz.io/images/discord-icon.png"); }
.hud-intro .hud-intro-social .btn-twitter, .hud-respawn .hud-respawn-social .btn-twitter { background-image: url("//lordz.io/images/twitter-icon.png"); }
.hud-intro .hud-intro-social .btn-facebook, .hud-respawn .hud-respawn-social .btn-facebook { background-image: url("//lordz.io/images/facebook-icon.png"); }
.hud-intro .hud-intro-social .btn-youtube, .hud-respawn .hud-respawn-social .btn-youtube { background-image: url("//lordz.io/images/youtube-icon.png"); }
* { box-sizing: border-box; user-select: none; }
.btn { position: relative; display: inline-block; top: 0px; height: 36px; line-height: 36px; padding: 0px 20px; background: rgb(68, 68, 68); color: rgb(238, 238, 238); border: 0px; font-size: 14px; vertical-align: top; text-align: center; text-decoration: none; text-shadow: rgba(0, 0, 0, 0.4) 0px 1px 0px; box-shadow: rgba(0, 0, 0, 0.2) 0px 2px 10px, rgb(51, 51, 51) 0px 4px 0px; border-radius: 4px; transition: all 0.15s ease-in-out 0s; }
.btn:hover, .btn:active { background-color: rgb(85, 85, 85); color: rgb(255, 255, 255); }
.btn:active { top: 4px; box-shadow: rgba(0, 0, 0, 0.2) 0px 2px 10px !important; }
.btn-green { background-color: rgb(71, 149, 13); box-shadow: rgba(0, 0, 0, 0.2) 0px 2px 10px, rgb(53, 131, 0) 0px 4px 0px; }
.btn-green:hover, .btn-green:active { background-color: rgb(100, 184, 32); }
.btn-red { background-color: rgb(179, 53, 60); box-shadow: rgba(0, 0, 0, 0.2) 0px 2px 10px, rgb(161, 35, 42) 0px 4px 0px; }
.btn-red:hover, .btn-red:active { background-color: rgb(203, 87, 91); }
.btn-blue { background-color: rgb(29, 141, 238); box-shadow: rgba(0, 0, 0, 0.2) 0px 2px 10px, rgb(11, 123, 220) 0px 4px 0px; }
.btn-blue:hover, .btn-blue:active { background-color: rgb(79, 167, 238); }
.btn-purple { background-color: rgb(114, 55, 228); box-shadow: rgba(0, 0, 0, 0.2) 0px 2px 10px, rgb(96, 37, 210) 0px 4px 0px; }
.btn-purple:hover, .btn-purple:active { background-color: rgb(130, 89, 228); }
.btn-twitter { background-color: rgb(27, 149, 224); box-shadow: rgba(0, 0, 0, 0.2) 0px 2px 10px, rgb(9, 131, 206) 0px 4px 0px; }
.btn-twitter:hover, .btn-twitter:active { background-color: rgb(12, 122, 191); }
.btn-facebook { background-color: rgb(66, 103, 178); box-shadow: rgba(0, 0, 0, 0.2) 0px 2px 10px, rgb(48, 85, 160) 0px 4px 0px; }
.btn-facebook:hover, .btn-facebook:active { background-color: rgb(54, 88, 153); }
.btn-google { background-color: rgb(221, 75, 57); box-shadow: rgba(0, 0, 0, 0.2) 0px 2px 10px, rgb(203, 57, 39) 0px 4px 0px; }
.btn-google:hover, .btn-google:active { background-color: rgb(186, 63, 49); }
.btn-discord { background-color: rgb(114, 137, 218); box-shadow: rgba(0, 0, 0, 0.2) 0px 2px 10px, rgb(96, 119, 200) 0px 4px 0px; }
.btn-discord:hover, .btn-discord:active { background-color: rgb(90, 109, 176); }
.btn-youtube { background-color: rgb(229, 45, 39); box-shadow: rgba(0, 0, 0, 0.2) 0px 2px 10px, rgb(211, 27, 21) 0px 4px 0px; }
.btn-youtube:hover, .btn-youtube:active { background-color: rgb(186, 37, 33); }
.hud { position: fixed; top: 0px; left: 0px; bottom: 0px; right: 0px; }
.hud .hud-bottom-left { display: flex; position: absolute; bottom: 20px; left: 20px; flex-direction: column-reverse; }
.hud-intro .hud-intro-corner-bottom-left, .hud-respawn .hud-respawn-corner-bottom-left { position: fixed; bottom: 20px; left: 20px; text-align: left; }
.hud-intro .hud-intro-social, .hud-respawn .hud-respawn-social { width: 240px; line-height: 24px; font-size: 14px; color: rgb(119, 119, 119); }
.hud-intro .hud-intro-social .btn, .hud-respawn .hud-respawn-social .btn { display: block; float: left; margin: 0px 10px 0px 0px; width: 40px; height: 40px; line-height: 40px; background-size: 24px; background-position: center center; background-repeat: no-repeat; }
.hud-intro .hud-intro-more-games { position: relative; bottom: 5px; line-height: 20px; font-size: 14px; color: rgba(255, 255, 255, 0.4); text-shadow: rgba(0, 0, 0, 0.2) 0px 1px 3px; }
.hud-intro .hud-intro-more-games a { display: inline-block; padding: 0px 20px; line-height: 40px; background: rgb(132, 115, 212); color: rgb(238, 238, 238); text-decoration: none; border-radius: 4px; transition: all 0.15s ease-in-out 0s; }
.hud-intro .hud-intro-more-games a:hover, .hud-intro .hud-intro-more-games a:active { background: rgb(103, 90, 166); }
#preroll video { left: 0px; top: 0px; }
.fb_hidden { position: absolute; top: -10000px; z-index: 10001; }
.fb_reposition { overflow: hidden; position: relative; }
.fb_invisible { display: none; }
.fb_reset { background: none; border: 0px; border-spacing: 0px; color: rgb(0, 0, 0); cursor: auto; direction: ltr; font-family: "lucida grande", tahoma, verdana, arial, sans-serif; font-size: 11px; font-style: normal; font-variant: normal; font-weight: normal; letter-spacing: normal; line-height: 1; margin: 0px; overflow: visible; padding: 0px; text-align: left; text-decoration: none; text-indent: 0px; text-shadow: none; text-transform: none; visibility: visible; white-space: normal; word-spacing: normal; }
.fb_animate { animation: 0.3s ease 0s 1 normal forwards running fb_transform; }
.fb_dialog { background: rgba(82, 82, 82, 0.7); position: absolute; top: -10000px; z-index: 10001; }
.fb_dialog_advanced { border-radius: 8px; padding: 10px; }
.fb_dialog_content { background: rgb(255, 255, 255); color: rgb(55, 55, 55); }
.fb_dialog_close_icon { background: url("https://static.xx.fbcdn.net/rsrc.php/v3/yq/r/IE9JII6Z1Ys.png") 0px 0px no-repeat scroll transparent; cursor: pointer; display: block; height: 15px; position: absolute; right: 18px; top: 17px; width: 15px; }
.fb_dialog_mobile .fb_dialog_close_icon { left: 5px; right: auto; top: 5px; }
.fb_dialog_padding { background-color: transparent; position: absolute; width: 1px; z-index: -1; }
.fb_dialog_close_icon:hover { background: url("https://static.xx.fbcdn.net/rsrc.php/v3/yq/r/IE9JII6Z1Ys.png") 0px -15px no-repeat scroll transparent; }
.fb_dialog_close_icon:active { background: url("https://static.xx.fbcdn.net/rsrc.php/v3/yq/r/IE9JII6Z1Ys.png") 0px -30px no-repeat scroll transparent; }
.fb_dialog_iframe { line-height: 0; }
.fb_dialog_content .dialog_title { background: rgb(109, 132, 180); border: 1px solid rgb(54, 88, 153); color: rgb(255, 255, 255); font-size: 14px; font-weight: bold; margin: 0px; }
body.fb_hidden { height: 100%; left: 0px; margin: 0px; overflow: visible; position: absolute; top: -10000px; transform: none; width: 100%; }
.fb_dialog.fb_dialog_mobile.loading { background: url("https://static.xx.fbcdn.net/rsrc.php/v3/ya/r/3rhSv5V8j3o.gif") 50% 50% no-repeat white; min-height: 100%; min-width: 100%; overflow: hidden; position: absolute; top: 0px; z-index: 10001; }
.fb_dialog.fb_dialog_mobile.loading.centered { background: none; height: auto; min-height: initial; min-width: initial; width: auto; }
.fb_dialog.fb_dialog_mobile.loading.centered #fb_dialog_loader_spinner { width: 100%; }
.fb_dialog.fb_dialog_mobile.loading.centered .fb_dialog_content { background: none; }
.loading.centered #fb_dialog_loader_close { clear: both; color: rgb(255, 255, 255); display: block; font-size: 18px; padding-top: 20px; }
#fb-root #fb_dialog_ipad_overlay { background: rgba(0, 0, 0, 0.4); bottom: 0px; left: 0px; min-height: 100%; position: absolute; right: 0px; top: 0px; width: 100%; z-index: 10000; }
#fb-root #fb_dialog_ipad_overlay.hidden { display: none; }
.fb_dialog.fb_dialog_mobile.loading iframe { visibility: hidden; }
.fb_dialog_mobile .fb_dialog_iframe { position: sticky; top: 0px; }
.fb_dialog_content .dialog_header { border-bottom: 1px solid rgb(4, 59, 135); border-top-color: rgb(4, 59, 135); border-right-color: rgb(4, 59, 135); border-left-color: rgb(4, 59, 135); box-shadow: white 0px 1px 1px -1px inset; color: rgb(255, 255, 255); font: bold 14px Helvetica, sans-serif; text-overflow: ellipsis; text-shadow: rgba(0, 30, 84, 0.298) 0px -1px 0px; vertical-align: middle; white-space: nowrap; }
.fb_dialog_content .dialog_header table { height: 43px; width: 100%; }
.fb_dialog_content .dialog_header td.header_left { font-size: 12px; padding-left: 5px; vertical-align: middle; width: 60px; }
.fb_dialog_content .dialog_header td.header_right { font-size: 12px; padding-right: 5px; vertical-align: middle; width: 60px; }
.fb_dialog_content .touchable_button { background-clip: padding-box; border: 1px solid rgb(41, 72, 125); border-radius: 3px; display: inline-block; line-height: 18px; margin-top: 3px; max-width: 85px; padding: 4px 12px; position: relative; }
.fb_dialog_content .dialog_header .touchable_button input { background: none; border: none; color: rgb(255, 255, 255); font: bold 12px Helvetica, sans-serif; margin: 2px -12px; padding: 2px 6px 3px; text-shadow: rgba(0, 30, 84, 0.298) 0px -1px 0px; }
.fb_dialog_content .dialog_header .header_center { color: rgb(255, 255, 255); font-size: 16px; font-weight: bold; line-height: 18px; text-align: center; vertical-align: middle; }
.fb_dialog_content .dialog_content { background: url("https://static.xx.fbcdn.net/rsrc.php/v3/y9/r/jKEcVPZFk-2.gif") 50% 50% no-repeat; border-width: 0px 1px; border-right-style: solid; border-left-style: solid; border-right-color: rgb(74, 74, 74); border-left-color: rgb(74, 74, 74); border-image: initial; border-bottom-style: initial; border-bottom-color: initial; border-top-style: initial; border-top-color: initial; height: 150px; }
.fb_dialog_content .dialog_footer { background: rgb(245, 246, 247); border-width: 1px; border-style: solid; border-color: rgb(204, 204, 204) rgb(74, 74, 74) rgb(74, 74, 74); border-image: initial; height: 40px; }
#fb_dialog_loader_close { float: left; }
.fb_dialog.fb_dialog_mobile .fb_dialog_close_button { text-shadow: rgba(0, 30, 84, 0.298) 0px -1px 0px; }
.fb_dialog.fb_dialog_mobile .fb_dialog_close_icon { visibility: hidden; }
#fb_dialog_loader_spinner { animation: 1.2s linear 0s infinite normal none running rotateSpinner; background-color: transparent; background-image: url("https://static.xx.fbcdn.net/rsrc.php/v3/yD/r/t-wz8gw1xG1.png"); background-position: 50% 50%; background-repeat: no-repeat; height: 24px; width: 24px; }
.fb_iframe_widget { display: inline-block; position: relative; }
.fb_iframe_widget span { display: inline-block; position: relative; text-align: justify; }
.fb_iframe_widget iframe { position: absolute; }
.fb_iframe_widget_fluid_desktop, .fb_iframe_widget_fluid_desktop span, .fb_iframe_widget_fluid_desktop iframe { max-width: 100%; }
.fb_iframe_widget_fluid_desktop iframe { min-width: 220px; position: relative; }
.fb_iframe_widget_lift { z-index: 1; }
.fb_iframe_widget_fluid { display: inline; }
.fb_iframe_widget_fluid span { width: 100%; }
.st0 { fill: rgb(119, 183, 73); }
.st1 { fill: rgb(247, 175, 47); }
.st2 { fill: rgb(233, 81, 15); }
.st3 { fill: url("#SVGID_1_"); }
.st4 { fill: url("#SVGID_2_"); }
.st5 { fill: rgb(252, 242, 119); }
.st6 { fill: url("#SVGID_3_"); }
.st7 { fill: url("#SVGID_4_"); }
.st8 { fill: url("#SVGID_5_"); }
.st9 { fill: url("#SVGID_6_"); }
.st10 { fill: url("#SVGID_7_"); }
.st11 { fill: url("#SVGID_8_"); }
.st12 { fill: url("#SVGID_9_"); }
.st13 { fill: url("#SVGID_10_"); }
.st14 { fill: url("#SVGID_11_"); }
.st15 { fill: url("#SVGID_12_"); }
.st16 { fill: url("#SVGID_13_"); }
.st17 { fill: url("#SVGID_14_"); }
.st18 { fill: url("#SVGID_15_"); }
.st19 { fill: url("#SVGID_16_"); }
.st0 { fill: rgb(119, 183, 73); }
.st1 { fill: rgb(247, 175, 47); }
.st2 { fill: rgb(233, 81, 15); }
.st3 { fill: url("#SVGID_1_"); }
.st4 { fill: url("#SVGID_2_"); }
.st5 { fill: rgb(252, 242, 119); }
.st6 { fill: url("#SVGID_3_"); }
.st7 { fill: url("#SVGID_4_"); }
.st8 { fill: url("#SVGID_5_"); }
.st9 { fill: url("#SVGID_6_"); }
.st10 { fill: url("#SVGID_7_"); }
.st11 { fill: url("#SVGID_8_"); }
.st12 { fill: url("#SVGID_9_"); }
.st13 { fill: url("#SVGID_10_"); }
.st14 { fill: url("#SVGID_11_"); }
.st15 { fill: url("#SVGID_12_"); }
.st16 { fill: url("#SVGID_13_"); }
.st17 { fill: url("#SVGID_14_"); }
.st18 { fill: url("#SVGID_15_"); }
.st19 { fill: url("#SVGID_16_"); }
.st0 { fill: rgb(119, 183, 73); }
.st1 { fill: rgb(247, 175, 47); }
.st2 { fill: rgb(233, 81, 15); }
.st3 { fill: url("#SVGID_1_"); }
.st4 { fill: url("#SVGID_2_"); }
.st5 { fill: rgb(252, 242, 119); }
.st6 { fill: url("#SVGID_3_"); }
.st7 { fill: url("#SVGID_4_"); }
.st8 { fill: url("#SVGID_5_"); }
.st9 { fill: url("#SVGID_6_"); }
.st10 { fill: url("#SVGID_7_"); }
.st11 { fill: url("#SVGID_8_"); }
.st12 { fill: url("#SVGID_9_"); }
.st13 { fill: url("#SVGID_10_"); }
.st14 { fill: url("#SVGID_11_"); }
.st15 { fill: url("#SVGID_12_"); }
.st16 { fill: url("#SVGID_13_"); }
.st17 { fill: url("#SVGID_14_"); }
.st18 { fill: url("#SVGID_15_"); }
.st19 { fill: url("#SVGID_16_"); }
.st0 { fill: rgb(119, 183, 73); }
.st1 { fill: rgb(247, 175, 47); }
.st2 { fill: rgb(233, 81, 15); }
.st3 { fill: url("#SVGID_1_"); }
.st4 { fill: url("#SVGID_2_"); }
.st5 { fill: rgb(252, 242, 119); }
.st6 { fill: url("#SVGID_3_"); }
.st7 { fill: url("#SVGID_4_"); }
.st8 { fill: url("#SVGID_5_"); }
.st9 { fill: url("#SVGID_6_"); }
.st10 { fill: url("#SVGID_7_"); }
.st11 { fill: url("#SVGID_8_"); }
.st12 { fill: url("#SVGID_9_"); }
.st13 { fill: url("#SVGID_10_"); }
.st14 { fill: url("#SVGID_11_"); }
.st15 { fill: url("#SVGID_12_"); }
.st16 { fill: url("#SVGID_13_"); }
.st17 { fill: url("#SVGID_14_"); }
.st18 { fill: url("#SVGID_15_"); }
.st19 { fill: url("#SVGID_16_"); }]]></style></defs><path fill="rgb(23, 10, 0)" d=" M 222.600000 33.270000 C 222.620000 33.280000 222.630000 33.300000 222.650000 33.310000 C 222.680000 33.330000 222.700000 33.340000 222.720000 33.360000 C 222.730000 33.360000 222.730000 33.370000 222.740000 33.370000 C 222.760000 33.390000 222.770000 33.390000 222.770000 33.390000 L 218.750000 37.060000 C 218.770000 37.110000 218.790000 37.140000 218.810000 37.190000 L 219.480000 38.900000 L 223.320000 48.690000 C 223.920000 50.220000 223.100000 51.150000 221.500000 50.740000 L 217.570000 49.740000 C 215.970000 49.330000 215.110000 50.270000 215.660000 51.830000 L 217.080000 55.810000 C 217.640000 57.370000 216.820000 58.190000 215.260000 57.640000 L 211.500000 56.320000 C 209.940000 55.780000 208.810000 56.670000 208.990000 58.310000 L 209.340000 61.600000 C 209.520000 63.240000 208.340000 64.300000 206.730000 63.950000 L 203.430000 63.250000 C 201.810000 62.900000 200.720000 63.950000 201.000000 65.570000 L 201.650000 69.390000 C 201.930000 71.010000 200.940000 71.760000 199.460000 71.040000 L 195.860000 69.300000 C 194.380000 68.580000 193.470000 69.310000 193.850000 70.910000 L 195.210000 76.700000 C 195.590000 78.300000 194.650000 79.100000 193.130000 78.460000 L 188.730000 76.610000 C 187.210000 75.970000 186.290000 76.760000 186.680000 78.360000 L 187.940000 83.520000 C 188.340000 85.130000 187.420000 85.910000 185.900000 85.250000 L 180.610000 82.980000 C 179.090000 82.330000 178.080000 83.130000 178.360000 84.760000 L 179.210000 89.720000 C 179.480000 91.350000 178.440000 92.230000 176.880000 91.690000 L 171.260000 89.710000 C 169.700000 89.160000 168.460000 90.070000 168.490000 91.720000 L 168.610000 97.460000 C 168.640000 99.110000 167.410000 99.980000 165.870000 99.400000 L 160.760000 97.460000 C 159.220000 96.880000 158.120000 97.740000 158.330000 99.380000 L 159.170000 106.110000 C 159.370000 107.750000 158.330000 108.490000 156.860000 107.750000 L 152.560000 105.600000 C 151.090000 104.860000 150.110000 105.590000 150.380000 107.220000 L 151.530000 113.900000 C 151.800000 115.520000 150.750000 116.420000 149.190000 115.900000 L 141.170000 113.200000 L 136.910000 111.760000 L 109.600000 136.690000 C 114.870000 136.620000 131.660000 135.860000 151.050000 129.710000 L 150.820000 123.920000 C 150.780000 122.820000 151.580000 122.250000 152.600000 122.640000 L 156.740000 124.250000 C 157.760000 124.650000 158.630000 124.080000 158.670000 122.980000 L 158.810000 118.760000 C 158.840000 117.660000 159.690000 117.120000 160.700000 117.570000 L 165.210000 119.580000 C 166.220000 120.020000 167.100000 119.490000 167.170000 118.390000 L 167.550000 112.640000 C 167.620000 111.540000 168.490000 111.030000 169.480000 111.500000 L 173.630000 113.480000 C 174.620000 113.960000 175.530000 113.450000 175.650000 112.360000 L 176.200000 107.360000 C 176.320000 106.270000 177.260000 105.690000 178.290000 106.070000 L 181.480000 107.260000 C 182.510000 107.640000 183.270000 107.060000 183.170000 105.970000 L 182.820000 102.110000 C 182.810000 102.020000 182.820000 101.950000 182.820000 101.870000 C 182.850000 100.930000 183.570000 100.450000 184.520000 100.790000 L 184.600000 100.820000 L 187.900000 102.000000 C 188.940000 102.370000 189.780000 101.770000 189.770000 100.670000 L 189.740000 97.730000 L 189.730000 95.670000 C 189.720000 94.570000 190.550000 94.000000 191.570000 94.400000 L 193.780000 95.270000 L 195.270000 95.860000 C 196.290000 96.260000 196.980000 95.700000 196.790000 94.620000 L 196.600000 93.540000 L 196.140000 90.830000 C 195.950000 89.740000 196.650000 89.160000 197.680000 89.540000 L 200.180000 90.450000 C 201.210000 90.830000 202.000000 90.240000 201.940000 89.140000 L 201.710000 85.460000 C 201.640000 84.360000 202.440000 83.770000 203.470000 84.130000 L 205.280000 84.780000 C 206.320000 85.140000 207.240000 84.550000 207.330000 83.450000 L 207.610000 80.000000 C 207.700000 78.900000 208.450000 78.600000 209.270000 79.340000 L 212.970000 82.650000 C 213.000000 82.680000 213.020000 82.710000 213.040000 82.740000 C 213.790000 81.470000 214.520000 80.190000 215.220000 78.870000 C 213.820000 72.440000 201.480000 80.260000 191.800000 87.570000 C 242.150000 44.750000 222.420000 33.140000 222.420000 33.140000 C 222.440000 33.160000 222.470000 33.180000 222.500000 33.190000 C 222.540000 33.220000 222.570000 33.250000 222.600000 33.270000 Z"/><path fill="rgb(255, 255, 255)" d=" M 149.190000 115.900000 C 150.750000 116.420000 151.800000 115.520000 151.530000 113.900000 L 150.390000 107.220000 C 150.110000 105.590000 151.090000 104.860000 152.560000 105.600000 L 156.860000 107.750000 C 158.330000 108.490000 159.380000 107.750000 159.170000 106.110000 L 158.330000 99.380000 C 158.130000 97.740000 159.220000 96.880000 160.770000 97.460000 L 165.870000 99.400000 C 167.410000 99.980000 168.640000 99.110000 168.610000 97.460000 L 168.490000 91.720000 C 168.460000 90.070000 169.710000 89.170000 171.260000 89.710000 L 176.880000 91.690000 C 178.440000 92.230000 179.490000 91.350000 179.210000 89.720000 L 178.360000 84.760000 C 178.080000 83.130000 179.090000 82.340000 180.610000 82.990000 L 185.900000 85.250000 C 187.420000 85.900000 188.340000 85.120000 187.950000 83.520000 L 186.680000 78.360000 C 186.290000 76.760000 187.210000 75.970000 188.730000 76.610000 L 193.130000 78.460000 C 194.660000 79.100000 195.590000 78.300000 195.210000 76.700000 L 193.850000 70.910000 C 193.470000 69.310000 194.380000 68.580000 195.870000 69.300000 L 199.460000 71.040000 C 200.940000 71.760000 201.930000 71.020000 201.650000 69.390000 L 201.000000 65.570000 C 200.720000 63.950000 201.810000 62.900000 203.430000 63.250000 L 206.730000 63.950000 C 208.350000 64.300000 209.520000 63.240000 209.350000 61.600000 L 208.990000 58.310000 C 208.820000 56.670000 209.940000 55.770000 211.500000 56.320000 L 215.260000 57.640000 C 216.820000 58.190000 217.640000 57.370000 217.090000 55.810000 L 215.670000 51.830000 C 215.110000 50.270000 215.970000 49.330000 217.570000 49.740000 L 221.500000 50.740000 C 223.100000 51.150000 223.920000 50.220000 223.320000 48.690000 L 219.480000 38.900000 L 218.810000 37.190000 C 218.790000 37.140000 218.770000 37.110000 218.750000 37.060000 L 136.910000 111.760000 L 141.170000 113.200000 L 149.190000 115.900000 Z"/><path fill="rgb(255, 255, 255)" d=" M 209.270000 79.340000 C 208.450000 78.610000 207.710000 78.900000 207.620000 80.000000 L 207.330000 83.450000 C 207.240000 84.550000 206.320000 85.140000 205.280000 84.780000 L 203.470000 84.130000 C 202.440000 83.770000 201.640000 84.360000 201.710000 85.460000 L 201.940000 89.140000 C 202.010000 90.240000 201.220000 90.830000 200.180000 90.450000 L 197.680000 89.540000 C 196.650000 89.160000 195.960000 89.740000 196.140000 90.830000 L 196.610000 93.540000 L 196.790000 94.620000 C 196.980000 95.710000 196.290000 96.260000 195.270000 95.860000 L 193.780000 95.280000 L 191.570000 94.400000 C 190.550000 94.000000 189.720000 94.570000 189.730000 95.670000 L 189.750000 97.730000 L 189.770000 100.670000 C 189.780000 101.770000 188.940000 102.370000 187.900000 102.000000 L 184.600000 100.820000 L 184.530000 100.790000 C 183.570000 100.450000 182.850000 100.940000 182.820000 101.870000 C 182.820000 101.950000 182.810000 102.030000 182.820000 102.110000 L 183.180000 105.970000 C 183.280000 107.060000 182.510000 107.650000 181.480000 107.260000 L 178.290000 106.070000 C 177.260000 105.690000 176.320000 106.270000 176.200000 107.360000 L 175.650000 112.360000 C 175.530000 113.450000 174.620000 113.960000 173.630000 113.480000 L 169.480000 111.500000 C 168.490000 111.030000 167.620000 111.540000 167.550000 112.640000 L 167.170000 118.390000 C 167.100000 119.490000 166.220000 120.020000 165.210000 119.580000 L 160.700000 117.570000 C 159.690000 117.120000 158.840000 117.660000 158.810000 118.760000 L 158.670000 122.980000 C 158.630000 124.080000 157.760000 124.650000 156.740000 124.250000 L 152.610000 122.650000 C 151.580000 122.250000 150.780000 122.820000 150.820000 123.920000 L 151.050000 129.710000 C 172.610000 122.870000 197.360000 109.370000 213.050000 82.740000 C 213.020000 82.710000 213.000000 82.680000 212.970000 82.660000 L 209.270000 79.340000 Z"/><path fill="rgb(231, 41, 79)" d=" M 103.540000 146.240000 C 114.470000 150.170000 152.620000 161.130000 186.930000 137.320000 C 216.950000 116.490000 218.030000 94.470000 216.560000 84.440000 C 212.100000 90.890000 204.160000 108.360000 182.650000 122.170000 C 155.310000 139.720000 120.120000 139.150000 108.250000 137.930000 L 104.310000 141.530000 C 105.210000 140.300000 106.160000 139.050000 107.140000 137.800000 C 107.070000 137.790000 106.990000 137.780000 106.920000 137.780000 L 107.880000 136.700000 C 107.880000 136.700000 107.930000 136.700000 108.000000 136.700000 C 135.600000 101.720000 188.250000 58.710000 211.870000 34.390000 C 209.320000 29.730000 199.490000 26.690000 190.710000 24.850000 C 173.340000 25.070000 149.210000 31.540000 119.030000 54.440000 C 92.250000 74.770000 89.470000 100.420000 92.310000 119.240000 C 92.720000 121.970000 93.250000 124.550000 93.840000 126.950000 C 95.240000 132.670000 96.990000 137.360000 98.350000 140.530000 C 99.570000 143.410000 100.470000 145.030000 100.470000 145.030000 C 100.470000 145.030000 101.560000 145.520000 103.540000 146.240000 Z M 104.010000 84.440000 C 104.150000 83.530000 106.070000 83.320000 105.890000 84.470000 C 105.560000 86.580000 105.130000 88.690000 104.800000 90.800000 C 104.660000 91.720000 102.740000 91.920000 102.920000 90.780000 C 103.250000 88.660000 103.680000 86.560000 104.010000 84.440000 Z M 103.400000 99.160000 C 103.520000 101.920000 103.600000 104.670000 103.730000 107.430000 C 103.770000 108.370000 101.840000 108.870000 101.790000 107.810000 C 101.670000 105.060000 101.590000 102.300000 101.470000 99.550000 C 101.430000 98.600000 103.350000 98.110000 103.400000 99.160000 Z M 98.100000 87.990000 C 98.280000 87.070000 100.210000 86.870000 99.980000 88.010000 C 99.420000 90.890000 98.770000 93.750000 98.200000 96.630000 C 98.030000 97.550000 96.100000 97.750000 96.320000 96.610000 C 96.880000 93.730000 97.540000 90.870000 98.100000 87.990000 Z"/><path fill="rgb(231, 41, 79)" d=" M 215.330000 79.170000 C 215.340000 79.200000 215.350000 79.230000 215.370000 79.260000 C 215.350000 79.230000 215.340000 79.200000 215.330000 79.170000 Z"/><path fill="rgb(231, 41, 79)" d=" M 215.540000 79.790000 C 215.560000 79.850000 215.570000 79.910000 215.590000 79.970000 C 215.570000 79.910000 215.560000 79.850000 215.540000 79.790000 Z"/><path fill="rgb(231, 41, 79)" d=" M 215.430000 79.440000 C 215.440000 79.480000 215.450000 79.520000 215.470000 79.570000 C 215.450000 79.520000 215.440000 79.480000 215.430000 79.440000 Z"/><path fill="rgb(231, 41, 79)" d=" M 215.670000 80.230000 C 215.690000 80.310000 215.720000 80.390000 215.740000 80.480000 C 215.720000 80.390000 215.690000 80.310000 215.670000 80.230000 Z"/><path fill="rgb(231, 41, 79)" d=" M 215.980000 81.410000 C 215.980000 81.380000 215.970000 81.350000 215.960000 81.320000 C 215.910000 81.110000 215.860000 80.920000 215.810000 80.740000 C 215.920000 81.130000 216.030000 81.570000 216.140000 82.070000 C 216.080000 81.840000 216.030000 81.620000 215.980000 81.410000 Z"/><path fill="rgb(231, 41, 79)" d=" M 215.220000 78.870000 C 215.220000 78.870000 215.230000 78.890000 215.240000 78.920000 C 215.230000 78.890000 215.220000 78.870000 215.220000 78.870000 Z"/><path fill="rgb(231, 41, 79)" d=" M 215.260000 78.970000 C 215.270000 78.990000 215.280000 79.010000 215.290000 79.040000 C 215.280000 79.010000 215.270000 78.990000 215.260000 78.970000 Z"/><path fill="rgb(248, 173, 208)" d=" M 211.870000 34.390000 C 188.250000 58.710000 135.600000 101.720000 108.000000 136.700000 C 107.930000 136.700000 107.880000 136.700000 107.880000 136.700000 L 106.920000 137.770000 C 106.980000 137.780000 107.060000 137.790000 107.140000 137.800000 C 106.160000 139.050000 105.210000 140.300000 104.310000 141.530000 L 108.250000 137.920000 C 120.120000 139.150000 155.310000 139.720000 182.650000 122.170000 C 204.160000 108.360000 212.100000 90.890000 216.560000 84.440000 C 216.560000 84.440000 216.560000 84.440000 216.560000 84.440000 C 216.560000 84.420000 216.560000 84.410000 216.560000 84.390000 C 216.490000 83.980000 216.430000 83.580000 216.360000 83.210000 C 216.360000 83.190000 216.360000 83.180000 216.350000 83.160000 C 216.280000 82.780000 216.210000 82.430000 216.140000 82.090000 C 216.140000 82.090000 216.140000 82.080000 216.130000 82.070000 C 216.030000 81.570000 215.920000 81.130000 215.810000 80.740000 C 215.790000 80.650000 215.760000 80.560000 215.740000 80.480000 C 215.720000 80.390000 215.690000 80.310000 215.670000 80.230000 C 215.640000 80.130000 215.620000 80.050000 215.590000 79.970000 C 215.570000 79.910000 215.560000 79.850000 215.540000 79.790000 C 215.510000 79.710000 215.490000 79.640000 215.470000 79.570000 C 215.450000 79.520000 215.440000 79.480000 215.430000 79.440000 C 215.410000 79.370000 215.390000 79.320000 215.370000 79.260000 C 215.350000 79.230000 215.340000 79.200000 215.330000 79.170000 C 215.320000 79.120000 215.300000 79.080000 215.290000 79.040000 C 215.280000 79.010000 215.270000 78.990000 215.260000 78.970000 C 215.250000 78.950000 215.250000 78.930000 215.240000 78.910000 C 215.230000 78.890000 215.220000 78.870000 215.220000 78.870000 C 214.520000 80.190000 213.790000 81.470000 213.050000 82.740000 C 197.360000 109.370000 172.610000 122.870000 151.050000 129.710000 C 131.660000 135.850000 114.870000 136.620000 109.600000 136.690000 L 136.910000 111.760000 L 218.750000 37.060000 L 222.770000 33.390000 C 222.770000 33.390000 222.760000 33.390000 222.740000 33.370000 C 222.730000 33.370000 222.720000 33.360000 222.720000 33.360000 C 222.700000 33.340000 222.680000 33.330000 222.650000 33.300000 C 222.640000 33.290000 222.620000 33.280000 222.600000 33.270000 C 222.570000 33.250000 222.540000 33.220000 222.500000 33.190000 C 222.480000 33.180000 222.450000 33.160000 222.420000 33.140000 C 222.380000 33.110000 222.340000 33.080000 222.290000 33.050000 C 222.260000 33.020000 222.220000 33.000000 222.180000 32.970000 C 222.130000 32.940000 222.080000 32.900000 222.020000 32.860000 C 221.980000 32.830000 221.940000 32.810000 221.890000 32.770000 C 221.830000 32.730000 221.760000 32.690000 221.690000 32.640000 C 221.640000 32.610000 221.590000 32.580000 221.540000 32.540000 C 221.460000 32.490000 221.380000 32.440000 221.300000 32.390000 C 221.240000 32.360000 221.190000 32.320000 221.130000 32.280000 C 221.040000 32.230000 220.940000 32.170000 220.850000 32.110000 C 220.780000 32.070000 220.720000 32.030000 220.650000 31.990000 C 220.550000 31.930000 220.430000 31.860000 220.310000 31.790000 C 220.250000 31.760000 220.190000 31.720000 220.130000 31.690000 C 219.980000 31.600000 219.820000 31.510000 219.660000 31.420000 C 219.620000 31.400000 219.580000 31.380000 219.540000 31.360000 C 219.330000 31.240000 219.110000 31.120000 218.890000 31.000000 C 218.880000 31.000000 218.870000 31.000000 218.870000 30.990000 C 218.650000 30.880000 218.420000 30.760000 218.180000 30.640000 C 218.110000 30.610000 218.040000 30.570000 217.970000 30.540000 C 217.790000 30.450000 217.610000 30.360000 217.420000 30.270000 C 217.330000 30.220000 217.230000 30.180000 217.130000 30.130000 C 216.960000 30.050000 216.790000 29.970000 216.610000 29.890000 C 216.500000 29.840000 216.380000 29.790000 216.270000 29.740000 C 216.090000 29.660000 215.910000 29.580000 215.730000 29.500000 C 215.610000 29.450000 215.480000 29.400000 215.360000 29.340000 C 215.170000 29.270000 214.980000 29.190000 214.790000 29.110000 C 214.660000 29.060000 214.530000 29.000000 214.400000 28.950000 C 214.200000 28.870000 214.000000 28.790000 213.800000 28.720000 C 213.660000 28.660000 213.520000 28.610000 213.380000 28.560000 C 213.170000 28.480000 212.960000 28.400000 212.740000 28.330000 C 212.600000 28.270000 212.450000 28.220000 212.300000 28.170000 C 212.080000 28.090000 211.850000 28.010000 211.610000 27.940000 C 211.470000 27.890000 211.330000 27.840000 211.180000 27.790000 C 210.920000 27.710000 210.660000 27.630000 210.390000 27.550000 C 210.260000 27.510000 210.130000 27.460000 210.000000 27.420000 C 209.660000 27.320000 209.300000 27.220000 208.950000 27.120000 C 208.890000 27.110000 208.830000 27.090000 208.760000 27.070000 C 208.340000 26.950000 207.900000 26.840000 207.450000 26.730000 C 207.370000 26.700000 207.270000 26.680000 207.180000 26.660000 C 206.830000 26.580000 206.470000 26.490000 206.110000 26.410000 C 205.950000 26.370000 205.790000 26.340000 205.630000 26.300000 C 205.320000 26.240000 205.020000 26.170000 204.710000 26.110000 C 204.520000 26.070000 204.330000 26.040000 204.140000 26.000000 C 203.850000 25.950000 203.550000 25.890000 203.250000 25.840000 C 203.050000 25.800000 202.840000 25.770000 202.630000 25.730000 C 202.340000 25.690000 202.040000 25.640000 201.740000 25.590000 C 201.520000 25.560000 201.300000 25.530000 201.080000 25.500000 C 200.780000 25.460000 200.470000 25.410000 200.160000 25.380000 C 199.930000 25.350000 199.710000 25.320000 199.480000 25.290000 C 199.170000 25.260000 198.850000 25.220000 198.530000 25.190000 C 198.300000 25.170000 198.070000 25.150000 197.830000 25.130000 C 197.500000 25.100000 197.170000 25.070000 196.830000 25.050000 C 196.600000 25.030000 196.360000 25.010000 196.130000 25.000000 C 195.780000 24.970000 195.420000 24.960000 195.060000 24.940000 C 194.830000 24.930000 194.610000 24.910000 194.370000 24.910000 C 193.980000 24.890000 193.570000 24.880000 193.170000 24.870000 C 192.970000 24.870000 192.770000 24.860000 192.570000 24.860000 C 192.000000 24.850000 191.420000 24.850000 190.830000 24.860000 C 190.790000 24.860000 190.750000 24.860000 190.720000 24.860000 C 199.490000 26.690000 209.320000 29.730000 211.870000 34.390000 Z"/><path fill="rgb(248, 173, 208)" d=" M 98.200000 96.630000 C 98.770000 93.750000 99.420000 90.890000 99.980000 88.010000 C 100.210000 86.870000 98.280000 87.070000 98.100000 87.990000 C 97.540000 90.870000 96.880000 93.730000 96.320000 96.610000 C 96.100000 97.750000 98.030000 97.550000 98.200000 96.630000 Z"/><path fill="rgb(248, 173, 208)" d=" M 104.800000 90.800000 C 105.140000 88.690000 105.560000 86.580000 105.890000 84.470000 C 106.070000 83.320000 104.150000 83.530000 104.010000 84.440000 C 103.680000 86.560000 103.250000 88.660000 102.920000 90.780000 C 102.740000 91.930000 104.660000 91.720000 104.800000 90.800000 Z"/><path fill="rgb(248, 173, 208)" d=" M 103.730000 107.430000 C 103.610000 104.670000 103.520000 101.920000 103.400000 99.160000 C 103.350000 98.110000 101.430000 98.600000 101.470000 99.550000 C 101.590000 102.300000 101.670000 105.050000 101.800000 107.810000 C 101.840000 108.870000 103.770000 108.370000 103.730000 107.430000 Z"/><path fill="rgb(75, 99, 34)" d=" M 86.130000 114.880000 C 80.940000 112.270000 74.530000 112.360000 68.550000 115.130000 C 62.390000 117.990000 57.860000 123.190000 56.430000 129.060000 C 54.880000 135.460000 59.040000 144.800000 65.350000 149.050000 C 67.620000 150.580000 69.960000 151.350000 72.260000 151.350000 C 74.520000 151.350000 76.750000 150.600000 78.830000 149.110000 C 81.530000 147.170000 82.600000 144.040000 81.680000 140.730000 C 80.860000 137.790000 78.660000 135.600000 76.320000 135.420000 C 75.390000 135.350000 73.090000 135.520000 71.640000 138.700000 C 71.180000 139.700000 71.620000 140.890000 72.620000 141.350000 C 73.630000 141.800000 74.820000 141.360000 75.280000 140.360000 C 75.610000 139.630000 75.920000 139.400000 76.010000 139.410000 C 76.420000 139.440000 77.410000 140.290000 77.830000 141.810000 C 78.100000 142.770000 78.280000 144.580000 76.500000 145.860000 C 73.690000 147.880000 70.690000 147.830000 67.580000 145.730000 C 62.690000 142.430000 59.160000 134.790000 60.320000 130.000000 C 61.460000 125.310000 65.170000 121.110000 70.230000 118.760000 C 75.100000 116.510000 80.240000 116.400000 84.330000 118.450000 C 87.800000 120.190000 91.170000 123.270000 93.830000 126.950000 C 93.240000 124.550000 92.720000 121.970000 92.310000 119.240000 C 90.360000 117.450000 88.270000 115.950000 86.130000 114.880000 Z"/><path fill="rgb(75, 99, 34)" d=" M 157.770000 240.950000 C 157.530000 244.100000 158.410000 247.770000 160.070000 251.110000 C 158.120000 252.320000 156.240000 253.650000 154.500000 254.980000 L 161.470000 171.370000 C 161.560000 170.270000 160.950000 169.950000 160.120000 170.670000 C 160.120000 170.670000 131.340000 195.050000 109.770000 189.400000 C 102.900000 187.600000 101.160000 177.480000 101.420000 166.480000 C 102.890000 163.100000 105.240000 160.120000 108.010000 158.440000 C 111.250000 156.470000 114.610000 156.480000 117.990000 158.480000 C 122.290000 161.020000 125.190000 165.740000 125.380000 170.480000 C 125.530000 174.350000 123.830000 177.730000 120.590000 180.010000 C 118.100000 181.770000 114.870000 181.320000 113.180000 179.880000 C 111.740000 178.640000 111.510000 176.920000 112.520000 174.880000 C 113.470000 172.950000 115.560000 172.340000 116.340000 172.670000 C 116.800000 172.860000 116.550000 173.980000 116.330000 174.600000 C 115.970000 175.650000 116.530000 176.790000 117.570000 177.150000 C 118.620000 177.510000 119.750000 176.950000 120.110000 175.910000 C 121.450000 172.040000 119.840000 169.790000 117.880000 168.980000 C 114.840000 167.710000 110.650000 169.640000 108.930000 173.110000 C 107.110000 176.800000 107.720000 180.470000 110.580000 182.910000 C 112.310000 184.400000 114.590000 185.150000 116.900000 185.150000 C 119.000000 185.150000 121.130000 184.530000 122.890000 183.290000 C 127.280000 180.190000 129.590000 175.590000 129.380000 170.320000 C 129.140000 164.260000 125.470000 158.260000 120.020000 155.040000 C 115.410000 152.310000 110.410000 152.310000 105.930000 155.020000 C 104.480000 155.900000 103.130000 157.060000 101.910000 158.400000 C 102.330000 154.050000 102.940000 149.840000 103.550000 146.240000 C 101.560000 145.520000 100.470000 145.040000 100.470000 145.040000 C 100.470000 145.040000 99.570000 143.410000 98.350000 140.540000 C 91.290000 164.390000 76.650000 231.770000 154.970000 181.700000 C 154.970000 181.700000 145.890000 226.990000 140.780000 259.370000 C 138.700000 262.150000 136.300000 264.780000 134.580000 264.810000 C 134.390000 264.810000 133.890000 264.820000 133.190000 263.820000 C 131.770000 261.760000 133.150000 258.450000 134.620000 254.950000 C 135.340000 253.240000 136.090000 251.430000 136.570000 249.600000 C 135.240000 252.580000 133.040000 254.690000 130.410000 255.990000 C 130.200000 256.090000 129.990000 256.180000 129.780000 256.270000 C 128.550000 259.610000 127.830000 263.110000 129.900000 266.100000 C 131.450000 268.330000 133.270000 268.810000 134.550000 268.810000 C 134.590000 268.810000 134.620000 268.810000 134.650000 268.810000 C 136.360000 268.780000 138.040000 267.900000 139.680000 266.510000 C 138.280000 276.030000 137.370000 283.810000 137.370000 288.000000 L 149.750000 288.000000 C 150.850000 288.000000 151.820000 287.110000 151.920000 286.010000 L 154.050000 260.470000 C 156.620000 258.350000 159.400000 256.290000 162.170000 254.570000 C 162.720000 255.330000 163.320000 256.050000 163.960000 256.710000 C 166.820000 259.690000 170.100000 261.190000 173.520000 261.070000 C 177.410000 260.920000 181.010000 258.090000 181.890000 254.480000 C 182.600000 251.570000 181.330000 248.870000 178.490000 247.270000 C 174.390000 244.940000 168.920000 246.340000 163.560000 249.120000 C 162.280000 246.470000 161.580000 243.590000 161.760000 241.260000 C 161.990000 238.210000 163.320000 235.010000 165.290000 232.240000 C 164.680000 230.600000 164.380000 228.830000 164.470000 226.970000 C 160.750000 230.840000 158.140000 236.000000 157.770000 240.950000 Z M 176.520000 250.740000 C 177.790000 251.470000 178.280000 252.380000 178.000000 253.530000 C 177.600000 255.170000 175.640000 256.980000 173.360000 257.070000 C 170.560000 257.170000 168.270000 255.420000 166.840000 253.930000 C 166.430000 253.510000 166.040000 253.060000 165.680000 252.580000 C 170.040000 250.350000 174.020000 249.330000 176.520000 250.740000 Z"/><path fill="rgb(121, 163, 53)" d=" M 243.890000 222.640000 C 237.240000 218.870000 230.250000 215.920000 223.510000 212.340000 C 224.540000 211.770000 225.070000 211.500000 226.130000 210.960000 C 219.280000 206.030000 210.560000 204.640000 202.510000 204.980000 C 201.870000 204.900000 201.220000 204.820000 200.580000 204.760000 C 202.140000 203.760000 202.930000 203.280000 204.550000 202.360000 C 190.230000 201.300000 176.900000 205.280000 167.760000 217.460000 C 167.770000 217.700000 167.780000 217.820000 167.790000 218.060000 C 165.610000 221.150000 164.600000 224.160000 164.470000 226.970000 C 164.380000 228.830000 164.680000 230.600000 165.280000 232.240000 C 165.570000 233.000000 165.910000 233.740000 166.310000 234.450000 C 169.360000 239.690000 174.640000 241.940000 181.850000 241.090000 C 191.340000 240.350000 199.580000 237.760000 208.250000 233.830000 C 207.020000 233.290000 206.400000 233.030000 205.140000 232.540000 C 205.790000 232.180000 206.440000 231.830000 207.090000 231.470000 C 213.240000 229.940000 219.390000 228.460000 225.200000 225.810000 C 224.260000 224.920000 223.770000 224.480000 222.790000 223.620000 C 229.460000 221.130000 236.950000 221.340000 243.890000 222.640000 Z M 169.590000 227.460000 C 199.530000 204.300000 226.920000 219.070000 226.920000 219.070000 C 203.650000 211.850000 169.590000 227.460000 169.590000 227.460000 Z"/><path fill="rgb(75, 99, 34)" d=" M 169.590000 227.460000 C 169.590000 227.460000 203.650000 211.860000 226.920000 219.070000 C 226.920000 219.070000 199.530000 204.300000 169.590000 227.460000 Z"/><path fill="rgb(121, 163, 53)" d=" M 136.560000 249.590000 C 137.480000 247.540000 137.980000 245.090000 137.900000 242.190000 C 138.040000 242.000000 138.110000 241.910000 138.240000 241.720000 C 137.420000 227.210000 128.940000 217.000000 117.000000 210.260000 C 117.790000 211.850000 118.170000 212.650000 118.880000 214.270000 C 118.340000 213.980000 117.790000 213.700000 117.230000 213.430000 C 111.010000 208.890000 103.340000 205.390000 95.300000 205.680000 C 95.860000 206.670000 96.130000 207.160000 96.650000 208.160000 C 89.410000 207.440000 82.290000 206.090000 75.000000 205.560000 C 81.210000 208.210000 87.270000 212.000000 91.260000 217.500000 C 90.020000 217.670000 89.400000 217.760000 88.170000 217.970000 C 91.400000 223.140000 95.500000 227.580000 99.580000 232.040000 C 99.910000 232.680000 100.240000 233.300000 100.560000 233.920000 C 99.300000 233.650000 98.670000 233.520000 97.400000 233.310000 C 102.220000 241.020000 107.400000 247.430000 114.540000 253.040000 C 119.610000 257.350000 124.790000 258.440000 129.780000 256.260000 C 129.990000 256.170000 130.200000 256.090000 130.410000 255.980000 C 133.030000 254.690000 135.240000 252.570000 136.560000 249.590000 Z M 90.130000 211.240000 C 90.130000 211.240000 119.820000 213.010000 132.490000 246.880000 C 132.490000 246.880000 112.670000 217.080000 90.130000 211.240000 Z"/><path fill="rgb(75, 99, 34)" d=" M 90.130000 211.240000 C 112.670000 217.080000 132.490000 246.880000 132.490000 246.880000 C 119.820000 213.010000 90.130000 211.240000 90.130000 211.240000 Z"/></svg>