<?xml version="1.0" standalone="no"?><!DOCTYPE svg PUBLIC "-//W3C//DTD SVG 1.1//EN" "http://www.w3.org/Graphics/SVG/1.1/DTD/svg11.dtd"><svg height="225" width="225" version="1.1" id="WinterQueen0.svg" xmlns:xlink="http://www.w3.org/1999/xlink" x="0px" y="0px" viewBox="0 0 300 300" enable-background="new 0 0 300 300" xml:space="preserve" xmlns="http://www.w3.org/2000/svg"><defs xmlns="http://www.w3.org/1999/xhtml"><style type="text/css"><![CDATA[
* { border: 0px; margin: 0px; padding: 0px; }
html { background-color: rgb(255, 255, 255); font-family: Verdana, Arial; }
.webgl-content * { position: absolute; width: 100%; height: 100%; user-select: none; }
.webgl-content .logo, .progress { position: absolute; left: 50%; top: 50%; transform: translate(-50%, -50%); }
.webgl-content .logo { background: url("progressLogo.Light.png") center center / contain no-repeat; width: 154px; height: 130px; }
.webgl-content .progress { height: 18px; width: 141px; margin-top: 90px; }
.webgl-content .progress .empty { background: url("progressEmpty.Light.png") right center / cover no-repeat; float: right; width: 100%; height: 100%; display: inline-block; }
.webgl-content .progress .full { background: url("progressFull.Light.png") left center / cover no-repeat; float: left; width: 0%; height: 100%; display: inline-block; }
.webgl-content .logo.Dark { background-image: url("progressLogo.Dark.png"); }
.webgl-content .progress.Dark .empty { background-image: url("progressEmpty.Dark.png"); }
.webgl-content .progress.Dark .full { background-image: url("progressFull.Dark.png"); }
#loading-content { z-index: 10000; position: fixed; width: 100%; height: 100%; left: 0px; top: 0px; overflow: hidden; background: url("background.png"); }
.hud-intro .hud-intro-social .btn-discord, .hud-respawn .hud-respawn-social .btn-discord { background-image: url("//lordz.io/images/discord-icon.png"); }
.hud-intro .hud-intro-social .btn-twitter, .hud-respawn .hud-respawn-social .btn-twitter { background-image: url("//lordz.io/images/twitter-icon.png"); }
.hud-intro .hud-intro-social .btn-facebook, .hud-respawn .hud-respawn-social .btn-facebook { background-image: url("//lordz.io/images/facebook-icon.png"); }
.hud-intro .hud-intro-social .btn-youtube, .hud-respawn .hud-respawn-social .btn-youtube { background-image: url("//lordz.io/images/youtube-icon.png"); }
* { box-sizing: border-box; user-select: none; }
.btn { position: relative; display: inline-block; top: 0px; height: 36px; line-height: 36px; padding: 0px 20px; background: rgb(68, 68, 68); color: rgb(238, 238, 238); border: 0px; font-size: 14px; vertical-align: top; text-align: center; text-decoration: none; text-shadow: rgba(0, 0, 0, 0.4) 0px 1px 0px; box-shadow: rgba(0, 0, 0, 0.2) 0px 2px 10px, rgb(51, 51, 51) 0px 4px 0px; border-radius: 4px; transition: all 0.15s ease-in-out 0s; }
.btn:hover, .btn:active { background-color: rgb(85, 85, 85); color: rgb(255, 255, 255); }
.btn:active { top: 4px; box-shadow: rgba(0, 0, 0, 0.2) 0px 2px 10px !important; }
.btn-green { background-color: rgb(71, 149, 13); box-shadow: rgba(0, 0, 0, 0.2) 0px 2px 10px, rgb(53, 131, 0) 0px 4px 0px; }
.btn-green:hover, .btn-green:active { background-color: rgb(100, 184, 32); }
.btn-red { background-color: rgb(179, 53, 60); box-shadow: rgba(0, 0, 0, 0.2) 0px 2px 10px, rgb(161, 35, 42) 0px 4px 0px; }
.btn-red:hover, .btn-red:active { background-color: rgb(203, 87, 91); }
.btn-blue { background-color: rgb(29, 141, 238); box-shadow: rgba(0, 0, 0, 0.2) 0px 2px 10px, rgb(11, 123, 220) 0px 4px 0px; }
.btn-blue:hover, .btn-blue:active { background-color: rgb(79, 167, 238); }
.btn-purple { background-color: rgb(114, 55, 228); box-shadow: rgba(0, 0, 0, 0.2) 0px 2px 10px, rgb(96, 37, 210) 0px 4px 0px; }
.btn-purple:hover, .btn-purple:active { background-color: rgb(130, 89, 228); }
.btn-twitter { background-color: rgb(27, 149, 224); box-shadow: rgba(0, 0, 0, 0.2) 0px 2px 10px, rgb(9, 131, 206) 0px 4px 0px; }
.btn-twitter:hover, .btn-twitter:active { background-color: rgb(12, 122, 191); }
.btn-facebook { background-color: rgb(66, 103, 178); box-shadow: rgba(0, 0, 0, 0.2) 0px 2px 10px, rgb(48, 85, 160) 0px 4px 0px; }
.btn-facebook:hover, .btn-facebook:active { background-color: rgb(54, 88, 153); }
.btn-google { background-color: rgb(221, 75, 57); box-shadow: rgba(0, 0, 0, 0.2) 0px 2px 10px, rgb(203, 57, 39) 0px 4px 0px; }
.btn-google:hover, .btn-google:active { background-color: rgb(186, 63, 49); }
.btn-discord { background-color: rgb(114, 137, 218); box-shadow: rgba(0, 0, 0, 0.2) 0px 2px 10px, rgb(96, 119, 200) 0px 4px 0px; }
.btn-discord:hover, .btn-discord:active { background-color: rgb(90, 109, 176); }
.btn-youtube { background-color: rgb(229, 45, 39); box-shadow: rgba(0, 0, 0, 0.2) 0px 2px 10px, rgb(211, 27, 21) 0px 4px 0px; }
.btn-youtube:hover, .btn-youtube:active { background-color: rgb(186, 37, 33); }
.hud { position: fixed; top: 0px; left: 0px; bottom: 0px; right: 0px; }
.hud .hud-bottom-left { display: flex; position: absolute; bottom: 20px; left: 20px; flex-direction: column-reverse; }
.hud-intro .hud-intro-corner-bottom-left, .hud-respawn .hud-respawn-corner-bottom-left { position: fixed; bottom: 20px; left: 20px; text-align: left; }
.hud-intro .hud-intro-social, .hud-respawn .hud-respawn-social { width: 240px; line-height: 24px; font-size: 14px; color: rgb(119, 119, 119); }
.hud-intro .hud-intro-social .btn, .hud-respawn .hud-respawn-social .btn { display: block; float: left; margin: 0px 10px 0px 0px; width: 40px; height: 40px; line-height: 40px; background-size: 24px; background-position: center center; background-repeat: no-repeat; }
.hud-intro .hud-intro-more-games { position: relative; bottom: 5px; line-height: 20px; font-size: 14px; color: rgba(255, 255, 255, 0.4); text-shadow: rgba(0, 0, 0, 0.2) 0px 1px 3px; }
.hud-intro .hud-intro-more-games a { display: inline-block; padding: 0px 20px; line-height: 40px; background: rgb(132, 115, 212); color: rgb(238, 238, 238); text-decoration: none; border-radius: 4px; transition: all 0.15s ease-in-out 0s; }
.hud-intro .hud-intro-more-games a:hover, .hud-intro .hud-intro-more-games a:active { background: rgb(103, 90, 166); }
#preroll video { left: 0px; top: 0px; }
.fb_hidden { position: absolute; top: -10000px; z-index: 10001; }
.fb_reposition { overflow: hidden; position: relative; }
.fb_invisible { display: none; }
.fb_reset { background: none; border: 0px; border-spacing: 0px; color: rgb(0, 0, 0); cursor: auto; direction: ltr; font-family: "lucida grande", tahoma, verdana, arial, sans-serif; font-size: 11px; font-style: normal; font-variant: normal; font-weight: normal; letter-spacing: normal; line-height: 1; margin: 0px; overflow: visible; padding: 0px; text-align: left; text-decoration: none; text-indent: 0px; text-shadow: none; text-transform: none; visibility: visible; white-space: normal; word-spacing: normal; }
.fb_animate { animation: 0.3s ease 0s 1 normal forwards running fb_transform; }
.fb_dialog { background: rgba(82, 82, 82, 0.7); position: absolute; top: -10000px; z-index: 10001; }
.fb_dialog_advanced { border-radius: 8px; padding: 10px; }
.fb_dialog_content { background: rgb(255, 255, 255); color: rgb(55, 55, 55); }
.fb_dialog_close_icon { background: url("https://static.xx.fbcdn.net/rsrc.php/v3/yq/r/IE9JII6Z1Ys.png") 0px 0px no-repeat scroll transparent; cursor: pointer; display: block; height: 15px; position: absolute; right: 18px; top: 17px; width: 15px; }
.fb_dialog_mobile .fb_dialog_close_icon { left: 5px; right: auto; top: 5px; }
.fb_dialog_padding { background-color: transparent; position: absolute; width: 1px; z-index: -1; }
.fb_dialog_close_icon:hover { background: url("https://static.xx.fbcdn.net/rsrc.php/v3/yq/r/IE9JII6Z1Ys.png") 0px -15px no-repeat scroll transparent; }
.fb_dialog_close_icon:active { background: url("https://static.xx.fbcdn.net/rsrc.php/v3/yq/r/IE9JII6Z1Ys.png") 0px -30px no-repeat scroll transparent; }
.fb_dialog_iframe { line-height: 0; }
.fb_dialog_content .dialog_title { background: rgb(109, 132, 180); border: 1px solid rgb(54, 88, 153); color: rgb(255, 255, 255); font-size: 14px; font-weight: bold; margin: 0px; }
body.fb_hidden { height: 100%; left: 0px; margin: 0px; overflow: visible; position: absolute; top: -10000px; transform: none; width: 100%; }
.fb_dialog.fb_dialog_mobile.loading { background: url("https://static.xx.fbcdn.net/rsrc.php/v3/ya/r/3rhSv5V8j3o.gif") 50% 50% no-repeat white; min-height: 100%; min-width: 100%; overflow: hidden; position: absolute; top: 0px; z-index: 10001; }
.fb_dialog.fb_dialog_mobile.loading.centered { background: none; height: auto; min-height: initial; min-width: initial; width: auto; }
.fb_dialog.fb_dialog_mobile.loading.centered #fb_dialog_loader_spinner { width: 100%; }
.fb_dialog.fb_dialog_mobile.loading.centered .fb_dialog_content { background: none; }
.loading.centered #fb_dialog_loader_close { clear: both; color: rgb(255, 255, 255); display: block; font-size: 18px; padding-top: 20px; }
#fb-root #fb_dialog_ipad_overlay { background: rgba(0, 0, 0, 0.4); bottom: 0px; left: 0px; min-height: 100%; position: absolute; right: 0px; top: 0px; width: 100%; z-index: 10000; }
#fb-root #fb_dialog_ipad_overlay.hidden { display: none; }
.fb_dialog.fb_dialog_mobile.loading iframe { visibility: hidden; }
.fb_dialog_mobile .fb_dialog_iframe { position: sticky; top: 0px; }
.fb_dialog_content .dialog_header { border-bottom: 1px solid rgb(4, 59, 135); border-top-color: rgb(4, 59, 135); border-right-color: rgb(4, 59, 135); border-left-color: rgb(4, 59, 135); box-shadow: white 0px 1px 1px -1px inset; color: rgb(255, 255, 255); font: bold 14px Helvetica, sans-serif; text-overflow: ellipsis; text-shadow: rgba(0, 30, 84, 0.298) 0px -1px 0px; vertical-align: middle; white-space: nowrap; }
.fb_dialog_content .dialog_header table { height: 43px; width: 100%; }
.fb_dialog_content .dialog_header td.header_left { font-size: 12px; padding-left: 5px; vertical-align: middle; width: 60px; }
.fb_dialog_content .dialog_header td.header_right { font-size: 12px; padding-right: 5px; vertical-align: middle; width: 60px; }
.fb_dialog_content .touchable_button { background-clip: padding-box; border: 1px solid rgb(41, 72, 125); border-radius: 3px; display: inline-block; line-height: 18px; margin-top: 3px; max-width: 85px; padding: 4px 12px; position: relative; }
.fb_dialog_content .dialog_header .touchable_button input { background: none; border: none; color: rgb(255, 255, 255); font: bold 12px Helvetica, sans-serif; margin: 2px -12px; padding: 2px 6px 3px; text-shadow: rgba(0, 30, 84, 0.298) 0px -1px 0px; }
.fb_dialog_content .dialog_header .header_center { color: rgb(255, 255, 255); font-size: 16px; font-weight: bold; line-height: 18px; text-align: center; vertical-align: middle; }
.fb_dialog_content .dialog_content { background: url("https://static.xx.fbcdn.net/rsrc.php/v3/y9/r/jKEcVPZFk-2.gif") 50% 50% no-repeat; border-width: 0px 1px; border-right-style: solid; border-left-style: solid; border-right-color: rgb(74, 74, 74); border-left-color: rgb(74, 74, 74); border-image: initial; border-bottom-style: initial; border-bottom-color: initial; border-top-style: initial; border-top-color: initial; height: 150px; }
.fb_dialog_content .dialog_footer { background: rgb(245, 246, 247); border-width: 1px; border-style: solid; border-color: rgb(204, 204, 204) rgb(74, 74, 74) rgb(74, 74, 74); border-image: initial; height: 40px; }
#fb_dialog_loader_close { float: left; }
.fb_dialog.fb_dialog_mobile .fb_dialog_close_button { text-shadow: rgba(0, 30, 84, 0.298) 0px -1px 0px; }
.fb_dialog.fb_dialog_mobile .fb_dialog_close_icon { visibility: hidden; }
#fb_dialog_loader_spinner { animation: 1.2s linear 0s infinite normal none running rotateSpinner; background-color: transparent; background-image: url("https://static.xx.fbcdn.net/rsrc.php/v3/yD/r/t-wz8gw1xG1.png"); background-position: 50% 50%; background-repeat: no-repeat; height: 24px; width: 24px; }
.fb_iframe_widget { display: inline-block; position: relative; }
.fb_iframe_widget span { display: inline-block; position: relative; text-align: justify; }
.fb_iframe_widget iframe { position: absolute; }
.fb_iframe_widget_fluid_desktop, .fb_iframe_widget_fluid_desktop span, .fb_iframe_widget_fluid_desktop iframe { max-width: 100%; }
.fb_iframe_widget_fluid_desktop iframe { min-width: 220px; position: relative; }
.fb_iframe_widget_lift { z-index: 1; }
.fb_iframe_widget_fluid { display: inline; }
.fb_iframe_widget_fluid span { width: 100%; }
.st0 { fill: rgb(119, 183, 73); }
.st1 { fill: rgb(247, 175, 47); }
.st2 { fill: rgb(233, 81, 15); }
.st3 { fill: url("#SVGID_1_"); }
.st4 { fill: url("#SVGID_2_"); }
.st5 { fill: rgb(252, 242, 119); }
.st6 { fill: url("#SVGID_3_"); }
.st7 { fill: url("#SVGID_4_"); }
.st8 { fill: url("#SVGID_5_"); }
.st9 { fill: url("#SVGID_6_"); }
.st10 { fill: url("#SVGID_7_"); }
.st11 { fill: url("#SVGID_8_"); }
.st12 { fill: url("#SVGID_9_"); }
.st13 { fill: url("#SVGID_10_"); }
.st14 { fill: url("#SVGID_11_"); }
.st15 { fill: url("#SVGID_12_"); }
.st16 { fill: url("#SVGID_13_"); }
.st17 { fill: url("#SVGID_14_"); }
.st18 { fill: url("#SVGID_15_"); }
.st19 { fill: url("#SVGID_16_"); }
.st0 { fill: rgb(119, 183, 73); }
.st1 { fill: rgb(247, 175, 47); }
.st2 { fill: rgb(233, 81, 15); }
.st3 { fill: url("#SVGID_1_"); }
.st4 { fill: url("#SVGID_2_"); }
.st5 { fill: rgb(252, 242, 119); }
.st6 { fill: url("#SVGID_3_"); }
.st7 { fill: url("#SVGID_4_"); }
.st8 { fill: url("#SVGID_5_"); }
.st9 { fill: url("#SVGID_6_"); }
.st10 { fill: url("#SVGID_7_"); }
.st11 { fill: url("#SVGID_8_"); }
.st12 { fill: url("#SVGID_9_"); }
.st13 { fill: url("#SVGID_10_"); }
.st14 { fill: url("#SVGID_11_"); }
.st15 { fill: url("#SVGID_12_"); }
.st16 { fill: url("#SVGID_13_"); }
.st17 { fill: url("#SVGID_14_"); }
.st18 { fill: url("#SVGID_15_"); }
.st19 { fill: url("#SVGID_16_"); }
.st0 { fill: rgb(119, 183, 73); }
.st1 { fill: rgb(247, 175, 47); }
.st2 { fill: rgb(233, 81, 15); }
.st3 { fill: url("#SVGID_1_"); }
.st4 { fill: url("#SVGID_2_"); }
.st5 { fill: rgb(252, 242, 119); }
.st6 { fill: url("#SVGID_3_"); }
.st7 { fill: url("#SVGID_4_"); }
.st8 { fill: url("#SVGID_5_"); }
.st9 { fill: url("#SVGID_6_"); }
.st10 { fill: url("#SVGID_7_"); }
.st11 { fill: url("#SVGID_8_"); }
.st12 { fill: url("#SVGID_9_"); }
.st13 { fill: url("#SVGID_10_"); }
.st14 { fill: url("#SVGID_11_"); }
.st15 { fill: url("#SVGID_12_"); }
.st16 { fill: url("#SVGID_13_"); }
.st17 { fill: url("#SVGID_14_"); }
.st18 { fill: url("#SVGID_15_"); }
.st19 { fill: url("#SVGID_16_"); }
.st0 { fill: rgb(119, 183, 73); }
.st1 { fill: rgb(247, 175, 47); }
.st2 { fill: rgb(233, 81, 15); }
.st3 { fill: url("#SVGID_1_"); }
.st4 { fill: url("#SVGID_2_"); }
.st5 { fill: rgb(252, 242, 119); }
.st6 { fill: url("#SVGID_3_"); }
.st7 { fill: url("#SVGID_4_"); }
.st8 { fill: url("#SVGID_5_"); }
.st9 { fill: url("#SVGID_6_"); }
.st10 { fill: url("#SVGID_7_"); }
.st11 { fill: url("#SVGID_8_"); }
.st12 { fill: url("#SVGID_9_"); }
.st13 { fill: url("#SVGID_10_"); }
.st14 { fill: url("#SVGID_11_"); }
.st15 { fill: url("#SVGID_12_"); }
.st16 { fill: url("#SVGID_13_"); }
.st17 { fill: url("#SVGID_14_"); }
.st18 { fill: url("#SVGID_15_"); }
.st19 { fill: url("#SVGID_16_"); }]]></style></defs><g>	<g>		<polygon fill="#22D4C2" points="157.6,77.3 140.5,77.3 137.5,27.8 144.1,44.3 148.8,26.5 154.2,44 160.7,27.8 &#9;&#9;"/>		<circle fill="#097E8F" cx="136.4" cy="24.9" r="3"/>		<circle fill="#097E8F" cx="148.6" cy="25.2" r="3"/>		<circle fill="#097E8F" cx="161" cy="24.9" r="3"/>		<path fill="#097E8F" d="M139.5,61l1,16.2h17.1l1-16.2c-2.7-1.7-6-2.8-9.5-2.8S142.2,59.3,139.5,61z"/>	</g>	<path fill="#22D4C2" d="M170.3,160.2h-41.6l-59.8-53.8c-1.2-1.1-0.3-3.1,1.3-2.9c52.7,5.2,105.5,5.2,158.6,0&#9;&#9;c1.6-0.2,2.5,1.8,1.3,2.9L170.3,160.2z"/>	<path fill="#097E8F" d="M180.1,151.3c-8.2-3.3-18.9-5.3-30.6-5.3c-11.7,0-22.4,2-30.6,5.3l9.8,8.8h41.6L180.1,151.3z"/>	<path fill="#4A3F6F" d="M188.9,282.5L188.9,282.5L188.9,282.5l-33.8-159.7h-11.2l-33.7,159.6h-0.1l-0.1,0.7l-0.1,1.6&#9;&#9;c0,3.4,1.8,6.1,4.2,6.1c2,0,3.9-1.9,4.7-4.4c0.5,2.6,2.1,4.4,4.2,4.4c2,0,3.8-1.9,4.6-4.4c0.6,2.6,2.2,4.4,4.2,4.4&#9;&#9;c2,0,3.8-1.9,4.5-4.4c0.6,2.6,2.3,4.4,4.3,4.4c2,0,3.8-1.9,4.4-4.4c0.6,2.6,2.4,4.4,4.4,4.4c2,0,3.7-1.9,4.4-4.4&#9;&#9;c0.7,2.6,2.4,4.4,4.4,4.4c2,0,3.7-1.9,4.3-4.4c0.7,2.6,2.5,4.4,4.5,4.4c2,0,3.7-1.9,4.2-4.4c0.8,2.6,2.6,4.4,4.6,4.4&#9;&#9;c2,0,3.6-1.9,4.2-4.4c0.8,2.6,2.6,4.4,4.7,4.4h0c2.5,0,4.3-2.7,4.2-6.1L188.9,282.5z"/>	<path fill="#786AA8" d="M188.3,245.2l-35.2,14.3l-35.2-14.3l-0.6,2.6l-0.6,2.6l36.3,14.3l36.3-14.3l-0.6-2.6L188.3,245.2z&#9;&#9; M184.9,228.7L153.1,243l-31.8-14.3l-0.6,2.6l-0.6,2.6l32.9,14.3l32.9-14.3l-0.6-2.6L184.9,228.7z M181.4,212.3l-28.3,14.3&#9;&#9;l-28.3-14.3l-0.6,2.6l-0.6,2.6l29.4,14.3l29.4-14.3l-0.6-2.6L181.4,212.3z"/>	<rect x="113.1" y="98" fill="#4A3F6F" width="73.8" height="41.7"/>	<ellipse fill="#FFCB67" cx="184.8" cy="105.1" rx="3.7" ry="4.9"/>	<g>		<path fill="#FF4F56" d="M142.5,128.8c-26.1,60.9-55.7,120.9-100.6,150.9c0,0,54.9,15.3,76.1,9.7c17.4-30.6,39.3-98.5,43.6-160.6&#9;&#9;&#9;H142.5z"/>		<path fill="#FF4F56" d="M157.5,128.8c26.1,60.9,55.7,120.9,100.6,150.9c0,0-54.9,15.3-76.1,9.7c-17.4-30.6-21.9-98.5-26.3-160.6&#9;&#9;&#9;H157.5z"/>	</g>	<path fill="none" stroke="#F5EBCE" stroke-width="1.7351" stroke-miterlimit="10" d="M136.5,124.5c0,0-13.5,12.5-10.8,13.5&#9;&#9;c2.7,1,13.1-7.3,13.1-7.3s-5.4,12.1-3.1,13.1c2.3,1,9.4-9.8,9.4-9.8s0.4,12.1,4,11.7c3.7-0.4,4.2-11.5,4.2-11.5s6.3,10.4,8.8,8.7&#9;&#9;s-1-10.8-1-10.8s9.2,8.1,11.3,6.5c2.1-1.5-11-15.6-11-15.6"/>	<path fill="#FFCB67" d="M187.1,100.7c0,15.8-12.9,30-33.6,30c-27.7,0-40.9-14.2-40.9-30s16.7-28.6,37.3-28.6&#9;&#9;S187.1,84.9,187.1,100.7z"/>	<path fill="#DB3549" d="M126.4,272.5c3.4-7.6,6.8-16.3,10.1-25.7c-1.6-14.9-14.2-26.5-29.6-26.5c-4.3,0-8.4,0.9-12.1,2.6&#9;&#9;c-5.5,8.5-11.4,16.5-17.5,24c-0.1,1.1-0.2,2.1-0.2,3.2c0,16.4,13.3,29.8,29.8,29.8C114.4,279.8,121.2,277,126.4,272.5z"/>	<path fill="#DB3549" d="M174.4,271.5c5.3,5.1,12.6,8.3,20.6,8.3c16.4,0,29.8-13.3,29.8-29.8c0-0.3,0-0.5,0-0.8&#9;&#9;c-7.1-8.4-13.8-17.6-20.2-27.4c-3-1-6.2-1.6-9.6-1.6c-13,0-24,8.3-28.1,19.9C169,251.7,171.4,262.4,174.4,271.5z"/>	<path fill="#22D4C2" d="M124.7,251.7l-9,2.7l-6.4-3.9l7-3.9l8.3,2.3c0.1,0,0.2,0,0.3,0c0.5,0,1-0.3,1.1-0.8&#9;&#9;c0.2-0.6-0.2-1.2-0.8-1.4l-6.1-1.7l6.5-3.6c0.6-0.3,0.8-1,0.4-1.6c-0.3-0.6-1-0.8-1.6-0.4l-6.8,3.8l1.6-7.1&#9;&#9;c0.1-0.6-0.2-1.2-0.9-1.4c-0.6-0.1-1.2,0.2-1.4,0.9l-2.1,9.1l-6.4,3.6v-7.8l6.1-6.1c0.4-0.5,0.4-1.2,0-1.6c-0.4-0.4-1.2-0.4-1.6,0&#9;&#9;l-4.4,4.5v-7.4c0-0.6-0.5-1.2-1.2-1.2c-0.6,0-1.2,0.5-1.2,1.2v7.8l-5.4-4.9c-0.5-0.4-1.2-0.4-1.6,0.1c-0.4,0.5-0.4,1.2,0.1,1.6&#9;&#9;l6.9,6.3v8.1l-7.5-4.6l-1.7-8.7c-0.1-0.6-0.7-1-1.3-0.9c-0.6,0.1-1,0.7-0.9,1.3l1.3,6.7l-5.8-3.5c-0.5-0.3-1.3-0.2-1.6,0.4&#9;&#9;c-0.3,0.5-0.2,1.3,0.4,1.6l6,3.6l-6.5,1.7c-0.6,0.2-1,0.8-0.8,1.4c0.1,0.5,0.6,0.9,1.1,0.9c0.1,0,0.2,0,0.3,0l8.7-2.2l6.8,4.1&#9;&#9;l-7,3.9l-8.4-2.8c-0.6-0.2-1.3,0.1-1.5,0.7c-0.2,0.6,0.1,1.3,0.7,1.5l6.4,2.2l-6,3.3c-0.6,0.3-0.8,1-0.4,1.6c0.2,0.4,0.6,0.6,1,0.6&#9;&#9;c0.2,0,0.4,0,0.6-0.1l6.1-3.4l-1.8,6.5c-0.2,0.6,0.2,1.2,0.8,1.4c0.1,0,0.2,0,0.3,0c0.5,0,1-0.3,1.1-0.9l2.3-8.7l7.2-4v8.3l-6.6,6&#9;&#9;c-0.5,0.4-0.5,1.2-0.1,1.6c0.2,0.3,0.5,0.4,0.9,0.4c0.3,0,0.6-0.1,0.8-0.3l5-4.5v6.8c0,0.6,0.5,1.2,1.2,1.2c0.6,0,1.2-0.5,1.2-1.2&#9;&#9;v-7l4.8,4.7c0.5,0.4,1.2,0.4,1.6,0c0.4-0.5,0.4-1.2,0-1.6l-6.4-6.3v-7.3l6.1,3.7l2.1,8.4c0.1,0.5,0.6,0.9,1.1,0.9&#9;&#9;c0.1,0,0.2,0,0.3,0c0.6-0.2,1-0.8,0.8-1.4l-1.5-6.1l6.3,3.8c0.2,0.1,0.4,0.2,0.6,0.2c0.4,0,0.8-0.2,1-0.6c0.3-0.5,0.2-1.3-0.4-1.6&#9;&#9;l-6.7-4.1l7-2.1c0.6-0.2,1-0.8,0.8-1.4C125.9,251.9,125.3,251.5,124.7,251.7z"/>	<path fill="#22D4C2" d="M212.7,251.7l-9,2.7l-6.4-3.9l7-3.9l8.3,2.3c0.1,0,0.2,0,0.3,0c0.5,0,1-0.3,1.1-0.8&#9;&#9;c0.2-0.6-0.2-1.2-0.8-1.4l-6.1-1.7l6.5-3.6c0.6-0.3,0.8-1,0.4-1.6c-0.3-0.6-1-0.8-1.6-0.4l-6.8,3.8l1.6-7.1&#9;&#9;c0.1-0.6-0.2-1.2-0.9-1.4c-0.6-0.1-1.2,0.2-1.4,0.9l-2.1,9.1l-6.4,3.6v-7.8l6.1-6.1c0.4-0.5,0.4-1.2,0-1.6c-0.4-0.4-1.2-0.4-1.6,0&#9;&#9;l-4.4,4.5v-7.4c0-0.6-0.5-1.2-1.2-1.2c-0.6,0-1.2,0.5-1.2,1.2v7.8l-5.4-4.9c-0.5-0.4-1.2-0.4-1.6,0.1c-0.4,0.5-0.4,1.2,0.1,1.6&#9;&#9;l6.9,6.3v8.1l-7.5-4.6l-1.7-8.7c-0.1-0.6-0.7-1-1.3-0.9c-0.6,0.1-1,0.7-0.9,1.3l1.3,6.7l-5.9-3.5c-0.5-0.3-1.3-0.2-1.6,0.4&#9;&#9;c-0.3,0.5-0.2,1.3,0.4,1.6l6,3.6l-6.5,1.7c-0.6,0.2-1,0.8-0.8,1.4c0.1,0.5,0.6,0.9,1.1,0.9c0.1,0,0.2,0,0.3,0l8.7-2.2l6.8,4.1&#9;&#9;l-7,3.9l-8.4-2.8c-0.6-0.2-1.3,0.1-1.5,0.7c-0.2,0.6,0.1,1.3,0.7,1.5l6.4,2.2l-6,3.3c-0.6,0.3-0.8,1-0.4,1.6c0.2,0.4,0.6,0.6,1,0.6&#9;&#9;c0.2,0,0.4,0,0.6-0.1l6.1-3.4l-1.8,6.5c-0.2,0.6,0.2,1.2,0.8,1.4c0.1,0,0.2,0,0.3,0c0.5,0,1-0.3,1.1-0.9l2.3-8.7l7.2-4v8.3&#9;&#9;l-6.6,5.9c-0.5,0.4-0.5,1.2-0.1,1.6c0.2,0.3,0.5,0.4,0.9,0.4c0.3,0,0.6-0.1,0.8-0.3l5-4.5v6.8c0,0.6,0.5,1.2,1.2,1.2&#9;&#9;c0.6,0,1.2-0.5,1.2-1.2v-7l4.8,4.7c0.5,0.4,1.2,0.4,1.6,0c0.4-0.5,0.4-1.2,0-1.6l-6.4-6.3v-7.3l6.1,3.7l2.1,8.4&#9;&#9;c0.1,0.5,0.6,0.9,1.1,0.9c0.1,0,0.2,0,0.3,0c0.6-0.2,1-0.8,0.8-1.4l-1.5-6.1l6.3,3.8c0.2,0.1,0.4,0.2,0.6,0.2c0.4,0,0.8-0.2,1-0.6&#9;&#9;c0.3-0.5,0.2-1.3-0.4-1.6l-6.7-4.1l7-2.1c0.6-0.2,1-0.8,0.8-1.4C213.9,251.9,213.3,251.5,212.7,251.7z"/>	<path fill="#4A3F6F" d="M112.6,100.2c0.3-15.6,16.9-28.1,37.2-28.1c20.6,0,37.3,12.8,37.3,28.6c0,1.8-0.2,3.6-0.7,5.4&#9;&#9;c-7.4-3.9-19.6-12.1-21.5-24.9C164.9,81.2,147.7,99,112.6,100.2z"/>	<g>		<circle fill="#FF4F56" cx="135.7" cy="114.2" r="3.5"/>		<circle fill="#FF4F56" cx="174.4" cy="114.2" r="3.5"/>	</g>	<ellipse fill="#FFCB67" cx="112.3" cy="105.1" rx="3.7" ry="4.9"/>	<g>		<path fill="#837BAA" d="M119,94.2c0.9-0.2,1.9-0.3,2.8-0.4l2.8-0.5l2.8-0.6l2.8-0.7c3.6-1,7.2-2.3,10.7-3.8&#9;&#9;&#9;c3.5-1.5,6.8-3.3,10.1-5.2l2.4-1.5l2.4-1.6l2.3-1.7c0.7-0.6,1.5-1.2,2.3-1.7c-0.7,0.7-1.4,1.3-2.1,2l-2.2,1.9l-2.3,1.8l-2.3,1.7&#9;&#9;&#9;c-3.2,2.2-6.6,4-10.1,5.6c-3.5,1.5-7.2,2.8-11,3.6l-2.8,0.6l-2.8,0.4l-2.9,0.3C120.9,94.2,120,94.2,119,94.2z"/>	</g>	<g>		<path fill="#837BAA" d="M125.8,86.8c3.3-0.7,6.5-1.5,9.7-2.4c3.2-0.9,6.3-2,9.5-3.1c-2.8,2-5.9,3.3-9.2,4.3&#9;&#9;&#9;C132.6,86.5,129.2,87,125.8,86.8z"/>	</g>	<g>		<path fill="#837BAA" d="M170.9,84.7c1.7,2.7,3.4,5.2,5.5,7.5c2,2.3,4.3,4.3,6.9,6.3c-3-1.1-5.7-3.1-7.8-5.4&#9;&#9;&#9;C173.3,90.6,171.7,87.7,170.9,84.7z"/>	</g>	<g>		<path fill="#4A3F6F" d="M157.9,147.1c0.6,2.2,1,4.4,1.2,6.6c0.2,2.2,0.2,4.5,0.2,6.7c-0.1,2.2-0.4,4.5-0.8,6.7&#9;&#9;&#9;c-0.4,2.2-1,4.4-1.8,6.5c0.1-2.2,0.3-4.4,0.5-6.6c0.2-2.2,0.3-4.4,0.4-6.6c0.1-2.2,0.2-4.4,0.2-6.6&#9;&#9;&#9;C157.8,151.5,157.8,149.3,157.9,147.1z"/>	</g>	<g>		<path fill="#097E8F" d="M75.5,106.8c-0.3-1-0.6-2.1-0.8-3.2c-0.2-1.1-0.3-2.2-0.3-3.3c0-0.6,0.1-1.1,0.2-1.7&#9;&#9;&#9;c0.2-0.6,0.4-1.2,1.1-1.6c0.6-0.4,1.4-0.5,2-0.3c0.6,0.2,1.1,0.5,1.6,0.8c1.9,1.3,3.4,2.9,4.8,4.6c1.4,1.7,2.7,3.4,4,5.2l-1.6,0.6&#9;&#9;&#9;c-0.2-2.3-0.4-4.5,0-6.8c0.1-0.6,0.2-1.2,0.5-1.8c0.3-0.6,0.6-1.2,1.4-1.7c0.2-0.1,0.4-0.2,0.6-0.2c0.2,0,0.5,0,0.6,0&#9;&#9;&#9;c0.4,0.1,0.7,0.2,1,0.3c0.6,0.3,1,0.6,1.5,1c1.8,1.4,3.2,3.1,4.6,4.8c1.4,1.7,2.7,3.5,3.9,5.3c-1.5-1.6-3-3.2-4.5-4.8&#9;&#9;&#9;c-1.5-1.5-3.1-3.1-4.8-4.3c-0.4-0.3-0.9-0.6-1.3-0.8c-0.2-0.1-0.4-0.2-0.6-0.2c-0.1,0-0.1,0-0.2,0c0,0-0.1,0-0.2,0.1&#9;&#9;&#9;c-0.2,0.1-0.4,0.5-0.6,0.9c-0.2,0.4-0.3,0.9-0.3,1.4c-0.3,2-0.1,4.2,0.1,6.3l0.4,3.6l-2-3c-1.2-1.8-2.5-3.5-3.8-5.1&#9;&#9;&#9;c-1.3-1.6-2.7-3.3-4.3-4.5c-0.8-0.6-1.7-1-2.3-0.7c-0.6,0.3-0.9,1.5-1,2.5C75,102.5,75.2,104.7,75.5,106.8z"/>	</g>	<g>		<path fill="#097E8F" d="M221.4,106.8c0.3-2.1,0.6-4.3,0.3-6.4c-0.1-1-0.4-2.1-1-2.5c-0.6-0.4-1.5,0.1-2.3,0.7&#9;&#9;&#9;c-1.6,1.2-3,2.9-4.3,4.5c-1.3,1.7-2.6,3.4-3.8,5.1l-2,3l0.4-3.6c0.2-2.1,0.4-4.3,0.1-6.3c-0.1-0.5-0.2-1-0.3-1.4&#9;&#9;&#9;c-0.2-0.4-0.4-0.8-0.6-0.9c0,0-0.1-0.1-0.2-0.1c0,0-0.1,0-0.2,0c-0.1,0-0.4,0.1-0.6,0.2c-0.4,0.2-0.9,0.5-1.3,0.8&#9;&#9;&#9;c-1.7,1.2-3.3,2.8-4.8,4.3c-1.6,1.5-3,3.2-4.5,4.8c1.2-1.9,2.5-3.6,3.9-5.3c1.4-1.7,2.9-3.4,4.6-4.8c0.5-0.4,0.9-0.7,1.5-1&#9;&#9;&#9;c0.3-0.1,0.6-0.3,1-0.3c0.2,0,0.4,0,0.6,0c0.2,0,0.4,0.1,0.6,0.2c0.8,0.4,1.1,1.1,1.4,1.7c0.2,0.6,0.4,1.2,0.5,1.8&#9;&#9;&#9;c0.3,2.3,0.2,4.5,0,6.8l-1.6-0.6c1.3-1.8,2.5-3.6,4-5.2c1.4-1.6,2.9-3.3,4.8-4.6c0.5-0.3,1-0.6,1.6-0.8c0.6-0.2,1.4-0.2,2,0.3&#9;&#9;&#9;c0.6,0.4,0.9,1.1,1.1,1.6c0.2,0.6,0.2,1.2,0.2,1.7c0,1.1-0.1,2.2-0.3,3.3C222,104.7,221.7,105.8,221.4,106.8z"/>	</g>	<g>		<path fill="#0D0826" d="M140.5,99.6c0.7,0.7,1.1,1.3,1.4,2c0.3,0.7,0.4,1.3,0.4,2c0,0.7-0.1,1.3-0.4,2c-0.3,0.7-0.7,1.3-1.4,2&#9;&#9;&#9;c-0.7-0.7-1.1-1.3-1.4-2c-0.3-0.7-0.4-1.3-0.4-2c0-0.7,0.1-1.3,0.4-2C139.4,100.9,139.7,100.2,140.5,99.6z"/>	</g>	<g>		<path fill="#0D0826" d="M169.9,99.6c0.7,0.7,1.1,1.3,1.4,2c0.3,0.7,0.4,1.3,0.4,2c0,0.7-0.1,1.3-0.4,2c-0.3,0.7-0.7,1.3-1.4,2&#9;&#9;&#9;c-0.7-0.7-1.1-1.3-1.4-2c-0.3-0.7-0.4-1.3-0.4-2c0-0.7,0.1-1.3,0.4-2C168.8,100.9,169.2,100.2,169.9,99.6z"/>	</g>	<g>		<path fill="#0D0826" d="M150.2,111.8c0.9,1.2,1.9,2.3,3,3.3c1,0.9,2.2,1.7,3.4,1.7c1.2,0.1,2.4-0.7,3.4-1.7c1-1,1.9-2.2,2.8-3.4&#9;&#9;&#9;c-0.4,1.5-1,2.9-1.9,4.2c-0.5,0.6-1,1.2-1.7,1.7c-0.7,0.5-1.6,0.8-2.5,0.7c-0.9,0-1.8-0.3-2.5-0.8c-0.7-0.5-1.3-1-1.8-1.6&#9;&#9;&#9;C151.4,114.6,150.6,113.2,150.2,111.8z"/>	</g>	<g>		<g>			<path fill="#4A3F6F" d="M127.2,198.3c-0.3,1.6-0.6,3.2-1.1,4.7c-0.4,1.6-0.9,3.1-1.4,4.6c-0.5,1.5-1.1,3-1.7,4.5&#9;&#9;&#9;&#9;c-0.6,1.5-1.3,3-2.1,4.4c0.3-1.6,0.6-3.2,1.1-4.7c0.4-1.6,0.9-3.1,1.4-4.6c0.5-1.5,1.1-3,1.7-4.5&#9;&#9;&#9;&#9;C125.7,201.2,126.4,199.7,127.2,198.3z"/>		</g>		<g>			<path fill="#4A3F6F" d="M119.9,198.4c1,1.4,1.8,2.8,2.7,4.2c0.8,1.4,1.6,2.9,2.3,4.4c0.7,1.5,1.4,3,2.1,4.5&#9;&#9;&#9;&#9;c0.6,1.5,1.2,3.1,1.7,4.7c-1-1.4-1.9-2.8-2.7-4.2c-0.8-1.4-1.6-2.9-2.3-4.4c-0.7-1.5-1.4-3-2.1-4.5&#9;&#9;&#9;&#9;C120.9,201.6,120.3,200.1,119.9,198.4z"/>		</g>		<g>			<path fill="#4A3F6F" d="M115.8,212.1c1.2-1,2.5-2,3.8-2.9c1.3-0.9,2.6-1.7,4-2.6c1.4-0.8,2.7-1.6,4.1-2.3c1.4-0.7,2.8-1.4,4.3-2&#9;&#9;&#9;&#9;c-1.2,1-2.5,2-3.8,2.9c-1.3,0.9-2.6,1.7-4,2.5c-1.4,0.8-2.7,1.6-4.1,2.3C118.7,210.9,117.2,211.5,115.8,212.1z"/>		</g>	</g>	<g>		<g>			<path fill="#4A3F6F" d="M175.2,197.4c0.9,1.6,1.6,3.2,2.3,4.8c0.7,1.6,1.3,3.3,1.9,5c0.6,1.7,1.1,3.4,1.6,5.1&#9;&#9;&#9;&#9;c0.5,1.7,0.9,3.4,1.2,5.2c-0.9-1.6-1.6-3.2-2.3-4.8c-0.7-1.6-1.3-3.3-1.9-5c-0.6-1.7-1.1-3.4-1.6-5.1&#9;&#9;&#9;&#9;C175.9,200.9,175.4,199.1,175.2,197.4z"/>		</g>		<g>			<path fill="#4A3F6F" d="M183.3,197.5c-0.5,1.8-1.2,3.5-1.9,5.2c-0.7,1.7-1.5,3.3-2.3,5c-0.8,1.6-1.7,3.2-2.6,4.8&#9;&#9;&#9;&#9;c-0.9,1.6-1.9,3.1-3,4.6c0.5-1.8,1.2-3.5,1.9-5.2c0.7-1.7,1.5-3.3,2.3-5c0.8-1.6,1.7-3.2,2.6-4.8&#9;&#9;&#9;&#9;C181.2,200.6,182.2,199,183.3,197.5z"/>		</g>		<g>			<path fill="#4A3F6F" d="M187.8,212.6c-1.6-0.6-3.2-1.4-4.8-2.2c-1.5-0.8-3-1.7-4.5-2.5c-1.5-0.9-2.9-1.8-4.4-2.8&#9;&#9;&#9;&#9;c-1.4-1-2.8-2-4.2-3.2c1.6,0.6,3.2,1.4,4.8,2.2c1.5,0.8,3,1.7,4.5,2.5c1.5,0.9,2.9,1.8,4.4,2.8&#9;&#9;&#9;&#9;C185.1,210.4,186.5,211.4,187.8,212.6z"/>		</g>	</g>	<g>		<path fill="#FFB846" d="M133.2,175.2c0,0,10.6,39.2,19.7,45.9l-0.6-2.4c0,0,2.3,2.7,2.4,2s-0.9-3.2-0.9-3.2s2.1,2.8,2.6,2&#9;&#9;&#9;c0.4-0.8-2.4-5.2-2.4-5.2s2.1,0.8,2,0c-0.1-0.8-3.2-2.6-3.2-2.6s-9.3-29.3-11.3-39.1"/>		<g>			<path fill="#FF4F56" d="M131.7,161.5c0,0-0.4,12.6,2.1,19.3l10.3-2.4c0,0-1.7-13-2-18.1"/>			<path fill="#DB3549" d="M131.7,161.5c0.1,1.6,0.2,3.2,0.3,4.9c0.2,1.6,0.3,3.2,0.5,4.8c0.4,3.2,0.9,6.4,2,9.3l-0.9-0.5&#9;&#9;&#9;&#9;c3.4-0.8,6.9-1.6,10.3-2.4l-0.6,0.8c-0.3-3-0.6-6.1-0.9-9.1c-0.1-1.5-0.2-3-0.3-4.6c-0.1-1.5-0.1-3-0.1-4.6c0.4,3,0.9,6,1.4,9&#9;&#9;&#9;&#9;l1.3,9l0.1,0.7l-0.7,0.2c-3.4,0.8-6.9,1.6-10.3,2.4l-0.7,0.1L133,181c-0.6-1.6-0.9-3.2-1.2-4.9c-0.3-1.6-0.4-3.3-0.5-4.9&#9;&#9;&#9;&#9;c-0.1-1.6-0.1-3.3,0-4.9C131.4,164.7,131.5,163.1,131.7,161.5z"/>		</g>	</g>	<g>		<path fill="#FFB846" d="M170.7,177.9c0,0,31.5,25.6,42.8,25.8l-1.9-1.6c0,0,3.4,0.8,3.1,0.2s-2.6-2.1-2.6-2.1s3.4,1,3.2,0.1&#9;&#9;&#9;s-5-2.8-5-2.8s2.2-0.6,1.6-1.2c-0.6-0.6-4.1-0.2-4.1-0.2s-24.6-18.3-32-25.1"/>		<g>			<path fill="#FF4F56" d="M161.4,167.7c0,0,7,10.4,13,14.4l7-8c0,0-8.9-9.6-12.2-13.6"/>			<path fill="#DB3549" d="M161.4,167.7c1,1.3,2.1,2.5,3.1,3.7c1.1,1.2,2.1,2.4,3.2,3.6c2.2,2.4,4.5,4.7,7,6.4l-1,0.1&#9;&#9;&#9;&#9;c2.3-2.7,4.6-5.3,7-7.9l0,1c-2-2.3-4.1-4.5-6-6.9c-1-1.2-1.9-2.3-2.9-3.5c-0.9-1.2-1.9-2.4-2.7-3.7c2.1,2.2,4.3,4.3,6.4,6.5&#9;&#9;&#9;&#9;l6.3,6.5l0.5,0.5l-0.5,0.5c-2.3,2.7-4.6,5.3-7,8l-0.5,0.5l-0.6-0.4c-1.4-1-2.6-2.1-3.8-3.3c-1.2-1.2-2.2-2.4-3.2-3.7&#9;&#9;&#9;&#9;c-1-1.3-2-2.6-2.9-3.9C163.1,170.4,162.2,169.1,161.4,167.7z"/>		</g>	</g></g></svg>