<?xml version="1.0" standalone="no"?><!DOCTYPE svg PUBLIC "-//W3C//DTD SVG 1.1//EN" "http://www.w3.org/Graphics/SVG/1.1/DTD/svg11.dtd"><svg id="ZombieBear0.svg" width="150" height="150" version="1.1" viewBox="0 0 300 300" xmlns="http://www.w3.org/2000/svg" xmlns:xlink="http://www.w3.org/1999/xlink"><defs xmlns="http://www.w3.org/1999/xhtml"><style type="text/css"><![CDATA[
* { border: 0px; margin: 0px; padding: 0px; }
html { background-color: rgb(255, 255, 255); font-family: Verdana, Arial; }
.webgl-content * { position: absolute; width: 100%; height: 100%; user-select: none; }
.webgl-content .logo, .progress { position: absolute; left: 50%; top: 50%; transform: translate(-50%, -50%); }
.webgl-content .logo { background: url("progressLogo.Light.png") center center / contain no-repeat; width: 154px; height: 130px; }
.webgl-content .progress { height: 18px; width: 141px; margin-top: 90px; }
.webgl-content .progress .empty { background: url("progressEmpty.Light.png") right center / cover no-repeat; float: right; width: 100%; height: 100%; display: inline-block; }
.webgl-content .progress .full { background: url("progressFull.Light.png") left center / cover no-repeat; float: left; width: 0%; height: 100%; display: inline-block; }
.webgl-content .logo.Dark { background-image: url("progressLogo.Dark.png"); }
.webgl-content .progress.Dark .empty { background-image: url("progressEmpty.Dark.png"); }
.webgl-content .progress.Dark .full { background-image: url("progressFull.Dark.png"); }
#loading-content { z-index: 10000; position: fixed; width: 100%; height: 100%; left: 0px; top: 0px; overflow: hidden; background: url("background.png"); }
.hud-intro .hud-intro-social .btn-discord, .hud-respawn .hud-respawn-social .btn-discord { background-image: url("//lordz.io/images/discord-icon.png"); }
.hud-intro .hud-intro-social .btn-twitter, .hud-respawn .hud-respawn-social .btn-twitter { background-image: url("//lordz.io/images/twitter-icon.png"); }
.hud-intro .hud-intro-social .btn-facebook, .hud-respawn .hud-respawn-social .btn-facebook { background-image: url("//lordz.io/images/facebook-icon.png"); }
.hud-intro .hud-intro-social .btn-youtube, .hud-respawn .hud-respawn-social .btn-youtube { background-image: url("//lordz.io/images/youtube-icon.png"); }
* { box-sizing: border-box; user-select: none; }
.btn { position: relative; display: inline-block; top: 0px; height: 36px; line-height: 36px; padding: 0px 20px; background: rgb(68, 68, 68); color: rgb(238, 238, 238); border: 0px; font-size: 14px; vertical-align: top; text-align: center; text-decoration: none; text-shadow: rgba(0, 0, 0, 0.4) 0px 1px 0px; box-shadow: rgba(0, 0, 0, 0.2) 0px 2px 10px, rgb(51, 51, 51) 0px 4px 0px; border-radius: 4px; transition: all 0.15s ease-in-out 0s; }
.btn:hover, .btn:active { background-color: rgb(85, 85, 85); color: rgb(255, 255, 255); }
.btn:active { top: 4px; box-shadow: rgba(0, 0, 0, 0.2) 0px 2px 10px !important; }
.btn-green { background-color: rgb(71, 149, 13); box-shadow: rgba(0, 0, 0, 0.2) 0px 2px 10px, rgb(53, 131, 0) 0px 4px 0px; }
.btn-green:hover, .btn-green:active { background-color: rgb(100, 184, 32); }
.btn-red { background-color: rgb(179, 53, 60); box-shadow: rgba(0, 0, 0, 0.2) 0px 2px 10px, rgb(161, 35, 42) 0px 4px 0px; }
.btn-red:hover, .btn-red:active { background-color: rgb(203, 87, 91); }
.btn-blue { background-color: rgb(29, 141, 238); box-shadow: rgba(0, 0, 0, 0.2) 0px 2px 10px, rgb(11, 123, 220) 0px 4px 0px; }
.btn-blue:hover, .btn-blue:active { background-color: rgb(79, 167, 238); }
.btn-purple { background-color: rgb(114, 55, 228); box-shadow: rgba(0, 0, 0, 0.2) 0px 2px 10px, rgb(96, 37, 210) 0px 4px 0px; }
.btn-purple:hover, .btn-purple:active { background-color: rgb(130, 89, 228); }
.btn-twitter { background-color: rgb(27, 149, 224); box-shadow: rgba(0, 0, 0, 0.2) 0px 2px 10px, rgb(9, 131, 206) 0px 4px 0px; }
.btn-twitter:hover, .btn-twitter:active { background-color: rgb(12, 122, 191); }
.btn-facebook { background-color: rgb(66, 103, 178); box-shadow: rgba(0, 0, 0, 0.2) 0px 2px 10px, rgb(48, 85, 160) 0px 4px 0px; }
.btn-facebook:hover, .btn-facebook:active { background-color: rgb(54, 88, 153); }
.btn-google { background-color: rgb(221, 75, 57); box-shadow: rgba(0, 0, 0, 0.2) 0px 2px 10px, rgb(203, 57, 39) 0px 4px 0px; }
.btn-google:hover, .btn-google:active { background-color: rgb(186, 63, 49); }
.btn-discord { background-color: rgb(114, 137, 218); box-shadow: rgba(0, 0, 0, 0.2) 0px 2px 10px, rgb(96, 119, 200) 0px 4px 0px; }
.btn-discord:hover, .btn-discord:active { background-color: rgb(90, 109, 176); }
.btn-youtube { background-color: rgb(229, 45, 39); box-shadow: rgba(0, 0, 0, 0.2) 0px 2px 10px, rgb(211, 27, 21) 0px 4px 0px; }
.btn-youtube:hover, .btn-youtube:active { background-color: rgb(186, 37, 33); }
.hud { position: fixed; top: 0px; left: 0px; bottom: 0px; right: 0px; }
.hud .hud-bottom-left { display: flex; position: absolute; bottom: 20px; left: 20px; flex-direction: column-reverse; }
.hud-intro .hud-intro-corner-bottom-left, .hud-respawn .hud-respawn-corner-bottom-left { position: fixed; bottom: 20px; left: 20px; text-align: left; }
.hud-intro .hud-intro-social, .hud-respawn .hud-respawn-social { width: 240px; line-height: 24px; font-size: 14px; color: rgb(119, 119, 119); }
.hud-intro .hud-intro-social .btn, .hud-respawn .hud-respawn-social .btn { display: block; float: left; margin: 0px 10px 0px 0px; width: 40px; height: 40px; line-height: 40px; background-size: 24px; background-position: center center; background-repeat: no-repeat; }
.hud-intro .hud-intro-more-games { position: relative; bottom: 5px; line-height: 20px; font-size: 14px; color: rgba(255, 255, 255, 0.4); text-shadow: rgba(0, 0, 0, 0.2) 0px 1px 3px; }
.hud-intro .hud-intro-more-games a { display: inline-block; padding: 0px 20px; line-height: 40px; background: rgb(132, 115, 212); color: rgb(238, 238, 238); text-decoration: none; border-radius: 4px; transition: all 0.15s ease-in-out 0s; }
.hud-intro .hud-intro-more-games a:hover, .hud-intro .hud-intro-more-games a:active { background: rgb(103, 90, 166); }
#preroll video { left: 0px; top: 0px; }
.fb_hidden { position: absolute; top: -10000px; z-index: 10001; }
.fb_reposition { overflow: hidden; position: relative; }
.fb_invisible { display: none; }
.fb_reset { background: none; border: 0px; border-spacing: 0px; color: rgb(0, 0, 0); cursor: auto; direction: ltr; font-family: "lucida grande", tahoma, verdana, arial, sans-serif; font-size: 11px; font-style: normal; font-variant: normal; font-weight: normal; letter-spacing: normal; line-height: 1; margin: 0px; overflow: visible; padding: 0px; text-align: left; text-decoration: none; text-indent: 0px; text-shadow: none; text-transform: none; visibility: visible; white-space: normal; word-spacing: normal; }
.fb_animate { animation: 0.3s ease 0s 1 normal forwards running fb_transform; }
.fb_dialog { background: rgba(82, 82, 82, 0.7); position: absolute; top: -10000px; z-index: 10001; }
.fb_dialog_advanced { border-radius: 8px; padding: 10px; }
.fb_dialog_content { background: rgb(255, 255, 255); color: rgb(55, 55, 55); }
.fb_dialog_close_icon { background: url("https://static.xx.fbcdn.net/rsrc.php/v3/yq/r/IE9JII6Z1Ys.png") 0px 0px no-repeat scroll transparent; cursor: pointer; display: block; height: 15px; position: absolute; right: 18px; top: 17px; width: 15px; }
.fb_dialog_mobile .fb_dialog_close_icon { left: 5px; right: auto; top: 5px; }
.fb_dialog_padding { background-color: transparent; position: absolute; width: 1px; z-index: -1; }
.fb_dialog_close_icon:hover { background: url("https://static.xx.fbcdn.net/rsrc.php/v3/yq/r/IE9JII6Z1Ys.png") 0px -15px no-repeat scroll transparent; }
.fb_dialog_close_icon:active { background: url("https://static.xx.fbcdn.net/rsrc.php/v3/yq/r/IE9JII6Z1Ys.png") 0px -30px no-repeat scroll transparent; }
.fb_dialog_iframe { line-height: 0; }
.fb_dialog_content .dialog_title { background: rgb(109, 132, 180); border: 1px solid rgb(54, 88, 153); color: rgb(255, 255, 255); font-size: 14px; font-weight: bold; margin: 0px; }
body.fb_hidden { height: 100%; left: 0px; margin: 0px; overflow: visible; position: absolute; top: -10000px; transform: none; width: 100%; }
.fb_dialog.fb_dialog_mobile.loading { background: url("https://static.xx.fbcdn.net/rsrc.php/v3/ya/r/3rhSv5V8j3o.gif") 50% 50% no-repeat white; min-height: 100%; min-width: 100%; overflow: hidden; position: absolute; top: 0px; z-index: 10001; }
.fb_dialog.fb_dialog_mobile.loading.centered { background: none; height: auto; min-height: initial; min-width: initial; width: auto; }
.fb_dialog.fb_dialog_mobile.loading.centered #fb_dialog_loader_spinner { width: 100%; }
.fb_dialog.fb_dialog_mobile.loading.centered .fb_dialog_content { background: none; }
.loading.centered #fb_dialog_loader_close { clear: both; color: rgb(255, 255, 255); display: block; font-size: 18px; padding-top: 20px; }
#fb-root #fb_dialog_ipad_overlay { background: rgba(0, 0, 0, 0.4); bottom: 0px; left: 0px; min-height: 100%; position: absolute; right: 0px; top: 0px; width: 100%; z-index: 10000; }
#fb-root #fb_dialog_ipad_overlay.hidden { display: none; }
.fb_dialog.fb_dialog_mobile.loading iframe { visibility: hidden; }
.fb_dialog_mobile .fb_dialog_iframe { position: sticky; top: 0px; }
.fb_dialog_content .dialog_header { border-bottom: 1px solid rgb(4, 59, 135); border-top-color: rgb(4, 59, 135); border-right-color: rgb(4, 59, 135); border-left-color: rgb(4, 59, 135); box-shadow: white 0px 1px 1px -1px inset; color: rgb(255, 255, 255); font: bold 14px Helvetica, sans-serif; text-overflow: ellipsis; text-shadow: rgba(0, 30, 84, 0.298) 0px -1px 0px; vertical-align: middle; white-space: nowrap; }
.fb_dialog_content .dialog_header table { height: 43px; width: 100%; }
.fb_dialog_content .dialog_header td.header_left { font-size: 12px; padding-left: 5px; vertical-align: middle; width: 60px; }
.fb_dialog_content .dialog_header td.header_right { font-size: 12px; padding-right: 5px; vertical-align: middle; width: 60px; }
.fb_dialog_content .touchable_button { background-clip: padding-box; border: 1px solid rgb(41, 72, 125); border-radius: 3px; display: inline-block; line-height: 18px; margin-top: 3px; max-width: 85px; padding: 4px 12px; position: relative; }
.fb_dialog_content .dialog_header .touchable_button input { background: none; border: none; color: rgb(255, 255, 255); font: bold 12px Helvetica, sans-serif; margin: 2px -12px; padding: 2px 6px 3px; text-shadow: rgba(0, 30, 84, 0.298) 0px -1px 0px; }
.fb_dialog_content .dialog_header .header_center { color: rgb(255, 255, 255); font-size: 16px; font-weight: bold; line-height: 18px; text-align: center; vertical-align: middle; }
.fb_dialog_content .dialog_content { background: url("https://static.xx.fbcdn.net/rsrc.php/v3/y9/r/jKEcVPZFk-2.gif") 50% 50% no-repeat; border-width: 0px 1px; border-right-style: solid; border-left-style: solid; border-right-color: rgb(74, 74, 74); border-left-color: rgb(74, 74, 74); border-image: initial; border-bottom-style: initial; border-bottom-color: initial; border-top-style: initial; border-top-color: initial; height: 150px; }
.fb_dialog_content .dialog_footer { background: rgb(245, 246, 247); border-width: 1px; border-style: solid; border-color: rgb(204, 204, 204) rgb(74, 74, 74) rgb(74, 74, 74); border-image: initial; height: 40px; }
#fb_dialog_loader_close { float: left; }
.fb_dialog.fb_dialog_mobile .fb_dialog_close_button { text-shadow: rgba(0, 30, 84, 0.298) 0px -1px 0px; }
.fb_dialog.fb_dialog_mobile .fb_dialog_close_icon { visibility: hidden; }
#fb_dialog_loader_spinner { animation: 1.2s linear 0s infinite normal none running rotateSpinner; background-color: transparent; background-image: url("https://static.xx.fbcdn.net/rsrc.php/v3/yD/r/t-wz8gw1xG1.png"); background-position: 50% 50%; background-repeat: no-repeat; height: 24px; width: 24px; }
.fb_iframe_widget { display: inline-block; position: relative; }
.fb_iframe_widget span { display: inline-block; position: relative; text-align: justify; }
.fb_iframe_widget iframe { position: absolute; }
.fb_iframe_widget_fluid_desktop, .fb_iframe_widget_fluid_desktop span, .fb_iframe_widget_fluid_desktop iframe { max-width: 100%; }
.fb_iframe_widget_fluid_desktop iframe { min-width: 220px; position: relative; }
.fb_iframe_widget_lift { z-index: 1; }
.fb_iframe_widget_fluid { display: inline; }
.fb_iframe_widget_fluid span { width: 100%; }
.st0 { fill: rgb(119, 183, 73); }
.st1 { fill: rgb(247, 175, 47); }
.st2 { fill: rgb(233, 81, 15); }
.st3 { fill: url("#SVGID_1_"); }
.st4 { fill: url("#SVGID_2_"); }
.st5 { fill: rgb(252, 242, 119); }
.st6 { fill: url("#SVGID_3_"); }
.st7 { fill: url("#SVGID_4_"); }
.st8 { fill: url("#SVGID_5_"); }
.st9 { fill: url("#SVGID_6_"); }
.st10 { fill: url("#SVGID_7_"); }
.st11 { fill: url("#SVGID_8_"); }
.st12 { fill: url("#SVGID_9_"); }
.st13 { fill: url("#SVGID_10_"); }
.st14 { fill: url("#SVGID_11_"); }
.st15 { fill: url("#SVGID_12_"); }
.st16 { fill: url("#SVGID_13_"); }
.st17 { fill: url("#SVGID_14_"); }
.st18 { fill: url("#SVGID_15_"); }
.st19 { fill: url("#SVGID_16_"); }
.st0 { fill: rgb(119, 183, 73); }
.st1 { fill: rgb(247, 175, 47); }
.st2 { fill: rgb(233, 81, 15); }
.st3 { fill: url("#SVGID_1_"); }
.st4 { fill: url("#SVGID_2_"); }
.st5 { fill: rgb(252, 242, 119); }
.st6 { fill: url("#SVGID_3_"); }
.st7 { fill: url("#SVGID_4_"); }
.st8 { fill: url("#SVGID_5_"); }
.st9 { fill: url("#SVGID_6_"); }
.st10 { fill: url("#SVGID_7_"); }
.st11 { fill: url("#SVGID_8_"); }
.st12 { fill: url("#SVGID_9_"); }
.st13 { fill: url("#SVGID_10_"); }
.st14 { fill: url("#SVGID_11_"); }
.st15 { fill: url("#SVGID_12_"); }
.st16 { fill: url("#SVGID_13_"); }
.st17 { fill: url("#SVGID_14_"); }
.st18 { fill: url("#SVGID_15_"); }
.st19 { fill: url("#SVGID_16_"); }
.st0 { fill: rgb(119, 183, 73); }
.st1 { fill: rgb(247, 175, 47); }
.st2 { fill: rgb(233, 81, 15); }
.st3 { fill: url("#SVGID_1_"); }
.st4 { fill: url("#SVGID_2_"); }
.st5 { fill: rgb(252, 242, 119); }
.st6 { fill: url("#SVGID_3_"); }
.st7 { fill: url("#SVGID_4_"); }
.st8 { fill: url("#SVGID_5_"); }
.st9 { fill: url("#SVGID_6_"); }
.st10 { fill: url("#SVGID_7_"); }
.st11 { fill: url("#SVGID_8_"); }
.st12 { fill: url("#SVGID_9_"); }
.st13 { fill: url("#SVGID_10_"); }
.st14 { fill: url("#SVGID_11_"); }
.st15 { fill: url("#SVGID_12_"); }
.st16 { fill: url("#SVGID_13_"); }
.st17 { fill: url("#SVGID_14_"); }
.st18 { fill: url("#SVGID_15_"); }
.st19 { fill: url("#SVGID_16_"); }
.st0 { fill: rgb(119, 183, 73); }
.st1 { fill: rgb(247, 175, 47); }
.st2 { fill: rgb(233, 81, 15); }
.st3 { fill: url("#SVGID_1_"); }
.st4 { fill: url("#SVGID_2_"); }
.st5 { fill: rgb(252, 242, 119); }
.st6 { fill: url("#SVGID_3_"); }
.st7 { fill: url("#SVGID_4_"); }
.st8 { fill: url("#SVGID_5_"); }
.st9 { fill: url("#SVGID_6_"); }
.st10 { fill: url("#SVGID_7_"); }
.st11 { fill: url("#SVGID_8_"); }
.st12 { fill: url("#SVGID_9_"); }
.st13 { fill: url("#SVGID_10_"); }
.st14 { fill: url("#SVGID_11_"); }
.st15 { fill: url("#SVGID_12_"); }
.st16 { fill: url("#SVGID_13_"); }
.st17 { fill: url("#SVGID_14_"); }
.st18 { fill: url("#SVGID_15_"); }
.st19 { fill: url("#SVGID_16_"); }]]></style></defs><path fill="rgb(84, 122, 95)" d=" M 164.720000 128.180000 C 164.720000 128.180000 198.640000 131.670000 243.730000 117.650000 L 252.220000 111.800000 L 250.750000 117.650000 C 250.750000 117.650000 264.800000 119.110000 269.190000 121.750000 L 261.580000 124.670000 C 261.580000 124.670000 267.720000 127.010000 269.770000 129.060000 C 269.770000 129.060000 265.970000 132.870000 263.630000 131.990000 C 263.630000 131.990000 268.020000 134.040000 269.770000 135.790000 C 269.770000 135.790000 264.800000 139.600000 262.750000 139.890000 L 268.020000 142.810000 C 268.020000 142.810000 224.570000 162.200000 170.730000 161.600000 L 164.720000 128.180000 Z"/><path fill="rgb(97, 142, 110)" d=" M 202.310000 140.810000 C 203.450000 142.030000 203.450000 144.000000 202.310000 145.220000 C 201.160000 146.440000 199.310000 146.440000 198.170000 145.220000 C 197.020000 144.000000 197.020000 142.030000 198.170000 140.810000 C 199.310000 139.590000 201.160000 139.590000 202.310000 140.810000 Z"/><path fill="rgb(97, 142, 110)" d=" M 214.270000 134.560000 C 215.420000 135.780000 215.420000 137.760000 214.270000 138.980000 C 213.130000 140.200000 211.280000 140.200000 210.130000 138.980000 C 208.990000 137.760000 208.990000 135.780000 210.130000 134.560000 C 211.280000 133.340000 213.130000 133.340000 214.270000 134.560000 Z"/><path fill="rgb(97, 142, 110)" d=" M 213.100000 145.060000 C 214.600000 146.660000 214.600000 149.250000 213.100000 150.850000 C 211.600000 152.450000 209.170000 152.450000 207.670000 150.850000 C 206.170000 149.250000 206.170000 146.660000 207.670000 145.060000 C 209.170000 143.460000 211.600000 143.460000 213.100000 145.060000 Z"/><path fill="rgb(130, 26, 47)" d=" M 242.350000 118.060000 C 234.530000 120.450000 227.050000 122.310000 220.040000 123.750000 C 220.460000 127.990000 219.850000 140.360000 223.410000 140.590000 C 226.540000 140.800000 226.720000 130.690000 228.220000 128.540000 C 231.970000 131.360000 227.790000 139.210000 232.150000 142.540000 C 235.720000 138.760000 234.870000 130.500000 236.640000 125.470000 C 238.040000 127.840000 237.870000 131.450000 239.580000 133.810000 C 242.980000 131.040000 243.090000 124.040000 242.350000 118.060000 Z M 242.220000 139.870000 C 240.770000 139.870000 239.590000 141.050000 239.590000 142.500000 C 239.590000 143.950000 240.770000 145.120000 242.220000 145.120000 C 243.670000 145.120000 244.840000 143.950000 244.840000 142.500000 C 244.840000 141.050000 243.670000 139.870000 242.220000 139.870000 Z"/><path fill="rgb(189, 105, 104)" d=" M 74.310000 44.420000 C 74.310000 44.420000 80.030000 24.880000 89.920000 29.290000 C 89.920000 29.290000 95.650000 15.420000 106.050000 18.570000 L 108.650000 20.470000 C 108.650000 20.470000 112.300000 4.080000 125.300000 4.080000 C 138.310000 4.080000 146.120000 18.570000 146.120000 18.570000 C 146.120000 18.570000 148.200000 13.530000 152.360000 14.790000 C 156.530000 16.060000 162.770000 32.440000 162.770000 32.440000 C 162.770000 32.440000 145.080000 38.740000 138.310000 41.260000 C 131.550000 43.790000 100.850000 48.830000 97.720000 48.830000 C 94.600000 48.830000 74.310000 44.420000 74.310000 44.420000 Z"/><path fill="rgb(225, 136, 134)" d=" M 152.360000 14.790000 C 148.200000 13.530000 146.120000 18.570000 146.120000 18.570000 C 146.120000 18.570000 138.310000 4.080000 125.300000 4.080000 C 112.300000 4.080000 108.660000 20.470000 108.660000 20.470000 L 106.050000 18.570000 C 95.650000 15.420000 89.920000 29.290000 89.920000 29.290000 C 80.030000 24.880000 74.310000 44.420000 74.310000 44.420000 C 74.310000 44.420000 74.410000 44.440000 74.580000 44.470000 C 77.420000 39.550000 81.960000 34.470000 87.900000 36.940000 C 87.900000 36.940000 94.020000 23.100000 105.140000 26.220000 C 105.190000 26.500000 105.360000 26.770000 105.730000 26.980000 C 107.680000 28.110000 109.420000 29.630000 110.460000 31.850000 C 111.100000 33.230000 113.830000 32.060000 113.100000 30.480000 C 112.120000 28.390000 110.530000 26.830000 108.770000 25.610000 C 110.500000 21.020000 115.300000 11.730000 125.780000 11.730000 C 135.730000 11.730000 142.830000 19.120000 146.080000 23.340000 C 144.960000 24.410000 144.180000 25.780000 144.150000 27.670000 C 144.120000 29.460000 147.030000 29.150000 147.050000 27.590000 C 147.070000 26.700000 147.260000 26.040000 147.610000 25.500000 C 147.910000 25.960000 148.070000 26.230000 148.070000 26.230000 C 148.070000 26.230000 150.300000 21.190000 154.750000 22.450000 C 157.130000 23.120000 160.130000 28.080000 162.420000 32.570000 C 162.640000 32.490000 162.770000 32.440000 162.770000 32.440000 C 162.770000 32.440000 156.530000 16.060000 152.360000 14.790000 Z"/><path fill="rgb(225, 136, 134)" d=" M 133.910000 23.420000 C 131.700000 19.540000 127.780000 18.550000 125.140000 21.120000 C 122.920000 17.700000 118.790000 19.170000 115.790000 22.330000 C 114.470000 23.730000 117.170000 24.560000 118.170000 23.500000 C 120.310000 21.230000 122.440000 20.770000 123.350000 24.470000 C 123.690000 25.850000 125.710000 25.490000 126.150000 24.380000 C 127.560000 20.810000 129.820000 22.230000 131.270000 24.780000 C 132.030000 26.110000 134.760000 24.900000 133.910000 23.420000 Z"/><path fill="rgb(225, 136, 134)" d=" M 102.690000 35.780000 C 99.880000 32.090000 95.510000 32.800000 93.240000 36.770000 C 92.840000 37.480000 93.540000 38.160000 94.090000 38.280000 C 94.850000 38.440000 95.560000 38.050000 95.970000 37.340000 C 97.080000 35.390000 98.750000 35.440000 100.050000 37.140000 C 100.950000 38.330000 103.680000 37.080000 102.690000 35.780000 Z"/><path fill="rgb(225, 136, 134)" d=" M 137.030000 31.070000 C 133.540000 26.760000 128.220000 29.230000 126.020000 33.820000 C 125.220000 35.500000 128.100000 35.740000 128.750000 34.390000 C 129.870000 32.050000 132.410000 29.990000 134.390000 32.430000 C 135.320000 33.590000 138.050000 32.330000 137.030000 31.070000 Z"/><path fill="rgb(225, 136, 134)" d=" M 156.520000 26.990000 C 154.090000 26.380000 151.380000 27.510000 150.480000 30.290000 C 149.890000 32.110000 152.730000 32.310000 153.210000 30.860000 C 153.620000 29.580000 154.340000 29.160000 155.490000 29.450000 C 156.970000 29.820000 158.410000 27.470000 156.520000 26.990000 Z"/><path fill="rgb(84, 122, 95)" d=" M 188.600000 295.920000 L 183.020000 288.600000 L 182.350000 278.020000 L 167.710000 276.330000 L 167.710000 282.780000 L 165.640000 286.780000 L 166.680000 286.180000 C 166.680000 286.180000 165.490000 288.930000 165.710000 288.710000 C 165.940000 288.490000 166.750000 288.260000 166.750000 288.260000 L 166.080000 291.390000 L 167.710000 290.780000 L 167.710000 295.760000 L 188.600000 295.920000 Z"/><path fill="rgb(84, 122, 95)" d=" M 78.530000 295.920000 L 72.940000 288.600000 L 72.270000 278.020000 L 57.630000 276.330000 L 57.630000 282.780000 L 55.560000 286.780000 L 56.600000 286.180000 C 56.600000 286.180000 55.410000 288.930000 55.630000 288.710000 C 55.860000 288.490000 56.670000 288.260000 56.670000 288.260000 L 56.000000 291.390000 L 57.630000 290.780000 L 57.630000 295.760000 L 78.530000 295.920000 Z"/><path fill="rgb(84, 122, 95)" d=" M 53.550000 274.460000 C 53.550000 274.460000 41.060000 278.890000 38.240000 263.230000 L 36.230000 252.680000 L 40.260000 258.470000 C 40.260000 258.470000 37.030000 240.770000 39.450000 237.030000 L 45.490000 244.170000 L 48.310000 241.790000 L 55.970000 253.710000 L 53.550000 274.460000 Z"/><path fill="rgb(68, 98, 77)" d=" M 180.700000 106.840000 L 56.250000 100.080000 C 56.250000 100.080000 54.760000 108.740000 52.930000 122.570000 L 45.580000 140.470000 L 48.390000 138.360000 L 45.230000 151.010000 L 47.340000 150.310000 L 45.230000 162.610000 L 48.920000 159.260000 C 45.530000 198.430000 44.230000 248.380000 54.570000 280.830000 C 91.200000 278.610000 163.770000 279.280000 188.020000 279.710000 C 188.020000 279.710000 188.580000 150.200000 180.700000 106.840000 Z"/><path fill="rgb(84, 122, 95)" d=" M 194.770000 88.260000 L 187.310000 73.760000 C 185.940000 64.070000 183.300000 55.630000 179.460000 48.500000 L 183.020000 47.710000 C 191.710000 44.420000 173.760000 22.160000 165.140000 16.380000 C 158.940000 12.220000 159.720000 22.470000 160.650000 28.560000 C 160.510000 28.480000 160.360000 28.400000 160.220000 28.320000 L 161.730000 32.180000 C 146.120000 40.500000 71.190000 44.140000 71.190000 44.140000 C 71.190000 44.140000 70.930000 39.950000 70.620000 40.220000 C 70.730000 34.020000 70.060000 25.110000 64.700000 29.700000 C 56.820000 36.450000 41.610000 60.670000 50.620000 62.920000 L 53.620000 63.220000 C 52.280000 66.450000 51.270000 69.770000 50.640000 73.130000 L 50.620000 73.050000 C 50.620000 73.050000 41.610000 87.690000 41.610000 95.580000 L 44.990000 92.200000 L 43.860000 103.460000 L 47.810000 99.520000 L 50.060000 108.530000 L 54.200000 99.000000 C 59.810000 108.940000 70.500000 117.060000 83.710000 122.610000 L 99.520000 133.530000 L 99.150000 130.590000 L 106.880000 135.370000 L 106.150000 131.690000 L 116.080000 135.370000 L 114.910000 130.240000 C 121.980000 130.900000 129.190000 130.930000 136.320000 130.220000 C 143.550000 129.500000 149.980000 128.450000 155.660000 127.000000 L 152.140000 133.530000 L 158.760000 127.640000 L 159.870000 131.320000 L 165.390000 126.910000 L 166.490000 130.950000 L 176.830000 116.960000 C 182.870000 111.750000 186.500000 104.860000 187.810000 95.880000 L 193.650000 97.830000 L 191.960000 88.820000 L 194.770000 88.260000 Z"/><path fill="rgb(118, 173, 135)" d=" M 101.860000 122.400000 C 105.860000 122.040000 118.570000 116.590000 119.300000 115.500000 C 120.020000 114.410000 144.720000 113.690000 144.720000 113.690000 L 145.450000 107.150000 L 148.360000 102.060000 L 143.270000 95.890000 L 139.270000 81.360000 L 137.090000 65.740000 L 138.550000 63.560000 L 139.270000 59.200000 L 134.550000 58.840000 L 134.190000 50.120000 L 129.830000 50.490000 L 128.650000 39.320000 C 102.340000 42.630000 71.190000 44.150000 71.190000 44.150000 C 71.190000 44.150000 70.930000 39.950000 70.620000 40.220000 C 70.730000 34.020000 70.060000 25.110000 64.700000 29.700000 C 56.820000 36.450000 41.620000 60.670000 50.620000 62.920000 L 53.620000 63.220000 C 52.280000 66.450000 51.270000 69.770000 50.640000 73.130000 L 50.620000 73.050000 C 50.620000 73.050000 41.620000 87.690000 41.620000 95.580000 L 44.990000 92.200000 L 43.870000 103.460000 L 47.810000 99.520000 L 50.060000 108.530000 L 54.200000 99.000000 C 59.810000 108.940000 70.500000 117.060000 83.710000 122.610000 L 91.500000 127.990000 C 93.880000 124.620000 98.990000 122.660000 101.860000 122.400000 Z"/><path fill="rgb(97, 142, 110)" d=" M 173.310000 279.500000 L 174.070000 247.750000 C 174.520000 235.370000 168.660000 214.750000 168.660000 214.750000 L 166.850000 218.410000 C 158.740000 188.160000 137.100000 173.500000 119.510000 180.370000 C 101.930000 187.250000 94.710000 224.830000 94.710000 224.830000 L 93.810000 220.250000 C 88.070000 233.740000 91.180000 266.670000 92.690000 279.570000 C 120.720000 279.100000 152.470000 279.260000 173.310000 279.500000 Z"/><path fill="rgb(97, 142, 110)" d=" M 93.940000 68.110000 C 98.790000 74.290000 98.790000 84.320000 93.940000 90.510000 C 89.090000 96.690000 81.220000 96.690000 76.370000 90.510000 C 71.520000 84.320000 71.520000 74.290000 76.370000 68.110000 C 81.220000 61.930000 89.090000 61.930000 93.940000 68.110000 Z"/><path fill="rgb(97, 142, 110)" d=" M 177.770000 58.800000 C 182.620000 64.980000 182.620000 75.010000 177.770000 81.190000 C 172.920000 87.380000 165.060000 87.380000 160.210000 81.190000 C 155.360000 75.010000 155.360000 64.980000 160.210000 58.800000 C 165.060000 52.610000 172.920000 52.610000 177.770000 58.800000 Z"/><path fill="rgb(255, 255, 255)" d=" M 89.300000 67.530000 C 90.730000 69.510000 90.730000 72.720000 89.300000 74.700000 C 87.870000 76.680000 85.550000 76.680000 84.120000 74.700000 C 82.690000 72.720000 82.690000 69.510000 84.120000 67.530000 C 85.550000 65.550000 87.870000 65.550000 89.300000 67.530000 Z"/><path fill="rgb(255, 255, 255)" d=" M 175.140000 60.920000 C 175.140000 63.720000 173.500000 65.990000 171.480000 65.990000 C 169.460000 65.990000 167.820000 63.720000 167.820000 60.920000 C 167.820000 58.120000 169.460000 55.850000 171.480000 55.850000 C 173.500000 55.850000 175.140000 58.120000 175.140000 60.920000 Z"/><path fill="rgb(45, 65, 51)" d=" M 146.250000 68.430000 C 151.310000 70.220000 151.510000 73.610000 146.690000 75.980000 C 141.880000 78.360000 133.870000 78.830000 128.800000 77.030000 C 123.740000 75.240000 123.540000 71.860000 128.360000 69.480000 C 133.180000 67.110000 141.190000 66.630000 146.250000 68.430000 Z"/><path fill="rgb(45, 65, 51)" d=" M 64.850000 41.740000 C 64.730000 41.250000 64.140000 40.890000 63.640000 41.060000 C 59.020000 42.640000 47.320000 58.050000 56.670000 59.680000 C 57.910000 59.900000 58.440000 58.000000 57.190000 57.780000 C 51.670000 56.820000 59.230000 46.300000 63.110000 43.540000 C 63.130000 44.640000 62.800000 45.670000 62.130000 46.620000 C 61.530000 47.740000 63.230000 48.730000 63.820000 47.610000 C 64.890000 45.620000 65.380000 43.970000 64.850000 41.740000 Z"/><path fill="rgb(45, 65, 51)" d=" M 172.110000 29.210000 C 170.340000 27.610000 168.060000 26.480000 165.980000 28.110000 C 163.510000 30.040000 165.870000 34.510000 167.720000 35.880000 C 168.740000 36.640000 169.720000 34.940000 168.710000 34.190000 C 167.660000 33.400000 165.640000 28.720000 168.440000 29.250000 C 169.900000 29.520000 171.150000 30.940000 172.090000 31.980000 C 173.160000 33.150000 177.600000 39.230000 174.690000 40.360000 C 173.520000 40.810000 174.030000 42.720000 175.210000 42.250000 C 181.040000 39.990000 174.700000 31.560000 172.110000 29.210000 Z"/><path fill="rgb(45, 65, 51)" d=" M 105.520000 96.910000 C 105.520000 96.910000 161.340000 74.080000 166.050000 93.650000 C 166.050000 93.650000 144.650000 117.790000 105.520000 96.910000 Z"/><path fill="rgb(255, 255, 255)" d=" M 158.750000 93.080000 C 158.850000 92.780000 160.120000 89.830000 161.080000 87.610000 C 151.880000 83.030000 132.640000 87.740000 119.400000 91.960000 L 122.170000 96.000000 L 122.650000 92.760000 L 157.130000 89.360000 C 157.130000 89.360000 158.590000 93.570000 158.750000 93.080000 Z"/><path fill="rgb(45, 65, 51)" d=" M 131.720000 110.120000 C 131.720000 110.120000 149.660000 110.540000 156.410000 106.590000 C 156.410000 106.590000 151.050000 117.720000 131.720000 110.120000 Z"/><path fill="rgb(68, 98, 77)" d=" M 142.510000 41.750000 C 142.020000 41.340000 141.330000 42.030000 141.810000 42.440000 C 144.430000 44.660000 148.600000 48.130000 148.840000 51.810000 C 149.090000 55.640000 142.170000 53.250000 140.730000 52.430000 C 138.700000 51.290000 136.910000 49.610000 135.420000 47.760000 C 134.950000 46.980000 134.450000 46.280000 133.950000 45.760000 C 133.570000 45.350000 132.860000 45.880000 133.170000 46.350000 C 133.550000 46.910000 134.030000 47.560000 134.580000 48.220000 C 135.330000 49.430000 135.890000 50.750000 136.190000 52.140000 C 136.930000 55.610000 134.020000 57.070000 131.030000 56.180000 C 126.620000 54.870000 123.020000 50.320000 120.310000 46.830000 C 119.950000 46.360000 119.290000 46.950000 119.540000 47.420000 C 120.760000 49.790000 122.210000 52.030000 123.100000 54.560000 C 123.560000 55.870000 123.950000 57.830000 122.160000 58.290000 C 120.830000 58.620000 119.350000 57.750000 118.270000 57.090000 C 113.920000 54.380000 109.900000 49.180000 107.820000 44.520000 C 107.560000 43.940000 106.710000 44.440000 106.970000 45.020000 C 108.280000 47.930000 110.330000 50.560000 112.390000 52.980000 C 114.500000 55.470000 117.110000 58.140000 120.310000 59.130000 C 122.540000 59.810000 124.520000 58.660000 124.470000 56.280000 C 124.430000 54.750000 123.870000 53.240000 123.130000 51.780000 C 126.050000 54.980000 129.770000 58.020000 133.560000 57.470000 C 137.480000 56.900000 137.730000 53.610000 136.690000 50.500000 C 140.290000 53.990000 145.340000 57.010000 149.090000 53.690000 C 152.670000 50.520000 144.520000 43.450000 142.510000 41.750000 Z"/><path fill="rgb(130, 26, 47)" d=" M 73.790000 52.530000 C 74.190000 50.960000 75.560000 49.170000 76.390000 47.730000 C 78.170000 50.640000 76.490000 54.970000 79.930000 57.090000 C 81.150000 53.930000 79.230000 47.330000 84.120000 47.350000 C 84.350000 48.190000 84.610000 49.030000 84.820000 49.790000 C 86.580000 48.510000 87.070000 48.390000 86.890000 45.800000 C 87.200000 45.740000 88.080000 45.500000 88.220000 45.260000 C 89.870000 47.520000 90.900000 50.470000 93.990000 50.310000 C 94.660000 47.830000 95.280000 45.210000 95.550000 42.570000 C 83.240000 43.510000 73.650000 44.020000 71.600000 44.120000 C 71.530000 47.190000 71.940000 50.380000 73.790000 52.530000 Z"/><path fill="rgb(45, 65, 51)" d=" M 105.010000 84.730000 C 104.210000 85.720000 103.440000 86.720000 102.730000 87.770000 C 101.990000 88.790000 101.300000 89.850000 100.650000 90.930000 C 99.360000 93.080000 98.180000 95.300000 97.240000 97.620000 C 96.270000 99.930000 95.550000 102.330000 95.070000 104.790000 C 94.610000 107.250000 94.470000 109.770000 94.610000 112.310000 C 94.330000 111.070000 94.190000 109.800000 94.130000 108.520000 C 94.100000 107.240000 94.180000 105.950000 94.330000 104.670000 C 94.630000 102.120000 95.360000 99.620000 96.330000 97.250000 C 97.320000 94.880000 98.550000 92.610000 100.020000 90.520000 C 101.480000 88.420000 103.110000 86.430000 105.010000 84.730000 Z"/><path fill="rgb(45, 65, 51)" d=" M 93.040000 101.910000 C 94.330000 102.070000 95.500000 102.520000 96.630000 103.020000 C 97.750000 103.550000 98.840000 104.150000 99.810000 105.030000 C 98.520000 104.860000 97.350000 104.420000 96.220000 103.910000 C 95.100000 103.380000 94.010000 102.780000 93.040000 101.910000 Z"/><path fill="rgb(45, 65, 51)" d=" M 95.120000 94.100000 C 96.590000 94.850000 97.860000 95.820000 99.090000 96.850000 C 100.290000 97.900000 101.450000 99.010000 102.410000 100.340000 C 100.940000 99.600000 99.670000 98.620000 98.450000 97.590000 C 97.240000 96.540000 96.090000 95.440000 95.120000 94.100000 Z"/><path fill="rgb(45, 65, 51)" d=" M 100.330000 85.770000 C 101.420000 86.580000 102.270000 87.570000 103.060000 88.600000 C 103.830000 89.650000 104.540000 90.750000 105.010000 92.020000 C 103.920000 91.210000 103.070000 90.220000 102.280000 89.190000 C 101.510000 88.140000 100.800000 87.050000 100.330000 85.770000 Z"/><path fill="rgb(130, 26, 47)" d=" M 160.570000 42.010000 C 161.590000 39.510000 160.710000 35.880000 159.870000 33.040000 C 157.190000 34.130000 153.500000 35.140000 149.120000 36.060000 C 148.800000 40.460000 148.170000 47.140000 152.280000 47.190000 C 151.820000 44.390000 150.120000 41.280000 153.430000 39.640000 C 156.020000 43.890000 153.250000 50.020000 155.990000 54.510000 C 159.570000 50.390000 155.680000 43.910000 158.220000 39.000000 C 158.630000 39.840000 160.150000 41.170000 160.570000 42.010000 Z"/><path fill="rgb(45, 65, 51)" d=" M 63.900000 204.940000 L 63.350000 216.970000 C 63.210000 220.980000 63.080000 224.970000 63.080000 228.960000 C 63.050000 232.950000 63.160000 236.940000 63.420000 240.910000 C 63.690000 244.890000 64.140000 248.850000 64.940000 252.810000 C 63.350000 249.090000 62.460000 245.080000 61.890000 241.070000 C 61.320000 237.060000 61.120000 233.000000 61.120000 228.960000 C 61.150000 224.910000 61.370000 220.870000 61.830000 216.860000 C 62.280000 212.850000 62.910000 208.850000 63.900000 204.940000 Z"/><path fill="rgb(45, 65, 51)" d=" M 58.700000 212.740000 C 59.660000 212.660000 60.560000 212.770000 61.440000 212.930000 C 62.310000 213.100000 63.160000 213.340000 63.980000 213.640000 C 64.810000 213.940000 65.610000 214.310000 66.380000 214.750000 C 67.150000 215.200000 67.900000 215.690000 68.590000 216.380000 C 67.620000 216.470000 66.730000 216.360000 65.850000 216.200000 C 64.970000 216.030000 64.130000 215.790000 63.300000 215.480000 C 62.480000 215.180000 61.680000 214.810000 60.900000 214.370000 C 60.140000 213.920000 59.380000 213.430000 58.700000 212.740000 Z"/><path fill="rgb(45, 65, 51)" d=" M 59.220000 222.110000 C 59.930000 221.940000 60.570000 221.970000 61.190000 222.040000 C 61.800000 222.120000 62.390000 222.270000 62.960000 222.490000 C 63.520000 222.710000 64.060000 222.990000 64.570000 223.340000 C 65.080000 223.700000 65.570000 224.110000 65.990000 224.710000 C 65.270000 224.880000 64.640000 224.850000 64.020000 224.780000 C 63.400000 224.700000 62.810000 224.540000 62.250000 224.320000 C 61.690000 224.110000 61.150000 223.830000 60.640000 223.480000 C 60.130000 223.110000 59.640000 222.710000 59.220000 222.110000 Z"/><path fill="rgb(45, 65, 51)" d=" M 58.700000 231.470000 C 59.470000 231.200000 60.200000 231.130000 60.920000 231.110000 C 61.640000 231.100000 62.350000 231.160000 63.040000 231.290000 C 63.740000 231.420000 64.420000 231.610000 65.090000 231.890000 C 65.750000 232.170000 66.410000 232.500000 67.020000 233.040000 C 66.250000 233.310000 65.520000 233.380000 64.800000 233.400000 C 64.080000 233.420000 63.370000 233.350000 62.680000 233.220000 C 61.990000 233.090000 61.310000 232.890000 60.640000 232.620000 C 59.970000 232.340000 59.320000 232.010000 58.700000 231.470000 Z"/><path fill="rgb(45, 65, 51)" d=" M 59.220000 240.320000 C 60.010000 240.000000 60.770000 239.880000 61.520000 239.820000 C 62.280000 239.760000 63.020000 239.780000 63.760000 239.870000 C 64.500000 239.950000 65.220000 240.100000 65.940000 240.330000 C 66.660000 240.580000 67.380000 240.870000 68.070000 241.360000 C 67.280000 241.680000 66.520000 241.800000 65.760000 241.870000 C 65.010000 241.920000 64.260000 241.910000 63.530000 241.820000 C 62.790000 241.730000 62.060000 241.570000 61.340000 241.340000 C 60.620000 241.100000 59.910000 240.810000 59.220000 240.320000 Z"/><path fill="rgb(255, 255, 255)" d=" M 157.030000 100.280000 L 153.080000 93.560000 L 151.620000 98.910000 L 137.540000 101.820000 L 133.660000 98.420000 L 132.790000 105.310000 C 143.310000 105.990000 151.440000 103.270000 157.030000 100.280000 Z"/><path fill="rgb(97, 142, 110)" d=" M 75.030000 98.470000 C 76.720000 100.160000 76.720000 102.900000 75.030000 104.590000 C 73.340000 106.280000 70.600000 106.280000 68.910000 104.590000 C 67.220000 102.900000 67.220000 100.160000 68.910000 98.470000 C 70.600000 96.780000 73.340000 96.780000 75.030000 98.470000 Z"/><path fill="rgb(97, 142, 110)" d=" M 81.510000 110.120000 C 82.800000 111.410000 82.800000 113.490000 81.510000 114.780000 C 80.220000 116.070000 78.140000 116.070000 76.850000 114.780000 C 75.560000 113.490000 75.560000 111.410000 76.850000 110.120000 C 78.140000 108.830000 80.220000 108.830000 81.510000 110.120000 Z"/><path fill="rgb(97, 142, 110)" d=" M 84.810000 102.700000 C 86.100000 103.990000 86.100000 106.080000 84.810000 107.360000 C 83.520000 108.650000 81.440000 108.650000 80.150000 107.360000 C 78.860000 106.080000 78.860000 103.990000 80.150000 102.700000 C 81.440000 101.410000 83.520000 101.410000 84.810000 102.700000 Z"/><path fill="rgb(97, 142, 110)" d=" M 174.480000 102.880000 C 176.010000 104.410000 176.010000 106.890000 174.480000 108.420000 C 172.950000 109.950000 170.470000 109.950000 168.940000 108.420000 C 167.410000 106.890000 167.410000 104.410000 168.940000 102.880000 C 170.470000 101.350000 172.950000 101.350000 174.480000 102.880000 Z"/><path fill="rgb(97, 142, 110)" d=" M 172.000000 180.200000 C 173.530000 182.620000 173.530000 186.530000 172.000000 188.950000 C 170.470000 191.360000 167.990000 191.360000 166.460000 188.950000 C 164.940000 186.530000 164.940000 182.620000 166.460000 180.200000 C 167.990000 177.790000 170.470000 177.790000 172.000000 180.200000 Z"/><path fill="rgb(97, 142, 110)" d=" M 178.070000 195.680000 C 179.200000 197.860000 179.200000 201.380000 178.070000 203.550000 C 176.950000 205.730000 175.120000 205.730000 173.990000 203.550000 C 172.870000 201.380000 172.870000 197.860000 173.990000 195.680000 C 175.120000 193.510000 176.950000 193.510000 178.070000 195.680000 Z"/><path fill="rgb(97, 142, 110)" d=" M 78.920000 259.980000 C 80.370000 262.150000 80.370000 265.670000 78.920000 267.850000 C 77.470000 270.020000 75.120000 270.020000 73.670000 267.850000 C 72.220000 265.670000 72.220000 262.150000 73.670000 259.980000 C 75.120000 257.800000 77.470000 257.800000 78.920000 259.980000 Z"/><path fill="rgb(97, 142, 110)" d=" M 79.990000 246.490000 C 81.110000 248.260000 81.110000 251.130000 79.990000 252.900000 C 78.860000 254.670000 77.030000 254.670000 75.900000 252.900000 C 74.780000 251.130000 74.780000 248.260000 75.900000 246.490000 C 77.030000 244.720000 78.860000 244.720000 79.990000 246.490000 Z"/><path fill="rgb(97, 142, 110)" d=" M 179.910000 238.600000 C 180.790000 240.290000 180.790000 243.030000 179.910000 244.720000 C 179.020000 246.410000 177.580000 246.410000 176.700000 244.720000 C 175.810000 243.030000 175.810000 240.290000 176.700000 238.600000 C 177.580000 236.910000 179.020000 236.910000 179.910000 238.600000 Z"/><path fill="rgb(84, 122, 95)" d=" M 66.320000 141.660000 C 66.320000 141.660000 97.850000 155.180000 144.020000 144.480000 L 156.980000 137.720000 L 154.720000 143.350000 C 154.720000 143.350000 169.360000 141.100000 173.860000 143.920000 L 166.550000 148.420000 L 174.990000 151.240000 L 168.800000 154.610000 L 174.990000 158.560000 L 169.360000 163.060000 L 174.430000 165.880000 C 174.430000 165.880000 109.600000 212.660000 62.860000 176.620000 C 58.720000 164.700000 58.700000 152.990000 66.320000 141.660000 Z"/><path fill="rgb(45, 65, 51)" d=" M 76.870000 150.250000 C 77.720000 151.790000 78.720000 153.240000 79.800000 154.620000 C 80.870000 156.010000 82.020000 157.330000 83.240000 158.580000 C 85.670000 161.080000 88.330000 163.370000 91.220000 165.320000 C 94.070000 167.340000 97.140000 169.030000 100.320000 170.490000 C 101.900000 171.240000 103.530000 171.890000 105.170000 172.500000 C 106.810000 173.130000 108.490000 173.660000 110.170000 174.190000 C 106.700000 173.550000 103.300000 172.530000 100.020000 171.190000 C 96.730000 169.840000 93.610000 168.120000 90.660000 166.130000 C 87.770000 164.070000 85.040000 161.750000 82.680000 159.090000 C 80.350000 156.430000 78.250000 153.510000 76.870000 150.250000 Z"/><path fill="rgb(45, 65, 51)" d=" M 79.470000 160.660000 C 79.590000 159.740000 79.930000 158.850000 80.370000 158.030000 C 80.810000 157.200000 81.400000 156.440000 82.090000 155.780000 C 83.460000 154.470000 85.410000 153.650000 87.280000 153.900000 C 86.390000 154.190000 85.570000 154.510000 84.820000 154.950000 C 84.070000 155.390000 83.380000 155.900000 82.760000 156.500000 C 81.490000 157.680000 80.470000 159.110000 79.470000 160.660000 Z"/><path fill="rgb(45, 65, 51)" d=" M 84.670000 165.340000 C 84.930000 164.700000 85.360000 164.160000 85.810000 163.670000 C 86.260000 163.180000 86.780000 162.750000 87.310000 162.350000 C 88.400000 161.590000 89.580000 160.960000 90.920000 160.660000 C 89.970000 161.640000 88.920000 162.390000 87.890000 163.150000 C 86.840000 163.900000 85.800000 164.600000 84.670000 165.340000 Z"/><path fill="rgb(45, 65, 51)" d=" M 91.440000 169.510000 C 91.260000 169.530000 91.080000 169.520000 90.890000 169.460000 C 90.710000 169.410000 90.480000 169.230000 90.450000 168.940000 C 90.460000 168.400000 90.770000 168.110000 91.010000 167.840000 C 91.520000 167.310000 92.120000 166.940000 92.730000 166.600000 C 93.950000 165.970000 95.240000 165.500000 96.640000 165.340000 C 95.540000 166.220000 94.350000 166.830000 93.190000 167.470000 C 92.610000 167.770000 92.030000 168.080000 91.500000 168.420000 C 91.250000 168.580000 90.990000 168.790000 90.930000 168.950000 C 90.820000 169.080000 91.130000 169.370000 91.440000 169.510000 Z"/><path fill="rgb(45, 65, 51)" d=" M 98.770000 173.710000 C 98.500000 172.970000 98.710000 172.120000 99.050000 171.420000 C 99.390000 170.700000 99.900000 170.080000 100.460000 169.550000 C 101.620000 168.510000 103.000000 167.790000 104.490000 167.470000 C 103.350000 168.480000 102.160000 169.310000 101.130000 170.280000 C 100.600000 170.740000 100.130000 171.260000 99.700000 171.810000 C 99.300000 172.370000 98.920000 172.970000 98.770000 173.710000 Z"/><path fill="rgb(97, 142, 110)" d=" M 72.600000 166.040000 C 74.130000 167.670000 74.130000 170.300000 72.600000 171.930000 C 71.080000 173.560000 68.610000 173.560000 67.080000 171.930000 C 65.560000 170.300000 65.560000 167.670000 67.080000 166.040000 C 68.610000 164.420000 71.080000 164.420000 72.600000 166.040000 Z"/><path fill="rgb(97, 142, 110)" d=" M 81.020000 173.540000 C 82.160000 174.760000 82.160000 176.740000 81.020000 177.960000 C 79.880000 179.180000 78.020000 179.180000 76.880000 177.960000 C 75.740000 176.740000 75.740000 174.760000 76.880000 173.540000 C 78.020000 172.330000 79.880000 172.330000 81.020000 173.540000 Z"/><path fill="rgb(97, 142, 110)" d=" M 81.540000 166.260000 C 82.680000 167.480000 82.680000 169.450000 81.540000 170.670000 C 80.400000 171.890000 78.540000 171.890000 77.400000 170.670000 C 76.260000 169.450000 76.260000 167.480000 77.400000 166.260000 C 78.540000 165.040000 80.400000 165.040000 81.540000 166.260000 Z"/><path fill="rgb(130, 26, 47)" d=" M 108.150000 148.590000 C 108.890000 152.490000 107.890000 158.870000 111.070000 160.930000 C 115.530000 163.820000 113.430000 155.980000 115.360000 153.410000 C 118.080000 158.060000 115.840000 170.750000 122.580000 172.360000 C 127.510000 166.780000 121.740000 157.220000 127.250000 151.810000 C 128.440000 153.560000 129.030000 156.010000 131.290000 156.340000 C 131.550000 154.350000 131.990000 152.420000 133.200000 150.890000 C 134.340000 153.650000 136.520000 158.980000 139.010000 154.160000 C 139.720000 152.800000 139.530000 148.470000 139.320000 145.490000 C 127.850000 147.800000 117.380000 148.620000 108.150000 148.590000 Z"/><path fill="rgb(130, 26, 47)" d=" M 133.900000 163.040000 C 134.790000 163.930000 134.790000 165.380000 133.900000 166.270000 C 133.000000 167.170000 131.560000 167.170000 130.660000 166.270000 C 129.770000 165.380000 129.770000 163.930000 130.660000 163.040000 C 131.560000 162.150000 133.000000 162.150000 133.900000 163.040000 Z"/><path fill="rgb(130, 26, 47)" d=" M 123.580000 177.470000 C 124.200000 178.100000 124.200000 179.110000 123.580000 179.740000 C 122.950000 180.360000 121.940000 180.360000 121.310000 179.740000 C 120.690000 179.110000 120.690000 178.100000 121.310000 177.470000 C 121.940000 176.850000 122.950000 176.850000 123.580000 177.470000 Z"/></svg>